G04 #@! TF.GenerationSoftware,KiCad,Pcbnew,(5.1.5)-3*
G04 #@! TF.CreationDate,2020-05-16T16:31:21+01:00*
G04 #@! TF.ProjectId,AddaTone Solder Stencil,41646461-546f-46e6-9520-536f6c646572,rev?*
G04 #@! TF.SameCoordinates,Original*
G04 #@! TF.FileFunction,Legend,Top*
G04 #@! TF.FilePolarity,Positive*
%FSLAX46Y46*%
G04 Gerber Fmt 4.6, Leading zero omitted, Abs format (unit mm)*
G04 Created by KiCad (PCBNEW (5.1.5)-3) date 2020-05-16 16:31:21*
%MOMM*%
%LPD*%
G04 APERTURE LIST*
%ADD10C,0.150000*%
%ADD11C,0.400000*%
%ADD12C,0.120000*%
%ADD13C,0.100000*%
G04 APERTURE END LIST*
D10*
X103080952Y-53966666D02*
X103557142Y-53966666D01*
X102985714Y-54252380D02*
X103319047Y-53252380D01*
X103652380Y-54252380D01*
X104414285Y-54252380D02*
X104414285Y-53252380D01*
X104414285Y-54204761D02*
X104319047Y-54252380D01*
X104128571Y-54252380D01*
X104033333Y-54204761D01*
X103985714Y-54157142D01*
X103938095Y-54061904D01*
X103938095Y-53776190D01*
X103985714Y-53680952D01*
X104033333Y-53633333D01*
X104128571Y-53585714D01*
X104319047Y-53585714D01*
X104414285Y-53633333D01*
X105319047Y-54252380D02*
X105319047Y-53252380D01*
X105319047Y-54204761D02*
X105223809Y-54252380D01*
X105033333Y-54252380D01*
X104938095Y-54204761D01*
X104890476Y-54157142D01*
X104842857Y-54061904D01*
X104842857Y-53776190D01*
X104890476Y-53680952D01*
X104938095Y-53633333D01*
X105033333Y-53585714D01*
X105223809Y-53585714D01*
X105319047Y-53633333D01*
X106223809Y-54252380D02*
X106223809Y-53728571D01*
X106176190Y-53633333D01*
X106080952Y-53585714D01*
X105890476Y-53585714D01*
X105795238Y-53633333D01*
X106223809Y-54204761D02*
X106128571Y-54252380D01*
X105890476Y-54252380D01*
X105795238Y-54204761D01*
X105747619Y-54109523D01*
X105747619Y-54014285D01*
X105795238Y-53919047D01*
X105890476Y-53871428D01*
X106128571Y-53871428D01*
X106223809Y-53823809D01*
X106557142Y-53585714D02*
X106938095Y-53585714D01*
X106700000Y-53252380D02*
X106700000Y-54109523D01*
X106747619Y-54204761D01*
X106842857Y-54252380D01*
X106938095Y-54252380D01*
X107414285Y-54252380D02*
X107319047Y-54204761D01*
X107271428Y-54157142D01*
X107223809Y-54061904D01*
X107223809Y-53776190D01*
X107271428Y-53680952D01*
X107319047Y-53633333D01*
X107414285Y-53585714D01*
X107557142Y-53585714D01*
X107652380Y-53633333D01*
X107700000Y-53680952D01*
X107747619Y-53776190D01*
X107747619Y-54061904D01*
X107700000Y-54157142D01*
X107652380Y-54204761D01*
X107557142Y-54252380D01*
X107414285Y-54252380D01*
X108176190Y-53585714D02*
X108176190Y-54252380D01*
X108176190Y-53680952D02*
X108223809Y-53633333D01*
X108319047Y-53585714D01*
X108461904Y-53585714D01*
X108557142Y-53633333D01*
X108604761Y-53728571D01*
X108604761Y-54252380D01*
X109461904Y-54204761D02*
X109366666Y-54252380D01*
X109176190Y-54252380D01*
X109080952Y-54204761D01*
X109033333Y-54109523D01*
X109033333Y-53728571D01*
X109080952Y-53633333D01*
X109176190Y-53585714D01*
X109366666Y-53585714D01*
X109461904Y-53633333D01*
X109509523Y-53728571D01*
X109509523Y-53823809D01*
X109033333Y-53919047D01*
X110652380Y-54204761D02*
X110795238Y-54252380D01*
X111033333Y-54252380D01*
X111128571Y-54204761D01*
X111176190Y-54157142D01*
X111223809Y-54061904D01*
X111223809Y-53966666D01*
X111176190Y-53871428D01*
X111128571Y-53823809D01*
X111033333Y-53776190D01*
X110842857Y-53728571D01*
X110747619Y-53680952D01*
X110700000Y-53633333D01*
X110652380Y-53538095D01*
X110652380Y-53442857D01*
X110700000Y-53347619D01*
X110747619Y-53300000D01*
X110842857Y-53252380D01*
X111080952Y-53252380D01*
X111223809Y-53300000D01*
X111509523Y-53585714D02*
X111890476Y-53585714D01*
X111652380Y-53252380D02*
X111652380Y-54109523D01*
X111700000Y-54204761D01*
X111795238Y-54252380D01*
X111890476Y-54252380D01*
X112604761Y-54204761D02*
X112509523Y-54252380D01*
X112319047Y-54252380D01*
X112223809Y-54204761D01*
X112176190Y-54109523D01*
X112176190Y-53728571D01*
X112223809Y-53633333D01*
X112319047Y-53585714D01*
X112509523Y-53585714D01*
X112604761Y-53633333D01*
X112652380Y-53728571D01*
X112652380Y-53823809D01*
X112176190Y-53919047D01*
X113080952Y-53585714D02*
X113080952Y-54252380D01*
X113080952Y-53680952D02*
X113128571Y-53633333D01*
X113223809Y-53585714D01*
X113366666Y-53585714D01*
X113461904Y-53633333D01*
X113509523Y-53728571D01*
X113509523Y-54252380D01*
X114414285Y-54204761D02*
X114319047Y-54252380D01*
X114128571Y-54252380D01*
X114033333Y-54204761D01*
X113985714Y-54157142D01*
X113938095Y-54061904D01*
X113938095Y-53776190D01*
X113985714Y-53680952D01*
X114033333Y-53633333D01*
X114128571Y-53585714D01*
X114319047Y-53585714D01*
X114414285Y-53633333D01*
X114842857Y-54252380D02*
X114842857Y-53585714D01*
X114842857Y-53252380D02*
X114795238Y-53300000D01*
X114842857Y-53347619D01*
X114890476Y-53300000D01*
X114842857Y-53252380D01*
X114842857Y-53347619D01*
X115461904Y-54252380D02*
X115366666Y-54204761D01*
X115319047Y-54109523D01*
X115319047Y-53252380D01*
X116509523Y-53585714D02*
X116747619Y-54252380D01*
X116985714Y-53585714D01*
X117890476Y-54252380D02*
X117319047Y-54252380D01*
X117604761Y-54252380D02*
X117604761Y-53252380D01*
X117509523Y-53395238D01*
X117414285Y-53490476D01*
X117319047Y-53538095D01*
X118319047Y-54157142D02*
X118366666Y-54204761D01*
X118319047Y-54252380D01*
X118271428Y-54204761D01*
X118319047Y-54157142D01*
X118319047Y-54252380D01*
X118985714Y-53252380D02*
X119080952Y-53252380D01*
X119176190Y-53300000D01*
X119223809Y-53347619D01*
X119271428Y-53442857D01*
X119319047Y-53633333D01*
X119319047Y-53871428D01*
X119271428Y-54061904D01*
X119223809Y-54157142D01*
X119176190Y-54204761D01*
X119080952Y-54252380D01*
X118985714Y-54252380D01*
X118890476Y-54204761D01*
X118842857Y-54157142D01*
X118795238Y-54061904D01*
X118747619Y-53871428D01*
X118747619Y-53633333D01*
X118795238Y-53442857D01*
X118842857Y-53347619D01*
X118890476Y-53300000D01*
X118985714Y-53252380D01*
X148800000Y-62100000D02*
X148800000Y-59900000D01*
X117400000Y-67300000D02*
X119600000Y-67300000D01*
X113100000Y-129700000D02*
X115300000Y-129700000D01*
D11*
X147700000Y-136600000D02*
G75*
G03X147700000Y-136600000I-200000J0D01*
G01*
X147000000Y-148400000D02*
G75*
G03X147000000Y-148400000I-200000J0D01*
G01*
X120400000Y-95100000D02*
G75*
G03X120400000Y-95100000I-200000J0D01*
G01*
X122223607Y-137800000D02*
G75*
G03X122223607Y-137800000I-223607J0D01*
G01*
X134300000Y-104500000D02*
G75*
G03X134300000Y-104500000I-200000J0D01*
G01*
D10*
X181845000Y-143010000D02*
X181845000Y-142910000D01*
X181845000Y-136185000D02*
X181845000Y-136210000D01*
X186495000Y-136185000D02*
X186495000Y-136210000D01*
X187570000Y-143010000D02*
X181845000Y-143010000D01*
X186495000Y-136185000D02*
X181845000Y-136185000D01*
X145025000Y-141925000D02*
X140375000Y-141925000D01*
X146100000Y-148750000D02*
X140375000Y-148750000D01*
X145025000Y-141925000D02*
X145025000Y-141950000D01*
X140375000Y-141925000D02*
X140375000Y-141950000D01*
X140375000Y-148750000D02*
X140375000Y-148650000D01*
D12*
X186760000Y-102490000D02*
X186760000Y-101150000D01*
X187710000Y-102490000D02*
X186760000Y-102490000D01*
X187710000Y-103440000D02*
X187710000Y-102490000D01*
X187710000Y-112710000D02*
X186760000Y-112710000D01*
X187710000Y-111760000D02*
X187710000Y-112710000D01*
X177490000Y-102490000D02*
X178440000Y-102490000D01*
X177490000Y-103440000D02*
X177490000Y-102490000D01*
X177490000Y-112710000D02*
X178440000Y-112710000D01*
X177490000Y-111760000D02*
X177490000Y-112710000D01*
D10*
X179875000Y-77325000D02*
X179875000Y-76800000D01*
X187125000Y-70075000D02*
X187125000Y-70600000D01*
X179875000Y-70075000D02*
X179875000Y-70600000D01*
X187125000Y-77325000D02*
X186600000Y-77325000D01*
X187125000Y-70075000D02*
X186600000Y-70075000D01*
X179875000Y-70075000D02*
X180400000Y-70075000D01*
X179875000Y-77325000D02*
X180400000Y-77325000D01*
X113875000Y-138125000D02*
X114400000Y-138125000D01*
X113875000Y-130875000D02*
X114400000Y-130875000D01*
X121125000Y-130875000D02*
X120600000Y-130875000D01*
X121125000Y-138125000D02*
X120600000Y-138125000D01*
X113875000Y-130875000D02*
X113875000Y-131400000D01*
X121125000Y-130875000D02*
X121125000Y-131400000D01*
X113875000Y-138125000D02*
X113875000Y-137600000D01*
D12*
X130425000Y-101850000D02*
X138400000Y-101850000D01*
X130425000Y-97950000D02*
X130425000Y-101850000D01*
X138400000Y-97950000D02*
X130425000Y-97950000D01*
X148650000Y-62000000D02*
X144750000Y-62000000D01*
X148650000Y-60000000D02*
X144750000Y-60000000D01*
X148650000Y-62000000D02*
X148650000Y-60000000D01*
X120360000Y-78580000D02*
X118900000Y-78580000D01*
X120360000Y-75420000D02*
X118200000Y-75420000D01*
X120360000Y-75420000D02*
X120360000Y-76350000D01*
X120360000Y-78580000D02*
X120360000Y-77650000D01*
X113770000Y-68510000D02*
X113770000Y-70060000D01*
X113770000Y-73840000D02*
X113770000Y-72290000D01*
X108430000Y-73080000D02*
X108430000Y-72290000D01*
X108430000Y-69270000D02*
X108430000Y-70060000D01*
X113770000Y-68510000D02*
X109190000Y-68510000D01*
X109190000Y-68510000D02*
X108430000Y-69270000D01*
X108430000Y-73080000D02*
X109190000Y-73840000D01*
X109190000Y-73840000D02*
X113770000Y-73840000D01*
X115300000Y-74950000D02*
X114300000Y-74950000D01*
X114300000Y-76650000D02*
X115300000Y-76650000D01*
X119500000Y-67450000D02*
X117500000Y-67450000D01*
X117500000Y-67450000D02*
X117500000Y-71350000D01*
X119500000Y-67450000D02*
X119500000Y-71350000D01*
X114100000Y-77120000D02*
X115300000Y-77120000D01*
X115300000Y-78880000D02*
X114100000Y-78880000D01*
X135050000Y-146100000D02*
X135750000Y-146100000D01*
X135750000Y-147300000D02*
X135050000Y-147300000D01*
X119800000Y-106850000D02*
X119800000Y-106150000D01*
X121000000Y-106150000D02*
X121000000Y-106850000D01*
X117900000Y-125750000D02*
X117900000Y-125050000D01*
X119100000Y-125050000D02*
X119100000Y-125750000D01*
X125850000Y-133300000D02*
X126550000Y-133300000D01*
X126550000Y-134500000D02*
X125850000Y-134500000D01*
X124750000Y-134900000D02*
X125450000Y-134900000D01*
X125450000Y-136100000D02*
X124750000Y-136100000D01*
X119050000Y-115100000D02*
X118350000Y-115100000D01*
X118350000Y-113900000D02*
X119050000Y-113900000D01*
X109000000Y-90080000D02*
X107800000Y-90080000D01*
X107800000Y-88320000D02*
X109000000Y-88320000D01*
X134850000Y-133600000D02*
X134850000Y-134600000D01*
X136550000Y-134600000D02*
X136550000Y-133600000D01*
X132580000Y-133400000D02*
X132580000Y-134600000D01*
X130820000Y-134600000D02*
X130820000Y-133400000D01*
X153380000Y-134100000D02*
X153380000Y-135300000D01*
X151620000Y-135300000D02*
X151620000Y-134100000D01*
X140900000Y-140480000D02*
X139700000Y-140480000D01*
X139700000Y-138720000D02*
X140900000Y-138720000D01*
X139000000Y-95750000D02*
X138000000Y-95750000D01*
X138000000Y-97450000D02*
X139000000Y-97450000D01*
X133000000Y-95750000D02*
X132000000Y-95750000D01*
X132000000Y-97450000D02*
X133000000Y-97450000D01*
X118200000Y-113550000D02*
X119200000Y-113550000D01*
X119200000Y-111850000D02*
X118200000Y-111850000D01*
X108900000Y-141750000D02*
X109900000Y-141750000D01*
X109900000Y-140050000D02*
X108900000Y-140050000D01*
X136300000Y-117150000D02*
X135300000Y-117150000D01*
X135300000Y-118850000D02*
X136300000Y-118850000D01*
X138200000Y-106050000D02*
X139200000Y-106050000D01*
X139200000Y-104350000D02*
X138200000Y-104350000D01*
X109900000Y-137950000D02*
X108900000Y-137950000D01*
X108900000Y-139650000D02*
X109900000Y-139650000D01*
X115750000Y-125200000D02*
X115750000Y-126200000D01*
X117450000Y-126200000D02*
X117450000Y-125200000D01*
X147450000Y-152700000D02*
X147450000Y-151700000D01*
X145750000Y-151700000D02*
X145750000Y-152700000D01*
X111600000Y-123150000D02*
X110600000Y-123150000D01*
X110600000Y-124850000D02*
X111600000Y-124850000D01*
X109900000Y-127650000D02*
X108900000Y-127650000D01*
X108900000Y-129350000D02*
X109900000Y-129350000D01*
X149200000Y-142450000D02*
X150200000Y-142450000D01*
X150200000Y-140750000D02*
X149200000Y-140750000D01*
X134900000Y-140450000D02*
X135900000Y-140450000D01*
X135900000Y-138750000D02*
X134900000Y-138750000D01*
X108900000Y-131450000D02*
X109900000Y-131450000D01*
X109900000Y-129750000D02*
X108900000Y-129750000D01*
X125600000Y-137050000D02*
X124600000Y-137050000D01*
X124600000Y-138750000D02*
X125600000Y-138750000D01*
X108900000Y-135650000D02*
X109900000Y-135650000D01*
X109900000Y-133950000D02*
X108900000Y-133950000D01*
X145450000Y-152700000D02*
X145450000Y-151700000D01*
X143750000Y-151700000D02*
X143750000Y-152700000D01*
X135900000Y-150050000D02*
X134900000Y-150050000D01*
X134900000Y-151750000D02*
X135900000Y-151750000D01*
X108900000Y-137650000D02*
X109900000Y-137650000D01*
X109900000Y-135950000D02*
X108900000Y-135950000D01*
X124600000Y-140750000D02*
X125600000Y-140750000D01*
X125600000Y-139050000D02*
X124600000Y-139050000D01*
X125450000Y-94900000D02*
X125450000Y-95900000D01*
X127150000Y-95900000D02*
X127150000Y-94900000D01*
X126950000Y-86100000D02*
X126950000Y-85100000D01*
X125250000Y-85100000D02*
X125250000Y-86100000D01*
X107650000Y-85100000D02*
X107650000Y-86100000D01*
X109350000Y-86100000D02*
X109350000Y-85100000D01*
X107850000Y-94800000D02*
X107850000Y-95800000D01*
X109550000Y-95800000D02*
X109550000Y-94800000D01*
X148950000Y-148500000D02*
X148950000Y-149500000D01*
X150650000Y-149500000D02*
X150650000Y-148500000D01*
X153450000Y-144500000D02*
X153450000Y-145500000D01*
X155150000Y-145500000D02*
X155150000Y-144500000D01*
X149200000Y-146450000D02*
X150200000Y-146450000D01*
X150200000Y-144750000D02*
X149200000Y-144750000D01*
X149650000Y-134200000D02*
X149650000Y-135200000D01*
X151350000Y-135200000D02*
X151350000Y-134200000D01*
X139510000Y-70030000D02*
X139510000Y-67490000D01*
X136070000Y-67470000D02*
X136070000Y-70010000D01*
X139510000Y-70030000D02*
X138920000Y-70030000D01*
X139510000Y-67490000D02*
X138920000Y-66890000D01*
X136070000Y-70030000D02*
X136680000Y-70030000D01*
X136070000Y-67470000D02*
X136680000Y-66860000D01*
X127630000Y-150030000D02*
X127020000Y-150640000D01*
X127630000Y-147470000D02*
X127020000Y-147470000D01*
X124190000Y-150010000D02*
X124780000Y-150610000D01*
X124190000Y-147470000D02*
X124780000Y-147470000D01*
X127630000Y-150030000D02*
X127630000Y-147490000D01*
X124190000Y-147470000D02*
X124190000Y-150010000D01*
X156340000Y-61110000D02*
X156340000Y-56530000D01*
X155580000Y-61870000D02*
X156340000Y-61110000D01*
X151010000Y-61110000D02*
X151770000Y-61870000D01*
X151010000Y-56530000D02*
X151010000Y-61110000D01*
X151770000Y-61870000D02*
X152560000Y-61870000D01*
X155580000Y-61870000D02*
X154790000Y-61870000D01*
X156340000Y-56530000D02*
X154790000Y-56530000D01*
X151010000Y-56530000D02*
X152560000Y-56530000D01*
X156940000Y-70410000D02*
X156940000Y-65830000D01*
X156180000Y-71170000D02*
X156940000Y-70410000D01*
X151610000Y-70410000D02*
X152370000Y-71170000D01*
X151610000Y-65830000D02*
X151610000Y-70410000D01*
X152370000Y-71170000D02*
X153160000Y-71170000D01*
X156180000Y-71170000D02*
X155390000Y-71170000D01*
X156940000Y-65830000D02*
X155390000Y-65830000D01*
X151610000Y-65830000D02*
X153160000Y-65830000D01*
X110590000Y-147270000D02*
X110590000Y-149810000D01*
X114030000Y-149830000D02*
X114030000Y-147290000D01*
X110590000Y-147270000D02*
X111180000Y-147270000D01*
X110590000Y-149810000D02*
X111180000Y-150410000D01*
X114030000Y-147270000D02*
X113420000Y-147270000D01*
X114030000Y-149830000D02*
X113420000Y-150440000D01*
X134900000Y-149750000D02*
X135900000Y-149750000D01*
X135900000Y-148050000D02*
X134900000Y-148050000D01*
X113200000Y-129550000D02*
X113200000Y-125650000D01*
X115200000Y-129550000D02*
X115200000Y-125650000D01*
X113200000Y-129550000D02*
X115200000Y-129550000D01*
X140120000Y-76700000D02*
X140120000Y-75500000D01*
X141880000Y-75500000D02*
X141880000Y-76700000D01*
X110000000Y-133580000D02*
X108800000Y-133580000D01*
X108800000Y-131820000D02*
X110000000Y-131820000D01*
X129380000Y-94800000D02*
X129380000Y-96000000D01*
X127620000Y-96000000D02*
X127620000Y-94800000D01*
X126700000Y-92680000D02*
X125500000Y-92680000D01*
X125500000Y-90920000D02*
X126700000Y-90920000D01*
X127420000Y-86200000D02*
X127420000Y-85000000D01*
X129180000Y-85000000D02*
X129180000Y-86200000D01*
X126700000Y-90280000D02*
X125500000Y-90280000D01*
X125500000Y-88520000D02*
X126700000Y-88520000D01*
X107280000Y-85000000D02*
X107280000Y-86200000D01*
X105520000Y-86200000D02*
X105520000Y-85000000D01*
X105520000Y-95900000D02*
X105520000Y-94700000D01*
X107280000Y-94700000D02*
X107280000Y-95900000D01*
X109000000Y-92480000D02*
X107800000Y-92480000D01*
X107800000Y-90720000D02*
X109000000Y-90720000D01*
X124980000Y-94800000D02*
X124980000Y-96000000D01*
X123220000Y-96000000D02*
X123220000Y-94800000D01*
X123020000Y-86200000D02*
X123020000Y-85000000D01*
X124780000Y-85000000D02*
X124780000Y-86200000D01*
X111480000Y-85000000D02*
X111480000Y-86200000D01*
X109720000Y-86200000D02*
X109720000Y-85000000D01*
X110020000Y-95800000D02*
X110020000Y-94600000D01*
X111780000Y-94600000D02*
X111780000Y-95800000D01*
X150300000Y-144480000D02*
X149100000Y-144480000D01*
X149100000Y-142720000D02*
X150300000Y-142720000D01*
X153420000Y-140500000D02*
X153420000Y-139300000D01*
X155180000Y-139300000D02*
X155180000Y-140500000D01*
X134580000Y-133400000D02*
X134580000Y-134600000D01*
X132820000Y-134600000D02*
X132820000Y-133400000D01*
X138580000Y-133500000D02*
X138580000Y-134700000D01*
X136820000Y-134700000D02*
X136820000Y-133500000D01*
X155380000Y-134100000D02*
X155380000Y-135300000D01*
X153620000Y-135300000D02*
X153620000Y-134100000D01*
X123990000Y-114560000D02*
X123990000Y-115510000D01*
X123990000Y-115510000D02*
X124940000Y-115510000D01*
X123990000Y-106240000D02*
X123990000Y-105290000D01*
X123990000Y-105290000D02*
X124940000Y-105290000D01*
X134210000Y-114560000D02*
X134210000Y-115510000D01*
X134210000Y-115510000D02*
X133260000Y-115510000D01*
X134210000Y-106240000D02*
X134210000Y-105290000D01*
X134210000Y-105290000D02*
X133260000Y-105290000D01*
X133260000Y-105290000D02*
X133260000Y-103950000D01*
D10*
X117762000Y-94245000D02*
X117762000Y-94880000D01*
X116492000Y-94245000D02*
X117762000Y-94245000D01*
X116492000Y-94880000D02*
X116492000Y-94245000D01*
X114714000Y-94880000D02*
X114714000Y-84720000D01*
X119540000Y-94880000D02*
X114714000Y-94880000D01*
X119540000Y-84720000D02*
X119540000Y-94880000D01*
X114714000Y-84720000D02*
X119540000Y-84720000D01*
X142114000Y-136240000D02*
X142114000Y-131160000D01*
X142114000Y-131160000D02*
X146686000Y-131160000D01*
X146686000Y-131160000D02*
X146686000Y-136240000D01*
X146686000Y-136240000D02*
X142114000Y-136240000D01*
X143638000Y-136240000D02*
X143638000Y-135732000D01*
X143638000Y-135732000D02*
X144908000Y-135732000D01*
X144908000Y-135732000D02*
X144908000Y-136240000D01*
D12*
X115890000Y-153300000D02*
X115890000Y-147290000D01*
X122710000Y-151050000D02*
X122710000Y-147290000D01*
X115890000Y-147290000D02*
X117150000Y-147290000D01*
X122710000Y-147290000D02*
X121450000Y-147290000D01*
X141690000Y-70110000D02*
X142950000Y-70110000D01*
X148510000Y-70110000D02*
X147250000Y-70110000D01*
X141690000Y-66350000D02*
X141690000Y-70110000D01*
X148510000Y-64100000D02*
X148510000Y-70110000D01*
D10*
X183408095Y-137612380D02*
X183408095Y-138421904D01*
X183455714Y-138517142D01*
X183503333Y-138564761D01*
X183598571Y-138612380D01*
X183789047Y-138612380D01*
X183884285Y-138564761D01*
X183931904Y-138517142D01*
X183979523Y-138421904D01*
X183979523Y-137612380D01*
X184884285Y-137945714D02*
X184884285Y-138612380D01*
X184646190Y-137564761D02*
X184408095Y-138279047D01*
X185027142Y-138279047D01*
X141938095Y-143352380D02*
X141938095Y-144161904D01*
X141985714Y-144257142D01*
X142033333Y-144304761D01*
X142128571Y-144352380D01*
X142319047Y-144352380D01*
X142414285Y-144304761D01*
X142461904Y-144257142D01*
X142509523Y-144161904D01*
X142509523Y-143352380D01*
X143414285Y-143685714D02*
X143414285Y-144352380D01*
X143176190Y-143304761D02*
X142938095Y-144019047D01*
X143557142Y-144019047D01*
X134823809Y-99876190D02*
X134823809Y-100352380D01*
X134490476Y-99352380D02*
X134823809Y-99876190D01*
X135157142Y-99352380D01*
X136014285Y-100352380D02*
X135442857Y-100352380D01*
X135728571Y-100352380D02*
X135728571Y-99352380D01*
X135633333Y-99495238D01*
X135538095Y-99590476D01*
X135442857Y-99638095D01*
X142061904Y-61452380D02*
X142061904Y-60452380D01*
X142300000Y-60452380D01*
X142442857Y-60500000D01*
X142538095Y-60595238D01*
X142585714Y-60690476D01*
X142633333Y-60880952D01*
X142633333Y-61023809D01*
X142585714Y-61214285D01*
X142538095Y-61309523D01*
X142442857Y-61404761D01*
X142300000Y-61452380D01*
X142061904Y-61452380D01*
X142966666Y-60452380D02*
X143585714Y-60452380D01*
X143252380Y-60833333D01*
X143395238Y-60833333D01*
X143490476Y-60880952D01*
X143538095Y-60928571D01*
X143585714Y-61023809D01*
X143585714Y-61261904D01*
X143538095Y-61357142D01*
X143490476Y-61404761D01*
X143395238Y-61452380D01*
X143109523Y-61452380D01*
X143014285Y-61404761D01*
X142966666Y-61357142D01*
X144257142Y-59352380D02*
X143685714Y-59352380D01*
X143971428Y-59352380D02*
X143971428Y-58352380D01*
X143876190Y-58495238D01*
X143780952Y-58590476D01*
X143685714Y-58638095D01*
X144685714Y-59352380D02*
X144685714Y-58352380D01*
X145257142Y-59352380D01*
X145257142Y-58352380D01*
X146209523Y-58352380D02*
X145733333Y-58352380D01*
X145685714Y-58828571D01*
X145733333Y-58780952D01*
X145828571Y-58733333D01*
X146066666Y-58733333D01*
X146161904Y-58780952D01*
X146209523Y-58828571D01*
X146257142Y-58923809D01*
X146257142Y-59161904D01*
X146209523Y-59257142D01*
X146161904Y-59304761D01*
X146066666Y-59352380D01*
X145828571Y-59352380D01*
X145733333Y-59304761D01*
X145685714Y-59257142D01*
X146828571Y-58780952D02*
X146733333Y-58733333D01*
X146685714Y-58685714D01*
X146638095Y-58590476D01*
X146638095Y-58542857D01*
X146685714Y-58447619D01*
X146733333Y-58400000D01*
X146828571Y-58352380D01*
X147019047Y-58352380D01*
X147114285Y-58400000D01*
X147161904Y-58447619D01*
X147209523Y-58542857D01*
X147209523Y-58590476D01*
X147161904Y-58685714D01*
X147114285Y-58733333D01*
X147019047Y-58780952D01*
X146828571Y-58780952D01*
X146733333Y-58828571D01*
X146685714Y-58876190D01*
X146638095Y-58971428D01*
X146638095Y-59161904D01*
X146685714Y-59257142D01*
X146733333Y-59304761D01*
X146828571Y-59352380D01*
X147019047Y-59352380D01*
X147114285Y-59304761D01*
X147161904Y-59257142D01*
X147209523Y-59161904D01*
X147209523Y-58971428D01*
X147161904Y-58876190D01*
X147114285Y-58828571D01*
X147019047Y-58780952D01*
X148161904Y-59352380D02*
X147590476Y-59352380D01*
X147876190Y-59352380D02*
X147876190Y-58352380D01*
X147780952Y-58495238D01*
X147685714Y-58590476D01*
X147590476Y-58638095D01*
X148638095Y-59352380D02*
X148828571Y-59352380D01*
X148923809Y-59304761D01*
X148971428Y-59257142D01*
X149066666Y-59114285D01*
X149114285Y-58923809D01*
X149114285Y-58542857D01*
X149066666Y-58447619D01*
X149019047Y-58400000D01*
X148923809Y-58352380D01*
X148733333Y-58352380D01*
X148638095Y-58400000D01*
X148590476Y-58447619D01*
X148542857Y-58542857D01*
X148542857Y-58780952D01*
X148590476Y-58876190D01*
X148638095Y-58923809D01*
X148733333Y-58971428D01*
X148923809Y-58971428D01*
X149019047Y-58923809D01*
X149066666Y-58876190D01*
X149114285Y-58780952D01*
X121761904Y-76052380D02*
X121761904Y-75052380D01*
X122000000Y-75052380D01*
X122142857Y-75100000D01*
X122238095Y-75195238D01*
X122285714Y-75290476D01*
X122333333Y-75480952D01*
X122333333Y-75623809D01*
X122285714Y-75814285D01*
X122238095Y-75909523D01*
X122142857Y-76004761D01*
X122000000Y-76052380D01*
X121761904Y-76052380D01*
X122714285Y-75147619D02*
X122761904Y-75100000D01*
X122857142Y-75052380D01*
X123095238Y-75052380D01*
X123190476Y-75100000D01*
X123238095Y-75147619D01*
X123285714Y-75242857D01*
X123285714Y-75338095D01*
X123238095Y-75480952D01*
X122666666Y-76052380D01*
X123285714Y-76052380D01*
X120961904Y-74452380D02*
X120485714Y-74452380D01*
X120485714Y-73452380D01*
X121295238Y-74452380D02*
X121295238Y-73452380D01*
X121628571Y-74166666D01*
X121961904Y-73452380D01*
X121961904Y-74452380D01*
X122866666Y-73785714D02*
X122866666Y-74452380D01*
X122628571Y-73404761D02*
X122390476Y-74119047D01*
X123009523Y-74119047D01*
X123580952Y-73452380D02*
X123676190Y-73452380D01*
X123771428Y-73500000D01*
X123819047Y-73547619D01*
X123866666Y-73642857D01*
X123914285Y-73833333D01*
X123914285Y-74071428D01*
X123866666Y-74261904D01*
X123819047Y-74357142D01*
X123771428Y-74404761D01*
X123676190Y-74452380D01*
X123580952Y-74452380D01*
X123485714Y-74404761D01*
X123438095Y-74357142D01*
X123390476Y-74261904D01*
X123342857Y-74071428D01*
X123342857Y-73833333D01*
X123390476Y-73642857D01*
X123438095Y-73547619D01*
X123485714Y-73500000D01*
X123580952Y-73452380D01*
X124771428Y-73785714D02*
X124771428Y-74452380D01*
X124533333Y-73404761D02*
X124295238Y-74119047D01*
X124914285Y-74119047D01*
X125485714Y-73452380D02*
X125580952Y-73452380D01*
X125676190Y-73500000D01*
X125723809Y-73547619D01*
X125771428Y-73642857D01*
X125819047Y-73833333D01*
X125819047Y-74071428D01*
X125771428Y-74261904D01*
X125723809Y-74357142D01*
X125676190Y-74404761D01*
X125580952Y-74452380D01*
X125485714Y-74452380D01*
X125390476Y-74404761D01*
X125342857Y-74357142D01*
X125295238Y-74261904D01*
X125247619Y-74071428D01*
X125247619Y-73833333D01*
X125295238Y-73642857D01*
X125342857Y-73547619D01*
X125390476Y-73500000D01*
X125485714Y-73452380D01*
X126247619Y-74452380D02*
X126247619Y-73452380D01*
X126485714Y-73452380D01*
X126628571Y-73500000D01*
X126723809Y-73595238D01*
X126771428Y-73690476D01*
X126819047Y-73880952D01*
X126819047Y-74023809D01*
X126771428Y-74214285D01*
X126723809Y-74309523D01*
X126628571Y-74404761D01*
X126485714Y-74452380D01*
X126247619Y-74452380D01*
X127580952Y-73928571D02*
X127723809Y-73976190D01*
X127771428Y-74023809D01*
X127819047Y-74119047D01*
X127819047Y-74261904D01*
X127771428Y-74357142D01*
X127723809Y-74404761D01*
X127628571Y-74452380D01*
X127247619Y-74452380D01*
X127247619Y-73452380D01*
X127580952Y-73452380D01*
X127676190Y-73500000D01*
X127723809Y-73547619D01*
X127771428Y-73642857D01*
X127771428Y-73738095D01*
X127723809Y-73833333D01*
X127676190Y-73880952D01*
X127580952Y-73928571D01*
X127247619Y-73928571D01*
X128152380Y-73452380D02*
X128819047Y-73452380D01*
X128152380Y-74452380D01*
X128819047Y-74452380D01*
X129200000Y-74071428D02*
X129961904Y-74071428D01*
X130914285Y-73452380D02*
X130438095Y-73452380D01*
X130390476Y-73928571D01*
X130438095Y-73880952D01*
X130533333Y-73833333D01*
X130771428Y-73833333D01*
X130866666Y-73880952D01*
X130914285Y-73928571D01*
X130961904Y-74023809D01*
X130961904Y-74261904D01*
X130914285Y-74357142D01*
X130866666Y-74404761D01*
X130771428Y-74452380D01*
X130533333Y-74452380D01*
X130438095Y-74404761D01*
X130390476Y-74357142D01*
X107757142Y-67857142D02*
X107709523Y-67904761D01*
X107566666Y-67952380D01*
X107471428Y-67952380D01*
X107328571Y-67904761D01*
X107233333Y-67809523D01*
X107185714Y-67714285D01*
X107138095Y-67523809D01*
X107138095Y-67380952D01*
X107185714Y-67190476D01*
X107233333Y-67095238D01*
X107328571Y-67000000D01*
X107471428Y-66952380D01*
X107566666Y-66952380D01*
X107709523Y-67000000D01*
X107757142Y-67047619D01*
X108614285Y-67285714D02*
X108614285Y-67952380D01*
X108376190Y-66904761D02*
X108138095Y-67619047D01*
X108757142Y-67619047D01*
X109328571Y-66952380D02*
X109423809Y-66952380D01*
X109519047Y-67000000D01*
X109566666Y-67047619D01*
X109614285Y-67142857D01*
X109661904Y-67333333D01*
X109661904Y-67571428D01*
X109614285Y-67761904D01*
X109566666Y-67857142D01*
X109519047Y-67904761D01*
X109423809Y-67952380D01*
X109328571Y-67952380D01*
X109233333Y-67904761D01*
X109185714Y-67857142D01*
X109138095Y-67761904D01*
X109090476Y-67571428D01*
X109090476Y-67333333D01*
X109138095Y-67142857D01*
X109185714Y-67047619D01*
X109233333Y-67000000D01*
X109328571Y-66952380D01*
X110857142Y-67047619D02*
X110904761Y-67000000D01*
X111000000Y-66952380D01*
X111238095Y-66952380D01*
X111333333Y-67000000D01*
X111380952Y-67047619D01*
X111428571Y-67142857D01*
X111428571Y-67238095D01*
X111380952Y-67380952D01*
X110809523Y-67952380D01*
X111428571Y-67952380D01*
X111809523Y-67047619D02*
X111857142Y-67000000D01*
X111952380Y-66952380D01*
X112190476Y-66952380D01*
X112285714Y-67000000D01*
X112333333Y-67047619D01*
X112380952Y-67142857D01*
X112380952Y-67238095D01*
X112333333Y-67380952D01*
X111761904Y-67952380D01*
X112380952Y-67952380D01*
X113238095Y-67285714D02*
X113238095Y-67952380D01*
X112809523Y-67285714D02*
X112809523Y-67809523D01*
X112857142Y-67904761D01*
X112952380Y-67952380D01*
X113095238Y-67952380D01*
X113190476Y-67904761D01*
X113238095Y-67857142D01*
X114047619Y-67428571D02*
X113714285Y-67428571D01*
X113714285Y-67952380D02*
X113714285Y-66952380D01*
X114190476Y-66952380D01*
X107339047Y-73611428D02*
X108100952Y-73611428D01*
X107720000Y-73992380D02*
X107720000Y-73230476D01*
X110157142Y-76157142D02*
X110109523Y-76204761D01*
X109966666Y-76252380D01*
X109871428Y-76252380D01*
X109728571Y-76204761D01*
X109633333Y-76109523D01*
X109585714Y-76014285D01*
X109538095Y-75823809D01*
X109538095Y-75680952D01*
X109585714Y-75490476D01*
X109633333Y-75395238D01*
X109728571Y-75300000D01*
X109871428Y-75252380D01*
X109966666Y-75252380D01*
X110109523Y-75300000D01*
X110157142Y-75347619D01*
X110490476Y-75252380D02*
X111109523Y-75252380D01*
X110776190Y-75633333D01*
X110919047Y-75633333D01*
X111014285Y-75680952D01*
X111061904Y-75728571D01*
X111109523Y-75823809D01*
X111109523Y-76061904D01*
X111061904Y-76157142D01*
X111014285Y-76204761D01*
X110919047Y-76252380D01*
X110633333Y-76252380D01*
X110538095Y-76204761D01*
X110490476Y-76157142D01*
X111680952Y-75680952D02*
X111585714Y-75633333D01*
X111538095Y-75585714D01*
X111490476Y-75490476D01*
X111490476Y-75442857D01*
X111538095Y-75347619D01*
X111585714Y-75300000D01*
X111680952Y-75252380D01*
X111871428Y-75252380D01*
X111966666Y-75300000D01*
X112014285Y-75347619D01*
X112061904Y-75442857D01*
X112061904Y-75490476D01*
X112014285Y-75585714D01*
X111966666Y-75633333D01*
X111871428Y-75680952D01*
X111680952Y-75680952D01*
X111585714Y-75728571D01*
X111538095Y-75776190D01*
X111490476Y-75871428D01*
X111490476Y-76061904D01*
X111538095Y-76157142D01*
X111585714Y-76204761D01*
X111680952Y-76252380D01*
X111871428Y-76252380D01*
X111966666Y-76204761D01*
X112014285Y-76157142D01*
X112061904Y-76061904D01*
X112061904Y-75871428D01*
X112014285Y-75776190D01*
X111966666Y-75728571D01*
X111871428Y-75680952D01*
X114952380Y-74502380D02*
X114380952Y-74502380D01*
X114666666Y-74502380D02*
X114666666Y-73502380D01*
X114571428Y-73645238D01*
X114476190Y-73740476D01*
X114380952Y-73788095D01*
X115571428Y-73502380D02*
X115666666Y-73502380D01*
X115761904Y-73550000D01*
X115809523Y-73597619D01*
X115857142Y-73692857D01*
X115904761Y-73883333D01*
X115904761Y-74121428D01*
X115857142Y-74311904D01*
X115809523Y-74407142D01*
X115761904Y-74454761D01*
X115666666Y-74502380D01*
X115571428Y-74502380D01*
X115476190Y-74454761D01*
X115428571Y-74407142D01*
X115380952Y-74311904D01*
X115333333Y-74121428D01*
X115333333Y-73883333D01*
X115380952Y-73692857D01*
X115428571Y-73597619D01*
X115476190Y-73550000D01*
X115571428Y-73502380D01*
X116523809Y-73502380D02*
X116619047Y-73502380D01*
X116714285Y-73550000D01*
X116761904Y-73597619D01*
X116809523Y-73692857D01*
X116857142Y-73883333D01*
X116857142Y-74121428D01*
X116809523Y-74311904D01*
X116761904Y-74407142D01*
X116714285Y-74454761D01*
X116619047Y-74502380D01*
X116523809Y-74502380D01*
X116428571Y-74454761D01*
X116380952Y-74407142D01*
X116333333Y-74311904D01*
X116285714Y-74121428D01*
X116285714Y-73883333D01*
X116333333Y-73692857D01*
X116380952Y-73597619D01*
X116428571Y-73550000D01*
X116523809Y-73502380D01*
X117285714Y-73835714D02*
X117285714Y-74502380D01*
X117285714Y-73930952D02*
X117333333Y-73883333D01*
X117428571Y-73835714D01*
X117571428Y-73835714D01*
X117666666Y-73883333D01*
X117714285Y-73978571D01*
X117714285Y-74502380D01*
X118523809Y-73978571D02*
X118190476Y-73978571D01*
X118190476Y-74502380D02*
X118190476Y-73502380D01*
X118666666Y-73502380D01*
X120952380Y-70438095D02*
X119952380Y-70438095D01*
X119952380Y-70200000D01*
X120000000Y-70057142D01*
X120095238Y-69961904D01*
X120190476Y-69914285D01*
X120380952Y-69866666D01*
X120523809Y-69866666D01*
X120714285Y-69914285D01*
X120809523Y-69961904D01*
X120904761Y-70057142D01*
X120952380Y-70200000D01*
X120952380Y-70438095D01*
X120285714Y-69009523D02*
X120952380Y-69009523D01*
X119904761Y-69247619D02*
X120619047Y-69485714D01*
X120619047Y-68866666D01*
X116852380Y-71842857D02*
X116852380Y-72414285D01*
X116852380Y-72128571D02*
X115852380Y-72128571D01*
X115995238Y-72223809D01*
X116090476Y-72319047D01*
X116138095Y-72414285D01*
X116852380Y-71414285D02*
X115852380Y-71414285D01*
X116852380Y-70842857D01*
X115852380Y-70842857D01*
X115852380Y-69890476D02*
X115852380Y-70366666D01*
X116328571Y-70414285D01*
X116280952Y-70366666D01*
X116233333Y-70271428D01*
X116233333Y-70033333D01*
X116280952Y-69938095D01*
X116328571Y-69890476D01*
X116423809Y-69842857D01*
X116661904Y-69842857D01*
X116757142Y-69890476D01*
X116804761Y-69938095D01*
X116852380Y-70033333D01*
X116852380Y-70271428D01*
X116804761Y-70366666D01*
X116757142Y-70414285D01*
X116280952Y-69271428D02*
X116233333Y-69366666D01*
X116185714Y-69414285D01*
X116090476Y-69461904D01*
X116042857Y-69461904D01*
X115947619Y-69414285D01*
X115900000Y-69366666D01*
X115852380Y-69271428D01*
X115852380Y-69080952D01*
X115900000Y-68985714D01*
X115947619Y-68938095D01*
X116042857Y-68890476D01*
X116090476Y-68890476D01*
X116185714Y-68938095D01*
X116233333Y-68985714D01*
X116280952Y-69080952D01*
X116280952Y-69271428D01*
X116328571Y-69366666D01*
X116376190Y-69414285D01*
X116471428Y-69461904D01*
X116661904Y-69461904D01*
X116757142Y-69414285D01*
X116804761Y-69366666D01*
X116852380Y-69271428D01*
X116852380Y-69080952D01*
X116804761Y-68985714D01*
X116757142Y-68938095D01*
X116661904Y-68890476D01*
X116471428Y-68890476D01*
X116376190Y-68938095D01*
X116328571Y-68985714D01*
X116280952Y-69080952D01*
X116852380Y-67938095D02*
X116852380Y-68509523D01*
X116852380Y-68223809D02*
X115852380Y-68223809D01*
X115995238Y-68319047D01*
X116090476Y-68414285D01*
X116138095Y-68509523D01*
X116852380Y-67461904D02*
X116852380Y-67271428D01*
X116804761Y-67176190D01*
X116757142Y-67128571D01*
X116614285Y-67033333D01*
X116423809Y-66985714D01*
X116042857Y-66985714D01*
X115947619Y-67033333D01*
X115900000Y-67080952D01*
X115852380Y-67176190D01*
X115852380Y-67366666D01*
X115900000Y-67461904D01*
X115947619Y-67509523D01*
X116042857Y-67557142D01*
X116280952Y-67557142D01*
X116376190Y-67509523D01*
X116423809Y-67461904D01*
X116471428Y-67366666D01*
X116471428Y-67176190D01*
X116423809Y-67080952D01*
X116376190Y-67033333D01*
X116280952Y-66985714D01*
X110057142Y-78552380D02*
X109723809Y-78076190D01*
X109485714Y-78552380D02*
X109485714Y-77552380D01*
X109866666Y-77552380D01*
X109961904Y-77600000D01*
X110009523Y-77647619D01*
X110057142Y-77742857D01*
X110057142Y-77885714D01*
X110009523Y-77980952D01*
X109961904Y-78028571D01*
X109866666Y-78076190D01*
X109485714Y-78076190D01*
X110438095Y-77647619D02*
X110485714Y-77600000D01*
X110580952Y-77552380D01*
X110819047Y-77552380D01*
X110914285Y-77600000D01*
X110961904Y-77647619D01*
X111009523Y-77742857D01*
X111009523Y-77838095D01*
X110961904Y-77980952D01*
X110390476Y-78552380D01*
X111009523Y-78552380D01*
X111390476Y-77647619D02*
X111438095Y-77600000D01*
X111533333Y-77552380D01*
X111771428Y-77552380D01*
X111866666Y-77600000D01*
X111914285Y-77647619D01*
X111961904Y-77742857D01*
X111961904Y-77838095D01*
X111914285Y-77980952D01*
X111342857Y-78552380D01*
X111961904Y-78552380D01*
X113295238Y-79297619D02*
X113342857Y-79250000D01*
X113438095Y-79202380D01*
X113676190Y-79202380D01*
X113771428Y-79250000D01*
X113819047Y-79297619D01*
X113866666Y-79392857D01*
X113866666Y-79488095D01*
X113819047Y-79630952D01*
X113247619Y-80202380D01*
X113866666Y-80202380D01*
X114295238Y-80107142D02*
X114342857Y-80154761D01*
X114295238Y-80202380D01*
X114247619Y-80154761D01*
X114295238Y-80107142D01*
X114295238Y-80202380D01*
X114723809Y-79297619D02*
X114771428Y-79250000D01*
X114866666Y-79202380D01*
X115104761Y-79202380D01*
X115200000Y-79250000D01*
X115247619Y-79297619D01*
X115295238Y-79392857D01*
X115295238Y-79488095D01*
X115247619Y-79630952D01*
X114676190Y-80202380D01*
X115295238Y-80202380D01*
X115723809Y-80202380D02*
X115723809Y-79202380D01*
X115819047Y-79821428D02*
X116104761Y-80202380D01*
X116104761Y-79535714D02*
X115723809Y-79916666D01*
X130957142Y-147257142D02*
X130909523Y-147304761D01*
X130766666Y-147352380D01*
X130671428Y-147352380D01*
X130528571Y-147304761D01*
X130433333Y-147209523D01*
X130385714Y-147114285D01*
X130338095Y-146923809D01*
X130338095Y-146780952D01*
X130385714Y-146590476D01*
X130433333Y-146495238D01*
X130528571Y-146400000D01*
X130671428Y-146352380D01*
X130766666Y-146352380D01*
X130909523Y-146400000D01*
X130957142Y-146447619D01*
X131290476Y-146352380D02*
X131909523Y-146352380D01*
X131576190Y-146733333D01*
X131719047Y-146733333D01*
X131814285Y-146780952D01*
X131861904Y-146828571D01*
X131909523Y-146923809D01*
X131909523Y-147161904D01*
X131861904Y-147257142D01*
X131814285Y-147304761D01*
X131719047Y-147352380D01*
X131433333Y-147352380D01*
X131338095Y-147304761D01*
X131290476Y-147257142D01*
X132814285Y-146352380D02*
X132338095Y-146352380D01*
X132290476Y-146828571D01*
X132338095Y-146780952D01*
X132433333Y-146733333D01*
X132671428Y-146733333D01*
X132766666Y-146780952D01*
X132814285Y-146828571D01*
X132861904Y-146923809D01*
X132861904Y-147161904D01*
X132814285Y-147257142D01*
X132766666Y-147304761D01*
X132671428Y-147352380D01*
X132433333Y-147352380D01*
X132338095Y-147304761D01*
X132290476Y-147257142D01*
X133752380Y-145552380D02*
X133180952Y-145552380D01*
X133466666Y-145552380D02*
X133466666Y-144552380D01*
X133371428Y-144695238D01*
X133276190Y-144790476D01*
X133180952Y-144838095D01*
X134371428Y-144552380D02*
X134466666Y-144552380D01*
X134561904Y-144600000D01*
X134609523Y-144647619D01*
X134657142Y-144742857D01*
X134704761Y-144933333D01*
X134704761Y-145171428D01*
X134657142Y-145361904D01*
X134609523Y-145457142D01*
X134561904Y-145504761D01*
X134466666Y-145552380D01*
X134371428Y-145552380D01*
X134276190Y-145504761D01*
X134228571Y-145457142D01*
X134180952Y-145361904D01*
X134133333Y-145171428D01*
X134133333Y-144933333D01*
X134180952Y-144742857D01*
X134228571Y-144647619D01*
X134276190Y-144600000D01*
X134371428Y-144552380D01*
X135323809Y-144552380D02*
X135419047Y-144552380D01*
X135514285Y-144600000D01*
X135561904Y-144647619D01*
X135609523Y-144742857D01*
X135657142Y-144933333D01*
X135657142Y-145171428D01*
X135609523Y-145361904D01*
X135561904Y-145457142D01*
X135514285Y-145504761D01*
X135419047Y-145552380D01*
X135323809Y-145552380D01*
X135228571Y-145504761D01*
X135180952Y-145457142D01*
X135133333Y-145361904D01*
X135085714Y-145171428D01*
X135085714Y-144933333D01*
X135133333Y-144742857D01*
X135180952Y-144647619D01*
X135228571Y-144600000D01*
X135323809Y-144552380D01*
X136085714Y-144885714D02*
X136085714Y-145552380D01*
X136085714Y-144980952D02*
X136133333Y-144933333D01*
X136228571Y-144885714D01*
X136371428Y-144885714D01*
X136466666Y-144933333D01*
X136514285Y-145028571D01*
X136514285Y-145552380D01*
X137323809Y-145028571D02*
X136990476Y-145028571D01*
X136990476Y-145552380D02*
X136990476Y-144552380D01*
X137466666Y-144552380D01*
X117457142Y-106666666D02*
X117504761Y-106714285D01*
X117552380Y-106857142D01*
X117552380Y-106952380D01*
X117504761Y-107095238D01*
X117409523Y-107190476D01*
X117314285Y-107238095D01*
X117123809Y-107285714D01*
X116980952Y-107285714D01*
X116790476Y-107238095D01*
X116695238Y-107190476D01*
X116600000Y-107095238D01*
X116552380Y-106952380D01*
X116552380Y-106857142D01*
X116600000Y-106714285D01*
X116647619Y-106666666D01*
X117552380Y-105714285D02*
X117552380Y-106285714D01*
X117552380Y-106000000D02*
X116552380Y-106000000D01*
X116695238Y-106095238D01*
X116790476Y-106190476D01*
X116838095Y-106285714D01*
X119152380Y-108047619D02*
X119152380Y-108619047D01*
X119152380Y-108333333D02*
X118152380Y-108333333D01*
X118295238Y-108428571D01*
X118390476Y-108523809D01*
X118438095Y-108619047D01*
X118152380Y-107428571D02*
X118152380Y-107333333D01*
X118200000Y-107238095D01*
X118247619Y-107190476D01*
X118342857Y-107142857D01*
X118533333Y-107095238D01*
X118771428Y-107095238D01*
X118961904Y-107142857D01*
X119057142Y-107190476D01*
X119104761Y-107238095D01*
X119152380Y-107333333D01*
X119152380Y-107428571D01*
X119104761Y-107523809D01*
X119057142Y-107571428D01*
X118961904Y-107619047D01*
X118771428Y-107666666D01*
X118533333Y-107666666D01*
X118342857Y-107619047D01*
X118247619Y-107571428D01*
X118200000Y-107523809D01*
X118152380Y-107428571D01*
X118152380Y-106476190D02*
X118152380Y-106380952D01*
X118200000Y-106285714D01*
X118247619Y-106238095D01*
X118342857Y-106190476D01*
X118533333Y-106142857D01*
X118771428Y-106142857D01*
X118961904Y-106190476D01*
X119057142Y-106238095D01*
X119104761Y-106285714D01*
X119152380Y-106380952D01*
X119152380Y-106476190D01*
X119104761Y-106571428D01*
X119057142Y-106619047D01*
X118961904Y-106666666D01*
X118771428Y-106714285D01*
X118533333Y-106714285D01*
X118342857Y-106666666D01*
X118247619Y-106619047D01*
X118200000Y-106571428D01*
X118152380Y-106476190D01*
X118485714Y-105714285D02*
X119152380Y-105714285D01*
X118580952Y-105714285D02*
X118533333Y-105666666D01*
X118485714Y-105571428D01*
X118485714Y-105428571D01*
X118533333Y-105333333D01*
X118628571Y-105285714D01*
X119152380Y-105285714D01*
X118628571Y-104476190D02*
X118628571Y-104809523D01*
X119152380Y-104809523D02*
X118152380Y-104809523D01*
X118152380Y-104333333D01*
X118857142Y-122642857D02*
X118904761Y-122690476D01*
X118952380Y-122833333D01*
X118952380Y-122928571D01*
X118904761Y-123071428D01*
X118809523Y-123166666D01*
X118714285Y-123214285D01*
X118523809Y-123261904D01*
X118380952Y-123261904D01*
X118190476Y-123214285D01*
X118095238Y-123166666D01*
X118000000Y-123071428D01*
X117952380Y-122928571D01*
X117952380Y-122833333D01*
X118000000Y-122690476D01*
X118047619Y-122642857D01*
X118952380Y-121690476D02*
X118952380Y-122261904D01*
X118952380Y-121976190D02*
X117952380Y-121976190D01*
X118095238Y-122071428D01*
X118190476Y-122166666D01*
X118238095Y-122261904D01*
X117952380Y-120785714D02*
X117952380Y-121261904D01*
X118428571Y-121309523D01*
X118380952Y-121261904D01*
X118333333Y-121166666D01*
X118333333Y-120928571D01*
X118380952Y-120833333D01*
X118428571Y-120785714D01*
X118523809Y-120738095D01*
X118761904Y-120738095D01*
X118857142Y-120785714D01*
X118904761Y-120833333D01*
X118952380Y-120928571D01*
X118952380Y-121166666D01*
X118904761Y-121261904D01*
X118857142Y-121309523D01*
X120452380Y-126947619D02*
X120452380Y-127519047D01*
X120452380Y-127233333D02*
X119452380Y-127233333D01*
X119595238Y-127328571D01*
X119690476Y-127423809D01*
X119738095Y-127519047D01*
X119452380Y-126328571D02*
X119452380Y-126233333D01*
X119500000Y-126138095D01*
X119547619Y-126090476D01*
X119642857Y-126042857D01*
X119833333Y-125995238D01*
X120071428Y-125995238D01*
X120261904Y-126042857D01*
X120357142Y-126090476D01*
X120404761Y-126138095D01*
X120452380Y-126233333D01*
X120452380Y-126328571D01*
X120404761Y-126423809D01*
X120357142Y-126471428D01*
X120261904Y-126519047D01*
X120071428Y-126566666D01*
X119833333Y-126566666D01*
X119642857Y-126519047D01*
X119547619Y-126471428D01*
X119500000Y-126423809D01*
X119452380Y-126328571D01*
X119452380Y-125376190D02*
X119452380Y-125280952D01*
X119500000Y-125185714D01*
X119547619Y-125138095D01*
X119642857Y-125090476D01*
X119833333Y-125042857D01*
X120071428Y-125042857D01*
X120261904Y-125090476D01*
X120357142Y-125138095D01*
X120404761Y-125185714D01*
X120452380Y-125280952D01*
X120452380Y-125376190D01*
X120404761Y-125471428D01*
X120357142Y-125519047D01*
X120261904Y-125566666D01*
X120071428Y-125614285D01*
X119833333Y-125614285D01*
X119642857Y-125566666D01*
X119547619Y-125519047D01*
X119500000Y-125471428D01*
X119452380Y-125376190D01*
X119785714Y-124614285D02*
X120452380Y-124614285D01*
X119880952Y-124614285D02*
X119833333Y-124566666D01*
X119785714Y-124471428D01*
X119785714Y-124328571D01*
X119833333Y-124233333D01*
X119928571Y-124185714D01*
X120452380Y-124185714D01*
X119928571Y-123376190D02*
X119928571Y-123709523D01*
X120452380Y-123709523D02*
X119452380Y-123709523D01*
X119452380Y-123233333D01*
X122933333Y-134057142D02*
X122885714Y-134104761D01*
X122742857Y-134152380D01*
X122647619Y-134152380D01*
X122504761Y-134104761D01*
X122409523Y-134009523D01*
X122361904Y-133914285D01*
X122314285Y-133723809D01*
X122314285Y-133580952D01*
X122361904Y-133390476D01*
X122409523Y-133295238D01*
X122504761Y-133200000D01*
X122647619Y-133152380D01*
X122742857Y-133152380D01*
X122885714Y-133200000D01*
X122933333Y-133247619D01*
X123409523Y-134152380D02*
X123600000Y-134152380D01*
X123695238Y-134104761D01*
X123742857Y-134057142D01*
X123838095Y-133914285D01*
X123885714Y-133723809D01*
X123885714Y-133342857D01*
X123838095Y-133247619D01*
X123790476Y-133200000D01*
X123695238Y-133152380D01*
X123504761Y-133152380D01*
X123409523Y-133200000D01*
X123361904Y-133247619D01*
X123314285Y-133342857D01*
X123314285Y-133580952D01*
X123361904Y-133676190D01*
X123409523Y-133723809D01*
X123504761Y-133771428D01*
X123695238Y-133771428D01*
X123790476Y-133723809D01*
X123838095Y-133676190D01*
X123885714Y-133580952D01*
X125252380Y-132752380D02*
X124680952Y-132752380D01*
X124966666Y-132752380D02*
X124966666Y-131752380D01*
X124871428Y-131895238D01*
X124776190Y-131990476D01*
X124680952Y-132038095D01*
X125871428Y-131752380D02*
X125966666Y-131752380D01*
X126061904Y-131800000D01*
X126109523Y-131847619D01*
X126157142Y-131942857D01*
X126204761Y-132133333D01*
X126204761Y-132371428D01*
X126157142Y-132561904D01*
X126109523Y-132657142D01*
X126061904Y-132704761D01*
X125966666Y-132752380D01*
X125871428Y-132752380D01*
X125776190Y-132704761D01*
X125728571Y-132657142D01*
X125680952Y-132561904D01*
X125633333Y-132371428D01*
X125633333Y-132133333D01*
X125680952Y-131942857D01*
X125728571Y-131847619D01*
X125776190Y-131800000D01*
X125871428Y-131752380D01*
X126823809Y-131752380D02*
X126919047Y-131752380D01*
X127014285Y-131800000D01*
X127061904Y-131847619D01*
X127109523Y-131942857D01*
X127157142Y-132133333D01*
X127157142Y-132371428D01*
X127109523Y-132561904D01*
X127061904Y-132657142D01*
X127014285Y-132704761D01*
X126919047Y-132752380D01*
X126823809Y-132752380D01*
X126728571Y-132704761D01*
X126680952Y-132657142D01*
X126633333Y-132561904D01*
X126585714Y-132371428D01*
X126585714Y-132133333D01*
X126633333Y-131942857D01*
X126680952Y-131847619D01*
X126728571Y-131800000D01*
X126823809Y-131752380D01*
X127585714Y-132085714D02*
X127585714Y-132752380D01*
X127585714Y-132180952D02*
X127633333Y-132133333D01*
X127728571Y-132085714D01*
X127871428Y-132085714D01*
X127966666Y-132133333D01*
X128014285Y-132228571D01*
X128014285Y-132752380D01*
X128823809Y-132228571D02*
X128490476Y-132228571D01*
X128490476Y-132752380D02*
X128490476Y-131752380D01*
X128966666Y-131752380D01*
X122233333Y-135957142D02*
X122185714Y-136004761D01*
X122042857Y-136052380D01*
X121947619Y-136052380D01*
X121804761Y-136004761D01*
X121709523Y-135909523D01*
X121661904Y-135814285D01*
X121614285Y-135623809D01*
X121614285Y-135480952D01*
X121661904Y-135290476D01*
X121709523Y-135195238D01*
X121804761Y-135100000D01*
X121947619Y-135052380D01*
X122042857Y-135052380D01*
X122185714Y-135100000D01*
X122233333Y-135147619D01*
X122566666Y-135052380D02*
X123233333Y-135052380D01*
X122804761Y-136052380D01*
X127628571Y-136052380D02*
X127057142Y-136052380D01*
X127342857Y-136052380D02*
X127342857Y-135052380D01*
X127247619Y-135195238D01*
X127152380Y-135290476D01*
X127057142Y-135338095D01*
X128247619Y-135052380D02*
X128342857Y-135052380D01*
X128438095Y-135100000D01*
X128485714Y-135147619D01*
X128533333Y-135242857D01*
X128580952Y-135433333D01*
X128580952Y-135671428D01*
X128533333Y-135861904D01*
X128485714Y-135957142D01*
X128438095Y-136004761D01*
X128342857Y-136052380D01*
X128247619Y-136052380D01*
X128152380Y-136004761D01*
X128104761Y-135957142D01*
X128057142Y-135861904D01*
X128009523Y-135671428D01*
X128009523Y-135433333D01*
X128057142Y-135242857D01*
X128104761Y-135147619D01*
X128152380Y-135100000D01*
X128247619Y-135052380D01*
X129009523Y-135385714D02*
X129009523Y-136052380D01*
X129009523Y-135480952D02*
X129057142Y-135433333D01*
X129152380Y-135385714D01*
X129295238Y-135385714D01*
X129390476Y-135433333D01*
X129438095Y-135528571D01*
X129438095Y-136052380D01*
X130247619Y-135528571D02*
X129914285Y-135528571D01*
X129914285Y-136052380D02*
X129914285Y-135052380D01*
X130390476Y-135052380D01*
X118433333Y-116357142D02*
X118385714Y-116404761D01*
X118242857Y-116452380D01*
X118147619Y-116452380D01*
X118004761Y-116404761D01*
X117909523Y-116309523D01*
X117861904Y-116214285D01*
X117814285Y-116023809D01*
X117814285Y-115880952D01*
X117861904Y-115690476D01*
X117909523Y-115595238D01*
X118004761Y-115500000D01*
X118147619Y-115452380D01*
X118242857Y-115452380D01*
X118385714Y-115500000D01*
X118433333Y-115547619D01*
X119290476Y-115785714D02*
X119290476Y-116452380D01*
X119052380Y-115404761D02*
X118814285Y-116119047D01*
X119433333Y-116119047D01*
X112952380Y-115452380D02*
X112380952Y-115452380D01*
X112666666Y-115452380D02*
X112666666Y-114452380D01*
X112571428Y-114595238D01*
X112476190Y-114690476D01*
X112380952Y-114738095D01*
X113571428Y-114452380D02*
X113666666Y-114452380D01*
X113761904Y-114500000D01*
X113809523Y-114547619D01*
X113857142Y-114642857D01*
X113904761Y-114833333D01*
X113904761Y-115071428D01*
X113857142Y-115261904D01*
X113809523Y-115357142D01*
X113761904Y-115404761D01*
X113666666Y-115452380D01*
X113571428Y-115452380D01*
X113476190Y-115404761D01*
X113428571Y-115357142D01*
X113380952Y-115261904D01*
X113333333Y-115071428D01*
X113333333Y-114833333D01*
X113380952Y-114642857D01*
X113428571Y-114547619D01*
X113476190Y-114500000D01*
X113571428Y-114452380D01*
X114523809Y-114452380D02*
X114619047Y-114452380D01*
X114714285Y-114500000D01*
X114761904Y-114547619D01*
X114809523Y-114642857D01*
X114857142Y-114833333D01*
X114857142Y-115071428D01*
X114809523Y-115261904D01*
X114761904Y-115357142D01*
X114714285Y-115404761D01*
X114619047Y-115452380D01*
X114523809Y-115452380D01*
X114428571Y-115404761D01*
X114380952Y-115357142D01*
X114333333Y-115261904D01*
X114285714Y-115071428D01*
X114285714Y-114833333D01*
X114333333Y-114642857D01*
X114380952Y-114547619D01*
X114428571Y-114500000D01*
X114523809Y-114452380D01*
X115285714Y-114785714D02*
X115285714Y-115452380D01*
X115285714Y-114880952D02*
X115333333Y-114833333D01*
X115428571Y-114785714D01*
X115571428Y-114785714D01*
X115666666Y-114833333D01*
X115714285Y-114928571D01*
X115714285Y-115452380D01*
X116523809Y-114928571D02*
X116190476Y-114928571D01*
X116190476Y-115452380D02*
X116190476Y-114452380D01*
X116666666Y-114452380D01*
X111433333Y-89752380D02*
X111100000Y-89276190D01*
X110861904Y-89752380D02*
X110861904Y-88752380D01*
X111242857Y-88752380D01*
X111338095Y-88800000D01*
X111385714Y-88847619D01*
X111433333Y-88942857D01*
X111433333Y-89085714D01*
X111385714Y-89180952D01*
X111338095Y-89228571D01*
X111242857Y-89276190D01*
X110861904Y-89276190D01*
X111766666Y-88752380D02*
X112433333Y-88752380D01*
X112004761Y-89752380D01*
X103228571Y-89952380D02*
X102657142Y-89952380D01*
X102942857Y-89952380D02*
X102942857Y-88952380D01*
X102847619Y-89095238D01*
X102752380Y-89190476D01*
X102657142Y-89238095D01*
X103847619Y-88952380D02*
X103942857Y-88952380D01*
X104038095Y-89000000D01*
X104085714Y-89047619D01*
X104133333Y-89142857D01*
X104180952Y-89333333D01*
X104180952Y-89571428D01*
X104133333Y-89761904D01*
X104085714Y-89857142D01*
X104038095Y-89904761D01*
X103942857Y-89952380D01*
X103847619Y-89952380D01*
X103752380Y-89904761D01*
X103704761Y-89857142D01*
X103657142Y-89761904D01*
X103609523Y-89571428D01*
X103609523Y-89333333D01*
X103657142Y-89142857D01*
X103704761Y-89047619D01*
X103752380Y-89000000D01*
X103847619Y-88952380D01*
X104800000Y-88952380D02*
X104895238Y-88952380D01*
X104990476Y-89000000D01*
X105038095Y-89047619D01*
X105085714Y-89142857D01*
X105133333Y-89333333D01*
X105133333Y-89571428D01*
X105085714Y-89761904D01*
X105038095Y-89857142D01*
X104990476Y-89904761D01*
X104895238Y-89952380D01*
X104800000Y-89952380D01*
X104704761Y-89904761D01*
X104657142Y-89857142D01*
X104609523Y-89761904D01*
X104561904Y-89571428D01*
X104561904Y-89333333D01*
X104609523Y-89142857D01*
X104657142Y-89047619D01*
X104704761Y-89000000D01*
X104800000Y-88952380D01*
X105561904Y-89952380D02*
X105561904Y-88952380D01*
X105657142Y-89571428D02*
X105942857Y-89952380D01*
X105942857Y-89285714D02*
X105561904Y-89666666D01*
X136057142Y-130642857D02*
X136104761Y-130690476D01*
X136152380Y-130833333D01*
X136152380Y-130928571D01*
X136104761Y-131071428D01*
X136009523Y-131166666D01*
X135914285Y-131214285D01*
X135723809Y-131261904D01*
X135580952Y-131261904D01*
X135390476Y-131214285D01*
X135295238Y-131166666D01*
X135200000Y-131071428D01*
X135152380Y-130928571D01*
X135152380Y-130833333D01*
X135200000Y-130690476D01*
X135247619Y-130642857D01*
X135247619Y-130261904D02*
X135200000Y-130214285D01*
X135152380Y-130119047D01*
X135152380Y-129880952D01*
X135200000Y-129785714D01*
X135247619Y-129738095D01*
X135342857Y-129690476D01*
X135438095Y-129690476D01*
X135580952Y-129738095D01*
X136152380Y-130309523D01*
X136152380Y-129690476D01*
X135152380Y-129357142D02*
X135152380Y-128738095D01*
X135533333Y-129071428D01*
X135533333Y-128928571D01*
X135580952Y-128833333D01*
X135628571Y-128785714D01*
X135723809Y-128738095D01*
X135961904Y-128738095D01*
X136057142Y-128785714D01*
X136104761Y-128833333D01*
X136152380Y-128928571D01*
X136152380Y-129214285D01*
X136104761Y-129309523D01*
X136057142Y-129357142D01*
X136152380Y-127147619D02*
X136152380Y-127719047D01*
X136152380Y-127433333D02*
X135152380Y-127433333D01*
X135295238Y-127528571D01*
X135390476Y-127623809D01*
X135438095Y-127719047D01*
X135152380Y-126528571D02*
X135152380Y-126433333D01*
X135200000Y-126338095D01*
X135247619Y-126290476D01*
X135342857Y-126242857D01*
X135533333Y-126195238D01*
X135771428Y-126195238D01*
X135961904Y-126242857D01*
X136057142Y-126290476D01*
X136104761Y-126338095D01*
X136152380Y-126433333D01*
X136152380Y-126528571D01*
X136104761Y-126623809D01*
X136057142Y-126671428D01*
X135961904Y-126719047D01*
X135771428Y-126766666D01*
X135533333Y-126766666D01*
X135342857Y-126719047D01*
X135247619Y-126671428D01*
X135200000Y-126623809D01*
X135152380Y-126528571D01*
X135152380Y-125576190D02*
X135152380Y-125480952D01*
X135200000Y-125385714D01*
X135247619Y-125338095D01*
X135342857Y-125290476D01*
X135533333Y-125242857D01*
X135771428Y-125242857D01*
X135961904Y-125290476D01*
X136057142Y-125338095D01*
X136104761Y-125385714D01*
X136152380Y-125480952D01*
X136152380Y-125576190D01*
X136104761Y-125671428D01*
X136057142Y-125719047D01*
X135961904Y-125766666D01*
X135771428Y-125814285D01*
X135533333Y-125814285D01*
X135342857Y-125766666D01*
X135247619Y-125719047D01*
X135200000Y-125671428D01*
X135152380Y-125576190D01*
X135485714Y-124814285D02*
X136485714Y-124814285D01*
X135533333Y-124814285D02*
X135485714Y-124719047D01*
X135485714Y-124528571D01*
X135533333Y-124433333D01*
X135580952Y-124385714D01*
X135676190Y-124338095D01*
X135961904Y-124338095D01*
X136057142Y-124385714D01*
X136104761Y-124433333D01*
X136152380Y-124528571D01*
X136152380Y-124719047D01*
X136104761Y-124814285D01*
X135628571Y-123576190D02*
X135628571Y-123909523D01*
X136152380Y-123909523D02*
X135152380Y-123909523D01*
X135152380Y-123433333D01*
X132152380Y-130642857D02*
X131676190Y-130976190D01*
X132152380Y-131214285D02*
X131152380Y-131214285D01*
X131152380Y-130833333D01*
X131200000Y-130738095D01*
X131247619Y-130690476D01*
X131342857Y-130642857D01*
X131485714Y-130642857D01*
X131580952Y-130690476D01*
X131628571Y-130738095D01*
X131676190Y-130833333D01*
X131676190Y-131214285D01*
X131247619Y-130261904D02*
X131200000Y-130214285D01*
X131152380Y-130119047D01*
X131152380Y-129880952D01*
X131200000Y-129785714D01*
X131247619Y-129738095D01*
X131342857Y-129690476D01*
X131438095Y-129690476D01*
X131580952Y-129738095D01*
X132152380Y-130309523D01*
X132152380Y-129690476D01*
X132152380Y-128738095D02*
X132152380Y-129309523D01*
X132152380Y-129023809D02*
X131152380Y-129023809D01*
X131295238Y-129119047D01*
X131390476Y-129214285D01*
X131438095Y-129309523D01*
X132152380Y-127119047D02*
X132152380Y-127690476D01*
X132152380Y-127404761D02*
X131152380Y-127404761D01*
X131295238Y-127500000D01*
X131390476Y-127595238D01*
X131438095Y-127690476D01*
X132152380Y-126690476D02*
X131152380Y-126690476D01*
X131771428Y-126595238D02*
X132152380Y-126309523D01*
X131485714Y-126309523D02*
X131866666Y-126690476D01*
X153052380Y-131542857D02*
X152576190Y-131876190D01*
X153052380Y-132114285D02*
X152052380Y-132114285D01*
X152052380Y-131733333D01*
X152100000Y-131638095D01*
X152147619Y-131590476D01*
X152242857Y-131542857D01*
X152385714Y-131542857D01*
X152480952Y-131590476D01*
X152528571Y-131638095D01*
X152576190Y-131733333D01*
X152576190Y-132114285D01*
X153052380Y-130590476D02*
X153052380Y-131161904D01*
X153052380Y-130876190D02*
X152052380Y-130876190D01*
X152195238Y-130971428D01*
X152290476Y-131066666D01*
X152338095Y-131161904D01*
X152480952Y-130019047D02*
X152433333Y-130114285D01*
X152385714Y-130161904D01*
X152290476Y-130209523D01*
X152242857Y-130209523D01*
X152147619Y-130161904D01*
X152100000Y-130114285D01*
X152052380Y-130019047D01*
X152052380Y-129828571D01*
X152100000Y-129733333D01*
X152147619Y-129685714D01*
X152242857Y-129638095D01*
X152290476Y-129638095D01*
X152385714Y-129685714D01*
X152433333Y-129733333D01*
X152480952Y-129828571D01*
X152480952Y-130019047D01*
X152528571Y-130114285D01*
X152576190Y-130161904D01*
X152671428Y-130209523D01*
X152861904Y-130209523D01*
X152957142Y-130161904D01*
X153004761Y-130114285D01*
X153052380Y-130019047D01*
X153052380Y-129828571D01*
X153004761Y-129733333D01*
X152957142Y-129685714D01*
X152861904Y-129638095D01*
X152671428Y-129638095D01*
X152576190Y-129685714D01*
X152528571Y-129733333D01*
X152480952Y-129828571D01*
X152052380Y-128914285D02*
X152052380Y-128295238D01*
X152433333Y-128628571D01*
X152433333Y-128485714D01*
X152480952Y-128390476D01*
X152528571Y-128342857D01*
X152623809Y-128295238D01*
X152861904Y-128295238D01*
X152957142Y-128342857D01*
X153004761Y-128390476D01*
X153052380Y-128485714D01*
X153052380Y-128771428D01*
X153004761Y-128866666D01*
X152957142Y-128914285D01*
X152052380Y-127961904D02*
X152052380Y-127342857D01*
X152433333Y-127676190D01*
X152433333Y-127533333D01*
X152480952Y-127438095D01*
X152528571Y-127390476D01*
X152623809Y-127342857D01*
X152861904Y-127342857D01*
X152957142Y-127390476D01*
X153004761Y-127438095D01*
X153052380Y-127533333D01*
X153052380Y-127819047D01*
X153004761Y-127914285D01*
X152957142Y-127961904D01*
X153052380Y-126914285D02*
X152052380Y-126914285D01*
X152671428Y-126819047D02*
X153052380Y-126533333D01*
X152385714Y-126533333D02*
X152766666Y-126914285D01*
X139657142Y-138352380D02*
X139323809Y-137876190D01*
X139085714Y-138352380D02*
X139085714Y-137352380D01*
X139466666Y-137352380D01*
X139561904Y-137400000D01*
X139609523Y-137447619D01*
X139657142Y-137542857D01*
X139657142Y-137685714D01*
X139609523Y-137780952D01*
X139561904Y-137828571D01*
X139466666Y-137876190D01*
X139085714Y-137876190D01*
X140609523Y-138352380D02*
X140038095Y-138352380D01*
X140323809Y-138352380D02*
X140323809Y-137352380D01*
X140228571Y-137495238D01*
X140133333Y-137590476D01*
X140038095Y-137638095D01*
X141514285Y-137352380D02*
X141038095Y-137352380D01*
X140990476Y-137828571D01*
X141038095Y-137780952D01*
X141133333Y-137733333D01*
X141371428Y-137733333D01*
X141466666Y-137780952D01*
X141514285Y-137828571D01*
X141561904Y-137923809D01*
X141561904Y-138161904D01*
X141514285Y-138257142D01*
X141466666Y-138304761D01*
X141371428Y-138352380D01*
X141133333Y-138352380D01*
X141038095Y-138304761D01*
X140990476Y-138257142D01*
X142795238Y-139147619D02*
X142842857Y-139100000D01*
X142938095Y-139052380D01*
X143176190Y-139052380D01*
X143271428Y-139100000D01*
X143319047Y-139147619D01*
X143366666Y-139242857D01*
X143366666Y-139338095D01*
X143319047Y-139480952D01*
X142747619Y-140052380D01*
X143366666Y-140052380D01*
X143795238Y-139957142D02*
X143842857Y-140004761D01*
X143795238Y-140052380D01*
X143747619Y-140004761D01*
X143795238Y-139957142D01*
X143795238Y-140052380D01*
X144223809Y-139147619D02*
X144271428Y-139100000D01*
X144366666Y-139052380D01*
X144604761Y-139052380D01*
X144700000Y-139100000D01*
X144747619Y-139147619D01*
X144795238Y-139242857D01*
X144795238Y-139338095D01*
X144747619Y-139480952D01*
X144176190Y-140052380D01*
X144795238Y-140052380D01*
X145223809Y-140052380D02*
X145223809Y-139052380D01*
X145319047Y-139671428D02*
X145604761Y-140052380D01*
X145604761Y-139385714D02*
X145223809Y-139766666D01*
X138433333Y-93657142D02*
X138385714Y-93704761D01*
X138242857Y-93752380D01*
X138147619Y-93752380D01*
X138004761Y-93704761D01*
X137909523Y-93609523D01*
X137861904Y-93514285D01*
X137814285Y-93323809D01*
X137814285Y-93180952D01*
X137861904Y-92990476D01*
X137909523Y-92895238D01*
X138004761Y-92800000D01*
X138147619Y-92752380D01*
X138242857Y-92752380D01*
X138385714Y-92800000D01*
X138433333Y-92847619D01*
X138814285Y-92847619D02*
X138861904Y-92800000D01*
X138957142Y-92752380D01*
X139195238Y-92752380D01*
X139290476Y-92800000D01*
X139338095Y-92847619D01*
X139385714Y-92942857D01*
X139385714Y-93038095D01*
X139338095Y-93180952D01*
X138766666Y-93752380D01*
X139385714Y-93752380D01*
X137528571Y-95152380D02*
X136957142Y-95152380D01*
X137242857Y-95152380D02*
X137242857Y-94152380D01*
X137147619Y-94295238D01*
X137052380Y-94390476D01*
X136957142Y-94438095D01*
X138100000Y-94580952D02*
X138004761Y-94533333D01*
X137957142Y-94485714D01*
X137909523Y-94390476D01*
X137909523Y-94342857D01*
X137957142Y-94247619D01*
X138004761Y-94200000D01*
X138100000Y-94152380D01*
X138290476Y-94152380D01*
X138385714Y-94200000D01*
X138433333Y-94247619D01*
X138480952Y-94342857D01*
X138480952Y-94390476D01*
X138433333Y-94485714D01*
X138385714Y-94533333D01*
X138290476Y-94580952D01*
X138100000Y-94580952D01*
X138004761Y-94628571D01*
X137957142Y-94676190D01*
X137909523Y-94771428D01*
X137909523Y-94961904D01*
X137957142Y-95057142D01*
X138004761Y-95104761D01*
X138100000Y-95152380D01*
X138290476Y-95152380D01*
X138385714Y-95104761D01*
X138433333Y-95057142D01*
X138480952Y-94961904D01*
X138480952Y-94771428D01*
X138433333Y-94676190D01*
X138385714Y-94628571D01*
X138290476Y-94580952D01*
X138909523Y-94485714D02*
X138909523Y-95485714D01*
X138909523Y-94533333D02*
X139004761Y-94485714D01*
X139195238Y-94485714D01*
X139290476Y-94533333D01*
X139338095Y-94580952D01*
X139385714Y-94676190D01*
X139385714Y-94961904D01*
X139338095Y-95057142D01*
X139290476Y-95104761D01*
X139195238Y-95152380D01*
X139004761Y-95152380D01*
X138909523Y-95104761D01*
X140147619Y-94628571D02*
X139814285Y-94628571D01*
X139814285Y-95152380D02*
X139814285Y-94152380D01*
X140290476Y-94152380D01*
X132433333Y-93657142D02*
X132385714Y-93704761D01*
X132242857Y-93752380D01*
X132147619Y-93752380D01*
X132004761Y-93704761D01*
X131909523Y-93609523D01*
X131861904Y-93514285D01*
X131814285Y-93323809D01*
X131814285Y-93180952D01*
X131861904Y-92990476D01*
X131909523Y-92895238D01*
X132004761Y-92800000D01*
X132147619Y-92752380D01*
X132242857Y-92752380D01*
X132385714Y-92800000D01*
X132433333Y-92847619D01*
X132766666Y-92752380D02*
X133385714Y-92752380D01*
X133052380Y-93133333D01*
X133195238Y-93133333D01*
X133290476Y-93180952D01*
X133338095Y-93228571D01*
X133385714Y-93323809D01*
X133385714Y-93561904D01*
X133338095Y-93657142D01*
X133290476Y-93704761D01*
X133195238Y-93752380D01*
X132909523Y-93752380D01*
X132814285Y-93704761D01*
X132766666Y-93657142D01*
X131528571Y-95152380D02*
X130957142Y-95152380D01*
X131242857Y-95152380D02*
X131242857Y-94152380D01*
X131147619Y-94295238D01*
X131052380Y-94390476D01*
X130957142Y-94438095D01*
X132100000Y-94580952D02*
X132004761Y-94533333D01*
X131957142Y-94485714D01*
X131909523Y-94390476D01*
X131909523Y-94342857D01*
X131957142Y-94247619D01*
X132004761Y-94200000D01*
X132100000Y-94152380D01*
X132290476Y-94152380D01*
X132385714Y-94200000D01*
X132433333Y-94247619D01*
X132480952Y-94342857D01*
X132480952Y-94390476D01*
X132433333Y-94485714D01*
X132385714Y-94533333D01*
X132290476Y-94580952D01*
X132100000Y-94580952D01*
X132004761Y-94628571D01*
X131957142Y-94676190D01*
X131909523Y-94771428D01*
X131909523Y-94961904D01*
X131957142Y-95057142D01*
X132004761Y-95104761D01*
X132100000Y-95152380D01*
X132290476Y-95152380D01*
X132385714Y-95104761D01*
X132433333Y-95057142D01*
X132480952Y-94961904D01*
X132480952Y-94771428D01*
X132433333Y-94676190D01*
X132385714Y-94628571D01*
X132290476Y-94580952D01*
X132909523Y-94485714D02*
X132909523Y-95485714D01*
X132909523Y-94533333D02*
X133004761Y-94485714D01*
X133195238Y-94485714D01*
X133290476Y-94533333D01*
X133338095Y-94580952D01*
X133385714Y-94676190D01*
X133385714Y-94961904D01*
X133338095Y-95057142D01*
X133290476Y-95104761D01*
X133195238Y-95152380D01*
X133004761Y-95152380D01*
X132909523Y-95104761D01*
X134147619Y-94628571D02*
X133814285Y-94628571D01*
X133814285Y-95152380D02*
X133814285Y-94152380D01*
X134290476Y-94152380D01*
X118533333Y-111307142D02*
X118485714Y-111354761D01*
X118342857Y-111402380D01*
X118247619Y-111402380D01*
X118104761Y-111354761D01*
X118009523Y-111259523D01*
X117961904Y-111164285D01*
X117914285Y-110973809D01*
X117914285Y-110830952D01*
X117961904Y-110640476D01*
X118009523Y-110545238D01*
X118104761Y-110450000D01*
X118247619Y-110402380D01*
X118342857Y-110402380D01*
X118485714Y-110450000D01*
X118533333Y-110497619D01*
X119438095Y-110402380D02*
X118961904Y-110402380D01*
X118914285Y-110878571D01*
X118961904Y-110830952D01*
X119057142Y-110783333D01*
X119295238Y-110783333D01*
X119390476Y-110830952D01*
X119438095Y-110878571D01*
X119485714Y-110973809D01*
X119485714Y-111211904D01*
X119438095Y-111307142D01*
X119390476Y-111354761D01*
X119295238Y-111402380D01*
X119057142Y-111402380D01*
X118961904Y-111354761D01*
X118914285Y-111307142D01*
X112419047Y-112347619D02*
X112466666Y-112300000D01*
X112561904Y-112252380D01*
X112800000Y-112252380D01*
X112895238Y-112300000D01*
X112942857Y-112347619D01*
X112990476Y-112442857D01*
X112990476Y-112538095D01*
X112942857Y-112680952D01*
X112371428Y-113252380D01*
X112990476Y-113252380D01*
X113419047Y-113157142D02*
X113466666Y-113204761D01*
X113419047Y-113252380D01*
X113371428Y-113204761D01*
X113419047Y-113157142D01*
X113419047Y-113252380D01*
X113847619Y-112347619D02*
X113895238Y-112300000D01*
X113990476Y-112252380D01*
X114228571Y-112252380D01*
X114323809Y-112300000D01*
X114371428Y-112347619D01*
X114419047Y-112442857D01*
X114419047Y-112538095D01*
X114371428Y-112680952D01*
X113800000Y-113252380D01*
X114419047Y-113252380D01*
X115276190Y-112585714D02*
X115276190Y-113252380D01*
X114847619Y-112585714D02*
X114847619Y-113109523D01*
X114895238Y-113204761D01*
X114990476Y-113252380D01*
X115133333Y-113252380D01*
X115228571Y-113204761D01*
X115276190Y-113157142D01*
X116085714Y-112728571D02*
X115752380Y-112728571D01*
X115752380Y-113252380D02*
X115752380Y-112252380D01*
X116228571Y-112252380D01*
X106033333Y-141257142D02*
X105985714Y-141304761D01*
X105842857Y-141352380D01*
X105747619Y-141352380D01*
X105604761Y-141304761D01*
X105509523Y-141209523D01*
X105461904Y-141114285D01*
X105414285Y-140923809D01*
X105414285Y-140780952D01*
X105461904Y-140590476D01*
X105509523Y-140495238D01*
X105604761Y-140400000D01*
X105747619Y-140352380D01*
X105842857Y-140352380D01*
X105985714Y-140400000D01*
X106033333Y-140447619D01*
X106890476Y-140352380D02*
X106700000Y-140352380D01*
X106604761Y-140400000D01*
X106557142Y-140447619D01*
X106461904Y-140590476D01*
X106414285Y-140780952D01*
X106414285Y-141161904D01*
X106461904Y-141257142D01*
X106509523Y-141304761D01*
X106604761Y-141352380D01*
X106795238Y-141352380D01*
X106890476Y-141304761D01*
X106938095Y-141257142D01*
X106985714Y-141161904D01*
X106985714Y-140923809D01*
X106938095Y-140828571D01*
X106890476Y-140780952D01*
X106795238Y-140733333D01*
X106604761Y-140733333D01*
X106509523Y-140780952D01*
X106461904Y-140828571D01*
X106414285Y-140923809D01*
X112328571Y-141452380D02*
X111757142Y-141452380D01*
X112042857Y-141452380D02*
X112042857Y-140452380D01*
X111947619Y-140595238D01*
X111852380Y-140690476D01*
X111757142Y-140738095D01*
X112947619Y-140452380D02*
X113042857Y-140452380D01*
X113138095Y-140500000D01*
X113185714Y-140547619D01*
X113233333Y-140642857D01*
X113280952Y-140833333D01*
X113280952Y-141071428D01*
X113233333Y-141261904D01*
X113185714Y-141357142D01*
X113138095Y-141404761D01*
X113042857Y-141452380D01*
X112947619Y-141452380D01*
X112852380Y-141404761D01*
X112804761Y-141357142D01*
X112757142Y-141261904D01*
X112709523Y-141071428D01*
X112709523Y-140833333D01*
X112757142Y-140642857D01*
X112804761Y-140547619D01*
X112852380Y-140500000D01*
X112947619Y-140452380D01*
X113709523Y-140785714D02*
X113709523Y-141452380D01*
X113709523Y-140880952D02*
X113757142Y-140833333D01*
X113852380Y-140785714D01*
X113995238Y-140785714D01*
X114090476Y-140833333D01*
X114138095Y-140928571D01*
X114138095Y-141452380D01*
X114947619Y-140928571D02*
X114614285Y-140928571D01*
X114614285Y-141452380D02*
X114614285Y-140452380D01*
X115090476Y-140452380D01*
X135633333Y-116607142D02*
X135585714Y-116654761D01*
X135442857Y-116702380D01*
X135347619Y-116702380D01*
X135204761Y-116654761D01*
X135109523Y-116559523D01*
X135061904Y-116464285D01*
X135014285Y-116273809D01*
X135014285Y-116130952D01*
X135061904Y-115940476D01*
X135109523Y-115845238D01*
X135204761Y-115750000D01*
X135347619Y-115702380D01*
X135442857Y-115702380D01*
X135585714Y-115750000D01*
X135633333Y-115797619D01*
X136204761Y-116130952D02*
X136109523Y-116083333D01*
X136061904Y-116035714D01*
X136014285Y-115940476D01*
X136014285Y-115892857D01*
X136061904Y-115797619D01*
X136109523Y-115750000D01*
X136204761Y-115702380D01*
X136395238Y-115702380D01*
X136490476Y-115750000D01*
X136538095Y-115797619D01*
X136585714Y-115892857D01*
X136585714Y-115940476D01*
X136538095Y-116035714D01*
X136490476Y-116083333D01*
X136395238Y-116130952D01*
X136204761Y-116130952D01*
X136109523Y-116178571D01*
X136061904Y-116226190D01*
X136014285Y-116321428D01*
X136014285Y-116511904D01*
X136061904Y-116607142D01*
X136109523Y-116654761D01*
X136204761Y-116702380D01*
X136395238Y-116702380D01*
X136490476Y-116654761D01*
X136538095Y-116607142D01*
X136585714Y-116511904D01*
X136585714Y-116321428D01*
X136538095Y-116226190D01*
X136490476Y-116178571D01*
X136395238Y-116130952D01*
X134252380Y-120202380D02*
X133680952Y-120202380D01*
X133966666Y-120202380D02*
X133966666Y-119202380D01*
X133871428Y-119345238D01*
X133776190Y-119440476D01*
X133680952Y-119488095D01*
X134871428Y-119202380D02*
X134966666Y-119202380D01*
X135061904Y-119250000D01*
X135109523Y-119297619D01*
X135157142Y-119392857D01*
X135204761Y-119583333D01*
X135204761Y-119821428D01*
X135157142Y-120011904D01*
X135109523Y-120107142D01*
X135061904Y-120154761D01*
X134966666Y-120202380D01*
X134871428Y-120202380D01*
X134776190Y-120154761D01*
X134728571Y-120107142D01*
X134680952Y-120011904D01*
X134633333Y-119821428D01*
X134633333Y-119583333D01*
X134680952Y-119392857D01*
X134728571Y-119297619D01*
X134776190Y-119250000D01*
X134871428Y-119202380D01*
X135823809Y-119202380D02*
X135919047Y-119202380D01*
X136014285Y-119250000D01*
X136061904Y-119297619D01*
X136109523Y-119392857D01*
X136157142Y-119583333D01*
X136157142Y-119821428D01*
X136109523Y-120011904D01*
X136061904Y-120107142D01*
X136014285Y-120154761D01*
X135919047Y-120202380D01*
X135823809Y-120202380D01*
X135728571Y-120154761D01*
X135680952Y-120107142D01*
X135633333Y-120011904D01*
X135585714Y-119821428D01*
X135585714Y-119583333D01*
X135633333Y-119392857D01*
X135680952Y-119297619D01*
X135728571Y-119250000D01*
X135823809Y-119202380D01*
X136585714Y-119535714D02*
X136585714Y-120202380D01*
X136585714Y-119630952D02*
X136633333Y-119583333D01*
X136728571Y-119535714D01*
X136871428Y-119535714D01*
X136966666Y-119583333D01*
X137014285Y-119678571D01*
X137014285Y-120202380D01*
X137823809Y-119678571D02*
X137490476Y-119678571D01*
X137490476Y-120202380D02*
X137490476Y-119202380D01*
X137966666Y-119202380D01*
X139357142Y-103657142D02*
X139309523Y-103704761D01*
X139166666Y-103752380D01*
X139071428Y-103752380D01*
X138928571Y-103704761D01*
X138833333Y-103609523D01*
X138785714Y-103514285D01*
X138738095Y-103323809D01*
X138738095Y-103180952D01*
X138785714Y-102990476D01*
X138833333Y-102895238D01*
X138928571Y-102800000D01*
X139071428Y-102752380D01*
X139166666Y-102752380D01*
X139309523Y-102800000D01*
X139357142Y-102847619D01*
X140309523Y-103752380D02*
X139738095Y-103752380D01*
X140023809Y-103752380D02*
X140023809Y-102752380D01*
X139928571Y-102895238D01*
X139833333Y-102990476D01*
X139738095Y-103038095D01*
X140928571Y-102752380D02*
X141023809Y-102752380D01*
X141119047Y-102800000D01*
X141166666Y-102847619D01*
X141214285Y-102942857D01*
X141261904Y-103133333D01*
X141261904Y-103371428D01*
X141214285Y-103561904D01*
X141166666Y-103657142D01*
X141119047Y-103704761D01*
X141023809Y-103752380D01*
X140928571Y-103752380D01*
X140833333Y-103704761D01*
X140785714Y-103657142D01*
X140738095Y-103561904D01*
X140690476Y-103371428D01*
X140690476Y-103133333D01*
X140738095Y-102942857D01*
X140785714Y-102847619D01*
X140833333Y-102800000D01*
X140928571Y-102752380D01*
X137152380Y-107402380D02*
X136580952Y-107402380D01*
X136866666Y-107402380D02*
X136866666Y-106402380D01*
X136771428Y-106545238D01*
X136676190Y-106640476D01*
X136580952Y-106688095D01*
X137771428Y-106402380D02*
X137866666Y-106402380D01*
X137961904Y-106450000D01*
X138009523Y-106497619D01*
X138057142Y-106592857D01*
X138104761Y-106783333D01*
X138104761Y-107021428D01*
X138057142Y-107211904D01*
X138009523Y-107307142D01*
X137961904Y-107354761D01*
X137866666Y-107402380D01*
X137771428Y-107402380D01*
X137676190Y-107354761D01*
X137628571Y-107307142D01*
X137580952Y-107211904D01*
X137533333Y-107021428D01*
X137533333Y-106783333D01*
X137580952Y-106592857D01*
X137628571Y-106497619D01*
X137676190Y-106450000D01*
X137771428Y-106402380D01*
X138723809Y-106402380D02*
X138819047Y-106402380D01*
X138914285Y-106450000D01*
X138961904Y-106497619D01*
X139009523Y-106592857D01*
X139057142Y-106783333D01*
X139057142Y-107021428D01*
X139009523Y-107211904D01*
X138961904Y-107307142D01*
X138914285Y-107354761D01*
X138819047Y-107402380D01*
X138723809Y-107402380D01*
X138628571Y-107354761D01*
X138580952Y-107307142D01*
X138533333Y-107211904D01*
X138485714Y-107021428D01*
X138485714Y-106783333D01*
X138533333Y-106592857D01*
X138580952Y-106497619D01*
X138628571Y-106450000D01*
X138723809Y-106402380D01*
X139485714Y-106735714D02*
X139485714Y-107402380D01*
X139485714Y-106830952D02*
X139533333Y-106783333D01*
X139628571Y-106735714D01*
X139771428Y-106735714D01*
X139866666Y-106783333D01*
X139914285Y-106878571D01*
X139914285Y-107402380D01*
X140723809Y-106878571D02*
X140390476Y-106878571D01*
X140390476Y-107402380D02*
X140390476Y-106402380D01*
X140866666Y-106402380D01*
X105257142Y-139257142D02*
X105209523Y-139304761D01*
X105066666Y-139352380D01*
X104971428Y-139352380D01*
X104828571Y-139304761D01*
X104733333Y-139209523D01*
X104685714Y-139114285D01*
X104638095Y-138923809D01*
X104638095Y-138780952D01*
X104685714Y-138590476D01*
X104733333Y-138495238D01*
X104828571Y-138400000D01*
X104971428Y-138352380D01*
X105066666Y-138352380D01*
X105209523Y-138400000D01*
X105257142Y-138447619D01*
X106209523Y-139352380D02*
X105638095Y-139352380D01*
X105923809Y-139352380D02*
X105923809Y-138352380D01*
X105828571Y-138495238D01*
X105733333Y-138590476D01*
X105638095Y-138638095D01*
X107161904Y-139352380D02*
X106590476Y-139352380D01*
X106876190Y-139352380D02*
X106876190Y-138352380D01*
X106780952Y-138495238D01*
X106685714Y-138590476D01*
X106590476Y-138638095D01*
X112252380Y-139752380D02*
X111680952Y-139752380D01*
X111966666Y-139752380D02*
X111966666Y-138752380D01*
X111871428Y-138895238D01*
X111776190Y-138990476D01*
X111680952Y-139038095D01*
X112871428Y-138752380D02*
X112966666Y-138752380D01*
X113061904Y-138800000D01*
X113109523Y-138847619D01*
X113157142Y-138942857D01*
X113204761Y-139133333D01*
X113204761Y-139371428D01*
X113157142Y-139561904D01*
X113109523Y-139657142D01*
X113061904Y-139704761D01*
X112966666Y-139752380D01*
X112871428Y-139752380D01*
X112776190Y-139704761D01*
X112728571Y-139657142D01*
X112680952Y-139561904D01*
X112633333Y-139371428D01*
X112633333Y-139133333D01*
X112680952Y-138942857D01*
X112728571Y-138847619D01*
X112776190Y-138800000D01*
X112871428Y-138752380D01*
X113823809Y-138752380D02*
X113919047Y-138752380D01*
X114014285Y-138800000D01*
X114061904Y-138847619D01*
X114109523Y-138942857D01*
X114157142Y-139133333D01*
X114157142Y-139371428D01*
X114109523Y-139561904D01*
X114061904Y-139657142D01*
X114014285Y-139704761D01*
X113919047Y-139752380D01*
X113823809Y-139752380D01*
X113728571Y-139704761D01*
X113680952Y-139657142D01*
X113633333Y-139561904D01*
X113585714Y-139371428D01*
X113585714Y-139133333D01*
X113633333Y-138942857D01*
X113680952Y-138847619D01*
X113728571Y-138800000D01*
X113823809Y-138752380D01*
X114585714Y-139085714D02*
X114585714Y-139752380D01*
X114585714Y-139180952D02*
X114633333Y-139133333D01*
X114728571Y-139085714D01*
X114871428Y-139085714D01*
X114966666Y-139133333D01*
X115014285Y-139228571D01*
X115014285Y-139752380D01*
X115823809Y-139228571D02*
X115490476Y-139228571D01*
X115490476Y-139752380D02*
X115490476Y-138752380D01*
X115966666Y-138752380D01*
X117057142Y-118842857D02*
X117104761Y-118890476D01*
X117152380Y-119033333D01*
X117152380Y-119128571D01*
X117104761Y-119271428D01*
X117009523Y-119366666D01*
X116914285Y-119414285D01*
X116723809Y-119461904D01*
X116580952Y-119461904D01*
X116390476Y-119414285D01*
X116295238Y-119366666D01*
X116200000Y-119271428D01*
X116152380Y-119128571D01*
X116152380Y-119033333D01*
X116200000Y-118890476D01*
X116247619Y-118842857D01*
X117152380Y-117890476D02*
X117152380Y-118461904D01*
X117152380Y-118176190D02*
X116152380Y-118176190D01*
X116295238Y-118271428D01*
X116390476Y-118366666D01*
X116438095Y-118461904D01*
X116247619Y-117509523D02*
X116200000Y-117461904D01*
X116152380Y-117366666D01*
X116152380Y-117128571D01*
X116200000Y-117033333D01*
X116247619Y-116985714D01*
X116342857Y-116938095D01*
X116438095Y-116938095D01*
X116580952Y-116985714D01*
X117152380Y-117557142D01*
X117152380Y-116938095D01*
X117052380Y-122671428D02*
X117052380Y-123242857D01*
X117052380Y-122957142D02*
X116052380Y-122957142D01*
X116195238Y-123052380D01*
X116290476Y-123147619D01*
X116338095Y-123242857D01*
X116052380Y-122052380D02*
X116052380Y-121957142D01*
X116100000Y-121861904D01*
X116147619Y-121814285D01*
X116242857Y-121766666D01*
X116433333Y-121719047D01*
X116671428Y-121719047D01*
X116861904Y-121766666D01*
X116957142Y-121814285D01*
X117004761Y-121861904D01*
X117052380Y-121957142D01*
X117052380Y-122052380D01*
X117004761Y-122147619D01*
X116957142Y-122195238D01*
X116861904Y-122242857D01*
X116671428Y-122290476D01*
X116433333Y-122290476D01*
X116242857Y-122242857D01*
X116147619Y-122195238D01*
X116100000Y-122147619D01*
X116052380Y-122052380D01*
X116385714Y-121290476D02*
X117052380Y-121290476D01*
X116480952Y-121290476D02*
X116433333Y-121242857D01*
X116385714Y-121147619D01*
X116385714Y-121004761D01*
X116433333Y-120909523D01*
X116528571Y-120861904D01*
X117052380Y-120861904D01*
X116528571Y-120052380D02*
X116528571Y-120385714D01*
X117052380Y-120385714D02*
X116052380Y-120385714D01*
X116052380Y-119909523D01*
X147057142Y-156942857D02*
X147104761Y-156990476D01*
X147152380Y-157133333D01*
X147152380Y-157228571D01*
X147104761Y-157371428D01*
X147009523Y-157466666D01*
X146914285Y-157514285D01*
X146723809Y-157561904D01*
X146580952Y-157561904D01*
X146390476Y-157514285D01*
X146295238Y-157466666D01*
X146200000Y-157371428D01*
X146152380Y-157228571D01*
X146152380Y-157133333D01*
X146200000Y-156990476D01*
X146247619Y-156942857D01*
X147152380Y-155990476D02*
X147152380Y-156561904D01*
X147152380Y-156276190D02*
X146152380Y-156276190D01*
X146295238Y-156371428D01*
X146390476Y-156466666D01*
X146438095Y-156561904D01*
X146152380Y-155657142D02*
X146152380Y-155038095D01*
X146533333Y-155371428D01*
X146533333Y-155228571D01*
X146580952Y-155133333D01*
X146628571Y-155085714D01*
X146723809Y-155038095D01*
X146961904Y-155038095D01*
X147057142Y-155085714D01*
X147104761Y-155133333D01*
X147152380Y-155228571D01*
X147152380Y-155514285D01*
X147104761Y-155609523D01*
X147057142Y-155657142D01*
X148852380Y-155347619D02*
X148852380Y-155919047D01*
X148852380Y-155633333D02*
X147852380Y-155633333D01*
X147995238Y-155728571D01*
X148090476Y-155823809D01*
X148138095Y-155919047D01*
X147852380Y-154728571D02*
X147852380Y-154633333D01*
X147900000Y-154538095D01*
X147947619Y-154490476D01*
X148042857Y-154442857D01*
X148233333Y-154395238D01*
X148471428Y-154395238D01*
X148661904Y-154442857D01*
X148757142Y-154490476D01*
X148804761Y-154538095D01*
X148852380Y-154633333D01*
X148852380Y-154728571D01*
X148804761Y-154823809D01*
X148757142Y-154871428D01*
X148661904Y-154919047D01*
X148471428Y-154966666D01*
X148233333Y-154966666D01*
X148042857Y-154919047D01*
X147947619Y-154871428D01*
X147900000Y-154823809D01*
X147852380Y-154728571D01*
X147852380Y-153776190D02*
X147852380Y-153680952D01*
X147900000Y-153585714D01*
X147947619Y-153538095D01*
X148042857Y-153490476D01*
X148233333Y-153442857D01*
X148471428Y-153442857D01*
X148661904Y-153490476D01*
X148757142Y-153538095D01*
X148804761Y-153585714D01*
X148852380Y-153680952D01*
X148852380Y-153776190D01*
X148804761Y-153871428D01*
X148757142Y-153919047D01*
X148661904Y-153966666D01*
X148471428Y-154014285D01*
X148233333Y-154014285D01*
X148042857Y-153966666D01*
X147947619Y-153919047D01*
X147900000Y-153871428D01*
X147852380Y-153776190D01*
X148185714Y-153014285D02*
X148852380Y-153014285D01*
X148280952Y-153014285D02*
X148233333Y-152966666D01*
X148185714Y-152871428D01*
X148185714Y-152728571D01*
X148233333Y-152633333D01*
X148328571Y-152585714D01*
X148852380Y-152585714D01*
X148328571Y-151776190D02*
X148328571Y-152109523D01*
X148852380Y-152109523D02*
X147852380Y-152109523D01*
X147852380Y-151633333D01*
X110357142Y-121357142D02*
X110309523Y-121404761D01*
X110166666Y-121452380D01*
X110071428Y-121452380D01*
X109928571Y-121404761D01*
X109833333Y-121309523D01*
X109785714Y-121214285D01*
X109738095Y-121023809D01*
X109738095Y-120880952D01*
X109785714Y-120690476D01*
X109833333Y-120595238D01*
X109928571Y-120500000D01*
X110071428Y-120452380D01*
X110166666Y-120452380D01*
X110309523Y-120500000D01*
X110357142Y-120547619D01*
X111309523Y-121452380D02*
X110738095Y-121452380D01*
X111023809Y-121452380D02*
X111023809Y-120452380D01*
X110928571Y-120595238D01*
X110833333Y-120690476D01*
X110738095Y-120738095D01*
X112166666Y-120785714D02*
X112166666Y-121452380D01*
X111928571Y-120404761D02*
X111690476Y-121119047D01*
X112309523Y-121119047D01*
X109552380Y-122752380D02*
X108980952Y-122752380D01*
X109266666Y-122752380D02*
X109266666Y-121752380D01*
X109171428Y-121895238D01*
X109076190Y-121990476D01*
X108980952Y-122038095D01*
X110171428Y-121752380D02*
X110266666Y-121752380D01*
X110361904Y-121800000D01*
X110409523Y-121847619D01*
X110457142Y-121942857D01*
X110504761Y-122133333D01*
X110504761Y-122371428D01*
X110457142Y-122561904D01*
X110409523Y-122657142D01*
X110361904Y-122704761D01*
X110266666Y-122752380D01*
X110171428Y-122752380D01*
X110076190Y-122704761D01*
X110028571Y-122657142D01*
X109980952Y-122561904D01*
X109933333Y-122371428D01*
X109933333Y-122133333D01*
X109980952Y-121942857D01*
X110028571Y-121847619D01*
X110076190Y-121800000D01*
X110171428Y-121752380D01*
X111123809Y-121752380D02*
X111219047Y-121752380D01*
X111314285Y-121800000D01*
X111361904Y-121847619D01*
X111409523Y-121942857D01*
X111457142Y-122133333D01*
X111457142Y-122371428D01*
X111409523Y-122561904D01*
X111361904Y-122657142D01*
X111314285Y-122704761D01*
X111219047Y-122752380D01*
X111123809Y-122752380D01*
X111028571Y-122704761D01*
X110980952Y-122657142D01*
X110933333Y-122561904D01*
X110885714Y-122371428D01*
X110885714Y-122133333D01*
X110933333Y-121942857D01*
X110980952Y-121847619D01*
X111028571Y-121800000D01*
X111123809Y-121752380D01*
X111885714Y-122085714D02*
X111885714Y-122752380D01*
X111885714Y-122180952D02*
X111933333Y-122133333D01*
X112028571Y-122085714D01*
X112171428Y-122085714D01*
X112266666Y-122133333D01*
X112314285Y-122228571D01*
X112314285Y-122752380D01*
X113123809Y-122228571D02*
X112790476Y-122228571D01*
X112790476Y-122752380D02*
X112790476Y-121752380D01*
X113266666Y-121752380D01*
X105057142Y-129057142D02*
X105009523Y-129104761D01*
X104866666Y-129152380D01*
X104771428Y-129152380D01*
X104628571Y-129104761D01*
X104533333Y-129009523D01*
X104485714Y-128914285D01*
X104438095Y-128723809D01*
X104438095Y-128580952D01*
X104485714Y-128390476D01*
X104533333Y-128295238D01*
X104628571Y-128200000D01*
X104771428Y-128152380D01*
X104866666Y-128152380D01*
X105009523Y-128200000D01*
X105057142Y-128247619D01*
X106009523Y-129152380D02*
X105438095Y-129152380D01*
X105723809Y-129152380D02*
X105723809Y-128152380D01*
X105628571Y-128295238D01*
X105533333Y-128390476D01*
X105438095Y-128438095D01*
X106866666Y-128152380D02*
X106676190Y-128152380D01*
X106580952Y-128200000D01*
X106533333Y-128247619D01*
X106438095Y-128390476D01*
X106390476Y-128580952D01*
X106390476Y-128961904D01*
X106438095Y-129057142D01*
X106485714Y-129104761D01*
X106580952Y-129152380D01*
X106771428Y-129152380D01*
X106866666Y-129104761D01*
X106914285Y-129057142D01*
X106961904Y-128961904D01*
X106961904Y-128723809D01*
X106914285Y-128628571D01*
X106866666Y-128580952D01*
X106771428Y-128533333D01*
X106580952Y-128533333D01*
X106485714Y-128580952D01*
X106438095Y-128628571D01*
X106390476Y-128723809D01*
X101128571Y-129152380D02*
X100557142Y-129152380D01*
X100842857Y-129152380D02*
X100842857Y-128152380D01*
X100747619Y-128295238D01*
X100652380Y-128390476D01*
X100557142Y-128438095D01*
X101747619Y-128152380D02*
X101842857Y-128152380D01*
X101938095Y-128200000D01*
X101985714Y-128247619D01*
X102033333Y-128342857D01*
X102080952Y-128533333D01*
X102080952Y-128771428D01*
X102033333Y-128961904D01*
X101985714Y-129057142D01*
X101938095Y-129104761D01*
X101842857Y-129152380D01*
X101747619Y-129152380D01*
X101652380Y-129104761D01*
X101604761Y-129057142D01*
X101557142Y-128961904D01*
X101509523Y-128771428D01*
X101509523Y-128533333D01*
X101557142Y-128342857D01*
X101604761Y-128247619D01*
X101652380Y-128200000D01*
X101747619Y-128152380D01*
X102938095Y-128485714D02*
X102938095Y-129152380D01*
X102509523Y-128485714D02*
X102509523Y-129009523D01*
X102557142Y-129104761D01*
X102652380Y-129152380D01*
X102795238Y-129152380D01*
X102890476Y-129104761D01*
X102938095Y-129057142D01*
X103747619Y-128628571D02*
X103414285Y-128628571D01*
X103414285Y-129152380D02*
X103414285Y-128152380D01*
X103890476Y-128152380D01*
X149057142Y-140207142D02*
X149009523Y-140254761D01*
X148866666Y-140302380D01*
X148771428Y-140302380D01*
X148628571Y-140254761D01*
X148533333Y-140159523D01*
X148485714Y-140064285D01*
X148438095Y-139873809D01*
X148438095Y-139730952D01*
X148485714Y-139540476D01*
X148533333Y-139445238D01*
X148628571Y-139350000D01*
X148771428Y-139302380D01*
X148866666Y-139302380D01*
X149009523Y-139350000D01*
X149057142Y-139397619D01*
X150009523Y-140302380D02*
X149438095Y-140302380D01*
X149723809Y-140302380D02*
X149723809Y-139302380D01*
X149628571Y-139445238D01*
X149533333Y-139540476D01*
X149438095Y-139588095D01*
X150342857Y-139302380D02*
X151009523Y-139302380D01*
X150580952Y-140302380D01*
X134757142Y-138207142D02*
X134709523Y-138254761D01*
X134566666Y-138302380D01*
X134471428Y-138302380D01*
X134328571Y-138254761D01*
X134233333Y-138159523D01*
X134185714Y-138064285D01*
X134138095Y-137873809D01*
X134138095Y-137730952D01*
X134185714Y-137540476D01*
X134233333Y-137445238D01*
X134328571Y-137350000D01*
X134471428Y-137302380D01*
X134566666Y-137302380D01*
X134709523Y-137350000D01*
X134757142Y-137397619D01*
X135709523Y-138302380D02*
X135138095Y-138302380D01*
X135423809Y-138302380D02*
X135423809Y-137302380D01*
X135328571Y-137445238D01*
X135233333Y-137540476D01*
X135138095Y-137588095D01*
X136280952Y-137730952D02*
X136185714Y-137683333D01*
X136138095Y-137635714D01*
X136090476Y-137540476D01*
X136090476Y-137492857D01*
X136138095Y-137397619D01*
X136185714Y-137350000D01*
X136280952Y-137302380D01*
X136471428Y-137302380D01*
X136566666Y-137350000D01*
X136614285Y-137397619D01*
X136661904Y-137492857D01*
X136661904Y-137540476D01*
X136614285Y-137635714D01*
X136566666Y-137683333D01*
X136471428Y-137730952D01*
X136280952Y-137730952D01*
X136185714Y-137778571D01*
X136138095Y-137826190D01*
X136090476Y-137921428D01*
X136090476Y-138111904D01*
X136138095Y-138207142D01*
X136185714Y-138254761D01*
X136280952Y-138302380D01*
X136471428Y-138302380D01*
X136566666Y-138254761D01*
X136614285Y-138207142D01*
X136661904Y-138111904D01*
X136661904Y-137921428D01*
X136614285Y-137826190D01*
X136566666Y-137778571D01*
X136471428Y-137730952D01*
X134804761Y-141802380D02*
X134233333Y-141802380D01*
X134519047Y-141802380D02*
X134519047Y-140802380D01*
X134423809Y-140945238D01*
X134328571Y-141040476D01*
X134233333Y-141088095D01*
X135233333Y-141135714D02*
X135233333Y-141802380D01*
X135233333Y-141230952D02*
X135280952Y-141183333D01*
X135376190Y-141135714D01*
X135519047Y-141135714D01*
X135614285Y-141183333D01*
X135661904Y-141278571D01*
X135661904Y-141802380D01*
X136471428Y-141278571D02*
X136138095Y-141278571D01*
X136138095Y-141802380D02*
X136138095Y-140802380D01*
X136614285Y-140802380D01*
X105157142Y-131157142D02*
X105109523Y-131204761D01*
X104966666Y-131252380D01*
X104871428Y-131252380D01*
X104728571Y-131204761D01*
X104633333Y-131109523D01*
X104585714Y-131014285D01*
X104538095Y-130823809D01*
X104538095Y-130680952D01*
X104585714Y-130490476D01*
X104633333Y-130395238D01*
X104728571Y-130300000D01*
X104871428Y-130252380D01*
X104966666Y-130252380D01*
X105109523Y-130300000D01*
X105157142Y-130347619D01*
X106109523Y-131252380D02*
X105538095Y-131252380D01*
X105823809Y-131252380D02*
X105823809Y-130252380D01*
X105728571Y-130395238D01*
X105633333Y-130490476D01*
X105538095Y-130538095D01*
X106585714Y-131252380D02*
X106776190Y-131252380D01*
X106871428Y-131204761D01*
X106919047Y-131157142D01*
X107014285Y-131014285D01*
X107061904Y-130823809D01*
X107061904Y-130442857D01*
X107014285Y-130347619D01*
X106966666Y-130300000D01*
X106871428Y-130252380D01*
X106680952Y-130252380D01*
X106585714Y-130300000D01*
X106538095Y-130347619D01*
X106490476Y-130442857D01*
X106490476Y-130680952D01*
X106538095Y-130776190D01*
X106585714Y-130823809D01*
X106680952Y-130871428D01*
X106871428Y-130871428D01*
X106966666Y-130823809D01*
X107014285Y-130776190D01*
X107061904Y-130680952D01*
D13*
X101316666Y-131116666D02*
X100916666Y-131116666D01*
X101116666Y-131116666D02*
X101116666Y-130416666D01*
X101050000Y-130516666D01*
X100983333Y-130583333D01*
X100916666Y-130616666D01*
X101750000Y-130416666D02*
X101816666Y-130416666D01*
X101883333Y-130450000D01*
X101916666Y-130483333D01*
X101950000Y-130550000D01*
X101983333Y-130683333D01*
X101983333Y-130850000D01*
X101950000Y-130983333D01*
X101916666Y-131050000D01*
X101883333Y-131083333D01*
X101816666Y-131116666D01*
X101750000Y-131116666D01*
X101683333Y-131083333D01*
X101650000Y-131050000D01*
X101616666Y-130983333D01*
X101583333Y-130850000D01*
X101583333Y-130683333D01*
X101616666Y-130550000D01*
X101650000Y-130483333D01*
X101683333Y-130450000D01*
X101750000Y-130416666D01*
X102416666Y-130416666D02*
X102483333Y-130416666D01*
X102550000Y-130450000D01*
X102583333Y-130483333D01*
X102616666Y-130550000D01*
X102650000Y-130683333D01*
X102650000Y-130850000D01*
X102616666Y-130983333D01*
X102583333Y-131050000D01*
X102550000Y-131083333D01*
X102483333Y-131116666D01*
X102416666Y-131116666D01*
X102350000Y-131083333D01*
X102316666Y-131050000D01*
X102283333Y-130983333D01*
X102250000Y-130850000D01*
X102250000Y-130683333D01*
X102283333Y-130550000D01*
X102316666Y-130483333D01*
X102350000Y-130450000D01*
X102416666Y-130416666D01*
X102950000Y-130650000D02*
X102950000Y-131116666D01*
X102950000Y-130716666D02*
X102983333Y-130683333D01*
X103050000Y-130650000D01*
X103150000Y-130650000D01*
X103216666Y-130683333D01*
X103250000Y-130750000D01*
X103250000Y-131116666D01*
X103816666Y-130750000D02*
X103583333Y-130750000D01*
X103583333Y-131116666D02*
X103583333Y-130416666D01*
X103916666Y-130416666D01*
D10*
X128057142Y-138357142D02*
X128009523Y-138404761D01*
X127866666Y-138452380D01*
X127771428Y-138452380D01*
X127628571Y-138404761D01*
X127533333Y-138309523D01*
X127485714Y-138214285D01*
X127438095Y-138023809D01*
X127438095Y-137880952D01*
X127485714Y-137690476D01*
X127533333Y-137595238D01*
X127628571Y-137500000D01*
X127771428Y-137452380D01*
X127866666Y-137452380D01*
X128009523Y-137500000D01*
X128057142Y-137547619D01*
X128438095Y-137547619D02*
X128485714Y-137500000D01*
X128580952Y-137452380D01*
X128819047Y-137452380D01*
X128914285Y-137500000D01*
X128961904Y-137547619D01*
X129009523Y-137642857D01*
X129009523Y-137738095D01*
X128961904Y-137880952D01*
X128390476Y-138452380D01*
X129009523Y-138452380D01*
X129628571Y-137452380D02*
X129723809Y-137452380D01*
X129819047Y-137500000D01*
X129866666Y-137547619D01*
X129914285Y-137642857D01*
X129961904Y-137833333D01*
X129961904Y-138071428D01*
X129914285Y-138261904D01*
X129866666Y-138357142D01*
X129819047Y-138404761D01*
X129723809Y-138452380D01*
X129628571Y-138452380D01*
X129533333Y-138404761D01*
X129485714Y-138357142D01*
X129438095Y-138261904D01*
X129390476Y-138071428D01*
X129390476Y-137833333D01*
X129438095Y-137642857D01*
X129485714Y-137547619D01*
X129533333Y-137500000D01*
X129628571Y-137452380D01*
D13*
X130950000Y-138316666D02*
X130550000Y-138316666D01*
X130750000Y-138316666D02*
X130750000Y-137616666D01*
X130683333Y-137716666D01*
X130616666Y-137783333D01*
X130550000Y-137816666D01*
X131383333Y-137616666D02*
X131450000Y-137616666D01*
X131516666Y-137650000D01*
X131550000Y-137683333D01*
X131583333Y-137750000D01*
X131616666Y-137883333D01*
X131616666Y-138050000D01*
X131583333Y-138183333D01*
X131550000Y-138250000D01*
X131516666Y-138283333D01*
X131450000Y-138316666D01*
X131383333Y-138316666D01*
X131316666Y-138283333D01*
X131283333Y-138250000D01*
X131250000Y-138183333D01*
X131216666Y-138050000D01*
X131216666Y-137883333D01*
X131250000Y-137750000D01*
X131283333Y-137683333D01*
X131316666Y-137650000D01*
X131383333Y-137616666D01*
X131916666Y-137850000D02*
X131916666Y-138316666D01*
X131916666Y-137916666D02*
X131950000Y-137883333D01*
X132016666Y-137850000D01*
X132116666Y-137850000D01*
X132183333Y-137883333D01*
X132216666Y-137950000D01*
X132216666Y-138316666D01*
X132783333Y-137950000D02*
X132550000Y-137950000D01*
X132550000Y-138316666D02*
X132550000Y-137616666D01*
X132883333Y-137616666D01*
D10*
X105157142Y-135157142D02*
X105109523Y-135204761D01*
X104966666Y-135252380D01*
X104871428Y-135252380D01*
X104728571Y-135204761D01*
X104633333Y-135109523D01*
X104585714Y-135014285D01*
X104538095Y-134823809D01*
X104538095Y-134680952D01*
X104585714Y-134490476D01*
X104633333Y-134395238D01*
X104728571Y-134300000D01*
X104871428Y-134252380D01*
X104966666Y-134252380D01*
X105109523Y-134300000D01*
X105157142Y-134347619D01*
X105538095Y-134347619D02*
X105585714Y-134300000D01*
X105680952Y-134252380D01*
X105919047Y-134252380D01*
X106014285Y-134300000D01*
X106061904Y-134347619D01*
X106109523Y-134442857D01*
X106109523Y-134538095D01*
X106061904Y-134680952D01*
X105490476Y-135252380D01*
X106109523Y-135252380D01*
X107061904Y-135252380D02*
X106490476Y-135252380D01*
X106776190Y-135252380D02*
X106776190Y-134252380D01*
X106680952Y-134395238D01*
X106585714Y-134490476D01*
X106490476Y-134538095D01*
X101904761Y-135252380D02*
X101333333Y-135252380D01*
X101619047Y-135252380D02*
X101619047Y-134252380D01*
X101523809Y-134395238D01*
X101428571Y-134490476D01*
X101333333Y-134538095D01*
X102761904Y-134585714D02*
X102761904Y-135252380D01*
X102333333Y-134585714D02*
X102333333Y-135109523D01*
X102380952Y-135204761D01*
X102476190Y-135252380D01*
X102619047Y-135252380D01*
X102714285Y-135204761D01*
X102761904Y-135157142D01*
X103571428Y-134728571D02*
X103238095Y-134728571D01*
X103238095Y-135252380D02*
X103238095Y-134252380D01*
X103714285Y-134252380D01*
X144957142Y-157042857D02*
X145004761Y-157090476D01*
X145052380Y-157233333D01*
X145052380Y-157328571D01*
X145004761Y-157471428D01*
X144909523Y-157566666D01*
X144814285Y-157614285D01*
X144623809Y-157661904D01*
X144480952Y-157661904D01*
X144290476Y-157614285D01*
X144195238Y-157566666D01*
X144100000Y-157471428D01*
X144052380Y-157328571D01*
X144052380Y-157233333D01*
X144100000Y-157090476D01*
X144147619Y-157042857D01*
X144147619Y-156661904D02*
X144100000Y-156614285D01*
X144052380Y-156519047D01*
X144052380Y-156280952D01*
X144100000Y-156185714D01*
X144147619Y-156138095D01*
X144242857Y-156090476D01*
X144338095Y-156090476D01*
X144480952Y-156138095D01*
X145052380Y-156709523D01*
X145052380Y-156090476D01*
X144147619Y-155709523D02*
X144100000Y-155661904D01*
X144052380Y-155566666D01*
X144052380Y-155328571D01*
X144100000Y-155233333D01*
X144147619Y-155185714D01*
X144242857Y-155138095D01*
X144338095Y-155138095D01*
X144480952Y-155185714D01*
X145052380Y-155757142D01*
X145052380Y-155138095D01*
X143302380Y-153271428D02*
X143302380Y-153842857D01*
X143302380Y-153557142D02*
X142302380Y-153557142D01*
X142445238Y-153652380D01*
X142540476Y-153747619D01*
X142588095Y-153842857D01*
X142302380Y-152652380D02*
X142302380Y-152557142D01*
X142350000Y-152461904D01*
X142397619Y-152414285D01*
X142492857Y-152366666D01*
X142683333Y-152319047D01*
X142921428Y-152319047D01*
X143111904Y-152366666D01*
X143207142Y-152414285D01*
X143254761Y-152461904D01*
X143302380Y-152557142D01*
X143302380Y-152652380D01*
X143254761Y-152747619D01*
X143207142Y-152795238D01*
X143111904Y-152842857D01*
X142921428Y-152890476D01*
X142683333Y-152890476D01*
X142492857Y-152842857D01*
X142397619Y-152795238D01*
X142350000Y-152747619D01*
X142302380Y-152652380D01*
X142635714Y-151461904D02*
X143302380Y-151461904D01*
X142635714Y-151890476D02*
X143159523Y-151890476D01*
X143254761Y-151842857D01*
X143302380Y-151747619D01*
X143302380Y-151604761D01*
X143254761Y-151509523D01*
X143207142Y-151461904D01*
X142778571Y-150652380D02*
X142778571Y-150985714D01*
X143302380Y-150985714D02*
X142302380Y-150985714D01*
X142302380Y-150509523D01*
X130957142Y-151357142D02*
X130909523Y-151404761D01*
X130766666Y-151452380D01*
X130671428Y-151452380D01*
X130528571Y-151404761D01*
X130433333Y-151309523D01*
X130385714Y-151214285D01*
X130338095Y-151023809D01*
X130338095Y-150880952D01*
X130385714Y-150690476D01*
X130433333Y-150595238D01*
X130528571Y-150500000D01*
X130671428Y-150452380D01*
X130766666Y-150452380D01*
X130909523Y-150500000D01*
X130957142Y-150547619D01*
X131338095Y-150547619D02*
X131385714Y-150500000D01*
X131480952Y-150452380D01*
X131719047Y-150452380D01*
X131814285Y-150500000D01*
X131861904Y-150547619D01*
X131909523Y-150642857D01*
X131909523Y-150738095D01*
X131861904Y-150880952D01*
X131290476Y-151452380D01*
X131909523Y-151452380D01*
X132766666Y-150785714D02*
X132766666Y-151452380D01*
X132528571Y-150404761D02*
X132290476Y-151119047D01*
X132909523Y-151119047D01*
X133852380Y-153152380D02*
X133280952Y-153152380D01*
X133566666Y-153152380D02*
X133566666Y-152152380D01*
X133471428Y-152295238D01*
X133376190Y-152390476D01*
X133280952Y-152438095D01*
X134471428Y-152152380D02*
X134566666Y-152152380D01*
X134661904Y-152200000D01*
X134709523Y-152247619D01*
X134757142Y-152342857D01*
X134804761Y-152533333D01*
X134804761Y-152771428D01*
X134757142Y-152961904D01*
X134709523Y-153057142D01*
X134661904Y-153104761D01*
X134566666Y-153152380D01*
X134471428Y-153152380D01*
X134376190Y-153104761D01*
X134328571Y-153057142D01*
X134280952Y-152961904D01*
X134233333Y-152771428D01*
X134233333Y-152533333D01*
X134280952Y-152342857D01*
X134328571Y-152247619D01*
X134376190Y-152200000D01*
X134471428Y-152152380D01*
X135423809Y-152152380D02*
X135519047Y-152152380D01*
X135614285Y-152200000D01*
X135661904Y-152247619D01*
X135709523Y-152342857D01*
X135757142Y-152533333D01*
X135757142Y-152771428D01*
X135709523Y-152961904D01*
X135661904Y-153057142D01*
X135614285Y-153104761D01*
X135519047Y-153152380D01*
X135423809Y-153152380D01*
X135328571Y-153104761D01*
X135280952Y-153057142D01*
X135233333Y-152961904D01*
X135185714Y-152771428D01*
X135185714Y-152533333D01*
X135233333Y-152342857D01*
X135280952Y-152247619D01*
X135328571Y-152200000D01*
X135423809Y-152152380D01*
X136185714Y-152485714D02*
X136185714Y-153152380D01*
X136185714Y-152580952D02*
X136233333Y-152533333D01*
X136328571Y-152485714D01*
X136471428Y-152485714D01*
X136566666Y-152533333D01*
X136614285Y-152628571D01*
X136614285Y-153152380D01*
X137423809Y-152628571D02*
X137090476Y-152628571D01*
X137090476Y-153152380D02*
X137090476Y-152152380D01*
X137566666Y-152152380D01*
X105057142Y-137257142D02*
X105009523Y-137304761D01*
X104866666Y-137352380D01*
X104771428Y-137352380D01*
X104628571Y-137304761D01*
X104533333Y-137209523D01*
X104485714Y-137114285D01*
X104438095Y-136923809D01*
X104438095Y-136780952D01*
X104485714Y-136590476D01*
X104533333Y-136495238D01*
X104628571Y-136400000D01*
X104771428Y-136352380D01*
X104866666Y-136352380D01*
X105009523Y-136400000D01*
X105057142Y-136447619D01*
X105438095Y-136447619D02*
X105485714Y-136400000D01*
X105580952Y-136352380D01*
X105819047Y-136352380D01*
X105914285Y-136400000D01*
X105961904Y-136447619D01*
X106009523Y-136542857D01*
X106009523Y-136638095D01*
X105961904Y-136780952D01*
X105390476Y-137352380D01*
X106009523Y-137352380D01*
X106914285Y-136352380D02*
X106438095Y-136352380D01*
X106390476Y-136828571D01*
X106438095Y-136780952D01*
X106533333Y-136733333D01*
X106771428Y-136733333D01*
X106866666Y-136780952D01*
X106914285Y-136828571D01*
X106961904Y-136923809D01*
X106961904Y-137161904D01*
X106914285Y-137257142D01*
X106866666Y-137304761D01*
X106771428Y-137352380D01*
X106533333Y-137352380D01*
X106438095Y-137304761D01*
X106390476Y-137257142D01*
D13*
X101216666Y-137216666D02*
X100816666Y-137216666D01*
X101016666Y-137216666D02*
X101016666Y-136516666D01*
X100950000Y-136616666D01*
X100883333Y-136683333D01*
X100816666Y-136716666D01*
X101650000Y-136516666D02*
X101716666Y-136516666D01*
X101783333Y-136550000D01*
X101816666Y-136583333D01*
X101850000Y-136650000D01*
X101883333Y-136783333D01*
X101883333Y-136950000D01*
X101850000Y-137083333D01*
X101816666Y-137150000D01*
X101783333Y-137183333D01*
X101716666Y-137216666D01*
X101650000Y-137216666D01*
X101583333Y-137183333D01*
X101550000Y-137150000D01*
X101516666Y-137083333D01*
X101483333Y-136950000D01*
X101483333Y-136783333D01*
X101516666Y-136650000D01*
X101550000Y-136583333D01*
X101583333Y-136550000D01*
X101650000Y-136516666D01*
X102316666Y-136516666D02*
X102383333Y-136516666D01*
X102450000Y-136550000D01*
X102483333Y-136583333D01*
X102516666Y-136650000D01*
X102550000Y-136783333D01*
X102550000Y-136950000D01*
X102516666Y-137083333D01*
X102483333Y-137150000D01*
X102450000Y-137183333D01*
X102383333Y-137216666D01*
X102316666Y-137216666D01*
X102250000Y-137183333D01*
X102216666Y-137150000D01*
X102183333Y-137083333D01*
X102150000Y-136950000D01*
X102150000Y-136783333D01*
X102183333Y-136650000D01*
X102216666Y-136583333D01*
X102250000Y-136550000D01*
X102316666Y-136516666D01*
X102850000Y-136750000D02*
X102850000Y-137216666D01*
X102850000Y-136816666D02*
X102883333Y-136783333D01*
X102950000Y-136750000D01*
X103050000Y-136750000D01*
X103116666Y-136783333D01*
X103150000Y-136850000D01*
X103150000Y-137216666D01*
X103716666Y-136850000D02*
X103483333Y-136850000D01*
X103483333Y-137216666D02*
X103483333Y-136516666D01*
X103816666Y-136516666D01*
D10*
X128057142Y-140357142D02*
X128009523Y-140404761D01*
X127866666Y-140452380D01*
X127771428Y-140452380D01*
X127628571Y-140404761D01*
X127533333Y-140309523D01*
X127485714Y-140214285D01*
X127438095Y-140023809D01*
X127438095Y-139880952D01*
X127485714Y-139690476D01*
X127533333Y-139595238D01*
X127628571Y-139500000D01*
X127771428Y-139452380D01*
X127866666Y-139452380D01*
X128009523Y-139500000D01*
X128057142Y-139547619D01*
X128438095Y-139547619D02*
X128485714Y-139500000D01*
X128580952Y-139452380D01*
X128819047Y-139452380D01*
X128914285Y-139500000D01*
X128961904Y-139547619D01*
X129009523Y-139642857D01*
X129009523Y-139738095D01*
X128961904Y-139880952D01*
X128390476Y-140452380D01*
X129009523Y-140452380D01*
X129866666Y-139452380D02*
X129676190Y-139452380D01*
X129580952Y-139500000D01*
X129533333Y-139547619D01*
X129438095Y-139690476D01*
X129390476Y-139880952D01*
X129390476Y-140261904D01*
X129438095Y-140357142D01*
X129485714Y-140404761D01*
X129580952Y-140452380D01*
X129771428Y-140452380D01*
X129866666Y-140404761D01*
X129914285Y-140357142D01*
X129961904Y-140261904D01*
X129961904Y-140023809D01*
X129914285Y-139928571D01*
X129866666Y-139880952D01*
X129771428Y-139833333D01*
X129580952Y-139833333D01*
X129485714Y-139880952D01*
X129438095Y-139928571D01*
X129390476Y-140023809D01*
X123552380Y-142102380D02*
X122980952Y-142102380D01*
X123266666Y-142102380D02*
X123266666Y-141102380D01*
X123171428Y-141245238D01*
X123076190Y-141340476D01*
X122980952Y-141388095D01*
X124171428Y-141102380D02*
X124266666Y-141102380D01*
X124361904Y-141150000D01*
X124409523Y-141197619D01*
X124457142Y-141292857D01*
X124504761Y-141483333D01*
X124504761Y-141721428D01*
X124457142Y-141911904D01*
X124409523Y-142007142D01*
X124361904Y-142054761D01*
X124266666Y-142102380D01*
X124171428Y-142102380D01*
X124076190Y-142054761D01*
X124028571Y-142007142D01*
X123980952Y-141911904D01*
X123933333Y-141721428D01*
X123933333Y-141483333D01*
X123980952Y-141292857D01*
X124028571Y-141197619D01*
X124076190Y-141150000D01*
X124171428Y-141102380D01*
X125123809Y-141102380D02*
X125219047Y-141102380D01*
X125314285Y-141150000D01*
X125361904Y-141197619D01*
X125409523Y-141292857D01*
X125457142Y-141483333D01*
X125457142Y-141721428D01*
X125409523Y-141911904D01*
X125361904Y-142007142D01*
X125314285Y-142054761D01*
X125219047Y-142102380D01*
X125123809Y-142102380D01*
X125028571Y-142054761D01*
X124980952Y-142007142D01*
X124933333Y-141911904D01*
X124885714Y-141721428D01*
X124885714Y-141483333D01*
X124933333Y-141292857D01*
X124980952Y-141197619D01*
X125028571Y-141150000D01*
X125123809Y-141102380D01*
X125885714Y-141435714D02*
X125885714Y-142102380D01*
X125885714Y-141530952D02*
X125933333Y-141483333D01*
X126028571Y-141435714D01*
X126171428Y-141435714D01*
X126266666Y-141483333D01*
X126314285Y-141578571D01*
X126314285Y-142102380D01*
X127123809Y-141578571D02*
X126790476Y-141578571D01*
X126790476Y-142102380D02*
X126790476Y-141102380D01*
X127266666Y-141102380D01*
X125757142Y-98957142D02*
X125709523Y-99004761D01*
X125566666Y-99052380D01*
X125471428Y-99052380D01*
X125328571Y-99004761D01*
X125233333Y-98909523D01*
X125185714Y-98814285D01*
X125138095Y-98623809D01*
X125138095Y-98480952D01*
X125185714Y-98290476D01*
X125233333Y-98195238D01*
X125328571Y-98100000D01*
X125471428Y-98052380D01*
X125566666Y-98052380D01*
X125709523Y-98100000D01*
X125757142Y-98147619D01*
X126138095Y-98147619D02*
X126185714Y-98100000D01*
X126280952Y-98052380D01*
X126519047Y-98052380D01*
X126614285Y-98100000D01*
X126661904Y-98147619D01*
X126709523Y-98242857D01*
X126709523Y-98338095D01*
X126661904Y-98480952D01*
X126090476Y-99052380D01*
X126709523Y-99052380D01*
X127042857Y-98052380D02*
X127709523Y-98052380D01*
X127280952Y-99052380D01*
X126852380Y-102609523D02*
X126852380Y-103180952D01*
X126852380Y-102895238D02*
X125852380Y-102895238D01*
X125995238Y-102990476D01*
X126090476Y-103085714D01*
X126138095Y-103180952D01*
X126757142Y-102180952D02*
X126804761Y-102133333D01*
X126852380Y-102180952D01*
X126804761Y-102228571D01*
X126757142Y-102180952D01*
X126852380Y-102180952D01*
X125852380Y-101228571D02*
X125852380Y-101704761D01*
X126328571Y-101752380D01*
X126280952Y-101704761D01*
X126233333Y-101609523D01*
X126233333Y-101371428D01*
X126280952Y-101276190D01*
X126328571Y-101228571D01*
X126423809Y-101180952D01*
X126661904Y-101180952D01*
X126757142Y-101228571D01*
X126804761Y-101276190D01*
X126852380Y-101371428D01*
X126852380Y-101609523D01*
X126804761Y-101704761D01*
X126757142Y-101752380D01*
X126185714Y-100752380D02*
X126852380Y-100752380D01*
X126280952Y-100752380D02*
X126233333Y-100704761D01*
X126185714Y-100609523D01*
X126185714Y-100466666D01*
X126233333Y-100371428D01*
X126328571Y-100323809D01*
X126852380Y-100323809D01*
X126328571Y-99514285D02*
X126328571Y-99847619D01*
X126852380Y-99847619D02*
X125852380Y-99847619D01*
X125852380Y-99371428D01*
X126457142Y-82142857D02*
X126504761Y-82190476D01*
X126552380Y-82333333D01*
X126552380Y-82428571D01*
X126504761Y-82571428D01*
X126409523Y-82666666D01*
X126314285Y-82714285D01*
X126123809Y-82761904D01*
X125980952Y-82761904D01*
X125790476Y-82714285D01*
X125695238Y-82666666D01*
X125600000Y-82571428D01*
X125552380Y-82428571D01*
X125552380Y-82333333D01*
X125600000Y-82190476D01*
X125647619Y-82142857D01*
X125647619Y-81761904D02*
X125600000Y-81714285D01*
X125552380Y-81619047D01*
X125552380Y-81380952D01*
X125600000Y-81285714D01*
X125647619Y-81238095D01*
X125742857Y-81190476D01*
X125838095Y-81190476D01*
X125980952Y-81238095D01*
X126552380Y-81809523D01*
X126552380Y-81190476D01*
X125980952Y-80619047D02*
X125933333Y-80714285D01*
X125885714Y-80761904D01*
X125790476Y-80809523D01*
X125742857Y-80809523D01*
X125647619Y-80761904D01*
X125600000Y-80714285D01*
X125552380Y-80619047D01*
X125552380Y-80428571D01*
X125600000Y-80333333D01*
X125647619Y-80285714D01*
X125742857Y-80238095D01*
X125790476Y-80238095D01*
X125885714Y-80285714D01*
X125933333Y-80333333D01*
X125980952Y-80428571D01*
X125980952Y-80619047D01*
X126028571Y-80714285D01*
X126076190Y-80761904D01*
X126171428Y-80809523D01*
X126361904Y-80809523D01*
X126457142Y-80761904D01*
X126504761Y-80714285D01*
X126552380Y-80619047D01*
X126552380Y-80428571D01*
X126504761Y-80333333D01*
X126457142Y-80285714D01*
X126361904Y-80238095D01*
X126171428Y-80238095D01*
X126076190Y-80285714D01*
X126028571Y-80333333D01*
X125980952Y-80428571D01*
X125647619Y-79380952D02*
X125600000Y-79333333D01*
X125552380Y-79238095D01*
X125552380Y-79000000D01*
X125600000Y-78904761D01*
X125647619Y-78857142D01*
X125742857Y-78809523D01*
X125838095Y-78809523D01*
X125980952Y-78857142D01*
X126552380Y-79428571D01*
X126552380Y-78809523D01*
X126457142Y-78380952D02*
X126504761Y-78333333D01*
X126552380Y-78380952D01*
X126504761Y-78428571D01*
X126457142Y-78380952D01*
X126552380Y-78380952D01*
X125647619Y-77952380D02*
X125600000Y-77904761D01*
X125552380Y-77809523D01*
X125552380Y-77571428D01*
X125600000Y-77476190D01*
X125647619Y-77428571D01*
X125742857Y-77380952D01*
X125838095Y-77380952D01*
X125980952Y-77428571D01*
X126552380Y-78000000D01*
X126552380Y-77380952D01*
X125885714Y-76952380D02*
X126552380Y-76952380D01*
X125980952Y-76952380D02*
X125933333Y-76904761D01*
X125885714Y-76809523D01*
X125885714Y-76666666D01*
X125933333Y-76571428D01*
X126028571Y-76523809D01*
X126552380Y-76523809D01*
X126028571Y-75714285D02*
X126028571Y-76047619D01*
X126552380Y-76047619D02*
X125552380Y-76047619D01*
X125552380Y-75571428D01*
X108857142Y-82142857D02*
X108904761Y-82190476D01*
X108952380Y-82333333D01*
X108952380Y-82428571D01*
X108904761Y-82571428D01*
X108809523Y-82666666D01*
X108714285Y-82714285D01*
X108523809Y-82761904D01*
X108380952Y-82761904D01*
X108190476Y-82714285D01*
X108095238Y-82666666D01*
X108000000Y-82571428D01*
X107952380Y-82428571D01*
X107952380Y-82333333D01*
X108000000Y-82190476D01*
X108047619Y-82142857D01*
X108047619Y-81761904D02*
X108000000Y-81714285D01*
X107952380Y-81619047D01*
X107952380Y-81380952D01*
X108000000Y-81285714D01*
X108047619Y-81238095D01*
X108142857Y-81190476D01*
X108238095Y-81190476D01*
X108380952Y-81238095D01*
X108952380Y-81809523D01*
X108952380Y-81190476D01*
X108952380Y-80714285D02*
X108952380Y-80523809D01*
X108904761Y-80428571D01*
X108857142Y-80380952D01*
X108714285Y-80285714D01*
X108523809Y-80238095D01*
X108142857Y-80238095D01*
X108047619Y-80285714D01*
X108000000Y-80333333D01*
X107952380Y-80428571D01*
X107952380Y-80619047D01*
X108000000Y-80714285D01*
X108047619Y-80761904D01*
X108142857Y-80809523D01*
X108380952Y-80809523D01*
X108476190Y-80761904D01*
X108523809Y-80714285D01*
X108571428Y-80619047D01*
X108571428Y-80428571D01*
X108523809Y-80333333D01*
X108476190Y-80285714D01*
X108380952Y-80238095D01*
X107947619Y-79580952D02*
X107900000Y-79533333D01*
X107852380Y-79438095D01*
X107852380Y-79200000D01*
X107900000Y-79104761D01*
X107947619Y-79057142D01*
X108042857Y-79009523D01*
X108138095Y-79009523D01*
X108280952Y-79057142D01*
X108852380Y-79628571D01*
X108852380Y-79009523D01*
X108757142Y-78580952D02*
X108804761Y-78533333D01*
X108852380Y-78580952D01*
X108804761Y-78628571D01*
X108757142Y-78580952D01*
X108852380Y-78580952D01*
X107947619Y-78152380D02*
X107900000Y-78104761D01*
X107852380Y-78009523D01*
X107852380Y-77771428D01*
X107900000Y-77676190D01*
X107947619Y-77628571D01*
X108042857Y-77580952D01*
X108138095Y-77580952D01*
X108280952Y-77628571D01*
X108852380Y-78200000D01*
X108852380Y-77580952D01*
X108185714Y-77152380D02*
X108852380Y-77152380D01*
X108280952Y-77152380D02*
X108233333Y-77104761D01*
X108185714Y-77009523D01*
X108185714Y-76866666D01*
X108233333Y-76771428D01*
X108328571Y-76723809D01*
X108852380Y-76723809D01*
X108328571Y-75914285D02*
X108328571Y-76247619D01*
X108852380Y-76247619D02*
X107852380Y-76247619D01*
X107852380Y-75771428D01*
X109057142Y-99842857D02*
X109104761Y-99890476D01*
X109152380Y-100033333D01*
X109152380Y-100128571D01*
X109104761Y-100271428D01*
X109009523Y-100366666D01*
X108914285Y-100414285D01*
X108723809Y-100461904D01*
X108580952Y-100461904D01*
X108390476Y-100414285D01*
X108295238Y-100366666D01*
X108200000Y-100271428D01*
X108152380Y-100128571D01*
X108152380Y-100033333D01*
X108200000Y-99890476D01*
X108247619Y-99842857D01*
X108152380Y-99509523D02*
X108152380Y-98890476D01*
X108533333Y-99223809D01*
X108533333Y-99080952D01*
X108580952Y-98985714D01*
X108628571Y-98938095D01*
X108723809Y-98890476D01*
X108961904Y-98890476D01*
X109057142Y-98938095D01*
X109104761Y-98985714D01*
X109152380Y-99080952D01*
X109152380Y-99366666D01*
X109104761Y-99461904D01*
X109057142Y-99509523D01*
X108152380Y-98271428D02*
X108152380Y-98176190D01*
X108200000Y-98080952D01*
X108247619Y-98033333D01*
X108342857Y-97985714D01*
X108533333Y-97938095D01*
X108771428Y-97938095D01*
X108961904Y-97985714D01*
X109057142Y-98033333D01*
X109104761Y-98080952D01*
X109152380Y-98176190D01*
X109152380Y-98271428D01*
X109104761Y-98366666D01*
X109057142Y-98414285D01*
X108961904Y-98461904D01*
X108771428Y-98509523D01*
X108533333Y-98509523D01*
X108342857Y-98461904D01*
X108247619Y-98414285D01*
X108200000Y-98366666D01*
X108152380Y-98271428D01*
X109152380Y-104209523D02*
X109152380Y-104780952D01*
X109152380Y-104495238D02*
X108152380Y-104495238D01*
X108295238Y-104590476D01*
X108390476Y-104685714D01*
X108438095Y-104780952D01*
X109057142Y-103780952D02*
X109104761Y-103733333D01*
X109152380Y-103780952D01*
X109104761Y-103828571D01*
X109057142Y-103780952D01*
X109152380Y-103780952D01*
X108152380Y-102828571D02*
X108152380Y-103304761D01*
X108628571Y-103352380D01*
X108580952Y-103304761D01*
X108533333Y-103209523D01*
X108533333Y-102971428D01*
X108580952Y-102876190D01*
X108628571Y-102828571D01*
X108723809Y-102780952D01*
X108961904Y-102780952D01*
X109057142Y-102828571D01*
X109104761Y-102876190D01*
X109152380Y-102971428D01*
X109152380Y-103209523D01*
X109104761Y-103304761D01*
X109057142Y-103352380D01*
X108485714Y-102352380D02*
X109152380Y-102352380D01*
X108580952Y-102352380D02*
X108533333Y-102304761D01*
X108485714Y-102209523D01*
X108485714Y-102066666D01*
X108533333Y-101971428D01*
X108628571Y-101923809D01*
X109152380Y-101923809D01*
X108628571Y-101114285D02*
X108628571Y-101447619D01*
X109152380Y-101447619D02*
X108152380Y-101447619D01*
X108152380Y-100971428D01*
X148457142Y-149542857D02*
X148504761Y-149590476D01*
X148552380Y-149733333D01*
X148552380Y-149828571D01*
X148504761Y-149971428D01*
X148409523Y-150066666D01*
X148314285Y-150114285D01*
X148123809Y-150161904D01*
X147980952Y-150161904D01*
X147790476Y-150114285D01*
X147695238Y-150066666D01*
X147600000Y-149971428D01*
X147552380Y-149828571D01*
X147552380Y-149733333D01*
X147600000Y-149590476D01*
X147647619Y-149542857D01*
X147552380Y-149209523D02*
X147552380Y-148590476D01*
X147933333Y-148923809D01*
X147933333Y-148780952D01*
X147980952Y-148685714D01*
X148028571Y-148638095D01*
X148123809Y-148590476D01*
X148361904Y-148590476D01*
X148457142Y-148638095D01*
X148504761Y-148685714D01*
X148552380Y-148780952D01*
X148552380Y-149066666D01*
X148504761Y-149161904D01*
X148457142Y-149209523D01*
X148552380Y-147638095D02*
X148552380Y-148209523D01*
X148552380Y-147923809D02*
X147552380Y-147923809D01*
X147695238Y-148019047D01*
X147790476Y-148114285D01*
X147838095Y-148209523D01*
X150947619Y-151280952D02*
X150900000Y-151233333D01*
X150852380Y-151138095D01*
X150852380Y-150900000D01*
X150900000Y-150804761D01*
X150947619Y-150757142D01*
X151042857Y-150709523D01*
X151138095Y-150709523D01*
X151280952Y-150757142D01*
X151852380Y-151328571D01*
X151852380Y-150709523D01*
X151757142Y-150280952D02*
X151804761Y-150233333D01*
X151852380Y-150280952D01*
X151804761Y-150328571D01*
X151757142Y-150280952D01*
X151852380Y-150280952D01*
X150947619Y-149852380D02*
X150900000Y-149804761D01*
X150852380Y-149709523D01*
X150852380Y-149471428D01*
X150900000Y-149376190D01*
X150947619Y-149328571D01*
X151042857Y-149280952D01*
X151138095Y-149280952D01*
X151280952Y-149328571D01*
X151852380Y-149900000D01*
X151852380Y-149280952D01*
X151185714Y-148423809D02*
X151852380Y-148423809D01*
X151185714Y-148852380D02*
X151709523Y-148852380D01*
X151804761Y-148804761D01*
X151852380Y-148709523D01*
X151852380Y-148566666D01*
X151804761Y-148471428D01*
X151757142Y-148423809D01*
X151328571Y-147614285D02*
X151328571Y-147947619D01*
X151852380Y-147947619D02*
X150852380Y-147947619D01*
X150852380Y-147471428D01*
X156657142Y-145742857D02*
X156704761Y-145790476D01*
X156752380Y-145933333D01*
X156752380Y-146028571D01*
X156704761Y-146171428D01*
X156609523Y-146266666D01*
X156514285Y-146314285D01*
X156323809Y-146361904D01*
X156180952Y-146361904D01*
X155990476Y-146314285D01*
X155895238Y-146266666D01*
X155800000Y-146171428D01*
X155752380Y-146028571D01*
X155752380Y-145933333D01*
X155800000Y-145790476D01*
X155847619Y-145742857D01*
X155752380Y-145409523D02*
X155752380Y-144790476D01*
X156133333Y-145123809D01*
X156133333Y-144980952D01*
X156180952Y-144885714D01*
X156228571Y-144838095D01*
X156323809Y-144790476D01*
X156561904Y-144790476D01*
X156657142Y-144838095D01*
X156704761Y-144885714D01*
X156752380Y-144980952D01*
X156752380Y-145266666D01*
X156704761Y-145361904D01*
X156657142Y-145409523D01*
X155847619Y-144409523D02*
X155800000Y-144361904D01*
X155752380Y-144266666D01*
X155752380Y-144028571D01*
X155800000Y-143933333D01*
X155847619Y-143885714D01*
X155942857Y-143838095D01*
X156038095Y-143838095D01*
X156180952Y-143885714D01*
X156752380Y-144457142D01*
X156752380Y-143838095D01*
X158352380Y-145695238D02*
X158352380Y-146266666D01*
X158352380Y-145980952D02*
X157352380Y-145980952D01*
X157495238Y-146076190D01*
X157590476Y-146171428D01*
X157638095Y-146266666D01*
X157685714Y-145266666D02*
X158352380Y-145266666D01*
X157780952Y-145266666D02*
X157733333Y-145219047D01*
X157685714Y-145123809D01*
X157685714Y-144980952D01*
X157733333Y-144885714D01*
X157828571Y-144838095D01*
X158352380Y-144838095D01*
X157828571Y-144028571D02*
X157828571Y-144361904D01*
X158352380Y-144361904D02*
X157352380Y-144361904D01*
X157352380Y-143885714D01*
X152957142Y-146442857D02*
X153004761Y-146490476D01*
X153052380Y-146633333D01*
X153052380Y-146728571D01*
X153004761Y-146871428D01*
X152909523Y-146966666D01*
X152814285Y-147014285D01*
X152623809Y-147061904D01*
X152480952Y-147061904D01*
X152290476Y-147014285D01*
X152195238Y-146966666D01*
X152100000Y-146871428D01*
X152052380Y-146728571D01*
X152052380Y-146633333D01*
X152100000Y-146490476D01*
X152147619Y-146442857D01*
X152052380Y-146109523D02*
X152052380Y-145490476D01*
X152433333Y-145823809D01*
X152433333Y-145680952D01*
X152480952Y-145585714D01*
X152528571Y-145538095D01*
X152623809Y-145490476D01*
X152861904Y-145490476D01*
X152957142Y-145538095D01*
X153004761Y-145585714D01*
X153052380Y-145680952D01*
X153052380Y-145966666D01*
X153004761Y-146061904D01*
X152957142Y-146109523D01*
X152052380Y-145157142D02*
X152052380Y-144538095D01*
X152433333Y-144871428D01*
X152433333Y-144728571D01*
X152480952Y-144633333D01*
X152528571Y-144585714D01*
X152623809Y-144538095D01*
X152861904Y-144538095D01*
X152957142Y-144585714D01*
X153004761Y-144633333D01*
X153052380Y-144728571D01*
X153052380Y-145014285D01*
X153004761Y-145109523D01*
X152957142Y-145157142D01*
X150857142Y-131642857D02*
X150904761Y-131690476D01*
X150952380Y-131833333D01*
X150952380Y-131928571D01*
X150904761Y-132071428D01*
X150809523Y-132166666D01*
X150714285Y-132214285D01*
X150523809Y-132261904D01*
X150380952Y-132261904D01*
X150190476Y-132214285D01*
X150095238Y-132166666D01*
X150000000Y-132071428D01*
X149952380Y-131928571D01*
X149952380Y-131833333D01*
X150000000Y-131690476D01*
X150047619Y-131642857D01*
X149952380Y-131309523D02*
X149952380Y-130690476D01*
X150333333Y-131023809D01*
X150333333Y-130880952D01*
X150380952Y-130785714D01*
X150428571Y-130738095D01*
X150523809Y-130690476D01*
X150761904Y-130690476D01*
X150857142Y-130738095D01*
X150904761Y-130785714D01*
X150952380Y-130880952D01*
X150952380Y-131166666D01*
X150904761Y-131261904D01*
X150857142Y-131309523D01*
X150285714Y-129833333D02*
X150952380Y-129833333D01*
X149904761Y-130071428D02*
X150619047Y-130309523D01*
X150619047Y-129690476D01*
X150952380Y-128347619D02*
X150952380Y-128919047D01*
X150952380Y-128633333D02*
X149952380Y-128633333D01*
X150095238Y-128728571D01*
X150190476Y-128823809D01*
X150238095Y-128919047D01*
X149952380Y-127728571D02*
X149952380Y-127633333D01*
X150000000Y-127538095D01*
X150047619Y-127490476D01*
X150142857Y-127442857D01*
X150333333Y-127395238D01*
X150571428Y-127395238D01*
X150761904Y-127442857D01*
X150857142Y-127490476D01*
X150904761Y-127538095D01*
X150952380Y-127633333D01*
X150952380Y-127728571D01*
X150904761Y-127823809D01*
X150857142Y-127871428D01*
X150761904Y-127919047D01*
X150571428Y-127966666D01*
X150333333Y-127966666D01*
X150142857Y-127919047D01*
X150047619Y-127871428D01*
X150000000Y-127823809D01*
X149952380Y-127728571D01*
X149952380Y-126776190D02*
X149952380Y-126680952D01*
X150000000Y-126585714D01*
X150047619Y-126538095D01*
X150142857Y-126490476D01*
X150333333Y-126442857D01*
X150571428Y-126442857D01*
X150761904Y-126490476D01*
X150857142Y-126538095D01*
X150904761Y-126585714D01*
X150952380Y-126680952D01*
X150952380Y-126776190D01*
X150904761Y-126871428D01*
X150857142Y-126919047D01*
X150761904Y-126966666D01*
X150571428Y-127014285D01*
X150333333Y-127014285D01*
X150142857Y-126966666D01*
X150047619Y-126919047D01*
X150000000Y-126871428D01*
X149952380Y-126776190D01*
X150285714Y-126014285D02*
X151285714Y-126014285D01*
X150333333Y-126014285D02*
X150285714Y-125919047D01*
X150285714Y-125728571D01*
X150333333Y-125633333D01*
X150380952Y-125585714D01*
X150476190Y-125538095D01*
X150761904Y-125538095D01*
X150857142Y-125585714D01*
X150904761Y-125633333D01*
X150952380Y-125728571D01*
X150952380Y-125919047D01*
X150904761Y-126014285D01*
X150428571Y-124776190D02*
X150428571Y-125109523D01*
X150952380Y-125109523D02*
X149952380Y-125109523D01*
X149952380Y-124633333D01*
X137157142Y-63557142D02*
X137109523Y-63604761D01*
X136966666Y-63652380D01*
X136871428Y-63652380D01*
X136728571Y-63604761D01*
X136633333Y-63509523D01*
X136585714Y-63414285D01*
X136538095Y-63223809D01*
X136538095Y-63080952D01*
X136585714Y-62890476D01*
X136633333Y-62795238D01*
X136728571Y-62700000D01*
X136871428Y-62652380D01*
X136966666Y-62652380D01*
X137109523Y-62700000D01*
X137157142Y-62747619D01*
X137490476Y-62652380D02*
X138109523Y-62652380D01*
X137776190Y-63033333D01*
X137919047Y-63033333D01*
X138014285Y-63080952D01*
X138061904Y-63128571D01*
X138109523Y-63223809D01*
X138109523Y-63461904D01*
X138061904Y-63557142D01*
X138014285Y-63604761D01*
X137919047Y-63652380D01*
X137633333Y-63652380D01*
X137538095Y-63604761D01*
X137490476Y-63557142D01*
X138966666Y-62652380D02*
X138776190Y-62652380D01*
X138680952Y-62700000D01*
X138633333Y-62747619D01*
X138538095Y-62890476D01*
X138490476Y-63080952D01*
X138490476Y-63461904D01*
X138538095Y-63557142D01*
X138585714Y-63604761D01*
X138680952Y-63652380D01*
X138871428Y-63652380D01*
X138966666Y-63604761D01*
X139014285Y-63557142D01*
X139061904Y-63461904D01*
X139061904Y-63223809D01*
X139014285Y-63128571D01*
X138966666Y-63080952D01*
X138871428Y-63033333D01*
X138680952Y-63033333D01*
X138585714Y-63080952D01*
X138538095Y-63128571D01*
X138490476Y-63223809D01*
X136728571Y-65052380D02*
X136157142Y-65052380D01*
X136442857Y-65052380D02*
X136442857Y-64052380D01*
X136347619Y-64195238D01*
X136252380Y-64290476D01*
X136157142Y-64338095D01*
X137347619Y-64052380D02*
X137442857Y-64052380D01*
X137538095Y-64100000D01*
X137585714Y-64147619D01*
X137633333Y-64242857D01*
X137680952Y-64433333D01*
X137680952Y-64671428D01*
X137633333Y-64861904D01*
X137585714Y-64957142D01*
X137538095Y-65004761D01*
X137442857Y-65052380D01*
X137347619Y-65052380D01*
X137252380Y-65004761D01*
X137204761Y-64957142D01*
X137157142Y-64861904D01*
X137109523Y-64671428D01*
X137109523Y-64433333D01*
X137157142Y-64242857D01*
X137204761Y-64147619D01*
X137252380Y-64100000D01*
X137347619Y-64052380D01*
X138538095Y-64385714D02*
X138538095Y-65052380D01*
X138109523Y-64385714D02*
X138109523Y-64909523D01*
X138157142Y-65004761D01*
X138252380Y-65052380D01*
X138395238Y-65052380D01*
X138490476Y-65004761D01*
X138538095Y-64957142D01*
X139347619Y-64528571D02*
X139014285Y-64528571D01*
X139014285Y-65052380D02*
X139014285Y-64052380D01*
X139490476Y-64052380D01*
X136471428Y-66460952D02*
X136471428Y-65699047D01*
X136852380Y-66080000D02*
X136090476Y-66080000D01*
X125357142Y-145957142D02*
X125309523Y-146004761D01*
X125166666Y-146052380D01*
X125071428Y-146052380D01*
X124928571Y-146004761D01*
X124833333Y-145909523D01*
X124785714Y-145814285D01*
X124738095Y-145623809D01*
X124738095Y-145480952D01*
X124785714Y-145290476D01*
X124833333Y-145195238D01*
X124928571Y-145100000D01*
X125071428Y-145052380D01*
X125166666Y-145052380D01*
X125309523Y-145100000D01*
X125357142Y-145147619D01*
X125690476Y-145052380D02*
X126309523Y-145052380D01*
X125976190Y-145433333D01*
X126119047Y-145433333D01*
X126214285Y-145480952D01*
X126261904Y-145528571D01*
X126309523Y-145623809D01*
X126309523Y-145861904D01*
X126261904Y-145957142D01*
X126214285Y-146004761D01*
X126119047Y-146052380D01*
X125833333Y-146052380D01*
X125738095Y-146004761D01*
X125690476Y-145957142D01*
X126642857Y-145052380D02*
X127309523Y-145052380D01*
X126880952Y-146052380D01*
X125128571Y-153352380D02*
X124557142Y-153352380D01*
X124842857Y-153352380D02*
X124842857Y-152352380D01*
X124747619Y-152495238D01*
X124652380Y-152590476D01*
X124557142Y-152638095D01*
X125747619Y-152352380D02*
X125842857Y-152352380D01*
X125938095Y-152400000D01*
X125985714Y-152447619D01*
X126033333Y-152542857D01*
X126080952Y-152733333D01*
X126080952Y-152971428D01*
X126033333Y-153161904D01*
X125985714Y-153257142D01*
X125938095Y-153304761D01*
X125842857Y-153352380D01*
X125747619Y-153352380D01*
X125652380Y-153304761D01*
X125604761Y-153257142D01*
X125557142Y-153161904D01*
X125509523Y-152971428D01*
X125509523Y-152733333D01*
X125557142Y-152542857D01*
X125604761Y-152447619D01*
X125652380Y-152400000D01*
X125747619Y-152352380D01*
X126938095Y-152685714D02*
X126938095Y-153352380D01*
X126509523Y-152685714D02*
X126509523Y-153209523D01*
X126557142Y-153304761D01*
X126652380Y-153352380D01*
X126795238Y-153352380D01*
X126890476Y-153304761D01*
X126938095Y-153257142D01*
X127747619Y-152828571D02*
X127414285Y-152828571D01*
X127414285Y-153352380D02*
X127414285Y-152352380D01*
X127890476Y-152352380D01*
X127371428Y-151800952D02*
X127371428Y-151039047D01*
X127752380Y-151420000D02*
X126990476Y-151420000D01*
X155557142Y-54657142D02*
X155509523Y-54704761D01*
X155366666Y-54752380D01*
X155271428Y-54752380D01*
X155128571Y-54704761D01*
X155033333Y-54609523D01*
X154985714Y-54514285D01*
X154938095Y-54323809D01*
X154938095Y-54180952D01*
X154985714Y-53990476D01*
X155033333Y-53895238D01*
X155128571Y-53800000D01*
X155271428Y-53752380D01*
X155366666Y-53752380D01*
X155509523Y-53800000D01*
X155557142Y-53847619D01*
X155890476Y-53752380D02*
X156509523Y-53752380D01*
X156176190Y-54133333D01*
X156319047Y-54133333D01*
X156414285Y-54180952D01*
X156461904Y-54228571D01*
X156509523Y-54323809D01*
X156509523Y-54561904D01*
X156461904Y-54657142D01*
X156414285Y-54704761D01*
X156319047Y-54752380D01*
X156033333Y-54752380D01*
X155938095Y-54704761D01*
X155890476Y-54657142D01*
X156985714Y-54752380D02*
X157176190Y-54752380D01*
X157271428Y-54704761D01*
X157319047Y-54657142D01*
X157414285Y-54514285D01*
X157461904Y-54323809D01*
X157461904Y-53942857D01*
X157414285Y-53847619D01*
X157366666Y-53800000D01*
X157271428Y-53752380D01*
X157080952Y-53752380D01*
X156985714Y-53800000D01*
X156938095Y-53847619D01*
X156890476Y-53942857D01*
X156890476Y-54180952D01*
X156938095Y-54276190D01*
X156985714Y-54323809D01*
X157080952Y-54371428D01*
X157271428Y-54371428D01*
X157366666Y-54323809D01*
X157414285Y-54276190D01*
X157461904Y-54180952D01*
X150857142Y-53847619D02*
X150904761Y-53800000D01*
X151000000Y-53752380D01*
X151238095Y-53752380D01*
X151333333Y-53800000D01*
X151380952Y-53847619D01*
X151428571Y-53942857D01*
X151428571Y-54038095D01*
X151380952Y-54180952D01*
X150809523Y-54752380D01*
X151428571Y-54752380D01*
X151809523Y-53847619D02*
X151857142Y-53800000D01*
X151952380Y-53752380D01*
X152190476Y-53752380D01*
X152285714Y-53800000D01*
X152333333Y-53847619D01*
X152380952Y-53942857D01*
X152380952Y-54038095D01*
X152333333Y-54180952D01*
X151761904Y-54752380D01*
X152380952Y-54752380D01*
X153238095Y-54085714D02*
X153238095Y-54752380D01*
X152809523Y-54085714D02*
X152809523Y-54609523D01*
X152857142Y-54704761D01*
X152952380Y-54752380D01*
X153095238Y-54752380D01*
X153190476Y-54704761D01*
X153238095Y-54657142D01*
X154047619Y-54228571D02*
X153714285Y-54228571D01*
X153714285Y-54752380D02*
X153714285Y-53752380D01*
X154190476Y-53752380D01*
X156111428Y-62960952D02*
X156111428Y-62199047D01*
X156492380Y-62580000D02*
X155730476Y-62580000D01*
X156157142Y-74057142D02*
X156109523Y-74104761D01*
X155966666Y-74152380D01*
X155871428Y-74152380D01*
X155728571Y-74104761D01*
X155633333Y-74009523D01*
X155585714Y-73914285D01*
X155538095Y-73723809D01*
X155538095Y-73580952D01*
X155585714Y-73390476D01*
X155633333Y-73295238D01*
X155728571Y-73200000D01*
X155871428Y-73152380D01*
X155966666Y-73152380D01*
X156109523Y-73200000D01*
X156157142Y-73247619D01*
X157014285Y-73485714D02*
X157014285Y-74152380D01*
X156776190Y-73104761D02*
X156538095Y-73819047D01*
X157157142Y-73819047D01*
X158061904Y-74152380D02*
X157490476Y-74152380D01*
X157776190Y-74152380D02*
X157776190Y-73152380D01*
X157680952Y-73295238D01*
X157585714Y-73390476D01*
X157490476Y-73438095D01*
X152033333Y-73485714D02*
X152033333Y-74152380D01*
X151795238Y-73104761D02*
X151557142Y-73819047D01*
X152176190Y-73819047D01*
X152461904Y-73152380D02*
X153128571Y-73152380D01*
X152700000Y-74152380D01*
X153938095Y-73485714D02*
X153938095Y-74152380D01*
X153509523Y-73485714D02*
X153509523Y-74009523D01*
X153557142Y-74104761D01*
X153652380Y-74152380D01*
X153795238Y-74152380D01*
X153890476Y-74104761D01*
X153938095Y-74057142D01*
X154747619Y-73628571D02*
X154414285Y-73628571D01*
X154414285Y-74152380D02*
X154414285Y-73152380D01*
X154890476Y-73152380D01*
X156711428Y-72260952D02*
X156711428Y-71499047D01*
X157092380Y-71880000D02*
X156330476Y-71880000D01*
X111657142Y-145757142D02*
X111609523Y-145804761D01*
X111466666Y-145852380D01*
X111371428Y-145852380D01*
X111228571Y-145804761D01*
X111133333Y-145709523D01*
X111085714Y-145614285D01*
X111038095Y-145423809D01*
X111038095Y-145280952D01*
X111085714Y-145090476D01*
X111133333Y-144995238D01*
X111228571Y-144900000D01*
X111371428Y-144852380D01*
X111466666Y-144852380D01*
X111609523Y-144900000D01*
X111657142Y-144947619D01*
X112514285Y-145185714D02*
X112514285Y-145852380D01*
X112276190Y-144804761D02*
X112038095Y-145519047D01*
X112657142Y-145519047D01*
X112990476Y-144947619D02*
X113038095Y-144900000D01*
X113133333Y-144852380D01*
X113371428Y-144852380D01*
X113466666Y-144900000D01*
X113514285Y-144947619D01*
X113561904Y-145042857D01*
X113561904Y-145138095D01*
X113514285Y-145280952D01*
X112942857Y-145852380D01*
X113561904Y-145852380D01*
X111228571Y-153252380D02*
X110657142Y-153252380D01*
X110942857Y-153252380D02*
X110942857Y-152252380D01*
X110847619Y-152395238D01*
X110752380Y-152490476D01*
X110657142Y-152538095D01*
X111847619Y-152252380D02*
X111942857Y-152252380D01*
X112038095Y-152300000D01*
X112085714Y-152347619D01*
X112133333Y-152442857D01*
X112180952Y-152633333D01*
X112180952Y-152871428D01*
X112133333Y-153061904D01*
X112085714Y-153157142D01*
X112038095Y-153204761D01*
X111942857Y-153252380D01*
X111847619Y-153252380D01*
X111752380Y-153204761D01*
X111704761Y-153157142D01*
X111657142Y-153061904D01*
X111609523Y-152871428D01*
X111609523Y-152633333D01*
X111657142Y-152442857D01*
X111704761Y-152347619D01*
X111752380Y-152300000D01*
X111847619Y-152252380D01*
X113038095Y-152585714D02*
X113038095Y-153252380D01*
X112609523Y-152585714D02*
X112609523Y-153109523D01*
X112657142Y-153204761D01*
X112752380Y-153252380D01*
X112895238Y-153252380D01*
X112990476Y-153204761D01*
X113038095Y-153157142D01*
X113847619Y-152728571D02*
X113514285Y-152728571D01*
X113514285Y-153252380D02*
X113514285Y-152252380D01*
X113990476Y-152252380D01*
X113771428Y-151600952D02*
X113771428Y-150839047D01*
X114152380Y-151220000D02*
X113390476Y-151220000D01*
X130957142Y-149457142D02*
X130909523Y-149504761D01*
X130766666Y-149552380D01*
X130671428Y-149552380D01*
X130528571Y-149504761D01*
X130433333Y-149409523D01*
X130385714Y-149314285D01*
X130338095Y-149123809D01*
X130338095Y-148980952D01*
X130385714Y-148790476D01*
X130433333Y-148695238D01*
X130528571Y-148600000D01*
X130671428Y-148552380D01*
X130766666Y-148552380D01*
X130909523Y-148600000D01*
X130957142Y-148647619D01*
X131814285Y-148885714D02*
X131814285Y-149552380D01*
X131576190Y-148504761D02*
X131338095Y-149219047D01*
X131957142Y-149219047D01*
X132242857Y-148552380D02*
X132861904Y-148552380D01*
X132528571Y-148933333D01*
X132671428Y-148933333D01*
X132766666Y-148980952D01*
X132814285Y-149028571D01*
X132861904Y-149123809D01*
X132861904Y-149361904D01*
X132814285Y-149457142D01*
X132766666Y-149504761D01*
X132671428Y-149552380D01*
X132385714Y-149552380D01*
X132290476Y-149504761D01*
X132242857Y-149457142D01*
X138428571Y-150152380D02*
X137857142Y-150152380D01*
X138142857Y-150152380D02*
X138142857Y-149152380D01*
X138047619Y-149295238D01*
X137952380Y-149390476D01*
X137857142Y-149438095D01*
X139047619Y-149152380D02*
X139142857Y-149152380D01*
X139238095Y-149200000D01*
X139285714Y-149247619D01*
X139333333Y-149342857D01*
X139380952Y-149533333D01*
X139380952Y-149771428D01*
X139333333Y-149961904D01*
X139285714Y-150057142D01*
X139238095Y-150104761D01*
X139142857Y-150152380D01*
X139047619Y-150152380D01*
X138952380Y-150104761D01*
X138904761Y-150057142D01*
X138857142Y-149961904D01*
X138809523Y-149771428D01*
X138809523Y-149533333D01*
X138857142Y-149342857D01*
X138904761Y-149247619D01*
X138952380Y-149200000D01*
X139047619Y-149152380D01*
X140238095Y-149485714D02*
X140238095Y-150152380D01*
X139809523Y-149485714D02*
X139809523Y-150009523D01*
X139857142Y-150104761D01*
X139952380Y-150152380D01*
X140095238Y-150152380D01*
X140190476Y-150104761D01*
X140238095Y-150057142D01*
X141047619Y-149628571D02*
X140714285Y-149628571D01*
X140714285Y-150152380D02*
X140714285Y-149152380D01*
X141190476Y-149152380D01*
X112652380Y-128038095D02*
X111652380Y-128038095D01*
X111652380Y-127800000D01*
X111700000Y-127657142D01*
X111795238Y-127561904D01*
X111890476Y-127514285D01*
X112080952Y-127466666D01*
X112223809Y-127466666D01*
X112414285Y-127514285D01*
X112509523Y-127561904D01*
X112604761Y-127657142D01*
X112652380Y-127800000D01*
X112652380Y-128038095D01*
X112652380Y-126514285D02*
X112652380Y-127085714D01*
X112652380Y-126800000D02*
X111652380Y-126800000D01*
X111795238Y-126895238D01*
X111890476Y-126990476D01*
X111938095Y-127085714D01*
X139352380Y-76266666D02*
X139352380Y-76742857D01*
X138352380Y-76742857D01*
X139352380Y-75409523D02*
X139352380Y-75980952D01*
X139352380Y-75695238D02*
X138352380Y-75695238D01*
X138495238Y-75790476D01*
X138590476Y-75885714D01*
X138638095Y-75980952D01*
X106133333Y-133252380D02*
X105800000Y-132776190D01*
X105561904Y-133252380D02*
X105561904Y-132252380D01*
X105942857Y-132252380D01*
X106038095Y-132300000D01*
X106085714Y-132347619D01*
X106133333Y-132442857D01*
X106133333Y-132585714D01*
X106085714Y-132680952D01*
X106038095Y-132728571D01*
X105942857Y-132776190D01*
X105561904Y-132776190D01*
X107085714Y-133252380D02*
X106514285Y-133252380D01*
X106800000Y-133252380D02*
X106800000Y-132252380D01*
X106704761Y-132395238D01*
X106609523Y-132490476D01*
X106514285Y-132538095D01*
X101833333Y-133152380D02*
X101261904Y-133152380D01*
X101547619Y-133152380D02*
X101547619Y-132152380D01*
X101452380Y-132295238D01*
X101357142Y-132390476D01*
X101261904Y-132438095D01*
X102452380Y-132152380D02*
X102547619Y-132152380D01*
X102642857Y-132200000D01*
X102690476Y-132247619D01*
X102738095Y-132342857D01*
X102785714Y-132533333D01*
X102785714Y-132771428D01*
X102738095Y-132961904D01*
X102690476Y-133057142D01*
X102642857Y-133104761D01*
X102547619Y-133152380D01*
X102452380Y-133152380D01*
X102357142Y-133104761D01*
X102309523Y-133057142D01*
X102261904Y-132961904D01*
X102214285Y-132771428D01*
X102214285Y-132533333D01*
X102261904Y-132342857D01*
X102309523Y-132247619D01*
X102357142Y-132200000D01*
X102452380Y-132152380D01*
X103404761Y-132152380D02*
X103500000Y-132152380D01*
X103595238Y-132200000D01*
X103642857Y-132247619D01*
X103690476Y-132342857D01*
X103738095Y-132533333D01*
X103738095Y-132771428D01*
X103690476Y-132961904D01*
X103642857Y-133057142D01*
X103595238Y-133104761D01*
X103500000Y-133152380D01*
X103404761Y-133152380D01*
X103309523Y-133104761D01*
X103261904Y-133057142D01*
X103214285Y-132961904D01*
X103166666Y-132771428D01*
X103166666Y-132533333D01*
X103214285Y-132342857D01*
X103261904Y-132247619D01*
X103309523Y-132200000D01*
X103404761Y-132152380D01*
X130652380Y-95566666D02*
X130176190Y-95900000D01*
X130652380Y-96138095D02*
X129652380Y-96138095D01*
X129652380Y-95757142D01*
X129700000Y-95661904D01*
X129747619Y-95614285D01*
X129842857Y-95566666D01*
X129985714Y-95566666D01*
X130080952Y-95614285D01*
X130128571Y-95661904D01*
X130176190Y-95757142D01*
X130176190Y-96138095D01*
X129747619Y-95185714D02*
X129700000Y-95138095D01*
X129652380Y-95042857D01*
X129652380Y-94804761D01*
X129700000Y-94709523D01*
X129747619Y-94661904D01*
X129842857Y-94614285D01*
X129938095Y-94614285D01*
X130080952Y-94661904D01*
X130652380Y-95233333D01*
X130652380Y-94614285D01*
X128380952Y-100576190D02*
X128333333Y-100671428D01*
X128285714Y-100719047D01*
X128190476Y-100766666D01*
X128142857Y-100766666D01*
X128047619Y-100719047D01*
X128000000Y-100671428D01*
X127952380Y-100576190D01*
X127952380Y-100385714D01*
X128000000Y-100290476D01*
X128047619Y-100242857D01*
X128142857Y-100195238D01*
X128190476Y-100195238D01*
X128285714Y-100242857D01*
X128333333Y-100290476D01*
X128380952Y-100385714D01*
X128380952Y-100576190D01*
X128428571Y-100671428D01*
X128476190Y-100719047D01*
X128571428Y-100766666D01*
X128761904Y-100766666D01*
X128857142Y-100719047D01*
X128904761Y-100671428D01*
X128952380Y-100576190D01*
X128952380Y-100385714D01*
X128904761Y-100290476D01*
X128857142Y-100242857D01*
X128761904Y-100195238D01*
X128571428Y-100195238D01*
X128476190Y-100242857D01*
X128428571Y-100290476D01*
X128380952Y-100385714D01*
X128047619Y-99814285D02*
X128000000Y-99766666D01*
X127952380Y-99671428D01*
X127952380Y-99433333D01*
X128000000Y-99338095D01*
X128047619Y-99290476D01*
X128142857Y-99242857D01*
X128238095Y-99242857D01*
X128380952Y-99290476D01*
X128952380Y-99861904D01*
X128952380Y-99242857D01*
X128952380Y-98814285D02*
X127952380Y-98814285D01*
X128571428Y-98719047D02*
X128952380Y-98433333D01*
X128285714Y-98433333D02*
X128666666Y-98814285D01*
X122533333Y-92252380D02*
X122200000Y-91776190D01*
X121961904Y-92252380D02*
X121961904Y-91252380D01*
X122342857Y-91252380D01*
X122438095Y-91300000D01*
X122485714Y-91347619D01*
X122533333Y-91442857D01*
X122533333Y-91585714D01*
X122485714Y-91680952D01*
X122438095Y-91728571D01*
X122342857Y-91776190D01*
X121961904Y-91776190D01*
X122866666Y-91252380D02*
X123485714Y-91252380D01*
X123152380Y-91633333D01*
X123295238Y-91633333D01*
X123390476Y-91680952D01*
X123438095Y-91728571D01*
X123485714Y-91823809D01*
X123485714Y-92061904D01*
X123438095Y-92157142D01*
X123390476Y-92204761D01*
X123295238Y-92252380D01*
X123009523Y-92252380D01*
X122914285Y-92204761D01*
X122866666Y-92157142D01*
X129528571Y-92252380D02*
X128957142Y-92252380D01*
X129242857Y-92252380D02*
X129242857Y-91252380D01*
X129147619Y-91395238D01*
X129052380Y-91490476D01*
X128957142Y-91538095D01*
X130147619Y-91252380D02*
X130242857Y-91252380D01*
X130338095Y-91300000D01*
X130385714Y-91347619D01*
X130433333Y-91442857D01*
X130480952Y-91633333D01*
X130480952Y-91871428D01*
X130433333Y-92061904D01*
X130385714Y-92157142D01*
X130338095Y-92204761D01*
X130242857Y-92252380D01*
X130147619Y-92252380D01*
X130052380Y-92204761D01*
X130004761Y-92157142D01*
X129957142Y-92061904D01*
X129909523Y-91871428D01*
X129909523Y-91633333D01*
X129957142Y-91442857D01*
X130004761Y-91347619D01*
X130052380Y-91300000D01*
X130147619Y-91252380D01*
X131100000Y-91252380D02*
X131195238Y-91252380D01*
X131290476Y-91300000D01*
X131338095Y-91347619D01*
X131385714Y-91442857D01*
X131433333Y-91633333D01*
X131433333Y-91871428D01*
X131385714Y-92061904D01*
X131338095Y-92157142D01*
X131290476Y-92204761D01*
X131195238Y-92252380D01*
X131100000Y-92252380D01*
X131004761Y-92204761D01*
X130957142Y-92157142D01*
X130909523Y-92061904D01*
X130861904Y-91871428D01*
X130861904Y-91633333D01*
X130909523Y-91442857D01*
X130957142Y-91347619D01*
X131004761Y-91300000D01*
X131100000Y-91252380D01*
X131861904Y-92252380D02*
X131861904Y-91252380D01*
X131957142Y-91871428D02*
X132242857Y-92252380D01*
X132242857Y-91585714D02*
X131861904Y-91966666D01*
X128752380Y-82266666D02*
X128276190Y-82600000D01*
X128752380Y-82838095D02*
X127752380Y-82838095D01*
X127752380Y-82457142D01*
X127800000Y-82361904D01*
X127847619Y-82314285D01*
X127942857Y-82266666D01*
X128085714Y-82266666D01*
X128180952Y-82314285D01*
X128228571Y-82361904D01*
X128276190Y-82457142D01*
X128276190Y-82838095D01*
X128085714Y-81409523D02*
X128752380Y-81409523D01*
X127704761Y-81647619D02*
X128419047Y-81885714D01*
X128419047Y-81266666D01*
X130502380Y-86671428D02*
X130502380Y-86480952D01*
X130454761Y-86385714D01*
X130407142Y-86338095D01*
X130264285Y-86242857D01*
X130073809Y-86195238D01*
X129692857Y-86195238D01*
X129597619Y-86242857D01*
X129550000Y-86290476D01*
X129502380Y-86385714D01*
X129502380Y-86576190D01*
X129550000Y-86671428D01*
X129597619Y-86719047D01*
X129692857Y-86766666D01*
X129930952Y-86766666D01*
X130026190Y-86719047D01*
X130073809Y-86671428D01*
X130121428Y-86576190D01*
X130121428Y-86385714D01*
X130073809Y-86290476D01*
X130026190Y-86242857D01*
X129930952Y-86195238D01*
X130502380Y-85242857D02*
X130502380Y-85814285D01*
X130502380Y-85528571D02*
X129502380Y-85528571D01*
X129645238Y-85623809D01*
X129740476Y-85719047D01*
X129788095Y-85814285D01*
X130502380Y-84814285D02*
X129502380Y-84814285D01*
X130121428Y-84719047D02*
X130502380Y-84433333D01*
X129835714Y-84433333D02*
X130216666Y-84814285D01*
X122533333Y-89852380D02*
X122200000Y-89376190D01*
X121961904Y-89852380D02*
X121961904Y-88852380D01*
X122342857Y-88852380D01*
X122438095Y-88900000D01*
X122485714Y-88947619D01*
X122533333Y-89042857D01*
X122533333Y-89185714D01*
X122485714Y-89280952D01*
X122438095Y-89328571D01*
X122342857Y-89376190D01*
X121961904Y-89376190D01*
X123438095Y-88852380D02*
X122961904Y-88852380D01*
X122914285Y-89328571D01*
X122961904Y-89280952D01*
X123057142Y-89233333D01*
X123295238Y-89233333D01*
X123390476Y-89280952D01*
X123438095Y-89328571D01*
X123485714Y-89423809D01*
X123485714Y-89661904D01*
X123438095Y-89757142D01*
X123390476Y-89804761D01*
X123295238Y-89852380D01*
X123057142Y-89852380D01*
X122961904Y-89804761D01*
X122914285Y-89757142D01*
X129528571Y-89952380D02*
X128957142Y-89952380D01*
X129242857Y-89952380D02*
X129242857Y-88952380D01*
X129147619Y-89095238D01*
X129052380Y-89190476D01*
X128957142Y-89238095D01*
X130147619Y-88952380D02*
X130242857Y-88952380D01*
X130338095Y-89000000D01*
X130385714Y-89047619D01*
X130433333Y-89142857D01*
X130480952Y-89333333D01*
X130480952Y-89571428D01*
X130433333Y-89761904D01*
X130385714Y-89857142D01*
X130338095Y-89904761D01*
X130242857Y-89952380D01*
X130147619Y-89952380D01*
X130052380Y-89904761D01*
X130004761Y-89857142D01*
X129957142Y-89761904D01*
X129909523Y-89571428D01*
X129909523Y-89333333D01*
X129957142Y-89142857D01*
X130004761Y-89047619D01*
X130052380Y-89000000D01*
X130147619Y-88952380D01*
X131100000Y-88952380D02*
X131195238Y-88952380D01*
X131290476Y-89000000D01*
X131338095Y-89047619D01*
X131385714Y-89142857D01*
X131433333Y-89333333D01*
X131433333Y-89571428D01*
X131385714Y-89761904D01*
X131338095Y-89857142D01*
X131290476Y-89904761D01*
X131195238Y-89952380D01*
X131100000Y-89952380D01*
X131004761Y-89904761D01*
X130957142Y-89857142D01*
X130909523Y-89761904D01*
X130861904Y-89571428D01*
X130861904Y-89333333D01*
X130909523Y-89142857D01*
X130957142Y-89047619D01*
X131004761Y-89000000D01*
X131100000Y-88952380D01*
X131861904Y-89952380D02*
X131861904Y-88952380D01*
X131957142Y-89571428D02*
X132242857Y-89952380D01*
X132242857Y-89285714D02*
X131861904Y-89666666D01*
X104952380Y-85666666D02*
X104476190Y-86000000D01*
X104952380Y-86238095D02*
X103952380Y-86238095D01*
X103952380Y-85857142D01*
X104000000Y-85761904D01*
X104047619Y-85714285D01*
X104142857Y-85666666D01*
X104285714Y-85666666D01*
X104380952Y-85714285D01*
X104428571Y-85761904D01*
X104476190Y-85857142D01*
X104476190Y-86238095D01*
X103952380Y-84809523D02*
X103952380Y-85000000D01*
X104000000Y-85095238D01*
X104047619Y-85142857D01*
X104190476Y-85238095D01*
X104380952Y-85285714D01*
X104761904Y-85285714D01*
X104857142Y-85238095D01*
X104904761Y-85190476D01*
X104952380Y-85095238D01*
X104952380Y-84904761D01*
X104904761Y-84809523D01*
X104857142Y-84761904D01*
X104761904Y-84714285D01*
X104523809Y-84714285D01*
X104428571Y-84761904D01*
X104380952Y-84809523D01*
X104333333Y-84904761D01*
X104333333Y-85095238D01*
X104380952Y-85190476D01*
X104428571Y-85238095D01*
X104523809Y-85285714D01*
X105852380Y-82390476D02*
X105852380Y-82580952D01*
X105900000Y-82676190D01*
X105947619Y-82723809D01*
X106090476Y-82819047D01*
X106280952Y-82866666D01*
X106661904Y-82866666D01*
X106757142Y-82819047D01*
X106804761Y-82771428D01*
X106852380Y-82676190D01*
X106852380Y-82485714D01*
X106804761Y-82390476D01*
X106757142Y-82342857D01*
X106661904Y-82295238D01*
X106423809Y-82295238D01*
X106328571Y-82342857D01*
X106280952Y-82390476D01*
X106233333Y-82485714D01*
X106233333Y-82676190D01*
X106280952Y-82771428D01*
X106328571Y-82819047D01*
X106423809Y-82866666D01*
X106280952Y-81723809D02*
X106233333Y-81819047D01*
X106185714Y-81866666D01*
X106090476Y-81914285D01*
X106042857Y-81914285D01*
X105947619Y-81866666D01*
X105900000Y-81819047D01*
X105852380Y-81723809D01*
X105852380Y-81533333D01*
X105900000Y-81438095D01*
X105947619Y-81390476D01*
X106042857Y-81342857D01*
X106090476Y-81342857D01*
X106185714Y-81390476D01*
X106233333Y-81438095D01*
X106280952Y-81533333D01*
X106280952Y-81723809D01*
X106328571Y-81819047D01*
X106376190Y-81866666D01*
X106471428Y-81914285D01*
X106661904Y-81914285D01*
X106757142Y-81866666D01*
X106804761Y-81819047D01*
X106852380Y-81723809D01*
X106852380Y-81533333D01*
X106804761Y-81438095D01*
X106757142Y-81390476D01*
X106661904Y-81342857D01*
X106471428Y-81342857D01*
X106376190Y-81390476D01*
X106328571Y-81438095D01*
X106280952Y-81533333D01*
X106852380Y-80914285D02*
X105852380Y-80914285D01*
X106471428Y-80819047D02*
X106852380Y-80533333D01*
X106185714Y-80533333D02*
X106566666Y-80914285D01*
X105152380Y-95266666D02*
X104676190Y-95600000D01*
X105152380Y-95838095D02*
X104152380Y-95838095D01*
X104152380Y-95457142D01*
X104200000Y-95361904D01*
X104247619Y-95314285D01*
X104342857Y-95266666D01*
X104485714Y-95266666D01*
X104580952Y-95314285D01*
X104628571Y-95361904D01*
X104676190Y-95457142D01*
X104676190Y-95838095D01*
X104580952Y-94695238D02*
X104533333Y-94790476D01*
X104485714Y-94838095D01*
X104390476Y-94885714D01*
X104342857Y-94885714D01*
X104247619Y-94838095D01*
X104200000Y-94790476D01*
X104152380Y-94695238D01*
X104152380Y-94504761D01*
X104200000Y-94409523D01*
X104247619Y-94361904D01*
X104342857Y-94314285D01*
X104390476Y-94314285D01*
X104485714Y-94361904D01*
X104533333Y-94409523D01*
X104580952Y-94504761D01*
X104580952Y-94695238D01*
X104628571Y-94790476D01*
X104676190Y-94838095D01*
X104771428Y-94885714D01*
X104961904Y-94885714D01*
X105057142Y-94838095D01*
X105104761Y-94790476D01*
X105152380Y-94695238D01*
X105152380Y-94504761D01*
X105104761Y-94409523D01*
X105057142Y-94361904D01*
X104961904Y-94314285D01*
X104771428Y-94314285D01*
X104676190Y-94361904D01*
X104628571Y-94409523D01*
X104580952Y-94504761D01*
X105852380Y-99890476D02*
X105852380Y-100080952D01*
X105900000Y-100176190D01*
X105947619Y-100223809D01*
X106090476Y-100319047D01*
X106280952Y-100366666D01*
X106661904Y-100366666D01*
X106757142Y-100319047D01*
X106804761Y-100271428D01*
X106852380Y-100176190D01*
X106852380Y-99985714D01*
X106804761Y-99890476D01*
X106757142Y-99842857D01*
X106661904Y-99795238D01*
X106423809Y-99795238D01*
X106328571Y-99842857D01*
X106280952Y-99890476D01*
X106233333Y-99985714D01*
X106233333Y-100176190D01*
X106280952Y-100271428D01*
X106328571Y-100319047D01*
X106423809Y-100366666D01*
X106280952Y-99223809D02*
X106233333Y-99319047D01*
X106185714Y-99366666D01*
X106090476Y-99414285D01*
X106042857Y-99414285D01*
X105947619Y-99366666D01*
X105900000Y-99319047D01*
X105852380Y-99223809D01*
X105852380Y-99033333D01*
X105900000Y-98938095D01*
X105947619Y-98890476D01*
X106042857Y-98842857D01*
X106090476Y-98842857D01*
X106185714Y-98890476D01*
X106233333Y-98938095D01*
X106280952Y-99033333D01*
X106280952Y-99223809D01*
X106328571Y-99319047D01*
X106376190Y-99366666D01*
X106471428Y-99414285D01*
X106661904Y-99414285D01*
X106757142Y-99366666D01*
X106804761Y-99319047D01*
X106852380Y-99223809D01*
X106852380Y-99033333D01*
X106804761Y-98938095D01*
X106757142Y-98890476D01*
X106661904Y-98842857D01*
X106471428Y-98842857D01*
X106376190Y-98890476D01*
X106328571Y-98938095D01*
X106280952Y-99033333D01*
X106852380Y-98414285D02*
X105852380Y-98414285D01*
X106471428Y-98319047D02*
X106852380Y-98033333D01*
X106185714Y-98033333D02*
X106566666Y-98414285D01*
X111433333Y-92052380D02*
X111100000Y-91576190D01*
X110861904Y-92052380D02*
X110861904Y-91052380D01*
X111242857Y-91052380D01*
X111338095Y-91100000D01*
X111385714Y-91147619D01*
X111433333Y-91242857D01*
X111433333Y-91385714D01*
X111385714Y-91480952D01*
X111338095Y-91528571D01*
X111242857Y-91576190D01*
X110861904Y-91576190D01*
X111909523Y-92052380D02*
X112100000Y-92052380D01*
X112195238Y-92004761D01*
X112242857Y-91957142D01*
X112338095Y-91814285D01*
X112385714Y-91623809D01*
X112385714Y-91242857D01*
X112338095Y-91147619D01*
X112290476Y-91100000D01*
X112195238Y-91052380D01*
X112004761Y-91052380D01*
X111909523Y-91100000D01*
X111861904Y-91147619D01*
X111814285Y-91242857D01*
X111814285Y-91480952D01*
X111861904Y-91576190D01*
X111909523Y-91623809D01*
X112004761Y-91671428D01*
X112195238Y-91671428D01*
X112290476Y-91623809D01*
X112338095Y-91576190D01*
X112385714Y-91480952D01*
X103228571Y-92052380D02*
X102657142Y-92052380D01*
X102942857Y-92052380D02*
X102942857Y-91052380D01*
X102847619Y-91195238D01*
X102752380Y-91290476D01*
X102657142Y-91338095D01*
X103847619Y-91052380D02*
X103942857Y-91052380D01*
X104038095Y-91100000D01*
X104085714Y-91147619D01*
X104133333Y-91242857D01*
X104180952Y-91433333D01*
X104180952Y-91671428D01*
X104133333Y-91861904D01*
X104085714Y-91957142D01*
X104038095Y-92004761D01*
X103942857Y-92052380D01*
X103847619Y-92052380D01*
X103752380Y-92004761D01*
X103704761Y-91957142D01*
X103657142Y-91861904D01*
X103609523Y-91671428D01*
X103609523Y-91433333D01*
X103657142Y-91242857D01*
X103704761Y-91147619D01*
X103752380Y-91100000D01*
X103847619Y-91052380D01*
X104800000Y-91052380D02*
X104895238Y-91052380D01*
X104990476Y-91100000D01*
X105038095Y-91147619D01*
X105085714Y-91242857D01*
X105133333Y-91433333D01*
X105133333Y-91671428D01*
X105085714Y-91861904D01*
X105038095Y-91957142D01*
X104990476Y-92004761D01*
X104895238Y-92052380D01*
X104800000Y-92052380D01*
X104704761Y-92004761D01*
X104657142Y-91957142D01*
X104609523Y-91861904D01*
X104561904Y-91671428D01*
X104561904Y-91433333D01*
X104609523Y-91242857D01*
X104657142Y-91147619D01*
X104704761Y-91100000D01*
X104800000Y-91052380D01*
X105561904Y-92052380D02*
X105561904Y-91052380D01*
X105657142Y-91671428D02*
X105942857Y-92052380D01*
X105942857Y-91385714D02*
X105561904Y-91766666D01*
X122852380Y-96042857D02*
X122376190Y-96376190D01*
X122852380Y-96614285D02*
X121852380Y-96614285D01*
X121852380Y-96233333D01*
X121900000Y-96138095D01*
X121947619Y-96090476D01*
X122042857Y-96042857D01*
X122185714Y-96042857D01*
X122280952Y-96090476D01*
X122328571Y-96138095D01*
X122376190Y-96233333D01*
X122376190Y-96614285D01*
X122852380Y-95090476D02*
X122852380Y-95661904D01*
X122852380Y-95376190D02*
X121852380Y-95376190D01*
X121995238Y-95471428D01*
X122090476Y-95566666D01*
X122138095Y-95661904D01*
X121852380Y-94471428D02*
X121852380Y-94376190D01*
X121900000Y-94280952D01*
X121947619Y-94233333D01*
X122042857Y-94185714D01*
X122233333Y-94138095D01*
X122471428Y-94138095D01*
X122661904Y-94185714D01*
X122757142Y-94233333D01*
X122804761Y-94280952D01*
X122852380Y-94376190D01*
X122852380Y-94471428D01*
X122804761Y-94566666D01*
X122757142Y-94614285D01*
X122661904Y-94661904D01*
X122471428Y-94709523D01*
X122233333Y-94709523D01*
X122042857Y-94661904D01*
X121947619Y-94614285D01*
X121900000Y-94566666D01*
X121852380Y-94471428D01*
X123985714Y-100490476D02*
X124652380Y-100490476D01*
X123604761Y-100728571D02*
X124319047Y-100966666D01*
X124319047Y-100347619D01*
X123652380Y-100061904D02*
X123652380Y-99395238D01*
X124652380Y-99823809D01*
X124652380Y-99014285D02*
X123652380Y-99014285D01*
X124271428Y-98919047D02*
X124652380Y-98633333D01*
X123985714Y-98633333D02*
X124366666Y-99014285D01*
X124452380Y-82142857D02*
X123976190Y-82476190D01*
X124452380Y-82714285D02*
X123452380Y-82714285D01*
X123452380Y-82333333D01*
X123500000Y-82238095D01*
X123547619Y-82190476D01*
X123642857Y-82142857D01*
X123785714Y-82142857D01*
X123880952Y-82190476D01*
X123928571Y-82238095D01*
X123976190Y-82333333D01*
X123976190Y-82714285D01*
X124452380Y-81190476D02*
X124452380Y-81761904D01*
X124452380Y-81476190D02*
X123452380Y-81476190D01*
X123595238Y-81571428D01*
X123690476Y-81666666D01*
X123738095Y-81761904D01*
X124452380Y-80238095D02*
X124452380Y-80809523D01*
X124452380Y-80523809D02*
X123452380Y-80523809D01*
X123595238Y-80619047D01*
X123690476Y-80714285D01*
X123738095Y-80809523D01*
X121602380Y-86242857D02*
X121602380Y-86719047D01*
X122078571Y-86766666D01*
X122030952Y-86719047D01*
X121983333Y-86623809D01*
X121983333Y-86385714D01*
X122030952Y-86290476D01*
X122078571Y-86242857D01*
X122173809Y-86195238D01*
X122411904Y-86195238D01*
X122507142Y-86242857D01*
X122554761Y-86290476D01*
X122602380Y-86385714D01*
X122602380Y-86623809D01*
X122554761Y-86719047D01*
X122507142Y-86766666D01*
X121602380Y-85338095D02*
X121602380Y-85528571D01*
X121650000Y-85623809D01*
X121697619Y-85671428D01*
X121840476Y-85766666D01*
X122030952Y-85814285D01*
X122411904Y-85814285D01*
X122507142Y-85766666D01*
X122554761Y-85719047D01*
X122602380Y-85623809D01*
X122602380Y-85433333D01*
X122554761Y-85338095D01*
X122507142Y-85290476D01*
X122411904Y-85242857D01*
X122173809Y-85242857D01*
X122078571Y-85290476D01*
X122030952Y-85338095D01*
X121983333Y-85433333D01*
X121983333Y-85623809D01*
X122030952Y-85719047D01*
X122078571Y-85766666D01*
X122173809Y-85814285D01*
X122602380Y-84814285D02*
X121602380Y-84814285D01*
X122221428Y-84719047D02*
X122602380Y-84433333D01*
X121935714Y-84433333D02*
X122316666Y-84814285D01*
X112852380Y-86442857D02*
X112376190Y-86776190D01*
X112852380Y-87014285D02*
X111852380Y-87014285D01*
X111852380Y-86633333D01*
X111900000Y-86538095D01*
X111947619Y-86490476D01*
X112042857Y-86442857D01*
X112185714Y-86442857D01*
X112280952Y-86490476D01*
X112328571Y-86538095D01*
X112376190Y-86633333D01*
X112376190Y-87014285D01*
X112852380Y-85490476D02*
X112852380Y-86061904D01*
X112852380Y-85776190D02*
X111852380Y-85776190D01*
X111995238Y-85871428D01*
X112090476Y-85966666D01*
X112138095Y-86061904D01*
X111947619Y-85109523D02*
X111900000Y-85061904D01*
X111852380Y-84966666D01*
X111852380Y-84728571D01*
X111900000Y-84633333D01*
X111947619Y-84585714D01*
X112042857Y-84538095D01*
X112138095Y-84538095D01*
X112280952Y-84585714D01*
X112852380Y-85157142D01*
X112852380Y-84538095D01*
X110385714Y-82290476D02*
X111052380Y-82290476D01*
X110004761Y-82528571D02*
X110719047Y-82766666D01*
X110719047Y-82147619D01*
X110052380Y-81861904D02*
X110052380Y-81195238D01*
X111052380Y-81623809D01*
X111052380Y-80814285D02*
X110052380Y-80814285D01*
X110671428Y-80719047D02*
X111052380Y-80433333D01*
X110385714Y-80433333D02*
X110766666Y-80814285D01*
X111452380Y-99942857D02*
X110976190Y-100276190D01*
X111452380Y-100514285D02*
X110452380Y-100514285D01*
X110452380Y-100133333D01*
X110500000Y-100038095D01*
X110547619Y-99990476D01*
X110642857Y-99942857D01*
X110785714Y-99942857D01*
X110880952Y-99990476D01*
X110928571Y-100038095D01*
X110976190Y-100133333D01*
X110976190Y-100514285D01*
X111452380Y-98990476D02*
X111452380Y-99561904D01*
X111452380Y-99276190D02*
X110452380Y-99276190D01*
X110595238Y-99371428D01*
X110690476Y-99466666D01*
X110738095Y-99561904D01*
X110452380Y-98657142D02*
X110452380Y-98038095D01*
X110833333Y-98371428D01*
X110833333Y-98228571D01*
X110880952Y-98133333D01*
X110928571Y-98085714D01*
X111023809Y-98038095D01*
X111261904Y-98038095D01*
X111357142Y-98085714D01*
X111404761Y-98133333D01*
X111452380Y-98228571D01*
X111452380Y-98514285D01*
X111404761Y-98609523D01*
X111357142Y-98657142D01*
X112435714Y-95890476D02*
X113102380Y-95890476D01*
X112054761Y-96128571D02*
X112769047Y-96366666D01*
X112769047Y-95747619D01*
X112102380Y-95461904D02*
X112102380Y-94795238D01*
X113102380Y-95223809D01*
X113102380Y-94414285D02*
X112102380Y-94414285D01*
X112721428Y-94319047D02*
X113102380Y-94033333D01*
X112435714Y-94033333D02*
X112816666Y-94414285D01*
X147352380Y-144442857D02*
X146876190Y-144776190D01*
X147352380Y-145014285D02*
X146352380Y-145014285D01*
X146352380Y-144633333D01*
X146400000Y-144538095D01*
X146447619Y-144490476D01*
X146542857Y-144442857D01*
X146685714Y-144442857D01*
X146780952Y-144490476D01*
X146828571Y-144538095D01*
X146876190Y-144633333D01*
X146876190Y-145014285D01*
X147352380Y-143490476D02*
X147352380Y-144061904D01*
X147352380Y-143776190D02*
X146352380Y-143776190D01*
X146495238Y-143871428D01*
X146590476Y-143966666D01*
X146638095Y-144061904D01*
X146685714Y-142633333D02*
X147352380Y-142633333D01*
X146304761Y-142871428D02*
X147019047Y-143109523D01*
X147019047Y-142490476D01*
X156452380Y-140542857D02*
X155976190Y-140876190D01*
X156452380Y-141114285D02*
X155452380Y-141114285D01*
X155452380Y-140733333D01*
X155500000Y-140638095D01*
X155547619Y-140590476D01*
X155642857Y-140542857D01*
X155785714Y-140542857D01*
X155880952Y-140590476D01*
X155928571Y-140638095D01*
X155976190Y-140733333D01*
X155976190Y-141114285D01*
X156452380Y-139590476D02*
X156452380Y-140161904D01*
X156452380Y-139876190D02*
X155452380Y-139876190D01*
X155595238Y-139971428D01*
X155690476Y-140066666D01*
X155738095Y-140161904D01*
X155452380Y-138733333D02*
X155452380Y-138923809D01*
X155500000Y-139019047D01*
X155547619Y-139066666D01*
X155690476Y-139161904D01*
X155880952Y-139209523D01*
X156261904Y-139209523D01*
X156357142Y-139161904D01*
X156404761Y-139114285D01*
X156452380Y-139019047D01*
X156452380Y-138828571D01*
X156404761Y-138733333D01*
X156357142Y-138685714D01*
X156261904Y-138638095D01*
X156023809Y-138638095D01*
X155928571Y-138685714D01*
X155880952Y-138733333D01*
X155833333Y-138828571D01*
X155833333Y-139019047D01*
X155880952Y-139114285D01*
X155928571Y-139161904D01*
X156023809Y-139209523D01*
X157852380Y-140495238D02*
X157852380Y-141066666D01*
X157852380Y-140780952D02*
X156852380Y-140780952D01*
X156995238Y-140876190D01*
X157090476Y-140971428D01*
X157138095Y-141066666D01*
X156852380Y-139876190D02*
X156852380Y-139780952D01*
X156900000Y-139685714D01*
X156947619Y-139638095D01*
X157042857Y-139590476D01*
X157233333Y-139542857D01*
X157471428Y-139542857D01*
X157661904Y-139590476D01*
X157757142Y-139638095D01*
X157804761Y-139685714D01*
X157852380Y-139780952D01*
X157852380Y-139876190D01*
X157804761Y-139971428D01*
X157757142Y-140019047D01*
X157661904Y-140066666D01*
X157471428Y-140114285D01*
X157233333Y-140114285D01*
X157042857Y-140066666D01*
X156947619Y-140019047D01*
X156900000Y-139971428D01*
X156852380Y-139876190D01*
X157852380Y-139114285D02*
X156852380Y-139114285D01*
X157471428Y-139019047D02*
X157852380Y-138733333D01*
X157185714Y-138733333D02*
X157566666Y-139114285D01*
X134152380Y-130642857D02*
X133676190Y-130976190D01*
X134152380Y-131214285D02*
X133152380Y-131214285D01*
X133152380Y-130833333D01*
X133200000Y-130738095D01*
X133247619Y-130690476D01*
X133342857Y-130642857D01*
X133485714Y-130642857D01*
X133580952Y-130690476D01*
X133628571Y-130738095D01*
X133676190Y-130833333D01*
X133676190Y-131214285D01*
X134152380Y-129690476D02*
X134152380Y-130261904D01*
X134152380Y-129976190D02*
X133152380Y-129976190D01*
X133295238Y-130071428D01*
X133390476Y-130166666D01*
X133438095Y-130261904D01*
X133152380Y-129357142D02*
X133152380Y-128690476D01*
X134152380Y-129119047D01*
X134152380Y-127195238D02*
X134152380Y-127766666D01*
X134152380Y-127480952D02*
X133152380Y-127480952D01*
X133295238Y-127576190D01*
X133390476Y-127671428D01*
X133438095Y-127766666D01*
X133152380Y-126576190D02*
X133152380Y-126480952D01*
X133200000Y-126385714D01*
X133247619Y-126338095D01*
X133342857Y-126290476D01*
X133533333Y-126242857D01*
X133771428Y-126242857D01*
X133961904Y-126290476D01*
X134057142Y-126338095D01*
X134104761Y-126385714D01*
X134152380Y-126480952D01*
X134152380Y-126576190D01*
X134104761Y-126671428D01*
X134057142Y-126719047D01*
X133961904Y-126766666D01*
X133771428Y-126814285D01*
X133533333Y-126814285D01*
X133342857Y-126766666D01*
X133247619Y-126719047D01*
X133200000Y-126671428D01*
X133152380Y-126576190D01*
X134152380Y-125814285D02*
X133152380Y-125814285D01*
X133771428Y-125719047D02*
X134152380Y-125433333D01*
X133485714Y-125433333D02*
X133866666Y-125814285D01*
X138152380Y-130642857D02*
X137676190Y-130976190D01*
X138152380Y-131214285D02*
X137152380Y-131214285D01*
X137152380Y-130833333D01*
X137200000Y-130738095D01*
X137247619Y-130690476D01*
X137342857Y-130642857D01*
X137485714Y-130642857D01*
X137580952Y-130690476D01*
X137628571Y-130738095D01*
X137676190Y-130833333D01*
X137676190Y-131214285D01*
X138152380Y-129690476D02*
X138152380Y-130261904D01*
X138152380Y-129976190D02*
X137152380Y-129976190D01*
X137295238Y-130071428D01*
X137390476Y-130166666D01*
X137438095Y-130261904D01*
X138152380Y-129214285D02*
X138152380Y-129023809D01*
X138104761Y-128928571D01*
X138057142Y-128880952D01*
X137914285Y-128785714D01*
X137723809Y-128738095D01*
X137342857Y-128738095D01*
X137247619Y-128785714D01*
X137200000Y-128833333D01*
X137152380Y-128928571D01*
X137152380Y-129119047D01*
X137200000Y-129214285D01*
X137247619Y-129261904D01*
X137342857Y-129309523D01*
X137580952Y-129309523D01*
X137676190Y-129261904D01*
X137723809Y-129214285D01*
X137771428Y-129119047D01*
X137771428Y-128928571D01*
X137723809Y-128833333D01*
X137676190Y-128785714D01*
X137580952Y-128738095D01*
X137152380Y-127814285D02*
X137152380Y-127195238D01*
X137533333Y-127528571D01*
X137533333Y-127385714D01*
X137580952Y-127290476D01*
X137628571Y-127242857D01*
X137723809Y-127195238D01*
X137961904Y-127195238D01*
X138057142Y-127242857D01*
X138104761Y-127290476D01*
X138152380Y-127385714D01*
X138152380Y-127671428D01*
X138104761Y-127766666D01*
X138057142Y-127814285D01*
X137152380Y-126861904D02*
X137152380Y-126242857D01*
X137533333Y-126576190D01*
X137533333Y-126433333D01*
X137580952Y-126338095D01*
X137628571Y-126290476D01*
X137723809Y-126242857D01*
X137961904Y-126242857D01*
X138057142Y-126290476D01*
X138104761Y-126338095D01*
X138152380Y-126433333D01*
X138152380Y-126719047D01*
X138104761Y-126814285D01*
X138057142Y-126861904D01*
X138152380Y-125814285D02*
X137152380Y-125814285D01*
X137771428Y-125719047D02*
X138152380Y-125433333D01*
X137485714Y-125433333D02*
X137866666Y-125814285D01*
X154952380Y-131542857D02*
X154476190Y-131876190D01*
X154952380Y-132114285D02*
X153952380Y-132114285D01*
X153952380Y-131733333D01*
X154000000Y-131638095D01*
X154047619Y-131590476D01*
X154142857Y-131542857D01*
X154285714Y-131542857D01*
X154380952Y-131590476D01*
X154428571Y-131638095D01*
X154476190Y-131733333D01*
X154476190Y-132114285D01*
X154047619Y-131161904D02*
X154000000Y-131114285D01*
X153952380Y-131019047D01*
X153952380Y-130780952D01*
X154000000Y-130685714D01*
X154047619Y-130638095D01*
X154142857Y-130590476D01*
X154238095Y-130590476D01*
X154380952Y-130638095D01*
X154952380Y-131209523D01*
X154952380Y-130590476D01*
X153952380Y-129971428D02*
X153952380Y-129876190D01*
X154000000Y-129780952D01*
X154047619Y-129733333D01*
X154142857Y-129685714D01*
X154333333Y-129638095D01*
X154571428Y-129638095D01*
X154761904Y-129685714D01*
X154857142Y-129733333D01*
X154904761Y-129780952D01*
X154952380Y-129876190D01*
X154952380Y-129971428D01*
X154904761Y-130066666D01*
X154857142Y-130114285D01*
X154761904Y-130161904D01*
X154571428Y-130209523D01*
X154333333Y-130209523D01*
X154142857Y-130161904D01*
X154047619Y-130114285D01*
X154000000Y-130066666D01*
X153952380Y-129971428D01*
X154852380Y-128419047D02*
X154852380Y-128990476D01*
X154852380Y-128704761D02*
X153852380Y-128704761D01*
X153995238Y-128800000D01*
X154090476Y-128895238D01*
X154138095Y-128990476D01*
X154852380Y-127990476D02*
X153852380Y-127990476D01*
X154471428Y-127895238D02*
X154852380Y-127609523D01*
X154185714Y-127609523D02*
X154566666Y-127990476D01*
X115182380Y-90561904D02*
X115991904Y-90561904D01*
X116087142Y-90514285D01*
X116134761Y-90466666D01*
X116182380Y-90371428D01*
X116182380Y-90180952D01*
X116134761Y-90085714D01*
X116087142Y-90038095D01*
X115991904Y-89990476D01*
X115182380Y-89990476D01*
X115182380Y-89609523D02*
X115182380Y-88990476D01*
X115563333Y-89323809D01*
X115563333Y-89180952D01*
X115610952Y-89085714D01*
X115658571Y-89038095D01*
X115753809Y-88990476D01*
X115991904Y-88990476D01*
X116087142Y-89038095D01*
X116134761Y-89085714D01*
X116182380Y-89180952D01*
X116182380Y-89466666D01*
X116134761Y-89561904D01*
X116087142Y-89609523D01*
X118722380Y-93038095D02*
X117722380Y-93038095D01*
X118436666Y-92704761D01*
X117722380Y-92371428D01*
X118722380Y-92371428D01*
X118627142Y-91323809D02*
X118674761Y-91371428D01*
X118722380Y-91514285D01*
X118722380Y-91609523D01*
X118674761Y-91752380D01*
X118579523Y-91847619D01*
X118484285Y-91895238D01*
X118293809Y-91942857D01*
X118150952Y-91942857D01*
X117960476Y-91895238D01*
X117865238Y-91847619D01*
X117770000Y-91752380D01*
X117722380Y-91609523D01*
X117722380Y-91514285D01*
X117770000Y-91371428D01*
X117817619Y-91323809D01*
X118722380Y-90895238D02*
X117722380Y-90895238D01*
X117722380Y-90514285D01*
X117770000Y-90419047D01*
X117817619Y-90371428D01*
X117912857Y-90323809D01*
X118055714Y-90323809D01*
X118150952Y-90371428D01*
X118198571Y-90419047D01*
X118246190Y-90514285D01*
X118246190Y-90895238D01*
X117722380Y-89466666D02*
X117722380Y-89657142D01*
X117770000Y-89752380D01*
X117817619Y-89800000D01*
X117960476Y-89895238D01*
X118150952Y-89942857D01*
X118531904Y-89942857D01*
X118627142Y-89895238D01*
X118674761Y-89847619D01*
X118722380Y-89752380D01*
X118722380Y-89561904D01*
X118674761Y-89466666D01*
X118627142Y-89419047D01*
X118531904Y-89371428D01*
X118293809Y-89371428D01*
X118198571Y-89419047D01*
X118150952Y-89466666D01*
X118103333Y-89561904D01*
X118103333Y-89752380D01*
X118150952Y-89847619D01*
X118198571Y-89895238D01*
X118293809Y-89942857D01*
X117722380Y-88752380D02*
X117722380Y-88657142D01*
X117770000Y-88561904D01*
X117817619Y-88514285D01*
X117912857Y-88466666D01*
X118103333Y-88419047D01*
X118341428Y-88419047D01*
X118531904Y-88466666D01*
X118627142Y-88514285D01*
X118674761Y-88561904D01*
X118722380Y-88657142D01*
X118722380Y-88752380D01*
X118674761Y-88847619D01*
X118627142Y-88895238D01*
X118531904Y-88942857D01*
X118341428Y-88990476D01*
X118103333Y-88990476D01*
X117912857Y-88942857D01*
X117817619Y-88895238D01*
X117770000Y-88847619D01*
X117722380Y-88752380D01*
X117722380Y-87800000D02*
X117722380Y-87704761D01*
X117770000Y-87609523D01*
X117817619Y-87561904D01*
X117912857Y-87514285D01*
X118103333Y-87466666D01*
X118341428Y-87466666D01*
X118531904Y-87514285D01*
X118627142Y-87561904D01*
X118674761Y-87609523D01*
X118722380Y-87704761D01*
X118722380Y-87800000D01*
X118674761Y-87895238D01*
X118627142Y-87942857D01*
X118531904Y-87990476D01*
X118341428Y-88038095D01*
X118103333Y-88038095D01*
X117912857Y-87990476D01*
X117817619Y-87942857D01*
X117770000Y-87895238D01*
X117722380Y-87800000D01*
X118055714Y-86609523D02*
X118722380Y-86609523D01*
X117674761Y-86847619D02*
X118389047Y-87085714D01*
X118389047Y-86466666D01*
X142582380Y-134461904D02*
X143391904Y-134461904D01*
X143487142Y-134414285D01*
X143534761Y-134366666D01*
X143582380Y-134271428D01*
X143582380Y-134080952D01*
X143534761Y-133985714D01*
X143487142Y-133938095D01*
X143391904Y-133890476D01*
X142582380Y-133890476D01*
X142582380Y-132938095D02*
X142582380Y-133414285D01*
X143058571Y-133461904D01*
X143010952Y-133414285D01*
X142963333Y-133319047D01*
X142963333Y-133080952D01*
X143010952Y-132985714D01*
X143058571Y-132938095D01*
X143153809Y-132890476D01*
X143391904Y-132890476D01*
X143487142Y-132938095D01*
X143534761Y-132985714D01*
X143582380Y-133080952D01*
X143582380Y-133319047D01*
X143534761Y-133414285D01*
X143487142Y-133461904D01*
X145122380Y-135819047D02*
X145122380Y-135247619D01*
X146122380Y-135533333D02*
X145122380Y-135533333D01*
X146122380Y-134438095D02*
X146122380Y-134914285D01*
X145122380Y-134914285D01*
X145122380Y-133914285D02*
X145122380Y-133819047D01*
X145170000Y-133723809D01*
X145217619Y-133676190D01*
X145312857Y-133628571D01*
X145503333Y-133580952D01*
X145741428Y-133580952D01*
X145931904Y-133628571D01*
X146027142Y-133676190D01*
X146074761Y-133723809D01*
X146122380Y-133819047D01*
X146122380Y-133914285D01*
X146074761Y-134009523D01*
X146027142Y-134057142D01*
X145931904Y-134104761D01*
X145741428Y-134152380D01*
X145503333Y-134152380D01*
X145312857Y-134104761D01*
X145217619Y-134057142D01*
X145170000Y-134009523D01*
X145122380Y-133914285D01*
X145122380Y-133247619D02*
X145122380Y-132580952D01*
X146122380Y-133009523D01*
X145217619Y-132247619D02*
X145170000Y-132200000D01*
X145122380Y-132104761D01*
X145122380Y-131866666D01*
X145170000Y-131771428D01*
X145217619Y-131723809D01*
X145312857Y-131676190D01*
X145408095Y-131676190D01*
X145550952Y-131723809D01*
X146122380Y-132295238D01*
X146122380Y-131676190D01*
X118638095Y-149852380D02*
X118638095Y-150661904D01*
X118685714Y-150757142D01*
X118733333Y-150804761D01*
X118828571Y-150852380D01*
X119019047Y-150852380D01*
X119114285Y-150804761D01*
X119161904Y-150757142D01*
X119209523Y-150661904D01*
X119209523Y-149852380D01*
X120114285Y-149852380D02*
X119923809Y-149852380D01*
X119828571Y-149900000D01*
X119780952Y-149947619D01*
X119685714Y-150090476D01*
X119638095Y-150280952D01*
X119638095Y-150661904D01*
X119685714Y-150757142D01*
X119733333Y-150804761D01*
X119828571Y-150852380D01*
X120019047Y-150852380D01*
X120114285Y-150804761D01*
X120161904Y-150757142D01*
X120209523Y-150661904D01*
X120209523Y-150423809D01*
X120161904Y-150328571D01*
X120114285Y-150280952D01*
X120019047Y-150233333D01*
X119828571Y-150233333D01*
X119733333Y-150280952D01*
X119685714Y-150328571D01*
X119638095Y-150423809D01*
X114695238Y-156052380D02*
X114219047Y-156052380D01*
X114219047Y-155052380D01*
X115028571Y-156052380D02*
X115028571Y-155052380D01*
X115266666Y-155052380D01*
X115409523Y-155100000D01*
X115504761Y-155195238D01*
X115552380Y-155290476D01*
X115600000Y-155480952D01*
X115600000Y-155623809D01*
X115552380Y-155814285D01*
X115504761Y-155909523D01*
X115409523Y-156004761D01*
X115266666Y-156052380D01*
X115028571Y-156052380D01*
X116552380Y-156052380D02*
X115980952Y-156052380D01*
X116266666Y-156052380D02*
X116266666Y-155052380D01*
X116171428Y-155195238D01*
X116076190Y-155290476D01*
X115980952Y-155338095D01*
X117504761Y-156052380D02*
X116933333Y-156052380D01*
X117219047Y-156052380D02*
X117219047Y-155052380D01*
X117123809Y-155195238D01*
X117028571Y-155290476D01*
X116933333Y-155338095D01*
X118457142Y-156052380D02*
X117885714Y-156052380D01*
X118171428Y-156052380D02*
X118171428Y-155052380D01*
X118076190Y-155195238D01*
X117980952Y-155290476D01*
X117885714Y-155338095D01*
X118790476Y-155052380D02*
X119457142Y-155052380D01*
X119028571Y-156052380D01*
X119790476Y-156004761D02*
X119933333Y-156052380D01*
X120171428Y-156052380D01*
X120266666Y-156004761D01*
X120314285Y-155957142D01*
X120361904Y-155861904D01*
X120361904Y-155766666D01*
X120314285Y-155671428D01*
X120266666Y-155623809D01*
X120171428Y-155576190D01*
X119980952Y-155528571D01*
X119885714Y-155480952D01*
X119838095Y-155433333D01*
X119790476Y-155338095D01*
X119790476Y-155242857D01*
X119838095Y-155147619D01*
X119885714Y-155100000D01*
X119980952Y-155052380D01*
X120219047Y-155052380D01*
X120361904Y-155100000D01*
X121314285Y-156052380D02*
X120742857Y-156052380D01*
X121028571Y-156052380D02*
X121028571Y-155052380D01*
X120933333Y-155195238D01*
X120838095Y-155290476D01*
X120742857Y-155338095D01*
X121695238Y-155147619D02*
X121742857Y-155100000D01*
X121838095Y-155052380D01*
X122076190Y-155052380D01*
X122171428Y-155100000D01*
X122219047Y-155147619D01*
X122266666Y-155242857D01*
X122266666Y-155338095D01*
X122219047Y-155480952D01*
X121647619Y-156052380D01*
X122266666Y-156052380D01*
X122552380Y-155052380D02*
X123123809Y-155052380D01*
X122838095Y-156052380D02*
X122838095Y-155052380D01*
X124028571Y-156052380D02*
X123695238Y-155576190D01*
X123457142Y-156052380D02*
X123457142Y-155052380D01*
X123838095Y-155052380D01*
X123933333Y-155100000D01*
X123980952Y-155147619D01*
X124028571Y-155242857D01*
X124028571Y-155385714D01*
X123980952Y-155480952D01*
X123933333Y-155528571D01*
X123838095Y-155576190D01*
X123457142Y-155576190D01*
X144238095Y-68752380D02*
X144238095Y-69561904D01*
X144285714Y-69657142D01*
X144333333Y-69704761D01*
X144428571Y-69752380D01*
X144619047Y-69752380D01*
X144714285Y-69704761D01*
X144761904Y-69657142D01*
X144809523Y-69561904D01*
X144809523Y-68752380D01*
X145190476Y-68752380D02*
X145857142Y-68752380D01*
X145428571Y-69752380D01*
X140923809Y-73552380D02*
X140447619Y-73552380D01*
X140447619Y-72552380D01*
X141257142Y-73552380D02*
X141257142Y-72552380D01*
X141590476Y-73266666D01*
X141923809Y-72552380D01*
X141923809Y-73552380D01*
X142923809Y-73552380D02*
X142352380Y-73552380D01*
X142638095Y-73552380D02*
X142638095Y-72552380D01*
X142542857Y-72695238D01*
X142447619Y-72790476D01*
X142352380Y-72838095D01*
X143876190Y-73552380D02*
X143304761Y-73552380D01*
X143590476Y-73552380D02*
X143590476Y-72552380D01*
X143495238Y-72695238D01*
X143400000Y-72790476D01*
X143304761Y-72838095D01*
X144828571Y-73552380D02*
X144257142Y-73552380D01*
X144542857Y-73552380D02*
X144542857Y-72552380D01*
X144447619Y-72695238D01*
X144352380Y-72790476D01*
X144257142Y-72838095D01*
X145161904Y-72552380D02*
X145828571Y-72552380D01*
X145400000Y-73552380D01*
X146209523Y-73171428D02*
X146971428Y-73171428D01*
X147352380Y-72552380D02*
X147971428Y-72552380D01*
X147638095Y-72933333D01*
X147780952Y-72933333D01*
X147876190Y-72980952D01*
X147923809Y-73028571D01*
X147971428Y-73123809D01*
X147971428Y-73361904D01*
X147923809Y-73457142D01*
X147876190Y-73504761D01*
X147780952Y-73552380D01*
X147495238Y-73552380D01*
X147400000Y-73504761D01*
X147352380Y-73457142D01*
X148400000Y-73457142D02*
X148447619Y-73504761D01*
X148400000Y-73552380D01*
X148352380Y-73504761D01*
X148400000Y-73457142D01*
X148400000Y-73552380D01*
X148780952Y-72552380D02*
X149400000Y-72552380D01*
X149066666Y-72933333D01*
X149209523Y-72933333D01*
X149304761Y-72980952D01*
X149352380Y-73028571D01*
X149400000Y-73123809D01*
X149400000Y-73361904D01*
X149352380Y-73457142D01*
X149304761Y-73504761D01*
X149209523Y-73552380D01*
X148923809Y-73552380D01*
X148828571Y-73504761D01*
X148780952Y-73457142D01*
M02*
