G04 #@! TF.GenerationSoftware,KiCad,Pcbnew,(5.1.5)-3*
G04 #@! TF.CreationDate,2020-05-14T17:44:52+01:00*
G04 #@! TF.ProjectId,AddaTone Solder Stencil,41646461-546f-46e6-9520-536f6c646572,rev?*
G04 #@! TF.SameCoordinates,Original*
G04 #@! TF.FileFunction,Paste,Top*
G04 #@! TF.FilePolarity,Positive*
%FSLAX46Y46*%
G04 Gerber Fmt 4.6, Leading zero omitted, Abs format (unit mm)*
G04 Created by KiCad (PCBNEW (5.1.5)-3) date 2020-05-14 17:44:52*
%MOMM*%
%LPD*%
G04 APERTURE LIST*
%ADD10R,0.270000X0.420000*%
%ADD11R,0.420000X0.270000*%
%ADD12R,0.270000X0.270000*%
%ADD13R,0.420000X0.420000*%
%ADD14O,0.300000X0.600000*%
%ADD15O,0.600000X0.300000*%
%ADD16R,3.325000X2.500000*%
%ADD17R,0.900000X1.200000*%
%ADD18R,0.900000X0.800000*%
%ADD19R,3.000000X1.600000*%
%ADD20R,1.500000X1.250000*%
%ADD21R,1.200000X0.900000*%
%ADD22R,1.500000X1.300000*%
%ADD23R,1.200000X0.750000*%
%ADD24R,0.750000X1.200000*%
%ADD25R,1.250000X1.500000*%
%ADD26R,1.300000X1.500000*%
%ADD27R,1.600000X2.200000*%
%ADD28R,1.600000X3.000000*%
%ADD29C,0.100000*%
%ADD30R,1.143000X0.508000*%
%ADD31R,1.000000X0.400000*%
%ADD32R,1.500000X2.000000*%
%ADD33R,3.800000X2.000000*%
G04 APERTURE END LIST*
D10*
X115600000Y-135200000D03*
X115600000Y-133800000D03*
D11*
X116800000Y-136400000D03*
X118200000Y-136400000D03*
X116800000Y-132600000D03*
D10*
X119400000Y-133800000D03*
D12*
X115600000Y-136400000D03*
X119400000Y-136400000D03*
D10*
X119400000Y-135200000D03*
D12*
X119400000Y-132600000D03*
D13*
X118200000Y-135200000D03*
X118200000Y-133800000D03*
D11*
X118200000Y-132600000D03*
D13*
X116800000Y-135200000D03*
X116800000Y-133800000D03*
D12*
X115600000Y-132600000D03*
D14*
X120250000Y-137900000D03*
X119750000Y-137900000D03*
X119250000Y-137900000D03*
X118750000Y-137900001D03*
X118250000Y-137900000D03*
X117750000Y-137900000D03*
X117250000Y-137900000D03*
X116750000Y-137900000D03*
X116250000Y-137900001D03*
X115750000Y-137900000D03*
X115250000Y-137900000D03*
X114750000Y-137900000D03*
D15*
X114100000Y-137250000D03*
X114100000Y-136750000D03*
X114100000Y-136250000D03*
X114099999Y-135750000D03*
X114100000Y-135250000D03*
X114100000Y-134750000D03*
X114100000Y-134250000D03*
X114100000Y-133750000D03*
X114099999Y-133250000D03*
X114100000Y-132750000D03*
X114100000Y-132250000D03*
X114100000Y-131750000D03*
D14*
X114750000Y-131100000D03*
X115250000Y-131100000D03*
X115750000Y-131100000D03*
X116250000Y-131099999D03*
X116750000Y-131100000D03*
X117250000Y-131100000D03*
X117750000Y-131100000D03*
X118250000Y-131100000D03*
X118750000Y-131099999D03*
X119250000Y-131100000D03*
X119750000Y-131100000D03*
X120250000Y-131100000D03*
D15*
X120900000Y-131750000D03*
X120900000Y-132250000D03*
X120900000Y-132750000D03*
X120900001Y-133250000D03*
X120900000Y-133750000D03*
X120900000Y-134250000D03*
X120900000Y-134750000D03*
X120900000Y-135250000D03*
X120900001Y-135750000D03*
X120900000Y-136250000D03*
X120900000Y-136750000D03*
X120900000Y-137250000D03*
D16*
X138112500Y-99900000D03*
X132287500Y-99900000D03*
D17*
X144750000Y-61000000D03*
X148050000Y-61000000D03*
D18*
X120600000Y-77000000D03*
X118600000Y-77950000D03*
X118600000Y-76050000D03*
D19*
X108900000Y-71200000D03*
X113300000Y-71200000D03*
D20*
X113550000Y-75800000D03*
X116050000Y-75800000D03*
D21*
X118500000Y-68050000D03*
X118500000Y-71350000D03*
D22*
X116050000Y-78000000D03*
X113350000Y-78000000D03*
D23*
X134450000Y-146900000D03*
X136350000Y-146900000D03*
D24*
X120400000Y-107450000D03*
X120400000Y-105550000D03*
X118500000Y-126350000D03*
X118500000Y-124450000D03*
D23*
X125250000Y-133900000D03*
X127150000Y-133900000D03*
X124150000Y-135500000D03*
X126050000Y-135500000D03*
X119650000Y-114500000D03*
X117750000Y-114500000D03*
D22*
X107050000Y-89200000D03*
X109750000Y-89200000D03*
D25*
X135700000Y-135350000D03*
X135700000Y-132850000D03*
D26*
X131700000Y-135350000D03*
X131700000Y-132650000D03*
X152500000Y-136050000D03*
X152500000Y-133350000D03*
D22*
X138950000Y-139600000D03*
X141650000Y-139600000D03*
D20*
X137250000Y-96600000D03*
X139750000Y-96600000D03*
X131250000Y-96600000D03*
X133750000Y-96600000D03*
X119950000Y-112700000D03*
X117450000Y-112700000D03*
X110650000Y-140900000D03*
X108150000Y-140900000D03*
X134550000Y-118000000D03*
X137050000Y-118000000D03*
X139950000Y-105200000D03*
X137450000Y-105200000D03*
X108150000Y-138800000D03*
X110650000Y-138800000D03*
D25*
X116600000Y-126950000D03*
X116600000Y-124450000D03*
X146600000Y-150950000D03*
X146600000Y-153450000D03*
D20*
X109850000Y-124000000D03*
X112350000Y-124000000D03*
X108150000Y-128500000D03*
X110650000Y-128500000D03*
X150950000Y-141600000D03*
X148450000Y-141600000D03*
X136650000Y-139600000D03*
X134150000Y-139600000D03*
X110650000Y-130600000D03*
X108150000Y-130600000D03*
X123850000Y-137900000D03*
X126350000Y-137900000D03*
X110650000Y-134800000D03*
X108150000Y-134800000D03*
D25*
X144600000Y-150950000D03*
X144600000Y-153450000D03*
D20*
X134150000Y-150900000D03*
X136650000Y-150900000D03*
X110650000Y-136800000D03*
X108150000Y-136800000D03*
X126350000Y-139900000D03*
X123850000Y-139900000D03*
D25*
X126300000Y-96650000D03*
X126300000Y-94150000D03*
X126100000Y-84350000D03*
X126100000Y-86850000D03*
X108500000Y-86850000D03*
X108500000Y-84350000D03*
X108700000Y-96550000D03*
X108700000Y-94050000D03*
X149800000Y-150250000D03*
X149800000Y-147750000D03*
X154300000Y-146250000D03*
X154300000Y-143750000D03*
D20*
X150950000Y-145600000D03*
X148450000Y-145600000D03*
D25*
X150500000Y-135950000D03*
X150500000Y-133450000D03*
D27*
X137800000Y-66800000D03*
X137800000Y-69800000D03*
X125900000Y-147700000D03*
X125900000Y-150700000D03*
D28*
X153700000Y-57000000D03*
X153700000Y-61400000D03*
X154300000Y-66300000D03*
X154300000Y-70700000D03*
D27*
X112300000Y-150500000D03*
X112300000Y-147500000D03*
D20*
X136650000Y-148900000D03*
X134150000Y-148900000D03*
D21*
X114200000Y-125650000D03*
X114200000Y-128950000D03*
D26*
X141000000Y-74750000D03*
X141000000Y-77450000D03*
D22*
X108050000Y-132700000D03*
X110750000Y-132700000D03*
D26*
X128500000Y-96750000D03*
X128500000Y-94050000D03*
D22*
X124750000Y-91800000D03*
X127450000Y-91800000D03*
D26*
X128300000Y-84250000D03*
X128300000Y-86950000D03*
D22*
X124750000Y-89400000D03*
X127450000Y-89400000D03*
D26*
X106400000Y-86950000D03*
X106400000Y-84250000D03*
X106400000Y-93950000D03*
X106400000Y-96650000D03*
D22*
X107050000Y-91600000D03*
X109750000Y-91600000D03*
D26*
X124100000Y-96750000D03*
X124100000Y-94050000D03*
X123900000Y-84250000D03*
X123900000Y-86950000D03*
X110600000Y-86950000D03*
X110600000Y-84250000D03*
X110900000Y-93850000D03*
X110900000Y-96550000D03*
D22*
X148350000Y-143600000D03*
X151050000Y-143600000D03*
D26*
X154300000Y-138550000D03*
X154300000Y-141250000D03*
X133700000Y-135350000D03*
X133700000Y-132650000D03*
X137700000Y-135450000D03*
X137700000Y-132750000D03*
X154500000Y-136050000D03*
X154500000Y-133350000D03*
D29*
G36*
X132932351Y-103950361D02*
G01*
X132939632Y-103951441D01*
X132946771Y-103953229D01*
X132953701Y-103955709D01*
X132960355Y-103958856D01*
X132966668Y-103962640D01*
X132972579Y-103967024D01*
X132978033Y-103971967D01*
X132982976Y-103977421D01*
X132987360Y-103983332D01*
X132991144Y-103989645D01*
X132994291Y-103996299D01*
X132996771Y-104003229D01*
X132998559Y-104010368D01*
X132999639Y-104017649D01*
X133000000Y-104025000D01*
X133000000Y-105425000D01*
X132999639Y-105432351D01*
X132998559Y-105439632D01*
X132996771Y-105446771D01*
X132994291Y-105453701D01*
X132991144Y-105460355D01*
X132987360Y-105466668D01*
X132982976Y-105472579D01*
X132978033Y-105478033D01*
X132972579Y-105482976D01*
X132966668Y-105487360D01*
X132960355Y-105491144D01*
X132953701Y-105494291D01*
X132946771Y-105496771D01*
X132939632Y-105498559D01*
X132932351Y-105499639D01*
X132925000Y-105500000D01*
X132775000Y-105500000D01*
X132767649Y-105499639D01*
X132760368Y-105498559D01*
X132753229Y-105496771D01*
X132746299Y-105494291D01*
X132739645Y-105491144D01*
X132733332Y-105487360D01*
X132727421Y-105482976D01*
X132721967Y-105478033D01*
X132717024Y-105472579D01*
X132712640Y-105466668D01*
X132708856Y-105460355D01*
X132705709Y-105453701D01*
X132703229Y-105446771D01*
X132701441Y-105439632D01*
X132700361Y-105432351D01*
X132700000Y-105425000D01*
X132700000Y-104025000D01*
X132700361Y-104017649D01*
X132701441Y-104010368D01*
X132703229Y-104003229D01*
X132705709Y-103996299D01*
X132708856Y-103989645D01*
X132712640Y-103983332D01*
X132717024Y-103977421D01*
X132721967Y-103971967D01*
X132727421Y-103967024D01*
X132733332Y-103962640D01*
X132739645Y-103958856D01*
X132746299Y-103955709D01*
X132753229Y-103953229D01*
X132760368Y-103951441D01*
X132767649Y-103950361D01*
X132775000Y-103950000D01*
X132925000Y-103950000D01*
X132932351Y-103950361D01*
G37*
G36*
X132432351Y-103950361D02*
G01*
X132439632Y-103951441D01*
X132446771Y-103953229D01*
X132453701Y-103955709D01*
X132460355Y-103958856D01*
X132466668Y-103962640D01*
X132472579Y-103967024D01*
X132478033Y-103971967D01*
X132482976Y-103977421D01*
X132487360Y-103983332D01*
X132491144Y-103989645D01*
X132494291Y-103996299D01*
X132496771Y-104003229D01*
X132498559Y-104010368D01*
X132499639Y-104017649D01*
X132500000Y-104025000D01*
X132500000Y-105425000D01*
X132499639Y-105432351D01*
X132498559Y-105439632D01*
X132496771Y-105446771D01*
X132494291Y-105453701D01*
X132491144Y-105460355D01*
X132487360Y-105466668D01*
X132482976Y-105472579D01*
X132478033Y-105478033D01*
X132472579Y-105482976D01*
X132466668Y-105487360D01*
X132460355Y-105491144D01*
X132453701Y-105494291D01*
X132446771Y-105496771D01*
X132439632Y-105498559D01*
X132432351Y-105499639D01*
X132425000Y-105500000D01*
X132275000Y-105500000D01*
X132267649Y-105499639D01*
X132260368Y-105498559D01*
X132253229Y-105496771D01*
X132246299Y-105494291D01*
X132239645Y-105491144D01*
X132233332Y-105487360D01*
X132227421Y-105482976D01*
X132221967Y-105478033D01*
X132217024Y-105472579D01*
X132212640Y-105466668D01*
X132208856Y-105460355D01*
X132205709Y-105453701D01*
X132203229Y-105446771D01*
X132201441Y-105439632D01*
X132200361Y-105432351D01*
X132200000Y-105425000D01*
X132200000Y-104025000D01*
X132200361Y-104017649D01*
X132201441Y-104010368D01*
X132203229Y-104003229D01*
X132205709Y-103996299D01*
X132208856Y-103989645D01*
X132212640Y-103983332D01*
X132217024Y-103977421D01*
X132221967Y-103971967D01*
X132227421Y-103967024D01*
X132233332Y-103962640D01*
X132239645Y-103958856D01*
X132246299Y-103955709D01*
X132253229Y-103953229D01*
X132260368Y-103951441D01*
X132267649Y-103950361D01*
X132275000Y-103950000D01*
X132425000Y-103950000D01*
X132432351Y-103950361D01*
G37*
G36*
X131932351Y-103950361D02*
G01*
X131939632Y-103951441D01*
X131946771Y-103953229D01*
X131953701Y-103955709D01*
X131960355Y-103958856D01*
X131966668Y-103962640D01*
X131972579Y-103967024D01*
X131978033Y-103971967D01*
X131982976Y-103977421D01*
X131987360Y-103983332D01*
X131991144Y-103989645D01*
X131994291Y-103996299D01*
X131996771Y-104003229D01*
X131998559Y-104010368D01*
X131999639Y-104017649D01*
X132000000Y-104025000D01*
X132000000Y-105425000D01*
X131999639Y-105432351D01*
X131998559Y-105439632D01*
X131996771Y-105446771D01*
X131994291Y-105453701D01*
X131991144Y-105460355D01*
X131987360Y-105466668D01*
X131982976Y-105472579D01*
X131978033Y-105478033D01*
X131972579Y-105482976D01*
X131966668Y-105487360D01*
X131960355Y-105491144D01*
X131953701Y-105494291D01*
X131946771Y-105496771D01*
X131939632Y-105498559D01*
X131932351Y-105499639D01*
X131925000Y-105500000D01*
X131775000Y-105500000D01*
X131767649Y-105499639D01*
X131760368Y-105498559D01*
X131753229Y-105496771D01*
X131746299Y-105494291D01*
X131739645Y-105491144D01*
X131733332Y-105487360D01*
X131727421Y-105482976D01*
X131721967Y-105478033D01*
X131717024Y-105472579D01*
X131712640Y-105466668D01*
X131708856Y-105460355D01*
X131705709Y-105453701D01*
X131703229Y-105446771D01*
X131701441Y-105439632D01*
X131700361Y-105432351D01*
X131700000Y-105425000D01*
X131700000Y-104025000D01*
X131700361Y-104017649D01*
X131701441Y-104010368D01*
X131703229Y-104003229D01*
X131705709Y-103996299D01*
X131708856Y-103989645D01*
X131712640Y-103983332D01*
X131717024Y-103977421D01*
X131721967Y-103971967D01*
X131727421Y-103967024D01*
X131733332Y-103962640D01*
X131739645Y-103958856D01*
X131746299Y-103955709D01*
X131753229Y-103953229D01*
X131760368Y-103951441D01*
X131767649Y-103950361D01*
X131775000Y-103950000D01*
X131925000Y-103950000D01*
X131932351Y-103950361D01*
G37*
G36*
X131432351Y-103950361D02*
G01*
X131439632Y-103951441D01*
X131446771Y-103953229D01*
X131453701Y-103955709D01*
X131460355Y-103958856D01*
X131466668Y-103962640D01*
X131472579Y-103967024D01*
X131478033Y-103971967D01*
X131482976Y-103977421D01*
X131487360Y-103983332D01*
X131491144Y-103989645D01*
X131494291Y-103996299D01*
X131496771Y-104003229D01*
X131498559Y-104010368D01*
X131499639Y-104017649D01*
X131500000Y-104025000D01*
X131500000Y-105425000D01*
X131499639Y-105432351D01*
X131498559Y-105439632D01*
X131496771Y-105446771D01*
X131494291Y-105453701D01*
X131491144Y-105460355D01*
X131487360Y-105466668D01*
X131482976Y-105472579D01*
X131478033Y-105478033D01*
X131472579Y-105482976D01*
X131466668Y-105487360D01*
X131460355Y-105491144D01*
X131453701Y-105494291D01*
X131446771Y-105496771D01*
X131439632Y-105498559D01*
X131432351Y-105499639D01*
X131425000Y-105500000D01*
X131275000Y-105500000D01*
X131267649Y-105499639D01*
X131260368Y-105498559D01*
X131253229Y-105496771D01*
X131246299Y-105494291D01*
X131239645Y-105491144D01*
X131233332Y-105487360D01*
X131227421Y-105482976D01*
X131221967Y-105478033D01*
X131217024Y-105472579D01*
X131212640Y-105466668D01*
X131208856Y-105460355D01*
X131205709Y-105453701D01*
X131203229Y-105446771D01*
X131201441Y-105439632D01*
X131200361Y-105432351D01*
X131200000Y-105425000D01*
X131200000Y-104025000D01*
X131200361Y-104017649D01*
X131201441Y-104010368D01*
X131203229Y-104003229D01*
X131205709Y-103996299D01*
X131208856Y-103989645D01*
X131212640Y-103983332D01*
X131217024Y-103977421D01*
X131221967Y-103971967D01*
X131227421Y-103967024D01*
X131233332Y-103962640D01*
X131239645Y-103958856D01*
X131246299Y-103955709D01*
X131253229Y-103953229D01*
X131260368Y-103951441D01*
X131267649Y-103950361D01*
X131275000Y-103950000D01*
X131425000Y-103950000D01*
X131432351Y-103950361D01*
G37*
G36*
X130932351Y-103950361D02*
G01*
X130939632Y-103951441D01*
X130946771Y-103953229D01*
X130953701Y-103955709D01*
X130960355Y-103958856D01*
X130966668Y-103962640D01*
X130972579Y-103967024D01*
X130978033Y-103971967D01*
X130982976Y-103977421D01*
X130987360Y-103983332D01*
X130991144Y-103989645D01*
X130994291Y-103996299D01*
X130996771Y-104003229D01*
X130998559Y-104010368D01*
X130999639Y-104017649D01*
X131000000Y-104025000D01*
X131000000Y-105425000D01*
X130999639Y-105432351D01*
X130998559Y-105439632D01*
X130996771Y-105446771D01*
X130994291Y-105453701D01*
X130991144Y-105460355D01*
X130987360Y-105466668D01*
X130982976Y-105472579D01*
X130978033Y-105478033D01*
X130972579Y-105482976D01*
X130966668Y-105487360D01*
X130960355Y-105491144D01*
X130953701Y-105494291D01*
X130946771Y-105496771D01*
X130939632Y-105498559D01*
X130932351Y-105499639D01*
X130925000Y-105500000D01*
X130775000Y-105500000D01*
X130767649Y-105499639D01*
X130760368Y-105498559D01*
X130753229Y-105496771D01*
X130746299Y-105494291D01*
X130739645Y-105491144D01*
X130733332Y-105487360D01*
X130727421Y-105482976D01*
X130721967Y-105478033D01*
X130717024Y-105472579D01*
X130712640Y-105466668D01*
X130708856Y-105460355D01*
X130705709Y-105453701D01*
X130703229Y-105446771D01*
X130701441Y-105439632D01*
X130700361Y-105432351D01*
X130700000Y-105425000D01*
X130700000Y-104025000D01*
X130700361Y-104017649D01*
X130701441Y-104010368D01*
X130703229Y-104003229D01*
X130705709Y-103996299D01*
X130708856Y-103989645D01*
X130712640Y-103983332D01*
X130717024Y-103977421D01*
X130721967Y-103971967D01*
X130727421Y-103967024D01*
X130733332Y-103962640D01*
X130739645Y-103958856D01*
X130746299Y-103955709D01*
X130753229Y-103953229D01*
X130760368Y-103951441D01*
X130767649Y-103950361D01*
X130775000Y-103950000D01*
X130925000Y-103950000D01*
X130932351Y-103950361D01*
G37*
G36*
X130432351Y-103950361D02*
G01*
X130439632Y-103951441D01*
X130446771Y-103953229D01*
X130453701Y-103955709D01*
X130460355Y-103958856D01*
X130466668Y-103962640D01*
X130472579Y-103967024D01*
X130478033Y-103971967D01*
X130482976Y-103977421D01*
X130487360Y-103983332D01*
X130491144Y-103989645D01*
X130494291Y-103996299D01*
X130496771Y-104003229D01*
X130498559Y-104010368D01*
X130499639Y-104017649D01*
X130500000Y-104025000D01*
X130500000Y-105425000D01*
X130499639Y-105432351D01*
X130498559Y-105439632D01*
X130496771Y-105446771D01*
X130494291Y-105453701D01*
X130491144Y-105460355D01*
X130487360Y-105466668D01*
X130482976Y-105472579D01*
X130478033Y-105478033D01*
X130472579Y-105482976D01*
X130466668Y-105487360D01*
X130460355Y-105491144D01*
X130453701Y-105494291D01*
X130446771Y-105496771D01*
X130439632Y-105498559D01*
X130432351Y-105499639D01*
X130425000Y-105500000D01*
X130275000Y-105500000D01*
X130267649Y-105499639D01*
X130260368Y-105498559D01*
X130253229Y-105496771D01*
X130246299Y-105494291D01*
X130239645Y-105491144D01*
X130233332Y-105487360D01*
X130227421Y-105482976D01*
X130221967Y-105478033D01*
X130217024Y-105472579D01*
X130212640Y-105466668D01*
X130208856Y-105460355D01*
X130205709Y-105453701D01*
X130203229Y-105446771D01*
X130201441Y-105439632D01*
X130200361Y-105432351D01*
X130200000Y-105425000D01*
X130200000Y-104025000D01*
X130200361Y-104017649D01*
X130201441Y-104010368D01*
X130203229Y-104003229D01*
X130205709Y-103996299D01*
X130208856Y-103989645D01*
X130212640Y-103983332D01*
X130217024Y-103977421D01*
X130221967Y-103971967D01*
X130227421Y-103967024D01*
X130233332Y-103962640D01*
X130239645Y-103958856D01*
X130246299Y-103955709D01*
X130253229Y-103953229D01*
X130260368Y-103951441D01*
X130267649Y-103950361D01*
X130275000Y-103950000D01*
X130425000Y-103950000D01*
X130432351Y-103950361D01*
G37*
G36*
X129932351Y-103950361D02*
G01*
X129939632Y-103951441D01*
X129946771Y-103953229D01*
X129953701Y-103955709D01*
X129960355Y-103958856D01*
X129966668Y-103962640D01*
X129972579Y-103967024D01*
X129978033Y-103971967D01*
X129982976Y-103977421D01*
X129987360Y-103983332D01*
X129991144Y-103989645D01*
X129994291Y-103996299D01*
X129996771Y-104003229D01*
X129998559Y-104010368D01*
X129999639Y-104017649D01*
X130000000Y-104025000D01*
X130000000Y-105425000D01*
X129999639Y-105432351D01*
X129998559Y-105439632D01*
X129996771Y-105446771D01*
X129994291Y-105453701D01*
X129991144Y-105460355D01*
X129987360Y-105466668D01*
X129982976Y-105472579D01*
X129978033Y-105478033D01*
X129972579Y-105482976D01*
X129966668Y-105487360D01*
X129960355Y-105491144D01*
X129953701Y-105494291D01*
X129946771Y-105496771D01*
X129939632Y-105498559D01*
X129932351Y-105499639D01*
X129925000Y-105500000D01*
X129775000Y-105500000D01*
X129767649Y-105499639D01*
X129760368Y-105498559D01*
X129753229Y-105496771D01*
X129746299Y-105494291D01*
X129739645Y-105491144D01*
X129733332Y-105487360D01*
X129727421Y-105482976D01*
X129721967Y-105478033D01*
X129717024Y-105472579D01*
X129712640Y-105466668D01*
X129708856Y-105460355D01*
X129705709Y-105453701D01*
X129703229Y-105446771D01*
X129701441Y-105439632D01*
X129700361Y-105432351D01*
X129700000Y-105425000D01*
X129700000Y-104025000D01*
X129700361Y-104017649D01*
X129701441Y-104010368D01*
X129703229Y-104003229D01*
X129705709Y-103996299D01*
X129708856Y-103989645D01*
X129712640Y-103983332D01*
X129717024Y-103977421D01*
X129721967Y-103971967D01*
X129727421Y-103967024D01*
X129733332Y-103962640D01*
X129739645Y-103958856D01*
X129746299Y-103955709D01*
X129753229Y-103953229D01*
X129760368Y-103951441D01*
X129767649Y-103950361D01*
X129775000Y-103950000D01*
X129925000Y-103950000D01*
X129932351Y-103950361D01*
G37*
G36*
X129432351Y-103950361D02*
G01*
X129439632Y-103951441D01*
X129446771Y-103953229D01*
X129453701Y-103955709D01*
X129460355Y-103958856D01*
X129466668Y-103962640D01*
X129472579Y-103967024D01*
X129478033Y-103971967D01*
X129482976Y-103977421D01*
X129487360Y-103983332D01*
X129491144Y-103989645D01*
X129494291Y-103996299D01*
X129496771Y-104003229D01*
X129498559Y-104010368D01*
X129499639Y-104017649D01*
X129500000Y-104025000D01*
X129500000Y-105425000D01*
X129499639Y-105432351D01*
X129498559Y-105439632D01*
X129496771Y-105446771D01*
X129494291Y-105453701D01*
X129491144Y-105460355D01*
X129487360Y-105466668D01*
X129482976Y-105472579D01*
X129478033Y-105478033D01*
X129472579Y-105482976D01*
X129466668Y-105487360D01*
X129460355Y-105491144D01*
X129453701Y-105494291D01*
X129446771Y-105496771D01*
X129439632Y-105498559D01*
X129432351Y-105499639D01*
X129425000Y-105500000D01*
X129275000Y-105500000D01*
X129267649Y-105499639D01*
X129260368Y-105498559D01*
X129253229Y-105496771D01*
X129246299Y-105494291D01*
X129239645Y-105491144D01*
X129233332Y-105487360D01*
X129227421Y-105482976D01*
X129221967Y-105478033D01*
X129217024Y-105472579D01*
X129212640Y-105466668D01*
X129208856Y-105460355D01*
X129205709Y-105453701D01*
X129203229Y-105446771D01*
X129201441Y-105439632D01*
X129200361Y-105432351D01*
X129200000Y-105425000D01*
X129200000Y-104025000D01*
X129200361Y-104017649D01*
X129201441Y-104010368D01*
X129203229Y-104003229D01*
X129205709Y-103996299D01*
X129208856Y-103989645D01*
X129212640Y-103983332D01*
X129217024Y-103977421D01*
X129221967Y-103971967D01*
X129227421Y-103967024D01*
X129233332Y-103962640D01*
X129239645Y-103958856D01*
X129246299Y-103955709D01*
X129253229Y-103953229D01*
X129260368Y-103951441D01*
X129267649Y-103950361D01*
X129275000Y-103950000D01*
X129425000Y-103950000D01*
X129432351Y-103950361D01*
G37*
G36*
X128932351Y-103950361D02*
G01*
X128939632Y-103951441D01*
X128946771Y-103953229D01*
X128953701Y-103955709D01*
X128960355Y-103958856D01*
X128966668Y-103962640D01*
X128972579Y-103967024D01*
X128978033Y-103971967D01*
X128982976Y-103977421D01*
X128987360Y-103983332D01*
X128991144Y-103989645D01*
X128994291Y-103996299D01*
X128996771Y-104003229D01*
X128998559Y-104010368D01*
X128999639Y-104017649D01*
X129000000Y-104025000D01*
X129000000Y-105425000D01*
X128999639Y-105432351D01*
X128998559Y-105439632D01*
X128996771Y-105446771D01*
X128994291Y-105453701D01*
X128991144Y-105460355D01*
X128987360Y-105466668D01*
X128982976Y-105472579D01*
X128978033Y-105478033D01*
X128972579Y-105482976D01*
X128966668Y-105487360D01*
X128960355Y-105491144D01*
X128953701Y-105494291D01*
X128946771Y-105496771D01*
X128939632Y-105498559D01*
X128932351Y-105499639D01*
X128925000Y-105500000D01*
X128775000Y-105500000D01*
X128767649Y-105499639D01*
X128760368Y-105498559D01*
X128753229Y-105496771D01*
X128746299Y-105494291D01*
X128739645Y-105491144D01*
X128733332Y-105487360D01*
X128727421Y-105482976D01*
X128721967Y-105478033D01*
X128717024Y-105472579D01*
X128712640Y-105466668D01*
X128708856Y-105460355D01*
X128705709Y-105453701D01*
X128703229Y-105446771D01*
X128701441Y-105439632D01*
X128700361Y-105432351D01*
X128700000Y-105425000D01*
X128700000Y-104025000D01*
X128700361Y-104017649D01*
X128701441Y-104010368D01*
X128703229Y-104003229D01*
X128705709Y-103996299D01*
X128708856Y-103989645D01*
X128712640Y-103983332D01*
X128717024Y-103977421D01*
X128721967Y-103971967D01*
X128727421Y-103967024D01*
X128733332Y-103962640D01*
X128739645Y-103958856D01*
X128746299Y-103955709D01*
X128753229Y-103953229D01*
X128760368Y-103951441D01*
X128767649Y-103950361D01*
X128775000Y-103950000D01*
X128925000Y-103950000D01*
X128932351Y-103950361D01*
G37*
G36*
X128432351Y-103950361D02*
G01*
X128439632Y-103951441D01*
X128446771Y-103953229D01*
X128453701Y-103955709D01*
X128460355Y-103958856D01*
X128466668Y-103962640D01*
X128472579Y-103967024D01*
X128478033Y-103971967D01*
X128482976Y-103977421D01*
X128487360Y-103983332D01*
X128491144Y-103989645D01*
X128494291Y-103996299D01*
X128496771Y-104003229D01*
X128498559Y-104010368D01*
X128499639Y-104017649D01*
X128500000Y-104025000D01*
X128500000Y-105425000D01*
X128499639Y-105432351D01*
X128498559Y-105439632D01*
X128496771Y-105446771D01*
X128494291Y-105453701D01*
X128491144Y-105460355D01*
X128487360Y-105466668D01*
X128482976Y-105472579D01*
X128478033Y-105478033D01*
X128472579Y-105482976D01*
X128466668Y-105487360D01*
X128460355Y-105491144D01*
X128453701Y-105494291D01*
X128446771Y-105496771D01*
X128439632Y-105498559D01*
X128432351Y-105499639D01*
X128425000Y-105500000D01*
X128275000Y-105500000D01*
X128267649Y-105499639D01*
X128260368Y-105498559D01*
X128253229Y-105496771D01*
X128246299Y-105494291D01*
X128239645Y-105491144D01*
X128233332Y-105487360D01*
X128227421Y-105482976D01*
X128221967Y-105478033D01*
X128217024Y-105472579D01*
X128212640Y-105466668D01*
X128208856Y-105460355D01*
X128205709Y-105453701D01*
X128203229Y-105446771D01*
X128201441Y-105439632D01*
X128200361Y-105432351D01*
X128200000Y-105425000D01*
X128200000Y-104025000D01*
X128200361Y-104017649D01*
X128201441Y-104010368D01*
X128203229Y-104003229D01*
X128205709Y-103996299D01*
X128208856Y-103989645D01*
X128212640Y-103983332D01*
X128217024Y-103977421D01*
X128221967Y-103971967D01*
X128227421Y-103967024D01*
X128233332Y-103962640D01*
X128239645Y-103958856D01*
X128246299Y-103955709D01*
X128253229Y-103953229D01*
X128260368Y-103951441D01*
X128267649Y-103950361D01*
X128275000Y-103950000D01*
X128425000Y-103950000D01*
X128432351Y-103950361D01*
G37*
G36*
X127932351Y-103950361D02*
G01*
X127939632Y-103951441D01*
X127946771Y-103953229D01*
X127953701Y-103955709D01*
X127960355Y-103958856D01*
X127966668Y-103962640D01*
X127972579Y-103967024D01*
X127978033Y-103971967D01*
X127982976Y-103977421D01*
X127987360Y-103983332D01*
X127991144Y-103989645D01*
X127994291Y-103996299D01*
X127996771Y-104003229D01*
X127998559Y-104010368D01*
X127999639Y-104017649D01*
X128000000Y-104025000D01*
X128000000Y-105425000D01*
X127999639Y-105432351D01*
X127998559Y-105439632D01*
X127996771Y-105446771D01*
X127994291Y-105453701D01*
X127991144Y-105460355D01*
X127987360Y-105466668D01*
X127982976Y-105472579D01*
X127978033Y-105478033D01*
X127972579Y-105482976D01*
X127966668Y-105487360D01*
X127960355Y-105491144D01*
X127953701Y-105494291D01*
X127946771Y-105496771D01*
X127939632Y-105498559D01*
X127932351Y-105499639D01*
X127925000Y-105500000D01*
X127775000Y-105500000D01*
X127767649Y-105499639D01*
X127760368Y-105498559D01*
X127753229Y-105496771D01*
X127746299Y-105494291D01*
X127739645Y-105491144D01*
X127733332Y-105487360D01*
X127727421Y-105482976D01*
X127721967Y-105478033D01*
X127717024Y-105472579D01*
X127712640Y-105466668D01*
X127708856Y-105460355D01*
X127705709Y-105453701D01*
X127703229Y-105446771D01*
X127701441Y-105439632D01*
X127700361Y-105432351D01*
X127700000Y-105425000D01*
X127700000Y-104025000D01*
X127700361Y-104017649D01*
X127701441Y-104010368D01*
X127703229Y-104003229D01*
X127705709Y-103996299D01*
X127708856Y-103989645D01*
X127712640Y-103983332D01*
X127717024Y-103977421D01*
X127721967Y-103971967D01*
X127727421Y-103967024D01*
X127733332Y-103962640D01*
X127739645Y-103958856D01*
X127746299Y-103955709D01*
X127753229Y-103953229D01*
X127760368Y-103951441D01*
X127767649Y-103950361D01*
X127775000Y-103950000D01*
X127925000Y-103950000D01*
X127932351Y-103950361D01*
G37*
G36*
X127432351Y-103950361D02*
G01*
X127439632Y-103951441D01*
X127446771Y-103953229D01*
X127453701Y-103955709D01*
X127460355Y-103958856D01*
X127466668Y-103962640D01*
X127472579Y-103967024D01*
X127478033Y-103971967D01*
X127482976Y-103977421D01*
X127487360Y-103983332D01*
X127491144Y-103989645D01*
X127494291Y-103996299D01*
X127496771Y-104003229D01*
X127498559Y-104010368D01*
X127499639Y-104017649D01*
X127500000Y-104025000D01*
X127500000Y-105425000D01*
X127499639Y-105432351D01*
X127498559Y-105439632D01*
X127496771Y-105446771D01*
X127494291Y-105453701D01*
X127491144Y-105460355D01*
X127487360Y-105466668D01*
X127482976Y-105472579D01*
X127478033Y-105478033D01*
X127472579Y-105482976D01*
X127466668Y-105487360D01*
X127460355Y-105491144D01*
X127453701Y-105494291D01*
X127446771Y-105496771D01*
X127439632Y-105498559D01*
X127432351Y-105499639D01*
X127425000Y-105500000D01*
X127275000Y-105500000D01*
X127267649Y-105499639D01*
X127260368Y-105498559D01*
X127253229Y-105496771D01*
X127246299Y-105494291D01*
X127239645Y-105491144D01*
X127233332Y-105487360D01*
X127227421Y-105482976D01*
X127221967Y-105478033D01*
X127217024Y-105472579D01*
X127212640Y-105466668D01*
X127208856Y-105460355D01*
X127205709Y-105453701D01*
X127203229Y-105446771D01*
X127201441Y-105439632D01*
X127200361Y-105432351D01*
X127200000Y-105425000D01*
X127200000Y-104025000D01*
X127200361Y-104017649D01*
X127201441Y-104010368D01*
X127203229Y-104003229D01*
X127205709Y-103996299D01*
X127208856Y-103989645D01*
X127212640Y-103983332D01*
X127217024Y-103977421D01*
X127221967Y-103971967D01*
X127227421Y-103967024D01*
X127233332Y-103962640D01*
X127239645Y-103958856D01*
X127246299Y-103955709D01*
X127253229Y-103953229D01*
X127260368Y-103951441D01*
X127267649Y-103950361D01*
X127275000Y-103950000D01*
X127425000Y-103950000D01*
X127432351Y-103950361D01*
G37*
G36*
X126932351Y-103950361D02*
G01*
X126939632Y-103951441D01*
X126946771Y-103953229D01*
X126953701Y-103955709D01*
X126960355Y-103958856D01*
X126966668Y-103962640D01*
X126972579Y-103967024D01*
X126978033Y-103971967D01*
X126982976Y-103977421D01*
X126987360Y-103983332D01*
X126991144Y-103989645D01*
X126994291Y-103996299D01*
X126996771Y-104003229D01*
X126998559Y-104010368D01*
X126999639Y-104017649D01*
X127000000Y-104025000D01*
X127000000Y-105425000D01*
X126999639Y-105432351D01*
X126998559Y-105439632D01*
X126996771Y-105446771D01*
X126994291Y-105453701D01*
X126991144Y-105460355D01*
X126987360Y-105466668D01*
X126982976Y-105472579D01*
X126978033Y-105478033D01*
X126972579Y-105482976D01*
X126966668Y-105487360D01*
X126960355Y-105491144D01*
X126953701Y-105494291D01*
X126946771Y-105496771D01*
X126939632Y-105498559D01*
X126932351Y-105499639D01*
X126925000Y-105500000D01*
X126775000Y-105500000D01*
X126767649Y-105499639D01*
X126760368Y-105498559D01*
X126753229Y-105496771D01*
X126746299Y-105494291D01*
X126739645Y-105491144D01*
X126733332Y-105487360D01*
X126727421Y-105482976D01*
X126721967Y-105478033D01*
X126717024Y-105472579D01*
X126712640Y-105466668D01*
X126708856Y-105460355D01*
X126705709Y-105453701D01*
X126703229Y-105446771D01*
X126701441Y-105439632D01*
X126700361Y-105432351D01*
X126700000Y-105425000D01*
X126700000Y-104025000D01*
X126700361Y-104017649D01*
X126701441Y-104010368D01*
X126703229Y-104003229D01*
X126705709Y-103996299D01*
X126708856Y-103989645D01*
X126712640Y-103983332D01*
X126717024Y-103977421D01*
X126721967Y-103971967D01*
X126727421Y-103967024D01*
X126733332Y-103962640D01*
X126739645Y-103958856D01*
X126746299Y-103955709D01*
X126753229Y-103953229D01*
X126760368Y-103951441D01*
X126767649Y-103950361D01*
X126775000Y-103950000D01*
X126925000Y-103950000D01*
X126932351Y-103950361D01*
G37*
G36*
X126432351Y-103950361D02*
G01*
X126439632Y-103951441D01*
X126446771Y-103953229D01*
X126453701Y-103955709D01*
X126460355Y-103958856D01*
X126466668Y-103962640D01*
X126472579Y-103967024D01*
X126478033Y-103971967D01*
X126482976Y-103977421D01*
X126487360Y-103983332D01*
X126491144Y-103989645D01*
X126494291Y-103996299D01*
X126496771Y-104003229D01*
X126498559Y-104010368D01*
X126499639Y-104017649D01*
X126500000Y-104025000D01*
X126500000Y-105425000D01*
X126499639Y-105432351D01*
X126498559Y-105439632D01*
X126496771Y-105446771D01*
X126494291Y-105453701D01*
X126491144Y-105460355D01*
X126487360Y-105466668D01*
X126482976Y-105472579D01*
X126478033Y-105478033D01*
X126472579Y-105482976D01*
X126466668Y-105487360D01*
X126460355Y-105491144D01*
X126453701Y-105494291D01*
X126446771Y-105496771D01*
X126439632Y-105498559D01*
X126432351Y-105499639D01*
X126425000Y-105500000D01*
X126275000Y-105500000D01*
X126267649Y-105499639D01*
X126260368Y-105498559D01*
X126253229Y-105496771D01*
X126246299Y-105494291D01*
X126239645Y-105491144D01*
X126233332Y-105487360D01*
X126227421Y-105482976D01*
X126221967Y-105478033D01*
X126217024Y-105472579D01*
X126212640Y-105466668D01*
X126208856Y-105460355D01*
X126205709Y-105453701D01*
X126203229Y-105446771D01*
X126201441Y-105439632D01*
X126200361Y-105432351D01*
X126200000Y-105425000D01*
X126200000Y-104025000D01*
X126200361Y-104017649D01*
X126201441Y-104010368D01*
X126203229Y-104003229D01*
X126205709Y-103996299D01*
X126208856Y-103989645D01*
X126212640Y-103983332D01*
X126217024Y-103977421D01*
X126221967Y-103971967D01*
X126227421Y-103967024D01*
X126233332Y-103962640D01*
X126239645Y-103958856D01*
X126246299Y-103955709D01*
X126253229Y-103953229D01*
X126260368Y-103951441D01*
X126267649Y-103950361D01*
X126275000Y-103950000D01*
X126425000Y-103950000D01*
X126432351Y-103950361D01*
G37*
G36*
X125932351Y-103950361D02*
G01*
X125939632Y-103951441D01*
X125946771Y-103953229D01*
X125953701Y-103955709D01*
X125960355Y-103958856D01*
X125966668Y-103962640D01*
X125972579Y-103967024D01*
X125978033Y-103971967D01*
X125982976Y-103977421D01*
X125987360Y-103983332D01*
X125991144Y-103989645D01*
X125994291Y-103996299D01*
X125996771Y-104003229D01*
X125998559Y-104010368D01*
X125999639Y-104017649D01*
X126000000Y-104025000D01*
X126000000Y-105425000D01*
X125999639Y-105432351D01*
X125998559Y-105439632D01*
X125996771Y-105446771D01*
X125994291Y-105453701D01*
X125991144Y-105460355D01*
X125987360Y-105466668D01*
X125982976Y-105472579D01*
X125978033Y-105478033D01*
X125972579Y-105482976D01*
X125966668Y-105487360D01*
X125960355Y-105491144D01*
X125953701Y-105494291D01*
X125946771Y-105496771D01*
X125939632Y-105498559D01*
X125932351Y-105499639D01*
X125925000Y-105500000D01*
X125775000Y-105500000D01*
X125767649Y-105499639D01*
X125760368Y-105498559D01*
X125753229Y-105496771D01*
X125746299Y-105494291D01*
X125739645Y-105491144D01*
X125733332Y-105487360D01*
X125727421Y-105482976D01*
X125721967Y-105478033D01*
X125717024Y-105472579D01*
X125712640Y-105466668D01*
X125708856Y-105460355D01*
X125705709Y-105453701D01*
X125703229Y-105446771D01*
X125701441Y-105439632D01*
X125700361Y-105432351D01*
X125700000Y-105425000D01*
X125700000Y-104025000D01*
X125700361Y-104017649D01*
X125701441Y-104010368D01*
X125703229Y-104003229D01*
X125705709Y-103996299D01*
X125708856Y-103989645D01*
X125712640Y-103983332D01*
X125717024Y-103977421D01*
X125721967Y-103971967D01*
X125727421Y-103967024D01*
X125733332Y-103962640D01*
X125739645Y-103958856D01*
X125746299Y-103955709D01*
X125753229Y-103953229D01*
X125760368Y-103951441D01*
X125767649Y-103950361D01*
X125775000Y-103950000D01*
X125925000Y-103950000D01*
X125932351Y-103950361D01*
G37*
G36*
X125432351Y-103950361D02*
G01*
X125439632Y-103951441D01*
X125446771Y-103953229D01*
X125453701Y-103955709D01*
X125460355Y-103958856D01*
X125466668Y-103962640D01*
X125472579Y-103967024D01*
X125478033Y-103971967D01*
X125482976Y-103977421D01*
X125487360Y-103983332D01*
X125491144Y-103989645D01*
X125494291Y-103996299D01*
X125496771Y-104003229D01*
X125498559Y-104010368D01*
X125499639Y-104017649D01*
X125500000Y-104025000D01*
X125500000Y-105425000D01*
X125499639Y-105432351D01*
X125498559Y-105439632D01*
X125496771Y-105446771D01*
X125494291Y-105453701D01*
X125491144Y-105460355D01*
X125487360Y-105466668D01*
X125482976Y-105472579D01*
X125478033Y-105478033D01*
X125472579Y-105482976D01*
X125466668Y-105487360D01*
X125460355Y-105491144D01*
X125453701Y-105494291D01*
X125446771Y-105496771D01*
X125439632Y-105498559D01*
X125432351Y-105499639D01*
X125425000Y-105500000D01*
X125275000Y-105500000D01*
X125267649Y-105499639D01*
X125260368Y-105498559D01*
X125253229Y-105496771D01*
X125246299Y-105494291D01*
X125239645Y-105491144D01*
X125233332Y-105487360D01*
X125227421Y-105482976D01*
X125221967Y-105478033D01*
X125217024Y-105472579D01*
X125212640Y-105466668D01*
X125208856Y-105460355D01*
X125205709Y-105453701D01*
X125203229Y-105446771D01*
X125201441Y-105439632D01*
X125200361Y-105432351D01*
X125200000Y-105425000D01*
X125200000Y-104025000D01*
X125200361Y-104017649D01*
X125201441Y-104010368D01*
X125203229Y-104003229D01*
X125205709Y-103996299D01*
X125208856Y-103989645D01*
X125212640Y-103983332D01*
X125217024Y-103977421D01*
X125221967Y-103971967D01*
X125227421Y-103967024D01*
X125233332Y-103962640D01*
X125239645Y-103958856D01*
X125246299Y-103955709D01*
X125253229Y-103953229D01*
X125260368Y-103951441D01*
X125267649Y-103950361D01*
X125275000Y-103950000D01*
X125425000Y-103950000D01*
X125432351Y-103950361D01*
G37*
G36*
X124132351Y-106500361D02*
G01*
X124139632Y-106501441D01*
X124146771Y-106503229D01*
X124153701Y-106505709D01*
X124160355Y-106508856D01*
X124166668Y-106512640D01*
X124172579Y-106517024D01*
X124178033Y-106521967D01*
X124182976Y-106527421D01*
X124187360Y-106533332D01*
X124191144Y-106539645D01*
X124194291Y-106546299D01*
X124196771Y-106553229D01*
X124198559Y-106560368D01*
X124199639Y-106567649D01*
X124200000Y-106575000D01*
X124200000Y-106725000D01*
X124199639Y-106732351D01*
X124198559Y-106739632D01*
X124196771Y-106746771D01*
X124194291Y-106753701D01*
X124191144Y-106760355D01*
X124187360Y-106766668D01*
X124182976Y-106772579D01*
X124178033Y-106778033D01*
X124172579Y-106782976D01*
X124166668Y-106787360D01*
X124160355Y-106791144D01*
X124153701Y-106794291D01*
X124146771Y-106796771D01*
X124139632Y-106798559D01*
X124132351Y-106799639D01*
X124125000Y-106800000D01*
X122725000Y-106800000D01*
X122717649Y-106799639D01*
X122710368Y-106798559D01*
X122703229Y-106796771D01*
X122696299Y-106794291D01*
X122689645Y-106791144D01*
X122683332Y-106787360D01*
X122677421Y-106782976D01*
X122671967Y-106778033D01*
X122667024Y-106772579D01*
X122662640Y-106766668D01*
X122658856Y-106760355D01*
X122655709Y-106753701D01*
X122653229Y-106746771D01*
X122651441Y-106739632D01*
X122650361Y-106732351D01*
X122650000Y-106725000D01*
X122650000Y-106575000D01*
X122650361Y-106567649D01*
X122651441Y-106560368D01*
X122653229Y-106553229D01*
X122655709Y-106546299D01*
X122658856Y-106539645D01*
X122662640Y-106533332D01*
X122667024Y-106527421D01*
X122671967Y-106521967D01*
X122677421Y-106517024D01*
X122683332Y-106512640D01*
X122689645Y-106508856D01*
X122696299Y-106505709D01*
X122703229Y-106503229D01*
X122710368Y-106501441D01*
X122717649Y-106500361D01*
X122725000Y-106500000D01*
X124125000Y-106500000D01*
X124132351Y-106500361D01*
G37*
G36*
X124132351Y-107000361D02*
G01*
X124139632Y-107001441D01*
X124146771Y-107003229D01*
X124153701Y-107005709D01*
X124160355Y-107008856D01*
X124166668Y-107012640D01*
X124172579Y-107017024D01*
X124178033Y-107021967D01*
X124182976Y-107027421D01*
X124187360Y-107033332D01*
X124191144Y-107039645D01*
X124194291Y-107046299D01*
X124196771Y-107053229D01*
X124198559Y-107060368D01*
X124199639Y-107067649D01*
X124200000Y-107075000D01*
X124200000Y-107225000D01*
X124199639Y-107232351D01*
X124198559Y-107239632D01*
X124196771Y-107246771D01*
X124194291Y-107253701D01*
X124191144Y-107260355D01*
X124187360Y-107266668D01*
X124182976Y-107272579D01*
X124178033Y-107278033D01*
X124172579Y-107282976D01*
X124166668Y-107287360D01*
X124160355Y-107291144D01*
X124153701Y-107294291D01*
X124146771Y-107296771D01*
X124139632Y-107298559D01*
X124132351Y-107299639D01*
X124125000Y-107300000D01*
X122725000Y-107300000D01*
X122717649Y-107299639D01*
X122710368Y-107298559D01*
X122703229Y-107296771D01*
X122696299Y-107294291D01*
X122689645Y-107291144D01*
X122683332Y-107287360D01*
X122677421Y-107282976D01*
X122671967Y-107278033D01*
X122667024Y-107272579D01*
X122662640Y-107266668D01*
X122658856Y-107260355D01*
X122655709Y-107253701D01*
X122653229Y-107246771D01*
X122651441Y-107239632D01*
X122650361Y-107232351D01*
X122650000Y-107225000D01*
X122650000Y-107075000D01*
X122650361Y-107067649D01*
X122651441Y-107060368D01*
X122653229Y-107053229D01*
X122655709Y-107046299D01*
X122658856Y-107039645D01*
X122662640Y-107033332D01*
X122667024Y-107027421D01*
X122671967Y-107021967D01*
X122677421Y-107017024D01*
X122683332Y-107012640D01*
X122689645Y-107008856D01*
X122696299Y-107005709D01*
X122703229Y-107003229D01*
X122710368Y-107001441D01*
X122717649Y-107000361D01*
X122725000Y-107000000D01*
X124125000Y-107000000D01*
X124132351Y-107000361D01*
G37*
G36*
X124132351Y-107500361D02*
G01*
X124139632Y-107501441D01*
X124146771Y-107503229D01*
X124153701Y-107505709D01*
X124160355Y-107508856D01*
X124166668Y-107512640D01*
X124172579Y-107517024D01*
X124178033Y-107521967D01*
X124182976Y-107527421D01*
X124187360Y-107533332D01*
X124191144Y-107539645D01*
X124194291Y-107546299D01*
X124196771Y-107553229D01*
X124198559Y-107560368D01*
X124199639Y-107567649D01*
X124200000Y-107575000D01*
X124200000Y-107725000D01*
X124199639Y-107732351D01*
X124198559Y-107739632D01*
X124196771Y-107746771D01*
X124194291Y-107753701D01*
X124191144Y-107760355D01*
X124187360Y-107766668D01*
X124182976Y-107772579D01*
X124178033Y-107778033D01*
X124172579Y-107782976D01*
X124166668Y-107787360D01*
X124160355Y-107791144D01*
X124153701Y-107794291D01*
X124146771Y-107796771D01*
X124139632Y-107798559D01*
X124132351Y-107799639D01*
X124125000Y-107800000D01*
X122725000Y-107800000D01*
X122717649Y-107799639D01*
X122710368Y-107798559D01*
X122703229Y-107796771D01*
X122696299Y-107794291D01*
X122689645Y-107791144D01*
X122683332Y-107787360D01*
X122677421Y-107782976D01*
X122671967Y-107778033D01*
X122667024Y-107772579D01*
X122662640Y-107766668D01*
X122658856Y-107760355D01*
X122655709Y-107753701D01*
X122653229Y-107746771D01*
X122651441Y-107739632D01*
X122650361Y-107732351D01*
X122650000Y-107725000D01*
X122650000Y-107575000D01*
X122650361Y-107567649D01*
X122651441Y-107560368D01*
X122653229Y-107553229D01*
X122655709Y-107546299D01*
X122658856Y-107539645D01*
X122662640Y-107533332D01*
X122667024Y-107527421D01*
X122671967Y-107521967D01*
X122677421Y-107517024D01*
X122683332Y-107512640D01*
X122689645Y-107508856D01*
X122696299Y-107505709D01*
X122703229Y-107503229D01*
X122710368Y-107501441D01*
X122717649Y-107500361D01*
X122725000Y-107500000D01*
X124125000Y-107500000D01*
X124132351Y-107500361D01*
G37*
G36*
X124132351Y-108000361D02*
G01*
X124139632Y-108001441D01*
X124146771Y-108003229D01*
X124153701Y-108005709D01*
X124160355Y-108008856D01*
X124166668Y-108012640D01*
X124172579Y-108017024D01*
X124178033Y-108021967D01*
X124182976Y-108027421D01*
X124187360Y-108033332D01*
X124191144Y-108039645D01*
X124194291Y-108046299D01*
X124196771Y-108053229D01*
X124198559Y-108060368D01*
X124199639Y-108067649D01*
X124200000Y-108075000D01*
X124200000Y-108225000D01*
X124199639Y-108232351D01*
X124198559Y-108239632D01*
X124196771Y-108246771D01*
X124194291Y-108253701D01*
X124191144Y-108260355D01*
X124187360Y-108266668D01*
X124182976Y-108272579D01*
X124178033Y-108278033D01*
X124172579Y-108282976D01*
X124166668Y-108287360D01*
X124160355Y-108291144D01*
X124153701Y-108294291D01*
X124146771Y-108296771D01*
X124139632Y-108298559D01*
X124132351Y-108299639D01*
X124125000Y-108300000D01*
X122725000Y-108300000D01*
X122717649Y-108299639D01*
X122710368Y-108298559D01*
X122703229Y-108296771D01*
X122696299Y-108294291D01*
X122689645Y-108291144D01*
X122683332Y-108287360D01*
X122677421Y-108282976D01*
X122671967Y-108278033D01*
X122667024Y-108272579D01*
X122662640Y-108266668D01*
X122658856Y-108260355D01*
X122655709Y-108253701D01*
X122653229Y-108246771D01*
X122651441Y-108239632D01*
X122650361Y-108232351D01*
X122650000Y-108225000D01*
X122650000Y-108075000D01*
X122650361Y-108067649D01*
X122651441Y-108060368D01*
X122653229Y-108053229D01*
X122655709Y-108046299D01*
X122658856Y-108039645D01*
X122662640Y-108033332D01*
X122667024Y-108027421D01*
X122671967Y-108021967D01*
X122677421Y-108017024D01*
X122683332Y-108012640D01*
X122689645Y-108008856D01*
X122696299Y-108005709D01*
X122703229Y-108003229D01*
X122710368Y-108001441D01*
X122717649Y-108000361D01*
X122725000Y-108000000D01*
X124125000Y-108000000D01*
X124132351Y-108000361D01*
G37*
G36*
X124132351Y-108500361D02*
G01*
X124139632Y-108501441D01*
X124146771Y-108503229D01*
X124153701Y-108505709D01*
X124160355Y-108508856D01*
X124166668Y-108512640D01*
X124172579Y-108517024D01*
X124178033Y-108521967D01*
X124182976Y-108527421D01*
X124187360Y-108533332D01*
X124191144Y-108539645D01*
X124194291Y-108546299D01*
X124196771Y-108553229D01*
X124198559Y-108560368D01*
X124199639Y-108567649D01*
X124200000Y-108575000D01*
X124200000Y-108725000D01*
X124199639Y-108732351D01*
X124198559Y-108739632D01*
X124196771Y-108746771D01*
X124194291Y-108753701D01*
X124191144Y-108760355D01*
X124187360Y-108766668D01*
X124182976Y-108772579D01*
X124178033Y-108778033D01*
X124172579Y-108782976D01*
X124166668Y-108787360D01*
X124160355Y-108791144D01*
X124153701Y-108794291D01*
X124146771Y-108796771D01*
X124139632Y-108798559D01*
X124132351Y-108799639D01*
X124125000Y-108800000D01*
X122725000Y-108800000D01*
X122717649Y-108799639D01*
X122710368Y-108798559D01*
X122703229Y-108796771D01*
X122696299Y-108794291D01*
X122689645Y-108791144D01*
X122683332Y-108787360D01*
X122677421Y-108782976D01*
X122671967Y-108778033D01*
X122667024Y-108772579D01*
X122662640Y-108766668D01*
X122658856Y-108760355D01*
X122655709Y-108753701D01*
X122653229Y-108746771D01*
X122651441Y-108739632D01*
X122650361Y-108732351D01*
X122650000Y-108725000D01*
X122650000Y-108575000D01*
X122650361Y-108567649D01*
X122651441Y-108560368D01*
X122653229Y-108553229D01*
X122655709Y-108546299D01*
X122658856Y-108539645D01*
X122662640Y-108533332D01*
X122667024Y-108527421D01*
X122671967Y-108521967D01*
X122677421Y-108517024D01*
X122683332Y-108512640D01*
X122689645Y-108508856D01*
X122696299Y-108505709D01*
X122703229Y-108503229D01*
X122710368Y-108501441D01*
X122717649Y-108500361D01*
X122725000Y-108500000D01*
X124125000Y-108500000D01*
X124132351Y-108500361D01*
G37*
G36*
X124132351Y-109000361D02*
G01*
X124139632Y-109001441D01*
X124146771Y-109003229D01*
X124153701Y-109005709D01*
X124160355Y-109008856D01*
X124166668Y-109012640D01*
X124172579Y-109017024D01*
X124178033Y-109021967D01*
X124182976Y-109027421D01*
X124187360Y-109033332D01*
X124191144Y-109039645D01*
X124194291Y-109046299D01*
X124196771Y-109053229D01*
X124198559Y-109060368D01*
X124199639Y-109067649D01*
X124200000Y-109075000D01*
X124200000Y-109225000D01*
X124199639Y-109232351D01*
X124198559Y-109239632D01*
X124196771Y-109246771D01*
X124194291Y-109253701D01*
X124191144Y-109260355D01*
X124187360Y-109266668D01*
X124182976Y-109272579D01*
X124178033Y-109278033D01*
X124172579Y-109282976D01*
X124166668Y-109287360D01*
X124160355Y-109291144D01*
X124153701Y-109294291D01*
X124146771Y-109296771D01*
X124139632Y-109298559D01*
X124132351Y-109299639D01*
X124125000Y-109300000D01*
X122725000Y-109300000D01*
X122717649Y-109299639D01*
X122710368Y-109298559D01*
X122703229Y-109296771D01*
X122696299Y-109294291D01*
X122689645Y-109291144D01*
X122683332Y-109287360D01*
X122677421Y-109282976D01*
X122671967Y-109278033D01*
X122667024Y-109272579D01*
X122662640Y-109266668D01*
X122658856Y-109260355D01*
X122655709Y-109253701D01*
X122653229Y-109246771D01*
X122651441Y-109239632D01*
X122650361Y-109232351D01*
X122650000Y-109225000D01*
X122650000Y-109075000D01*
X122650361Y-109067649D01*
X122651441Y-109060368D01*
X122653229Y-109053229D01*
X122655709Y-109046299D01*
X122658856Y-109039645D01*
X122662640Y-109033332D01*
X122667024Y-109027421D01*
X122671967Y-109021967D01*
X122677421Y-109017024D01*
X122683332Y-109012640D01*
X122689645Y-109008856D01*
X122696299Y-109005709D01*
X122703229Y-109003229D01*
X122710368Y-109001441D01*
X122717649Y-109000361D01*
X122725000Y-109000000D01*
X124125000Y-109000000D01*
X124132351Y-109000361D01*
G37*
G36*
X124132351Y-109500361D02*
G01*
X124139632Y-109501441D01*
X124146771Y-109503229D01*
X124153701Y-109505709D01*
X124160355Y-109508856D01*
X124166668Y-109512640D01*
X124172579Y-109517024D01*
X124178033Y-109521967D01*
X124182976Y-109527421D01*
X124187360Y-109533332D01*
X124191144Y-109539645D01*
X124194291Y-109546299D01*
X124196771Y-109553229D01*
X124198559Y-109560368D01*
X124199639Y-109567649D01*
X124200000Y-109575000D01*
X124200000Y-109725000D01*
X124199639Y-109732351D01*
X124198559Y-109739632D01*
X124196771Y-109746771D01*
X124194291Y-109753701D01*
X124191144Y-109760355D01*
X124187360Y-109766668D01*
X124182976Y-109772579D01*
X124178033Y-109778033D01*
X124172579Y-109782976D01*
X124166668Y-109787360D01*
X124160355Y-109791144D01*
X124153701Y-109794291D01*
X124146771Y-109796771D01*
X124139632Y-109798559D01*
X124132351Y-109799639D01*
X124125000Y-109800000D01*
X122725000Y-109800000D01*
X122717649Y-109799639D01*
X122710368Y-109798559D01*
X122703229Y-109796771D01*
X122696299Y-109794291D01*
X122689645Y-109791144D01*
X122683332Y-109787360D01*
X122677421Y-109782976D01*
X122671967Y-109778033D01*
X122667024Y-109772579D01*
X122662640Y-109766668D01*
X122658856Y-109760355D01*
X122655709Y-109753701D01*
X122653229Y-109746771D01*
X122651441Y-109739632D01*
X122650361Y-109732351D01*
X122650000Y-109725000D01*
X122650000Y-109575000D01*
X122650361Y-109567649D01*
X122651441Y-109560368D01*
X122653229Y-109553229D01*
X122655709Y-109546299D01*
X122658856Y-109539645D01*
X122662640Y-109533332D01*
X122667024Y-109527421D01*
X122671967Y-109521967D01*
X122677421Y-109517024D01*
X122683332Y-109512640D01*
X122689645Y-109508856D01*
X122696299Y-109505709D01*
X122703229Y-109503229D01*
X122710368Y-109501441D01*
X122717649Y-109500361D01*
X122725000Y-109500000D01*
X124125000Y-109500000D01*
X124132351Y-109500361D01*
G37*
G36*
X124132351Y-110000361D02*
G01*
X124139632Y-110001441D01*
X124146771Y-110003229D01*
X124153701Y-110005709D01*
X124160355Y-110008856D01*
X124166668Y-110012640D01*
X124172579Y-110017024D01*
X124178033Y-110021967D01*
X124182976Y-110027421D01*
X124187360Y-110033332D01*
X124191144Y-110039645D01*
X124194291Y-110046299D01*
X124196771Y-110053229D01*
X124198559Y-110060368D01*
X124199639Y-110067649D01*
X124200000Y-110075000D01*
X124200000Y-110225000D01*
X124199639Y-110232351D01*
X124198559Y-110239632D01*
X124196771Y-110246771D01*
X124194291Y-110253701D01*
X124191144Y-110260355D01*
X124187360Y-110266668D01*
X124182976Y-110272579D01*
X124178033Y-110278033D01*
X124172579Y-110282976D01*
X124166668Y-110287360D01*
X124160355Y-110291144D01*
X124153701Y-110294291D01*
X124146771Y-110296771D01*
X124139632Y-110298559D01*
X124132351Y-110299639D01*
X124125000Y-110300000D01*
X122725000Y-110300000D01*
X122717649Y-110299639D01*
X122710368Y-110298559D01*
X122703229Y-110296771D01*
X122696299Y-110294291D01*
X122689645Y-110291144D01*
X122683332Y-110287360D01*
X122677421Y-110282976D01*
X122671967Y-110278033D01*
X122667024Y-110272579D01*
X122662640Y-110266668D01*
X122658856Y-110260355D01*
X122655709Y-110253701D01*
X122653229Y-110246771D01*
X122651441Y-110239632D01*
X122650361Y-110232351D01*
X122650000Y-110225000D01*
X122650000Y-110075000D01*
X122650361Y-110067649D01*
X122651441Y-110060368D01*
X122653229Y-110053229D01*
X122655709Y-110046299D01*
X122658856Y-110039645D01*
X122662640Y-110033332D01*
X122667024Y-110027421D01*
X122671967Y-110021967D01*
X122677421Y-110017024D01*
X122683332Y-110012640D01*
X122689645Y-110008856D01*
X122696299Y-110005709D01*
X122703229Y-110003229D01*
X122710368Y-110001441D01*
X122717649Y-110000361D01*
X122725000Y-110000000D01*
X124125000Y-110000000D01*
X124132351Y-110000361D01*
G37*
G36*
X124132351Y-110500361D02*
G01*
X124139632Y-110501441D01*
X124146771Y-110503229D01*
X124153701Y-110505709D01*
X124160355Y-110508856D01*
X124166668Y-110512640D01*
X124172579Y-110517024D01*
X124178033Y-110521967D01*
X124182976Y-110527421D01*
X124187360Y-110533332D01*
X124191144Y-110539645D01*
X124194291Y-110546299D01*
X124196771Y-110553229D01*
X124198559Y-110560368D01*
X124199639Y-110567649D01*
X124200000Y-110575000D01*
X124200000Y-110725000D01*
X124199639Y-110732351D01*
X124198559Y-110739632D01*
X124196771Y-110746771D01*
X124194291Y-110753701D01*
X124191144Y-110760355D01*
X124187360Y-110766668D01*
X124182976Y-110772579D01*
X124178033Y-110778033D01*
X124172579Y-110782976D01*
X124166668Y-110787360D01*
X124160355Y-110791144D01*
X124153701Y-110794291D01*
X124146771Y-110796771D01*
X124139632Y-110798559D01*
X124132351Y-110799639D01*
X124125000Y-110800000D01*
X122725000Y-110800000D01*
X122717649Y-110799639D01*
X122710368Y-110798559D01*
X122703229Y-110796771D01*
X122696299Y-110794291D01*
X122689645Y-110791144D01*
X122683332Y-110787360D01*
X122677421Y-110782976D01*
X122671967Y-110778033D01*
X122667024Y-110772579D01*
X122662640Y-110766668D01*
X122658856Y-110760355D01*
X122655709Y-110753701D01*
X122653229Y-110746771D01*
X122651441Y-110739632D01*
X122650361Y-110732351D01*
X122650000Y-110725000D01*
X122650000Y-110575000D01*
X122650361Y-110567649D01*
X122651441Y-110560368D01*
X122653229Y-110553229D01*
X122655709Y-110546299D01*
X122658856Y-110539645D01*
X122662640Y-110533332D01*
X122667024Y-110527421D01*
X122671967Y-110521967D01*
X122677421Y-110517024D01*
X122683332Y-110512640D01*
X122689645Y-110508856D01*
X122696299Y-110505709D01*
X122703229Y-110503229D01*
X122710368Y-110501441D01*
X122717649Y-110500361D01*
X122725000Y-110500000D01*
X124125000Y-110500000D01*
X124132351Y-110500361D01*
G37*
G36*
X124132351Y-111000361D02*
G01*
X124139632Y-111001441D01*
X124146771Y-111003229D01*
X124153701Y-111005709D01*
X124160355Y-111008856D01*
X124166668Y-111012640D01*
X124172579Y-111017024D01*
X124178033Y-111021967D01*
X124182976Y-111027421D01*
X124187360Y-111033332D01*
X124191144Y-111039645D01*
X124194291Y-111046299D01*
X124196771Y-111053229D01*
X124198559Y-111060368D01*
X124199639Y-111067649D01*
X124200000Y-111075000D01*
X124200000Y-111225000D01*
X124199639Y-111232351D01*
X124198559Y-111239632D01*
X124196771Y-111246771D01*
X124194291Y-111253701D01*
X124191144Y-111260355D01*
X124187360Y-111266668D01*
X124182976Y-111272579D01*
X124178033Y-111278033D01*
X124172579Y-111282976D01*
X124166668Y-111287360D01*
X124160355Y-111291144D01*
X124153701Y-111294291D01*
X124146771Y-111296771D01*
X124139632Y-111298559D01*
X124132351Y-111299639D01*
X124125000Y-111300000D01*
X122725000Y-111300000D01*
X122717649Y-111299639D01*
X122710368Y-111298559D01*
X122703229Y-111296771D01*
X122696299Y-111294291D01*
X122689645Y-111291144D01*
X122683332Y-111287360D01*
X122677421Y-111282976D01*
X122671967Y-111278033D01*
X122667024Y-111272579D01*
X122662640Y-111266668D01*
X122658856Y-111260355D01*
X122655709Y-111253701D01*
X122653229Y-111246771D01*
X122651441Y-111239632D01*
X122650361Y-111232351D01*
X122650000Y-111225000D01*
X122650000Y-111075000D01*
X122650361Y-111067649D01*
X122651441Y-111060368D01*
X122653229Y-111053229D01*
X122655709Y-111046299D01*
X122658856Y-111039645D01*
X122662640Y-111033332D01*
X122667024Y-111027421D01*
X122671967Y-111021967D01*
X122677421Y-111017024D01*
X122683332Y-111012640D01*
X122689645Y-111008856D01*
X122696299Y-111005709D01*
X122703229Y-111003229D01*
X122710368Y-111001441D01*
X122717649Y-111000361D01*
X122725000Y-111000000D01*
X124125000Y-111000000D01*
X124132351Y-111000361D01*
G37*
G36*
X124132351Y-111500361D02*
G01*
X124139632Y-111501441D01*
X124146771Y-111503229D01*
X124153701Y-111505709D01*
X124160355Y-111508856D01*
X124166668Y-111512640D01*
X124172579Y-111517024D01*
X124178033Y-111521967D01*
X124182976Y-111527421D01*
X124187360Y-111533332D01*
X124191144Y-111539645D01*
X124194291Y-111546299D01*
X124196771Y-111553229D01*
X124198559Y-111560368D01*
X124199639Y-111567649D01*
X124200000Y-111575000D01*
X124200000Y-111725000D01*
X124199639Y-111732351D01*
X124198559Y-111739632D01*
X124196771Y-111746771D01*
X124194291Y-111753701D01*
X124191144Y-111760355D01*
X124187360Y-111766668D01*
X124182976Y-111772579D01*
X124178033Y-111778033D01*
X124172579Y-111782976D01*
X124166668Y-111787360D01*
X124160355Y-111791144D01*
X124153701Y-111794291D01*
X124146771Y-111796771D01*
X124139632Y-111798559D01*
X124132351Y-111799639D01*
X124125000Y-111800000D01*
X122725000Y-111800000D01*
X122717649Y-111799639D01*
X122710368Y-111798559D01*
X122703229Y-111796771D01*
X122696299Y-111794291D01*
X122689645Y-111791144D01*
X122683332Y-111787360D01*
X122677421Y-111782976D01*
X122671967Y-111778033D01*
X122667024Y-111772579D01*
X122662640Y-111766668D01*
X122658856Y-111760355D01*
X122655709Y-111753701D01*
X122653229Y-111746771D01*
X122651441Y-111739632D01*
X122650361Y-111732351D01*
X122650000Y-111725000D01*
X122650000Y-111575000D01*
X122650361Y-111567649D01*
X122651441Y-111560368D01*
X122653229Y-111553229D01*
X122655709Y-111546299D01*
X122658856Y-111539645D01*
X122662640Y-111533332D01*
X122667024Y-111527421D01*
X122671967Y-111521967D01*
X122677421Y-111517024D01*
X122683332Y-111512640D01*
X122689645Y-111508856D01*
X122696299Y-111505709D01*
X122703229Y-111503229D01*
X122710368Y-111501441D01*
X122717649Y-111500361D01*
X122725000Y-111500000D01*
X124125000Y-111500000D01*
X124132351Y-111500361D01*
G37*
G36*
X124132351Y-112000361D02*
G01*
X124139632Y-112001441D01*
X124146771Y-112003229D01*
X124153701Y-112005709D01*
X124160355Y-112008856D01*
X124166668Y-112012640D01*
X124172579Y-112017024D01*
X124178033Y-112021967D01*
X124182976Y-112027421D01*
X124187360Y-112033332D01*
X124191144Y-112039645D01*
X124194291Y-112046299D01*
X124196771Y-112053229D01*
X124198559Y-112060368D01*
X124199639Y-112067649D01*
X124200000Y-112075000D01*
X124200000Y-112225000D01*
X124199639Y-112232351D01*
X124198559Y-112239632D01*
X124196771Y-112246771D01*
X124194291Y-112253701D01*
X124191144Y-112260355D01*
X124187360Y-112266668D01*
X124182976Y-112272579D01*
X124178033Y-112278033D01*
X124172579Y-112282976D01*
X124166668Y-112287360D01*
X124160355Y-112291144D01*
X124153701Y-112294291D01*
X124146771Y-112296771D01*
X124139632Y-112298559D01*
X124132351Y-112299639D01*
X124125000Y-112300000D01*
X122725000Y-112300000D01*
X122717649Y-112299639D01*
X122710368Y-112298559D01*
X122703229Y-112296771D01*
X122696299Y-112294291D01*
X122689645Y-112291144D01*
X122683332Y-112287360D01*
X122677421Y-112282976D01*
X122671967Y-112278033D01*
X122667024Y-112272579D01*
X122662640Y-112266668D01*
X122658856Y-112260355D01*
X122655709Y-112253701D01*
X122653229Y-112246771D01*
X122651441Y-112239632D01*
X122650361Y-112232351D01*
X122650000Y-112225000D01*
X122650000Y-112075000D01*
X122650361Y-112067649D01*
X122651441Y-112060368D01*
X122653229Y-112053229D01*
X122655709Y-112046299D01*
X122658856Y-112039645D01*
X122662640Y-112033332D01*
X122667024Y-112027421D01*
X122671967Y-112021967D01*
X122677421Y-112017024D01*
X122683332Y-112012640D01*
X122689645Y-112008856D01*
X122696299Y-112005709D01*
X122703229Y-112003229D01*
X122710368Y-112001441D01*
X122717649Y-112000361D01*
X122725000Y-112000000D01*
X124125000Y-112000000D01*
X124132351Y-112000361D01*
G37*
G36*
X124132351Y-112500361D02*
G01*
X124139632Y-112501441D01*
X124146771Y-112503229D01*
X124153701Y-112505709D01*
X124160355Y-112508856D01*
X124166668Y-112512640D01*
X124172579Y-112517024D01*
X124178033Y-112521967D01*
X124182976Y-112527421D01*
X124187360Y-112533332D01*
X124191144Y-112539645D01*
X124194291Y-112546299D01*
X124196771Y-112553229D01*
X124198559Y-112560368D01*
X124199639Y-112567649D01*
X124200000Y-112575000D01*
X124200000Y-112725000D01*
X124199639Y-112732351D01*
X124198559Y-112739632D01*
X124196771Y-112746771D01*
X124194291Y-112753701D01*
X124191144Y-112760355D01*
X124187360Y-112766668D01*
X124182976Y-112772579D01*
X124178033Y-112778033D01*
X124172579Y-112782976D01*
X124166668Y-112787360D01*
X124160355Y-112791144D01*
X124153701Y-112794291D01*
X124146771Y-112796771D01*
X124139632Y-112798559D01*
X124132351Y-112799639D01*
X124125000Y-112800000D01*
X122725000Y-112800000D01*
X122717649Y-112799639D01*
X122710368Y-112798559D01*
X122703229Y-112796771D01*
X122696299Y-112794291D01*
X122689645Y-112791144D01*
X122683332Y-112787360D01*
X122677421Y-112782976D01*
X122671967Y-112778033D01*
X122667024Y-112772579D01*
X122662640Y-112766668D01*
X122658856Y-112760355D01*
X122655709Y-112753701D01*
X122653229Y-112746771D01*
X122651441Y-112739632D01*
X122650361Y-112732351D01*
X122650000Y-112725000D01*
X122650000Y-112575000D01*
X122650361Y-112567649D01*
X122651441Y-112560368D01*
X122653229Y-112553229D01*
X122655709Y-112546299D01*
X122658856Y-112539645D01*
X122662640Y-112533332D01*
X122667024Y-112527421D01*
X122671967Y-112521967D01*
X122677421Y-112517024D01*
X122683332Y-112512640D01*
X122689645Y-112508856D01*
X122696299Y-112505709D01*
X122703229Y-112503229D01*
X122710368Y-112501441D01*
X122717649Y-112500361D01*
X122725000Y-112500000D01*
X124125000Y-112500000D01*
X124132351Y-112500361D01*
G37*
G36*
X124132351Y-113000361D02*
G01*
X124139632Y-113001441D01*
X124146771Y-113003229D01*
X124153701Y-113005709D01*
X124160355Y-113008856D01*
X124166668Y-113012640D01*
X124172579Y-113017024D01*
X124178033Y-113021967D01*
X124182976Y-113027421D01*
X124187360Y-113033332D01*
X124191144Y-113039645D01*
X124194291Y-113046299D01*
X124196771Y-113053229D01*
X124198559Y-113060368D01*
X124199639Y-113067649D01*
X124200000Y-113075000D01*
X124200000Y-113225000D01*
X124199639Y-113232351D01*
X124198559Y-113239632D01*
X124196771Y-113246771D01*
X124194291Y-113253701D01*
X124191144Y-113260355D01*
X124187360Y-113266668D01*
X124182976Y-113272579D01*
X124178033Y-113278033D01*
X124172579Y-113282976D01*
X124166668Y-113287360D01*
X124160355Y-113291144D01*
X124153701Y-113294291D01*
X124146771Y-113296771D01*
X124139632Y-113298559D01*
X124132351Y-113299639D01*
X124125000Y-113300000D01*
X122725000Y-113300000D01*
X122717649Y-113299639D01*
X122710368Y-113298559D01*
X122703229Y-113296771D01*
X122696299Y-113294291D01*
X122689645Y-113291144D01*
X122683332Y-113287360D01*
X122677421Y-113282976D01*
X122671967Y-113278033D01*
X122667024Y-113272579D01*
X122662640Y-113266668D01*
X122658856Y-113260355D01*
X122655709Y-113253701D01*
X122653229Y-113246771D01*
X122651441Y-113239632D01*
X122650361Y-113232351D01*
X122650000Y-113225000D01*
X122650000Y-113075000D01*
X122650361Y-113067649D01*
X122651441Y-113060368D01*
X122653229Y-113053229D01*
X122655709Y-113046299D01*
X122658856Y-113039645D01*
X122662640Y-113033332D01*
X122667024Y-113027421D01*
X122671967Y-113021967D01*
X122677421Y-113017024D01*
X122683332Y-113012640D01*
X122689645Y-113008856D01*
X122696299Y-113005709D01*
X122703229Y-113003229D01*
X122710368Y-113001441D01*
X122717649Y-113000361D01*
X122725000Y-113000000D01*
X124125000Y-113000000D01*
X124132351Y-113000361D01*
G37*
G36*
X124132351Y-113500361D02*
G01*
X124139632Y-113501441D01*
X124146771Y-113503229D01*
X124153701Y-113505709D01*
X124160355Y-113508856D01*
X124166668Y-113512640D01*
X124172579Y-113517024D01*
X124178033Y-113521967D01*
X124182976Y-113527421D01*
X124187360Y-113533332D01*
X124191144Y-113539645D01*
X124194291Y-113546299D01*
X124196771Y-113553229D01*
X124198559Y-113560368D01*
X124199639Y-113567649D01*
X124200000Y-113575000D01*
X124200000Y-113725000D01*
X124199639Y-113732351D01*
X124198559Y-113739632D01*
X124196771Y-113746771D01*
X124194291Y-113753701D01*
X124191144Y-113760355D01*
X124187360Y-113766668D01*
X124182976Y-113772579D01*
X124178033Y-113778033D01*
X124172579Y-113782976D01*
X124166668Y-113787360D01*
X124160355Y-113791144D01*
X124153701Y-113794291D01*
X124146771Y-113796771D01*
X124139632Y-113798559D01*
X124132351Y-113799639D01*
X124125000Y-113800000D01*
X122725000Y-113800000D01*
X122717649Y-113799639D01*
X122710368Y-113798559D01*
X122703229Y-113796771D01*
X122696299Y-113794291D01*
X122689645Y-113791144D01*
X122683332Y-113787360D01*
X122677421Y-113782976D01*
X122671967Y-113778033D01*
X122667024Y-113772579D01*
X122662640Y-113766668D01*
X122658856Y-113760355D01*
X122655709Y-113753701D01*
X122653229Y-113746771D01*
X122651441Y-113739632D01*
X122650361Y-113732351D01*
X122650000Y-113725000D01*
X122650000Y-113575000D01*
X122650361Y-113567649D01*
X122651441Y-113560368D01*
X122653229Y-113553229D01*
X122655709Y-113546299D01*
X122658856Y-113539645D01*
X122662640Y-113533332D01*
X122667024Y-113527421D01*
X122671967Y-113521967D01*
X122677421Y-113517024D01*
X122683332Y-113512640D01*
X122689645Y-113508856D01*
X122696299Y-113505709D01*
X122703229Y-113503229D01*
X122710368Y-113501441D01*
X122717649Y-113500361D01*
X122725000Y-113500000D01*
X124125000Y-113500000D01*
X124132351Y-113500361D01*
G37*
G36*
X124132351Y-114000361D02*
G01*
X124139632Y-114001441D01*
X124146771Y-114003229D01*
X124153701Y-114005709D01*
X124160355Y-114008856D01*
X124166668Y-114012640D01*
X124172579Y-114017024D01*
X124178033Y-114021967D01*
X124182976Y-114027421D01*
X124187360Y-114033332D01*
X124191144Y-114039645D01*
X124194291Y-114046299D01*
X124196771Y-114053229D01*
X124198559Y-114060368D01*
X124199639Y-114067649D01*
X124200000Y-114075000D01*
X124200000Y-114225000D01*
X124199639Y-114232351D01*
X124198559Y-114239632D01*
X124196771Y-114246771D01*
X124194291Y-114253701D01*
X124191144Y-114260355D01*
X124187360Y-114266668D01*
X124182976Y-114272579D01*
X124178033Y-114278033D01*
X124172579Y-114282976D01*
X124166668Y-114287360D01*
X124160355Y-114291144D01*
X124153701Y-114294291D01*
X124146771Y-114296771D01*
X124139632Y-114298559D01*
X124132351Y-114299639D01*
X124125000Y-114300000D01*
X122725000Y-114300000D01*
X122717649Y-114299639D01*
X122710368Y-114298559D01*
X122703229Y-114296771D01*
X122696299Y-114294291D01*
X122689645Y-114291144D01*
X122683332Y-114287360D01*
X122677421Y-114282976D01*
X122671967Y-114278033D01*
X122667024Y-114272579D01*
X122662640Y-114266668D01*
X122658856Y-114260355D01*
X122655709Y-114253701D01*
X122653229Y-114246771D01*
X122651441Y-114239632D01*
X122650361Y-114232351D01*
X122650000Y-114225000D01*
X122650000Y-114075000D01*
X122650361Y-114067649D01*
X122651441Y-114060368D01*
X122653229Y-114053229D01*
X122655709Y-114046299D01*
X122658856Y-114039645D01*
X122662640Y-114033332D01*
X122667024Y-114027421D01*
X122671967Y-114021967D01*
X122677421Y-114017024D01*
X122683332Y-114012640D01*
X122689645Y-114008856D01*
X122696299Y-114005709D01*
X122703229Y-114003229D01*
X122710368Y-114001441D01*
X122717649Y-114000361D01*
X122725000Y-114000000D01*
X124125000Y-114000000D01*
X124132351Y-114000361D01*
G37*
G36*
X125432351Y-115300361D02*
G01*
X125439632Y-115301441D01*
X125446771Y-115303229D01*
X125453701Y-115305709D01*
X125460355Y-115308856D01*
X125466668Y-115312640D01*
X125472579Y-115317024D01*
X125478033Y-115321967D01*
X125482976Y-115327421D01*
X125487360Y-115333332D01*
X125491144Y-115339645D01*
X125494291Y-115346299D01*
X125496771Y-115353229D01*
X125498559Y-115360368D01*
X125499639Y-115367649D01*
X125500000Y-115375000D01*
X125500000Y-116775000D01*
X125499639Y-116782351D01*
X125498559Y-116789632D01*
X125496771Y-116796771D01*
X125494291Y-116803701D01*
X125491144Y-116810355D01*
X125487360Y-116816668D01*
X125482976Y-116822579D01*
X125478033Y-116828033D01*
X125472579Y-116832976D01*
X125466668Y-116837360D01*
X125460355Y-116841144D01*
X125453701Y-116844291D01*
X125446771Y-116846771D01*
X125439632Y-116848559D01*
X125432351Y-116849639D01*
X125425000Y-116850000D01*
X125275000Y-116850000D01*
X125267649Y-116849639D01*
X125260368Y-116848559D01*
X125253229Y-116846771D01*
X125246299Y-116844291D01*
X125239645Y-116841144D01*
X125233332Y-116837360D01*
X125227421Y-116832976D01*
X125221967Y-116828033D01*
X125217024Y-116822579D01*
X125212640Y-116816668D01*
X125208856Y-116810355D01*
X125205709Y-116803701D01*
X125203229Y-116796771D01*
X125201441Y-116789632D01*
X125200361Y-116782351D01*
X125200000Y-116775000D01*
X125200000Y-115375000D01*
X125200361Y-115367649D01*
X125201441Y-115360368D01*
X125203229Y-115353229D01*
X125205709Y-115346299D01*
X125208856Y-115339645D01*
X125212640Y-115333332D01*
X125217024Y-115327421D01*
X125221967Y-115321967D01*
X125227421Y-115317024D01*
X125233332Y-115312640D01*
X125239645Y-115308856D01*
X125246299Y-115305709D01*
X125253229Y-115303229D01*
X125260368Y-115301441D01*
X125267649Y-115300361D01*
X125275000Y-115300000D01*
X125425000Y-115300000D01*
X125432351Y-115300361D01*
G37*
G36*
X125932351Y-115300361D02*
G01*
X125939632Y-115301441D01*
X125946771Y-115303229D01*
X125953701Y-115305709D01*
X125960355Y-115308856D01*
X125966668Y-115312640D01*
X125972579Y-115317024D01*
X125978033Y-115321967D01*
X125982976Y-115327421D01*
X125987360Y-115333332D01*
X125991144Y-115339645D01*
X125994291Y-115346299D01*
X125996771Y-115353229D01*
X125998559Y-115360368D01*
X125999639Y-115367649D01*
X126000000Y-115375000D01*
X126000000Y-116775000D01*
X125999639Y-116782351D01*
X125998559Y-116789632D01*
X125996771Y-116796771D01*
X125994291Y-116803701D01*
X125991144Y-116810355D01*
X125987360Y-116816668D01*
X125982976Y-116822579D01*
X125978033Y-116828033D01*
X125972579Y-116832976D01*
X125966668Y-116837360D01*
X125960355Y-116841144D01*
X125953701Y-116844291D01*
X125946771Y-116846771D01*
X125939632Y-116848559D01*
X125932351Y-116849639D01*
X125925000Y-116850000D01*
X125775000Y-116850000D01*
X125767649Y-116849639D01*
X125760368Y-116848559D01*
X125753229Y-116846771D01*
X125746299Y-116844291D01*
X125739645Y-116841144D01*
X125733332Y-116837360D01*
X125727421Y-116832976D01*
X125721967Y-116828033D01*
X125717024Y-116822579D01*
X125712640Y-116816668D01*
X125708856Y-116810355D01*
X125705709Y-116803701D01*
X125703229Y-116796771D01*
X125701441Y-116789632D01*
X125700361Y-116782351D01*
X125700000Y-116775000D01*
X125700000Y-115375000D01*
X125700361Y-115367649D01*
X125701441Y-115360368D01*
X125703229Y-115353229D01*
X125705709Y-115346299D01*
X125708856Y-115339645D01*
X125712640Y-115333332D01*
X125717024Y-115327421D01*
X125721967Y-115321967D01*
X125727421Y-115317024D01*
X125733332Y-115312640D01*
X125739645Y-115308856D01*
X125746299Y-115305709D01*
X125753229Y-115303229D01*
X125760368Y-115301441D01*
X125767649Y-115300361D01*
X125775000Y-115300000D01*
X125925000Y-115300000D01*
X125932351Y-115300361D01*
G37*
G36*
X126432351Y-115300361D02*
G01*
X126439632Y-115301441D01*
X126446771Y-115303229D01*
X126453701Y-115305709D01*
X126460355Y-115308856D01*
X126466668Y-115312640D01*
X126472579Y-115317024D01*
X126478033Y-115321967D01*
X126482976Y-115327421D01*
X126487360Y-115333332D01*
X126491144Y-115339645D01*
X126494291Y-115346299D01*
X126496771Y-115353229D01*
X126498559Y-115360368D01*
X126499639Y-115367649D01*
X126500000Y-115375000D01*
X126500000Y-116775000D01*
X126499639Y-116782351D01*
X126498559Y-116789632D01*
X126496771Y-116796771D01*
X126494291Y-116803701D01*
X126491144Y-116810355D01*
X126487360Y-116816668D01*
X126482976Y-116822579D01*
X126478033Y-116828033D01*
X126472579Y-116832976D01*
X126466668Y-116837360D01*
X126460355Y-116841144D01*
X126453701Y-116844291D01*
X126446771Y-116846771D01*
X126439632Y-116848559D01*
X126432351Y-116849639D01*
X126425000Y-116850000D01*
X126275000Y-116850000D01*
X126267649Y-116849639D01*
X126260368Y-116848559D01*
X126253229Y-116846771D01*
X126246299Y-116844291D01*
X126239645Y-116841144D01*
X126233332Y-116837360D01*
X126227421Y-116832976D01*
X126221967Y-116828033D01*
X126217024Y-116822579D01*
X126212640Y-116816668D01*
X126208856Y-116810355D01*
X126205709Y-116803701D01*
X126203229Y-116796771D01*
X126201441Y-116789632D01*
X126200361Y-116782351D01*
X126200000Y-116775000D01*
X126200000Y-115375000D01*
X126200361Y-115367649D01*
X126201441Y-115360368D01*
X126203229Y-115353229D01*
X126205709Y-115346299D01*
X126208856Y-115339645D01*
X126212640Y-115333332D01*
X126217024Y-115327421D01*
X126221967Y-115321967D01*
X126227421Y-115317024D01*
X126233332Y-115312640D01*
X126239645Y-115308856D01*
X126246299Y-115305709D01*
X126253229Y-115303229D01*
X126260368Y-115301441D01*
X126267649Y-115300361D01*
X126275000Y-115300000D01*
X126425000Y-115300000D01*
X126432351Y-115300361D01*
G37*
G36*
X126932351Y-115300361D02*
G01*
X126939632Y-115301441D01*
X126946771Y-115303229D01*
X126953701Y-115305709D01*
X126960355Y-115308856D01*
X126966668Y-115312640D01*
X126972579Y-115317024D01*
X126978033Y-115321967D01*
X126982976Y-115327421D01*
X126987360Y-115333332D01*
X126991144Y-115339645D01*
X126994291Y-115346299D01*
X126996771Y-115353229D01*
X126998559Y-115360368D01*
X126999639Y-115367649D01*
X127000000Y-115375000D01*
X127000000Y-116775000D01*
X126999639Y-116782351D01*
X126998559Y-116789632D01*
X126996771Y-116796771D01*
X126994291Y-116803701D01*
X126991144Y-116810355D01*
X126987360Y-116816668D01*
X126982976Y-116822579D01*
X126978033Y-116828033D01*
X126972579Y-116832976D01*
X126966668Y-116837360D01*
X126960355Y-116841144D01*
X126953701Y-116844291D01*
X126946771Y-116846771D01*
X126939632Y-116848559D01*
X126932351Y-116849639D01*
X126925000Y-116850000D01*
X126775000Y-116850000D01*
X126767649Y-116849639D01*
X126760368Y-116848559D01*
X126753229Y-116846771D01*
X126746299Y-116844291D01*
X126739645Y-116841144D01*
X126733332Y-116837360D01*
X126727421Y-116832976D01*
X126721967Y-116828033D01*
X126717024Y-116822579D01*
X126712640Y-116816668D01*
X126708856Y-116810355D01*
X126705709Y-116803701D01*
X126703229Y-116796771D01*
X126701441Y-116789632D01*
X126700361Y-116782351D01*
X126700000Y-116775000D01*
X126700000Y-115375000D01*
X126700361Y-115367649D01*
X126701441Y-115360368D01*
X126703229Y-115353229D01*
X126705709Y-115346299D01*
X126708856Y-115339645D01*
X126712640Y-115333332D01*
X126717024Y-115327421D01*
X126721967Y-115321967D01*
X126727421Y-115317024D01*
X126733332Y-115312640D01*
X126739645Y-115308856D01*
X126746299Y-115305709D01*
X126753229Y-115303229D01*
X126760368Y-115301441D01*
X126767649Y-115300361D01*
X126775000Y-115300000D01*
X126925000Y-115300000D01*
X126932351Y-115300361D01*
G37*
G36*
X127432351Y-115300361D02*
G01*
X127439632Y-115301441D01*
X127446771Y-115303229D01*
X127453701Y-115305709D01*
X127460355Y-115308856D01*
X127466668Y-115312640D01*
X127472579Y-115317024D01*
X127478033Y-115321967D01*
X127482976Y-115327421D01*
X127487360Y-115333332D01*
X127491144Y-115339645D01*
X127494291Y-115346299D01*
X127496771Y-115353229D01*
X127498559Y-115360368D01*
X127499639Y-115367649D01*
X127500000Y-115375000D01*
X127500000Y-116775000D01*
X127499639Y-116782351D01*
X127498559Y-116789632D01*
X127496771Y-116796771D01*
X127494291Y-116803701D01*
X127491144Y-116810355D01*
X127487360Y-116816668D01*
X127482976Y-116822579D01*
X127478033Y-116828033D01*
X127472579Y-116832976D01*
X127466668Y-116837360D01*
X127460355Y-116841144D01*
X127453701Y-116844291D01*
X127446771Y-116846771D01*
X127439632Y-116848559D01*
X127432351Y-116849639D01*
X127425000Y-116850000D01*
X127275000Y-116850000D01*
X127267649Y-116849639D01*
X127260368Y-116848559D01*
X127253229Y-116846771D01*
X127246299Y-116844291D01*
X127239645Y-116841144D01*
X127233332Y-116837360D01*
X127227421Y-116832976D01*
X127221967Y-116828033D01*
X127217024Y-116822579D01*
X127212640Y-116816668D01*
X127208856Y-116810355D01*
X127205709Y-116803701D01*
X127203229Y-116796771D01*
X127201441Y-116789632D01*
X127200361Y-116782351D01*
X127200000Y-116775000D01*
X127200000Y-115375000D01*
X127200361Y-115367649D01*
X127201441Y-115360368D01*
X127203229Y-115353229D01*
X127205709Y-115346299D01*
X127208856Y-115339645D01*
X127212640Y-115333332D01*
X127217024Y-115327421D01*
X127221967Y-115321967D01*
X127227421Y-115317024D01*
X127233332Y-115312640D01*
X127239645Y-115308856D01*
X127246299Y-115305709D01*
X127253229Y-115303229D01*
X127260368Y-115301441D01*
X127267649Y-115300361D01*
X127275000Y-115300000D01*
X127425000Y-115300000D01*
X127432351Y-115300361D01*
G37*
G36*
X127932351Y-115300361D02*
G01*
X127939632Y-115301441D01*
X127946771Y-115303229D01*
X127953701Y-115305709D01*
X127960355Y-115308856D01*
X127966668Y-115312640D01*
X127972579Y-115317024D01*
X127978033Y-115321967D01*
X127982976Y-115327421D01*
X127987360Y-115333332D01*
X127991144Y-115339645D01*
X127994291Y-115346299D01*
X127996771Y-115353229D01*
X127998559Y-115360368D01*
X127999639Y-115367649D01*
X128000000Y-115375000D01*
X128000000Y-116775000D01*
X127999639Y-116782351D01*
X127998559Y-116789632D01*
X127996771Y-116796771D01*
X127994291Y-116803701D01*
X127991144Y-116810355D01*
X127987360Y-116816668D01*
X127982976Y-116822579D01*
X127978033Y-116828033D01*
X127972579Y-116832976D01*
X127966668Y-116837360D01*
X127960355Y-116841144D01*
X127953701Y-116844291D01*
X127946771Y-116846771D01*
X127939632Y-116848559D01*
X127932351Y-116849639D01*
X127925000Y-116850000D01*
X127775000Y-116850000D01*
X127767649Y-116849639D01*
X127760368Y-116848559D01*
X127753229Y-116846771D01*
X127746299Y-116844291D01*
X127739645Y-116841144D01*
X127733332Y-116837360D01*
X127727421Y-116832976D01*
X127721967Y-116828033D01*
X127717024Y-116822579D01*
X127712640Y-116816668D01*
X127708856Y-116810355D01*
X127705709Y-116803701D01*
X127703229Y-116796771D01*
X127701441Y-116789632D01*
X127700361Y-116782351D01*
X127700000Y-116775000D01*
X127700000Y-115375000D01*
X127700361Y-115367649D01*
X127701441Y-115360368D01*
X127703229Y-115353229D01*
X127705709Y-115346299D01*
X127708856Y-115339645D01*
X127712640Y-115333332D01*
X127717024Y-115327421D01*
X127721967Y-115321967D01*
X127727421Y-115317024D01*
X127733332Y-115312640D01*
X127739645Y-115308856D01*
X127746299Y-115305709D01*
X127753229Y-115303229D01*
X127760368Y-115301441D01*
X127767649Y-115300361D01*
X127775000Y-115300000D01*
X127925000Y-115300000D01*
X127932351Y-115300361D01*
G37*
G36*
X128432351Y-115300361D02*
G01*
X128439632Y-115301441D01*
X128446771Y-115303229D01*
X128453701Y-115305709D01*
X128460355Y-115308856D01*
X128466668Y-115312640D01*
X128472579Y-115317024D01*
X128478033Y-115321967D01*
X128482976Y-115327421D01*
X128487360Y-115333332D01*
X128491144Y-115339645D01*
X128494291Y-115346299D01*
X128496771Y-115353229D01*
X128498559Y-115360368D01*
X128499639Y-115367649D01*
X128500000Y-115375000D01*
X128500000Y-116775000D01*
X128499639Y-116782351D01*
X128498559Y-116789632D01*
X128496771Y-116796771D01*
X128494291Y-116803701D01*
X128491144Y-116810355D01*
X128487360Y-116816668D01*
X128482976Y-116822579D01*
X128478033Y-116828033D01*
X128472579Y-116832976D01*
X128466668Y-116837360D01*
X128460355Y-116841144D01*
X128453701Y-116844291D01*
X128446771Y-116846771D01*
X128439632Y-116848559D01*
X128432351Y-116849639D01*
X128425000Y-116850000D01*
X128275000Y-116850000D01*
X128267649Y-116849639D01*
X128260368Y-116848559D01*
X128253229Y-116846771D01*
X128246299Y-116844291D01*
X128239645Y-116841144D01*
X128233332Y-116837360D01*
X128227421Y-116832976D01*
X128221967Y-116828033D01*
X128217024Y-116822579D01*
X128212640Y-116816668D01*
X128208856Y-116810355D01*
X128205709Y-116803701D01*
X128203229Y-116796771D01*
X128201441Y-116789632D01*
X128200361Y-116782351D01*
X128200000Y-116775000D01*
X128200000Y-115375000D01*
X128200361Y-115367649D01*
X128201441Y-115360368D01*
X128203229Y-115353229D01*
X128205709Y-115346299D01*
X128208856Y-115339645D01*
X128212640Y-115333332D01*
X128217024Y-115327421D01*
X128221967Y-115321967D01*
X128227421Y-115317024D01*
X128233332Y-115312640D01*
X128239645Y-115308856D01*
X128246299Y-115305709D01*
X128253229Y-115303229D01*
X128260368Y-115301441D01*
X128267649Y-115300361D01*
X128275000Y-115300000D01*
X128425000Y-115300000D01*
X128432351Y-115300361D01*
G37*
G36*
X128932351Y-115300361D02*
G01*
X128939632Y-115301441D01*
X128946771Y-115303229D01*
X128953701Y-115305709D01*
X128960355Y-115308856D01*
X128966668Y-115312640D01*
X128972579Y-115317024D01*
X128978033Y-115321967D01*
X128982976Y-115327421D01*
X128987360Y-115333332D01*
X128991144Y-115339645D01*
X128994291Y-115346299D01*
X128996771Y-115353229D01*
X128998559Y-115360368D01*
X128999639Y-115367649D01*
X129000000Y-115375000D01*
X129000000Y-116775000D01*
X128999639Y-116782351D01*
X128998559Y-116789632D01*
X128996771Y-116796771D01*
X128994291Y-116803701D01*
X128991144Y-116810355D01*
X128987360Y-116816668D01*
X128982976Y-116822579D01*
X128978033Y-116828033D01*
X128972579Y-116832976D01*
X128966668Y-116837360D01*
X128960355Y-116841144D01*
X128953701Y-116844291D01*
X128946771Y-116846771D01*
X128939632Y-116848559D01*
X128932351Y-116849639D01*
X128925000Y-116850000D01*
X128775000Y-116850000D01*
X128767649Y-116849639D01*
X128760368Y-116848559D01*
X128753229Y-116846771D01*
X128746299Y-116844291D01*
X128739645Y-116841144D01*
X128733332Y-116837360D01*
X128727421Y-116832976D01*
X128721967Y-116828033D01*
X128717024Y-116822579D01*
X128712640Y-116816668D01*
X128708856Y-116810355D01*
X128705709Y-116803701D01*
X128703229Y-116796771D01*
X128701441Y-116789632D01*
X128700361Y-116782351D01*
X128700000Y-116775000D01*
X128700000Y-115375000D01*
X128700361Y-115367649D01*
X128701441Y-115360368D01*
X128703229Y-115353229D01*
X128705709Y-115346299D01*
X128708856Y-115339645D01*
X128712640Y-115333332D01*
X128717024Y-115327421D01*
X128721967Y-115321967D01*
X128727421Y-115317024D01*
X128733332Y-115312640D01*
X128739645Y-115308856D01*
X128746299Y-115305709D01*
X128753229Y-115303229D01*
X128760368Y-115301441D01*
X128767649Y-115300361D01*
X128775000Y-115300000D01*
X128925000Y-115300000D01*
X128932351Y-115300361D01*
G37*
G36*
X129432351Y-115300361D02*
G01*
X129439632Y-115301441D01*
X129446771Y-115303229D01*
X129453701Y-115305709D01*
X129460355Y-115308856D01*
X129466668Y-115312640D01*
X129472579Y-115317024D01*
X129478033Y-115321967D01*
X129482976Y-115327421D01*
X129487360Y-115333332D01*
X129491144Y-115339645D01*
X129494291Y-115346299D01*
X129496771Y-115353229D01*
X129498559Y-115360368D01*
X129499639Y-115367649D01*
X129500000Y-115375000D01*
X129500000Y-116775000D01*
X129499639Y-116782351D01*
X129498559Y-116789632D01*
X129496771Y-116796771D01*
X129494291Y-116803701D01*
X129491144Y-116810355D01*
X129487360Y-116816668D01*
X129482976Y-116822579D01*
X129478033Y-116828033D01*
X129472579Y-116832976D01*
X129466668Y-116837360D01*
X129460355Y-116841144D01*
X129453701Y-116844291D01*
X129446771Y-116846771D01*
X129439632Y-116848559D01*
X129432351Y-116849639D01*
X129425000Y-116850000D01*
X129275000Y-116850000D01*
X129267649Y-116849639D01*
X129260368Y-116848559D01*
X129253229Y-116846771D01*
X129246299Y-116844291D01*
X129239645Y-116841144D01*
X129233332Y-116837360D01*
X129227421Y-116832976D01*
X129221967Y-116828033D01*
X129217024Y-116822579D01*
X129212640Y-116816668D01*
X129208856Y-116810355D01*
X129205709Y-116803701D01*
X129203229Y-116796771D01*
X129201441Y-116789632D01*
X129200361Y-116782351D01*
X129200000Y-116775000D01*
X129200000Y-115375000D01*
X129200361Y-115367649D01*
X129201441Y-115360368D01*
X129203229Y-115353229D01*
X129205709Y-115346299D01*
X129208856Y-115339645D01*
X129212640Y-115333332D01*
X129217024Y-115327421D01*
X129221967Y-115321967D01*
X129227421Y-115317024D01*
X129233332Y-115312640D01*
X129239645Y-115308856D01*
X129246299Y-115305709D01*
X129253229Y-115303229D01*
X129260368Y-115301441D01*
X129267649Y-115300361D01*
X129275000Y-115300000D01*
X129425000Y-115300000D01*
X129432351Y-115300361D01*
G37*
G36*
X129932351Y-115300361D02*
G01*
X129939632Y-115301441D01*
X129946771Y-115303229D01*
X129953701Y-115305709D01*
X129960355Y-115308856D01*
X129966668Y-115312640D01*
X129972579Y-115317024D01*
X129978033Y-115321967D01*
X129982976Y-115327421D01*
X129987360Y-115333332D01*
X129991144Y-115339645D01*
X129994291Y-115346299D01*
X129996771Y-115353229D01*
X129998559Y-115360368D01*
X129999639Y-115367649D01*
X130000000Y-115375000D01*
X130000000Y-116775000D01*
X129999639Y-116782351D01*
X129998559Y-116789632D01*
X129996771Y-116796771D01*
X129994291Y-116803701D01*
X129991144Y-116810355D01*
X129987360Y-116816668D01*
X129982976Y-116822579D01*
X129978033Y-116828033D01*
X129972579Y-116832976D01*
X129966668Y-116837360D01*
X129960355Y-116841144D01*
X129953701Y-116844291D01*
X129946771Y-116846771D01*
X129939632Y-116848559D01*
X129932351Y-116849639D01*
X129925000Y-116850000D01*
X129775000Y-116850000D01*
X129767649Y-116849639D01*
X129760368Y-116848559D01*
X129753229Y-116846771D01*
X129746299Y-116844291D01*
X129739645Y-116841144D01*
X129733332Y-116837360D01*
X129727421Y-116832976D01*
X129721967Y-116828033D01*
X129717024Y-116822579D01*
X129712640Y-116816668D01*
X129708856Y-116810355D01*
X129705709Y-116803701D01*
X129703229Y-116796771D01*
X129701441Y-116789632D01*
X129700361Y-116782351D01*
X129700000Y-116775000D01*
X129700000Y-115375000D01*
X129700361Y-115367649D01*
X129701441Y-115360368D01*
X129703229Y-115353229D01*
X129705709Y-115346299D01*
X129708856Y-115339645D01*
X129712640Y-115333332D01*
X129717024Y-115327421D01*
X129721967Y-115321967D01*
X129727421Y-115317024D01*
X129733332Y-115312640D01*
X129739645Y-115308856D01*
X129746299Y-115305709D01*
X129753229Y-115303229D01*
X129760368Y-115301441D01*
X129767649Y-115300361D01*
X129775000Y-115300000D01*
X129925000Y-115300000D01*
X129932351Y-115300361D01*
G37*
G36*
X130432351Y-115300361D02*
G01*
X130439632Y-115301441D01*
X130446771Y-115303229D01*
X130453701Y-115305709D01*
X130460355Y-115308856D01*
X130466668Y-115312640D01*
X130472579Y-115317024D01*
X130478033Y-115321967D01*
X130482976Y-115327421D01*
X130487360Y-115333332D01*
X130491144Y-115339645D01*
X130494291Y-115346299D01*
X130496771Y-115353229D01*
X130498559Y-115360368D01*
X130499639Y-115367649D01*
X130500000Y-115375000D01*
X130500000Y-116775000D01*
X130499639Y-116782351D01*
X130498559Y-116789632D01*
X130496771Y-116796771D01*
X130494291Y-116803701D01*
X130491144Y-116810355D01*
X130487360Y-116816668D01*
X130482976Y-116822579D01*
X130478033Y-116828033D01*
X130472579Y-116832976D01*
X130466668Y-116837360D01*
X130460355Y-116841144D01*
X130453701Y-116844291D01*
X130446771Y-116846771D01*
X130439632Y-116848559D01*
X130432351Y-116849639D01*
X130425000Y-116850000D01*
X130275000Y-116850000D01*
X130267649Y-116849639D01*
X130260368Y-116848559D01*
X130253229Y-116846771D01*
X130246299Y-116844291D01*
X130239645Y-116841144D01*
X130233332Y-116837360D01*
X130227421Y-116832976D01*
X130221967Y-116828033D01*
X130217024Y-116822579D01*
X130212640Y-116816668D01*
X130208856Y-116810355D01*
X130205709Y-116803701D01*
X130203229Y-116796771D01*
X130201441Y-116789632D01*
X130200361Y-116782351D01*
X130200000Y-116775000D01*
X130200000Y-115375000D01*
X130200361Y-115367649D01*
X130201441Y-115360368D01*
X130203229Y-115353229D01*
X130205709Y-115346299D01*
X130208856Y-115339645D01*
X130212640Y-115333332D01*
X130217024Y-115327421D01*
X130221967Y-115321967D01*
X130227421Y-115317024D01*
X130233332Y-115312640D01*
X130239645Y-115308856D01*
X130246299Y-115305709D01*
X130253229Y-115303229D01*
X130260368Y-115301441D01*
X130267649Y-115300361D01*
X130275000Y-115300000D01*
X130425000Y-115300000D01*
X130432351Y-115300361D01*
G37*
G36*
X130932351Y-115300361D02*
G01*
X130939632Y-115301441D01*
X130946771Y-115303229D01*
X130953701Y-115305709D01*
X130960355Y-115308856D01*
X130966668Y-115312640D01*
X130972579Y-115317024D01*
X130978033Y-115321967D01*
X130982976Y-115327421D01*
X130987360Y-115333332D01*
X130991144Y-115339645D01*
X130994291Y-115346299D01*
X130996771Y-115353229D01*
X130998559Y-115360368D01*
X130999639Y-115367649D01*
X131000000Y-115375000D01*
X131000000Y-116775000D01*
X130999639Y-116782351D01*
X130998559Y-116789632D01*
X130996771Y-116796771D01*
X130994291Y-116803701D01*
X130991144Y-116810355D01*
X130987360Y-116816668D01*
X130982976Y-116822579D01*
X130978033Y-116828033D01*
X130972579Y-116832976D01*
X130966668Y-116837360D01*
X130960355Y-116841144D01*
X130953701Y-116844291D01*
X130946771Y-116846771D01*
X130939632Y-116848559D01*
X130932351Y-116849639D01*
X130925000Y-116850000D01*
X130775000Y-116850000D01*
X130767649Y-116849639D01*
X130760368Y-116848559D01*
X130753229Y-116846771D01*
X130746299Y-116844291D01*
X130739645Y-116841144D01*
X130733332Y-116837360D01*
X130727421Y-116832976D01*
X130721967Y-116828033D01*
X130717024Y-116822579D01*
X130712640Y-116816668D01*
X130708856Y-116810355D01*
X130705709Y-116803701D01*
X130703229Y-116796771D01*
X130701441Y-116789632D01*
X130700361Y-116782351D01*
X130700000Y-116775000D01*
X130700000Y-115375000D01*
X130700361Y-115367649D01*
X130701441Y-115360368D01*
X130703229Y-115353229D01*
X130705709Y-115346299D01*
X130708856Y-115339645D01*
X130712640Y-115333332D01*
X130717024Y-115327421D01*
X130721967Y-115321967D01*
X130727421Y-115317024D01*
X130733332Y-115312640D01*
X130739645Y-115308856D01*
X130746299Y-115305709D01*
X130753229Y-115303229D01*
X130760368Y-115301441D01*
X130767649Y-115300361D01*
X130775000Y-115300000D01*
X130925000Y-115300000D01*
X130932351Y-115300361D01*
G37*
G36*
X131432351Y-115300361D02*
G01*
X131439632Y-115301441D01*
X131446771Y-115303229D01*
X131453701Y-115305709D01*
X131460355Y-115308856D01*
X131466668Y-115312640D01*
X131472579Y-115317024D01*
X131478033Y-115321967D01*
X131482976Y-115327421D01*
X131487360Y-115333332D01*
X131491144Y-115339645D01*
X131494291Y-115346299D01*
X131496771Y-115353229D01*
X131498559Y-115360368D01*
X131499639Y-115367649D01*
X131500000Y-115375000D01*
X131500000Y-116775000D01*
X131499639Y-116782351D01*
X131498559Y-116789632D01*
X131496771Y-116796771D01*
X131494291Y-116803701D01*
X131491144Y-116810355D01*
X131487360Y-116816668D01*
X131482976Y-116822579D01*
X131478033Y-116828033D01*
X131472579Y-116832976D01*
X131466668Y-116837360D01*
X131460355Y-116841144D01*
X131453701Y-116844291D01*
X131446771Y-116846771D01*
X131439632Y-116848559D01*
X131432351Y-116849639D01*
X131425000Y-116850000D01*
X131275000Y-116850000D01*
X131267649Y-116849639D01*
X131260368Y-116848559D01*
X131253229Y-116846771D01*
X131246299Y-116844291D01*
X131239645Y-116841144D01*
X131233332Y-116837360D01*
X131227421Y-116832976D01*
X131221967Y-116828033D01*
X131217024Y-116822579D01*
X131212640Y-116816668D01*
X131208856Y-116810355D01*
X131205709Y-116803701D01*
X131203229Y-116796771D01*
X131201441Y-116789632D01*
X131200361Y-116782351D01*
X131200000Y-116775000D01*
X131200000Y-115375000D01*
X131200361Y-115367649D01*
X131201441Y-115360368D01*
X131203229Y-115353229D01*
X131205709Y-115346299D01*
X131208856Y-115339645D01*
X131212640Y-115333332D01*
X131217024Y-115327421D01*
X131221967Y-115321967D01*
X131227421Y-115317024D01*
X131233332Y-115312640D01*
X131239645Y-115308856D01*
X131246299Y-115305709D01*
X131253229Y-115303229D01*
X131260368Y-115301441D01*
X131267649Y-115300361D01*
X131275000Y-115300000D01*
X131425000Y-115300000D01*
X131432351Y-115300361D01*
G37*
G36*
X131932351Y-115300361D02*
G01*
X131939632Y-115301441D01*
X131946771Y-115303229D01*
X131953701Y-115305709D01*
X131960355Y-115308856D01*
X131966668Y-115312640D01*
X131972579Y-115317024D01*
X131978033Y-115321967D01*
X131982976Y-115327421D01*
X131987360Y-115333332D01*
X131991144Y-115339645D01*
X131994291Y-115346299D01*
X131996771Y-115353229D01*
X131998559Y-115360368D01*
X131999639Y-115367649D01*
X132000000Y-115375000D01*
X132000000Y-116775000D01*
X131999639Y-116782351D01*
X131998559Y-116789632D01*
X131996771Y-116796771D01*
X131994291Y-116803701D01*
X131991144Y-116810355D01*
X131987360Y-116816668D01*
X131982976Y-116822579D01*
X131978033Y-116828033D01*
X131972579Y-116832976D01*
X131966668Y-116837360D01*
X131960355Y-116841144D01*
X131953701Y-116844291D01*
X131946771Y-116846771D01*
X131939632Y-116848559D01*
X131932351Y-116849639D01*
X131925000Y-116850000D01*
X131775000Y-116850000D01*
X131767649Y-116849639D01*
X131760368Y-116848559D01*
X131753229Y-116846771D01*
X131746299Y-116844291D01*
X131739645Y-116841144D01*
X131733332Y-116837360D01*
X131727421Y-116832976D01*
X131721967Y-116828033D01*
X131717024Y-116822579D01*
X131712640Y-116816668D01*
X131708856Y-116810355D01*
X131705709Y-116803701D01*
X131703229Y-116796771D01*
X131701441Y-116789632D01*
X131700361Y-116782351D01*
X131700000Y-116775000D01*
X131700000Y-115375000D01*
X131700361Y-115367649D01*
X131701441Y-115360368D01*
X131703229Y-115353229D01*
X131705709Y-115346299D01*
X131708856Y-115339645D01*
X131712640Y-115333332D01*
X131717024Y-115327421D01*
X131721967Y-115321967D01*
X131727421Y-115317024D01*
X131733332Y-115312640D01*
X131739645Y-115308856D01*
X131746299Y-115305709D01*
X131753229Y-115303229D01*
X131760368Y-115301441D01*
X131767649Y-115300361D01*
X131775000Y-115300000D01*
X131925000Y-115300000D01*
X131932351Y-115300361D01*
G37*
G36*
X132432351Y-115300361D02*
G01*
X132439632Y-115301441D01*
X132446771Y-115303229D01*
X132453701Y-115305709D01*
X132460355Y-115308856D01*
X132466668Y-115312640D01*
X132472579Y-115317024D01*
X132478033Y-115321967D01*
X132482976Y-115327421D01*
X132487360Y-115333332D01*
X132491144Y-115339645D01*
X132494291Y-115346299D01*
X132496771Y-115353229D01*
X132498559Y-115360368D01*
X132499639Y-115367649D01*
X132500000Y-115375000D01*
X132500000Y-116775000D01*
X132499639Y-116782351D01*
X132498559Y-116789632D01*
X132496771Y-116796771D01*
X132494291Y-116803701D01*
X132491144Y-116810355D01*
X132487360Y-116816668D01*
X132482976Y-116822579D01*
X132478033Y-116828033D01*
X132472579Y-116832976D01*
X132466668Y-116837360D01*
X132460355Y-116841144D01*
X132453701Y-116844291D01*
X132446771Y-116846771D01*
X132439632Y-116848559D01*
X132432351Y-116849639D01*
X132425000Y-116850000D01*
X132275000Y-116850000D01*
X132267649Y-116849639D01*
X132260368Y-116848559D01*
X132253229Y-116846771D01*
X132246299Y-116844291D01*
X132239645Y-116841144D01*
X132233332Y-116837360D01*
X132227421Y-116832976D01*
X132221967Y-116828033D01*
X132217024Y-116822579D01*
X132212640Y-116816668D01*
X132208856Y-116810355D01*
X132205709Y-116803701D01*
X132203229Y-116796771D01*
X132201441Y-116789632D01*
X132200361Y-116782351D01*
X132200000Y-116775000D01*
X132200000Y-115375000D01*
X132200361Y-115367649D01*
X132201441Y-115360368D01*
X132203229Y-115353229D01*
X132205709Y-115346299D01*
X132208856Y-115339645D01*
X132212640Y-115333332D01*
X132217024Y-115327421D01*
X132221967Y-115321967D01*
X132227421Y-115317024D01*
X132233332Y-115312640D01*
X132239645Y-115308856D01*
X132246299Y-115305709D01*
X132253229Y-115303229D01*
X132260368Y-115301441D01*
X132267649Y-115300361D01*
X132275000Y-115300000D01*
X132425000Y-115300000D01*
X132432351Y-115300361D01*
G37*
G36*
X132932351Y-115300361D02*
G01*
X132939632Y-115301441D01*
X132946771Y-115303229D01*
X132953701Y-115305709D01*
X132960355Y-115308856D01*
X132966668Y-115312640D01*
X132972579Y-115317024D01*
X132978033Y-115321967D01*
X132982976Y-115327421D01*
X132987360Y-115333332D01*
X132991144Y-115339645D01*
X132994291Y-115346299D01*
X132996771Y-115353229D01*
X132998559Y-115360368D01*
X132999639Y-115367649D01*
X133000000Y-115375000D01*
X133000000Y-116775000D01*
X132999639Y-116782351D01*
X132998559Y-116789632D01*
X132996771Y-116796771D01*
X132994291Y-116803701D01*
X132991144Y-116810355D01*
X132987360Y-116816668D01*
X132982976Y-116822579D01*
X132978033Y-116828033D01*
X132972579Y-116832976D01*
X132966668Y-116837360D01*
X132960355Y-116841144D01*
X132953701Y-116844291D01*
X132946771Y-116846771D01*
X132939632Y-116848559D01*
X132932351Y-116849639D01*
X132925000Y-116850000D01*
X132775000Y-116850000D01*
X132767649Y-116849639D01*
X132760368Y-116848559D01*
X132753229Y-116846771D01*
X132746299Y-116844291D01*
X132739645Y-116841144D01*
X132733332Y-116837360D01*
X132727421Y-116832976D01*
X132721967Y-116828033D01*
X132717024Y-116822579D01*
X132712640Y-116816668D01*
X132708856Y-116810355D01*
X132705709Y-116803701D01*
X132703229Y-116796771D01*
X132701441Y-116789632D01*
X132700361Y-116782351D01*
X132700000Y-116775000D01*
X132700000Y-115375000D01*
X132700361Y-115367649D01*
X132701441Y-115360368D01*
X132703229Y-115353229D01*
X132705709Y-115346299D01*
X132708856Y-115339645D01*
X132712640Y-115333332D01*
X132717024Y-115327421D01*
X132721967Y-115321967D01*
X132727421Y-115317024D01*
X132733332Y-115312640D01*
X132739645Y-115308856D01*
X132746299Y-115305709D01*
X132753229Y-115303229D01*
X132760368Y-115301441D01*
X132767649Y-115300361D01*
X132775000Y-115300000D01*
X132925000Y-115300000D01*
X132932351Y-115300361D01*
G37*
G36*
X135482351Y-114000361D02*
G01*
X135489632Y-114001441D01*
X135496771Y-114003229D01*
X135503701Y-114005709D01*
X135510355Y-114008856D01*
X135516668Y-114012640D01*
X135522579Y-114017024D01*
X135528033Y-114021967D01*
X135532976Y-114027421D01*
X135537360Y-114033332D01*
X135541144Y-114039645D01*
X135544291Y-114046299D01*
X135546771Y-114053229D01*
X135548559Y-114060368D01*
X135549639Y-114067649D01*
X135550000Y-114075000D01*
X135550000Y-114225000D01*
X135549639Y-114232351D01*
X135548559Y-114239632D01*
X135546771Y-114246771D01*
X135544291Y-114253701D01*
X135541144Y-114260355D01*
X135537360Y-114266668D01*
X135532976Y-114272579D01*
X135528033Y-114278033D01*
X135522579Y-114282976D01*
X135516668Y-114287360D01*
X135510355Y-114291144D01*
X135503701Y-114294291D01*
X135496771Y-114296771D01*
X135489632Y-114298559D01*
X135482351Y-114299639D01*
X135475000Y-114300000D01*
X134075000Y-114300000D01*
X134067649Y-114299639D01*
X134060368Y-114298559D01*
X134053229Y-114296771D01*
X134046299Y-114294291D01*
X134039645Y-114291144D01*
X134033332Y-114287360D01*
X134027421Y-114282976D01*
X134021967Y-114278033D01*
X134017024Y-114272579D01*
X134012640Y-114266668D01*
X134008856Y-114260355D01*
X134005709Y-114253701D01*
X134003229Y-114246771D01*
X134001441Y-114239632D01*
X134000361Y-114232351D01*
X134000000Y-114225000D01*
X134000000Y-114075000D01*
X134000361Y-114067649D01*
X134001441Y-114060368D01*
X134003229Y-114053229D01*
X134005709Y-114046299D01*
X134008856Y-114039645D01*
X134012640Y-114033332D01*
X134017024Y-114027421D01*
X134021967Y-114021967D01*
X134027421Y-114017024D01*
X134033332Y-114012640D01*
X134039645Y-114008856D01*
X134046299Y-114005709D01*
X134053229Y-114003229D01*
X134060368Y-114001441D01*
X134067649Y-114000361D01*
X134075000Y-114000000D01*
X135475000Y-114000000D01*
X135482351Y-114000361D01*
G37*
G36*
X135482351Y-113500361D02*
G01*
X135489632Y-113501441D01*
X135496771Y-113503229D01*
X135503701Y-113505709D01*
X135510355Y-113508856D01*
X135516668Y-113512640D01*
X135522579Y-113517024D01*
X135528033Y-113521967D01*
X135532976Y-113527421D01*
X135537360Y-113533332D01*
X135541144Y-113539645D01*
X135544291Y-113546299D01*
X135546771Y-113553229D01*
X135548559Y-113560368D01*
X135549639Y-113567649D01*
X135550000Y-113575000D01*
X135550000Y-113725000D01*
X135549639Y-113732351D01*
X135548559Y-113739632D01*
X135546771Y-113746771D01*
X135544291Y-113753701D01*
X135541144Y-113760355D01*
X135537360Y-113766668D01*
X135532976Y-113772579D01*
X135528033Y-113778033D01*
X135522579Y-113782976D01*
X135516668Y-113787360D01*
X135510355Y-113791144D01*
X135503701Y-113794291D01*
X135496771Y-113796771D01*
X135489632Y-113798559D01*
X135482351Y-113799639D01*
X135475000Y-113800000D01*
X134075000Y-113800000D01*
X134067649Y-113799639D01*
X134060368Y-113798559D01*
X134053229Y-113796771D01*
X134046299Y-113794291D01*
X134039645Y-113791144D01*
X134033332Y-113787360D01*
X134027421Y-113782976D01*
X134021967Y-113778033D01*
X134017024Y-113772579D01*
X134012640Y-113766668D01*
X134008856Y-113760355D01*
X134005709Y-113753701D01*
X134003229Y-113746771D01*
X134001441Y-113739632D01*
X134000361Y-113732351D01*
X134000000Y-113725000D01*
X134000000Y-113575000D01*
X134000361Y-113567649D01*
X134001441Y-113560368D01*
X134003229Y-113553229D01*
X134005709Y-113546299D01*
X134008856Y-113539645D01*
X134012640Y-113533332D01*
X134017024Y-113527421D01*
X134021967Y-113521967D01*
X134027421Y-113517024D01*
X134033332Y-113512640D01*
X134039645Y-113508856D01*
X134046299Y-113505709D01*
X134053229Y-113503229D01*
X134060368Y-113501441D01*
X134067649Y-113500361D01*
X134075000Y-113500000D01*
X135475000Y-113500000D01*
X135482351Y-113500361D01*
G37*
G36*
X135482351Y-113000361D02*
G01*
X135489632Y-113001441D01*
X135496771Y-113003229D01*
X135503701Y-113005709D01*
X135510355Y-113008856D01*
X135516668Y-113012640D01*
X135522579Y-113017024D01*
X135528033Y-113021967D01*
X135532976Y-113027421D01*
X135537360Y-113033332D01*
X135541144Y-113039645D01*
X135544291Y-113046299D01*
X135546771Y-113053229D01*
X135548559Y-113060368D01*
X135549639Y-113067649D01*
X135550000Y-113075000D01*
X135550000Y-113225000D01*
X135549639Y-113232351D01*
X135548559Y-113239632D01*
X135546771Y-113246771D01*
X135544291Y-113253701D01*
X135541144Y-113260355D01*
X135537360Y-113266668D01*
X135532976Y-113272579D01*
X135528033Y-113278033D01*
X135522579Y-113282976D01*
X135516668Y-113287360D01*
X135510355Y-113291144D01*
X135503701Y-113294291D01*
X135496771Y-113296771D01*
X135489632Y-113298559D01*
X135482351Y-113299639D01*
X135475000Y-113300000D01*
X134075000Y-113300000D01*
X134067649Y-113299639D01*
X134060368Y-113298559D01*
X134053229Y-113296771D01*
X134046299Y-113294291D01*
X134039645Y-113291144D01*
X134033332Y-113287360D01*
X134027421Y-113282976D01*
X134021967Y-113278033D01*
X134017024Y-113272579D01*
X134012640Y-113266668D01*
X134008856Y-113260355D01*
X134005709Y-113253701D01*
X134003229Y-113246771D01*
X134001441Y-113239632D01*
X134000361Y-113232351D01*
X134000000Y-113225000D01*
X134000000Y-113075000D01*
X134000361Y-113067649D01*
X134001441Y-113060368D01*
X134003229Y-113053229D01*
X134005709Y-113046299D01*
X134008856Y-113039645D01*
X134012640Y-113033332D01*
X134017024Y-113027421D01*
X134021967Y-113021967D01*
X134027421Y-113017024D01*
X134033332Y-113012640D01*
X134039645Y-113008856D01*
X134046299Y-113005709D01*
X134053229Y-113003229D01*
X134060368Y-113001441D01*
X134067649Y-113000361D01*
X134075000Y-113000000D01*
X135475000Y-113000000D01*
X135482351Y-113000361D01*
G37*
G36*
X135482351Y-112500361D02*
G01*
X135489632Y-112501441D01*
X135496771Y-112503229D01*
X135503701Y-112505709D01*
X135510355Y-112508856D01*
X135516668Y-112512640D01*
X135522579Y-112517024D01*
X135528033Y-112521967D01*
X135532976Y-112527421D01*
X135537360Y-112533332D01*
X135541144Y-112539645D01*
X135544291Y-112546299D01*
X135546771Y-112553229D01*
X135548559Y-112560368D01*
X135549639Y-112567649D01*
X135550000Y-112575000D01*
X135550000Y-112725000D01*
X135549639Y-112732351D01*
X135548559Y-112739632D01*
X135546771Y-112746771D01*
X135544291Y-112753701D01*
X135541144Y-112760355D01*
X135537360Y-112766668D01*
X135532976Y-112772579D01*
X135528033Y-112778033D01*
X135522579Y-112782976D01*
X135516668Y-112787360D01*
X135510355Y-112791144D01*
X135503701Y-112794291D01*
X135496771Y-112796771D01*
X135489632Y-112798559D01*
X135482351Y-112799639D01*
X135475000Y-112800000D01*
X134075000Y-112800000D01*
X134067649Y-112799639D01*
X134060368Y-112798559D01*
X134053229Y-112796771D01*
X134046299Y-112794291D01*
X134039645Y-112791144D01*
X134033332Y-112787360D01*
X134027421Y-112782976D01*
X134021967Y-112778033D01*
X134017024Y-112772579D01*
X134012640Y-112766668D01*
X134008856Y-112760355D01*
X134005709Y-112753701D01*
X134003229Y-112746771D01*
X134001441Y-112739632D01*
X134000361Y-112732351D01*
X134000000Y-112725000D01*
X134000000Y-112575000D01*
X134000361Y-112567649D01*
X134001441Y-112560368D01*
X134003229Y-112553229D01*
X134005709Y-112546299D01*
X134008856Y-112539645D01*
X134012640Y-112533332D01*
X134017024Y-112527421D01*
X134021967Y-112521967D01*
X134027421Y-112517024D01*
X134033332Y-112512640D01*
X134039645Y-112508856D01*
X134046299Y-112505709D01*
X134053229Y-112503229D01*
X134060368Y-112501441D01*
X134067649Y-112500361D01*
X134075000Y-112500000D01*
X135475000Y-112500000D01*
X135482351Y-112500361D01*
G37*
G36*
X135482351Y-112000361D02*
G01*
X135489632Y-112001441D01*
X135496771Y-112003229D01*
X135503701Y-112005709D01*
X135510355Y-112008856D01*
X135516668Y-112012640D01*
X135522579Y-112017024D01*
X135528033Y-112021967D01*
X135532976Y-112027421D01*
X135537360Y-112033332D01*
X135541144Y-112039645D01*
X135544291Y-112046299D01*
X135546771Y-112053229D01*
X135548559Y-112060368D01*
X135549639Y-112067649D01*
X135550000Y-112075000D01*
X135550000Y-112225000D01*
X135549639Y-112232351D01*
X135548559Y-112239632D01*
X135546771Y-112246771D01*
X135544291Y-112253701D01*
X135541144Y-112260355D01*
X135537360Y-112266668D01*
X135532976Y-112272579D01*
X135528033Y-112278033D01*
X135522579Y-112282976D01*
X135516668Y-112287360D01*
X135510355Y-112291144D01*
X135503701Y-112294291D01*
X135496771Y-112296771D01*
X135489632Y-112298559D01*
X135482351Y-112299639D01*
X135475000Y-112300000D01*
X134075000Y-112300000D01*
X134067649Y-112299639D01*
X134060368Y-112298559D01*
X134053229Y-112296771D01*
X134046299Y-112294291D01*
X134039645Y-112291144D01*
X134033332Y-112287360D01*
X134027421Y-112282976D01*
X134021967Y-112278033D01*
X134017024Y-112272579D01*
X134012640Y-112266668D01*
X134008856Y-112260355D01*
X134005709Y-112253701D01*
X134003229Y-112246771D01*
X134001441Y-112239632D01*
X134000361Y-112232351D01*
X134000000Y-112225000D01*
X134000000Y-112075000D01*
X134000361Y-112067649D01*
X134001441Y-112060368D01*
X134003229Y-112053229D01*
X134005709Y-112046299D01*
X134008856Y-112039645D01*
X134012640Y-112033332D01*
X134017024Y-112027421D01*
X134021967Y-112021967D01*
X134027421Y-112017024D01*
X134033332Y-112012640D01*
X134039645Y-112008856D01*
X134046299Y-112005709D01*
X134053229Y-112003229D01*
X134060368Y-112001441D01*
X134067649Y-112000361D01*
X134075000Y-112000000D01*
X135475000Y-112000000D01*
X135482351Y-112000361D01*
G37*
G36*
X135482351Y-111500361D02*
G01*
X135489632Y-111501441D01*
X135496771Y-111503229D01*
X135503701Y-111505709D01*
X135510355Y-111508856D01*
X135516668Y-111512640D01*
X135522579Y-111517024D01*
X135528033Y-111521967D01*
X135532976Y-111527421D01*
X135537360Y-111533332D01*
X135541144Y-111539645D01*
X135544291Y-111546299D01*
X135546771Y-111553229D01*
X135548559Y-111560368D01*
X135549639Y-111567649D01*
X135550000Y-111575000D01*
X135550000Y-111725000D01*
X135549639Y-111732351D01*
X135548559Y-111739632D01*
X135546771Y-111746771D01*
X135544291Y-111753701D01*
X135541144Y-111760355D01*
X135537360Y-111766668D01*
X135532976Y-111772579D01*
X135528033Y-111778033D01*
X135522579Y-111782976D01*
X135516668Y-111787360D01*
X135510355Y-111791144D01*
X135503701Y-111794291D01*
X135496771Y-111796771D01*
X135489632Y-111798559D01*
X135482351Y-111799639D01*
X135475000Y-111800000D01*
X134075000Y-111800000D01*
X134067649Y-111799639D01*
X134060368Y-111798559D01*
X134053229Y-111796771D01*
X134046299Y-111794291D01*
X134039645Y-111791144D01*
X134033332Y-111787360D01*
X134027421Y-111782976D01*
X134021967Y-111778033D01*
X134017024Y-111772579D01*
X134012640Y-111766668D01*
X134008856Y-111760355D01*
X134005709Y-111753701D01*
X134003229Y-111746771D01*
X134001441Y-111739632D01*
X134000361Y-111732351D01*
X134000000Y-111725000D01*
X134000000Y-111575000D01*
X134000361Y-111567649D01*
X134001441Y-111560368D01*
X134003229Y-111553229D01*
X134005709Y-111546299D01*
X134008856Y-111539645D01*
X134012640Y-111533332D01*
X134017024Y-111527421D01*
X134021967Y-111521967D01*
X134027421Y-111517024D01*
X134033332Y-111512640D01*
X134039645Y-111508856D01*
X134046299Y-111505709D01*
X134053229Y-111503229D01*
X134060368Y-111501441D01*
X134067649Y-111500361D01*
X134075000Y-111500000D01*
X135475000Y-111500000D01*
X135482351Y-111500361D01*
G37*
G36*
X135482351Y-111000361D02*
G01*
X135489632Y-111001441D01*
X135496771Y-111003229D01*
X135503701Y-111005709D01*
X135510355Y-111008856D01*
X135516668Y-111012640D01*
X135522579Y-111017024D01*
X135528033Y-111021967D01*
X135532976Y-111027421D01*
X135537360Y-111033332D01*
X135541144Y-111039645D01*
X135544291Y-111046299D01*
X135546771Y-111053229D01*
X135548559Y-111060368D01*
X135549639Y-111067649D01*
X135550000Y-111075000D01*
X135550000Y-111225000D01*
X135549639Y-111232351D01*
X135548559Y-111239632D01*
X135546771Y-111246771D01*
X135544291Y-111253701D01*
X135541144Y-111260355D01*
X135537360Y-111266668D01*
X135532976Y-111272579D01*
X135528033Y-111278033D01*
X135522579Y-111282976D01*
X135516668Y-111287360D01*
X135510355Y-111291144D01*
X135503701Y-111294291D01*
X135496771Y-111296771D01*
X135489632Y-111298559D01*
X135482351Y-111299639D01*
X135475000Y-111300000D01*
X134075000Y-111300000D01*
X134067649Y-111299639D01*
X134060368Y-111298559D01*
X134053229Y-111296771D01*
X134046299Y-111294291D01*
X134039645Y-111291144D01*
X134033332Y-111287360D01*
X134027421Y-111282976D01*
X134021967Y-111278033D01*
X134017024Y-111272579D01*
X134012640Y-111266668D01*
X134008856Y-111260355D01*
X134005709Y-111253701D01*
X134003229Y-111246771D01*
X134001441Y-111239632D01*
X134000361Y-111232351D01*
X134000000Y-111225000D01*
X134000000Y-111075000D01*
X134000361Y-111067649D01*
X134001441Y-111060368D01*
X134003229Y-111053229D01*
X134005709Y-111046299D01*
X134008856Y-111039645D01*
X134012640Y-111033332D01*
X134017024Y-111027421D01*
X134021967Y-111021967D01*
X134027421Y-111017024D01*
X134033332Y-111012640D01*
X134039645Y-111008856D01*
X134046299Y-111005709D01*
X134053229Y-111003229D01*
X134060368Y-111001441D01*
X134067649Y-111000361D01*
X134075000Y-111000000D01*
X135475000Y-111000000D01*
X135482351Y-111000361D01*
G37*
G36*
X135482351Y-110500361D02*
G01*
X135489632Y-110501441D01*
X135496771Y-110503229D01*
X135503701Y-110505709D01*
X135510355Y-110508856D01*
X135516668Y-110512640D01*
X135522579Y-110517024D01*
X135528033Y-110521967D01*
X135532976Y-110527421D01*
X135537360Y-110533332D01*
X135541144Y-110539645D01*
X135544291Y-110546299D01*
X135546771Y-110553229D01*
X135548559Y-110560368D01*
X135549639Y-110567649D01*
X135550000Y-110575000D01*
X135550000Y-110725000D01*
X135549639Y-110732351D01*
X135548559Y-110739632D01*
X135546771Y-110746771D01*
X135544291Y-110753701D01*
X135541144Y-110760355D01*
X135537360Y-110766668D01*
X135532976Y-110772579D01*
X135528033Y-110778033D01*
X135522579Y-110782976D01*
X135516668Y-110787360D01*
X135510355Y-110791144D01*
X135503701Y-110794291D01*
X135496771Y-110796771D01*
X135489632Y-110798559D01*
X135482351Y-110799639D01*
X135475000Y-110800000D01*
X134075000Y-110800000D01*
X134067649Y-110799639D01*
X134060368Y-110798559D01*
X134053229Y-110796771D01*
X134046299Y-110794291D01*
X134039645Y-110791144D01*
X134033332Y-110787360D01*
X134027421Y-110782976D01*
X134021967Y-110778033D01*
X134017024Y-110772579D01*
X134012640Y-110766668D01*
X134008856Y-110760355D01*
X134005709Y-110753701D01*
X134003229Y-110746771D01*
X134001441Y-110739632D01*
X134000361Y-110732351D01*
X134000000Y-110725000D01*
X134000000Y-110575000D01*
X134000361Y-110567649D01*
X134001441Y-110560368D01*
X134003229Y-110553229D01*
X134005709Y-110546299D01*
X134008856Y-110539645D01*
X134012640Y-110533332D01*
X134017024Y-110527421D01*
X134021967Y-110521967D01*
X134027421Y-110517024D01*
X134033332Y-110512640D01*
X134039645Y-110508856D01*
X134046299Y-110505709D01*
X134053229Y-110503229D01*
X134060368Y-110501441D01*
X134067649Y-110500361D01*
X134075000Y-110500000D01*
X135475000Y-110500000D01*
X135482351Y-110500361D01*
G37*
G36*
X135482351Y-110000361D02*
G01*
X135489632Y-110001441D01*
X135496771Y-110003229D01*
X135503701Y-110005709D01*
X135510355Y-110008856D01*
X135516668Y-110012640D01*
X135522579Y-110017024D01*
X135528033Y-110021967D01*
X135532976Y-110027421D01*
X135537360Y-110033332D01*
X135541144Y-110039645D01*
X135544291Y-110046299D01*
X135546771Y-110053229D01*
X135548559Y-110060368D01*
X135549639Y-110067649D01*
X135550000Y-110075000D01*
X135550000Y-110225000D01*
X135549639Y-110232351D01*
X135548559Y-110239632D01*
X135546771Y-110246771D01*
X135544291Y-110253701D01*
X135541144Y-110260355D01*
X135537360Y-110266668D01*
X135532976Y-110272579D01*
X135528033Y-110278033D01*
X135522579Y-110282976D01*
X135516668Y-110287360D01*
X135510355Y-110291144D01*
X135503701Y-110294291D01*
X135496771Y-110296771D01*
X135489632Y-110298559D01*
X135482351Y-110299639D01*
X135475000Y-110300000D01*
X134075000Y-110300000D01*
X134067649Y-110299639D01*
X134060368Y-110298559D01*
X134053229Y-110296771D01*
X134046299Y-110294291D01*
X134039645Y-110291144D01*
X134033332Y-110287360D01*
X134027421Y-110282976D01*
X134021967Y-110278033D01*
X134017024Y-110272579D01*
X134012640Y-110266668D01*
X134008856Y-110260355D01*
X134005709Y-110253701D01*
X134003229Y-110246771D01*
X134001441Y-110239632D01*
X134000361Y-110232351D01*
X134000000Y-110225000D01*
X134000000Y-110075000D01*
X134000361Y-110067649D01*
X134001441Y-110060368D01*
X134003229Y-110053229D01*
X134005709Y-110046299D01*
X134008856Y-110039645D01*
X134012640Y-110033332D01*
X134017024Y-110027421D01*
X134021967Y-110021967D01*
X134027421Y-110017024D01*
X134033332Y-110012640D01*
X134039645Y-110008856D01*
X134046299Y-110005709D01*
X134053229Y-110003229D01*
X134060368Y-110001441D01*
X134067649Y-110000361D01*
X134075000Y-110000000D01*
X135475000Y-110000000D01*
X135482351Y-110000361D01*
G37*
G36*
X135482351Y-109500361D02*
G01*
X135489632Y-109501441D01*
X135496771Y-109503229D01*
X135503701Y-109505709D01*
X135510355Y-109508856D01*
X135516668Y-109512640D01*
X135522579Y-109517024D01*
X135528033Y-109521967D01*
X135532976Y-109527421D01*
X135537360Y-109533332D01*
X135541144Y-109539645D01*
X135544291Y-109546299D01*
X135546771Y-109553229D01*
X135548559Y-109560368D01*
X135549639Y-109567649D01*
X135550000Y-109575000D01*
X135550000Y-109725000D01*
X135549639Y-109732351D01*
X135548559Y-109739632D01*
X135546771Y-109746771D01*
X135544291Y-109753701D01*
X135541144Y-109760355D01*
X135537360Y-109766668D01*
X135532976Y-109772579D01*
X135528033Y-109778033D01*
X135522579Y-109782976D01*
X135516668Y-109787360D01*
X135510355Y-109791144D01*
X135503701Y-109794291D01*
X135496771Y-109796771D01*
X135489632Y-109798559D01*
X135482351Y-109799639D01*
X135475000Y-109800000D01*
X134075000Y-109800000D01*
X134067649Y-109799639D01*
X134060368Y-109798559D01*
X134053229Y-109796771D01*
X134046299Y-109794291D01*
X134039645Y-109791144D01*
X134033332Y-109787360D01*
X134027421Y-109782976D01*
X134021967Y-109778033D01*
X134017024Y-109772579D01*
X134012640Y-109766668D01*
X134008856Y-109760355D01*
X134005709Y-109753701D01*
X134003229Y-109746771D01*
X134001441Y-109739632D01*
X134000361Y-109732351D01*
X134000000Y-109725000D01*
X134000000Y-109575000D01*
X134000361Y-109567649D01*
X134001441Y-109560368D01*
X134003229Y-109553229D01*
X134005709Y-109546299D01*
X134008856Y-109539645D01*
X134012640Y-109533332D01*
X134017024Y-109527421D01*
X134021967Y-109521967D01*
X134027421Y-109517024D01*
X134033332Y-109512640D01*
X134039645Y-109508856D01*
X134046299Y-109505709D01*
X134053229Y-109503229D01*
X134060368Y-109501441D01*
X134067649Y-109500361D01*
X134075000Y-109500000D01*
X135475000Y-109500000D01*
X135482351Y-109500361D01*
G37*
G36*
X135482351Y-109000361D02*
G01*
X135489632Y-109001441D01*
X135496771Y-109003229D01*
X135503701Y-109005709D01*
X135510355Y-109008856D01*
X135516668Y-109012640D01*
X135522579Y-109017024D01*
X135528033Y-109021967D01*
X135532976Y-109027421D01*
X135537360Y-109033332D01*
X135541144Y-109039645D01*
X135544291Y-109046299D01*
X135546771Y-109053229D01*
X135548559Y-109060368D01*
X135549639Y-109067649D01*
X135550000Y-109075000D01*
X135550000Y-109225000D01*
X135549639Y-109232351D01*
X135548559Y-109239632D01*
X135546771Y-109246771D01*
X135544291Y-109253701D01*
X135541144Y-109260355D01*
X135537360Y-109266668D01*
X135532976Y-109272579D01*
X135528033Y-109278033D01*
X135522579Y-109282976D01*
X135516668Y-109287360D01*
X135510355Y-109291144D01*
X135503701Y-109294291D01*
X135496771Y-109296771D01*
X135489632Y-109298559D01*
X135482351Y-109299639D01*
X135475000Y-109300000D01*
X134075000Y-109300000D01*
X134067649Y-109299639D01*
X134060368Y-109298559D01*
X134053229Y-109296771D01*
X134046299Y-109294291D01*
X134039645Y-109291144D01*
X134033332Y-109287360D01*
X134027421Y-109282976D01*
X134021967Y-109278033D01*
X134017024Y-109272579D01*
X134012640Y-109266668D01*
X134008856Y-109260355D01*
X134005709Y-109253701D01*
X134003229Y-109246771D01*
X134001441Y-109239632D01*
X134000361Y-109232351D01*
X134000000Y-109225000D01*
X134000000Y-109075000D01*
X134000361Y-109067649D01*
X134001441Y-109060368D01*
X134003229Y-109053229D01*
X134005709Y-109046299D01*
X134008856Y-109039645D01*
X134012640Y-109033332D01*
X134017024Y-109027421D01*
X134021967Y-109021967D01*
X134027421Y-109017024D01*
X134033332Y-109012640D01*
X134039645Y-109008856D01*
X134046299Y-109005709D01*
X134053229Y-109003229D01*
X134060368Y-109001441D01*
X134067649Y-109000361D01*
X134075000Y-109000000D01*
X135475000Y-109000000D01*
X135482351Y-109000361D01*
G37*
G36*
X135482351Y-108500361D02*
G01*
X135489632Y-108501441D01*
X135496771Y-108503229D01*
X135503701Y-108505709D01*
X135510355Y-108508856D01*
X135516668Y-108512640D01*
X135522579Y-108517024D01*
X135528033Y-108521967D01*
X135532976Y-108527421D01*
X135537360Y-108533332D01*
X135541144Y-108539645D01*
X135544291Y-108546299D01*
X135546771Y-108553229D01*
X135548559Y-108560368D01*
X135549639Y-108567649D01*
X135550000Y-108575000D01*
X135550000Y-108725000D01*
X135549639Y-108732351D01*
X135548559Y-108739632D01*
X135546771Y-108746771D01*
X135544291Y-108753701D01*
X135541144Y-108760355D01*
X135537360Y-108766668D01*
X135532976Y-108772579D01*
X135528033Y-108778033D01*
X135522579Y-108782976D01*
X135516668Y-108787360D01*
X135510355Y-108791144D01*
X135503701Y-108794291D01*
X135496771Y-108796771D01*
X135489632Y-108798559D01*
X135482351Y-108799639D01*
X135475000Y-108800000D01*
X134075000Y-108800000D01*
X134067649Y-108799639D01*
X134060368Y-108798559D01*
X134053229Y-108796771D01*
X134046299Y-108794291D01*
X134039645Y-108791144D01*
X134033332Y-108787360D01*
X134027421Y-108782976D01*
X134021967Y-108778033D01*
X134017024Y-108772579D01*
X134012640Y-108766668D01*
X134008856Y-108760355D01*
X134005709Y-108753701D01*
X134003229Y-108746771D01*
X134001441Y-108739632D01*
X134000361Y-108732351D01*
X134000000Y-108725000D01*
X134000000Y-108575000D01*
X134000361Y-108567649D01*
X134001441Y-108560368D01*
X134003229Y-108553229D01*
X134005709Y-108546299D01*
X134008856Y-108539645D01*
X134012640Y-108533332D01*
X134017024Y-108527421D01*
X134021967Y-108521967D01*
X134027421Y-108517024D01*
X134033332Y-108512640D01*
X134039645Y-108508856D01*
X134046299Y-108505709D01*
X134053229Y-108503229D01*
X134060368Y-108501441D01*
X134067649Y-108500361D01*
X134075000Y-108500000D01*
X135475000Y-108500000D01*
X135482351Y-108500361D01*
G37*
G36*
X135482351Y-108000361D02*
G01*
X135489632Y-108001441D01*
X135496771Y-108003229D01*
X135503701Y-108005709D01*
X135510355Y-108008856D01*
X135516668Y-108012640D01*
X135522579Y-108017024D01*
X135528033Y-108021967D01*
X135532976Y-108027421D01*
X135537360Y-108033332D01*
X135541144Y-108039645D01*
X135544291Y-108046299D01*
X135546771Y-108053229D01*
X135548559Y-108060368D01*
X135549639Y-108067649D01*
X135550000Y-108075000D01*
X135550000Y-108225000D01*
X135549639Y-108232351D01*
X135548559Y-108239632D01*
X135546771Y-108246771D01*
X135544291Y-108253701D01*
X135541144Y-108260355D01*
X135537360Y-108266668D01*
X135532976Y-108272579D01*
X135528033Y-108278033D01*
X135522579Y-108282976D01*
X135516668Y-108287360D01*
X135510355Y-108291144D01*
X135503701Y-108294291D01*
X135496771Y-108296771D01*
X135489632Y-108298559D01*
X135482351Y-108299639D01*
X135475000Y-108300000D01*
X134075000Y-108300000D01*
X134067649Y-108299639D01*
X134060368Y-108298559D01*
X134053229Y-108296771D01*
X134046299Y-108294291D01*
X134039645Y-108291144D01*
X134033332Y-108287360D01*
X134027421Y-108282976D01*
X134021967Y-108278033D01*
X134017024Y-108272579D01*
X134012640Y-108266668D01*
X134008856Y-108260355D01*
X134005709Y-108253701D01*
X134003229Y-108246771D01*
X134001441Y-108239632D01*
X134000361Y-108232351D01*
X134000000Y-108225000D01*
X134000000Y-108075000D01*
X134000361Y-108067649D01*
X134001441Y-108060368D01*
X134003229Y-108053229D01*
X134005709Y-108046299D01*
X134008856Y-108039645D01*
X134012640Y-108033332D01*
X134017024Y-108027421D01*
X134021967Y-108021967D01*
X134027421Y-108017024D01*
X134033332Y-108012640D01*
X134039645Y-108008856D01*
X134046299Y-108005709D01*
X134053229Y-108003229D01*
X134060368Y-108001441D01*
X134067649Y-108000361D01*
X134075000Y-108000000D01*
X135475000Y-108000000D01*
X135482351Y-108000361D01*
G37*
G36*
X135482351Y-107500361D02*
G01*
X135489632Y-107501441D01*
X135496771Y-107503229D01*
X135503701Y-107505709D01*
X135510355Y-107508856D01*
X135516668Y-107512640D01*
X135522579Y-107517024D01*
X135528033Y-107521967D01*
X135532976Y-107527421D01*
X135537360Y-107533332D01*
X135541144Y-107539645D01*
X135544291Y-107546299D01*
X135546771Y-107553229D01*
X135548559Y-107560368D01*
X135549639Y-107567649D01*
X135550000Y-107575000D01*
X135550000Y-107725000D01*
X135549639Y-107732351D01*
X135548559Y-107739632D01*
X135546771Y-107746771D01*
X135544291Y-107753701D01*
X135541144Y-107760355D01*
X135537360Y-107766668D01*
X135532976Y-107772579D01*
X135528033Y-107778033D01*
X135522579Y-107782976D01*
X135516668Y-107787360D01*
X135510355Y-107791144D01*
X135503701Y-107794291D01*
X135496771Y-107796771D01*
X135489632Y-107798559D01*
X135482351Y-107799639D01*
X135475000Y-107800000D01*
X134075000Y-107800000D01*
X134067649Y-107799639D01*
X134060368Y-107798559D01*
X134053229Y-107796771D01*
X134046299Y-107794291D01*
X134039645Y-107791144D01*
X134033332Y-107787360D01*
X134027421Y-107782976D01*
X134021967Y-107778033D01*
X134017024Y-107772579D01*
X134012640Y-107766668D01*
X134008856Y-107760355D01*
X134005709Y-107753701D01*
X134003229Y-107746771D01*
X134001441Y-107739632D01*
X134000361Y-107732351D01*
X134000000Y-107725000D01*
X134000000Y-107575000D01*
X134000361Y-107567649D01*
X134001441Y-107560368D01*
X134003229Y-107553229D01*
X134005709Y-107546299D01*
X134008856Y-107539645D01*
X134012640Y-107533332D01*
X134017024Y-107527421D01*
X134021967Y-107521967D01*
X134027421Y-107517024D01*
X134033332Y-107512640D01*
X134039645Y-107508856D01*
X134046299Y-107505709D01*
X134053229Y-107503229D01*
X134060368Y-107501441D01*
X134067649Y-107500361D01*
X134075000Y-107500000D01*
X135475000Y-107500000D01*
X135482351Y-107500361D01*
G37*
G36*
X135482351Y-107000361D02*
G01*
X135489632Y-107001441D01*
X135496771Y-107003229D01*
X135503701Y-107005709D01*
X135510355Y-107008856D01*
X135516668Y-107012640D01*
X135522579Y-107017024D01*
X135528033Y-107021967D01*
X135532976Y-107027421D01*
X135537360Y-107033332D01*
X135541144Y-107039645D01*
X135544291Y-107046299D01*
X135546771Y-107053229D01*
X135548559Y-107060368D01*
X135549639Y-107067649D01*
X135550000Y-107075000D01*
X135550000Y-107225000D01*
X135549639Y-107232351D01*
X135548559Y-107239632D01*
X135546771Y-107246771D01*
X135544291Y-107253701D01*
X135541144Y-107260355D01*
X135537360Y-107266668D01*
X135532976Y-107272579D01*
X135528033Y-107278033D01*
X135522579Y-107282976D01*
X135516668Y-107287360D01*
X135510355Y-107291144D01*
X135503701Y-107294291D01*
X135496771Y-107296771D01*
X135489632Y-107298559D01*
X135482351Y-107299639D01*
X135475000Y-107300000D01*
X134075000Y-107300000D01*
X134067649Y-107299639D01*
X134060368Y-107298559D01*
X134053229Y-107296771D01*
X134046299Y-107294291D01*
X134039645Y-107291144D01*
X134033332Y-107287360D01*
X134027421Y-107282976D01*
X134021967Y-107278033D01*
X134017024Y-107272579D01*
X134012640Y-107266668D01*
X134008856Y-107260355D01*
X134005709Y-107253701D01*
X134003229Y-107246771D01*
X134001441Y-107239632D01*
X134000361Y-107232351D01*
X134000000Y-107225000D01*
X134000000Y-107075000D01*
X134000361Y-107067649D01*
X134001441Y-107060368D01*
X134003229Y-107053229D01*
X134005709Y-107046299D01*
X134008856Y-107039645D01*
X134012640Y-107033332D01*
X134017024Y-107027421D01*
X134021967Y-107021967D01*
X134027421Y-107017024D01*
X134033332Y-107012640D01*
X134039645Y-107008856D01*
X134046299Y-107005709D01*
X134053229Y-107003229D01*
X134060368Y-107001441D01*
X134067649Y-107000361D01*
X134075000Y-107000000D01*
X135475000Y-107000000D01*
X135482351Y-107000361D01*
G37*
G36*
X135482351Y-106500361D02*
G01*
X135489632Y-106501441D01*
X135496771Y-106503229D01*
X135503701Y-106505709D01*
X135510355Y-106508856D01*
X135516668Y-106512640D01*
X135522579Y-106517024D01*
X135528033Y-106521967D01*
X135532976Y-106527421D01*
X135537360Y-106533332D01*
X135541144Y-106539645D01*
X135544291Y-106546299D01*
X135546771Y-106553229D01*
X135548559Y-106560368D01*
X135549639Y-106567649D01*
X135550000Y-106575000D01*
X135550000Y-106725000D01*
X135549639Y-106732351D01*
X135548559Y-106739632D01*
X135546771Y-106746771D01*
X135544291Y-106753701D01*
X135541144Y-106760355D01*
X135537360Y-106766668D01*
X135532976Y-106772579D01*
X135528033Y-106778033D01*
X135522579Y-106782976D01*
X135516668Y-106787360D01*
X135510355Y-106791144D01*
X135503701Y-106794291D01*
X135496771Y-106796771D01*
X135489632Y-106798559D01*
X135482351Y-106799639D01*
X135475000Y-106800000D01*
X134075000Y-106800000D01*
X134067649Y-106799639D01*
X134060368Y-106798559D01*
X134053229Y-106796771D01*
X134046299Y-106794291D01*
X134039645Y-106791144D01*
X134033332Y-106787360D01*
X134027421Y-106782976D01*
X134021967Y-106778033D01*
X134017024Y-106772579D01*
X134012640Y-106766668D01*
X134008856Y-106760355D01*
X134005709Y-106753701D01*
X134003229Y-106746771D01*
X134001441Y-106739632D01*
X134000361Y-106732351D01*
X134000000Y-106725000D01*
X134000000Y-106575000D01*
X134000361Y-106567649D01*
X134001441Y-106560368D01*
X134003229Y-106553229D01*
X134005709Y-106546299D01*
X134008856Y-106539645D01*
X134012640Y-106533332D01*
X134017024Y-106527421D01*
X134021967Y-106521967D01*
X134027421Y-106517024D01*
X134033332Y-106512640D01*
X134039645Y-106508856D01*
X134046299Y-106505709D01*
X134053229Y-106503229D01*
X134060368Y-106501441D01*
X134067649Y-106500361D01*
X134075000Y-106500000D01*
X135475000Y-106500000D01*
X135482351Y-106500361D01*
G37*
D30*
X113952000Y-88530000D03*
X113952000Y-93610000D03*
X113952000Y-92340000D03*
X113952000Y-91070000D03*
X113952000Y-89800000D03*
X113952000Y-87260000D03*
X113952000Y-85990000D03*
X120302000Y-85990000D03*
X120302000Y-87260000D03*
X120302000Y-88530000D03*
X120302000Y-89800000D03*
X120302000Y-91070000D03*
X120302000Y-92340000D03*
X120302000Y-93610000D03*
D31*
X139800000Y-148225000D03*
X139800000Y-147575000D03*
X139800000Y-146925000D03*
X139800000Y-146275000D03*
X139800000Y-145625000D03*
X139800000Y-144975000D03*
X139800000Y-144325000D03*
X139800000Y-143675000D03*
X139800000Y-143025000D03*
X139800000Y-142375000D03*
X145600000Y-142375000D03*
X145600000Y-143025000D03*
X145600000Y-143675000D03*
X145600000Y-144325000D03*
X145600000Y-144975000D03*
X145600000Y-145625000D03*
X145600000Y-146275000D03*
X145600000Y-146925000D03*
X145600000Y-147575000D03*
X145600000Y-148225000D03*
D30*
X141225000Y-135605000D03*
X141225000Y-134335000D03*
X141225000Y-133065000D03*
X141225000Y-131795000D03*
X147575000Y-131795000D03*
X147575000Y-133065000D03*
X147575000Y-134335000D03*
X147575000Y-135605000D03*
D32*
X117000000Y-152350000D03*
X121600000Y-152350000D03*
X119300000Y-152350000D03*
D33*
X119300000Y-146050000D03*
X145100000Y-71350000D03*
D32*
X145100000Y-65050000D03*
X142800000Y-65050000D03*
X147400000Y-65050000D03*
M02*
