G04 #@! TF.GenerationSoftware,KiCad,Pcbnew,(5.1.5)-3*
G04 #@! TF.CreationDate,2020-05-14T17:44:52+01:00*
G04 #@! TF.ProjectId,AddaTone Solder Stencil,41646461-546f-46e6-9520-536f6c646572,rev?*
G04 #@! TF.SameCoordinates,Original*
G04 #@! TF.FileFunction,Soldermask,Top*
G04 #@! TF.FilePolarity,Negative*
%FSLAX46Y46*%
G04 Gerber Fmt 4.6, Leading zero omitted, Abs format (unit mm)*
G04 Created by KiCad (PCBNEW (5.1.5)-3) date 2020-05-14 17:44:52*
%MOMM*%
%LPD*%
G04 APERTURE LIST*
%ADD10C,0.100000*%
G04 APERTURE END LIST*
D10*
G36*
X147225000Y-154200000D02*
G01*
X145975000Y-154200000D01*
X145975000Y-152700000D01*
X147225000Y-152700000D01*
X147225000Y-154200000D01*
G37*
G36*
X145225000Y-154200000D02*
G01*
X143975000Y-154200000D01*
X143975000Y-152700000D01*
X145225000Y-152700000D01*
X145225000Y-154200000D01*
G37*
G36*
X122350000Y-153350000D02*
G01*
X120850000Y-153350000D01*
X120850000Y-151350000D01*
X122350000Y-151350000D01*
X122350000Y-153350000D01*
G37*
G36*
X117750000Y-153350000D02*
G01*
X116250000Y-153350000D01*
X116250000Y-151350000D01*
X117750000Y-151350000D01*
X117750000Y-153350000D01*
G37*
G36*
X120050000Y-153350000D02*
G01*
X118550000Y-153350000D01*
X118550000Y-151350000D01*
X120050000Y-151350000D01*
X120050000Y-153350000D01*
G37*
G36*
X126700000Y-151800000D02*
G01*
X125100000Y-151800000D01*
X125100000Y-149600000D01*
X126700000Y-149600000D01*
X126700000Y-151800000D01*
G37*
G36*
X147225000Y-151700000D02*
G01*
X145975000Y-151700000D01*
X145975000Y-150200000D01*
X147225000Y-150200000D01*
X147225000Y-151700000D01*
G37*
G36*
X145225000Y-151700000D02*
G01*
X143975000Y-151700000D01*
X143975000Y-150200000D01*
X145225000Y-150200000D01*
X145225000Y-151700000D01*
G37*
G36*
X113100000Y-151600000D02*
G01*
X111500000Y-151600000D01*
X111500000Y-149400000D01*
X113100000Y-149400000D01*
X113100000Y-151600000D01*
G37*
G36*
X134900000Y-151525000D02*
G01*
X133400000Y-151525000D01*
X133400000Y-150275000D01*
X134900000Y-150275000D01*
X134900000Y-151525000D01*
G37*
G36*
X137400000Y-151525000D02*
G01*
X135900000Y-151525000D01*
X135900000Y-150275000D01*
X137400000Y-150275000D01*
X137400000Y-151525000D01*
G37*
G36*
X150425000Y-151000000D02*
G01*
X149175000Y-151000000D01*
X149175000Y-149500000D01*
X150425000Y-149500000D01*
X150425000Y-151000000D01*
G37*
G36*
X134900000Y-149525000D02*
G01*
X133400000Y-149525000D01*
X133400000Y-148275000D01*
X134900000Y-148275000D01*
X134900000Y-149525000D01*
G37*
G36*
X137400000Y-149525000D02*
G01*
X135900000Y-149525000D01*
X135900000Y-148275000D01*
X137400000Y-148275000D01*
X137400000Y-149525000D01*
G37*
G36*
X126700000Y-148800000D02*
G01*
X125100000Y-148800000D01*
X125100000Y-146600000D01*
X126700000Y-146600000D01*
X126700000Y-148800000D01*
G37*
G36*
X113100000Y-148600000D02*
G01*
X111500000Y-148600000D01*
X111500000Y-146400000D01*
X113100000Y-146400000D01*
X113100000Y-148600000D01*
G37*
G36*
X150425000Y-148500000D02*
G01*
X149175000Y-148500000D01*
X149175000Y-147000000D01*
X150425000Y-147000000D01*
X150425000Y-148500000D01*
G37*
G36*
X140300000Y-148425000D02*
G01*
X139300000Y-148425000D01*
X139300000Y-148025000D01*
X140300000Y-148025000D01*
X140300000Y-148425000D01*
G37*
G36*
X146100000Y-148425000D02*
G01*
X145100000Y-148425000D01*
X145100000Y-148025000D01*
X146100000Y-148025000D01*
X146100000Y-148425000D01*
G37*
G36*
X140300000Y-147775000D02*
G01*
X139300000Y-147775000D01*
X139300000Y-147375000D01*
X140300000Y-147375000D01*
X140300000Y-147775000D01*
G37*
G36*
X146100000Y-147775000D02*
G01*
X145100000Y-147775000D01*
X145100000Y-147375000D01*
X146100000Y-147375000D01*
X146100000Y-147775000D01*
G37*
G36*
X135050000Y-147275000D02*
G01*
X133850000Y-147275000D01*
X133850000Y-146525000D01*
X135050000Y-146525000D01*
X135050000Y-147275000D01*
G37*
G36*
X136950000Y-147275000D02*
G01*
X135750000Y-147275000D01*
X135750000Y-146525000D01*
X136950000Y-146525000D01*
X136950000Y-147275000D01*
G37*
G36*
X146100000Y-147125000D02*
G01*
X145100000Y-147125000D01*
X145100000Y-146725000D01*
X146100000Y-146725000D01*
X146100000Y-147125000D01*
G37*
G36*
X140300000Y-147125000D02*
G01*
X139300000Y-147125000D01*
X139300000Y-146725000D01*
X140300000Y-146725000D01*
X140300000Y-147125000D01*
G37*
G36*
X121200000Y-147050000D02*
G01*
X117400000Y-147050000D01*
X117400000Y-145050000D01*
X121200000Y-145050000D01*
X121200000Y-147050000D01*
G37*
G36*
X154925000Y-147000000D02*
G01*
X153675000Y-147000000D01*
X153675000Y-145500000D01*
X154925000Y-145500000D01*
X154925000Y-147000000D01*
G37*
G36*
X140300000Y-146475000D02*
G01*
X139300000Y-146475000D01*
X139300000Y-146075000D01*
X140300000Y-146075000D01*
X140300000Y-146475000D01*
G37*
G36*
X146100000Y-146475000D02*
G01*
X145100000Y-146475000D01*
X145100000Y-146075000D01*
X146100000Y-146075000D01*
X146100000Y-146475000D01*
G37*
G36*
X149200000Y-146225000D02*
G01*
X147700000Y-146225000D01*
X147700000Y-144975000D01*
X149200000Y-144975000D01*
X149200000Y-146225000D01*
G37*
G36*
X151700000Y-146225000D02*
G01*
X150200000Y-146225000D01*
X150200000Y-144975000D01*
X151700000Y-144975000D01*
X151700000Y-146225000D01*
G37*
G36*
X140300000Y-145825000D02*
G01*
X139300000Y-145825000D01*
X139300000Y-145425000D01*
X140300000Y-145425000D01*
X140300000Y-145825000D01*
G37*
G36*
X146100000Y-145825000D02*
G01*
X145100000Y-145825000D01*
X145100000Y-145425000D01*
X146100000Y-145425000D01*
X146100000Y-145825000D01*
G37*
G36*
X146100000Y-145175000D02*
G01*
X145100000Y-145175000D01*
X145100000Y-144775000D01*
X146100000Y-144775000D01*
X146100000Y-145175000D01*
G37*
G36*
X140300000Y-145175000D02*
G01*
X139300000Y-145175000D01*
X139300000Y-144775000D01*
X140300000Y-144775000D01*
X140300000Y-145175000D01*
G37*
G36*
X146100000Y-144525000D02*
G01*
X145100000Y-144525000D01*
X145100000Y-144125000D01*
X146100000Y-144125000D01*
X146100000Y-144525000D01*
G37*
G36*
X140300000Y-144525000D02*
G01*
X139300000Y-144525000D01*
X139300000Y-144125000D01*
X140300000Y-144125000D01*
X140300000Y-144525000D01*
G37*
G36*
X154925000Y-144500000D02*
G01*
X153675000Y-144500000D01*
X153675000Y-143000000D01*
X154925000Y-143000000D01*
X154925000Y-144500000D01*
G37*
G36*
X151800000Y-144250000D02*
G01*
X150300000Y-144250000D01*
X150300000Y-142950000D01*
X151800000Y-142950000D01*
X151800000Y-144250000D01*
G37*
G36*
X149100000Y-144250000D02*
G01*
X147600000Y-144250000D01*
X147600000Y-142950000D01*
X149100000Y-142950000D01*
X149100000Y-144250000D01*
G37*
G36*
X140300000Y-143875000D02*
G01*
X139300000Y-143875000D01*
X139300000Y-143475000D01*
X140300000Y-143475000D01*
X140300000Y-143875000D01*
G37*
G36*
X146100000Y-143875000D02*
G01*
X145100000Y-143875000D01*
X145100000Y-143475000D01*
X146100000Y-143475000D01*
X146100000Y-143875000D01*
G37*
G36*
X140300000Y-143225000D02*
G01*
X139300000Y-143225000D01*
X139300000Y-142825000D01*
X140300000Y-142825000D01*
X140300000Y-143225000D01*
G37*
G36*
X146100000Y-143225000D02*
G01*
X145100000Y-143225000D01*
X145100000Y-142825000D01*
X146100000Y-142825000D01*
X146100000Y-143225000D01*
G37*
G36*
X140300000Y-142575000D02*
G01*
X139300000Y-142575000D01*
X139300000Y-142175000D01*
X140300000Y-142175000D01*
X140300000Y-142575000D01*
G37*
G36*
X146100000Y-142575000D02*
G01*
X145100000Y-142575000D01*
X145100000Y-142175000D01*
X146100000Y-142175000D01*
X146100000Y-142575000D01*
G37*
G36*
X149200000Y-142225000D02*
G01*
X147700000Y-142225000D01*
X147700000Y-140975000D01*
X149200000Y-140975000D01*
X149200000Y-142225000D01*
G37*
G36*
X151700000Y-142225000D02*
G01*
X150200000Y-142225000D01*
X150200000Y-140975000D01*
X151700000Y-140975000D01*
X151700000Y-142225000D01*
G37*
G36*
X154950000Y-142000000D02*
G01*
X153650000Y-142000000D01*
X153650000Y-140500000D01*
X154950000Y-140500000D01*
X154950000Y-142000000D01*
G37*
G36*
X108900000Y-141525000D02*
G01*
X107400000Y-141525000D01*
X107400000Y-140275000D01*
X108900000Y-140275000D01*
X108900000Y-141525000D01*
G37*
G36*
X111400000Y-141525000D02*
G01*
X109900000Y-141525000D01*
X109900000Y-140275000D01*
X111400000Y-140275000D01*
X111400000Y-141525000D01*
G37*
G36*
X124600000Y-140525000D02*
G01*
X123100000Y-140525000D01*
X123100000Y-139275000D01*
X124600000Y-139275000D01*
X124600000Y-140525000D01*
G37*
G36*
X127100000Y-140525000D02*
G01*
X125600000Y-140525000D01*
X125600000Y-139275000D01*
X127100000Y-139275000D01*
X127100000Y-140525000D01*
G37*
G36*
X139700000Y-140250000D02*
G01*
X138200000Y-140250000D01*
X138200000Y-138950000D01*
X139700000Y-138950000D01*
X139700000Y-140250000D01*
G37*
G36*
X142400000Y-140250000D02*
G01*
X140900000Y-140250000D01*
X140900000Y-138950000D01*
X142400000Y-138950000D01*
X142400000Y-140250000D01*
G37*
G36*
X134900000Y-140225000D02*
G01*
X133400000Y-140225000D01*
X133400000Y-138975000D01*
X134900000Y-138975000D01*
X134900000Y-140225000D01*
G37*
G36*
X137400000Y-140225000D02*
G01*
X135900000Y-140225000D01*
X135900000Y-138975000D01*
X137400000Y-138975000D01*
X137400000Y-140225000D01*
G37*
G36*
X108900000Y-139425000D02*
G01*
X107400000Y-139425000D01*
X107400000Y-138175000D01*
X108900000Y-138175000D01*
X108900000Y-139425000D01*
G37*
G36*
X111400000Y-139425000D02*
G01*
X109900000Y-139425000D01*
X109900000Y-138175000D01*
X111400000Y-138175000D01*
X111400000Y-139425000D01*
G37*
G36*
X154950000Y-139300000D02*
G01*
X153650000Y-139300000D01*
X153650000Y-137800000D01*
X154950000Y-137800000D01*
X154950000Y-139300000D01*
G37*
G36*
X124600000Y-138525000D02*
G01*
X123100000Y-138525000D01*
X123100000Y-137275000D01*
X124600000Y-137275000D01*
X124600000Y-138525000D01*
G37*
G36*
X127100000Y-138525000D02*
G01*
X125600000Y-138525000D01*
X125600000Y-137275000D01*
X127100000Y-137275000D01*
X127100000Y-138525000D01*
G37*
G36*
X120279407Y-137602171D02*
G01*
X120307676Y-137610746D01*
X120333740Y-137624678D01*
X120356579Y-137643421D01*
X120375322Y-137666260D01*
X120389254Y-137692324D01*
X120397829Y-137720593D01*
X120400000Y-137742638D01*
X120400000Y-138057362D01*
X120397829Y-138079407D01*
X120389254Y-138107676D01*
X120375322Y-138133740D01*
X120356579Y-138156579D01*
X120333739Y-138175323D01*
X120307678Y-138189253D01*
X120279406Y-138197829D01*
X120250000Y-138200725D01*
X120220593Y-138197829D01*
X120192324Y-138189254D01*
X120166260Y-138175322D01*
X120143421Y-138156579D01*
X120124675Y-138133737D01*
X120110238Y-138106727D01*
X120096624Y-138086353D01*
X120079297Y-138069026D01*
X120058923Y-138055413D01*
X120036284Y-138046036D01*
X120012250Y-138041256D01*
X119987746Y-138041256D01*
X119963713Y-138046037D01*
X119941074Y-138055415D01*
X119920700Y-138069029D01*
X119903373Y-138086356D01*
X119889762Y-138106727D01*
X119875325Y-138133737D01*
X119856579Y-138156579D01*
X119833739Y-138175323D01*
X119807678Y-138189253D01*
X119779406Y-138197829D01*
X119750000Y-138200725D01*
X119720593Y-138197829D01*
X119692324Y-138189254D01*
X119666260Y-138175322D01*
X119643421Y-138156579D01*
X119624675Y-138133737D01*
X119610238Y-138106727D01*
X119596624Y-138086353D01*
X119579297Y-138069026D01*
X119558923Y-138055413D01*
X119536284Y-138046036D01*
X119512250Y-138041256D01*
X119487746Y-138041256D01*
X119463713Y-138046037D01*
X119441074Y-138055415D01*
X119420700Y-138069029D01*
X119403373Y-138086356D01*
X119389762Y-138106727D01*
X119375325Y-138133737D01*
X119356579Y-138156579D01*
X119333739Y-138175323D01*
X119307678Y-138189253D01*
X119279406Y-138197829D01*
X119250000Y-138200725D01*
X119220593Y-138197829D01*
X119192324Y-138189254D01*
X119166260Y-138175322D01*
X119143421Y-138156579D01*
X119124675Y-138133737D01*
X119110238Y-138106727D01*
X119096624Y-138086353D01*
X119079297Y-138069026D01*
X119058923Y-138055413D01*
X119036284Y-138046036D01*
X119012250Y-138041256D01*
X118987746Y-138041256D01*
X118963713Y-138046037D01*
X118941074Y-138055415D01*
X118920700Y-138069029D01*
X118903373Y-138086356D01*
X118889761Y-138106729D01*
X118875324Y-138133738D01*
X118856579Y-138156580D01*
X118833739Y-138175324D01*
X118807678Y-138189254D01*
X118779406Y-138197830D01*
X118750000Y-138200726D01*
X118720593Y-138197830D01*
X118692324Y-138189255D01*
X118666260Y-138175323D01*
X118643421Y-138156580D01*
X118624676Y-138133738D01*
X118610239Y-138106729D01*
X118596625Y-138086354D01*
X118579298Y-138069027D01*
X118558924Y-138055414D01*
X118536285Y-138046036D01*
X118512252Y-138041256D01*
X118487748Y-138041256D01*
X118463714Y-138046037D01*
X118441076Y-138055414D01*
X118420701Y-138069028D01*
X118403374Y-138086355D01*
X118389762Y-138106727D01*
X118375325Y-138133737D01*
X118356579Y-138156579D01*
X118333739Y-138175323D01*
X118307678Y-138189253D01*
X118279406Y-138197829D01*
X118250000Y-138200725D01*
X118220593Y-138197829D01*
X118192324Y-138189254D01*
X118166260Y-138175322D01*
X118143421Y-138156579D01*
X118124675Y-138133737D01*
X118110238Y-138106727D01*
X118096624Y-138086353D01*
X118079297Y-138069026D01*
X118058923Y-138055413D01*
X118036284Y-138046036D01*
X118012250Y-138041256D01*
X117987746Y-138041256D01*
X117963713Y-138046037D01*
X117941074Y-138055415D01*
X117920700Y-138069029D01*
X117903373Y-138086356D01*
X117889762Y-138106727D01*
X117875325Y-138133737D01*
X117856579Y-138156579D01*
X117833739Y-138175323D01*
X117807678Y-138189253D01*
X117779406Y-138197829D01*
X117750000Y-138200725D01*
X117720593Y-138197829D01*
X117692324Y-138189254D01*
X117666260Y-138175322D01*
X117643421Y-138156579D01*
X117624675Y-138133737D01*
X117610238Y-138106727D01*
X117596624Y-138086353D01*
X117579297Y-138069026D01*
X117558923Y-138055413D01*
X117536284Y-138046036D01*
X117512250Y-138041256D01*
X117487746Y-138041256D01*
X117463713Y-138046037D01*
X117441074Y-138055415D01*
X117420700Y-138069029D01*
X117403373Y-138086356D01*
X117389762Y-138106727D01*
X117375325Y-138133737D01*
X117356579Y-138156579D01*
X117333739Y-138175323D01*
X117307678Y-138189253D01*
X117279406Y-138197829D01*
X117250000Y-138200725D01*
X117220593Y-138197829D01*
X117192324Y-138189254D01*
X117166260Y-138175322D01*
X117143421Y-138156579D01*
X117124675Y-138133737D01*
X117110238Y-138106727D01*
X117096624Y-138086353D01*
X117079297Y-138069026D01*
X117058923Y-138055413D01*
X117036284Y-138046036D01*
X117012250Y-138041256D01*
X116987746Y-138041256D01*
X116963713Y-138046037D01*
X116941074Y-138055415D01*
X116920700Y-138069029D01*
X116903373Y-138086356D01*
X116889762Y-138106727D01*
X116875325Y-138133737D01*
X116856579Y-138156579D01*
X116833739Y-138175323D01*
X116807678Y-138189253D01*
X116779406Y-138197829D01*
X116750000Y-138200725D01*
X116720593Y-138197829D01*
X116692324Y-138189254D01*
X116666260Y-138175322D01*
X116643421Y-138156579D01*
X116624675Y-138133737D01*
X116610238Y-138106727D01*
X116596624Y-138086353D01*
X116579297Y-138069026D01*
X116558923Y-138055413D01*
X116536284Y-138046036D01*
X116512250Y-138041256D01*
X116487746Y-138041256D01*
X116463713Y-138046037D01*
X116441074Y-138055415D01*
X116420700Y-138069029D01*
X116403373Y-138086356D01*
X116389761Y-138106729D01*
X116375324Y-138133738D01*
X116356579Y-138156580D01*
X116333739Y-138175324D01*
X116307678Y-138189254D01*
X116279406Y-138197830D01*
X116250000Y-138200726D01*
X116220593Y-138197830D01*
X116192324Y-138189255D01*
X116166260Y-138175323D01*
X116143421Y-138156580D01*
X116124676Y-138133738D01*
X116110239Y-138106729D01*
X116096625Y-138086354D01*
X116079298Y-138069027D01*
X116058924Y-138055414D01*
X116036285Y-138046036D01*
X116012252Y-138041256D01*
X115987748Y-138041256D01*
X115963714Y-138046037D01*
X115941076Y-138055414D01*
X115920701Y-138069028D01*
X115903374Y-138086355D01*
X115889762Y-138106727D01*
X115875325Y-138133737D01*
X115856579Y-138156579D01*
X115833739Y-138175323D01*
X115807678Y-138189253D01*
X115779406Y-138197829D01*
X115750000Y-138200725D01*
X115720593Y-138197829D01*
X115692324Y-138189254D01*
X115666260Y-138175322D01*
X115643421Y-138156579D01*
X115624675Y-138133737D01*
X115610238Y-138106727D01*
X115596624Y-138086353D01*
X115579297Y-138069026D01*
X115558923Y-138055413D01*
X115536284Y-138046036D01*
X115512250Y-138041256D01*
X115487746Y-138041256D01*
X115463713Y-138046037D01*
X115441074Y-138055415D01*
X115420700Y-138069029D01*
X115403373Y-138086356D01*
X115389762Y-138106727D01*
X115375325Y-138133737D01*
X115356579Y-138156579D01*
X115333739Y-138175323D01*
X115307678Y-138189253D01*
X115279406Y-138197829D01*
X115250000Y-138200725D01*
X115220593Y-138197829D01*
X115192324Y-138189254D01*
X115166260Y-138175322D01*
X115143421Y-138156579D01*
X115124675Y-138133737D01*
X115110238Y-138106727D01*
X115096624Y-138086353D01*
X115079297Y-138069026D01*
X115058923Y-138055413D01*
X115036284Y-138046036D01*
X115012250Y-138041256D01*
X114987746Y-138041256D01*
X114963713Y-138046037D01*
X114941074Y-138055415D01*
X114920700Y-138069029D01*
X114903373Y-138086356D01*
X114889762Y-138106727D01*
X114875325Y-138133737D01*
X114856579Y-138156579D01*
X114833739Y-138175323D01*
X114807678Y-138189253D01*
X114779406Y-138197829D01*
X114750000Y-138200725D01*
X114720593Y-138197829D01*
X114692324Y-138189254D01*
X114666260Y-138175322D01*
X114643421Y-138156579D01*
X114624677Y-138133739D01*
X114610747Y-138107678D01*
X114602171Y-138079406D01*
X114600000Y-138057361D01*
X114600000Y-137742638D01*
X114602171Y-137720599D01*
X114604279Y-137713649D01*
X114610749Y-137692320D01*
X114624678Y-137666262D01*
X114624679Y-137666260D01*
X114643422Y-137643421D01*
X114666261Y-137624678D01*
X114692325Y-137610746D01*
X114720594Y-137602171D01*
X114750000Y-137599275D01*
X114779407Y-137602171D01*
X114807676Y-137610746D01*
X114833740Y-137624678D01*
X114856579Y-137643421D01*
X114875324Y-137666263D01*
X114889761Y-137693272D01*
X114903375Y-137713647D01*
X114920702Y-137730974D01*
X114941076Y-137744587D01*
X114963715Y-137753965D01*
X114987748Y-137758745D01*
X115012252Y-137758745D01*
X115036286Y-137753964D01*
X115058924Y-137744587D01*
X115079299Y-137730973D01*
X115096626Y-137713646D01*
X115110238Y-137693275D01*
X115124678Y-137666262D01*
X115143422Y-137643421D01*
X115166261Y-137624678D01*
X115192325Y-137610746D01*
X115220594Y-137602171D01*
X115250000Y-137599275D01*
X115279407Y-137602171D01*
X115307676Y-137610746D01*
X115333740Y-137624678D01*
X115356579Y-137643421D01*
X115375324Y-137666263D01*
X115389761Y-137693272D01*
X115403375Y-137713647D01*
X115420702Y-137730974D01*
X115441076Y-137744587D01*
X115463715Y-137753965D01*
X115487748Y-137758745D01*
X115512252Y-137758745D01*
X115536286Y-137753964D01*
X115558924Y-137744587D01*
X115579299Y-137730973D01*
X115596626Y-137713646D01*
X115610238Y-137693275D01*
X115624678Y-137666262D01*
X115643422Y-137643421D01*
X115666261Y-137624678D01*
X115692325Y-137610746D01*
X115720594Y-137602171D01*
X115750000Y-137599275D01*
X115779407Y-137602171D01*
X115807676Y-137610746D01*
X115833740Y-137624678D01*
X115856579Y-137643421D01*
X115875323Y-137666262D01*
X115889763Y-137693275D01*
X115903377Y-137713649D01*
X115920705Y-137730975D01*
X115941079Y-137744589D01*
X115963718Y-137753965D01*
X115987752Y-137758745D01*
X116012256Y-137758745D01*
X116036289Y-137753964D01*
X116058928Y-137744586D01*
X116079302Y-137730972D01*
X116096628Y-137713644D01*
X116110239Y-137693274D01*
X116124676Y-137666264D01*
X116143422Y-137643422D01*
X116166261Y-137624679D01*
X116192325Y-137610747D01*
X116220594Y-137602172D01*
X116250000Y-137599276D01*
X116279407Y-137602172D01*
X116307676Y-137610747D01*
X116333740Y-137624679D01*
X116356579Y-137643422D01*
X116375325Y-137666264D01*
X116389762Y-137693274D01*
X116403376Y-137713648D01*
X116420703Y-137730975D01*
X116441077Y-137744588D01*
X116463716Y-137753965D01*
X116487750Y-137758745D01*
X116512254Y-137758745D01*
X116536287Y-137753964D01*
X116558926Y-137744586D01*
X116579300Y-137730972D01*
X116596627Y-137713645D01*
X116610238Y-137693275D01*
X116624678Y-137666262D01*
X116643422Y-137643421D01*
X116666261Y-137624678D01*
X116692325Y-137610746D01*
X116720594Y-137602171D01*
X116750000Y-137599275D01*
X116779407Y-137602171D01*
X116807676Y-137610746D01*
X116833740Y-137624678D01*
X116856579Y-137643421D01*
X116875324Y-137666263D01*
X116889761Y-137693272D01*
X116903375Y-137713647D01*
X116920702Y-137730974D01*
X116941076Y-137744587D01*
X116963715Y-137753965D01*
X116987748Y-137758745D01*
X117012252Y-137758745D01*
X117036286Y-137753964D01*
X117058924Y-137744587D01*
X117079299Y-137730973D01*
X117096626Y-137713646D01*
X117110238Y-137693275D01*
X117124678Y-137666262D01*
X117143422Y-137643421D01*
X117166261Y-137624678D01*
X117192325Y-137610746D01*
X117220594Y-137602171D01*
X117250000Y-137599275D01*
X117279407Y-137602171D01*
X117307676Y-137610746D01*
X117333740Y-137624678D01*
X117356579Y-137643421D01*
X117375324Y-137666263D01*
X117389761Y-137693272D01*
X117403375Y-137713647D01*
X117420702Y-137730974D01*
X117441076Y-137744587D01*
X117463715Y-137753965D01*
X117487748Y-137758745D01*
X117512252Y-137758745D01*
X117536286Y-137753964D01*
X117558924Y-137744587D01*
X117579299Y-137730973D01*
X117596626Y-137713646D01*
X117610238Y-137693275D01*
X117624678Y-137666262D01*
X117643422Y-137643421D01*
X117666261Y-137624678D01*
X117692325Y-137610746D01*
X117720594Y-137602171D01*
X117750000Y-137599275D01*
X117779407Y-137602171D01*
X117807676Y-137610746D01*
X117833740Y-137624678D01*
X117856579Y-137643421D01*
X117875324Y-137666263D01*
X117889761Y-137693272D01*
X117903375Y-137713647D01*
X117920702Y-137730974D01*
X117941076Y-137744587D01*
X117963715Y-137753965D01*
X117987748Y-137758745D01*
X118012252Y-137758745D01*
X118036286Y-137753964D01*
X118058924Y-137744587D01*
X118079299Y-137730973D01*
X118096626Y-137713646D01*
X118110238Y-137693275D01*
X118124678Y-137666262D01*
X118143422Y-137643421D01*
X118166261Y-137624678D01*
X118192325Y-137610746D01*
X118220594Y-137602171D01*
X118250000Y-137599275D01*
X118279407Y-137602171D01*
X118307676Y-137610746D01*
X118333740Y-137624678D01*
X118356579Y-137643421D01*
X118375323Y-137666262D01*
X118389763Y-137693275D01*
X118403377Y-137713649D01*
X118420705Y-137730975D01*
X118441079Y-137744589D01*
X118463718Y-137753965D01*
X118487752Y-137758745D01*
X118512256Y-137758745D01*
X118536289Y-137753964D01*
X118558928Y-137744586D01*
X118579302Y-137730972D01*
X118596628Y-137713644D01*
X118610239Y-137693274D01*
X118624676Y-137666264D01*
X118643422Y-137643422D01*
X118666261Y-137624679D01*
X118692325Y-137610747D01*
X118720594Y-137602172D01*
X118750000Y-137599276D01*
X118779407Y-137602172D01*
X118807676Y-137610747D01*
X118833740Y-137624679D01*
X118856579Y-137643422D01*
X118875325Y-137666264D01*
X118889762Y-137693274D01*
X118903376Y-137713648D01*
X118920703Y-137730975D01*
X118941077Y-137744588D01*
X118963716Y-137753965D01*
X118987750Y-137758745D01*
X119012254Y-137758745D01*
X119036287Y-137753964D01*
X119058926Y-137744586D01*
X119079300Y-137730972D01*
X119096627Y-137713645D01*
X119110238Y-137693275D01*
X119124678Y-137666262D01*
X119143422Y-137643421D01*
X119166261Y-137624678D01*
X119192325Y-137610746D01*
X119220594Y-137602171D01*
X119250000Y-137599275D01*
X119279407Y-137602171D01*
X119307676Y-137610746D01*
X119333740Y-137624678D01*
X119356579Y-137643421D01*
X119375324Y-137666263D01*
X119389761Y-137693272D01*
X119403375Y-137713647D01*
X119420702Y-137730974D01*
X119441076Y-137744587D01*
X119463715Y-137753965D01*
X119487748Y-137758745D01*
X119512252Y-137758745D01*
X119536286Y-137753964D01*
X119558924Y-137744587D01*
X119579299Y-137730973D01*
X119596626Y-137713646D01*
X119610238Y-137693275D01*
X119624678Y-137666262D01*
X119643422Y-137643421D01*
X119666261Y-137624678D01*
X119692325Y-137610746D01*
X119720594Y-137602171D01*
X119750000Y-137599275D01*
X119779407Y-137602171D01*
X119807676Y-137610746D01*
X119833740Y-137624678D01*
X119856579Y-137643421D01*
X119875324Y-137666263D01*
X119889761Y-137693272D01*
X119903375Y-137713647D01*
X119920702Y-137730974D01*
X119941076Y-137744587D01*
X119963715Y-137753965D01*
X119987748Y-137758745D01*
X120012252Y-137758745D01*
X120036286Y-137753964D01*
X120058924Y-137744587D01*
X120079299Y-137730973D01*
X120096626Y-137713646D01*
X120110238Y-137693275D01*
X120124678Y-137666262D01*
X120143422Y-137643421D01*
X120166261Y-137624678D01*
X120192325Y-137610746D01*
X120220594Y-137602171D01*
X120250000Y-137599275D01*
X120279407Y-137602171D01*
G37*
G36*
X111400000Y-137425000D02*
G01*
X109900000Y-137425000D01*
X109900000Y-136175000D01*
X111400000Y-136175000D01*
X111400000Y-137425000D01*
G37*
G36*
X108900000Y-137425000D02*
G01*
X107400000Y-137425000D01*
X107400000Y-136175000D01*
X108900000Y-136175000D01*
X108900000Y-137425000D01*
G37*
G36*
X121079407Y-131602171D02*
G01*
X121107676Y-131610746D01*
X121133740Y-131624678D01*
X121156579Y-131643421D01*
X121175322Y-131666260D01*
X121189254Y-131692324D01*
X121197829Y-131720593D01*
X121200725Y-131750000D01*
X121197829Y-131779407D01*
X121189254Y-131807676D01*
X121175322Y-131833740D01*
X121156579Y-131856579D01*
X121133737Y-131875325D01*
X121106727Y-131889762D01*
X121086353Y-131903376D01*
X121069026Y-131920703D01*
X121055413Y-131941077D01*
X121046036Y-131963716D01*
X121041256Y-131987750D01*
X121041256Y-132012254D01*
X121046037Y-132036287D01*
X121055415Y-132058926D01*
X121069029Y-132079300D01*
X121086356Y-132096627D01*
X121106727Y-132110238D01*
X121133737Y-132124675D01*
X121156579Y-132143421D01*
X121175322Y-132166260D01*
X121189254Y-132192324D01*
X121197829Y-132220593D01*
X121200725Y-132250000D01*
X121197829Y-132279407D01*
X121189254Y-132307676D01*
X121175322Y-132333740D01*
X121156579Y-132356579D01*
X121133737Y-132375325D01*
X121106727Y-132389762D01*
X121086353Y-132403376D01*
X121069026Y-132420703D01*
X121055413Y-132441077D01*
X121046036Y-132463716D01*
X121041256Y-132487750D01*
X121041256Y-132512254D01*
X121046037Y-132536287D01*
X121055415Y-132558926D01*
X121069029Y-132579300D01*
X121086356Y-132596627D01*
X121106727Y-132610238D01*
X121133737Y-132624675D01*
X121156579Y-132643421D01*
X121175322Y-132666260D01*
X121189254Y-132692324D01*
X121197829Y-132720593D01*
X121200725Y-132750000D01*
X121197829Y-132779407D01*
X121189254Y-132807676D01*
X121175322Y-132833740D01*
X121156579Y-132856579D01*
X121133737Y-132875325D01*
X121106727Y-132889762D01*
X121086353Y-132903376D01*
X121069026Y-132920703D01*
X121055413Y-132941077D01*
X121046036Y-132963716D01*
X121041256Y-132987750D01*
X121041256Y-133012254D01*
X121046037Y-133036287D01*
X121055415Y-133058926D01*
X121069029Y-133079300D01*
X121086356Y-133096627D01*
X121106729Y-133110239D01*
X121133738Y-133124676D01*
X121156580Y-133143421D01*
X121175323Y-133166260D01*
X121189255Y-133192324D01*
X121197830Y-133220593D01*
X121200726Y-133250000D01*
X121197830Y-133279407D01*
X121189255Y-133307676D01*
X121175323Y-133333740D01*
X121156580Y-133356579D01*
X121133738Y-133375324D01*
X121106729Y-133389761D01*
X121086354Y-133403375D01*
X121069027Y-133420702D01*
X121055414Y-133441076D01*
X121046036Y-133463715D01*
X121041256Y-133487748D01*
X121041256Y-133512252D01*
X121046037Y-133536286D01*
X121055414Y-133558924D01*
X121069028Y-133579299D01*
X121086355Y-133596626D01*
X121106727Y-133610238D01*
X121133737Y-133624675D01*
X121156579Y-133643421D01*
X121175322Y-133666260D01*
X121189254Y-133692324D01*
X121197829Y-133720593D01*
X121200725Y-133750000D01*
X121197829Y-133779407D01*
X121189254Y-133807676D01*
X121175322Y-133833740D01*
X121156579Y-133856579D01*
X121133737Y-133875325D01*
X121106727Y-133889762D01*
X121086353Y-133903376D01*
X121069026Y-133920703D01*
X121055413Y-133941077D01*
X121046036Y-133963716D01*
X121041256Y-133987750D01*
X121041256Y-134012254D01*
X121046037Y-134036287D01*
X121055415Y-134058926D01*
X121069029Y-134079300D01*
X121086356Y-134096627D01*
X121106727Y-134110238D01*
X121133737Y-134124675D01*
X121156579Y-134143421D01*
X121175322Y-134166260D01*
X121189254Y-134192324D01*
X121197829Y-134220593D01*
X121200725Y-134250000D01*
X121197829Y-134279407D01*
X121189254Y-134307676D01*
X121175322Y-134333740D01*
X121156579Y-134356579D01*
X121133737Y-134375325D01*
X121106727Y-134389762D01*
X121086353Y-134403376D01*
X121069026Y-134420703D01*
X121055413Y-134441077D01*
X121046036Y-134463716D01*
X121041256Y-134487750D01*
X121041256Y-134512254D01*
X121046037Y-134536287D01*
X121055415Y-134558926D01*
X121069029Y-134579300D01*
X121086356Y-134596627D01*
X121106727Y-134610238D01*
X121133737Y-134624675D01*
X121156579Y-134643421D01*
X121175322Y-134666260D01*
X121189254Y-134692324D01*
X121197829Y-134720593D01*
X121200725Y-134750000D01*
X121197829Y-134779407D01*
X121189254Y-134807676D01*
X121175322Y-134833740D01*
X121156579Y-134856579D01*
X121133737Y-134875325D01*
X121106727Y-134889762D01*
X121086353Y-134903376D01*
X121069026Y-134920703D01*
X121055413Y-134941077D01*
X121046036Y-134963716D01*
X121041256Y-134987750D01*
X121041256Y-135012254D01*
X121046037Y-135036287D01*
X121055415Y-135058926D01*
X121069029Y-135079300D01*
X121086356Y-135096627D01*
X121106727Y-135110238D01*
X121133737Y-135124675D01*
X121156579Y-135143421D01*
X121175322Y-135166260D01*
X121189254Y-135192324D01*
X121197829Y-135220593D01*
X121200725Y-135250000D01*
X121197829Y-135279407D01*
X121189254Y-135307676D01*
X121175322Y-135333740D01*
X121156579Y-135356579D01*
X121133737Y-135375325D01*
X121106727Y-135389762D01*
X121086353Y-135403376D01*
X121069026Y-135420703D01*
X121055413Y-135441077D01*
X121046036Y-135463716D01*
X121041256Y-135487750D01*
X121041256Y-135512254D01*
X121046037Y-135536287D01*
X121055415Y-135558926D01*
X121069029Y-135579300D01*
X121086356Y-135596627D01*
X121106729Y-135610239D01*
X121133738Y-135624676D01*
X121156580Y-135643421D01*
X121175323Y-135666260D01*
X121189255Y-135692324D01*
X121197830Y-135720593D01*
X121200726Y-135750000D01*
X121197830Y-135779407D01*
X121189255Y-135807676D01*
X121175323Y-135833740D01*
X121156580Y-135856579D01*
X121133738Y-135875324D01*
X121106729Y-135889761D01*
X121086354Y-135903375D01*
X121069027Y-135920702D01*
X121055414Y-135941076D01*
X121046036Y-135963715D01*
X121041256Y-135987748D01*
X121041256Y-136012252D01*
X121046037Y-136036286D01*
X121055414Y-136058924D01*
X121069028Y-136079299D01*
X121086355Y-136096626D01*
X121106727Y-136110238D01*
X121133737Y-136124675D01*
X121156579Y-136143421D01*
X121175322Y-136166260D01*
X121189254Y-136192324D01*
X121197829Y-136220593D01*
X121200725Y-136250000D01*
X121197829Y-136279407D01*
X121189254Y-136307676D01*
X121175322Y-136333740D01*
X121156579Y-136356579D01*
X121133737Y-136375325D01*
X121106727Y-136389762D01*
X121086353Y-136403376D01*
X121069026Y-136420703D01*
X121055413Y-136441077D01*
X121046036Y-136463716D01*
X121041256Y-136487750D01*
X121041256Y-136512254D01*
X121046037Y-136536287D01*
X121055415Y-136558926D01*
X121069029Y-136579300D01*
X121086356Y-136596627D01*
X121106727Y-136610238D01*
X121133737Y-136624675D01*
X121156579Y-136643421D01*
X121175322Y-136666260D01*
X121189254Y-136692324D01*
X121197829Y-136720593D01*
X121200725Y-136749999D01*
X121197829Y-136779407D01*
X121189254Y-136807676D01*
X121175322Y-136833740D01*
X121156579Y-136856579D01*
X121133737Y-136875325D01*
X121106727Y-136889762D01*
X121086353Y-136903376D01*
X121069026Y-136920703D01*
X121055413Y-136941077D01*
X121046036Y-136963716D01*
X121041256Y-136987750D01*
X121041256Y-137012254D01*
X121046037Y-137036287D01*
X121055415Y-137058926D01*
X121069029Y-137079300D01*
X121086356Y-137096627D01*
X121106727Y-137110238D01*
X121133737Y-137124675D01*
X121156579Y-137143421D01*
X121175322Y-137166260D01*
X121189254Y-137192324D01*
X121197829Y-137220593D01*
X121200725Y-137250000D01*
X121197829Y-137279407D01*
X121189254Y-137307676D01*
X121175322Y-137333740D01*
X121156579Y-137356579D01*
X121133740Y-137375322D01*
X121107676Y-137389254D01*
X121079407Y-137397829D01*
X121057362Y-137400000D01*
X120742638Y-137400000D01*
X120720593Y-137397829D01*
X120692324Y-137389254D01*
X120666260Y-137375322D01*
X120643421Y-137356579D01*
X120624678Y-137333740D01*
X120610746Y-137307676D01*
X120602171Y-137279407D01*
X120599275Y-137250000D01*
X120602171Y-137220593D01*
X120610746Y-137192324D01*
X120624678Y-137166260D01*
X120643421Y-137143421D01*
X120666263Y-137124675D01*
X120693273Y-137110238D01*
X120713647Y-137096624D01*
X120730974Y-137079297D01*
X120744587Y-137058923D01*
X120753964Y-137036284D01*
X120758744Y-137012250D01*
X120758744Y-136987746D01*
X120753963Y-136963713D01*
X120744585Y-136941074D01*
X120730971Y-136920700D01*
X120713644Y-136903373D01*
X120693273Y-136889762D01*
X120666263Y-136875325D01*
X120643421Y-136856579D01*
X120624678Y-136833740D01*
X120610746Y-136807676D01*
X120602171Y-136779407D01*
X120599275Y-136749999D01*
X120602171Y-136720593D01*
X120610746Y-136692324D01*
X120624678Y-136666260D01*
X120643421Y-136643421D01*
X120666263Y-136624675D01*
X120693273Y-136610238D01*
X120713647Y-136596624D01*
X120730974Y-136579297D01*
X120744587Y-136558923D01*
X120753964Y-136536284D01*
X120758744Y-136512250D01*
X120758744Y-136487746D01*
X120753963Y-136463713D01*
X120744585Y-136441074D01*
X120730971Y-136420700D01*
X120713644Y-136403373D01*
X120693273Y-136389762D01*
X120666263Y-136375325D01*
X120643421Y-136356579D01*
X120624678Y-136333740D01*
X120610746Y-136307676D01*
X120602171Y-136279407D01*
X120599275Y-136250000D01*
X120602171Y-136220593D01*
X120610746Y-136192324D01*
X120624678Y-136166260D01*
X120643421Y-136143421D01*
X120666263Y-136124676D01*
X120693272Y-136110239D01*
X120713647Y-136096625D01*
X120730974Y-136079298D01*
X120744587Y-136058924D01*
X120753965Y-136036285D01*
X120758745Y-136012252D01*
X120758745Y-135987748D01*
X120753964Y-135963714D01*
X120744587Y-135941076D01*
X120730973Y-135920701D01*
X120713646Y-135903374D01*
X120693274Y-135889762D01*
X120666264Y-135875325D01*
X120643422Y-135856579D01*
X120624679Y-135833740D01*
X120610747Y-135807676D01*
X120602172Y-135779407D01*
X120599276Y-135750000D01*
X120602172Y-135720593D01*
X120610747Y-135692324D01*
X120624679Y-135666260D01*
X120643422Y-135643421D01*
X120666264Y-135624675D01*
X120693274Y-135610238D01*
X120713648Y-135596624D01*
X120730975Y-135579297D01*
X120744588Y-135558923D01*
X120753965Y-135536284D01*
X120758745Y-135512250D01*
X120758745Y-135487746D01*
X120753964Y-135463713D01*
X120744586Y-135441074D01*
X120730972Y-135420700D01*
X120713645Y-135403373D01*
X120693272Y-135389761D01*
X120666263Y-135375324D01*
X120643421Y-135356579D01*
X120624678Y-135333740D01*
X120610746Y-135307676D01*
X120602171Y-135279407D01*
X120599275Y-135250000D01*
X120602171Y-135220593D01*
X120610746Y-135192324D01*
X120624678Y-135166260D01*
X120643421Y-135143421D01*
X120666263Y-135124675D01*
X120693273Y-135110238D01*
X120713647Y-135096624D01*
X120730974Y-135079297D01*
X120744587Y-135058923D01*
X120753964Y-135036284D01*
X120758744Y-135012250D01*
X120758744Y-134987746D01*
X120753963Y-134963713D01*
X120744585Y-134941074D01*
X120730971Y-134920700D01*
X120713644Y-134903373D01*
X120693273Y-134889762D01*
X120666263Y-134875325D01*
X120643421Y-134856579D01*
X120624678Y-134833740D01*
X120610746Y-134807676D01*
X120602171Y-134779407D01*
X120599275Y-134750000D01*
X120602171Y-134720593D01*
X120610746Y-134692324D01*
X120624678Y-134666260D01*
X120643421Y-134643421D01*
X120666263Y-134624675D01*
X120693273Y-134610238D01*
X120713647Y-134596624D01*
X120730974Y-134579297D01*
X120744587Y-134558923D01*
X120753964Y-134536284D01*
X120758744Y-134512250D01*
X120758744Y-134487746D01*
X120753963Y-134463713D01*
X120744585Y-134441074D01*
X120730971Y-134420700D01*
X120713644Y-134403373D01*
X120693273Y-134389762D01*
X120666263Y-134375325D01*
X120643421Y-134356579D01*
X120624678Y-134333740D01*
X120610746Y-134307676D01*
X120602171Y-134279407D01*
X120599275Y-134250000D01*
X120602171Y-134220593D01*
X120610746Y-134192324D01*
X120624678Y-134166260D01*
X120643421Y-134143421D01*
X120666263Y-134124675D01*
X120693273Y-134110238D01*
X120713647Y-134096624D01*
X120730974Y-134079297D01*
X120744587Y-134058923D01*
X120753964Y-134036284D01*
X120758744Y-134012250D01*
X120758744Y-133987746D01*
X120753963Y-133963713D01*
X120744585Y-133941074D01*
X120730971Y-133920700D01*
X120713644Y-133903373D01*
X120693273Y-133889762D01*
X120666263Y-133875325D01*
X120643421Y-133856579D01*
X120624678Y-133833740D01*
X120610746Y-133807676D01*
X120602171Y-133779407D01*
X120599275Y-133750000D01*
X120602171Y-133720593D01*
X120610746Y-133692324D01*
X120624678Y-133666260D01*
X120643421Y-133643421D01*
X120666263Y-133624676D01*
X120693272Y-133610239D01*
X120713647Y-133596625D01*
X120730974Y-133579298D01*
X120744587Y-133558924D01*
X120753965Y-133536285D01*
X120758745Y-133512252D01*
X120758745Y-133487748D01*
X120753964Y-133463714D01*
X120744587Y-133441076D01*
X120730973Y-133420701D01*
X120713646Y-133403374D01*
X120693274Y-133389762D01*
X120666264Y-133375325D01*
X120643422Y-133356579D01*
X120624679Y-133333740D01*
X120610747Y-133307676D01*
X120602172Y-133279407D01*
X120599276Y-133250000D01*
X120602172Y-133220593D01*
X120610747Y-133192324D01*
X120624679Y-133166260D01*
X120643422Y-133143421D01*
X120666264Y-133124675D01*
X120693274Y-133110238D01*
X120713648Y-133096624D01*
X120730975Y-133079297D01*
X120744588Y-133058923D01*
X120753965Y-133036284D01*
X120758745Y-133012250D01*
X120758745Y-132987746D01*
X120753964Y-132963713D01*
X120744586Y-132941074D01*
X120730972Y-132920700D01*
X120713645Y-132903373D01*
X120693272Y-132889761D01*
X120666263Y-132875324D01*
X120643421Y-132856579D01*
X120624678Y-132833740D01*
X120610746Y-132807676D01*
X120602171Y-132779407D01*
X120599275Y-132750000D01*
X120602171Y-132720593D01*
X120610746Y-132692324D01*
X120624678Y-132666260D01*
X120643421Y-132643421D01*
X120666263Y-132624675D01*
X120693273Y-132610238D01*
X120713647Y-132596624D01*
X120730974Y-132579297D01*
X120744587Y-132558923D01*
X120753964Y-132536284D01*
X120758744Y-132512250D01*
X120758744Y-132487746D01*
X120753963Y-132463713D01*
X120744585Y-132441074D01*
X120730971Y-132420700D01*
X120713644Y-132403373D01*
X120693273Y-132389762D01*
X120666263Y-132375325D01*
X120643421Y-132356579D01*
X120624678Y-132333740D01*
X120610746Y-132307676D01*
X120602171Y-132279407D01*
X120599275Y-132250000D01*
X120602171Y-132220593D01*
X120610746Y-132192324D01*
X120624678Y-132166260D01*
X120643421Y-132143421D01*
X120666263Y-132124675D01*
X120693273Y-132110238D01*
X120713647Y-132096624D01*
X120730974Y-132079297D01*
X120744587Y-132058923D01*
X120753964Y-132036284D01*
X120758744Y-132012250D01*
X120758744Y-131987746D01*
X120753963Y-131963713D01*
X120744585Y-131941074D01*
X120730971Y-131920700D01*
X120713644Y-131903373D01*
X120693273Y-131889762D01*
X120666263Y-131875325D01*
X120643421Y-131856579D01*
X120624678Y-131833740D01*
X120610746Y-131807676D01*
X120602171Y-131779407D01*
X120599275Y-131750000D01*
X120602171Y-131720593D01*
X120610746Y-131692324D01*
X120624678Y-131666260D01*
X120643421Y-131643421D01*
X120666260Y-131624678D01*
X120692324Y-131610746D01*
X120720593Y-131602171D01*
X120742638Y-131600000D01*
X121057362Y-131600000D01*
X121079407Y-131602171D01*
G37*
G36*
X114279407Y-131602171D02*
G01*
X114307676Y-131610746D01*
X114333740Y-131624678D01*
X114356579Y-131643421D01*
X114375322Y-131666260D01*
X114389254Y-131692324D01*
X114397829Y-131720593D01*
X114400725Y-131750000D01*
X114397829Y-131779407D01*
X114389254Y-131807676D01*
X114375322Y-131833740D01*
X114356579Y-131856579D01*
X114333737Y-131875325D01*
X114306727Y-131889762D01*
X114286353Y-131903376D01*
X114269026Y-131920703D01*
X114255413Y-131941077D01*
X114246036Y-131963716D01*
X114241256Y-131987750D01*
X114241256Y-132012254D01*
X114246037Y-132036287D01*
X114255415Y-132058926D01*
X114269029Y-132079300D01*
X114286356Y-132096627D01*
X114306727Y-132110238D01*
X114333737Y-132124675D01*
X114356579Y-132143421D01*
X114375322Y-132166260D01*
X114389254Y-132192324D01*
X114397829Y-132220593D01*
X114400725Y-132250000D01*
X114397829Y-132279407D01*
X114389254Y-132307676D01*
X114375322Y-132333740D01*
X114356579Y-132356579D01*
X114333737Y-132375325D01*
X114306727Y-132389762D01*
X114286353Y-132403376D01*
X114269026Y-132420703D01*
X114255413Y-132441077D01*
X114246036Y-132463716D01*
X114241256Y-132487750D01*
X114241256Y-132512254D01*
X114246037Y-132536287D01*
X114255415Y-132558926D01*
X114269029Y-132579300D01*
X114286356Y-132596627D01*
X114306727Y-132610238D01*
X114333737Y-132624675D01*
X114356579Y-132643421D01*
X114375322Y-132666260D01*
X114389254Y-132692324D01*
X114397829Y-132720593D01*
X114400725Y-132750000D01*
X114397829Y-132779407D01*
X114389254Y-132807676D01*
X114375322Y-132833740D01*
X114356579Y-132856579D01*
X114333737Y-132875324D01*
X114306728Y-132889761D01*
X114286353Y-132903375D01*
X114269026Y-132920702D01*
X114255413Y-132941076D01*
X114246035Y-132963715D01*
X114241255Y-132987748D01*
X114241255Y-133012252D01*
X114246036Y-133036286D01*
X114255413Y-133058924D01*
X114269027Y-133079299D01*
X114286354Y-133096626D01*
X114306726Y-133110238D01*
X114333736Y-133124675D01*
X114356578Y-133143421D01*
X114375321Y-133166260D01*
X114389253Y-133192324D01*
X114397828Y-133220593D01*
X114400724Y-133250000D01*
X114397828Y-133279407D01*
X114389253Y-133307676D01*
X114375321Y-133333740D01*
X114356578Y-133356579D01*
X114333736Y-133375325D01*
X114306726Y-133389762D01*
X114286352Y-133403376D01*
X114269025Y-133420703D01*
X114255412Y-133441077D01*
X114246035Y-133463716D01*
X114241255Y-133487750D01*
X114241255Y-133512254D01*
X114246036Y-133536287D01*
X114255414Y-133558926D01*
X114269028Y-133579300D01*
X114286355Y-133596627D01*
X114306728Y-133610239D01*
X114333737Y-133624676D01*
X114356579Y-133643421D01*
X114375322Y-133666260D01*
X114389254Y-133692324D01*
X114397829Y-133720593D01*
X114400725Y-133750000D01*
X114397829Y-133779407D01*
X114389254Y-133807676D01*
X114375322Y-133833740D01*
X114356579Y-133856579D01*
X114333737Y-133875325D01*
X114306727Y-133889762D01*
X114286353Y-133903376D01*
X114269026Y-133920703D01*
X114255413Y-133941077D01*
X114246036Y-133963716D01*
X114241256Y-133987750D01*
X114241256Y-134012254D01*
X114246037Y-134036287D01*
X114255415Y-134058926D01*
X114269029Y-134079300D01*
X114286356Y-134096627D01*
X114306727Y-134110238D01*
X114333737Y-134124675D01*
X114356579Y-134143421D01*
X114375322Y-134166260D01*
X114389254Y-134192324D01*
X114397829Y-134220593D01*
X114400725Y-134250000D01*
X114397829Y-134279407D01*
X114389254Y-134307676D01*
X114375322Y-134333740D01*
X114356579Y-134356579D01*
X114333737Y-134375325D01*
X114306727Y-134389762D01*
X114286353Y-134403376D01*
X114269026Y-134420703D01*
X114255413Y-134441077D01*
X114246036Y-134463716D01*
X114241256Y-134487750D01*
X114241256Y-134512254D01*
X114246037Y-134536287D01*
X114255415Y-134558926D01*
X114269029Y-134579300D01*
X114286356Y-134596627D01*
X114306727Y-134610238D01*
X114333737Y-134624675D01*
X114356579Y-134643421D01*
X114375322Y-134666260D01*
X114389254Y-134692324D01*
X114397829Y-134720593D01*
X114400725Y-134750000D01*
X114397829Y-134779407D01*
X114389254Y-134807676D01*
X114375322Y-134833740D01*
X114356579Y-134856579D01*
X114333737Y-134875325D01*
X114306727Y-134889762D01*
X114286353Y-134903376D01*
X114269026Y-134920703D01*
X114255413Y-134941077D01*
X114246036Y-134963716D01*
X114241256Y-134987750D01*
X114241256Y-135012254D01*
X114246037Y-135036287D01*
X114255415Y-135058926D01*
X114269029Y-135079300D01*
X114286356Y-135096627D01*
X114306727Y-135110238D01*
X114333737Y-135124675D01*
X114356579Y-135143421D01*
X114375322Y-135166260D01*
X114389254Y-135192324D01*
X114397829Y-135220593D01*
X114400725Y-135250000D01*
X114397829Y-135279407D01*
X114389254Y-135307676D01*
X114375322Y-135333740D01*
X114356579Y-135356579D01*
X114333737Y-135375324D01*
X114306728Y-135389761D01*
X114286353Y-135403375D01*
X114269026Y-135420702D01*
X114255413Y-135441076D01*
X114246035Y-135463715D01*
X114241255Y-135487748D01*
X114241255Y-135512252D01*
X114246036Y-135536286D01*
X114255413Y-135558924D01*
X114269027Y-135579299D01*
X114286354Y-135596626D01*
X114306726Y-135610238D01*
X114333736Y-135624675D01*
X114356578Y-135643421D01*
X114375321Y-135666260D01*
X114389253Y-135692324D01*
X114397828Y-135720593D01*
X114400724Y-135750000D01*
X114397828Y-135779407D01*
X114389253Y-135807676D01*
X114375321Y-135833740D01*
X114356578Y-135856579D01*
X114333736Y-135875325D01*
X114306726Y-135889762D01*
X114286352Y-135903376D01*
X114269025Y-135920703D01*
X114255412Y-135941077D01*
X114246035Y-135963716D01*
X114241255Y-135987750D01*
X114241255Y-136012254D01*
X114246036Y-136036287D01*
X114255414Y-136058926D01*
X114269028Y-136079300D01*
X114286355Y-136096627D01*
X114306728Y-136110239D01*
X114333737Y-136124676D01*
X114356579Y-136143421D01*
X114375322Y-136166260D01*
X114389254Y-136192324D01*
X114397829Y-136220593D01*
X114400725Y-136250000D01*
X114397829Y-136279407D01*
X114389254Y-136307676D01*
X114375322Y-136333740D01*
X114356579Y-136356579D01*
X114333737Y-136375325D01*
X114306727Y-136389762D01*
X114286353Y-136403376D01*
X114269026Y-136420703D01*
X114255413Y-136441077D01*
X114246036Y-136463716D01*
X114241256Y-136487750D01*
X114241256Y-136512254D01*
X114246037Y-136536287D01*
X114255415Y-136558926D01*
X114269029Y-136579300D01*
X114286356Y-136596627D01*
X114306727Y-136610238D01*
X114333737Y-136624675D01*
X114356579Y-136643421D01*
X114375322Y-136666260D01*
X114389254Y-136692324D01*
X114397829Y-136720593D01*
X114400725Y-136749999D01*
X114397829Y-136779407D01*
X114389254Y-136807676D01*
X114375322Y-136833740D01*
X114356579Y-136856579D01*
X114333737Y-136875325D01*
X114306727Y-136889762D01*
X114286353Y-136903376D01*
X114269026Y-136920703D01*
X114255413Y-136941077D01*
X114246036Y-136963716D01*
X114241256Y-136987750D01*
X114241256Y-137012254D01*
X114246037Y-137036287D01*
X114255415Y-137058926D01*
X114269029Y-137079300D01*
X114286356Y-137096627D01*
X114306727Y-137110238D01*
X114333737Y-137124675D01*
X114356579Y-137143421D01*
X114375322Y-137166260D01*
X114389254Y-137192324D01*
X114397829Y-137220593D01*
X114400725Y-137250000D01*
X114397829Y-137279407D01*
X114389254Y-137307676D01*
X114375322Y-137333740D01*
X114356579Y-137356579D01*
X114333740Y-137375322D01*
X114307676Y-137389254D01*
X114279407Y-137397829D01*
X114257362Y-137400000D01*
X113942638Y-137400000D01*
X113920593Y-137397829D01*
X113892324Y-137389254D01*
X113866260Y-137375322D01*
X113843421Y-137356579D01*
X113824678Y-137333740D01*
X113810746Y-137307676D01*
X113802171Y-137279407D01*
X113799275Y-137250000D01*
X113802171Y-137220593D01*
X113810746Y-137192324D01*
X113824678Y-137166260D01*
X113843421Y-137143421D01*
X113866263Y-137124675D01*
X113893273Y-137110238D01*
X113913647Y-137096624D01*
X113930974Y-137079297D01*
X113944587Y-137058923D01*
X113953964Y-137036284D01*
X113958744Y-137012250D01*
X113958744Y-136987746D01*
X113953963Y-136963713D01*
X113944585Y-136941074D01*
X113930971Y-136920700D01*
X113913644Y-136903373D01*
X113893273Y-136889762D01*
X113866263Y-136875325D01*
X113843421Y-136856579D01*
X113824678Y-136833740D01*
X113810746Y-136807676D01*
X113802171Y-136779407D01*
X113799275Y-136749999D01*
X113802171Y-136720593D01*
X113810746Y-136692324D01*
X113824678Y-136666260D01*
X113843421Y-136643421D01*
X113866263Y-136624675D01*
X113893273Y-136610238D01*
X113913647Y-136596624D01*
X113930974Y-136579297D01*
X113944587Y-136558923D01*
X113953964Y-136536284D01*
X113958744Y-136512250D01*
X113958744Y-136487746D01*
X113953963Y-136463713D01*
X113944585Y-136441074D01*
X113930971Y-136420700D01*
X113913644Y-136403373D01*
X113893273Y-136389762D01*
X113866263Y-136375325D01*
X113843421Y-136356579D01*
X113824678Y-136333740D01*
X113810746Y-136307676D01*
X113802171Y-136279407D01*
X113799275Y-136250000D01*
X113802171Y-136220593D01*
X113810746Y-136192324D01*
X113824678Y-136166260D01*
X113843421Y-136143421D01*
X113866263Y-136124675D01*
X113893273Y-136110238D01*
X113913647Y-136096624D01*
X113930974Y-136079297D01*
X113944587Y-136058923D01*
X113953964Y-136036284D01*
X113958744Y-136012250D01*
X113958744Y-135987746D01*
X113953963Y-135963713D01*
X113944585Y-135941074D01*
X113930971Y-135920700D01*
X113913644Y-135903373D01*
X113893271Y-135889761D01*
X113866262Y-135875324D01*
X113843420Y-135856579D01*
X113824677Y-135833740D01*
X113810745Y-135807676D01*
X113802170Y-135779407D01*
X113799274Y-135750000D01*
X113802170Y-135720593D01*
X113810745Y-135692324D01*
X113824677Y-135666260D01*
X113843420Y-135643421D01*
X113866262Y-135624676D01*
X113893271Y-135610239D01*
X113913646Y-135596625D01*
X113930973Y-135579298D01*
X113944586Y-135558924D01*
X113953964Y-135536285D01*
X113958744Y-135512252D01*
X113958744Y-135487748D01*
X113953963Y-135463714D01*
X113944586Y-135441076D01*
X113930972Y-135420701D01*
X113913645Y-135403374D01*
X113893273Y-135389762D01*
X113866263Y-135375325D01*
X113843421Y-135356579D01*
X113824678Y-135333740D01*
X113810746Y-135307676D01*
X113802171Y-135279407D01*
X113799275Y-135250000D01*
X113802171Y-135220593D01*
X113810746Y-135192324D01*
X113824678Y-135166260D01*
X113843421Y-135143421D01*
X113866263Y-135124675D01*
X113893273Y-135110238D01*
X113913647Y-135096624D01*
X113930974Y-135079297D01*
X113944587Y-135058923D01*
X113953964Y-135036284D01*
X113958744Y-135012250D01*
X113958744Y-134987746D01*
X113953963Y-134963713D01*
X113944585Y-134941074D01*
X113930971Y-134920700D01*
X113913644Y-134903373D01*
X113893273Y-134889762D01*
X113866263Y-134875325D01*
X113843421Y-134856579D01*
X113824678Y-134833740D01*
X113810746Y-134807676D01*
X113802171Y-134779407D01*
X113799275Y-134750000D01*
X113802171Y-134720593D01*
X113810746Y-134692324D01*
X113824678Y-134666260D01*
X113843421Y-134643421D01*
X113866263Y-134624675D01*
X113893273Y-134610238D01*
X113913647Y-134596624D01*
X113930974Y-134579297D01*
X113944587Y-134558923D01*
X113953964Y-134536284D01*
X113958744Y-134512250D01*
X113958744Y-134487746D01*
X113953963Y-134463713D01*
X113944585Y-134441074D01*
X113930971Y-134420700D01*
X113913644Y-134403373D01*
X113893273Y-134389762D01*
X113866263Y-134375325D01*
X113843421Y-134356579D01*
X113824678Y-134333740D01*
X113810746Y-134307676D01*
X113802171Y-134279407D01*
X113799275Y-134250000D01*
X113802171Y-134220593D01*
X113810746Y-134192324D01*
X113824678Y-134166260D01*
X113843421Y-134143421D01*
X113866263Y-134124675D01*
X113893273Y-134110238D01*
X113913647Y-134096624D01*
X113930974Y-134079297D01*
X113944587Y-134058923D01*
X113953964Y-134036284D01*
X113958744Y-134012250D01*
X113958744Y-133987746D01*
X113953963Y-133963713D01*
X113944585Y-133941074D01*
X113930971Y-133920700D01*
X113913644Y-133903373D01*
X113893273Y-133889762D01*
X113866263Y-133875325D01*
X113843421Y-133856579D01*
X113824678Y-133833740D01*
X113810746Y-133807676D01*
X113802171Y-133779407D01*
X113799275Y-133750000D01*
X113802171Y-133720593D01*
X113810746Y-133692324D01*
X113824678Y-133666260D01*
X113843421Y-133643421D01*
X113866263Y-133624675D01*
X113893273Y-133610238D01*
X113913647Y-133596624D01*
X113930974Y-133579297D01*
X113944587Y-133558923D01*
X113953964Y-133536284D01*
X113958744Y-133512250D01*
X113958744Y-133487746D01*
X113953963Y-133463713D01*
X113944585Y-133441074D01*
X113930971Y-133420700D01*
X113913644Y-133403373D01*
X113893271Y-133389761D01*
X113866262Y-133375324D01*
X113843420Y-133356579D01*
X113824677Y-133333740D01*
X113810745Y-133307676D01*
X113802170Y-133279407D01*
X113799274Y-133250000D01*
X113802170Y-133220593D01*
X113810745Y-133192324D01*
X113824677Y-133166260D01*
X113843420Y-133143421D01*
X113866262Y-133124676D01*
X113893271Y-133110239D01*
X113913646Y-133096625D01*
X113930973Y-133079298D01*
X113944586Y-133058924D01*
X113953964Y-133036285D01*
X113958744Y-133012252D01*
X113958744Y-132987748D01*
X113953963Y-132963714D01*
X113944586Y-132941076D01*
X113930972Y-132920701D01*
X113913645Y-132903374D01*
X113893273Y-132889762D01*
X113866263Y-132875325D01*
X113843421Y-132856579D01*
X113824678Y-132833740D01*
X113810746Y-132807676D01*
X113802171Y-132779407D01*
X113799275Y-132750000D01*
X113802171Y-132720593D01*
X113810746Y-132692324D01*
X113824678Y-132666260D01*
X113843421Y-132643421D01*
X113866263Y-132624675D01*
X113893273Y-132610238D01*
X113913647Y-132596624D01*
X113930974Y-132579297D01*
X113944587Y-132558923D01*
X113953964Y-132536284D01*
X113958744Y-132512250D01*
X113958744Y-132487746D01*
X113953963Y-132463713D01*
X113944585Y-132441074D01*
X113930971Y-132420700D01*
X113913644Y-132403373D01*
X113893273Y-132389762D01*
X113866263Y-132375325D01*
X113843421Y-132356579D01*
X113824678Y-132333740D01*
X113810746Y-132307676D01*
X113802171Y-132279407D01*
X113799275Y-132250000D01*
X113802171Y-132220593D01*
X113810746Y-132192324D01*
X113824678Y-132166260D01*
X113843421Y-132143421D01*
X113866263Y-132124675D01*
X113893273Y-132110238D01*
X113913647Y-132096624D01*
X113930974Y-132079297D01*
X113944587Y-132058923D01*
X113953964Y-132036284D01*
X113958744Y-132012250D01*
X113958744Y-131987746D01*
X113953963Y-131963713D01*
X113944585Y-131941074D01*
X113930971Y-131920700D01*
X113913644Y-131903373D01*
X113893273Y-131889762D01*
X113866263Y-131875325D01*
X113843421Y-131856579D01*
X113824678Y-131833740D01*
X113810746Y-131807676D01*
X113802171Y-131779407D01*
X113799275Y-131750000D01*
X113802171Y-131720593D01*
X113810746Y-131692324D01*
X113824678Y-131666260D01*
X113843421Y-131643421D01*
X113866260Y-131624678D01*
X113892324Y-131610746D01*
X113920593Y-131602171D01*
X113942638Y-131600000D01*
X114257362Y-131600000D01*
X114279407Y-131602171D01*
G37*
G36*
X155150000Y-136800000D02*
G01*
X153850000Y-136800000D01*
X153850000Y-135300000D01*
X155150000Y-135300000D01*
X155150000Y-136800000D01*
G37*
G36*
X153150000Y-136800000D02*
G01*
X151850000Y-136800000D01*
X151850000Y-135300000D01*
X153150000Y-135300000D01*
X153150000Y-136800000D01*
G37*
G36*
X151125000Y-136700000D02*
G01*
X149875000Y-136700000D01*
X149875000Y-135200000D01*
X151125000Y-135200000D01*
X151125000Y-136700000D01*
G37*
G36*
X119625000Y-136625000D02*
G01*
X119175000Y-136625000D01*
X119175000Y-136175000D01*
X119625000Y-136175000D01*
X119625000Y-136625000D01*
G37*
G36*
X118550000Y-136625000D02*
G01*
X117850000Y-136625000D01*
X117850000Y-136175000D01*
X118550000Y-136175000D01*
X118550000Y-136625000D01*
G37*
G36*
X117150000Y-136625000D02*
G01*
X116450000Y-136625000D01*
X116450000Y-136175000D01*
X117150000Y-136175000D01*
X117150000Y-136625000D01*
G37*
G36*
X115825000Y-136625000D02*
G01*
X115375000Y-136625000D01*
X115375000Y-136175000D01*
X115825000Y-136175000D01*
X115825000Y-136625000D01*
G37*
G36*
X138350000Y-136200000D02*
G01*
X137050000Y-136200000D01*
X137050000Y-134700000D01*
X138350000Y-134700000D01*
X138350000Y-136200000D01*
G37*
G36*
X134350000Y-136100000D02*
G01*
X133050000Y-136100000D01*
X133050000Y-134600000D01*
X134350000Y-134600000D01*
X134350000Y-136100000D01*
G37*
G36*
X136325000Y-136100000D02*
G01*
X135075000Y-136100000D01*
X135075000Y-134600000D01*
X136325000Y-134600000D01*
X136325000Y-136100000D01*
G37*
G36*
X132350000Y-136100000D02*
G01*
X131050000Y-136100000D01*
X131050000Y-134600000D01*
X132350000Y-134600000D01*
X132350000Y-136100000D01*
G37*
G36*
X124750000Y-135875000D02*
G01*
X123550000Y-135875000D01*
X123550000Y-135125000D01*
X124750000Y-135125000D01*
X124750000Y-135875000D01*
G37*
G36*
X126650000Y-135875000D02*
G01*
X125450000Y-135875000D01*
X125450000Y-135125000D01*
X126650000Y-135125000D01*
X126650000Y-135875000D01*
G37*
G36*
X141796500Y-135859000D02*
G01*
X140653500Y-135859000D01*
X140653500Y-135351000D01*
X141796500Y-135351000D01*
X141796500Y-135859000D01*
G37*
G36*
X148146500Y-135859000D02*
G01*
X147003500Y-135859000D01*
X147003500Y-135351000D01*
X148146500Y-135351000D01*
X148146500Y-135859000D01*
G37*
G36*
X118550000Y-135550000D02*
G01*
X117850000Y-135550000D01*
X117850000Y-134850000D01*
X118550000Y-134850000D01*
X118550000Y-135550000D01*
G37*
G36*
X119625000Y-135550000D02*
G01*
X119175000Y-135550000D01*
X119175000Y-134850000D01*
X119625000Y-134850000D01*
X119625000Y-135550000D01*
G37*
G36*
X117150000Y-135550000D02*
G01*
X116450000Y-135550000D01*
X116450000Y-134850000D01*
X117150000Y-134850000D01*
X117150000Y-135550000D01*
G37*
G36*
X115825000Y-135550000D02*
G01*
X115375000Y-135550000D01*
X115375000Y-134850000D01*
X115825000Y-134850000D01*
X115825000Y-135550000D01*
G37*
G36*
X111400000Y-135425000D02*
G01*
X109900000Y-135425000D01*
X109900000Y-134175000D01*
X111400000Y-134175000D01*
X111400000Y-135425000D01*
G37*
G36*
X108900000Y-135425000D02*
G01*
X107400000Y-135425000D01*
X107400000Y-134175000D01*
X108900000Y-134175000D01*
X108900000Y-135425000D01*
G37*
G36*
X148146500Y-134589000D02*
G01*
X147003500Y-134589000D01*
X147003500Y-134081000D01*
X148146500Y-134081000D01*
X148146500Y-134589000D01*
G37*
G36*
X141796500Y-134589000D02*
G01*
X140653500Y-134589000D01*
X140653500Y-134081000D01*
X141796500Y-134081000D01*
X141796500Y-134589000D01*
G37*
G36*
X127750000Y-134275000D02*
G01*
X126550000Y-134275000D01*
X126550000Y-133525000D01*
X127750000Y-133525000D01*
X127750000Y-134275000D01*
G37*
G36*
X125850000Y-134275000D02*
G01*
X124650000Y-134275000D01*
X124650000Y-133525000D01*
X125850000Y-133525000D01*
X125850000Y-134275000D01*
G37*
G36*
X151125000Y-134200000D02*
G01*
X149875000Y-134200000D01*
X149875000Y-132700000D01*
X151125000Y-132700000D01*
X151125000Y-134200000D01*
G37*
G36*
X117150000Y-134150000D02*
G01*
X116450000Y-134150000D01*
X116450000Y-133450000D01*
X117150000Y-133450000D01*
X117150000Y-134150000D01*
G37*
G36*
X115825000Y-134150000D02*
G01*
X115375000Y-134150000D01*
X115375000Y-133450000D01*
X115825000Y-133450000D01*
X115825000Y-134150000D01*
G37*
G36*
X118550000Y-134150000D02*
G01*
X117850000Y-134150000D01*
X117850000Y-133450000D01*
X118550000Y-133450000D01*
X118550000Y-134150000D01*
G37*
G36*
X119625000Y-134150000D02*
G01*
X119175000Y-134150000D01*
X119175000Y-133450000D01*
X119625000Y-133450000D01*
X119625000Y-134150000D01*
G37*
G36*
X153150000Y-134100000D02*
G01*
X151850000Y-134100000D01*
X151850000Y-132600000D01*
X153150000Y-132600000D01*
X153150000Y-134100000D01*
G37*
G36*
X155150000Y-134100000D02*
G01*
X153850000Y-134100000D01*
X153850000Y-132600000D01*
X155150000Y-132600000D01*
X155150000Y-134100000D01*
G37*
G36*
X136325000Y-133600000D02*
G01*
X135075000Y-133600000D01*
X135075000Y-132100000D01*
X136325000Y-132100000D01*
X136325000Y-133600000D01*
G37*
G36*
X138350000Y-133500000D02*
G01*
X137050000Y-133500000D01*
X137050000Y-132000000D01*
X138350000Y-132000000D01*
X138350000Y-133500000D01*
G37*
G36*
X132350000Y-133400000D02*
G01*
X131050000Y-133400000D01*
X131050000Y-131900000D01*
X132350000Y-131900000D01*
X132350000Y-133400000D01*
G37*
G36*
X134350000Y-133400000D02*
G01*
X133050000Y-133400000D01*
X133050000Y-131900000D01*
X134350000Y-131900000D01*
X134350000Y-133400000D01*
G37*
G36*
X111500000Y-133350000D02*
G01*
X110000000Y-133350000D01*
X110000000Y-132050000D01*
X111500000Y-132050000D01*
X111500000Y-133350000D01*
G37*
G36*
X108800000Y-133350000D02*
G01*
X107300000Y-133350000D01*
X107300000Y-132050000D01*
X108800000Y-132050000D01*
X108800000Y-133350000D01*
G37*
G36*
X148146500Y-133319000D02*
G01*
X147003500Y-133319000D01*
X147003500Y-132811000D01*
X148146500Y-132811000D01*
X148146500Y-133319000D01*
G37*
G36*
X141796500Y-133319000D02*
G01*
X140653500Y-133319000D01*
X140653500Y-132811000D01*
X141796500Y-132811000D01*
X141796500Y-133319000D01*
G37*
G36*
X115825000Y-132825000D02*
G01*
X115375000Y-132825000D01*
X115375000Y-132375000D01*
X115825000Y-132375000D01*
X115825000Y-132825000D01*
G37*
G36*
X118550000Y-132825000D02*
G01*
X117850000Y-132825000D01*
X117850000Y-132375000D01*
X118550000Y-132375000D01*
X118550000Y-132825000D01*
G37*
G36*
X117150000Y-132825000D02*
G01*
X116450000Y-132825000D01*
X116450000Y-132375000D01*
X117150000Y-132375000D01*
X117150000Y-132825000D01*
G37*
G36*
X119625000Y-132825000D02*
G01*
X119175000Y-132825000D01*
X119175000Y-132375000D01*
X119625000Y-132375000D01*
X119625000Y-132825000D01*
G37*
G36*
X148146500Y-132049000D02*
G01*
X147003500Y-132049000D01*
X147003500Y-131541000D01*
X148146500Y-131541000D01*
X148146500Y-132049000D01*
G37*
G36*
X141796500Y-132049000D02*
G01*
X140653500Y-132049000D01*
X140653500Y-131541000D01*
X141796500Y-131541000D01*
X141796500Y-132049000D01*
G37*
G36*
X118779407Y-130802170D02*
G01*
X118807676Y-130810745D01*
X118833740Y-130824677D01*
X118856579Y-130843420D01*
X118875323Y-130866261D01*
X118889763Y-130893274D01*
X118903377Y-130913648D01*
X118920705Y-130930974D01*
X118941079Y-130944588D01*
X118963718Y-130953964D01*
X118987752Y-130958744D01*
X119012256Y-130958744D01*
X119036289Y-130953963D01*
X119058928Y-130944585D01*
X119079302Y-130930971D01*
X119096628Y-130913643D01*
X119110239Y-130893273D01*
X119124676Y-130866263D01*
X119143422Y-130843421D01*
X119166261Y-130824678D01*
X119192325Y-130810746D01*
X119220594Y-130802171D01*
X119250000Y-130799275D01*
X119279407Y-130802171D01*
X119307676Y-130810746D01*
X119333740Y-130824678D01*
X119356579Y-130843421D01*
X119375324Y-130866263D01*
X119389761Y-130893272D01*
X119403375Y-130913647D01*
X119420702Y-130930974D01*
X119441076Y-130944587D01*
X119463715Y-130953965D01*
X119487748Y-130958745D01*
X119512252Y-130958745D01*
X119536286Y-130953964D01*
X119558924Y-130944587D01*
X119579299Y-130930973D01*
X119596626Y-130913646D01*
X119610238Y-130893275D01*
X119624678Y-130866262D01*
X119643422Y-130843421D01*
X119666261Y-130824678D01*
X119692325Y-130810746D01*
X119720594Y-130802171D01*
X119750000Y-130799275D01*
X119779407Y-130802171D01*
X119807676Y-130810746D01*
X119833740Y-130824678D01*
X119856579Y-130843421D01*
X119875324Y-130866263D01*
X119889761Y-130893272D01*
X119903375Y-130913647D01*
X119920702Y-130930974D01*
X119941076Y-130944587D01*
X119963715Y-130953965D01*
X119987748Y-130958745D01*
X120012252Y-130958745D01*
X120036286Y-130953964D01*
X120058924Y-130944587D01*
X120079299Y-130930973D01*
X120096626Y-130913646D01*
X120110238Y-130893275D01*
X120124678Y-130866262D01*
X120143422Y-130843421D01*
X120166261Y-130824678D01*
X120192325Y-130810746D01*
X120220594Y-130802171D01*
X120250000Y-130799275D01*
X120279407Y-130802171D01*
X120307676Y-130810746D01*
X120333740Y-130824678D01*
X120356579Y-130843421D01*
X120375322Y-130866260D01*
X120389254Y-130892324D01*
X120397829Y-130920593D01*
X120400000Y-130942638D01*
X120400000Y-131257362D01*
X120397829Y-131279407D01*
X120389254Y-131307676D01*
X120375322Y-131333740D01*
X120356579Y-131356579D01*
X120333739Y-131375323D01*
X120307678Y-131389253D01*
X120279406Y-131397829D01*
X120250000Y-131400725D01*
X120220593Y-131397829D01*
X120192324Y-131389254D01*
X120166260Y-131375322D01*
X120143421Y-131356579D01*
X120124675Y-131333737D01*
X120110238Y-131306727D01*
X120096624Y-131286353D01*
X120079297Y-131269026D01*
X120058923Y-131255413D01*
X120036284Y-131246036D01*
X120012250Y-131241256D01*
X119987746Y-131241256D01*
X119963713Y-131246037D01*
X119941074Y-131255415D01*
X119920700Y-131269029D01*
X119903373Y-131286356D01*
X119889762Y-131306727D01*
X119875325Y-131333737D01*
X119856579Y-131356579D01*
X119833739Y-131375323D01*
X119807678Y-131389253D01*
X119779406Y-131397829D01*
X119750000Y-131400725D01*
X119720593Y-131397829D01*
X119692324Y-131389254D01*
X119666260Y-131375322D01*
X119643421Y-131356579D01*
X119624675Y-131333737D01*
X119610238Y-131306727D01*
X119596624Y-131286353D01*
X119579297Y-131269026D01*
X119558923Y-131255413D01*
X119536284Y-131246036D01*
X119512250Y-131241256D01*
X119487746Y-131241256D01*
X119463713Y-131246037D01*
X119441074Y-131255415D01*
X119420700Y-131269029D01*
X119403373Y-131286356D01*
X119389762Y-131306727D01*
X119375325Y-131333737D01*
X119356579Y-131356579D01*
X119333739Y-131375323D01*
X119307678Y-131389253D01*
X119279406Y-131397829D01*
X119250000Y-131400725D01*
X119220593Y-131397829D01*
X119192324Y-131389254D01*
X119166260Y-131375322D01*
X119143421Y-131356579D01*
X119124676Y-131333737D01*
X119110239Y-131306728D01*
X119096625Y-131286353D01*
X119079298Y-131269026D01*
X119058924Y-131255413D01*
X119036285Y-131246035D01*
X119012252Y-131241255D01*
X118987748Y-131241255D01*
X118963714Y-131246036D01*
X118941076Y-131255413D01*
X118920701Y-131269027D01*
X118903374Y-131286354D01*
X118889762Y-131306726D01*
X118875325Y-131333736D01*
X118856579Y-131356578D01*
X118833739Y-131375322D01*
X118807678Y-131389252D01*
X118779406Y-131397828D01*
X118750000Y-131400724D01*
X118720593Y-131397828D01*
X118692324Y-131389253D01*
X118666260Y-131375321D01*
X118643421Y-131356578D01*
X118624675Y-131333736D01*
X118610238Y-131306726D01*
X118596624Y-131286352D01*
X118579297Y-131269025D01*
X118558923Y-131255412D01*
X118536284Y-131246035D01*
X118512250Y-131241255D01*
X118487746Y-131241255D01*
X118463713Y-131246036D01*
X118441074Y-131255414D01*
X118420700Y-131269028D01*
X118403373Y-131286355D01*
X118389761Y-131306728D01*
X118375324Y-131333737D01*
X118356579Y-131356579D01*
X118333739Y-131375323D01*
X118307678Y-131389253D01*
X118279406Y-131397829D01*
X118250000Y-131400725D01*
X118220593Y-131397829D01*
X118192324Y-131389254D01*
X118166260Y-131375322D01*
X118143421Y-131356579D01*
X118124675Y-131333737D01*
X118110238Y-131306727D01*
X118096624Y-131286353D01*
X118079297Y-131269026D01*
X118058923Y-131255413D01*
X118036284Y-131246036D01*
X118012250Y-131241256D01*
X117987746Y-131241256D01*
X117963713Y-131246037D01*
X117941074Y-131255415D01*
X117920700Y-131269029D01*
X117903373Y-131286356D01*
X117889762Y-131306727D01*
X117875325Y-131333737D01*
X117856579Y-131356579D01*
X117833739Y-131375323D01*
X117807678Y-131389253D01*
X117779406Y-131397829D01*
X117750000Y-131400725D01*
X117720593Y-131397829D01*
X117692324Y-131389254D01*
X117666260Y-131375322D01*
X117643421Y-131356579D01*
X117624675Y-131333737D01*
X117610238Y-131306727D01*
X117596624Y-131286353D01*
X117579297Y-131269026D01*
X117558923Y-131255413D01*
X117536284Y-131246036D01*
X117512250Y-131241256D01*
X117487746Y-131241256D01*
X117463713Y-131246037D01*
X117441074Y-131255415D01*
X117420700Y-131269029D01*
X117403373Y-131286356D01*
X117389762Y-131306727D01*
X117375325Y-131333737D01*
X117356579Y-131356579D01*
X117333739Y-131375323D01*
X117307678Y-131389253D01*
X117279406Y-131397829D01*
X117250000Y-131400725D01*
X117220593Y-131397829D01*
X117192324Y-131389254D01*
X117166260Y-131375322D01*
X117143421Y-131356579D01*
X117124675Y-131333737D01*
X117110238Y-131306727D01*
X117096624Y-131286353D01*
X117079297Y-131269026D01*
X117058923Y-131255413D01*
X117036284Y-131246036D01*
X117012250Y-131241256D01*
X116987746Y-131241256D01*
X116963713Y-131246037D01*
X116941074Y-131255415D01*
X116920700Y-131269029D01*
X116903373Y-131286356D01*
X116889762Y-131306727D01*
X116875325Y-131333737D01*
X116856579Y-131356579D01*
X116833739Y-131375323D01*
X116807678Y-131389253D01*
X116779406Y-131397829D01*
X116750000Y-131400725D01*
X116720593Y-131397829D01*
X116692324Y-131389254D01*
X116666260Y-131375322D01*
X116643421Y-131356579D01*
X116624676Y-131333737D01*
X116610239Y-131306728D01*
X116596625Y-131286353D01*
X116579298Y-131269026D01*
X116558924Y-131255413D01*
X116536285Y-131246035D01*
X116512252Y-131241255D01*
X116487748Y-131241255D01*
X116463714Y-131246036D01*
X116441076Y-131255413D01*
X116420701Y-131269027D01*
X116403374Y-131286354D01*
X116389762Y-131306726D01*
X116375325Y-131333736D01*
X116356579Y-131356578D01*
X116333739Y-131375322D01*
X116307678Y-131389252D01*
X116279406Y-131397828D01*
X116250000Y-131400724D01*
X116220593Y-131397828D01*
X116192324Y-131389253D01*
X116166260Y-131375321D01*
X116143421Y-131356578D01*
X116124675Y-131333736D01*
X116110238Y-131306726D01*
X116096624Y-131286352D01*
X116079297Y-131269025D01*
X116058923Y-131255412D01*
X116036284Y-131246035D01*
X116012250Y-131241255D01*
X115987746Y-131241255D01*
X115963713Y-131246036D01*
X115941074Y-131255414D01*
X115920700Y-131269028D01*
X115903373Y-131286355D01*
X115889761Y-131306728D01*
X115875324Y-131333737D01*
X115856579Y-131356579D01*
X115833739Y-131375323D01*
X115807678Y-131389253D01*
X115779406Y-131397829D01*
X115750000Y-131400725D01*
X115720593Y-131397829D01*
X115692324Y-131389254D01*
X115666260Y-131375322D01*
X115643421Y-131356579D01*
X115624675Y-131333737D01*
X115610238Y-131306727D01*
X115596624Y-131286353D01*
X115579297Y-131269026D01*
X115558923Y-131255413D01*
X115536284Y-131246036D01*
X115512250Y-131241256D01*
X115487746Y-131241256D01*
X115463713Y-131246037D01*
X115441074Y-131255415D01*
X115420700Y-131269029D01*
X115403373Y-131286356D01*
X115389762Y-131306727D01*
X115375325Y-131333737D01*
X115356579Y-131356579D01*
X115333739Y-131375323D01*
X115307678Y-131389253D01*
X115279406Y-131397829D01*
X115250000Y-131400725D01*
X115220593Y-131397829D01*
X115192324Y-131389254D01*
X115166260Y-131375322D01*
X115143421Y-131356579D01*
X115124675Y-131333737D01*
X115110238Y-131306727D01*
X115096624Y-131286353D01*
X115079297Y-131269026D01*
X115058923Y-131255413D01*
X115036284Y-131246036D01*
X115012250Y-131241256D01*
X114987746Y-131241256D01*
X114963713Y-131246037D01*
X114941074Y-131255415D01*
X114920700Y-131269029D01*
X114903373Y-131286356D01*
X114889762Y-131306727D01*
X114875325Y-131333737D01*
X114856579Y-131356579D01*
X114833739Y-131375323D01*
X114807678Y-131389253D01*
X114779406Y-131397829D01*
X114750000Y-131400725D01*
X114720593Y-131397829D01*
X114692324Y-131389254D01*
X114666260Y-131375322D01*
X114643421Y-131356579D01*
X114624677Y-131333739D01*
X114610747Y-131307678D01*
X114602171Y-131279406D01*
X114600000Y-131257361D01*
X114600000Y-130942638D01*
X114602171Y-130920599D01*
X114602172Y-130920595D01*
X114610749Y-130892320D01*
X114624678Y-130866262D01*
X114624679Y-130866260D01*
X114643422Y-130843421D01*
X114666261Y-130824678D01*
X114692325Y-130810746D01*
X114720594Y-130802171D01*
X114750000Y-130799275D01*
X114779407Y-130802171D01*
X114807676Y-130810746D01*
X114833740Y-130824678D01*
X114856579Y-130843421D01*
X114875324Y-130866263D01*
X114889761Y-130893272D01*
X114903375Y-130913647D01*
X114920702Y-130930974D01*
X114941076Y-130944587D01*
X114963715Y-130953965D01*
X114987748Y-130958745D01*
X115012252Y-130958745D01*
X115036286Y-130953964D01*
X115058924Y-130944587D01*
X115079299Y-130930973D01*
X115096626Y-130913646D01*
X115110238Y-130893275D01*
X115124678Y-130866262D01*
X115143422Y-130843421D01*
X115166261Y-130824678D01*
X115192325Y-130810746D01*
X115220594Y-130802171D01*
X115250000Y-130799275D01*
X115279407Y-130802171D01*
X115307676Y-130810746D01*
X115333740Y-130824678D01*
X115356579Y-130843421D01*
X115375324Y-130866263D01*
X115389761Y-130893272D01*
X115403375Y-130913647D01*
X115420702Y-130930974D01*
X115441076Y-130944587D01*
X115463715Y-130953965D01*
X115487748Y-130958745D01*
X115512252Y-130958745D01*
X115536286Y-130953964D01*
X115558924Y-130944587D01*
X115579299Y-130930973D01*
X115596626Y-130913646D01*
X115610238Y-130893275D01*
X115624678Y-130866262D01*
X115643422Y-130843421D01*
X115666261Y-130824678D01*
X115692325Y-130810746D01*
X115720594Y-130802171D01*
X115750000Y-130799275D01*
X115779407Y-130802171D01*
X115807676Y-130810746D01*
X115833740Y-130824678D01*
X115856579Y-130843421D01*
X115875325Y-130866263D01*
X115889762Y-130893273D01*
X115903376Y-130913647D01*
X115920703Y-130930974D01*
X115941077Y-130944587D01*
X115963716Y-130953964D01*
X115987750Y-130958744D01*
X116012254Y-130958744D01*
X116036287Y-130953963D01*
X116058926Y-130944585D01*
X116079300Y-130930971D01*
X116096627Y-130913644D01*
X116110238Y-130893274D01*
X116124678Y-130866261D01*
X116143422Y-130843420D01*
X116166261Y-130824677D01*
X116192325Y-130810745D01*
X116220594Y-130802170D01*
X116250000Y-130799274D01*
X116279407Y-130802170D01*
X116307676Y-130810745D01*
X116333740Y-130824677D01*
X116356579Y-130843420D01*
X116375323Y-130866261D01*
X116389763Y-130893274D01*
X116403377Y-130913648D01*
X116420705Y-130930974D01*
X116441079Y-130944588D01*
X116463718Y-130953964D01*
X116487752Y-130958744D01*
X116512256Y-130958744D01*
X116536289Y-130953963D01*
X116558928Y-130944585D01*
X116579302Y-130930971D01*
X116596628Y-130913643D01*
X116610239Y-130893273D01*
X116624676Y-130866263D01*
X116643422Y-130843421D01*
X116666261Y-130824678D01*
X116692325Y-130810746D01*
X116720594Y-130802171D01*
X116750000Y-130799275D01*
X116779407Y-130802171D01*
X116807676Y-130810746D01*
X116833740Y-130824678D01*
X116856579Y-130843421D01*
X116875324Y-130866263D01*
X116889761Y-130893272D01*
X116903375Y-130913647D01*
X116920702Y-130930974D01*
X116941076Y-130944587D01*
X116963715Y-130953965D01*
X116987748Y-130958745D01*
X117012252Y-130958745D01*
X117036286Y-130953964D01*
X117058924Y-130944587D01*
X117079299Y-130930973D01*
X117096626Y-130913646D01*
X117110238Y-130893275D01*
X117124678Y-130866262D01*
X117143422Y-130843421D01*
X117166261Y-130824678D01*
X117192325Y-130810746D01*
X117220594Y-130802171D01*
X117250000Y-130799275D01*
X117279407Y-130802171D01*
X117307676Y-130810746D01*
X117333740Y-130824678D01*
X117356579Y-130843421D01*
X117375324Y-130866263D01*
X117389761Y-130893272D01*
X117403375Y-130913647D01*
X117420702Y-130930974D01*
X117441076Y-130944587D01*
X117463715Y-130953965D01*
X117487748Y-130958745D01*
X117512252Y-130958745D01*
X117536286Y-130953964D01*
X117558924Y-130944587D01*
X117579299Y-130930973D01*
X117596626Y-130913646D01*
X117610238Y-130893275D01*
X117624678Y-130866262D01*
X117643422Y-130843421D01*
X117666261Y-130824678D01*
X117692325Y-130810746D01*
X117720594Y-130802171D01*
X117750000Y-130799275D01*
X117779407Y-130802171D01*
X117807676Y-130810746D01*
X117833740Y-130824678D01*
X117856579Y-130843421D01*
X117875324Y-130866263D01*
X117889761Y-130893272D01*
X117903375Y-130913647D01*
X117920702Y-130930974D01*
X117941076Y-130944587D01*
X117963715Y-130953965D01*
X117987748Y-130958745D01*
X118012252Y-130958745D01*
X118036286Y-130953964D01*
X118058924Y-130944587D01*
X118079299Y-130930973D01*
X118096626Y-130913646D01*
X118110238Y-130893275D01*
X118124678Y-130866262D01*
X118143422Y-130843421D01*
X118166261Y-130824678D01*
X118192325Y-130810746D01*
X118220594Y-130802171D01*
X118250000Y-130799275D01*
X118279407Y-130802171D01*
X118307676Y-130810746D01*
X118333740Y-130824678D01*
X118356579Y-130843421D01*
X118375325Y-130866263D01*
X118389762Y-130893273D01*
X118403376Y-130913647D01*
X118420703Y-130930974D01*
X118441077Y-130944587D01*
X118463716Y-130953964D01*
X118487750Y-130958744D01*
X118512254Y-130958744D01*
X118536287Y-130953963D01*
X118558926Y-130944585D01*
X118579300Y-130930971D01*
X118596627Y-130913644D01*
X118610238Y-130893274D01*
X118624678Y-130866261D01*
X118643422Y-130843420D01*
X118666261Y-130824677D01*
X118692325Y-130810745D01*
X118720594Y-130802170D01*
X118750000Y-130799274D01*
X118779407Y-130802170D01*
G37*
G36*
X111400000Y-131225000D02*
G01*
X109900000Y-131225000D01*
X109900000Y-129975000D01*
X111400000Y-129975000D01*
X111400000Y-131225000D01*
G37*
G36*
X108900000Y-131225000D02*
G01*
X107400000Y-131225000D01*
X107400000Y-129975000D01*
X108900000Y-129975000D01*
X108900000Y-131225000D01*
G37*
G36*
X114800000Y-129400000D02*
G01*
X113600000Y-129400000D01*
X113600000Y-128500000D01*
X114800000Y-128500000D01*
X114800000Y-129400000D01*
G37*
G36*
X111400000Y-129125000D02*
G01*
X109900000Y-129125000D01*
X109900000Y-127875000D01*
X111400000Y-127875000D01*
X111400000Y-129125000D01*
G37*
G36*
X108900000Y-129125000D02*
G01*
X107400000Y-129125000D01*
X107400000Y-127875000D01*
X108900000Y-127875000D01*
X108900000Y-129125000D01*
G37*
G36*
X117225000Y-127700000D02*
G01*
X115975000Y-127700000D01*
X115975000Y-126200000D01*
X117225000Y-126200000D01*
X117225000Y-127700000D01*
G37*
G36*
X118875000Y-126950000D02*
G01*
X118125000Y-126950000D01*
X118125000Y-125750000D01*
X118875000Y-125750000D01*
X118875000Y-126950000D01*
G37*
G36*
X114800000Y-126100000D02*
G01*
X113600000Y-126100000D01*
X113600000Y-125200000D01*
X114800000Y-125200000D01*
X114800000Y-126100000D01*
G37*
G36*
X117225000Y-125200000D02*
G01*
X115975000Y-125200000D01*
X115975000Y-123700000D01*
X117225000Y-123700000D01*
X117225000Y-125200000D01*
G37*
G36*
X118875000Y-125050000D02*
G01*
X118125000Y-125050000D01*
X118125000Y-123850000D01*
X118875000Y-123850000D01*
X118875000Y-125050000D01*
G37*
G36*
X110600000Y-124625000D02*
G01*
X109100000Y-124625000D01*
X109100000Y-123375000D01*
X110600000Y-123375000D01*
X110600000Y-124625000D01*
G37*
G36*
X113100000Y-124625000D02*
G01*
X111600000Y-124625000D01*
X111600000Y-123375000D01*
X113100000Y-123375000D01*
X113100000Y-124625000D01*
G37*
G36*
X137800000Y-118625000D02*
G01*
X136300000Y-118625000D01*
X136300000Y-117375000D01*
X137800000Y-117375000D01*
X137800000Y-118625000D01*
G37*
G36*
X135300000Y-118625000D02*
G01*
X133800000Y-118625000D01*
X133800000Y-117375000D01*
X135300000Y-117375000D01*
X135300000Y-118625000D01*
G37*
G36*
X125489823Y-115300833D02*
G01*
X125492051Y-115301509D01*
X125494106Y-115302608D01*
X125495908Y-115304087D01*
X125503375Y-115313185D01*
X125520703Y-115330511D01*
X125541077Y-115344125D01*
X125563716Y-115353502D01*
X125587749Y-115358282D01*
X125612253Y-115358282D01*
X125636287Y-115353501D01*
X125658925Y-115344124D01*
X125679300Y-115330510D01*
X125696625Y-115313185D01*
X125704092Y-115304087D01*
X125705894Y-115302608D01*
X125707949Y-115301509D01*
X125710177Y-115300833D01*
X125718640Y-115300000D01*
X125981360Y-115300000D01*
X125989823Y-115300833D01*
X125992051Y-115301509D01*
X125994106Y-115302608D01*
X125995908Y-115304087D01*
X126003375Y-115313185D01*
X126020703Y-115330511D01*
X126041077Y-115344125D01*
X126063716Y-115353502D01*
X126087749Y-115358282D01*
X126112253Y-115358282D01*
X126136287Y-115353501D01*
X126158925Y-115344124D01*
X126179300Y-115330510D01*
X126196625Y-115313185D01*
X126204092Y-115304087D01*
X126205894Y-115302608D01*
X126207949Y-115301509D01*
X126210177Y-115300833D01*
X126218640Y-115300000D01*
X126481360Y-115300000D01*
X126489823Y-115300833D01*
X126492051Y-115301509D01*
X126494106Y-115302608D01*
X126495908Y-115304087D01*
X126503375Y-115313185D01*
X126520703Y-115330511D01*
X126541077Y-115344125D01*
X126563716Y-115353502D01*
X126587749Y-115358282D01*
X126612253Y-115358282D01*
X126636287Y-115353501D01*
X126658925Y-115344124D01*
X126679300Y-115330510D01*
X126696625Y-115313185D01*
X126704092Y-115304087D01*
X126705894Y-115302608D01*
X126707949Y-115301509D01*
X126710177Y-115300833D01*
X126718640Y-115300000D01*
X126981360Y-115300000D01*
X126989823Y-115300833D01*
X126992051Y-115301509D01*
X126994106Y-115302608D01*
X126995908Y-115304087D01*
X127003375Y-115313185D01*
X127020703Y-115330511D01*
X127041077Y-115344125D01*
X127063716Y-115353502D01*
X127087749Y-115358282D01*
X127112253Y-115358282D01*
X127136287Y-115353501D01*
X127158925Y-115344124D01*
X127179300Y-115330510D01*
X127196625Y-115313185D01*
X127204092Y-115304087D01*
X127205894Y-115302608D01*
X127207949Y-115301509D01*
X127210177Y-115300833D01*
X127218640Y-115300000D01*
X127481360Y-115300000D01*
X127489823Y-115300833D01*
X127492051Y-115301509D01*
X127494106Y-115302608D01*
X127495908Y-115304087D01*
X127503375Y-115313185D01*
X127520703Y-115330511D01*
X127541077Y-115344125D01*
X127563716Y-115353502D01*
X127587749Y-115358282D01*
X127612253Y-115358282D01*
X127636287Y-115353501D01*
X127658925Y-115344124D01*
X127679300Y-115330510D01*
X127696625Y-115313185D01*
X127704092Y-115304087D01*
X127705894Y-115302608D01*
X127707949Y-115301509D01*
X127710177Y-115300833D01*
X127718640Y-115300000D01*
X127981360Y-115300000D01*
X127989823Y-115300833D01*
X127992051Y-115301509D01*
X127994106Y-115302608D01*
X127995908Y-115304087D01*
X128003375Y-115313185D01*
X128020703Y-115330511D01*
X128041077Y-115344125D01*
X128063716Y-115353502D01*
X128087749Y-115358282D01*
X128112253Y-115358282D01*
X128136287Y-115353501D01*
X128158925Y-115344124D01*
X128179300Y-115330510D01*
X128196625Y-115313185D01*
X128204092Y-115304087D01*
X128205894Y-115302608D01*
X128207949Y-115301509D01*
X128210177Y-115300833D01*
X128218640Y-115300000D01*
X128481360Y-115300000D01*
X128489823Y-115300833D01*
X128492051Y-115301509D01*
X128494106Y-115302608D01*
X128495908Y-115304087D01*
X128503375Y-115313185D01*
X128520703Y-115330511D01*
X128541077Y-115344125D01*
X128563716Y-115353502D01*
X128587749Y-115358282D01*
X128612253Y-115358282D01*
X128636287Y-115353501D01*
X128658925Y-115344124D01*
X128679300Y-115330510D01*
X128696625Y-115313185D01*
X128704092Y-115304087D01*
X128705894Y-115302608D01*
X128707949Y-115301509D01*
X128710177Y-115300833D01*
X128718640Y-115300000D01*
X128981360Y-115300000D01*
X128989823Y-115300833D01*
X128992051Y-115301509D01*
X128994106Y-115302608D01*
X128995908Y-115304087D01*
X129003375Y-115313185D01*
X129020703Y-115330511D01*
X129041077Y-115344125D01*
X129063716Y-115353502D01*
X129087749Y-115358282D01*
X129112253Y-115358282D01*
X129136287Y-115353501D01*
X129158925Y-115344124D01*
X129179300Y-115330510D01*
X129196625Y-115313185D01*
X129204092Y-115304087D01*
X129205894Y-115302608D01*
X129207949Y-115301509D01*
X129210177Y-115300833D01*
X129218640Y-115300000D01*
X129481360Y-115300000D01*
X129489823Y-115300833D01*
X129492051Y-115301509D01*
X129494106Y-115302608D01*
X129495908Y-115304087D01*
X129503375Y-115313185D01*
X129520703Y-115330511D01*
X129541077Y-115344125D01*
X129563716Y-115353502D01*
X129587749Y-115358282D01*
X129612253Y-115358282D01*
X129636287Y-115353501D01*
X129658925Y-115344124D01*
X129679300Y-115330510D01*
X129696625Y-115313185D01*
X129704092Y-115304087D01*
X129705894Y-115302608D01*
X129707949Y-115301509D01*
X129710177Y-115300833D01*
X129718640Y-115300000D01*
X129981360Y-115300000D01*
X129989823Y-115300833D01*
X129992051Y-115301509D01*
X129994106Y-115302608D01*
X129995908Y-115304087D01*
X130003375Y-115313185D01*
X130020703Y-115330511D01*
X130041077Y-115344125D01*
X130063716Y-115353502D01*
X130087749Y-115358282D01*
X130112253Y-115358282D01*
X130136287Y-115353501D01*
X130158925Y-115344124D01*
X130179300Y-115330510D01*
X130196625Y-115313185D01*
X130204092Y-115304087D01*
X130205894Y-115302608D01*
X130207949Y-115301509D01*
X130210177Y-115300833D01*
X130218640Y-115300000D01*
X130481360Y-115300000D01*
X130489823Y-115300833D01*
X130492051Y-115301509D01*
X130494106Y-115302608D01*
X130495908Y-115304087D01*
X130503375Y-115313185D01*
X130520703Y-115330511D01*
X130541077Y-115344125D01*
X130563716Y-115353502D01*
X130587749Y-115358282D01*
X130612253Y-115358282D01*
X130636287Y-115353501D01*
X130658925Y-115344124D01*
X130679300Y-115330510D01*
X130696625Y-115313185D01*
X130704092Y-115304087D01*
X130705894Y-115302608D01*
X130707949Y-115301509D01*
X130710177Y-115300833D01*
X130718640Y-115300000D01*
X130981360Y-115300000D01*
X130989823Y-115300833D01*
X130992051Y-115301509D01*
X130994106Y-115302608D01*
X130995908Y-115304087D01*
X131003375Y-115313185D01*
X131020703Y-115330511D01*
X131041077Y-115344125D01*
X131063716Y-115353502D01*
X131087749Y-115358282D01*
X131112253Y-115358282D01*
X131136287Y-115353501D01*
X131158925Y-115344124D01*
X131179300Y-115330510D01*
X131196625Y-115313185D01*
X131204092Y-115304087D01*
X131205894Y-115302608D01*
X131207949Y-115301509D01*
X131210177Y-115300833D01*
X131218640Y-115300000D01*
X131481360Y-115300000D01*
X131489823Y-115300833D01*
X131492051Y-115301509D01*
X131494106Y-115302608D01*
X131495908Y-115304087D01*
X131503375Y-115313185D01*
X131520703Y-115330511D01*
X131541077Y-115344125D01*
X131563716Y-115353502D01*
X131587749Y-115358282D01*
X131612253Y-115358282D01*
X131636287Y-115353501D01*
X131658925Y-115344124D01*
X131679300Y-115330510D01*
X131696625Y-115313185D01*
X131704092Y-115304087D01*
X131705894Y-115302608D01*
X131707949Y-115301509D01*
X131710177Y-115300833D01*
X131718640Y-115300000D01*
X131981360Y-115300000D01*
X131989823Y-115300833D01*
X131992051Y-115301509D01*
X131994106Y-115302608D01*
X131995908Y-115304087D01*
X132003375Y-115313185D01*
X132020703Y-115330511D01*
X132041077Y-115344125D01*
X132063716Y-115353502D01*
X132087749Y-115358282D01*
X132112253Y-115358282D01*
X132136287Y-115353501D01*
X132158925Y-115344124D01*
X132179300Y-115330510D01*
X132196625Y-115313185D01*
X132204092Y-115304087D01*
X132205894Y-115302608D01*
X132207949Y-115301509D01*
X132210177Y-115300833D01*
X132218640Y-115300000D01*
X132481360Y-115300000D01*
X132489823Y-115300833D01*
X132492051Y-115301509D01*
X132494106Y-115302608D01*
X132495908Y-115304087D01*
X132503375Y-115313185D01*
X132520703Y-115330511D01*
X132541077Y-115344125D01*
X132563716Y-115353502D01*
X132587749Y-115358282D01*
X132612253Y-115358282D01*
X132636287Y-115353501D01*
X132658925Y-115344124D01*
X132679300Y-115330510D01*
X132696625Y-115313185D01*
X132704092Y-115304087D01*
X132705894Y-115302608D01*
X132707949Y-115301509D01*
X132710177Y-115300833D01*
X132718640Y-115300000D01*
X132981360Y-115300000D01*
X132989823Y-115300833D01*
X132992051Y-115301509D01*
X132994106Y-115302608D01*
X132995911Y-115304089D01*
X132997392Y-115305894D01*
X132998491Y-115307949D01*
X132999167Y-115310177D01*
X133000000Y-115318640D01*
X133000000Y-116831360D01*
X132999167Y-116839823D01*
X132998491Y-116842051D01*
X132997392Y-116844106D01*
X132995911Y-116845911D01*
X132994106Y-116847392D01*
X132992051Y-116848491D01*
X132989823Y-116849167D01*
X132981360Y-116850000D01*
X132718640Y-116850000D01*
X132710177Y-116849167D01*
X132707949Y-116848491D01*
X132705894Y-116847392D01*
X132704092Y-116845913D01*
X132696625Y-116836815D01*
X132679297Y-116819489D01*
X132658923Y-116805875D01*
X132636284Y-116796498D01*
X132612251Y-116791718D01*
X132587747Y-116791718D01*
X132563713Y-116796499D01*
X132541075Y-116805876D01*
X132520700Y-116819490D01*
X132503375Y-116836815D01*
X132495908Y-116845913D01*
X132494106Y-116847392D01*
X132492051Y-116848491D01*
X132489823Y-116849167D01*
X132481360Y-116850000D01*
X132218640Y-116850000D01*
X132210177Y-116849167D01*
X132207949Y-116848491D01*
X132205894Y-116847392D01*
X132204092Y-116845913D01*
X132196625Y-116836815D01*
X132179297Y-116819489D01*
X132158923Y-116805875D01*
X132136284Y-116796498D01*
X132112251Y-116791718D01*
X132087747Y-116791718D01*
X132063713Y-116796499D01*
X132041075Y-116805876D01*
X132020700Y-116819490D01*
X132003375Y-116836815D01*
X131995908Y-116845913D01*
X131994106Y-116847392D01*
X131992051Y-116848491D01*
X131989823Y-116849167D01*
X131981360Y-116850000D01*
X131718640Y-116850000D01*
X131710177Y-116849167D01*
X131707949Y-116848491D01*
X131705894Y-116847392D01*
X131704092Y-116845913D01*
X131696625Y-116836815D01*
X131679297Y-116819489D01*
X131658923Y-116805875D01*
X131636284Y-116796498D01*
X131612251Y-116791718D01*
X131587747Y-116791718D01*
X131563713Y-116796499D01*
X131541075Y-116805876D01*
X131520700Y-116819490D01*
X131503375Y-116836815D01*
X131495908Y-116845913D01*
X131494106Y-116847392D01*
X131492051Y-116848491D01*
X131489823Y-116849167D01*
X131481360Y-116850000D01*
X131218640Y-116850000D01*
X131210177Y-116849167D01*
X131207949Y-116848491D01*
X131205894Y-116847392D01*
X131204092Y-116845913D01*
X131196625Y-116836815D01*
X131179297Y-116819489D01*
X131158923Y-116805875D01*
X131136284Y-116796498D01*
X131112251Y-116791718D01*
X131087747Y-116791718D01*
X131063713Y-116796499D01*
X131041075Y-116805876D01*
X131020700Y-116819490D01*
X131003375Y-116836815D01*
X130995908Y-116845913D01*
X130994106Y-116847392D01*
X130992051Y-116848491D01*
X130989823Y-116849167D01*
X130981360Y-116850000D01*
X130718640Y-116850000D01*
X130710177Y-116849167D01*
X130707949Y-116848491D01*
X130705894Y-116847392D01*
X130704092Y-116845913D01*
X130696625Y-116836815D01*
X130679297Y-116819489D01*
X130658923Y-116805875D01*
X130636284Y-116796498D01*
X130612251Y-116791718D01*
X130587747Y-116791718D01*
X130563713Y-116796499D01*
X130541075Y-116805876D01*
X130520700Y-116819490D01*
X130503375Y-116836815D01*
X130495908Y-116845913D01*
X130494106Y-116847392D01*
X130492051Y-116848491D01*
X130489823Y-116849167D01*
X130481360Y-116850000D01*
X130218640Y-116850000D01*
X130210177Y-116849167D01*
X130207949Y-116848491D01*
X130205894Y-116847392D01*
X130204092Y-116845913D01*
X130196625Y-116836815D01*
X130179297Y-116819489D01*
X130158923Y-116805875D01*
X130136284Y-116796498D01*
X130112251Y-116791718D01*
X130087747Y-116791718D01*
X130063713Y-116796499D01*
X130041075Y-116805876D01*
X130020700Y-116819490D01*
X130003375Y-116836815D01*
X129995908Y-116845913D01*
X129994106Y-116847392D01*
X129992051Y-116848491D01*
X129989823Y-116849167D01*
X129981360Y-116850000D01*
X129718640Y-116850000D01*
X129710177Y-116849167D01*
X129707949Y-116848491D01*
X129705894Y-116847392D01*
X129704092Y-116845913D01*
X129696625Y-116836815D01*
X129679297Y-116819489D01*
X129658923Y-116805875D01*
X129636284Y-116796498D01*
X129612251Y-116791718D01*
X129587747Y-116791718D01*
X129563713Y-116796499D01*
X129541075Y-116805876D01*
X129520700Y-116819490D01*
X129503375Y-116836815D01*
X129495908Y-116845913D01*
X129494106Y-116847392D01*
X129492051Y-116848491D01*
X129489823Y-116849167D01*
X129481360Y-116850000D01*
X129218640Y-116850000D01*
X129210177Y-116849167D01*
X129207949Y-116848491D01*
X129205894Y-116847392D01*
X129204092Y-116845913D01*
X129196625Y-116836815D01*
X129179297Y-116819489D01*
X129158923Y-116805875D01*
X129136284Y-116796498D01*
X129112251Y-116791718D01*
X129087747Y-116791718D01*
X129063713Y-116796499D01*
X129041075Y-116805876D01*
X129020700Y-116819490D01*
X129003375Y-116836815D01*
X128995908Y-116845913D01*
X128994106Y-116847392D01*
X128992051Y-116848491D01*
X128989823Y-116849167D01*
X128981360Y-116850000D01*
X128718640Y-116850000D01*
X128710177Y-116849167D01*
X128707949Y-116848491D01*
X128705894Y-116847392D01*
X128704092Y-116845913D01*
X128696625Y-116836815D01*
X128679297Y-116819489D01*
X128658923Y-116805875D01*
X128636284Y-116796498D01*
X128612251Y-116791718D01*
X128587747Y-116791718D01*
X128563713Y-116796499D01*
X128541075Y-116805876D01*
X128520700Y-116819490D01*
X128503375Y-116836815D01*
X128495908Y-116845913D01*
X128494106Y-116847392D01*
X128492051Y-116848491D01*
X128489823Y-116849167D01*
X128481360Y-116850000D01*
X128218640Y-116850000D01*
X128210177Y-116849167D01*
X128207949Y-116848491D01*
X128205894Y-116847392D01*
X128204092Y-116845913D01*
X128196625Y-116836815D01*
X128179297Y-116819489D01*
X128158923Y-116805875D01*
X128136284Y-116796498D01*
X128112251Y-116791718D01*
X128087747Y-116791718D01*
X128063713Y-116796499D01*
X128041075Y-116805876D01*
X128020700Y-116819490D01*
X128003375Y-116836815D01*
X127995908Y-116845913D01*
X127994106Y-116847392D01*
X127992051Y-116848491D01*
X127989823Y-116849167D01*
X127981360Y-116850000D01*
X127718640Y-116850000D01*
X127710177Y-116849167D01*
X127707949Y-116848491D01*
X127705894Y-116847392D01*
X127704092Y-116845913D01*
X127696625Y-116836815D01*
X127679297Y-116819489D01*
X127658923Y-116805875D01*
X127636284Y-116796498D01*
X127612251Y-116791718D01*
X127587747Y-116791718D01*
X127563713Y-116796499D01*
X127541075Y-116805876D01*
X127520700Y-116819490D01*
X127503375Y-116836815D01*
X127495908Y-116845913D01*
X127494106Y-116847392D01*
X127492051Y-116848491D01*
X127489823Y-116849167D01*
X127481360Y-116850000D01*
X127218640Y-116850000D01*
X127210177Y-116849167D01*
X127207949Y-116848491D01*
X127205894Y-116847392D01*
X127204092Y-116845913D01*
X127196625Y-116836815D01*
X127179297Y-116819489D01*
X127158923Y-116805875D01*
X127136284Y-116796498D01*
X127112251Y-116791718D01*
X127087747Y-116791718D01*
X127063713Y-116796499D01*
X127041075Y-116805876D01*
X127020700Y-116819490D01*
X127003375Y-116836815D01*
X126995908Y-116845913D01*
X126994106Y-116847392D01*
X126992051Y-116848491D01*
X126989823Y-116849167D01*
X126981360Y-116850000D01*
X126718640Y-116850000D01*
X126710177Y-116849167D01*
X126707949Y-116848491D01*
X126705894Y-116847392D01*
X126704092Y-116845913D01*
X126696625Y-116836815D01*
X126679297Y-116819489D01*
X126658923Y-116805875D01*
X126636284Y-116796498D01*
X126612251Y-116791718D01*
X126587747Y-116791718D01*
X126563713Y-116796499D01*
X126541075Y-116805876D01*
X126520700Y-116819490D01*
X126503375Y-116836815D01*
X126495908Y-116845913D01*
X126494106Y-116847392D01*
X126492051Y-116848491D01*
X126489823Y-116849167D01*
X126481360Y-116850000D01*
X126218640Y-116850000D01*
X126210177Y-116849167D01*
X126207949Y-116848491D01*
X126205894Y-116847392D01*
X126204092Y-116845913D01*
X126196625Y-116836815D01*
X126179297Y-116819489D01*
X126158923Y-116805875D01*
X126136284Y-116796498D01*
X126112251Y-116791718D01*
X126087747Y-116791718D01*
X126063713Y-116796499D01*
X126041075Y-116805876D01*
X126020700Y-116819490D01*
X126003375Y-116836815D01*
X125995908Y-116845913D01*
X125994106Y-116847392D01*
X125992051Y-116848491D01*
X125989823Y-116849167D01*
X125981360Y-116850000D01*
X125718640Y-116850000D01*
X125710177Y-116849167D01*
X125707949Y-116848491D01*
X125705894Y-116847392D01*
X125704092Y-116845913D01*
X125696625Y-116836815D01*
X125679297Y-116819489D01*
X125658923Y-116805875D01*
X125636284Y-116796498D01*
X125612251Y-116791718D01*
X125587747Y-116791718D01*
X125563713Y-116796499D01*
X125541075Y-116805876D01*
X125520700Y-116819490D01*
X125503375Y-116836815D01*
X125495908Y-116845913D01*
X125494106Y-116847392D01*
X125492051Y-116848491D01*
X125489823Y-116849167D01*
X125481360Y-116850000D01*
X125218640Y-116850000D01*
X125210177Y-116849167D01*
X125207949Y-116848491D01*
X125205894Y-116847392D01*
X125204089Y-116845911D01*
X125202608Y-116844106D01*
X125201509Y-116842051D01*
X125200833Y-116839823D01*
X125200000Y-116831360D01*
X125200000Y-115318640D01*
X125200833Y-115310177D01*
X125201509Y-115307949D01*
X125202608Y-115305894D01*
X125204089Y-115304089D01*
X125205894Y-115302608D01*
X125207949Y-115301509D01*
X125210177Y-115300833D01*
X125218640Y-115300000D01*
X125481360Y-115300000D01*
X125489823Y-115300833D01*
G37*
G36*
X118350000Y-114875000D02*
G01*
X117150000Y-114875000D01*
X117150000Y-114125000D01*
X118350000Y-114125000D01*
X118350000Y-114875000D01*
G37*
G36*
X120250000Y-114875000D02*
G01*
X119050000Y-114875000D01*
X119050000Y-114125000D01*
X120250000Y-114125000D01*
X120250000Y-114875000D01*
G37*
G36*
X124189823Y-106500833D02*
G01*
X124192051Y-106501509D01*
X124194106Y-106502608D01*
X124195911Y-106504089D01*
X124197392Y-106505894D01*
X124198491Y-106507949D01*
X124199167Y-106510177D01*
X124200000Y-106518640D01*
X124200000Y-106781360D01*
X124199167Y-106789823D01*
X124198491Y-106792051D01*
X124197392Y-106794106D01*
X124195913Y-106795908D01*
X124186815Y-106803375D01*
X124169489Y-106820703D01*
X124155875Y-106841077D01*
X124146498Y-106863716D01*
X124141718Y-106887749D01*
X124141718Y-106912253D01*
X124146499Y-106936287D01*
X124155876Y-106958925D01*
X124169490Y-106979300D01*
X124186815Y-106996625D01*
X124195913Y-107004092D01*
X124197392Y-107005894D01*
X124198491Y-107007949D01*
X124199167Y-107010177D01*
X124200000Y-107018640D01*
X124200000Y-107281360D01*
X124199167Y-107289823D01*
X124198491Y-107292051D01*
X124197392Y-107294106D01*
X124195913Y-107295908D01*
X124186815Y-107303375D01*
X124169489Y-107320703D01*
X124155875Y-107341077D01*
X124146498Y-107363716D01*
X124141718Y-107387749D01*
X124141718Y-107412253D01*
X124146499Y-107436287D01*
X124155876Y-107458925D01*
X124169490Y-107479300D01*
X124186815Y-107496625D01*
X124195913Y-107504092D01*
X124197392Y-107505894D01*
X124198491Y-107507949D01*
X124199167Y-107510177D01*
X124200000Y-107518640D01*
X124200000Y-107781360D01*
X124199167Y-107789823D01*
X124198491Y-107792051D01*
X124197392Y-107794106D01*
X124195913Y-107795908D01*
X124186815Y-107803375D01*
X124169489Y-107820703D01*
X124155875Y-107841077D01*
X124146498Y-107863716D01*
X124141718Y-107887749D01*
X124141718Y-107912253D01*
X124146499Y-107936287D01*
X124155876Y-107958925D01*
X124169490Y-107979300D01*
X124186815Y-107996625D01*
X124195913Y-108004092D01*
X124197392Y-108005894D01*
X124198491Y-108007949D01*
X124199167Y-108010177D01*
X124200000Y-108018640D01*
X124200000Y-108281360D01*
X124199167Y-108289823D01*
X124198491Y-108292051D01*
X124197392Y-108294106D01*
X124195913Y-108295908D01*
X124186815Y-108303375D01*
X124169489Y-108320703D01*
X124155875Y-108341077D01*
X124146498Y-108363716D01*
X124141718Y-108387749D01*
X124141718Y-108412253D01*
X124146499Y-108436287D01*
X124155876Y-108458925D01*
X124169490Y-108479300D01*
X124186815Y-108496625D01*
X124195913Y-108504092D01*
X124197392Y-108505894D01*
X124198491Y-108507949D01*
X124199167Y-108510177D01*
X124200000Y-108518640D01*
X124200000Y-108781360D01*
X124199167Y-108789823D01*
X124198491Y-108792051D01*
X124197392Y-108794106D01*
X124195913Y-108795908D01*
X124186815Y-108803375D01*
X124169489Y-108820703D01*
X124155875Y-108841077D01*
X124146498Y-108863716D01*
X124141718Y-108887749D01*
X124141718Y-108912253D01*
X124146499Y-108936287D01*
X124155876Y-108958925D01*
X124169490Y-108979300D01*
X124186815Y-108996625D01*
X124195913Y-109004092D01*
X124197392Y-109005894D01*
X124198491Y-109007949D01*
X124199167Y-109010177D01*
X124200000Y-109018640D01*
X124200000Y-109281360D01*
X124199167Y-109289823D01*
X124198491Y-109292051D01*
X124197392Y-109294106D01*
X124195913Y-109295908D01*
X124186815Y-109303375D01*
X124169489Y-109320703D01*
X124155875Y-109341077D01*
X124146498Y-109363716D01*
X124141718Y-109387749D01*
X124141718Y-109412253D01*
X124146499Y-109436287D01*
X124155876Y-109458925D01*
X124169490Y-109479300D01*
X124186815Y-109496625D01*
X124195913Y-109504092D01*
X124197392Y-109505894D01*
X124198491Y-109507949D01*
X124199167Y-109510177D01*
X124200000Y-109518640D01*
X124200000Y-109781360D01*
X124199167Y-109789823D01*
X124198491Y-109792051D01*
X124197392Y-109794106D01*
X124195913Y-109795908D01*
X124186815Y-109803375D01*
X124169489Y-109820703D01*
X124155875Y-109841077D01*
X124146498Y-109863716D01*
X124141718Y-109887749D01*
X124141718Y-109912253D01*
X124146499Y-109936287D01*
X124155876Y-109958925D01*
X124169490Y-109979300D01*
X124186815Y-109996625D01*
X124195913Y-110004092D01*
X124197392Y-110005894D01*
X124198491Y-110007949D01*
X124199167Y-110010177D01*
X124200000Y-110018640D01*
X124200000Y-110281360D01*
X124199167Y-110289823D01*
X124198491Y-110292051D01*
X124197392Y-110294106D01*
X124195913Y-110295908D01*
X124186815Y-110303375D01*
X124169489Y-110320703D01*
X124155875Y-110341077D01*
X124146498Y-110363716D01*
X124141718Y-110387749D01*
X124141718Y-110412253D01*
X124146499Y-110436287D01*
X124155876Y-110458925D01*
X124169490Y-110479300D01*
X124186815Y-110496625D01*
X124195913Y-110504092D01*
X124197392Y-110505894D01*
X124198491Y-110507949D01*
X124199167Y-110510177D01*
X124200000Y-110518640D01*
X124200000Y-110781360D01*
X124199167Y-110789823D01*
X124198491Y-110792051D01*
X124197392Y-110794106D01*
X124195913Y-110795908D01*
X124186815Y-110803375D01*
X124169489Y-110820703D01*
X124155875Y-110841077D01*
X124146498Y-110863716D01*
X124141718Y-110887749D01*
X124141718Y-110912253D01*
X124146499Y-110936287D01*
X124155876Y-110958925D01*
X124169490Y-110979300D01*
X124186815Y-110996625D01*
X124195913Y-111004092D01*
X124197392Y-111005894D01*
X124198491Y-111007949D01*
X124199167Y-111010177D01*
X124200000Y-111018640D01*
X124200000Y-111281360D01*
X124199167Y-111289823D01*
X124198491Y-111292051D01*
X124197392Y-111294106D01*
X124195913Y-111295908D01*
X124186815Y-111303375D01*
X124169489Y-111320703D01*
X124155875Y-111341077D01*
X124146498Y-111363716D01*
X124141718Y-111387749D01*
X124141718Y-111412253D01*
X124146499Y-111436287D01*
X124155876Y-111458925D01*
X124169490Y-111479300D01*
X124186815Y-111496625D01*
X124195913Y-111504092D01*
X124197392Y-111505894D01*
X124198491Y-111507949D01*
X124199167Y-111510177D01*
X124200000Y-111518640D01*
X124200000Y-111781360D01*
X124199167Y-111789823D01*
X124198491Y-111792051D01*
X124197392Y-111794106D01*
X124195913Y-111795908D01*
X124186815Y-111803375D01*
X124169489Y-111820703D01*
X124155875Y-111841077D01*
X124146498Y-111863716D01*
X124141718Y-111887749D01*
X124141718Y-111912253D01*
X124146499Y-111936287D01*
X124155876Y-111958925D01*
X124169490Y-111979300D01*
X124186815Y-111996625D01*
X124195913Y-112004092D01*
X124197392Y-112005894D01*
X124198491Y-112007949D01*
X124199167Y-112010177D01*
X124200000Y-112018640D01*
X124200000Y-112281360D01*
X124199167Y-112289823D01*
X124198491Y-112292051D01*
X124197392Y-112294106D01*
X124195913Y-112295908D01*
X124186815Y-112303375D01*
X124169489Y-112320703D01*
X124155875Y-112341077D01*
X124146498Y-112363716D01*
X124141718Y-112387749D01*
X124141718Y-112412253D01*
X124146499Y-112436287D01*
X124155876Y-112458925D01*
X124169490Y-112479300D01*
X124186815Y-112496625D01*
X124195913Y-112504092D01*
X124197392Y-112505894D01*
X124198491Y-112507949D01*
X124199167Y-112510177D01*
X124200000Y-112518640D01*
X124200000Y-112781360D01*
X124199167Y-112789823D01*
X124198491Y-112792051D01*
X124197392Y-112794106D01*
X124195913Y-112795908D01*
X124186815Y-112803375D01*
X124169489Y-112820703D01*
X124155875Y-112841077D01*
X124146498Y-112863716D01*
X124141718Y-112887749D01*
X124141718Y-112912253D01*
X124146499Y-112936287D01*
X124155876Y-112958925D01*
X124169490Y-112979300D01*
X124186815Y-112996625D01*
X124195913Y-113004092D01*
X124197392Y-113005894D01*
X124198491Y-113007949D01*
X124199167Y-113010177D01*
X124200000Y-113018640D01*
X124200000Y-113281360D01*
X124199167Y-113289823D01*
X124198491Y-113292051D01*
X124197392Y-113294106D01*
X124195913Y-113295908D01*
X124186815Y-113303375D01*
X124169489Y-113320703D01*
X124155875Y-113341077D01*
X124146498Y-113363716D01*
X124141718Y-113387749D01*
X124141718Y-113412253D01*
X124146499Y-113436287D01*
X124155876Y-113458925D01*
X124169490Y-113479300D01*
X124186815Y-113496625D01*
X124195913Y-113504092D01*
X124197392Y-113505894D01*
X124198491Y-113507949D01*
X124199167Y-113510177D01*
X124200000Y-113518640D01*
X124200000Y-113781360D01*
X124199167Y-113789823D01*
X124198491Y-113792051D01*
X124197392Y-113794106D01*
X124195913Y-113795908D01*
X124186815Y-113803375D01*
X124169489Y-113820703D01*
X124155875Y-113841077D01*
X124146498Y-113863716D01*
X124141718Y-113887749D01*
X124141718Y-113912253D01*
X124146499Y-113936287D01*
X124155876Y-113958925D01*
X124169490Y-113979300D01*
X124186815Y-113996625D01*
X124195913Y-114004092D01*
X124197392Y-114005894D01*
X124198491Y-114007949D01*
X124199167Y-114010177D01*
X124200000Y-114018640D01*
X124200000Y-114281360D01*
X124199167Y-114289823D01*
X124198491Y-114292051D01*
X124197392Y-114294106D01*
X124195911Y-114295911D01*
X124194106Y-114297392D01*
X124192051Y-114298491D01*
X124189823Y-114299167D01*
X124181360Y-114300000D01*
X122668640Y-114300000D01*
X122660177Y-114299167D01*
X122657949Y-114298491D01*
X122655894Y-114297392D01*
X122654089Y-114295911D01*
X122652608Y-114294106D01*
X122651509Y-114292051D01*
X122650833Y-114289823D01*
X122650000Y-114281360D01*
X122650000Y-114018640D01*
X122650833Y-114010177D01*
X122651509Y-114007949D01*
X122652608Y-114005894D01*
X122654087Y-114004092D01*
X122663185Y-113996625D01*
X122680511Y-113979297D01*
X122694125Y-113958923D01*
X122703502Y-113936284D01*
X122708282Y-113912251D01*
X122708282Y-113887747D01*
X122703501Y-113863713D01*
X122694124Y-113841075D01*
X122680510Y-113820700D01*
X122663185Y-113803375D01*
X122654087Y-113795908D01*
X122652608Y-113794106D01*
X122651509Y-113792051D01*
X122650833Y-113789823D01*
X122650000Y-113781360D01*
X122650000Y-113518640D01*
X122650833Y-113510177D01*
X122651509Y-113507949D01*
X122652608Y-113505894D01*
X122654087Y-113504092D01*
X122663185Y-113496625D01*
X122680511Y-113479297D01*
X122694125Y-113458923D01*
X122703502Y-113436284D01*
X122708282Y-113412251D01*
X122708282Y-113387747D01*
X122703501Y-113363713D01*
X122694124Y-113341075D01*
X122680510Y-113320700D01*
X122663185Y-113303375D01*
X122654087Y-113295908D01*
X122652608Y-113294106D01*
X122651509Y-113292051D01*
X122650833Y-113289823D01*
X122650000Y-113281360D01*
X122650000Y-113018640D01*
X122650833Y-113010177D01*
X122651509Y-113007949D01*
X122652608Y-113005894D01*
X122654087Y-113004092D01*
X122663185Y-112996625D01*
X122680511Y-112979297D01*
X122694125Y-112958923D01*
X122703502Y-112936284D01*
X122708282Y-112912251D01*
X122708282Y-112887747D01*
X122703501Y-112863713D01*
X122694124Y-112841075D01*
X122680510Y-112820700D01*
X122663185Y-112803375D01*
X122654087Y-112795908D01*
X122652608Y-112794106D01*
X122651509Y-112792051D01*
X122650833Y-112789823D01*
X122650000Y-112781360D01*
X122650000Y-112518640D01*
X122650833Y-112510177D01*
X122651509Y-112507949D01*
X122652608Y-112505894D01*
X122654087Y-112504092D01*
X122663185Y-112496625D01*
X122680511Y-112479297D01*
X122694125Y-112458923D01*
X122703502Y-112436284D01*
X122708282Y-112412251D01*
X122708282Y-112387747D01*
X122703501Y-112363713D01*
X122694124Y-112341075D01*
X122680510Y-112320700D01*
X122663185Y-112303375D01*
X122654087Y-112295908D01*
X122652608Y-112294106D01*
X122651509Y-112292051D01*
X122650833Y-112289823D01*
X122650000Y-112281360D01*
X122650000Y-112018640D01*
X122650833Y-112010177D01*
X122651509Y-112007949D01*
X122652608Y-112005894D01*
X122654087Y-112004092D01*
X122663185Y-111996625D01*
X122680511Y-111979297D01*
X122694125Y-111958923D01*
X122703502Y-111936284D01*
X122708282Y-111912251D01*
X122708282Y-111887747D01*
X122703501Y-111863713D01*
X122694124Y-111841075D01*
X122680510Y-111820700D01*
X122663185Y-111803375D01*
X122654087Y-111795908D01*
X122652608Y-111794106D01*
X122651509Y-111792051D01*
X122650833Y-111789823D01*
X122650000Y-111781360D01*
X122650000Y-111518640D01*
X122650833Y-111510177D01*
X122651509Y-111507949D01*
X122652608Y-111505894D01*
X122654087Y-111504092D01*
X122663185Y-111496625D01*
X122680511Y-111479297D01*
X122694125Y-111458923D01*
X122703502Y-111436284D01*
X122708282Y-111412251D01*
X122708282Y-111387747D01*
X122703501Y-111363713D01*
X122694124Y-111341075D01*
X122680510Y-111320700D01*
X122663185Y-111303375D01*
X122654087Y-111295908D01*
X122652608Y-111294106D01*
X122651509Y-111292051D01*
X122650833Y-111289823D01*
X122650000Y-111281360D01*
X122650000Y-111018640D01*
X122650833Y-111010177D01*
X122651509Y-111007949D01*
X122652608Y-111005894D01*
X122654087Y-111004092D01*
X122663185Y-110996625D01*
X122680511Y-110979297D01*
X122694125Y-110958923D01*
X122703502Y-110936284D01*
X122708282Y-110912251D01*
X122708282Y-110887747D01*
X122703501Y-110863713D01*
X122694124Y-110841075D01*
X122680510Y-110820700D01*
X122663185Y-110803375D01*
X122654087Y-110795908D01*
X122652608Y-110794106D01*
X122651509Y-110792051D01*
X122650833Y-110789823D01*
X122650000Y-110781360D01*
X122650000Y-110518640D01*
X122650833Y-110510177D01*
X122651509Y-110507949D01*
X122652608Y-110505894D01*
X122654087Y-110504092D01*
X122663185Y-110496625D01*
X122680511Y-110479297D01*
X122694125Y-110458923D01*
X122703502Y-110436284D01*
X122708282Y-110412251D01*
X122708282Y-110387747D01*
X122703501Y-110363713D01*
X122694124Y-110341075D01*
X122680510Y-110320700D01*
X122663185Y-110303375D01*
X122654087Y-110295908D01*
X122652608Y-110294106D01*
X122651509Y-110292051D01*
X122650833Y-110289823D01*
X122650000Y-110281360D01*
X122650000Y-110018640D01*
X122650833Y-110010177D01*
X122651509Y-110007949D01*
X122652608Y-110005894D01*
X122654087Y-110004092D01*
X122663185Y-109996625D01*
X122680511Y-109979297D01*
X122694125Y-109958923D01*
X122703502Y-109936284D01*
X122708282Y-109912251D01*
X122708282Y-109887747D01*
X122703501Y-109863713D01*
X122694124Y-109841075D01*
X122680510Y-109820700D01*
X122663185Y-109803375D01*
X122654087Y-109795908D01*
X122652608Y-109794106D01*
X122651509Y-109792051D01*
X122650833Y-109789823D01*
X122650000Y-109781360D01*
X122650000Y-109518640D01*
X122650833Y-109510177D01*
X122651509Y-109507949D01*
X122652608Y-109505894D01*
X122654087Y-109504092D01*
X122663185Y-109496625D01*
X122680511Y-109479297D01*
X122694125Y-109458923D01*
X122703502Y-109436284D01*
X122708282Y-109412251D01*
X122708282Y-109387747D01*
X122703501Y-109363713D01*
X122694124Y-109341075D01*
X122680510Y-109320700D01*
X122663185Y-109303375D01*
X122654087Y-109295908D01*
X122652608Y-109294106D01*
X122651509Y-109292051D01*
X122650833Y-109289823D01*
X122650000Y-109281360D01*
X122650000Y-109018640D01*
X122650833Y-109010177D01*
X122651509Y-109007949D01*
X122652608Y-109005894D01*
X122654087Y-109004092D01*
X122663185Y-108996625D01*
X122680511Y-108979297D01*
X122694125Y-108958923D01*
X122703502Y-108936284D01*
X122708282Y-108912251D01*
X122708282Y-108887747D01*
X122703501Y-108863713D01*
X122694124Y-108841075D01*
X122680510Y-108820700D01*
X122663185Y-108803375D01*
X122654087Y-108795908D01*
X122652608Y-108794106D01*
X122651509Y-108792051D01*
X122650833Y-108789823D01*
X122650000Y-108781360D01*
X122650000Y-108518640D01*
X122650833Y-108510177D01*
X122651509Y-108507949D01*
X122652608Y-108505894D01*
X122654087Y-108504092D01*
X122663185Y-108496625D01*
X122680511Y-108479297D01*
X122694125Y-108458923D01*
X122703502Y-108436284D01*
X122708282Y-108412251D01*
X122708282Y-108387747D01*
X122703501Y-108363713D01*
X122694124Y-108341075D01*
X122680510Y-108320700D01*
X122663185Y-108303375D01*
X122654087Y-108295908D01*
X122652608Y-108294106D01*
X122651509Y-108292051D01*
X122650833Y-108289823D01*
X122650000Y-108281360D01*
X122650000Y-108018640D01*
X122650833Y-108010177D01*
X122651509Y-108007949D01*
X122652608Y-108005894D01*
X122654087Y-108004092D01*
X122663185Y-107996625D01*
X122680511Y-107979297D01*
X122694125Y-107958923D01*
X122703502Y-107936284D01*
X122708282Y-107912251D01*
X122708282Y-107887747D01*
X122703501Y-107863713D01*
X122694124Y-107841075D01*
X122680510Y-107820700D01*
X122663185Y-107803375D01*
X122654087Y-107795908D01*
X122652608Y-107794106D01*
X122651509Y-107792051D01*
X122650833Y-107789823D01*
X122650000Y-107781360D01*
X122650000Y-107518640D01*
X122650833Y-107510177D01*
X122651509Y-107507949D01*
X122652608Y-107505894D01*
X122654087Y-107504092D01*
X122663185Y-107496625D01*
X122680511Y-107479297D01*
X122694125Y-107458923D01*
X122703502Y-107436284D01*
X122708282Y-107412251D01*
X122708282Y-107387747D01*
X122703501Y-107363713D01*
X122694124Y-107341075D01*
X122680510Y-107320700D01*
X122663185Y-107303375D01*
X122654087Y-107295908D01*
X122652608Y-107294106D01*
X122651509Y-107292051D01*
X122650833Y-107289823D01*
X122650000Y-107281360D01*
X122650000Y-107018640D01*
X122650833Y-107010177D01*
X122651509Y-107007949D01*
X122652608Y-107005894D01*
X122654087Y-107004092D01*
X122663185Y-106996625D01*
X122680511Y-106979297D01*
X122694125Y-106958923D01*
X122703502Y-106936284D01*
X122708282Y-106912251D01*
X122708282Y-106887747D01*
X122703501Y-106863713D01*
X122694124Y-106841075D01*
X122680510Y-106820700D01*
X122663185Y-106803375D01*
X122654087Y-106795908D01*
X122652608Y-106794106D01*
X122651509Y-106792051D01*
X122650833Y-106789823D01*
X122650000Y-106781360D01*
X122650000Y-106518640D01*
X122650833Y-106510177D01*
X122651509Y-106507949D01*
X122652608Y-106505894D01*
X122654089Y-106504089D01*
X122655894Y-106502608D01*
X122657949Y-106501509D01*
X122660177Y-106500833D01*
X122668640Y-106500000D01*
X124181360Y-106500000D01*
X124189823Y-106500833D01*
G37*
G36*
X135539823Y-106500833D02*
G01*
X135542051Y-106501509D01*
X135544106Y-106502608D01*
X135545911Y-106504089D01*
X135547392Y-106505894D01*
X135548491Y-106507949D01*
X135549167Y-106510177D01*
X135550000Y-106518640D01*
X135550000Y-106781360D01*
X135549167Y-106789823D01*
X135548491Y-106792051D01*
X135547392Y-106794106D01*
X135545913Y-106795908D01*
X135536815Y-106803375D01*
X135519489Y-106820703D01*
X135505875Y-106841077D01*
X135496498Y-106863716D01*
X135491718Y-106887749D01*
X135491718Y-106912253D01*
X135496499Y-106936287D01*
X135505876Y-106958925D01*
X135519490Y-106979300D01*
X135536815Y-106996625D01*
X135545913Y-107004092D01*
X135547392Y-107005894D01*
X135548491Y-107007949D01*
X135549167Y-107010177D01*
X135550000Y-107018640D01*
X135550000Y-107281360D01*
X135549167Y-107289823D01*
X135548491Y-107292051D01*
X135547392Y-107294106D01*
X135545913Y-107295908D01*
X135536815Y-107303375D01*
X135519489Y-107320703D01*
X135505875Y-107341077D01*
X135496498Y-107363716D01*
X135491718Y-107387749D01*
X135491718Y-107412253D01*
X135496499Y-107436287D01*
X135505876Y-107458925D01*
X135519490Y-107479300D01*
X135536815Y-107496625D01*
X135545913Y-107504092D01*
X135547392Y-107505894D01*
X135548491Y-107507949D01*
X135549167Y-107510177D01*
X135550000Y-107518640D01*
X135550000Y-107781360D01*
X135549167Y-107789823D01*
X135548491Y-107792051D01*
X135547392Y-107794106D01*
X135545913Y-107795908D01*
X135536815Y-107803375D01*
X135519489Y-107820703D01*
X135505875Y-107841077D01*
X135496498Y-107863716D01*
X135491718Y-107887749D01*
X135491718Y-107912253D01*
X135496499Y-107936287D01*
X135505876Y-107958925D01*
X135519490Y-107979300D01*
X135536815Y-107996625D01*
X135545913Y-108004092D01*
X135547392Y-108005894D01*
X135548491Y-108007949D01*
X135549167Y-108010177D01*
X135550000Y-108018640D01*
X135550000Y-108281360D01*
X135549167Y-108289823D01*
X135548491Y-108292051D01*
X135547392Y-108294106D01*
X135545913Y-108295908D01*
X135536815Y-108303375D01*
X135519489Y-108320703D01*
X135505875Y-108341077D01*
X135496498Y-108363716D01*
X135491718Y-108387749D01*
X135491718Y-108412253D01*
X135496499Y-108436287D01*
X135505876Y-108458925D01*
X135519490Y-108479300D01*
X135536815Y-108496625D01*
X135545913Y-108504092D01*
X135547392Y-108505894D01*
X135548491Y-108507949D01*
X135549167Y-108510177D01*
X135550000Y-108518640D01*
X135550000Y-108781360D01*
X135549167Y-108789823D01*
X135548491Y-108792051D01*
X135547392Y-108794106D01*
X135545913Y-108795908D01*
X135536815Y-108803375D01*
X135519489Y-108820703D01*
X135505875Y-108841077D01*
X135496498Y-108863716D01*
X135491718Y-108887749D01*
X135491718Y-108912253D01*
X135496499Y-108936287D01*
X135505876Y-108958925D01*
X135519490Y-108979300D01*
X135536815Y-108996625D01*
X135545913Y-109004092D01*
X135547392Y-109005894D01*
X135548491Y-109007949D01*
X135549167Y-109010177D01*
X135550000Y-109018640D01*
X135550000Y-109281360D01*
X135549167Y-109289823D01*
X135548491Y-109292051D01*
X135547392Y-109294106D01*
X135545913Y-109295908D01*
X135536815Y-109303375D01*
X135519489Y-109320703D01*
X135505875Y-109341077D01*
X135496498Y-109363716D01*
X135491718Y-109387749D01*
X135491718Y-109412253D01*
X135496499Y-109436287D01*
X135505876Y-109458925D01*
X135519490Y-109479300D01*
X135536815Y-109496625D01*
X135545913Y-109504092D01*
X135547392Y-109505894D01*
X135548491Y-109507949D01*
X135549167Y-109510177D01*
X135550000Y-109518640D01*
X135550000Y-109781360D01*
X135549167Y-109789823D01*
X135548491Y-109792051D01*
X135547392Y-109794106D01*
X135545913Y-109795908D01*
X135536815Y-109803375D01*
X135519489Y-109820703D01*
X135505875Y-109841077D01*
X135496498Y-109863716D01*
X135491718Y-109887749D01*
X135491718Y-109912253D01*
X135496499Y-109936287D01*
X135505876Y-109958925D01*
X135519490Y-109979300D01*
X135536815Y-109996625D01*
X135545913Y-110004092D01*
X135547392Y-110005894D01*
X135548491Y-110007949D01*
X135549167Y-110010177D01*
X135550000Y-110018640D01*
X135550000Y-110281360D01*
X135549167Y-110289823D01*
X135548491Y-110292051D01*
X135547392Y-110294106D01*
X135545913Y-110295908D01*
X135536815Y-110303375D01*
X135519489Y-110320703D01*
X135505875Y-110341077D01*
X135496498Y-110363716D01*
X135491718Y-110387749D01*
X135491718Y-110412253D01*
X135496499Y-110436287D01*
X135505876Y-110458925D01*
X135519490Y-110479300D01*
X135536815Y-110496625D01*
X135545913Y-110504092D01*
X135547392Y-110505894D01*
X135548491Y-110507949D01*
X135549167Y-110510177D01*
X135550000Y-110518640D01*
X135550000Y-110781360D01*
X135549167Y-110789823D01*
X135548491Y-110792051D01*
X135547392Y-110794106D01*
X135545913Y-110795908D01*
X135536815Y-110803375D01*
X135519489Y-110820703D01*
X135505875Y-110841077D01*
X135496498Y-110863716D01*
X135491718Y-110887749D01*
X135491718Y-110912253D01*
X135496499Y-110936287D01*
X135505876Y-110958925D01*
X135519490Y-110979300D01*
X135536815Y-110996625D01*
X135545913Y-111004092D01*
X135547392Y-111005894D01*
X135548491Y-111007949D01*
X135549167Y-111010177D01*
X135550000Y-111018640D01*
X135550000Y-111281360D01*
X135549167Y-111289823D01*
X135548491Y-111292051D01*
X135547392Y-111294106D01*
X135545913Y-111295908D01*
X135536815Y-111303375D01*
X135519489Y-111320703D01*
X135505875Y-111341077D01*
X135496498Y-111363716D01*
X135491718Y-111387749D01*
X135491718Y-111412253D01*
X135496499Y-111436287D01*
X135505876Y-111458925D01*
X135519490Y-111479300D01*
X135536815Y-111496625D01*
X135545913Y-111504092D01*
X135547392Y-111505894D01*
X135548491Y-111507949D01*
X135549167Y-111510177D01*
X135550000Y-111518640D01*
X135550000Y-111781360D01*
X135549167Y-111789823D01*
X135548491Y-111792051D01*
X135547392Y-111794106D01*
X135545913Y-111795908D01*
X135536815Y-111803375D01*
X135519489Y-111820703D01*
X135505875Y-111841077D01*
X135496498Y-111863716D01*
X135491718Y-111887749D01*
X135491718Y-111912253D01*
X135496499Y-111936287D01*
X135505876Y-111958925D01*
X135519490Y-111979300D01*
X135536815Y-111996625D01*
X135545913Y-112004092D01*
X135547392Y-112005894D01*
X135548491Y-112007949D01*
X135549167Y-112010177D01*
X135550000Y-112018640D01*
X135550000Y-112281360D01*
X135549167Y-112289823D01*
X135548491Y-112292051D01*
X135547392Y-112294106D01*
X135545913Y-112295908D01*
X135536815Y-112303375D01*
X135519489Y-112320703D01*
X135505875Y-112341077D01*
X135496498Y-112363716D01*
X135491718Y-112387749D01*
X135491718Y-112412253D01*
X135496499Y-112436287D01*
X135505876Y-112458925D01*
X135519490Y-112479300D01*
X135536815Y-112496625D01*
X135545913Y-112504092D01*
X135547392Y-112505894D01*
X135548491Y-112507949D01*
X135549167Y-112510177D01*
X135550000Y-112518640D01*
X135550000Y-112781360D01*
X135549167Y-112789823D01*
X135548491Y-112792051D01*
X135547392Y-112794106D01*
X135545913Y-112795908D01*
X135536815Y-112803375D01*
X135519489Y-112820703D01*
X135505875Y-112841077D01*
X135496498Y-112863716D01*
X135491718Y-112887749D01*
X135491718Y-112912253D01*
X135496499Y-112936287D01*
X135505876Y-112958925D01*
X135519490Y-112979300D01*
X135536815Y-112996625D01*
X135545913Y-113004092D01*
X135547392Y-113005894D01*
X135548491Y-113007949D01*
X135549167Y-113010177D01*
X135550000Y-113018640D01*
X135550000Y-113281360D01*
X135549167Y-113289823D01*
X135548491Y-113292051D01*
X135547392Y-113294106D01*
X135545913Y-113295908D01*
X135536815Y-113303375D01*
X135519489Y-113320703D01*
X135505875Y-113341077D01*
X135496498Y-113363716D01*
X135491718Y-113387749D01*
X135491718Y-113412253D01*
X135496499Y-113436287D01*
X135505876Y-113458925D01*
X135519490Y-113479300D01*
X135536815Y-113496625D01*
X135545913Y-113504092D01*
X135547392Y-113505894D01*
X135548491Y-113507949D01*
X135549167Y-113510177D01*
X135550000Y-113518640D01*
X135550000Y-113781360D01*
X135549167Y-113789823D01*
X135548491Y-113792051D01*
X135547392Y-113794106D01*
X135545913Y-113795908D01*
X135536815Y-113803375D01*
X135519489Y-113820703D01*
X135505875Y-113841077D01*
X135496498Y-113863716D01*
X135491718Y-113887749D01*
X135491718Y-113912253D01*
X135496499Y-113936287D01*
X135505876Y-113958925D01*
X135519490Y-113979300D01*
X135536815Y-113996625D01*
X135545913Y-114004092D01*
X135547392Y-114005894D01*
X135548491Y-114007949D01*
X135549167Y-114010177D01*
X135550000Y-114018640D01*
X135550000Y-114281360D01*
X135549167Y-114289823D01*
X135548491Y-114292051D01*
X135547392Y-114294106D01*
X135545911Y-114295911D01*
X135544106Y-114297392D01*
X135542051Y-114298491D01*
X135539823Y-114299167D01*
X135531360Y-114300000D01*
X134018640Y-114300000D01*
X134010177Y-114299167D01*
X134007949Y-114298491D01*
X134005894Y-114297392D01*
X134004089Y-114295911D01*
X134002608Y-114294106D01*
X134001509Y-114292051D01*
X134000833Y-114289823D01*
X134000000Y-114281360D01*
X134000000Y-114018640D01*
X134000833Y-114010177D01*
X134001509Y-114007949D01*
X134002608Y-114005894D01*
X134004087Y-114004092D01*
X134013185Y-113996625D01*
X134030511Y-113979297D01*
X134044125Y-113958923D01*
X134053502Y-113936284D01*
X134058282Y-113912251D01*
X134058282Y-113887747D01*
X134053501Y-113863713D01*
X134044124Y-113841075D01*
X134030510Y-113820700D01*
X134013185Y-113803375D01*
X134004087Y-113795908D01*
X134002608Y-113794106D01*
X134001509Y-113792051D01*
X134000833Y-113789823D01*
X134000000Y-113781360D01*
X134000000Y-113518640D01*
X134000833Y-113510177D01*
X134001509Y-113507949D01*
X134002608Y-113505894D01*
X134004087Y-113504092D01*
X134013185Y-113496625D01*
X134030511Y-113479297D01*
X134044125Y-113458923D01*
X134053502Y-113436284D01*
X134058282Y-113412251D01*
X134058282Y-113387747D01*
X134053501Y-113363713D01*
X134044124Y-113341075D01*
X134030510Y-113320700D01*
X134013185Y-113303375D01*
X134004087Y-113295908D01*
X134002608Y-113294106D01*
X134001509Y-113292051D01*
X134000833Y-113289823D01*
X134000000Y-113281360D01*
X134000000Y-113018640D01*
X134000833Y-113010177D01*
X134001509Y-113007949D01*
X134002608Y-113005894D01*
X134004087Y-113004092D01*
X134013185Y-112996625D01*
X134030511Y-112979297D01*
X134044125Y-112958923D01*
X134053502Y-112936284D01*
X134058282Y-112912251D01*
X134058282Y-112887747D01*
X134053501Y-112863713D01*
X134044124Y-112841075D01*
X134030510Y-112820700D01*
X134013185Y-112803375D01*
X134004087Y-112795908D01*
X134002608Y-112794106D01*
X134001509Y-112792051D01*
X134000833Y-112789823D01*
X134000000Y-112781360D01*
X134000000Y-112518640D01*
X134000833Y-112510177D01*
X134001509Y-112507949D01*
X134002608Y-112505894D01*
X134004087Y-112504092D01*
X134013185Y-112496625D01*
X134030511Y-112479297D01*
X134044125Y-112458923D01*
X134053502Y-112436284D01*
X134058282Y-112412251D01*
X134058282Y-112387747D01*
X134053501Y-112363713D01*
X134044124Y-112341075D01*
X134030510Y-112320700D01*
X134013185Y-112303375D01*
X134004087Y-112295908D01*
X134002608Y-112294106D01*
X134001509Y-112292051D01*
X134000833Y-112289823D01*
X134000000Y-112281360D01*
X134000000Y-112018640D01*
X134000833Y-112010177D01*
X134001509Y-112007949D01*
X134002608Y-112005894D01*
X134004087Y-112004092D01*
X134013185Y-111996625D01*
X134030511Y-111979297D01*
X134044125Y-111958923D01*
X134053502Y-111936284D01*
X134058282Y-111912251D01*
X134058282Y-111887747D01*
X134053501Y-111863713D01*
X134044124Y-111841075D01*
X134030510Y-111820700D01*
X134013185Y-111803375D01*
X134004087Y-111795908D01*
X134002608Y-111794106D01*
X134001509Y-111792051D01*
X134000833Y-111789823D01*
X134000000Y-111781360D01*
X134000000Y-111518640D01*
X134000833Y-111510177D01*
X134001509Y-111507949D01*
X134002608Y-111505894D01*
X134004087Y-111504092D01*
X134013185Y-111496625D01*
X134030511Y-111479297D01*
X134044125Y-111458923D01*
X134053502Y-111436284D01*
X134058282Y-111412251D01*
X134058282Y-111387747D01*
X134053501Y-111363713D01*
X134044124Y-111341075D01*
X134030510Y-111320700D01*
X134013185Y-111303375D01*
X134004087Y-111295908D01*
X134002608Y-111294106D01*
X134001509Y-111292051D01*
X134000833Y-111289823D01*
X134000000Y-111281360D01*
X134000000Y-111018640D01*
X134000833Y-111010177D01*
X134001509Y-111007949D01*
X134002608Y-111005894D01*
X134004087Y-111004092D01*
X134013185Y-110996625D01*
X134030511Y-110979297D01*
X134044125Y-110958923D01*
X134053502Y-110936284D01*
X134058282Y-110912251D01*
X134058282Y-110887747D01*
X134053501Y-110863713D01*
X134044124Y-110841075D01*
X134030510Y-110820700D01*
X134013185Y-110803375D01*
X134004087Y-110795908D01*
X134002608Y-110794106D01*
X134001509Y-110792051D01*
X134000833Y-110789823D01*
X134000000Y-110781360D01*
X134000000Y-110518640D01*
X134000833Y-110510177D01*
X134001509Y-110507949D01*
X134002608Y-110505894D01*
X134004087Y-110504092D01*
X134013185Y-110496625D01*
X134030511Y-110479297D01*
X134044125Y-110458923D01*
X134053502Y-110436284D01*
X134058282Y-110412251D01*
X134058282Y-110387747D01*
X134053501Y-110363713D01*
X134044124Y-110341075D01*
X134030510Y-110320700D01*
X134013185Y-110303375D01*
X134004087Y-110295908D01*
X134002608Y-110294106D01*
X134001509Y-110292051D01*
X134000833Y-110289823D01*
X134000000Y-110281360D01*
X134000000Y-110018640D01*
X134000833Y-110010177D01*
X134001509Y-110007949D01*
X134002608Y-110005894D01*
X134004087Y-110004092D01*
X134013185Y-109996625D01*
X134030511Y-109979297D01*
X134044125Y-109958923D01*
X134053502Y-109936284D01*
X134058282Y-109912251D01*
X134058282Y-109887747D01*
X134053501Y-109863713D01*
X134044124Y-109841075D01*
X134030510Y-109820700D01*
X134013185Y-109803375D01*
X134004087Y-109795908D01*
X134002608Y-109794106D01*
X134001509Y-109792051D01*
X134000833Y-109789823D01*
X134000000Y-109781360D01*
X134000000Y-109518640D01*
X134000833Y-109510177D01*
X134001509Y-109507949D01*
X134002608Y-109505894D01*
X134004087Y-109504092D01*
X134013185Y-109496625D01*
X134030511Y-109479297D01*
X134044125Y-109458923D01*
X134053502Y-109436284D01*
X134058282Y-109412251D01*
X134058282Y-109387747D01*
X134053501Y-109363713D01*
X134044124Y-109341075D01*
X134030510Y-109320700D01*
X134013185Y-109303375D01*
X134004087Y-109295908D01*
X134002608Y-109294106D01*
X134001509Y-109292051D01*
X134000833Y-109289823D01*
X134000000Y-109281360D01*
X134000000Y-109018640D01*
X134000833Y-109010177D01*
X134001509Y-109007949D01*
X134002608Y-109005894D01*
X134004087Y-109004092D01*
X134013185Y-108996625D01*
X134030511Y-108979297D01*
X134044125Y-108958923D01*
X134053502Y-108936284D01*
X134058282Y-108912251D01*
X134058282Y-108887747D01*
X134053501Y-108863713D01*
X134044124Y-108841075D01*
X134030510Y-108820700D01*
X134013185Y-108803375D01*
X134004087Y-108795908D01*
X134002608Y-108794106D01*
X134001509Y-108792051D01*
X134000833Y-108789823D01*
X134000000Y-108781360D01*
X134000000Y-108518640D01*
X134000833Y-108510177D01*
X134001509Y-108507949D01*
X134002608Y-108505894D01*
X134004087Y-108504092D01*
X134013185Y-108496625D01*
X134030511Y-108479297D01*
X134044125Y-108458923D01*
X134053502Y-108436284D01*
X134058282Y-108412251D01*
X134058282Y-108387747D01*
X134053501Y-108363713D01*
X134044124Y-108341075D01*
X134030510Y-108320700D01*
X134013185Y-108303375D01*
X134004087Y-108295908D01*
X134002608Y-108294106D01*
X134001509Y-108292051D01*
X134000833Y-108289823D01*
X134000000Y-108281360D01*
X134000000Y-108018640D01*
X134000833Y-108010177D01*
X134001509Y-108007949D01*
X134002608Y-108005894D01*
X134004087Y-108004092D01*
X134013185Y-107996625D01*
X134030511Y-107979297D01*
X134044125Y-107958923D01*
X134053502Y-107936284D01*
X134058282Y-107912251D01*
X134058282Y-107887747D01*
X134053501Y-107863713D01*
X134044124Y-107841075D01*
X134030510Y-107820700D01*
X134013185Y-107803375D01*
X134004087Y-107795908D01*
X134002608Y-107794106D01*
X134001509Y-107792051D01*
X134000833Y-107789823D01*
X134000000Y-107781360D01*
X134000000Y-107518640D01*
X134000833Y-107510177D01*
X134001509Y-107507949D01*
X134002608Y-107505894D01*
X134004087Y-107504092D01*
X134013185Y-107496625D01*
X134030511Y-107479297D01*
X134044125Y-107458923D01*
X134053502Y-107436284D01*
X134058282Y-107412251D01*
X134058282Y-107387747D01*
X134053501Y-107363713D01*
X134044124Y-107341075D01*
X134030510Y-107320700D01*
X134013185Y-107303375D01*
X134004087Y-107295908D01*
X134002608Y-107294106D01*
X134001509Y-107292051D01*
X134000833Y-107289823D01*
X134000000Y-107281360D01*
X134000000Y-107018640D01*
X134000833Y-107010177D01*
X134001509Y-107007949D01*
X134002608Y-107005894D01*
X134004087Y-107004092D01*
X134013185Y-106996625D01*
X134030511Y-106979297D01*
X134044125Y-106958923D01*
X134053502Y-106936284D01*
X134058282Y-106912251D01*
X134058282Y-106887747D01*
X134053501Y-106863713D01*
X134044124Y-106841075D01*
X134030510Y-106820700D01*
X134013185Y-106803375D01*
X134004087Y-106795908D01*
X134002608Y-106794106D01*
X134001509Y-106792051D01*
X134000833Y-106789823D01*
X134000000Y-106781360D01*
X134000000Y-106518640D01*
X134000833Y-106510177D01*
X134001509Y-106507949D01*
X134002608Y-106505894D01*
X134004089Y-106504089D01*
X134005894Y-106502608D01*
X134007949Y-106501509D01*
X134010177Y-106500833D01*
X134018640Y-106500000D01*
X135531360Y-106500000D01*
X135539823Y-106500833D01*
G37*
G36*
X120700000Y-113325000D02*
G01*
X119200000Y-113325000D01*
X119200000Y-112075000D01*
X120700000Y-112075000D01*
X120700000Y-113325000D01*
G37*
G36*
X118200000Y-113325000D02*
G01*
X116700000Y-113325000D01*
X116700000Y-112075000D01*
X118200000Y-112075000D01*
X118200000Y-113325000D01*
G37*
G36*
X120775000Y-108050000D02*
G01*
X120025000Y-108050000D01*
X120025000Y-106850000D01*
X120775000Y-106850000D01*
X120775000Y-108050000D01*
G37*
G36*
X120775000Y-106150000D02*
G01*
X120025000Y-106150000D01*
X120025000Y-104950000D01*
X120775000Y-104950000D01*
X120775000Y-106150000D01*
G37*
G36*
X138200000Y-105825000D02*
G01*
X136700000Y-105825000D01*
X136700000Y-104575000D01*
X138200000Y-104575000D01*
X138200000Y-105825000D01*
G37*
G36*
X140700000Y-105825000D02*
G01*
X139200000Y-105825000D01*
X139200000Y-104575000D01*
X140700000Y-104575000D01*
X140700000Y-105825000D01*
G37*
G36*
X125489823Y-103950833D02*
G01*
X125492051Y-103951509D01*
X125494106Y-103952608D01*
X125495908Y-103954087D01*
X125503375Y-103963185D01*
X125520703Y-103980511D01*
X125541077Y-103994125D01*
X125563716Y-104003502D01*
X125587749Y-104008282D01*
X125612253Y-104008282D01*
X125636287Y-104003501D01*
X125658925Y-103994124D01*
X125679300Y-103980510D01*
X125696625Y-103963185D01*
X125704092Y-103954087D01*
X125705894Y-103952608D01*
X125707949Y-103951509D01*
X125710177Y-103950833D01*
X125718640Y-103950000D01*
X125981360Y-103950000D01*
X125989823Y-103950833D01*
X125992051Y-103951509D01*
X125994106Y-103952608D01*
X125995908Y-103954087D01*
X126003375Y-103963185D01*
X126020703Y-103980511D01*
X126041077Y-103994125D01*
X126063716Y-104003502D01*
X126087749Y-104008282D01*
X126112253Y-104008282D01*
X126136287Y-104003501D01*
X126158925Y-103994124D01*
X126179300Y-103980510D01*
X126196625Y-103963185D01*
X126204092Y-103954087D01*
X126205894Y-103952608D01*
X126207949Y-103951509D01*
X126210177Y-103950833D01*
X126218640Y-103950000D01*
X126481360Y-103950000D01*
X126489823Y-103950833D01*
X126492051Y-103951509D01*
X126494106Y-103952608D01*
X126495908Y-103954087D01*
X126503375Y-103963185D01*
X126520703Y-103980511D01*
X126541077Y-103994125D01*
X126563716Y-104003502D01*
X126587749Y-104008282D01*
X126612253Y-104008282D01*
X126636287Y-104003501D01*
X126658925Y-103994124D01*
X126679300Y-103980510D01*
X126696625Y-103963185D01*
X126704092Y-103954087D01*
X126705894Y-103952608D01*
X126707949Y-103951509D01*
X126710177Y-103950833D01*
X126718640Y-103950000D01*
X126981360Y-103950000D01*
X126989823Y-103950833D01*
X126992051Y-103951509D01*
X126994106Y-103952608D01*
X126995908Y-103954087D01*
X127003375Y-103963185D01*
X127020703Y-103980511D01*
X127041077Y-103994125D01*
X127063716Y-104003502D01*
X127087749Y-104008282D01*
X127112253Y-104008282D01*
X127136287Y-104003501D01*
X127158925Y-103994124D01*
X127179300Y-103980510D01*
X127196625Y-103963185D01*
X127204092Y-103954087D01*
X127205894Y-103952608D01*
X127207949Y-103951509D01*
X127210177Y-103950833D01*
X127218640Y-103950000D01*
X127481360Y-103950000D01*
X127489823Y-103950833D01*
X127492051Y-103951509D01*
X127494106Y-103952608D01*
X127495908Y-103954087D01*
X127503375Y-103963185D01*
X127520703Y-103980511D01*
X127541077Y-103994125D01*
X127563716Y-104003502D01*
X127587749Y-104008282D01*
X127612253Y-104008282D01*
X127636287Y-104003501D01*
X127658925Y-103994124D01*
X127679300Y-103980510D01*
X127696625Y-103963185D01*
X127704092Y-103954087D01*
X127705894Y-103952608D01*
X127707949Y-103951509D01*
X127710177Y-103950833D01*
X127718640Y-103950000D01*
X127981360Y-103950000D01*
X127989823Y-103950833D01*
X127992051Y-103951509D01*
X127994106Y-103952608D01*
X127995908Y-103954087D01*
X128003375Y-103963185D01*
X128020703Y-103980511D01*
X128041077Y-103994125D01*
X128063716Y-104003502D01*
X128087749Y-104008282D01*
X128112253Y-104008282D01*
X128136287Y-104003501D01*
X128158925Y-103994124D01*
X128179300Y-103980510D01*
X128196625Y-103963185D01*
X128204092Y-103954087D01*
X128205894Y-103952608D01*
X128207949Y-103951509D01*
X128210177Y-103950833D01*
X128218640Y-103950000D01*
X128481360Y-103950000D01*
X128489823Y-103950833D01*
X128492051Y-103951509D01*
X128494106Y-103952608D01*
X128495908Y-103954087D01*
X128503375Y-103963185D01*
X128520703Y-103980511D01*
X128541077Y-103994125D01*
X128563716Y-104003502D01*
X128587749Y-104008282D01*
X128612253Y-104008282D01*
X128636287Y-104003501D01*
X128658925Y-103994124D01*
X128679300Y-103980510D01*
X128696625Y-103963185D01*
X128704092Y-103954087D01*
X128705894Y-103952608D01*
X128707949Y-103951509D01*
X128710177Y-103950833D01*
X128718640Y-103950000D01*
X128981360Y-103950000D01*
X128989823Y-103950833D01*
X128992051Y-103951509D01*
X128994106Y-103952608D01*
X128995908Y-103954087D01*
X129003375Y-103963185D01*
X129020703Y-103980511D01*
X129041077Y-103994125D01*
X129063716Y-104003502D01*
X129087749Y-104008282D01*
X129112253Y-104008282D01*
X129136287Y-104003501D01*
X129158925Y-103994124D01*
X129179300Y-103980510D01*
X129196625Y-103963185D01*
X129204092Y-103954087D01*
X129205894Y-103952608D01*
X129207949Y-103951509D01*
X129210177Y-103950833D01*
X129218640Y-103950000D01*
X129481360Y-103950000D01*
X129489823Y-103950833D01*
X129492051Y-103951509D01*
X129494106Y-103952608D01*
X129495908Y-103954087D01*
X129503375Y-103963185D01*
X129520703Y-103980511D01*
X129541077Y-103994125D01*
X129563716Y-104003502D01*
X129587749Y-104008282D01*
X129612253Y-104008282D01*
X129636287Y-104003501D01*
X129658925Y-103994124D01*
X129679300Y-103980510D01*
X129696625Y-103963185D01*
X129704092Y-103954087D01*
X129705894Y-103952608D01*
X129707949Y-103951509D01*
X129710177Y-103950833D01*
X129718640Y-103950000D01*
X129981360Y-103950000D01*
X129989823Y-103950833D01*
X129992051Y-103951509D01*
X129994106Y-103952608D01*
X129995908Y-103954087D01*
X130003375Y-103963185D01*
X130020703Y-103980511D01*
X130041077Y-103994125D01*
X130063716Y-104003502D01*
X130087749Y-104008282D01*
X130112253Y-104008282D01*
X130136287Y-104003501D01*
X130158925Y-103994124D01*
X130179300Y-103980510D01*
X130196625Y-103963185D01*
X130204092Y-103954087D01*
X130205894Y-103952608D01*
X130207949Y-103951509D01*
X130210177Y-103950833D01*
X130218640Y-103950000D01*
X130481360Y-103950000D01*
X130489823Y-103950833D01*
X130492051Y-103951509D01*
X130494106Y-103952608D01*
X130495908Y-103954087D01*
X130503375Y-103963185D01*
X130520703Y-103980511D01*
X130541077Y-103994125D01*
X130563716Y-104003502D01*
X130587749Y-104008282D01*
X130612253Y-104008282D01*
X130636287Y-104003501D01*
X130658925Y-103994124D01*
X130679300Y-103980510D01*
X130696625Y-103963185D01*
X130704092Y-103954087D01*
X130705894Y-103952608D01*
X130707949Y-103951509D01*
X130710177Y-103950833D01*
X130718640Y-103950000D01*
X130981360Y-103950000D01*
X130989823Y-103950833D01*
X130992051Y-103951509D01*
X130994106Y-103952608D01*
X130995908Y-103954087D01*
X131003375Y-103963185D01*
X131020703Y-103980511D01*
X131041077Y-103994125D01*
X131063716Y-104003502D01*
X131087749Y-104008282D01*
X131112253Y-104008282D01*
X131136287Y-104003501D01*
X131158925Y-103994124D01*
X131179300Y-103980510D01*
X131196625Y-103963185D01*
X131204092Y-103954087D01*
X131205894Y-103952608D01*
X131207949Y-103951509D01*
X131210177Y-103950833D01*
X131218640Y-103950000D01*
X131481360Y-103950000D01*
X131489823Y-103950833D01*
X131492051Y-103951509D01*
X131494106Y-103952608D01*
X131495908Y-103954087D01*
X131503375Y-103963185D01*
X131520703Y-103980511D01*
X131541077Y-103994125D01*
X131563716Y-104003502D01*
X131587749Y-104008282D01*
X131612253Y-104008282D01*
X131636287Y-104003501D01*
X131658925Y-103994124D01*
X131679300Y-103980510D01*
X131696625Y-103963185D01*
X131704092Y-103954087D01*
X131705894Y-103952608D01*
X131707949Y-103951509D01*
X131710177Y-103950833D01*
X131718640Y-103950000D01*
X131981360Y-103950000D01*
X131989823Y-103950833D01*
X131992051Y-103951509D01*
X131994106Y-103952608D01*
X131995908Y-103954087D01*
X132003375Y-103963185D01*
X132020703Y-103980511D01*
X132041077Y-103994125D01*
X132063716Y-104003502D01*
X132087749Y-104008282D01*
X132112253Y-104008282D01*
X132136287Y-104003501D01*
X132158925Y-103994124D01*
X132179300Y-103980510D01*
X132196625Y-103963185D01*
X132204092Y-103954087D01*
X132205894Y-103952608D01*
X132207949Y-103951509D01*
X132210177Y-103950833D01*
X132218640Y-103950000D01*
X132481360Y-103950000D01*
X132489823Y-103950833D01*
X132492051Y-103951509D01*
X132494106Y-103952608D01*
X132495908Y-103954087D01*
X132503375Y-103963185D01*
X132520703Y-103980511D01*
X132541077Y-103994125D01*
X132563716Y-104003502D01*
X132587749Y-104008282D01*
X132612253Y-104008282D01*
X132636287Y-104003501D01*
X132658925Y-103994124D01*
X132679300Y-103980510D01*
X132696625Y-103963185D01*
X132704092Y-103954087D01*
X132705894Y-103952608D01*
X132707949Y-103951509D01*
X132710177Y-103950833D01*
X132718640Y-103950000D01*
X132981360Y-103950000D01*
X132989823Y-103950833D01*
X132992051Y-103951509D01*
X132994106Y-103952608D01*
X132995911Y-103954089D01*
X132997392Y-103955894D01*
X132998491Y-103957949D01*
X132999167Y-103960177D01*
X133000000Y-103968640D01*
X133000000Y-105481360D01*
X132999167Y-105489823D01*
X132998491Y-105492051D01*
X132997392Y-105494106D01*
X132995911Y-105495911D01*
X132994106Y-105497392D01*
X132992051Y-105498491D01*
X132989823Y-105499167D01*
X132981360Y-105500000D01*
X132718640Y-105500000D01*
X132710177Y-105499167D01*
X132707949Y-105498491D01*
X132705894Y-105497392D01*
X132704092Y-105495913D01*
X132696625Y-105486815D01*
X132679297Y-105469489D01*
X132658923Y-105455875D01*
X132636284Y-105446498D01*
X132612251Y-105441718D01*
X132587747Y-105441718D01*
X132563713Y-105446499D01*
X132541075Y-105455876D01*
X132520700Y-105469490D01*
X132503375Y-105486815D01*
X132495908Y-105495913D01*
X132494106Y-105497392D01*
X132492051Y-105498491D01*
X132489823Y-105499167D01*
X132481360Y-105500000D01*
X132218640Y-105500000D01*
X132210177Y-105499167D01*
X132207949Y-105498491D01*
X132205894Y-105497392D01*
X132204092Y-105495913D01*
X132196625Y-105486815D01*
X132179297Y-105469489D01*
X132158923Y-105455875D01*
X132136284Y-105446498D01*
X132112251Y-105441718D01*
X132087747Y-105441718D01*
X132063713Y-105446499D01*
X132041075Y-105455876D01*
X132020700Y-105469490D01*
X132003375Y-105486815D01*
X131995908Y-105495913D01*
X131994106Y-105497392D01*
X131992051Y-105498491D01*
X131989823Y-105499167D01*
X131981360Y-105500000D01*
X131718640Y-105500000D01*
X131710177Y-105499167D01*
X131707949Y-105498491D01*
X131705894Y-105497392D01*
X131704092Y-105495913D01*
X131696625Y-105486815D01*
X131679297Y-105469489D01*
X131658923Y-105455875D01*
X131636284Y-105446498D01*
X131612251Y-105441718D01*
X131587747Y-105441718D01*
X131563713Y-105446499D01*
X131541075Y-105455876D01*
X131520700Y-105469490D01*
X131503375Y-105486815D01*
X131495908Y-105495913D01*
X131494106Y-105497392D01*
X131492051Y-105498491D01*
X131489823Y-105499167D01*
X131481360Y-105500000D01*
X131218640Y-105500000D01*
X131210177Y-105499167D01*
X131207949Y-105498491D01*
X131205894Y-105497392D01*
X131204092Y-105495913D01*
X131196625Y-105486815D01*
X131179297Y-105469489D01*
X131158923Y-105455875D01*
X131136284Y-105446498D01*
X131112251Y-105441718D01*
X131087747Y-105441718D01*
X131063713Y-105446499D01*
X131041075Y-105455876D01*
X131020700Y-105469490D01*
X131003375Y-105486815D01*
X130995908Y-105495913D01*
X130994106Y-105497392D01*
X130992051Y-105498491D01*
X130989823Y-105499167D01*
X130981360Y-105500000D01*
X130718640Y-105500000D01*
X130710177Y-105499167D01*
X130707949Y-105498491D01*
X130705894Y-105497392D01*
X130704092Y-105495913D01*
X130696625Y-105486815D01*
X130679297Y-105469489D01*
X130658923Y-105455875D01*
X130636284Y-105446498D01*
X130612251Y-105441718D01*
X130587747Y-105441718D01*
X130563713Y-105446499D01*
X130541075Y-105455876D01*
X130520700Y-105469490D01*
X130503375Y-105486815D01*
X130495908Y-105495913D01*
X130494106Y-105497392D01*
X130492051Y-105498491D01*
X130489823Y-105499167D01*
X130481360Y-105500000D01*
X130218640Y-105500000D01*
X130210177Y-105499167D01*
X130207949Y-105498491D01*
X130205894Y-105497392D01*
X130204092Y-105495913D01*
X130196625Y-105486815D01*
X130179297Y-105469489D01*
X130158923Y-105455875D01*
X130136284Y-105446498D01*
X130112251Y-105441718D01*
X130087747Y-105441718D01*
X130063713Y-105446499D01*
X130041075Y-105455876D01*
X130020700Y-105469490D01*
X130003375Y-105486815D01*
X129995908Y-105495913D01*
X129994106Y-105497392D01*
X129992051Y-105498491D01*
X129989823Y-105499167D01*
X129981360Y-105500000D01*
X129718640Y-105500000D01*
X129710177Y-105499167D01*
X129707949Y-105498491D01*
X129705894Y-105497392D01*
X129704092Y-105495913D01*
X129696625Y-105486815D01*
X129679297Y-105469489D01*
X129658923Y-105455875D01*
X129636284Y-105446498D01*
X129612251Y-105441718D01*
X129587747Y-105441718D01*
X129563713Y-105446499D01*
X129541075Y-105455876D01*
X129520700Y-105469490D01*
X129503375Y-105486815D01*
X129495908Y-105495913D01*
X129494106Y-105497392D01*
X129492051Y-105498491D01*
X129489823Y-105499167D01*
X129481360Y-105500000D01*
X129218640Y-105500000D01*
X129210177Y-105499167D01*
X129207949Y-105498491D01*
X129205894Y-105497392D01*
X129204092Y-105495913D01*
X129196625Y-105486815D01*
X129179297Y-105469489D01*
X129158923Y-105455875D01*
X129136284Y-105446498D01*
X129112251Y-105441718D01*
X129087747Y-105441718D01*
X129063713Y-105446499D01*
X129041075Y-105455876D01*
X129020700Y-105469490D01*
X129003375Y-105486815D01*
X128995908Y-105495913D01*
X128994106Y-105497392D01*
X128992051Y-105498491D01*
X128989823Y-105499167D01*
X128981360Y-105500000D01*
X128718640Y-105500000D01*
X128710177Y-105499167D01*
X128707949Y-105498491D01*
X128705894Y-105497392D01*
X128704092Y-105495913D01*
X128696625Y-105486815D01*
X128679297Y-105469489D01*
X128658923Y-105455875D01*
X128636284Y-105446498D01*
X128612251Y-105441718D01*
X128587747Y-105441718D01*
X128563713Y-105446499D01*
X128541075Y-105455876D01*
X128520700Y-105469490D01*
X128503375Y-105486815D01*
X128495908Y-105495913D01*
X128494106Y-105497392D01*
X128492051Y-105498491D01*
X128489823Y-105499167D01*
X128481360Y-105500000D01*
X128218640Y-105500000D01*
X128210177Y-105499167D01*
X128207949Y-105498491D01*
X128205894Y-105497392D01*
X128204092Y-105495913D01*
X128196625Y-105486815D01*
X128179297Y-105469489D01*
X128158923Y-105455875D01*
X128136284Y-105446498D01*
X128112251Y-105441718D01*
X128087747Y-105441718D01*
X128063713Y-105446499D01*
X128041075Y-105455876D01*
X128020700Y-105469490D01*
X128003375Y-105486815D01*
X127995908Y-105495913D01*
X127994106Y-105497392D01*
X127992051Y-105498491D01*
X127989823Y-105499167D01*
X127981360Y-105500000D01*
X127718640Y-105500000D01*
X127710177Y-105499167D01*
X127707949Y-105498491D01*
X127705894Y-105497392D01*
X127704092Y-105495913D01*
X127696625Y-105486815D01*
X127679297Y-105469489D01*
X127658923Y-105455875D01*
X127636284Y-105446498D01*
X127612251Y-105441718D01*
X127587747Y-105441718D01*
X127563713Y-105446499D01*
X127541075Y-105455876D01*
X127520700Y-105469490D01*
X127503375Y-105486815D01*
X127495908Y-105495913D01*
X127494106Y-105497392D01*
X127492051Y-105498491D01*
X127489823Y-105499167D01*
X127481360Y-105500000D01*
X127218640Y-105500000D01*
X127210177Y-105499167D01*
X127207949Y-105498491D01*
X127205894Y-105497392D01*
X127204092Y-105495913D01*
X127196625Y-105486815D01*
X127179297Y-105469489D01*
X127158923Y-105455875D01*
X127136284Y-105446498D01*
X127112251Y-105441718D01*
X127087747Y-105441718D01*
X127063713Y-105446499D01*
X127041075Y-105455876D01*
X127020700Y-105469490D01*
X127003375Y-105486815D01*
X126995908Y-105495913D01*
X126994106Y-105497392D01*
X126992051Y-105498491D01*
X126989823Y-105499167D01*
X126981360Y-105500000D01*
X126718640Y-105500000D01*
X126710177Y-105499167D01*
X126707949Y-105498491D01*
X126705894Y-105497392D01*
X126704092Y-105495913D01*
X126696625Y-105486815D01*
X126679297Y-105469489D01*
X126658923Y-105455875D01*
X126636284Y-105446498D01*
X126612251Y-105441718D01*
X126587747Y-105441718D01*
X126563713Y-105446499D01*
X126541075Y-105455876D01*
X126520700Y-105469490D01*
X126503375Y-105486815D01*
X126495908Y-105495913D01*
X126494106Y-105497392D01*
X126492051Y-105498491D01*
X126489823Y-105499167D01*
X126481360Y-105500000D01*
X126218640Y-105500000D01*
X126210177Y-105499167D01*
X126207949Y-105498491D01*
X126205894Y-105497392D01*
X126204092Y-105495913D01*
X126196625Y-105486815D01*
X126179297Y-105469489D01*
X126158923Y-105455875D01*
X126136284Y-105446498D01*
X126112251Y-105441718D01*
X126087747Y-105441718D01*
X126063713Y-105446499D01*
X126041075Y-105455876D01*
X126020700Y-105469490D01*
X126003375Y-105486815D01*
X125995908Y-105495913D01*
X125994106Y-105497392D01*
X125992051Y-105498491D01*
X125989823Y-105499167D01*
X125981360Y-105500000D01*
X125718640Y-105500000D01*
X125710177Y-105499167D01*
X125707949Y-105498491D01*
X125705894Y-105497392D01*
X125704092Y-105495913D01*
X125696625Y-105486815D01*
X125679297Y-105469489D01*
X125658923Y-105455875D01*
X125636284Y-105446498D01*
X125612251Y-105441718D01*
X125587747Y-105441718D01*
X125563713Y-105446499D01*
X125541075Y-105455876D01*
X125520700Y-105469490D01*
X125503375Y-105486815D01*
X125495908Y-105495913D01*
X125494106Y-105497392D01*
X125492051Y-105498491D01*
X125489823Y-105499167D01*
X125481360Y-105500000D01*
X125218640Y-105500000D01*
X125210177Y-105499167D01*
X125207949Y-105498491D01*
X125205894Y-105497392D01*
X125204089Y-105495911D01*
X125202608Y-105494106D01*
X125201509Y-105492051D01*
X125200833Y-105489823D01*
X125200000Y-105481360D01*
X125200000Y-103968640D01*
X125200833Y-103960177D01*
X125201509Y-103957949D01*
X125202608Y-103955894D01*
X125204089Y-103954089D01*
X125205894Y-103952608D01*
X125207949Y-103951509D01*
X125210177Y-103950833D01*
X125218640Y-103950000D01*
X125481360Y-103950000D01*
X125489823Y-103950833D01*
G37*
G36*
X133950000Y-101150000D02*
G01*
X130625000Y-101150000D01*
X130625000Y-98650000D01*
X133950000Y-98650000D01*
X133950000Y-101150000D01*
G37*
G36*
X139775000Y-101150000D02*
G01*
X136450000Y-101150000D01*
X136450000Y-98650000D01*
X139775000Y-98650000D01*
X139775000Y-101150000D01*
G37*
G36*
X124750000Y-97500000D02*
G01*
X123450000Y-97500000D01*
X123450000Y-96000000D01*
X124750000Y-96000000D01*
X124750000Y-97500000D01*
G37*
G36*
X129150000Y-97500000D02*
G01*
X127850000Y-97500000D01*
X127850000Y-96000000D01*
X129150000Y-96000000D01*
X129150000Y-97500000D01*
G37*
G36*
X107050000Y-97400000D02*
G01*
X105750000Y-97400000D01*
X105750000Y-95900000D01*
X107050000Y-95900000D01*
X107050000Y-97400000D01*
G37*
G36*
X126925000Y-97400000D02*
G01*
X125675000Y-97400000D01*
X125675000Y-95900000D01*
X126925000Y-95900000D01*
X126925000Y-97400000D01*
G37*
G36*
X109325000Y-97300000D02*
G01*
X108075000Y-97300000D01*
X108075000Y-95800000D01*
X109325000Y-95800000D01*
X109325000Y-97300000D01*
G37*
G36*
X111550000Y-97300000D02*
G01*
X110250000Y-97300000D01*
X110250000Y-95800000D01*
X111550000Y-95800000D01*
X111550000Y-97300000D01*
G37*
G36*
X132000000Y-97225000D02*
G01*
X130500000Y-97225000D01*
X130500000Y-95975000D01*
X132000000Y-95975000D01*
X132000000Y-97225000D01*
G37*
G36*
X140500000Y-97225000D02*
G01*
X139000000Y-97225000D01*
X139000000Y-95975000D01*
X140500000Y-95975000D01*
X140500000Y-97225000D01*
G37*
G36*
X138000000Y-97225000D02*
G01*
X136500000Y-97225000D01*
X136500000Y-95975000D01*
X138000000Y-95975000D01*
X138000000Y-97225000D01*
G37*
G36*
X134500000Y-97225000D02*
G01*
X133000000Y-97225000D01*
X133000000Y-95975000D01*
X134500000Y-95975000D01*
X134500000Y-97225000D01*
G37*
G36*
X126925000Y-94900000D02*
G01*
X125675000Y-94900000D01*
X125675000Y-93400000D01*
X126925000Y-93400000D01*
X126925000Y-94900000D01*
G37*
G36*
X109325000Y-94800000D02*
G01*
X108075000Y-94800000D01*
X108075000Y-93300000D01*
X109325000Y-93300000D01*
X109325000Y-94800000D01*
G37*
G36*
X124750000Y-94800000D02*
G01*
X123450000Y-94800000D01*
X123450000Y-93300000D01*
X124750000Y-93300000D01*
X124750000Y-94800000D01*
G37*
G36*
X129150000Y-94800000D02*
G01*
X127850000Y-94800000D01*
X127850000Y-93300000D01*
X129150000Y-93300000D01*
X129150000Y-94800000D01*
G37*
G36*
X107050000Y-94700000D02*
G01*
X105750000Y-94700000D01*
X105750000Y-93200000D01*
X107050000Y-93200000D01*
X107050000Y-94700000D01*
G37*
G36*
X111550000Y-94600000D02*
G01*
X110250000Y-94600000D01*
X110250000Y-93100000D01*
X111550000Y-93100000D01*
X111550000Y-94600000D01*
G37*
G36*
X120873500Y-93864000D02*
G01*
X119730500Y-93864000D01*
X119730500Y-93356000D01*
X120873500Y-93356000D01*
X120873500Y-93864000D01*
G37*
G36*
X114523500Y-93864000D02*
G01*
X113380500Y-93864000D01*
X113380500Y-93356000D01*
X114523500Y-93356000D01*
X114523500Y-93864000D01*
G37*
G36*
X120873500Y-92594000D02*
G01*
X119730500Y-92594000D01*
X119730500Y-92086000D01*
X120873500Y-92086000D01*
X120873500Y-92594000D01*
G37*
G36*
X114523500Y-92594000D02*
G01*
X113380500Y-92594000D01*
X113380500Y-92086000D01*
X114523500Y-92086000D01*
X114523500Y-92594000D01*
G37*
G36*
X125500000Y-92450000D02*
G01*
X124000000Y-92450000D01*
X124000000Y-91150000D01*
X125500000Y-91150000D01*
X125500000Y-92450000D01*
G37*
G36*
X128200000Y-92450000D02*
G01*
X126700000Y-92450000D01*
X126700000Y-91150000D01*
X128200000Y-91150000D01*
X128200000Y-92450000D01*
G37*
G36*
X107800000Y-92250000D02*
G01*
X106300000Y-92250000D01*
X106300000Y-90950000D01*
X107800000Y-90950000D01*
X107800000Y-92250000D01*
G37*
G36*
X110500000Y-92250000D02*
G01*
X109000000Y-92250000D01*
X109000000Y-90950000D01*
X110500000Y-90950000D01*
X110500000Y-92250000D01*
G37*
G36*
X120873500Y-91324000D02*
G01*
X119730500Y-91324000D01*
X119730500Y-90816000D01*
X120873500Y-90816000D01*
X120873500Y-91324000D01*
G37*
G36*
X114523500Y-91324000D02*
G01*
X113380500Y-91324000D01*
X113380500Y-90816000D01*
X114523500Y-90816000D01*
X114523500Y-91324000D01*
G37*
G36*
X114523500Y-90054000D02*
G01*
X113380500Y-90054000D01*
X113380500Y-89546000D01*
X114523500Y-89546000D01*
X114523500Y-90054000D01*
G37*
G36*
X120873500Y-90054000D02*
G01*
X119730500Y-90054000D01*
X119730500Y-89546000D01*
X120873500Y-89546000D01*
X120873500Y-90054000D01*
G37*
G36*
X128200000Y-90050000D02*
G01*
X126700000Y-90050000D01*
X126700000Y-88750000D01*
X128200000Y-88750000D01*
X128200000Y-90050000D01*
G37*
G36*
X125500000Y-90050000D02*
G01*
X124000000Y-90050000D01*
X124000000Y-88750000D01*
X125500000Y-88750000D01*
X125500000Y-90050000D01*
G37*
G36*
X107800000Y-89850000D02*
G01*
X106300000Y-89850000D01*
X106300000Y-88550000D01*
X107800000Y-88550000D01*
X107800000Y-89850000D01*
G37*
G36*
X110500000Y-89850000D02*
G01*
X109000000Y-89850000D01*
X109000000Y-88550000D01*
X110500000Y-88550000D01*
X110500000Y-89850000D01*
G37*
G36*
X120873500Y-88784000D02*
G01*
X119730500Y-88784000D01*
X119730500Y-88276000D01*
X120873500Y-88276000D01*
X120873500Y-88784000D01*
G37*
G36*
X114523500Y-88784000D02*
G01*
X113380500Y-88784000D01*
X113380500Y-88276000D01*
X114523500Y-88276000D01*
X114523500Y-88784000D01*
G37*
G36*
X111250000Y-87700000D02*
G01*
X109950000Y-87700000D01*
X109950000Y-86200000D01*
X111250000Y-86200000D01*
X111250000Y-87700000D01*
G37*
G36*
X107050000Y-87700000D02*
G01*
X105750000Y-87700000D01*
X105750000Y-86200000D01*
X107050000Y-86200000D01*
X107050000Y-87700000D01*
G37*
G36*
X128950000Y-87700000D02*
G01*
X127650000Y-87700000D01*
X127650000Y-86200000D01*
X128950000Y-86200000D01*
X128950000Y-87700000D01*
G37*
G36*
X124550000Y-87700000D02*
G01*
X123250000Y-87700000D01*
X123250000Y-86200000D01*
X124550000Y-86200000D01*
X124550000Y-87700000D01*
G37*
G36*
X109125000Y-87600000D02*
G01*
X107875000Y-87600000D01*
X107875000Y-86100000D01*
X109125000Y-86100000D01*
X109125000Y-87600000D01*
G37*
G36*
X126725000Y-87600000D02*
G01*
X125475000Y-87600000D01*
X125475000Y-86100000D01*
X126725000Y-86100000D01*
X126725000Y-87600000D01*
G37*
G36*
X114523500Y-87514000D02*
G01*
X113380500Y-87514000D01*
X113380500Y-87006000D01*
X114523500Y-87006000D01*
X114523500Y-87514000D01*
G37*
G36*
X120873500Y-87514000D02*
G01*
X119730500Y-87514000D01*
X119730500Y-87006000D01*
X120873500Y-87006000D01*
X120873500Y-87514000D01*
G37*
G36*
X114523500Y-86244000D02*
G01*
X113380500Y-86244000D01*
X113380500Y-85736000D01*
X114523500Y-85736000D01*
X114523500Y-86244000D01*
G37*
G36*
X120873500Y-86244000D02*
G01*
X119730500Y-86244000D01*
X119730500Y-85736000D01*
X120873500Y-85736000D01*
X120873500Y-86244000D01*
G37*
G36*
X126725000Y-85100000D02*
G01*
X125475000Y-85100000D01*
X125475000Y-83600000D01*
X126725000Y-83600000D01*
X126725000Y-85100000D01*
G37*
G36*
X109125000Y-85100000D02*
G01*
X107875000Y-85100000D01*
X107875000Y-83600000D01*
X109125000Y-83600000D01*
X109125000Y-85100000D01*
G37*
G36*
X124550000Y-85000000D02*
G01*
X123250000Y-85000000D01*
X123250000Y-83500000D01*
X124550000Y-83500000D01*
X124550000Y-85000000D01*
G37*
G36*
X128950000Y-85000000D02*
G01*
X127650000Y-85000000D01*
X127650000Y-83500000D01*
X128950000Y-83500000D01*
X128950000Y-85000000D01*
G37*
G36*
X111250000Y-85000000D02*
G01*
X109950000Y-85000000D01*
X109950000Y-83500000D01*
X111250000Y-83500000D01*
X111250000Y-85000000D01*
G37*
G36*
X107050000Y-85000000D02*
G01*
X105750000Y-85000000D01*
X105750000Y-83500000D01*
X107050000Y-83500000D01*
X107050000Y-85000000D01*
G37*
G36*
X116800000Y-78650000D02*
G01*
X115300000Y-78650000D01*
X115300000Y-77350000D01*
X116800000Y-77350000D01*
X116800000Y-78650000D01*
G37*
G36*
X114100000Y-78650000D02*
G01*
X112600000Y-78650000D01*
X112600000Y-77350000D01*
X114100000Y-77350000D01*
X114100000Y-78650000D01*
G37*
G36*
X119050000Y-78350000D02*
G01*
X118150000Y-78350000D01*
X118150000Y-77550000D01*
X119050000Y-77550000D01*
X119050000Y-78350000D01*
G37*
G36*
X141650000Y-78200000D02*
G01*
X140350000Y-78200000D01*
X140350000Y-76700000D01*
X141650000Y-76700000D01*
X141650000Y-78200000D01*
G37*
G36*
X121050000Y-77400000D02*
G01*
X120150000Y-77400000D01*
X120150000Y-76600000D01*
X121050000Y-76600000D01*
X121050000Y-77400000D01*
G37*
G36*
X119050000Y-76450000D02*
G01*
X118150000Y-76450000D01*
X118150000Y-75650000D01*
X119050000Y-75650000D01*
X119050000Y-76450000D01*
G37*
G36*
X116800000Y-76425000D02*
G01*
X115300000Y-76425000D01*
X115300000Y-75175000D01*
X116800000Y-75175000D01*
X116800000Y-76425000D01*
G37*
G36*
X114300000Y-76425000D02*
G01*
X112800000Y-76425000D01*
X112800000Y-75175000D01*
X114300000Y-75175000D01*
X114300000Y-76425000D01*
G37*
G36*
X141650000Y-75500000D02*
G01*
X140350000Y-75500000D01*
X140350000Y-74000000D01*
X141650000Y-74000000D01*
X141650000Y-75500000D01*
G37*
G36*
X147000000Y-72350000D02*
G01*
X143200000Y-72350000D01*
X143200000Y-70350000D01*
X147000000Y-70350000D01*
X147000000Y-72350000D01*
G37*
G36*
X155100000Y-72200000D02*
G01*
X153500000Y-72200000D01*
X153500000Y-69200000D01*
X155100000Y-69200000D01*
X155100000Y-72200000D01*
G37*
G36*
X114800000Y-72000000D02*
G01*
X111800000Y-72000000D01*
X111800000Y-70400000D01*
X114800000Y-70400000D01*
X114800000Y-72000000D01*
G37*
G36*
X110400000Y-72000000D02*
G01*
X107400000Y-72000000D01*
X107400000Y-70400000D01*
X110400000Y-70400000D01*
X110400000Y-72000000D01*
G37*
G36*
X119100000Y-71800000D02*
G01*
X117900000Y-71800000D01*
X117900000Y-70900000D01*
X119100000Y-70900000D01*
X119100000Y-71800000D01*
G37*
G36*
X138600000Y-70900000D02*
G01*
X137000000Y-70900000D01*
X137000000Y-68700000D01*
X138600000Y-68700000D01*
X138600000Y-70900000D01*
G37*
G36*
X119100000Y-68500000D02*
G01*
X117900000Y-68500000D01*
X117900000Y-67600000D01*
X119100000Y-67600000D01*
X119100000Y-68500000D01*
G37*
G36*
X138600000Y-67900000D02*
G01*
X137000000Y-67900000D01*
X137000000Y-65700000D01*
X138600000Y-65700000D01*
X138600000Y-67900000D01*
G37*
G36*
X155100000Y-67800000D02*
G01*
X153500000Y-67800000D01*
X153500000Y-64800000D01*
X155100000Y-64800000D01*
X155100000Y-67800000D01*
G37*
G36*
X145850000Y-66050000D02*
G01*
X144350000Y-66050000D01*
X144350000Y-64050000D01*
X145850000Y-64050000D01*
X145850000Y-66050000D01*
G37*
G36*
X143550000Y-66050000D02*
G01*
X142050000Y-66050000D01*
X142050000Y-64050000D01*
X143550000Y-64050000D01*
X143550000Y-66050000D01*
G37*
G36*
X148150000Y-66050000D02*
G01*
X146650000Y-66050000D01*
X146650000Y-64050000D01*
X148150000Y-64050000D01*
X148150000Y-66050000D01*
G37*
G36*
X154500000Y-62900000D02*
G01*
X152900000Y-62900000D01*
X152900000Y-59900000D01*
X154500000Y-59900000D01*
X154500000Y-62900000D01*
G37*
G36*
X148500000Y-61600000D02*
G01*
X147600000Y-61600000D01*
X147600000Y-60400000D01*
X148500000Y-60400000D01*
X148500000Y-61600000D01*
G37*
G36*
X145200000Y-61600000D02*
G01*
X144300000Y-61600000D01*
X144300000Y-60400000D01*
X145200000Y-60400000D01*
X145200000Y-61600000D01*
G37*
G36*
X154500000Y-58500000D02*
G01*
X152900000Y-58500000D01*
X152900000Y-55500000D01*
X154500000Y-55500000D01*
X154500000Y-58500000D01*
G37*
M02*
