G04 #@! TF.GenerationSoftware,KiCad,Pcbnew,(5.1.5)-3*
G04 #@! TF.CreationDate,2020-05-16T16:23:17+01:00*
G04 #@! TF.ProjectId,AddaTone components,41646461-546f-46e6-9520-636f6d706f6e,rev?*
G04 #@! TF.SameCoordinates,Original*
G04 #@! TF.FileFunction,Soldermask,Bot*
G04 #@! TF.FilePolarity,Negative*
%FSLAX46Y46*%
G04 Gerber Fmt 4.6, Leading zero omitted, Abs format (unit mm)*
G04 Created by KiCad (PCBNEW (5.1.5)-3) date 2020-05-16 16:23:17*
%MOMM*%
%LPD*%
G04 APERTURE LIST*
%ADD10C,0.100000*%
G04 APERTURE END LIST*
D10*
G36*
X133927935Y-155182664D02*
G01*
X134082624Y-155246739D01*
X134082626Y-155246740D01*
X134221844Y-155339762D01*
X134340238Y-155458156D01*
X134433260Y-155597374D01*
X134433261Y-155597376D01*
X134497336Y-155752065D01*
X134530000Y-155916281D01*
X134530000Y-156083719D01*
X134497336Y-156247935D01*
X134433261Y-156402624D01*
X134433260Y-156402626D01*
X134340238Y-156541844D01*
X134221844Y-156660238D01*
X134082626Y-156753260D01*
X134082625Y-156753261D01*
X134082624Y-156753261D01*
X133927935Y-156817336D01*
X133763719Y-156850000D01*
X133596281Y-156850000D01*
X133432065Y-156817336D01*
X133277376Y-156753261D01*
X133277375Y-156753261D01*
X133277374Y-156753260D01*
X133138156Y-156660238D01*
X133019762Y-156541844D01*
X132926740Y-156402626D01*
X132926739Y-156402624D01*
X132862664Y-156247935D01*
X132830000Y-156083719D01*
X132830000Y-155916281D01*
X132862664Y-155752065D01*
X132926739Y-155597376D01*
X132926740Y-155597374D01*
X133019762Y-155458156D01*
X133138156Y-155339762D01*
X133277374Y-155246740D01*
X133277376Y-155246739D01*
X133432065Y-155182664D01*
X133596281Y-155150000D01*
X133763719Y-155150000D01*
X133927935Y-155182664D01*
G37*
G36*
X131387935Y-155182664D02*
G01*
X131542624Y-155246739D01*
X131542626Y-155246740D01*
X131681844Y-155339762D01*
X131800238Y-155458156D01*
X131893260Y-155597374D01*
X131893261Y-155597376D01*
X131957336Y-155752065D01*
X131990000Y-155916281D01*
X131990000Y-156083719D01*
X131957336Y-156247935D01*
X131893261Y-156402624D01*
X131893260Y-156402626D01*
X131800238Y-156541844D01*
X131681844Y-156660238D01*
X131542626Y-156753260D01*
X131542625Y-156753261D01*
X131542624Y-156753261D01*
X131387935Y-156817336D01*
X131223719Y-156850000D01*
X131056281Y-156850000D01*
X130892065Y-156817336D01*
X130737376Y-156753261D01*
X130737375Y-156753261D01*
X130737374Y-156753260D01*
X130598156Y-156660238D01*
X130479762Y-156541844D01*
X130386740Y-156402626D01*
X130386739Y-156402624D01*
X130322664Y-156247935D01*
X130290000Y-156083719D01*
X130290000Y-155916281D01*
X130322664Y-155752065D01*
X130386739Y-155597376D01*
X130386740Y-155597374D01*
X130479762Y-155458156D01*
X130598156Y-155339762D01*
X130737374Y-155246740D01*
X130737376Y-155246739D01*
X130892065Y-155182664D01*
X131056281Y-155150000D01*
X131223719Y-155150000D01*
X131387935Y-155182664D01*
G37*
G36*
X129450000Y-156850000D02*
G01*
X127750000Y-156850000D01*
X127750000Y-155150000D01*
X129450000Y-155150000D01*
X129450000Y-156850000D01*
G37*
G36*
X106950000Y-156450000D02*
G01*
X105250000Y-156450000D01*
X105250000Y-154750000D01*
X106950000Y-154750000D01*
X106950000Y-156450000D01*
G37*
G36*
X103973127Y-149726901D02*
G01*
X104108365Y-149753801D01*
X104363149Y-149859336D01*
X104592448Y-150012549D01*
X104787451Y-150207552D01*
X104940664Y-150436851D01*
X105046199Y-150691635D01*
X105100000Y-150962112D01*
X105100000Y-151237888D01*
X105046199Y-151508365D01*
X104940664Y-151763149D01*
X104787451Y-151992448D01*
X104592448Y-152187451D01*
X104363149Y-152340664D01*
X104108365Y-152446199D01*
X103973127Y-152473099D01*
X103837889Y-152500000D01*
X103562111Y-152500000D01*
X103426873Y-152473099D01*
X103291635Y-152446199D01*
X103036851Y-152340664D01*
X102807552Y-152187451D01*
X102612549Y-151992448D01*
X102459336Y-151763149D01*
X102353801Y-151508365D01*
X102300000Y-151237888D01*
X102300000Y-150962112D01*
X102353801Y-150691635D01*
X102459336Y-150436851D01*
X102612549Y-150207552D01*
X102807552Y-150012549D01*
X103036851Y-149859336D01*
X103291635Y-149753801D01*
X103426873Y-149726901D01*
X103562111Y-149700000D01*
X103837889Y-149700000D01*
X103973127Y-149726901D01*
G37*
G36*
X117550000Y-142850000D02*
G01*
X115850000Y-142850000D01*
X115850000Y-141150000D01*
X117550000Y-141150000D01*
X117550000Y-142850000D01*
G37*
G36*
X119487935Y-141182664D02*
G01*
X119642624Y-141246739D01*
X119642626Y-141246740D01*
X119781844Y-141339762D01*
X119900238Y-141458156D01*
X119993260Y-141597374D01*
X119993261Y-141597376D01*
X120057336Y-141752065D01*
X120090000Y-141916281D01*
X120090000Y-142083719D01*
X120057336Y-142247935D01*
X119993261Y-142402624D01*
X119993260Y-142402626D01*
X119900238Y-142541844D01*
X119781844Y-142660238D01*
X119642626Y-142753260D01*
X119642625Y-142753261D01*
X119642624Y-142753261D01*
X119487935Y-142817336D01*
X119323719Y-142850000D01*
X119156281Y-142850000D01*
X118992065Y-142817336D01*
X118837376Y-142753261D01*
X118837375Y-142753261D01*
X118837374Y-142753260D01*
X118698156Y-142660238D01*
X118579762Y-142541844D01*
X118486740Y-142402626D01*
X118486739Y-142402624D01*
X118422664Y-142247935D01*
X118390000Y-142083719D01*
X118390000Y-141916281D01*
X118422664Y-141752065D01*
X118486739Y-141597376D01*
X118486740Y-141597374D01*
X118579762Y-141458156D01*
X118698156Y-141339762D01*
X118837374Y-141246740D01*
X118837376Y-141246739D01*
X118992065Y-141182664D01*
X119156281Y-141150000D01*
X119323719Y-141150000D01*
X119487935Y-141182664D01*
G37*
G36*
X144687935Y-125682664D02*
G01*
X144842624Y-125746739D01*
X144842626Y-125746740D01*
X144981844Y-125839762D01*
X145100238Y-125958156D01*
X145193260Y-126097374D01*
X145193261Y-126097376D01*
X145257336Y-126252065D01*
X145290000Y-126416281D01*
X145290000Y-126583719D01*
X145257336Y-126747935D01*
X145193261Y-126902624D01*
X145193260Y-126902626D01*
X145100238Y-127041844D01*
X144981844Y-127160238D01*
X144842626Y-127253260D01*
X144842625Y-127253261D01*
X144842624Y-127253261D01*
X144687935Y-127317336D01*
X144523719Y-127350000D01*
X144356281Y-127350000D01*
X144192065Y-127317336D01*
X144037376Y-127253261D01*
X144037375Y-127253261D01*
X144037374Y-127253260D01*
X143898156Y-127160238D01*
X143779762Y-127041844D01*
X143686740Y-126902626D01*
X143686739Y-126902624D01*
X143622664Y-126747935D01*
X143590000Y-126583719D01*
X143590000Y-126416281D01*
X143622664Y-126252065D01*
X143686739Y-126097376D01*
X143686740Y-126097374D01*
X143779762Y-125958156D01*
X143898156Y-125839762D01*
X144037374Y-125746740D01*
X144037376Y-125746739D01*
X144192065Y-125682664D01*
X144356281Y-125650000D01*
X144523719Y-125650000D01*
X144687935Y-125682664D01*
G37*
G36*
X142750000Y-127350000D02*
G01*
X141050000Y-127350000D01*
X141050000Y-125650000D01*
X142750000Y-125650000D01*
X142750000Y-127350000D01*
G37*
G36*
X147227935Y-125682664D02*
G01*
X147382624Y-125746739D01*
X147382626Y-125746740D01*
X147521844Y-125839762D01*
X147640238Y-125958156D01*
X147733260Y-126097374D01*
X147733261Y-126097376D01*
X147797336Y-126252065D01*
X147830000Y-126416281D01*
X147830000Y-126583719D01*
X147797336Y-126747935D01*
X147733261Y-126902624D01*
X147733260Y-126902626D01*
X147640238Y-127041844D01*
X147521844Y-127160238D01*
X147382626Y-127253260D01*
X147382625Y-127253261D01*
X147382624Y-127253261D01*
X147227935Y-127317336D01*
X147063719Y-127350000D01*
X146896281Y-127350000D01*
X146732065Y-127317336D01*
X146577376Y-127253261D01*
X146577375Y-127253261D01*
X146577374Y-127253260D01*
X146438156Y-127160238D01*
X146319762Y-127041844D01*
X146226740Y-126902626D01*
X146226739Y-126902624D01*
X146162664Y-126747935D01*
X146130000Y-126583719D01*
X146130000Y-126416281D01*
X146162664Y-126252065D01*
X146226739Y-126097376D01*
X146226740Y-126097374D01*
X146319762Y-125958156D01*
X146438156Y-125839762D01*
X146577374Y-125746740D01*
X146577376Y-125746739D01*
X146732065Y-125682664D01*
X146896281Y-125650000D01*
X147063719Y-125650000D01*
X147227935Y-125682664D01*
G37*
G36*
X103047935Y-124342664D02*
G01*
X103202624Y-124406739D01*
X103202626Y-124406740D01*
X103341844Y-124499762D01*
X103460238Y-124618156D01*
X103553260Y-124757374D01*
X103553261Y-124757376D01*
X103617336Y-124912065D01*
X103650000Y-125076281D01*
X103650000Y-125243719D01*
X103617336Y-125407935D01*
X103553261Y-125562624D01*
X103553260Y-125562626D01*
X103460238Y-125701844D01*
X103341844Y-125820238D01*
X103202626Y-125913260D01*
X103202625Y-125913261D01*
X103202624Y-125913261D01*
X103047935Y-125977336D01*
X102883719Y-126010000D01*
X102716281Y-126010000D01*
X102552065Y-125977336D01*
X102397376Y-125913261D01*
X102397375Y-125913261D01*
X102397374Y-125913260D01*
X102258156Y-125820238D01*
X102139762Y-125701844D01*
X102046740Y-125562626D01*
X102046739Y-125562624D01*
X101982664Y-125407935D01*
X101950000Y-125243719D01*
X101950000Y-125076281D01*
X101982664Y-124912065D01*
X102046739Y-124757376D01*
X102046740Y-124757374D01*
X102139762Y-124618156D01*
X102258156Y-124499762D01*
X102397374Y-124406740D01*
X102397376Y-124406739D01*
X102552065Y-124342664D01*
X102716281Y-124310000D01*
X102883719Y-124310000D01*
X103047935Y-124342664D01*
G37*
G36*
X147227935Y-123142664D02*
G01*
X147382624Y-123206739D01*
X147382626Y-123206740D01*
X147521844Y-123299762D01*
X147640238Y-123418156D01*
X147733260Y-123557374D01*
X147733261Y-123557376D01*
X147797336Y-123712065D01*
X147830000Y-123876281D01*
X147830000Y-124043719D01*
X147797336Y-124207935D01*
X147755059Y-124310000D01*
X147733260Y-124362626D01*
X147640238Y-124501844D01*
X147521844Y-124620238D01*
X147382626Y-124713260D01*
X147382625Y-124713261D01*
X147382624Y-124713261D01*
X147227935Y-124777336D01*
X147063719Y-124810000D01*
X146896281Y-124810000D01*
X146732065Y-124777336D01*
X146577376Y-124713261D01*
X146577375Y-124713261D01*
X146577374Y-124713260D01*
X146438156Y-124620238D01*
X146319762Y-124501844D01*
X146226740Y-124362626D01*
X146204941Y-124310000D01*
X146162664Y-124207935D01*
X146130000Y-124043719D01*
X146130000Y-123876281D01*
X146162664Y-123712065D01*
X146226739Y-123557376D01*
X146226740Y-123557374D01*
X146319762Y-123418156D01*
X146438156Y-123299762D01*
X146577374Y-123206740D01*
X146577376Y-123206739D01*
X146732065Y-123142664D01*
X146896281Y-123110000D01*
X147063719Y-123110000D01*
X147227935Y-123142664D01*
G37*
G36*
X144687935Y-123142664D02*
G01*
X144842624Y-123206739D01*
X144842626Y-123206740D01*
X144981844Y-123299762D01*
X145100238Y-123418156D01*
X145193260Y-123557374D01*
X145193261Y-123557376D01*
X145257336Y-123712065D01*
X145290000Y-123876281D01*
X145290000Y-124043719D01*
X145257336Y-124207935D01*
X145215059Y-124310000D01*
X145193260Y-124362626D01*
X145100238Y-124501844D01*
X144981844Y-124620238D01*
X144842626Y-124713260D01*
X144842625Y-124713261D01*
X144842624Y-124713261D01*
X144687935Y-124777336D01*
X144523719Y-124810000D01*
X144356281Y-124810000D01*
X144192065Y-124777336D01*
X144037376Y-124713261D01*
X144037375Y-124713261D01*
X144037374Y-124713260D01*
X143898156Y-124620238D01*
X143779762Y-124501844D01*
X143686740Y-124362626D01*
X143664941Y-124310000D01*
X143622664Y-124207935D01*
X143590000Y-124043719D01*
X143590000Y-123876281D01*
X143622664Y-123712065D01*
X143686739Y-123557376D01*
X143686740Y-123557374D01*
X143779762Y-123418156D01*
X143898156Y-123299762D01*
X144037374Y-123206740D01*
X144037376Y-123206739D01*
X144192065Y-123142664D01*
X144356281Y-123110000D01*
X144523719Y-123110000D01*
X144687935Y-123142664D01*
G37*
G36*
X142147935Y-123142664D02*
G01*
X142302624Y-123206739D01*
X142302626Y-123206740D01*
X142441844Y-123299762D01*
X142560238Y-123418156D01*
X142653260Y-123557374D01*
X142653261Y-123557376D01*
X142717336Y-123712065D01*
X142750000Y-123876281D01*
X142750000Y-124043719D01*
X142717336Y-124207935D01*
X142675059Y-124310000D01*
X142653260Y-124362626D01*
X142560238Y-124501844D01*
X142441844Y-124620238D01*
X142302626Y-124713260D01*
X142302625Y-124713261D01*
X142302624Y-124713261D01*
X142147935Y-124777336D01*
X141983719Y-124810000D01*
X141816281Y-124810000D01*
X141652065Y-124777336D01*
X141497376Y-124713261D01*
X141497375Y-124713261D01*
X141497374Y-124713260D01*
X141358156Y-124620238D01*
X141239762Y-124501844D01*
X141146740Y-124362626D01*
X141124941Y-124310000D01*
X141082664Y-124207935D01*
X141050000Y-124043719D01*
X141050000Y-123876281D01*
X141082664Y-123712065D01*
X141146739Y-123557376D01*
X141146740Y-123557374D01*
X141239762Y-123418156D01*
X141358156Y-123299762D01*
X141497374Y-123206740D01*
X141497376Y-123206739D01*
X141652065Y-123142664D01*
X141816281Y-123110000D01*
X141983719Y-123110000D01*
X142147935Y-123142664D01*
G37*
G36*
X103047935Y-121802664D02*
G01*
X103202624Y-121866739D01*
X103202626Y-121866740D01*
X103341844Y-121959762D01*
X103460238Y-122078156D01*
X103553260Y-122217374D01*
X103553261Y-122217376D01*
X103617336Y-122372065D01*
X103650000Y-122536281D01*
X103650000Y-122703719D01*
X103617336Y-122867935D01*
X103553261Y-123022624D01*
X103553260Y-123022626D01*
X103460238Y-123161844D01*
X103341844Y-123280238D01*
X103202626Y-123373260D01*
X103202625Y-123373261D01*
X103202624Y-123373261D01*
X103047935Y-123437336D01*
X102883719Y-123470000D01*
X102716281Y-123470000D01*
X102552065Y-123437336D01*
X102397376Y-123373261D01*
X102397375Y-123373261D01*
X102397374Y-123373260D01*
X102258156Y-123280238D01*
X102139762Y-123161844D01*
X102046740Y-123022626D01*
X102046739Y-123022624D01*
X101982664Y-122867935D01*
X101950000Y-122703719D01*
X101950000Y-122536281D01*
X101982664Y-122372065D01*
X102046739Y-122217376D01*
X102046740Y-122217374D01*
X102139762Y-122078156D01*
X102258156Y-121959762D01*
X102397374Y-121866740D01*
X102397376Y-121866739D01*
X102552065Y-121802664D01*
X102716281Y-121770000D01*
X102883719Y-121770000D01*
X103047935Y-121802664D01*
G37*
G36*
X123550000Y-122850000D02*
G01*
X121850000Y-122850000D01*
X121850000Y-121150000D01*
X123550000Y-121150000D01*
X123550000Y-122850000D01*
G37*
G36*
X120840000Y-122230000D02*
G01*
X119140000Y-122230000D01*
X119140000Y-121330000D01*
X120840000Y-121330000D01*
X120840000Y-122230000D01*
G37*
G36*
X103047935Y-119262664D02*
G01*
X103202624Y-119326739D01*
X103202626Y-119326740D01*
X103341844Y-119419762D01*
X103460238Y-119538156D01*
X103553260Y-119677374D01*
X103553261Y-119677376D01*
X103617336Y-119832065D01*
X103650000Y-119996281D01*
X103650000Y-120163719D01*
X103617336Y-120327935D01*
X103553261Y-120482624D01*
X103553260Y-120482626D01*
X103460238Y-120621844D01*
X103341844Y-120740238D01*
X103202626Y-120833260D01*
X103202625Y-120833261D01*
X103202624Y-120833261D01*
X103047935Y-120897336D01*
X102883719Y-120930000D01*
X102716281Y-120930000D01*
X102552065Y-120897336D01*
X102397376Y-120833261D01*
X102397375Y-120833261D01*
X102397374Y-120833260D01*
X102258156Y-120740238D01*
X102139762Y-120621844D01*
X102046740Y-120482626D01*
X102046739Y-120482624D01*
X101982664Y-120327935D01*
X101950000Y-120163719D01*
X101950000Y-119996281D01*
X101982664Y-119832065D01*
X102046739Y-119677376D01*
X102046740Y-119677374D01*
X102139762Y-119538156D01*
X102258156Y-119419762D01*
X102397374Y-119326740D01*
X102397376Y-119326739D01*
X102552065Y-119262664D01*
X102716281Y-119230000D01*
X102883719Y-119230000D01*
X103047935Y-119262664D01*
G37*
G36*
X120840000Y-119330000D02*
G01*
X119140000Y-119330000D01*
X119140000Y-118430000D01*
X120840000Y-118430000D01*
X120840000Y-119330000D01*
G37*
G36*
X103047935Y-116722664D02*
G01*
X103202624Y-116786739D01*
X103202626Y-116786740D01*
X103341844Y-116879762D01*
X103460238Y-116998156D01*
X103525803Y-117096282D01*
X103553261Y-117137376D01*
X103617336Y-117292065D01*
X103650000Y-117456281D01*
X103650000Y-117623719D01*
X103617336Y-117787935D01*
X103602967Y-117822624D01*
X103553260Y-117942626D01*
X103460238Y-118081844D01*
X103341844Y-118200238D01*
X103202626Y-118293260D01*
X103202625Y-118293261D01*
X103202624Y-118293261D01*
X103047935Y-118357336D01*
X102883719Y-118390000D01*
X102716281Y-118390000D01*
X102552065Y-118357336D01*
X102397376Y-118293261D01*
X102397375Y-118293261D01*
X102397374Y-118293260D01*
X102258156Y-118200238D01*
X102139762Y-118081844D01*
X102046740Y-117942626D01*
X101997033Y-117822624D01*
X101982664Y-117787935D01*
X101950000Y-117623719D01*
X101950000Y-117456281D01*
X101982664Y-117292065D01*
X102046739Y-117137376D01*
X102074197Y-117096282D01*
X102139762Y-116998156D01*
X102258156Y-116879762D01*
X102397374Y-116786740D01*
X102397376Y-116786739D01*
X102552065Y-116722664D01*
X102716281Y-116690000D01*
X102883719Y-116690000D01*
X103047935Y-116722664D01*
G37*
G36*
X146147935Y-116602664D02*
G01*
X146302624Y-116666739D01*
X146302626Y-116666740D01*
X146441844Y-116759762D01*
X146560238Y-116878156D01*
X146653260Y-117017374D01*
X146653261Y-117017376D01*
X146717336Y-117172065D01*
X146750000Y-117336281D01*
X146750000Y-117503719D01*
X146717336Y-117667935D01*
X146667630Y-117787935D01*
X146653260Y-117822626D01*
X146560238Y-117961844D01*
X146441844Y-118080238D01*
X146302626Y-118173260D01*
X146302625Y-118173261D01*
X146302624Y-118173261D01*
X146147935Y-118237336D01*
X145983719Y-118270000D01*
X145816281Y-118270000D01*
X145652065Y-118237336D01*
X145497376Y-118173261D01*
X145497375Y-118173261D01*
X145497374Y-118173260D01*
X145358156Y-118080238D01*
X145239762Y-117961844D01*
X145146740Y-117822626D01*
X145132370Y-117787935D01*
X145082664Y-117667935D01*
X145050000Y-117503719D01*
X145050000Y-117336281D01*
X145082664Y-117172065D01*
X145146739Y-117017376D01*
X145146740Y-117017374D01*
X145239762Y-116878156D01*
X145358156Y-116759762D01*
X145497374Y-116666740D01*
X145497376Y-116666739D01*
X145652065Y-116602664D01*
X145816281Y-116570000D01*
X145983719Y-116570000D01*
X146147935Y-116602664D01*
G37*
G36*
X152447935Y-116362664D02*
G01*
X152602624Y-116426739D01*
X152602626Y-116426740D01*
X152741844Y-116519762D01*
X152860238Y-116638156D01*
X152941492Y-116759762D01*
X152953261Y-116777376D01*
X153017336Y-116932065D01*
X153050000Y-117096281D01*
X153050000Y-117263719D01*
X153017336Y-117427935D01*
X153005594Y-117456282D01*
X152953260Y-117582626D01*
X152860238Y-117721844D01*
X152741844Y-117840238D01*
X152602626Y-117933260D01*
X152602625Y-117933261D01*
X152602624Y-117933261D01*
X152447935Y-117997336D01*
X152283719Y-118030000D01*
X152116281Y-118030000D01*
X151952065Y-117997336D01*
X151797376Y-117933261D01*
X151797375Y-117933261D01*
X151797374Y-117933260D01*
X151658156Y-117840238D01*
X151539762Y-117721844D01*
X151446740Y-117582626D01*
X151394406Y-117456282D01*
X151382664Y-117427935D01*
X151350000Y-117263719D01*
X151350000Y-117096281D01*
X151382664Y-116932065D01*
X151446739Y-116777376D01*
X151458508Y-116759762D01*
X151539762Y-116638156D01*
X151658156Y-116519762D01*
X151797374Y-116426740D01*
X151797376Y-116426739D01*
X151952065Y-116362664D01*
X152116281Y-116330000D01*
X152283719Y-116330000D01*
X152447935Y-116362664D01*
G37*
G36*
X103047935Y-114182664D02*
G01*
X103202624Y-114246739D01*
X103202626Y-114246740D01*
X103341844Y-114339762D01*
X103460238Y-114458156D01*
X103525803Y-114556282D01*
X103553261Y-114597376D01*
X103617336Y-114752065D01*
X103650000Y-114916281D01*
X103650000Y-115083719D01*
X103617336Y-115247935D01*
X103602967Y-115282624D01*
X103553260Y-115402626D01*
X103460238Y-115541844D01*
X103341844Y-115660238D01*
X103202626Y-115753260D01*
X103202625Y-115753261D01*
X103202624Y-115753261D01*
X103047935Y-115817336D01*
X102883719Y-115850000D01*
X102716281Y-115850000D01*
X102552065Y-115817336D01*
X102397376Y-115753261D01*
X102397375Y-115753261D01*
X102397374Y-115753260D01*
X102258156Y-115660238D01*
X102139762Y-115541844D01*
X102046740Y-115402626D01*
X101997033Y-115282624D01*
X101982664Y-115247935D01*
X101950000Y-115083719D01*
X101950000Y-114916281D01*
X101982664Y-114752065D01*
X102046739Y-114597376D01*
X102074197Y-114556282D01*
X102139762Y-114458156D01*
X102258156Y-114339762D01*
X102397374Y-114246740D01*
X102397376Y-114246739D01*
X102552065Y-114182664D01*
X102716281Y-114150000D01*
X102883719Y-114150000D01*
X103047935Y-114182664D01*
G37*
G36*
X146147935Y-114062664D02*
G01*
X146302624Y-114126739D01*
X146302626Y-114126740D01*
X146441844Y-114219762D01*
X146560238Y-114338156D01*
X146653260Y-114477374D01*
X146653261Y-114477376D01*
X146717336Y-114632065D01*
X146750000Y-114796281D01*
X146750000Y-114963719D01*
X146717336Y-115127935D01*
X146667630Y-115247935D01*
X146653260Y-115282626D01*
X146560238Y-115421844D01*
X146441844Y-115540238D01*
X146302626Y-115633260D01*
X146302625Y-115633261D01*
X146302624Y-115633261D01*
X146147935Y-115697336D01*
X145983719Y-115730000D01*
X145816281Y-115730000D01*
X145652065Y-115697336D01*
X145497376Y-115633261D01*
X145497375Y-115633261D01*
X145497374Y-115633260D01*
X145358156Y-115540238D01*
X145239762Y-115421844D01*
X145146740Y-115282626D01*
X145132370Y-115247935D01*
X145082664Y-115127935D01*
X145050000Y-114963719D01*
X145050000Y-114796281D01*
X145082664Y-114632065D01*
X145146739Y-114477376D01*
X145146740Y-114477374D01*
X145239762Y-114338156D01*
X145358156Y-114219762D01*
X145497374Y-114126740D01*
X145497376Y-114126739D01*
X145652065Y-114062664D01*
X145816281Y-114030000D01*
X145983719Y-114030000D01*
X146147935Y-114062664D01*
G37*
G36*
X152447935Y-113822664D02*
G01*
X152602624Y-113886739D01*
X152602626Y-113886740D01*
X152741844Y-113979762D01*
X152860238Y-114098156D01*
X152941492Y-114219762D01*
X152953261Y-114237376D01*
X153017336Y-114392065D01*
X153050000Y-114556281D01*
X153050000Y-114723719D01*
X153017336Y-114887935D01*
X153005594Y-114916282D01*
X152953260Y-115042626D01*
X152860238Y-115181844D01*
X152741844Y-115300238D01*
X152602626Y-115393260D01*
X152602625Y-115393261D01*
X152602624Y-115393261D01*
X152447935Y-115457336D01*
X152283719Y-115490000D01*
X152116281Y-115490000D01*
X151952065Y-115457336D01*
X151797376Y-115393261D01*
X151797375Y-115393261D01*
X151797374Y-115393260D01*
X151658156Y-115300238D01*
X151539762Y-115181844D01*
X151446740Y-115042626D01*
X151394406Y-114916282D01*
X151382664Y-114887935D01*
X151350000Y-114723719D01*
X151350000Y-114556281D01*
X151382664Y-114392065D01*
X151446739Y-114237376D01*
X151458508Y-114219762D01*
X151539762Y-114098156D01*
X151658156Y-113979762D01*
X151797374Y-113886740D01*
X151797376Y-113886739D01*
X151952065Y-113822664D01*
X152116281Y-113790000D01*
X152283719Y-113790000D01*
X152447935Y-113822664D01*
G37*
G36*
X103047935Y-111642664D02*
G01*
X103137496Y-111679762D01*
X103202626Y-111706740D01*
X103341844Y-111799762D01*
X103460238Y-111918156D01*
X103473080Y-111937376D01*
X103553261Y-112057376D01*
X103617336Y-112212065D01*
X103650000Y-112376281D01*
X103650000Y-112543719D01*
X103617336Y-112707935D01*
X103602967Y-112742624D01*
X103553260Y-112862626D01*
X103460238Y-113001844D01*
X103341844Y-113120238D01*
X103202626Y-113213260D01*
X103202625Y-113213261D01*
X103202624Y-113213261D01*
X103047935Y-113277336D01*
X102883719Y-113310000D01*
X102716281Y-113310000D01*
X102552065Y-113277336D01*
X102397376Y-113213261D01*
X102397375Y-113213261D01*
X102397374Y-113213260D01*
X102258156Y-113120238D01*
X102139762Y-113001844D01*
X102046740Y-112862626D01*
X101997033Y-112742624D01*
X101982664Y-112707935D01*
X101950000Y-112543719D01*
X101950000Y-112376281D01*
X101982664Y-112212065D01*
X102046739Y-112057376D01*
X102126920Y-111937376D01*
X102139762Y-111918156D01*
X102258156Y-111799762D01*
X102397374Y-111706740D01*
X102462504Y-111679762D01*
X102552065Y-111642664D01*
X102716281Y-111610000D01*
X102883719Y-111610000D01*
X103047935Y-111642664D01*
G37*
G36*
X146147935Y-111522664D02*
G01*
X146302624Y-111586739D01*
X146302626Y-111586740D01*
X146441844Y-111679762D01*
X146560238Y-111798156D01*
X146653260Y-111937374D01*
X146653261Y-111937376D01*
X146717336Y-112092065D01*
X146750000Y-112256281D01*
X146750000Y-112423719D01*
X146717336Y-112587935D01*
X146667630Y-112707935D01*
X146653260Y-112742626D01*
X146560238Y-112881844D01*
X146441844Y-113000238D01*
X146302626Y-113093260D01*
X146302625Y-113093261D01*
X146302624Y-113093261D01*
X146147935Y-113157336D01*
X145983719Y-113190000D01*
X145816281Y-113190000D01*
X145652065Y-113157336D01*
X145497376Y-113093261D01*
X145497375Y-113093261D01*
X145497374Y-113093260D01*
X145358156Y-113000238D01*
X145239762Y-112881844D01*
X145146740Y-112742626D01*
X145132370Y-112707935D01*
X145082664Y-112587935D01*
X145050000Y-112423719D01*
X145050000Y-112256281D01*
X145082664Y-112092065D01*
X145146739Y-111937376D01*
X145146740Y-111937374D01*
X145239762Y-111798156D01*
X145358156Y-111679762D01*
X145497374Y-111586740D01*
X145497376Y-111586739D01*
X145652065Y-111522664D01*
X145816281Y-111490000D01*
X145983719Y-111490000D01*
X146147935Y-111522664D01*
G37*
G36*
X153050000Y-112950000D02*
G01*
X151350000Y-112950000D01*
X151350000Y-111250000D01*
X153050000Y-111250000D01*
X153050000Y-112950000D01*
G37*
G36*
X103047935Y-109102664D02*
G01*
X103202624Y-109166739D01*
X103202626Y-109166740D01*
X103341844Y-109259762D01*
X103460238Y-109378156D01*
X103553260Y-109517374D01*
X103553261Y-109517376D01*
X103617336Y-109672065D01*
X103650000Y-109836281D01*
X103650000Y-110003719D01*
X103617336Y-110167935D01*
X103553261Y-110322624D01*
X103553260Y-110322626D01*
X103460238Y-110461844D01*
X103341844Y-110580238D01*
X103202626Y-110673260D01*
X103202625Y-110673261D01*
X103202624Y-110673261D01*
X103047935Y-110737336D01*
X102883719Y-110770000D01*
X102716281Y-110770000D01*
X102552065Y-110737336D01*
X102397376Y-110673261D01*
X102397375Y-110673261D01*
X102397374Y-110673260D01*
X102258156Y-110580238D01*
X102139762Y-110461844D01*
X102046740Y-110322626D01*
X102046739Y-110322624D01*
X101982664Y-110167935D01*
X101950000Y-110003719D01*
X101950000Y-109836281D01*
X101982664Y-109672065D01*
X102046739Y-109517376D01*
X102046740Y-109517374D01*
X102139762Y-109378156D01*
X102258156Y-109259762D01*
X102397374Y-109166740D01*
X102397376Y-109166739D01*
X102552065Y-109102664D01*
X102716281Y-109070000D01*
X102883719Y-109070000D01*
X103047935Y-109102664D01*
G37*
G36*
X146750000Y-110650000D02*
G01*
X145050000Y-110650000D01*
X145050000Y-108950000D01*
X146750000Y-108950000D01*
X146750000Y-110650000D01*
G37*
G36*
X155747935Y-107122664D02*
G01*
X155902624Y-107186739D01*
X155902626Y-107186740D01*
X156041844Y-107279762D01*
X156160238Y-107398156D01*
X156253260Y-107537374D01*
X156253261Y-107537376D01*
X156317336Y-107692065D01*
X156350000Y-107856281D01*
X156350000Y-108023719D01*
X156317336Y-108187935D01*
X156253261Y-108342624D01*
X156253260Y-108342626D01*
X156160238Y-108481844D01*
X156041844Y-108600238D01*
X155902626Y-108693260D01*
X155902625Y-108693261D01*
X155902624Y-108693261D01*
X155747935Y-108757336D01*
X155583719Y-108790000D01*
X155416281Y-108790000D01*
X155252065Y-108757336D01*
X155097376Y-108693261D01*
X155097375Y-108693261D01*
X155097374Y-108693260D01*
X154958156Y-108600238D01*
X154839762Y-108481844D01*
X154746740Y-108342626D01*
X154746739Y-108342624D01*
X154682664Y-108187935D01*
X154650000Y-108023719D01*
X154650000Y-107856281D01*
X154682664Y-107692065D01*
X154746739Y-107537376D01*
X154746740Y-107537374D01*
X154839762Y-107398156D01*
X154958156Y-107279762D01*
X155097374Y-107186740D01*
X155097376Y-107186739D01*
X155252065Y-107122664D01*
X155416281Y-107090000D01*
X155583719Y-107090000D01*
X155747935Y-107122664D01*
G37*
G36*
X103047935Y-106562664D02*
G01*
X103202624Y-106626739D01*
X103202626Y-106626740D01*
X103341844Y-106719762D01*
X103460238Y-106838156D01*
X103553260Y-106977374D01*
X103553261Y-106977376D01*
X103617336Y-107132065D01*
X103650000Y-107296281D01*
X103650000Y-107463719D01*
X103617336Y-107627935D01*
X103590772Y-107692065D01*
X103553260Y-107782626D01*
X103460238Y-107921844D01*
X103341844Y-108040238D01*
X103202626Y-108133260D01*
X103202625Y-108133261D01*
X103202624Y-108133261D01*
X103047935Y-108197336D01*
X102883719Y-108230000D01*
X102716281Y-108230000D01*
X102552065Y-108197336D01*
X102397376Y-108133261D01*
X102397375Y-108133261D01*
X102397374Y-108133260D01*
X102258156Y-108040238D01*
X102139762Y-107921844D01*
X102046740Y-107782626D01*
X102009228Y-107692065D01*
X101982664Y-107627935D01*
X101950000Y-107463719D01*
X101950000Y-107296281D01*
X101982664Y-107132065D01*
X102046739Y-106977376D01*
X102046740Y-106977374D01*
X102139762Y-106838156D01*
X102258156Y-106719762D01*
X102397374Y-106626740D01*
X102397376Y-106626739D01*
X102552065Y-106562664D01*
X102716281Y-106530000D01*
X102883719Y-106530000D01*
X103047935Y-106562664D01*
G37*
G36*
X155747935Y-104582664D02*
G01*
X155902624Y-104646739D01*
X155902626Y-104646740D01*
X156041844Y-104739762D01*
X156160238Y-104858156D01*
X156253260Y-104997374D01*
X156253261Y-104997376D01*
X156317336Y-105152065D01*
X156350000Y-105316281D01*
X156350000Y-105483719D01*
X156317336Y-105647935D01*
X156253261Y-105802624D01*
X156253260Y-105802626D01*
X156160238Y-105941844D01*
X156041844Y-106060238D01*
X155902626Y-106153260D01*
X155902625Y-106153261D01*
X155902624Y-106153261D01*
X155747935Y-106217336D01*
X155583719Y-106250000D01*
X155416281Y-106250000D01*
X155252065Y-106217336D01*
X155097376Y-106153261D01*
X155097375Y-106153261D01*
X155097374Y-106153260D01*
X154958156Y-106060238D01*
X154839762Y-105941844D01*
X154746740Y-105802626D01*
X154746739Y-105802624D01*
X154682664Y-105647935D01*
X154650000Y-105483719D01*
X154650000Y-105316281D01*
X154682664Y-105152065D01*
X154746739Y-104997376D01*
X154746740Y-104997374D01*
X154839762Y-104858156D01*
X154958156Y-104739762D01*
X155097374Y-104646740D01*
X155097376Y-104646739D01*
X155252065Y-104582664D01*
X155416281Y-104550000D01*
X155583719Y-104550000D01*
X155747935Y-104582664D01*
G37*
G36*
X103047935Y-104022664D02*
G01*
X103202624Y-104086739D01*
X103202626Y-104086740D01*
X103341844Y-104179762D01*
X103460238Y-104298156D01*
X103553260Y-104437374D01*
X103553261Y-104437376D01*
X103617336Y-104592065D01*
X103650000Y-104756281D01*
X103650000Y-104923719D01*
X103617336Y-105087935D01*
X103590772Y-105152065D01*
X103553260Y-105242626D01*
X103460238Y-105381844D01*
X103341844Y-105500238D01*
X103202626Y-105593260D01*
X103202625Y-105593261D01*
X103202624Y-105593261D01*
X103047935Y-105657336D01*
X102883719Y-105690000D01*
X102716281Y-105690000D01*
X102552065Y-105657336D01*
X102397376Y-105593261D01*
X102397375Y-105593261D01*
X102397374Y-105593260D01*
X102258156Y-105500238D01*
X102139762Y-105381844D01*
X102046740Y-105242626D01*
X102009228Y-105152065D01*
X101982664Y-105087935D01*
X101950000Y-104923719D01*
X101950000Y-104756281D01*
X101982664Y-104592065D01*
X102046739Y-104437376D01*
X102046740Y-104437374D01*
X102139762Y-104298156D01*
X102258156Y-104179762D01*
X102397374Y-104086740D01*
X102397376Y-104086739D01*
X102552065Y-104022664D01*
X102716281Y-103990000D01*
X102883719Y-103990000D01*
X103047935Y-104022664D01*
G37*
G36*
X155747935Y-102042664D02*
G01*
X155902624Y-102106739D01*
X155902626Y-102106740D01*
X156041844Y-102199762D01*
X156160238Y-102318156D01*
X156253260Y-102457374D01*
X156253261Y-102457376D01*
X156317336Y-102612065D01*
X156350000Y-102776281D01*
X156350000Y-102943719D01*
X156317336Y-103107935D01*
X156253261Y-103262624D01*
X156253260Y-103262626D01*
X156160238Y-103401844D01*
X156041844Y-103520238D01*
X155902626Y-103613260D01*
X155902625Y-103613261D01*
X155902624Y-103613261D01*
X155747935Y-103677336D01*
X155583719Y-103710000D01*
X155416281Y-103710000D01*
X155252065Y-103677336D01*
X155097376Y-103613261D01*
X155097375Y-103613261D01*
X155097374Y-103613260D01*
X154958156Y-103520238D01*
X154839762Y-103401844D01*
X154746740Y-103262626D01*
X154746739Y-103262624D01*
X154682664Y-103107935D01*
X154650000Y-102943719D01*
X154650000Y-102776281D01*
X154682664Y-102612065D01*
X154746739Y-102457376D01*
X154746740Y-102457374D01*
X154839762Y-102318156D01*
X154958156Y-102199762D01*
X155097374Y-102106740D01*
X155097376Y-102106739D01*
X155252065Y-102042664D01*
X155416281Y-102010000D01*
X155583719Y-102010000D01*
X155747935Y-102042664D01*
G37*
G36*
X103650000Y-103150000D02*
G01*
X101950000Y-103150000D01*
X101950000Y-101450000D01*
X103650000Y-101450000D01*
X103650000Y-103150000D01*
G37*
G36*
X155747935Y-99502664D02*
G01*
X155902624Y-99566739D01*
X155902626Y-99566740D01*
X156041844Y-99659762D01*
X156160238Y-99778156D01*
X156253260Y-99917374D01*
X156253261Y-99917376D01*
X156317336Y-100072065D01*
X156350000Y-100236281D01*
X156350000Y-100403719D01*
X156317336Y-100567935D01*
X156253261Y-100722624D01*
X156253260Y-100722626D01*
X156160238Y-100861844D01*
X156041844Y-100980238D01*
X155902626Y-101073260D01*
X155902625Y-101073261D01*
X155902624Y-101073261D01*
X155747935Y-101137336D01*
X155583719Y-101170000D01*
X155416281Y-101170000D01*
X155252065Y-101137336D01*
X155097376Y-101073261D01*
X155097375Y-101073261D01*
X155097374Y-101073260D01*
X154958156Y-100980238D01*
X154839762Y-100861844D01*
X154746740Y-100722626D01*
X154746739Y-100722624D01*
X154682664Y-100567935D01*
X154650000Y-100403719D01*
X154650000Y-100236281D01*
X154682664Y-100072065D01*
X154746739Y-99917376D01*
X154746740Y-99917374D01*
X154839762Y-99778156D01*
X154958156Y-99659762D01*
X155097374Y-99566740D01*
X155097376Y-99566739D01*
X155252065Y-99502664D01*
X155416281Y-99470000D01*
X155583719Y-99470000D01*
X155747935Y-99502664D01*
G37*
G36*
X155747935Y-96962664D02*
G01*
X155902624Y-97026739D01*
X155902626Y-97026740D01*
X156041844Y-97119762D01*
X156160238Y-97238156D01*
X156253260Y-97377374D01*
X156253261Y-97377376D01*
X156317336Y-97532065D01*
X156350000Y-97696281D01*
X156350000Y-97863719D01*
X156317336Y-98027935D01*
X156253261Y-98182624D01*
X156253260Y-98182626D01*
X156160238Y-98321844D01*
X156041844Y-98440238D01*
X155902626Y-98533260D01*
X155902625Y-98533261D01*
X155902624Y-98533261D01*
X155747935Y-98597336D01*
X155583719Y-98630000D01*
X155416281Y-98630000D01*
X155252065Y-98597336D01*
X155097376Y-98533261D01*
X155097375Y-98533261D01*
X155097374Y-98533260D01*
X154958156Y-98440238D01*
X154839762Y-98321844D01*
X154746740Y-98182626D01*
X154746739Y-98182624D01*
X154682664Y-98027935D01*
X154650000Y-97863719D01*
X154650000Y-97696281D01*
X154682664Y-97532065D01*
X154746739Y-97377376D01*
X154746740Y-97377374D01*
X154839762Y-97238156D01*
X154958156Y-97119762D01*
X155097374Y-97026740D01*
X155097376Y-97026739D01*
X155252065Y-96962664D01*
X155416281Y-96930000D01*
X155583719Y-96930000D01*
X155747935Y-96962664D01*
G37*
G36*
X155747935Y-94422664D02*
G01*
X155902624Y-94486739D01*
X155902626Y-94486740D01*
X156041844Y-94579762D01*
X156160238Y-94698156D01*
X156253260Y-94837374D01*
X156253261Y-94837376D01*
X156317336Y-94992065D01*
X156350000Y-95156281D01*
X156350000Y-95323719D01*
X156317336Y-95487935D01*
X156253261Y-95642624D01*
X156253260Y-95642626D01*
X156160238Y-95781844D01*
X156041844Y-95900238D01*
X155902626Y-95993260D01*
X155902625Y-95993261D01*
X155902624Y-95993261D01*
X155747935Y-96057336D01*
X155583719Y-96090000D01*
X155416281Y-96090000D01*
X155252065Y-96057336D01*
X155097376Y-95993261D01*
X155097375Y-95993261D01*
X155097374Y-95993260D01*
X154958156Y-95900238D01*
X154839762Y-95781844D01*
X154746740Y-95642626D01*
X154746739Y-95642624D01*
X154682664Y-95487935D01*
X154650000Y-95323719D01*
X154650000Y-95156281D01*
X154682664Y-94992065D01*
X154746739Y-94837376D01*
X154746740Y-94837374D01*
X154839762Y-94698156D01*
X154958156Y-94579762D01*
X155097374Y-94486740D01*
X155097376Y-94486739D01*
X155252065Y-94422664D01*
X155416281Y-94390000D01*
X155583719Y-94390000D01*
X155747935Y-94422664D01*
G37*
G36*
X155747935Y-91882664D02*
G01*
X155902624Y-91946739D01*
X155902626Y-91946740D01*
X156041844Y-92039762D01*
X156160238Y-92158156D01*
X156253260Y-92297374D01*
X156253261Y-92297376D01*
X156317336Y-92452065D01*
X156350000Y-92616281D01*
X156350000Y-92783719D01*
X156317336Y-92947935D01*
X156253261Y-93102624D01*
X156253260Y-93102626D01*
X156160238Y-93241844D01*
X156041844Y-93360238D01*
X155902626Y-93453260D01*
X155902625Y-93453261D01*
X155902624Y-93453261D01*
X155747935Y-93517336D01*
X155583719Y-93550000D01*
X155416281Y-93550000D01*
X155252065Y-93517336D01*
X155097376Y-93453261D01*
X155097375Y-93453261D01*
X155097374Y-93453260D01*
X154958156Y-93360238D01*
X154839762Y-93241844D01*
X154746740Y-93102626D01*
X154746739Y-93102624D01*
X154682664Y-92947935D01*
X154650000Y-92783719D01*
X154650000Y-92616281D01*
X154682664Y-92452065D01*
X154746739Y-92297376D01*
X154746740Y-92297374D01*
X154839762Y-92158156D01*
X154958156Y-92039762D01*
X155097374Y-91946740D01*
X155097376Y-91946739D01*
X155252065Y-91882664D01*
X155416281Y-91850000D01*
X155583719Y-91850000D01*
X155747935Y-91882664D01*
G37*
G36*
X155747935Y-89342664D02*
G01*
X155902624Y-89406739D01*
X155902626Y-89406740D01*
X156041844Y-89499762D01*
X156160238Y-89618156D01*
X156253260Y-89757374D01*
X156253261Y-89757376D01*
X156317336Y-89912065D01*
X156350000Y-90076281D01*
X156350000Y-90243719D01*
X156317336Y-90407935D01*
X156253261Y-90562624D01*
X156253260Y-90562626D01*
X156160238Y-90701844D01*
X156041844Y-90820238D01*
X155902626Y-90913260D01*
X155902625Y-90913261D01*
X155902624Y-90913261D01*
X155747935Y-90977336D01*
X155583719Y-91010000D01*
X155416281Y-91010000D01*
X155252065Y-90977336D01*
X155097376Y-90913261D01*
X155097375Y-90913261D01*
X155097374Y-90913260D01*
X154958156Y-90820238D01*
X154839762Y-90701844D01*
X154746740Y-90562626D01*
X154746739Y-90562624D01*
X154682664Y-90407935D01*
X154650000Y-90243719D01*
X154650000Y-90076281D01*
X154682664Y-89912065D01*
X154746739Y-89757376D01*
X154746740Y-89757374D01*
X154839762Y-89618156D01*
X154958156Y-89499762D01*
X155097374Y-89406740D01*
X155097376Y-89406739D01*
X155252065Y-89342664D01*
X155416281Y-89310000D01*
X155583719Y-89310000D01*
X155747935Y-89342664D01*
G37*
G36*
X155747935Y-86802664D02*
G01*
X155902624Y-86866739D01*
X155902626Y-86866740D01*
X156041844Y-86959762D01*
X156160238Y-87078156D01*
X156253260Y-87217374D01*
X156253261Y-87217376D01*
X156317336Y-87372065D01*
X156350000Y-87536281D01*
X156350000Y-87703719D01*
X156317336Y-87867935D01*
X156253261Y-88022624D01*
X156253260Y-88022626D01*
X156160238Y-88161844D01*
X156041844Y-88280238D01*
X155902626Y-88373260D01*
X155902625Y-88373261D01*
X155902624Y-88373261D01*
X155747935Y-88437336D01*
X155583719Y-88470000D01*
X155416281Y-88470000D01*
X155252065Y-88437336D01*
X155097376Y-88373261D01*
X155097375Y-88373261D01*
X155097374Y-88373260D01*
X154958156Y-88280238D01*
X154839762Y-88161844D01*
X154746740Y-88022626D01*
X154746739Y-88022624D01*
X154682664Y-87867935D01*
X154650000Y-87703719D01*
X154650000Y-87536281D01*
X154682664Y-87372065D01*
X154746739Y-87217376D01*
X154746740Y-87217374D01*
X154839762Y-87078156D01*
X154958156Y-86959762D01*
X155097374Y-86866740D01*
X155097376Y-86866739D01*
X155252065Y-86802664D01*
X155416281Y-86770000D01*
X155583719Y-86770000D01*
X155747935Y-86802664D01*
G37*
G36*
X155747935Y-84262664D02*
G01*
X155902624Y-84326739D01*
X155902626Y-84326740D01*
X156041844Y-84419762D01*
X156160238Y-84538156D01*
X156253260Y-84677374D01*
X156253261Y-84677376D01*
X156317336Y-84832065D01*
X156350000Y-84996281D01*
X156350000Y-85163719D01*
X156317336Y-85327935D01*
X156253261Y-85482624D01*
X156253260Y-85482626D01*
X156160238Y-85621844D01*
X156041844Y-85740238D01*
X155902626Y-85833260D01*
X155902625Y-85833261D01*
X155902624Y-85833261D01*
X155747935Y-85897336D01*
X155583719Y-85930000D01*
X155416281Y-85930000D01*
X155252065Y-85897336D01*
X155097376Y-85833261D01*
X155097375Y-85833261D01*
X155097374Y-85833260D01*
X154958156Y-85740238D01*
X154839762Y-85621844D01*
X154746740Y-85482626D01*
X154746739Y-85482624D01*
X154682664Y-85327935D01*
X154650000Y-85163719D01*
X154650000Y-84996281D01*
X154682664Y-84832065D01*
X154746739Y-84677376D01*
X154746740Y-84677374D01*
X154839762Y-84538156D01*
X154958156Y-84419762D01*
X155097374Y-84326740D01*
X155097376Y-84326739D01*
X155252065Y-84262664D01*
X155416281Y-84230000D01*
X155583719Y-84230000D01*
X155747935Y-84262664D01*
G37*
G36*
X137050000Y-85150000D02*
G01*
X135350000Y-85150000D01*
X135350000Y-83450000D01*
X137050000Y-83450000D01*
X137050000Y-85150000D01*
G37*
G36*
X145550000Y-85050000D02*
G01*
X143850000Y-85050000D01*
X143850000Y-83350000D01*
X145550000Y-83350000D01*
X145550000Y-85050000D01*
G37*
G36*
X155747935Y-81722664D02*
G01*
X155902624Y-81786739D01*
X155902626Y-81786740D01*
X156041844Y-81879762D01*
X156160238Y-81998156D01*
X156253260Y-82137374D01*
X156253261Y-82137376D01*
X156317336Y-82292065D01*
X156350000Y-82456281D01*
X156350000Y-82623719D01*
X156317336Y-82787935D01*
X156253261Y-82942624D01*
X156253260Y-82942626D01*
X156160238Y-83081844D01*
X156041844Y-83200238D01*
X155902626Y-83293260D01*
X155902625Y-83293261D01*
X155902624Y-83293261D01*
X155747935Y-83357336D01*
X155583719Y-83390000D01*
X155416281Y-83390000D01*
X155252065Y-83357336D01*
X155097376Y-83293261D01*
X155097375Y-83293261D01*
X155097374Y-83293260D01*
X154958156Y-83200238D01*
X154839762Y-83081844D01*
X154746740Y-82942626D01*
X154746739Y-82942624D01*
X154682664Y-82787935D01*
X154650000Y-82623719D01*
X154650000Y-82456281D01*
X154682664Y-82292065D01*
X154746739Y-82137376D01*
X154746740Y-82137374D01*
X154839762Y-81998156D01*
X154958156Y-81879762D01*
X155097374Y-81786740D01*
X155097376Y-81786739D01*
X155252065Y-81722664D01*
X155416281Y-81690000D01*
X155583719Y-81690000D01*
X155747935Y-81722664D01*
G37*
G36*
X156350000Y-80850000D02*
G01*
X154650000Y-80850000D01*
X154650000Y-79150000D01*
X156350000Y-79150000D01*
X156350000Y-80850000D01*
G37*
G36*
X137250000Y-75350000D02*
G01*
X135550000Y-75350000D01*
X135550000Y-73650000D01*
X137250000Y-73650000D01*
X137250000Y-75350000D01*
G37*
G36*
X132050000Y-68450000D02*
G01*
X130350000Y-68450000D01*
X130350000Y-66750000D01*
X132050000Y-66750000D01*
X132050000Y-68450000D01*
G37*
G36*
X117227935Y-57982664D02*
G01*
X117382624Y-58046739D01*
X117382626Y-58046740D01*
X117521844Y-58139762D01*
X117640238Y-58258156D01*
X117733260Y-58397374D01*
X117733261Y-58397376D01*
X117797336Y-58552065D01*
X117830000Y-58716281D01*
X117830000Y-58883719D01*
X117797336Y-59047935D01*
X117733261Y-59202624D01*
X117733260Y-59202626D01*
X117640238Y-59341844D01*
X117521844Y-59460238D01*
X117382626Y-59553260D01*
X117382625Y-59553261D01*
X117382624Y-59553261D01*
X117227935Y-59617336D01*
X117063719Y-59650000D01*
X116896281Y-59650000D01*
X116732065Y-59617336D01*
X116577376Y-59553261D01*
X116577375Y-59553261D01*
X116577374Y-59553260D01*
X116438156Y-59460238D01*
X116319762Y-59341844D01*
X116226740Y-59202626D01*
X116226739Y-59202624D01*
X116162664Y-59047935D01*
X116130000Y-58883719D01*
X116130000Y-58716281D01*
X116162664Y-58552065D01*
X116226739Y-58397376D01*
X116226740Y-58397374D01*
X116319762Y-58258156D01*
X116438156Y-58139762D01*
X116577374Y-58046740D01*
X116577376Y-58046739D01*
X116732065Y-57982664D01*
X116896281Y-57950000D01*
X117063719Y-57950000D01*
X117227935Y-57982664D01*
G37*
G36*
X112750000Y-59650000D02*
G01*
X111050000Y-59650000D01*
X111050000Y-57950000D01*
X112750000Y-57950000D01*
X112750000Y-59650000D01*
G37*
G36*
X114687935Y-57982664D02*
G01*
X114842624Y-58046739D01*
X114842626Y-58046740D01*
X114981844Y-58139762D01*
X115100238Y-58258156D01*
X115193260Y-58397374D01*
X115193261Y-58397376D01*
X115257336Y-58552065D01*
X115290000Y-58716281D01*
X115290000Y-58883719D01*
X115257336Y-59047935D01*
X115193261Y-59202624D01*
X115193260Y-59202626D01*
X115100238Y-59341844D01*
X114981844Y-59460238D01*
X114842626Y-59553260D01*
X114842625Y-59553261D01*
X114842624Y-59553261D01*
X114687935Y-59617336D01*
X114523719Y-59650000D01*
X114356281Y-59650000D01*
X114192065Y-59617336D01*
X114037376Y-59553261D01*
X114037375Y-59553261D01*
X114037374Y-59553260D01*
X113898156Y-59460238D01*
X113779762Y-59341844D01*
X113686740Y-59202626D01*
X113686739Y-59202624D01*
X113622664Y-59047935D01*
X113590000Y-58883719D01*
X113590000Y-58716281D01*
X113622664Y-58552065D01*
X113686739Y-58397376D01*
X113686740Y-58397374D01*
X113779762Y-58258156D01*
X113898156Y-58139762D01*
X114037374Y-58046740D01*
X114037376Y-58046739D01*
X114192065Y-57982664D01*
X114356281Y-57950000D01*
X114523719Y-57950000D01*
X114687935Y-57982664D01*
G37*
G36*
X119767935Y-57982664D02*
G01*
X119922624Y-58046739D01*
X119922626Y-58046740D01*
X120061844Y-58139762D01*
X120180238Y-58258156D01*
X120273260Y-58397374D01*
X120273261Y-58397376D01*
X120337336Y-58552065D01*
X120370000Y-58716281D01*
X120370000Y-58883719D01*
X120337336Y-59047935D01*
X120273261Y-59202624D01*
X120273260Y-59202626D01*
X120180238Y-59341844D01*
X120061844Y-59460238D01*
X119922626Y-59553260D01*
X119922625Y-59553261D01*
X119922624Y-59553261D01*
X119767935Y-59617336D01*
X119603719Y-59650000D01*
X119436281Y-59650000D01*
X119272065Y-59617336D01*
X119117376Y-59553261D01*
X119117375Y-59553261D01*
X119117374Y-59553260D01*
X118978156Y-59460238D01*
X118859762Y-59341844D01*
X118766740Y-59202626D01*
X118766739Y-59202624D01*
X118702664Y-59047935D01*
X118670000Y-58883719D01*
X118670000Y-58716281D01*
X118702664Y-58552065D01*
X118766739Y-58397376D01*
X118766740Y-58397374D01*
X118859762Y-58258156D01*
X118978156Y-58139762D01*
X119117374Y-58046740D01*
X119117376Y-58046739D01*
X119272065Y-57982664D01*
X119436281Y-57950000D01*
X119603719Y-57950000D01*
X119767935Y-57982664D01*
G37*
G36*
X122307935Y-57982664D02*
G01*
X122462624Y-58046739D01*
X122462626Y-58046740D01*
X122601844Y-58139762D01*
X122720238Y-58258156D01*
X122813260Y-58397374D01*
X122813261Y-58397376D01*
X122877336Y-58552065D01*
X122910000Y-58716281D01*
X122910000Y-58883719D01*
X122877336Y-59047935D01*
X122813261Y-59202624D01*
X122813260Y-59202626D01*
X122720238Y-59341844D01*
X122601844Y-59460238D01*
X122462626Y-59553260D01*
X122462625Y-59553261D01*
X122462624Y-59553261D01*
X122307935Y-59617336D01*
X122143719Y-59650000D01*
X121976281Y-59650000D01*
X121812065Y-59617336D01*
X121657376Y-59553261D01*
X121657375Y-59553261D01*
X121657374Y-59553260D01*
X121518156Y-59460238D01*
X121399762Y-59341844D01*
X121306740Y-59202626D01*
X121306739Y-59202624D01*
X121242664Y-59047935D01*
X121210000Y-58883719D01*
X121210000Y-58716281D01*
X121242664Y-58552065D01*
X121306739Y-58397376D01*
X121306740Y-58397374D01*
X121399762Y-58258156D01*
X121518156Y-58139762D01*
X121657374Y-58046740D01*
X121657376Y-58046739D01*
X121812065Y-57982664D01*
X121976281Y-57950000D01*
X122143719Y-57950000D01*
X122307935Y-57982664D01*
G37*
G36*
X124847935Y-57982664D02*
G01*
X125002624Y-58046739D01*
X125002626Y-58046740D01*
X125141844Y-58139762D01*
X125260238Y-58258156D01*
X125353260Y-58397374D01*
X125353261Y-58397376D01*
X125417336Y-58552065D01*
X125450000Y-58716281D01*
X125450000Y-58883719D01*
X125417336Y-59047935D01*
X125353261Y-59202624D01*
X125353260Y-59202626D01*
X125260238Y-59341844D01*
X125141844Y-59460238D01*
X125002626Y-59553260D01*
X125002625Y-59553261D01*
X125002624Y-59553261D01*
X124847935Y-59617336D01*
X124683719Y-59650000D01*
X124516281Y-59650000D01*
X124352065Y-59617336D01*
X124197376Y-59553261D01*
X124197375Y-59553261D01*
X124197374Y-59553260D01*
X124058156Y-59460238D01*
X123939762Y-59341844D01*
X123846740Y-59202626D01*
X123846739Y-59202624D01*
X123782664Y-59047935D01*
X123750000Y-58883719D01*
X123750000Y-58716281D01*
X123782664Y-58552065D01*
X123846739Y-58397376D01*
X123846740Y-58397374D01*
X123939762Y-58258156D01*
X124058156Y-58139762D01*
X124197374Y-58046740D01*
X124197376Y-58046739D01*
X124352065Y-57982664D01*
X124516281Y-57950000D01*
X124683719Y-57950000D01*
X124847935Y-57982664D01*
G37*
G36*
X127387935Y-57982664D02*
G01*
X127542624Y-58046739D01*
X127542626Y-58046740D01*
X127681844Y-58139762D01*
X127800238Y-58258156D01*
X127893260Y-58397374D01*
X127893261Y-58397376D01*
X127957336Y-58552065D01*
X127990000Y-58716281D01*
X127990000Y-58883719D01*
X127957336Y-59047935D01*
X127893261Y-59202624D01*
X127893260Y-59202626D01*
X127800238Y-59341844D01*
X127681844Y-59460238D01*
X127542626Y-59553260D01*
X127542625Y-59553261D01*
X127542624Y-59553261D01*
X127387935Y-59617336D01*
X127223719Y-59650000D01*
X127056281Y-59650000D01*
X126892065Y-59617336D01*
X126737376Y-59553261D01*
X126737375Y-59553261D01*
X126737374Y-59553260D01*
X126598156Y-59460238D01*
X126479762Y-59341844D01*
X126386740Y-59202626D01*
X126386739Y-59202624D01*
X126322664Y-59047935D01*
X126290000Y-58883719D01*
X126290000Y-58716281D01*
X126322664Y-58552065D01*
X126386739Y-58397376D01*
X126386740Y-58397374D01*
X126479762Y-58258156D01*
X126598156Y-58139762D01*
X126737374Y-58046740D01*
X126737376Y-58046739D01*
X126892065Y-57982664D01*
X127056281Y-57950000D01*
X127223719Y-57950000D01*
X127387935Y-57982664D01*
G37*
G36*
X129927935Y-57982664D02*
G01*
X130082624Y-58046739D01*
X130082626Y-58046740D01*
X130221844Y-58139762D01*
X130340238Y-58258156D01*
X130433260Y-58397374D01*
X130433261Y-58397376D01*
X130497336Y-58552065D01*
X130530000Y-58716281D01*
X130530000Y-58883719D01*
X130497336Y-59047935D01*
X130433261Y-59202624D01*
X130433260Y-59202626D01*
X130340238Y-59341844D01*
X130221844Y-59460238D01*
X130082626Y-59553260D01*
X130082625Y-59553261D01*
X130082624Y-59553261D01*
X129927935Y-59617336D01*
X129763719Y-59650000D01*
X129596281Y-59650000D01*
X129432065Y-59617336D01*
X129277376Y-59553261D01*
X129277375Y-59553261D01*
X129277374Y-59553260D01*
X129138156Y-59460238D01*
X129019762Y-59341844D01*
X128926740Y-59202626D01*
X128926739Y-59202624D01*
X128862664Y-59047935D01*
X128830000Y-58883719D01*
X128830000Y-58716281D01*
X128862664Y-58552065D01*
X128926739Y-58397376D01*
X128926740Y-58397374D01*
X129019762Y-58258156D01*
X129138156Y-58139762D01*
X129277374Y-58046740D01*
X129277376Y-58046739D01*
X129432065Y-57982664D01*
X129596281Y-57950000D01*
X129763719Y-57950000D01*
X129927935Y-57982664D01*
G37*
G36*
X129927935Y-55442664D02*
G01*
X130082624Y-55506739D01*
X130082626Y-55506740D01*
X130221844Y-55599762D01*
X130340238Y-55718156D01*
X130433260Y-55857374D01*
X130433261Y-55857376D01*
X130497336Y-56012065D01*
X130530000Y-56176281D01*
X130530000Y-56343719D01*
X130497336Y-56507935D01*
X130433261Y-56662624D01*
X130433260Y-56662626D01*
X130340238Y-56801844D01*
X130221844Y-56920238D01*
X130082626Y-57013260D01*
X130082625Y-57013261D01*
X130082624Y-57013261D01*
X129927935Y-57077336D01*
X129763719Y-57110000D01*
X129596281Y-57110000D01*
X129432065Y-57077336D01*
X129277376Y-57013261D01*
X129277375Y-57013261D01*
X129277374Y-57013260D01*
X129138156Y-56920238D01*
X129019762Y-56801844D01*
X128926740Y-56662626D01*
X128926739Y-56662624D01*
X128862664Y-56507935D01*
X128830000Y-56343719D01*
X128830000Y-56176281D01*
X128862664Y-56012065D01*
X128926739Y-55857376D01*
X128926740Y-55857374D01*
X129019762Y-55718156D01*
X129138156Y-55599762D01*
X129277374Y-55506740D01*
X129277376Y-55506739D01*
X129432065Y-55442664D01*
X129596281Y-55410000D01*
X129763719Y-55410000D01*
X129927935Y-55442664D01*
G37*
G36*
X124847935Y-55442664D02*
G01*
X125002624Y-55506739D01*
X125002626Y-55506740D01*
X125141844Y-55599762D01*
X125260238Y-55718156D01*
X125353260Y-55857374D01*
X125353261Y-55857376D01*
X125417336Y-56012065D01*
X125450000Y-56176281D01*
X125450000Y-56343719D01*
X125417336Y-56507935D01*
X125353261Y-56662624D01*
X125353260Y-56662626D01*
X125260238Y-56801844D01*
X125141844Y-56920238D01*
X125002626Y-57013260D01*
X125002625Y-57013261D01*
X125002624Y-57013261D01*
X124847935Y-57077336D01*
X124683719Y-57110000D01*
X124516281Y-57110000D01*
X124352065Y-57077336D01*
X124197376Y-57013261D01*
X124197375Y-57013261D01*
X124197374Y-57013260D01*
X124058156Y-56920238D01*
X123939762Y-56801844D01*
X123846740Y-56662626D01*
X123846739Y-56662624D01*
X123782664Y-56507935D01*
X123750000Y-56343719D01*
X123750000Y-56176281D01*
X123782664Y-56012065D01*
X123846739Y-55857376D01*
X123846740Y-55857374D01*
X123939762Y-55718156D01*
X124058156Y-55599762D01*
X124197374Y-55506740D01*
X124197376Y-55506739D01*
X124352065Y-55442664D01*
X124516281Y-55410000D01*
X124683719Y-55410000D01*
X124847935Y-55442664D01*
G37*
G36*
X127387935Y-55442664D02*
G01*
X127542624Y-55506739D01*
X127542626Y-55506740D01*
X127681844Y-55599762D01*
X127800238Y-55718156D01*
X127893260Y-55857374D01*
X127893261Y-55857376D01*
X127957336Y-56012065D01*
X127990000Y-56176281D01*
X127990000Y-56343719D01*
X127957336Y-56507935D01*
X127893261Y-56662624D01*
X127893260Y-56662626D01*
X127800238Y-56801844D01*
X127681844Y-56920238D01*
X127542626Y-57013260D01*
X127542625Y-57013261D01*
X127542624Y-57013261D01*
X127387935Y-57077336D01*
X127223719Y-57110000D01*
X127056281Y-57110000D01*
X126892065Y-57077336D01*
X126737376Y-57013261D01*
X126737375Y-57013261D01*
X126737374Y-57013260D01*
X126598156Y-56920238D01*
X126479762Y-56801844D01*
X126386740Y-56662626D01*
X126386739Y-56662624D01*
X126322664Y-56507935D01*
X126290000Y-56343719D01*
X126290000Y-56176281D01*
X126322664Y-56012065D01*
X126386739Y-55857376D01*
X126386740Y-55857374D01*
X126479762Y-55718156D01*
X126598156Y-55599762D01*
X126737374Y-55506740D01*
X126737376Y-55506739D01*
X126892065Y-55442664D01*
X127056281Y-55410000D01*
X127223719Y-55410000D01*
X127387935Y-55442664D01*
G37*
G36*
X122307935Y-55442664D02*
G01*
X122462624Y-55506739D01*
X122462626Y-55506740D01*
X122601844Y-55599762D01*
X122720238Y-55718156D01*
X122813260Y-55857374D01*
X122813261Y-55857376D01*
X122877336Y-56012065D01*
X122910000Y-56176281D01*
X122910000Y-56343719D01*
X122877336Y-56507935D01*
X122813261Y-56662624D01*
X122813260Y-56662626D01*
X122720238Y-56801844D01*
X122601844Y-56920238D01*
X122462626Y-57013260D01*
X122462625Y-57013261D01*
X122462624Y-57013261D01*
X122307935Y-57077336D01*
X122143719Y-57110000D01*
X121976281Y-57110000D01*
X121812065Y-57077336D01*
X121657376Y-57013261D01*
X121657375Y-57013261D01*
X121657374Y-57013260D01*
X121518156Y-56920238D01*
X121399762Y-56801844D01*
X121306740Y-56662626D01*
X121306739Y-56662624D01*
X121242664Y-56507935D01*
X121210000Y-56343719D01*
X121210000Y-56176281D01*
X121242664Y-56012065D01*
X121306739Y-55857376D01*
X121306740Y-55857374D01*
X121399762Y-55718156D01*
X121518156Y-55599762D01*
X121657374Y-55506740D01*
X121657376Y-55506739D01*
X121812065Y-55442664D01*
X121976281Y-55410000D01*
X122143719Y-55410000D01*
X122307935Y-55442664D01*
G37*
G36*
X119767935Y-55442664D02*
G01*
X119922624Y-55506739D01*
X119922626Y-55506740D01*
X120061844Y-55599762D01*
X120180238Y-55718156D01*
X120273260Y-55857374D01*
X120273261Y-55857376D01*
X120337336Y-56012065D01*
X120370000Y-56176281D01*
X120370000Y-56343719D01*
X120337336Y-56507935D01*
X120273261Y-56662624D01*
X120273260Y-56662626D01*
X120180238Y-56801844D01*
X120061844Y-56920238D01*
X119922626Y-57013260D01*
X119922625Y-57013261D01*
X119922624Y-57013261D01*
X119767935Y-57077336D01*
X119603719Y-57110000D01*
X119436281Y-57110000D01*
X119272065Y-57077336D01*
X119117376Y-57013261D01*
X119117375Y-57013261D01*
X119117374Y-57013260D01*
X118978156Y-56920238D01*
X118859762Y-56801844D01*
X118766740Y-56662626D01*
X118766739Y-56662624D01*
X118702664Y-56507935D01*
X118670000Y-56343719D01*
X118670000Y-56176281D01*
X118702664Y-56012065D01*
X118766739Y-55857376D01*
X118766740Y-55857374D01*
X118859762Y-55718156D01*
X118978156Y-55599762D01*
X119117374Y-55506740D01*
X119117376Y-55506739D01*
X119272065Y-55442664D01*
X119436281Y-55410000D01*
X119603719Y-55410000D01*
X119767935Y-55442664D01*
G37*
G36*
X117227935Y-55442664D02*
G01*
X117382624Y-55506739D01*
X117382626Y-55506740D01*
X117521844Y-55599762D01*
X117640238Y-55718156D01*
X117733260Y-55857374D01*
X117733261Y-55857376D01*
X117797336Y-56012065D01*
X117830000Y-56176281D01*
X117830000Y-56343719D01*
X117797336Y-56507935D01*
X117733261Y-56662624D01*
X117733260Y-56662626D01*
X117640238Y-56801844D01*
X117521844Y-56920238D01*
X117382626Y-57013260D01*
X117382625Y-57013261D01*
X117382624Y-57013261D01*
X117227935Y-57077336D01*
X117063719Y-57110000D01*
X116896281Y-57110000D01*
X116732065Y-57077336D01*
X116577376Y-57013261D01*
X116577375Y-57013261D01*
X116577374Y-57013260D01*
X116438156Y-56920238D01*
X116319762Y-56801844D01*
X116226740Y-56662626D01*
X116226739Y-56662624D01*
X116162664Y-56507935D01*
X116130000Y-56343719D01*
X116130000Y-56176281D01*
X116162664Y-56012065D01*
X116226739Y-55857376D01*
X116226740Y-55857374D01*
X116319762Y-55718156D01*
X116438156Y-55599762D01*
X116577374Y-55506740D01*
X116577376Y-55506739D01*
X116732065Y-55442664D01*
X116896281Y-55410000D01*
X117063719Y-55410000D01*
X117227935Y-55442664D01*
G37*
G36*
X114687935Y-55442664D02*
G01*
X114842624Y-55506739D01*
X114842626Y-55506740D01*
X114981844Y-55599762D01*
X115100238Y-55718156D01*
X115193260Y-55857374D01*
X115193261Y-55857376D01*
X115257336Y-56012065D01*
X115290000Y-56176281D01*
X115290000Y-56343719D01*
X115257336Y-56507935D01*
X115193261Y-56662624D01*
X115193260Y-56662626D01*
X115100238Y-56801844D01*
X114981844Y-56920238D01*
X114842626Y-57013260D01*
X114842625Y-57013261D01*
X114842624Y-57013261D01*
X114687935Y-57077336D01*
X114523719Y-57110000D01*
X114356281Y-57110000D01*
X114192065Y-57077336D01*
X114037376Y-57013261D01*
X114037375Y-57013261D01*
X114037374Y-57013260D01*
X113898156Y-56920238D01*
X113779762Y-56801844D01*
X113686740Y-56662626D01*
X113686739Y-56662624D01*
X113622664Y-56507935D01*
X113590000Y-56343719D01*
X113590000Y-56176281D01*
X113622664Y-56012065D01*
X113686739Y-55857376D01*
X113686740Y-55857374D01*
X113779762Y-55718156D01*
X113898156Y-55599762D01*
X114037374Y-55506740D01*
X114037376Y-55506739D01*
X114192065Y-55442664D01*
X114356281Y-55410000D01*
X114523719Y-55410000D01*
X114687935Y-55442664D01*
G37*
G36*
X112147935Y-55442664D02*
G01*
X112302624Y-55506739D01*
X112302626Y-55506740D01*
X112441844Y-55599762D01*
X112560238Y-55718156D01*
X112653260Y-55857374D01*
X112653261Y-55857376D01*
X112717336Y-56012065D01*
X112750000Y-56176281D01*
X112750000Y-56343719D01*
X112717336Y-56507935D01*
X112653261Y-56662624D01*
X112653260Y-56662626D01*
X112560238Y-56801844D01*
X112441844Y-56920238D01*
X112302626Y-57013260D01*
X112302625Y-57013261D01*
X112302624Y-57013261D01*
X112147935Y-57077336D01*
X111983719Y-57110000D01*
X111816281Y-57110000D01*
X111652065Y-57077336D01*
X111497376Y-57013261D01*
X111497375Y-57013261D01*
X111497374Y-57013260D01*
X111358156Y-56920238D01*
X111239762Y-56801844D01*
X111146740Y-56662626D01*
X111146739Y-56662624D01*
X111082664Y-56507935D01*
X111050000Y-56343719D01*
X111050000Y-56176281D01*
X111082664Y-56012065D01*
X111146739Y-55857376D01*
X111146740Y-55857374D01*
X111239762Y-55718156D01*
X111358156Y-55599762D01*
X111497374Y-55506740D01*
X111497376Y-55506739D01*
X111652065Y-55442664D01*
X111816281Y-55410000D01*
X111983719Y-55410000D01*
X112147935Y-55442664D01*
G37*
M02*
