G04 #@! TF.GenerationSoftware,KiCad,Pcbnew,(5.1.5)-3*
G04 #@! TF.CreationDate,2020-05-16T16:23:17+01:00*
G04 #@! TF.ProjectId,AddaTone components,41646461-546f-46e6-9520-636f6d706f6e,rev?*
G04 #@! TF.SameCoordinates,Original*
G04 #@! TF.FileFunction,Legend,Bot*
G04 #@! TF.FilePolarity,Positive*
%FSLAX46Y46*%
G04 Gerber Fmt 4.6, Leading zero omitted, Abs format (unit mm)*
G04 Created by KiCad (PCBNEW (5.1.5)-3) date 2020-05-16 16:23:17*
%MOMM*%
%LPD*%
G04 APERTURE LIST*
%ADD10C,0.300000*%
%ADD11C,0.120000*%
G04 APERTURE END LIST*
D10*
X117322857Y-120292857D02*
X117822857Y-120292857D01*
X117822857Y-121078571D02*
X117822857Y-119578571D01*
X117108571Y-119578571D01*
X116537142Y-121078571D02*
X116537142Y-119578571D01*
X115965714Y-119578571D01*
X115822857Y-119650000D01*
X115751428Y-119721428D01*
X115680000Y-119864285D01*
X115680000Y-120078571D01*
X115751428Y-120221428D01*
X115822857Y-120292857D01*
X115965714Y-120364285D01*
X116537142Y-120364285D01*
X114251428Y-119650000D02*
X114394285Y-119578571D01*
X114608571Y-119578571D01*
X114822857Y-119650000D01*
X114965714Y-119792857D01*
X115037142Y-119935714D01*
X115108571Y-120221428D01*
X115108571Y-120435714D01*
X115037142Y-120721428D01*
X114965714Y-120864285D01*
X114822857Y-121007142D01*
X114608571Y-121078571D01*
X114465714Y-121078571D01*
X114251428Y-121007142D01*
X114180000Y-120935714D01*
X114180000Y-120435714D01*
X114465714Y-120435714D01*
X113608571Y-120650000D02*
X112894285Y-120650000D01*
X113751428Y-121078571D02*
X113251428Y-119578571D01*
X112751428Y-121078571D01*
X111251428Y-119578571D02*
X110322857Y-119578571D01*
X110822857Y-120150000D01*
X110608571Y-120150000D01*
X110465714Y-120221428D01*
X110394285Y-120292857D01*
X110322857Y-120435714D01*
X110322857Y-120792857D01*
X110394285Y-120935714D01*
X110465714Y-121007142D01*
X110608571Y-121078571D01*
X111037142Y-121078571D01*
X111180000Y-121007142D01*
X111251428Y-120935714D01*
X109894285Y-119578571D02*
X109394285Y-121078571D01*
X108894285Y-119578571D01*
X108537142Y-119578571D02*
X107608571Y-119578571D01*
X108108571Y-120150000D01*
X107894285Y-120150000D01*
X107751428Y-120221428D01*
X107680000Y-120292857D01*
X107608571Y-120435714D01*
X107608571Y-120792857D01*
X107680000Y-120935714D01*
X107751428Y-121007142D01*
X107894285Y-121078571D01*
X108322857Y-121078571D01*
X108465714Y-121007142D01*
X108537142Y-120935714D01*
X139333333Y-94383333D02*
X138380952Y-94383333D01*
X139523809Y-94954761D02*
X138857142Y-92954761D01*
X138190476Y-94954761D01*
X136666666Y-94954761D02*
X136666666Y-92954761D01*
X136666666Y-94859523D02*
X136857142Y-94954761D01*
X137238095Y-94954761D01*
X137428571Y-94859523D01*
X137523809Y-94764285D01*
X137619047Y-94573809D01*
X137619047Y-94002380D01*
X137523809Y-93811904D01*
X137428571Y-93716666D01*
X137238095Y-93621428D01*
X136857142Y-93621428D01*
X136666666Y-93716666D01*
X134857142Y-94954761D02*
X134857142Y-92954761D01*
X134857142Y-94859523D02*
X135047619Y-94954761D01*
X135428571Y-94954761D01*
X135619047Y-94859523D01*
X135714285Y-94764285D01*
X135809523Y-94573809D01*
X135809523Y-94002380D01*
X135714285Y-93811904D01*
X135619047Y-93716666D01*
X135428571Y-93621428D01*
X135047619Y-93621428D01*
X134857142Y-93716666D01*
X133047619Y-94954761D02*
X133047619Y-93907142D01*
X133142857Y-93716666D01*
X133333333Y-93621428D01*
X133714285Y-93621428D01*
X133904761Y-93716666D01*
X133047619Y-94859523D02*
X133238095Y-94954761D01*
X133714285Y-94954761D01*
X133904761Y-94859523D01*
X134000000Y-94669047D01*
X134000000Y-94478571D01*
X133904761Y-94288095D01*
X133714285Y-94192857D01*
X133238095Y-94192857D01*
X133047619Y-94097619D01*
X132380952Y-93621428D02*
X131619047Y-93621428D01*
X132095238Y-92954761D02*
X132095238Y-94669047D01*
X132000000Y-94859523D01*
X131809523Y-94954761D01*
X131619047Y-94954761D01*
X130666666Y-94954761D02*
X130857142Y-94859523D01*
X130952380Y-94764285D01*
X131047619Y-94573809D01*
X131047619Y-94002380D01*
X130952380Y-93811904D01*
X130857142Y-93716666D01*
X130666666Y-93621428D01*
X130380952Y-93621428D01*
X130190476Y-93716666D01*
X130095238Y-93811904D01*
X130000000Y-94002380D01*
X130000000Y-94573809D01*
X130095238Y-94764285D01*
X130190476Y-94859523D01*
X130380952Y-94954761D01*
X130666666Y-94954761D01*
X129142857Y-93621428D02*
X129142857Y-94954761D01*
X129142857Y-93811904D02*
X129047619Y-93716666D01*
X128857142Y-93621428D01*
X128571428Y-93621428D01*
X128380952Y-93716666D01*
X128285714Y-93907142D01*
X128285714Y-94954761D01*
X126571428Y-94859523D02*
X126761904Y-94954761D01*
X127142857Y-94954761D01*
X127333333Y-94859523D01*
X127428571Y-94669047D01*
X127428571Y-93907142D01*
X127333333Y-93716666D01*
X127142857Y-93621428D01*
X126761904Y-93621428D01*
X126571428Y-93716666D01*
X126476190Y-93907142D01*
X126476190Y-94097619D01*
X127428571Y-94288095D01*
X124285714Y-93621428D02*
X123809523Y-94954761D01*
X123333333Y-93621428D01*
X121523809Y-94954761D02*
X122666666Y-94954761D01*
X122095238Y-94954761D02*
X122095238Y-92954761D01*
X122285714Y-93240476D01*
X122476190Y-93430952D01*
X122666666Y-93526190D01*
X120666666Y-94764285D02*
X120571428Y-94859523D01*
X120666666Y-94954761D01*
X120761904Y-94859523D01*
X120666666Y-94764285D01*
X120666666Y-94954761D01*
X119333333Y-92954761D02*
X119142857Y-92954761D01*
X118952380Y-93050000D01*
X118857142Y-93145238D01*
X118761904Y-93335714D01*
X118666666Y-93716666D01*
X118666666Y-94192857D01*
X118761904Y-94573809D01*
X118857142Y-94764285D01*
X118952380Y-94859523D01*
X119142857Y-94954761D01*
X119333333Y-94954761D01*
X119523809Y-94859523D01*
X119619047Y-94764285D01*
X119714285Y-94573809D01*
X119809523Y-94192857D01*
X119809523Y-93716666D01*
X119714285Y-93335714D01*
X119619047Y-93145238D01*
X119523809Y-93050000D01*
X119333333Y-92954761D01*
X141761904Y-98254761D02*
X141761904Y-96254761D01*
X141095238Y-97683333D01*
X140428571Y-96254761D01*
X140428571Y-98254761D01*
X139190476Y-98254761D02*
X139380952Y-98159523D01*
X139476190Y-98064285D01*
X139571428Y-97873809D01*
X139571428Y-97302380D01*
X139476190Y-97111904D01*
X139380952Y-97016666D01*
X139190476Y-96921428D01*
X138904761Y-96921428D01*
X138714285Y-97016666D01*
X138619047Y-97111904D01*
X138523809Y-97302380D01*
X138523809Y-97873809D01*
X138619047Y-98064285D01*
X138714285Y-98159523D01*
X138904761Y-98254761D01*
X139190476Y-98254761D01*
X136809523Y-96921428D02*
X136809523Y-98254761D01*
X137666666Y-96921428D02*
X137666666Y-97969047D01*
X137571428Y-98159523D01*
X137380952Y-98254761D01*
X137095238Y-98254761D01*
X136904761Y-98159523D01*
X136809523Y-98064285D01*
X135857142Y-96921428D02*
X135857142Y-98254761D01*
X135857142Y-97111904D02*
X135761904Y-97016666D01*
X135571428Y-96921428D01*
X135285714Y-96921428D01*
X135095238Y-97016666D01*
X135000000Y-97207142D01*
X135000000Y-98254761D01*
X134333333Y-96921428D02*
X133571428Y-96921428D01*
X134047619Y-96254761D02*
X134047619Y-97969047D01*
X133952380Y-98159523D01*
X133761904Y-98254761D01*
X133571428Y-98254761D01*
X132904761Y-96921428D02*
X132904761Y-98635714D01*
X133000000Y-98826190D01*
X133190476Y-98921428D01*
X133285714Y-98921428D01*
X132904761Y-96254761D02*
X133000000Y-96350000D01*
X132904761Y-96445238D01*
X132809523Y-96350000D01*
X132904761Y-96254761D01*
X132904761Y-96445238D01*
X131666666Y-98254761D02*
X131857142Y-98159523D01*
X131952380Y-98064285D01*
X132047619Y-97873809D01*
X132047619Y-97302380D01*
X131952380Y-97111904D01*
X131857142Y-97016666D01*
X131666666Y-96921428D01*
X131380952Y-96921428D01*
X131190476Y-97016666D01*
X131095238Y-97111904D01*
X131000000Y-97302380D01*
X131000000Y-97873809D01*
X131095238Y-98064285D01*
X131190476Y-98159523D01*
X131380952Y-98254761D01*
X131666666Y-98254761D01*
X130333333Y-96921428D02*
X129857142Y-98254761D01*
X129380952Y-96921428D02*
X129857142Y-98254761D01*
X130047619Y-98730952D01*
X130142857Y-98826190D01*
X130333333Y-98921428D01*
X127095238Y-98254761D02*
X127095238Y-96254761D01*
X126428571Y-97683333D01*
X125761904Y-96254761D01*
X125761904Y-98254761D01*
X124523809Y-98254761D02*
X124714285Y-98159523D01*
X124809523Y-98064285D01*
X124904761Y-97873809D01*
X124904761Y-97302380D01*
X124809523Y-97111904D01*
X124714285Y-97016666D01*
X124523809Y-96921428D01*
X124238095Y-96921428D01*
X124047619Y-97016666D01*
X123952380Y-97111904D01*
X123857142Y-97302380D01*
X123857142Y-97873809D01*
X123952380Y-98064285D01*
X124047619Y-98159523D01*
X124238095Y-98254761D01*
X124523809Y-98254761D01*
X122142857Y-98254761D02*
X122142857Y-96254761D01*
X122142857Y-98159523D02*
X122333333Y-98254761D01*
X122714285Y-98254761D01*
X122904761Y-98159523D01*
X123000000Y-98064285D01*
X123095238Y-97873809D01*
X123095238Y-97302380D01*
X123000000Y-97111904D01*
X122904761Y-97016666D01*
X122714285Y-96921428D01*
X122333333Y-96921428D01*
X122142857Y-97016666D01*
X120333333Y-96921428D02*
X120333333Y-98254761D01*
X121190476Y-96921428D02*
X121190476Y-97969047D01*
X121095238Y-98159523D01*
X120904761Y-98254761D01*
X120619047Y-98254761D01*
X120428571Y-98159523D01*
X120333333Y-98064285D01*
X119095238Y-98254761D02*
X119285714Y-98159523D01*
X119380952Y-97969047D01*
X119380952Y-96254761D01*
X117476190Y-98254761D02*
X117476190Y-97207142D01*
X117571428Y-97016666D01*
X117761904Y-96921428D01*
X118142857Y-96921428D01*
X118333333Y-97016666D01*
X117476190Y-98159523D02*
X117666666Y-98254761D01*
X118142857Y-98254761D01*
X118333333Y-98159523D01*
X118428571Y-97969047D01*
X118428571Y-97778571D01*
X118333333Y-97588095D01*
X118142857Y-97492857D01*
X117666666Y-97492857D01*
X117476190Y-97397619D01*
X116523809Y-98254761D02*
X116523809Y-96921428D01*
X116523809Y-97302380D02*
X116428571Y-97111904D01*
X116333333Y-97016666D01*
X116142857Y-96921428D01*
X115952380Y-96921428D01*
D11*
X121060000Y-121330000D02*
X121060000Y-119330000D01*
X118920000Y-119330000D02*
X118920000Y-121330000D01*
M02*
