M48
; DRILL file {KiCad (5.1.5)-3} date 14/05/2020 10:56:37
; FORMAT={-:-/ absolute / inch / decimal}
; #@! TF.CreationDate,2020-05-14T10:56:37+01:00
; #@! TF.GenerationSoftware,Kicad,Pcbnew,(5.1.5)-3
; #@! TF.FileFunction,Plated,1,2,PTH
FMAT,2
INCH
T1C0.0118
T2C0.0157
T3C0.0394
T4C0.0630
%
G90
G05
T1
X4.5709Y-5.2402
X4.5709Y-5.3504
X4.5709Y-5.2953
X4.626Y-5.2402
X4.626Y-5.2953
X4.626Y-5.3504
X4.6811Y-5.2953
X4.6811Y-5.2402
X4.6811Y-5.3504
T2
X4.1535Y-2.7992
X4.189Y-3.8661
X4.2559Y-5.6339
X4.2795Y-4.9803
X4.4173Y-3.2677
X4.4252Y-4.2047
X4.4252Y-5.437
X4.4724Y-4.748
X4.4843Y-5.5276
X4.5079Y-6.0354
X4.5236Y-5.8071
X4.563Y-3.8937
X4.5669Y-4.437
X4.5866Y-4.5079
X4.6457Y-3.5315
X4.6772Y-2.9252
X4.6811Y-4.1535
X4.6831Y-5.9252
X4.7244Y-4.9449
X4.7933Y-3.3169
X4.7953Y-4.1535
X4.7953Y-4.5079
X4.7954Y-4.2461
X4.8031Y-3.4882
X4.8031Y-5.4685
X4.8228Y-4.6496
X4.8465Y-5.1102
X4.8819Y-5.2953
X4.9213Y-4.9016
X4.9252Y-4.6496
X4.9291Y-4.0591
X4.9488Y-4.9331
X4.9528Y-3.9764
X4.9606Y-4.7087
X4.9803Y-3.9331
X4.9961Y-4.6535
X5.0Y-4.7795
X5.0157Y-4.189
X5.0393Y-5.0393
X5.0394Y-4.6535
X5.0512Y-3.2323
X5.0512Y-3.8622
X5.0827Y-5.2756
X5.0906Y-5.0886
X5.1142Y-4.6535
X5.1142Y-5.0079
X5.126Y-5.5886
X5.1535Y-4.4882
X5.1535Y-4.878
X5.1929Y-4.3937
X5.1929Y-4.9173
X5.1969Y-5.9331
X5.2323Y-5.4606
X5.248Y-4.3346
X5.2846Y-5.422
X5.2852Y-5.577
X5.2913Y-6.0276
X5.3012Y-4.9449
X5.3228Y-3.7205
X5.3386Y-4.7165
X5.3465Y-3.7559
X5.4134Y-4.0827
X5.4134Y-4.5787
X5.4567Y-5.6063
X5.4606Y-4.6457
X5.4646Y-4.2087
X5.4724Y-3.0512
X5.4921Y-4.7126
X5.5197Y-5.4134
X5.552Y-2.8236
X5.5709Y-4.1457
X5.685Y-5.7835
X5.689Y-5.2126
X5.7323Y-6.122
X5.7559Y-3.8346
X5.7638Y-5.5512
X5.7854Y-3.0492
X5.8091Y-5.4272
X5.9409Y-2.5984
X6.0Y-2.9528
X6.0039Y-5.7913
X6.0118Y-5.5748
X6.0551Y-2.1024
X6.122Y-5.1614
X6.1457Y-5.9843
X6.1969Y-2.4213
X6.2559Y-2.5827
T3
X5.3622Y-3.3189
X5.1654Y-2.6614
X5.5866Y-4.8803
X5.5866Y-4.9803
X5.6866Y-4.8803
X5.6866Y-4.9803
X5.7866Y-4.8803
X5.7866Y-4.9803
X5.9921Y-4.4134
X5.9921Y-4.5134
X5.9921Y-4.6134
X5.063Y-6.1417
X5.163Y-6.1417
X5.263Y-6.1417
X4.0472Y-4.0276
X4.0472Y-4.1276
X4.0472Y-4.2276
X4.0472Y-4.3276
X4.0472Y-4.4276
X4.0472Y-4.5276
X4.0472Y-4.6276
X4.0472Y-4.7276
X4.0472Y-4.8276
X4.0472Y-4.9276
X4.5945Y-5.5906
X4.6945Y-5.5906
X5.6969Y-3.315
X4.1772Y-6.126
X4.4055Y-2.215
X4.4055Y-2.315
X4.5055Y-2.215
X4.5055Y-2.315
X4.6055Y-2.215
X4.6055Y-2.315
X4.7055Y-2.215
X4.7055Y-2.315
X4.8055Y-2.215
X4.8055Y-2.315
X4.9055Y-2.215
X4.9055Y-2.315
X5.0055Y-2.215
X5.0055Y-2.315
X5.1055Y-2.215
X5.1055Y-2.315
X5.3701Y-2.9331
X6.122Y-3.1496
X6.122Y-3.2496
X6.122Y-3.3496
X6.122Y-3.4496
X6.122Y-3.5496
X6.122Y-3.6496
X6.122Y-3.7496
X6.122Y-3.8496
X6.122Y-3.9496
X6.122Y-4.0496
X6.122Y-4.1496
X6.122Y-4.2496
X4.8307Y-4.8031
X5.7441Y-4.3228
X5.7441Y-4.4228
X5.7441Y-4.5228
X5.7441Y-4.6228
T4
X4.0827Y-5.9488
T0
M30
