G04 #@! TF.GenerationSoftware,KiCad,Pcbnew,(5.1.5)-3*
G04 #@! TF.CreationDate,2020-05-17T16:45:54+01:00*
G04 #@! TF.ProjectId,Addatone Panel,41646461-746f-46e6-9520-50616e656c2e,rev?*
G04 #@! TF.SameCoordinates,Original*
G04 #@! TF.FileFunction,Copper,L1,Top*
G04 #@! TF.FilePolarity,Positive*
%FSLAX46Y46*%
G04 Gerber Fmt 4.6, Leading zero omitted, Abs format (unit mm)*
G04 Created by KiCad (PCBNEW (5.1.5)-3) date 2020-05-17 16:45:54*
%MOMM*%
%LPD*%
G04 APERTURE LIST*
%ADD10R,0.500000X0.900000*%
%ADD11C,0.254000*%
G04 APERTURE END LIST*
D10*
X128680000Y-56000000D03*
X130180000Y-56000000D03*
D11*
G36*
X159715001Y-168215000D02*
G01*
X100285000Y-168215000D01*
X100285000Y-165900000D01*
X103954186Y-165900000D01*
X103997339Y-166338137D01*
X104125138Y-166759436D01*
X104332674Y-167147707D01*
X104611970Y-167488030D01*
X104952293Y-167767326D01*
X105340564Y-167974862D01*
X105761863Y-168102661D01*
X106090204Y-168135000D01*
X108109796Y-168135000D01*
X108438137Y-168102661D01*
X108859436Y-167974862D01*
X109247707Y-167767326D01*
X109588030Y-167488030D01*
X109867326Y-167147707D01*
X110074862Y-166759436D01*
X110202661Y-166338137D01*
X110245814Y-165900000D01*
X149754186Y-165900000D01*
X149797339Y-166338137D01*
X149925138Y-166759436D01*
X150132674Y-167147707D01*
X150411970Y-167488030D01*
X150752293Y-167767326D01*
X151140564Y-167974862D01*
X151561863Y-168102661D01*
X151890204Y-168135000D01*
X153909796Y-168135000D01*
X154238137Y-168102661D01*
X154659436Y-167974862D01*
X155047707Y-167767326D01*
X155388030Y-167488030D01*
X155667326Y-167147707D01*
X155874862Y-166759436D01*
X156002661Y-166338137D01*
X156045814Y-165900000D01*
X156002661Y-165461863D01*
X155874862Y-165040564D01*
X155667326Y-164652293D01*
X155388030Y-164311970D01*
X155047707Y-164032674D01*
X154659436Y-163825138D01*
X154238137Y-163697339D01*
X153909796Y-163665000D01*
X151890204Y-163665000D01*
X151561863Y-163697339D01*
X151140564Y-163825138D01*
X150752293Y-164032674D01*
X150411970Y-164311970D01*
X150132674Y-164652293D01*
X149925138Y-165040564D01*
X149797339Y-165461863D01*
X149754186Y-165900000D01*
X110245814Y-165900000D01*
X110202661Y-165461863D01*
X110074862Y-165040564D01*
X109867326Y-164652293D01*
X109588030Y-164311970D01*
X109247707Y-164032674D01*
X108859436Y-163825138D01*
X108438137Y-163697339D01*
X108109796Y-163665000D01*
X106090204Y-163665000D01*
X105761863Y-163697339D01*
X105340564Y-163825138D01*
X104952293Y-164032674D01*
X104611970Y-164311970D01*
X104332674Y-164652293D01*
X104125138Y-165040564D01*
X103997339Y-165461863D01*
X103954186Y-165900000D01*
X100285000Y-165900000D01*
X100285000Y-150641984D01*
X101365000Y-150641984D01*
X101365000Y-151358016D01*
X101504691Y-152060290D01*
X101778705Y-152721818D01*
X102176511Y-153317177D01*
X102682823Y-153823489D01*
X103278182Y-154221295D01*
X103939710Y-154495309D01*
X104641984Y-154635000D01*
X105358016Y-154635000D01*
X106060290Y-154495309D01*
X106721818Y-154221295D01*
X107317177Y-153823489D01*
X107823489Y-153317177D01*
X108221295Y-152721818D01*
X108495309Y-152060290D01*
X108635000Y-151358016D01*
X108635000Y-150641984D01*
X111365000Y-150641984D01*
X111365000Y-151358016D01*
X111504691Y-152060290D01*
X111778705Y-152721818D01*
X112176511Y-153317177D01*
X112682823Y-153823489D01*
X113278182Y-154221295D01*
X113939710Y-154495309D01*
X114641984Y-154635000D01*
X115358016Y-154635000D01*
X116060290Y-154495309D01*
X116721818Y-154221295D01*
X117317177Y-153823489D01*
X117823489Y-153317177D01*
X118221295Y-152721818D01*
X118495309Y-152060290D01*
X118635000Y-151358016D01*
X118635000Y-150641984D01*
X121365000Y-150641984D01*
X121365000Y-151358016D01*
X121504691Y-152060290D01*
X121778705Y-152721818D01*
X122176511Y-153317177D01*
X122682823Y-153823489D01*
X123278182Y-154221295D01*
X123939710Y-154495309D01*
X124641984Y-154635000D01*
X125358016Y-154635000D01*
X126060290Y-154495309D01*
X126721818Y-154221295D01*
X127317177Y-153823489D01*
X127823489Y-153317177D01*
X128221295Y-152721818D01*
X128495309Y-152060290D01*
X128635000Y-151358016D01*
X128635000Y-150641984D01*
X131365000Y-150641984D01*
X131365000Y-151358016D01*
X131504691Y-152060290D01*
X131778705Y-152721818D01*
X132176511Y-153317177D01*
X132682823Y-153823489D01*
X133278182Y-154221295D01*
X133939710Y-154495309D01*
X134641984Y-154635000D01*
X135358016Y-154635000D01*
X136060290Y-154495309D01*
X136721818Y-154221295D01*
X137317177Y-153823489D01*
X137823489Y-153317177D01*
X138221295Y-152721818D01*
X138495309Y-152060290D01*
X138635000Y-151358016D01*
X138635000Y-150641984D01*
X141365000Y-150641984D01*
X141365000Y-151358016D01*
X141504691Y-152060290D01*
X141778705Y-152721818D01*
X142176511Y-153317177D01*
X142682823Y-153823489D01*
X143278182Y-154221295D01*
X143939710Y-154495309D01*
X144641984Y-154635000D01*
X145358016Y-154635000D01*
X146060290Y-154495309D01*
X146721818Y-154221295D01*
X147317177Y-153823489D01*
X147823489Y-153317177D01*
X148221295Y-152721818D01*
X148495309Y-152060290D01*
X148635000Y-151358016D01*
X148635000Y-150641984D01*
X151365000Y-150641984D01*
X151365000Y-151358016D01*
X151504691Y-152060290D01*
X151778705Y-152721818D01*
X152176511Y-153317177D01*
X152682823Y-153823489D01*
X153278182Y-154221295D01*
X153939710Y-154495309D01*
X154641984Y-154635000D01*
X155358016Y-154635000D01*
X156060290Y-154495309D01*
X156721818Y-154221295D01*
X157317177Y-153823489D01*
X157823489Y-153317177D01*
X158221295Y-152721818D01*
X158495309Y-152060290D01*
X158635000Y-151358016D01*
X158635000Y-150641984D01*
X158495309Y-149939710D01*
X158221295Y-149278182D01*
X157823489Y-148682823D01*
X157317177Y-148176511D01*
X156721818Y-147778705D01*
X156060290Y-147504691D01*
X155358016Y-147365000D01*
X154641984Y-147365000D01*
X153939710Y-147504691D01*
X153278182Y-147778705D01*
X152682823Y-148176511D01*
X152176511Y-148682823D01*
X151778705Y-149278182D01*
X151504691Y-149939710D01*
X151365000Y-150641984D01*
X148635000Y-150641984D01*
X148495309Y-149939710D01*
X148221295Y-149278182D01*
X147823489Y-148682823D01*
X147317177Y-148176511D01*
X146721818Y-147778705D01*
X146060290Y-147504691D01*
X145358016Y-147365000D01*
X144641984Y-147365000D01*
X143939710Y-147504691D01*
X143278182Y-147778705D01*
X142682823Y-148176511D01*
X142176511Y-148682823D01*
X141778705Y-149278182D01*
X141504691Y-149939710D01*
X141365000Y-150641984D01*
X138635000Y-150641984D01*
X138495309Y-149939710D01*
X138221295Y-149278182D01*
X137823489Y-148682823D01*
X137317177Y-148176511D01*
X136721818Y-147778705D01*
X136060290Y-147504691D01*
X135358016Y-147365000D01*
X134641984Y-147365000D01*
X133939710Y-147504691D01*
X133278182Y-147778705D01*
X132682823Y-148176511D01*
X132176511Y-148682823D01*
X131778705Y-149278182D01*
X131504691Y-149939710D01*
X131365000Y-150641984D01*
X128635000Y-150641984D01*
X128495309Y-149939710D01*
X128221295Y-149278182D01*
X127823489Y-148682823D01*
X127317177Y-148176511D01*
X126721818Y-147778705D01*
X126060290Y-147504691D01*
X125358016Y-147365000D01*
X124641984Y-147365000D01*
X123939710Y-147504691D01*
X123278182Y-147778705D01*
X122682823Y-148176511D01*
X122176511Y-148682823D01*
X121778705Y-149278182D01*
X121504691Y-149939710D01*
X121365000Y-150641984D01*
X118635000Y-150641984D01*
X118495309Y-149939710D01*
X118221295Y-149278182D01*
X117823489Y-148682823D01*
X117317177Y-148176511D01*
X116721818Y-147778705D01*
X116060290Y-147504691D01*
X115358016Y-147365000D01*
X114641984Y-147365000D01*
X113939710Y-147504691D01*
X113278182Y-147778705D01*
X112682823Y-148176511D01*
X112176511Y-148682823D01*
X111778705Y-149278182D01*
X111504691Y-149939710D01*
X111365000Y-150641984D01*
X108635000Y-150641984D01*
X108495309Y-149939710D01*
X108221295Y-149278182D01*
X107823489Y-148682823D01*
X107317177Y-148176511D01*
X106721818Y-147778705D01*
X106060290Y-147504691D01*
X105358016Y-147365000D01*
X104641984Y-147365000D01*
X103939710Y-147504691D01*
X103278182Y-147778705D01*
X102682823Y-148176511D01*
X102176511Y-148682823D01*
X101778705Y-149278182D01*
X101504691Y-149939710D01*
X101365000Y-150641984D01*
X100285000Y-150641984D01*
X100285000Y-124592738D01*
X109865000Y-124592738D01*
X109865000Y-125407262D01*
X110023906Y-126206135D01*
X110335611Y-126958657D01*
X110788136Y-127635909D01*
X111364091Y-128211864D01*
X112041343Y-128664389D01*
X112793865Y-128976094D01*
X113592738Y-129135000D01*
X114407262Y-129135000D01*
X115206135Y-128976094D01*
X115958657Y-128664389D01*
X116635909Y-128211864D01*
X117211864Y-127635909D01*
X117664389Y-126958657D01*
X117976094Y-126206135D01*
X118135000Y-125407262D01*
X118135000Y-124592738D01*
X141865000Y-124592738D01*
X141865000Y-125407262D01*
X142023906Y-126206135D01*
X142335611Y-126958657D01*
X142788136Y-127635909D01*
X143364091Y-128211864D01*
X144041343Y-128664389D01*
X144793865Y-128976094D01*
X145592738Y-129135000D01*
X146407262Y-129135000D01*
X147206135Y-128976094D01*
X147958657Y-128664389D01*
X148635909Y-128211864D01*
X149211864Y-127635909D01*
X149664389Y-126958657D01*
X149976094Y-126206135D01*
X150135000Y-125407262D01*
X150135000Y-124592738D01*
X149976094Y-123793865D01*
X149664389Y-123041343D01*
X149211864Y-122364091D01*
X148635909Y-121788136D01*
X147958657Y-121335611D01*
X147206135Y-121023906D01*
X146407262Y-120865000D01*
X145592738Y-120865000D01*
X144793865Y-121023906D01*
X144041343Y-121335611D01*
X143364091Y-121788136D01*
X142788136Y-122364091D01*
X142335611Y-123041343D01*
X142023906Y-123793865D01*
X141865000Y-124592738D01*
X118135000Y-124592738D01*
X117976094Y-123793865D01*
X117664389Y-123041343D01*
X117211864Y-122364091D01*
X116635909Y-121788136D01*
X115958657Y-121335611D01*
X115206135Y-121023906D01*
X114407262Y-120865000D01*
X113592738Y-120865000D01*
X112793865Y-121023906D01*
X112041343Y-121335611D01*
X111364091Y-121788136D01*
X110788136Y-122364091D01*
X110335611Y-123041343D01*
X110023906Y-123793865D01*
X109865000Y-124592738D01*
X100285000Y-124592738D01*
X100285000Y-105515098D01*
X110365000Y-105515098D01*
X110365000Y-105984902D01*
X110456654Y-106445679D01*
X110636440Y-106879721D01*
X110897450Y-107270349D01*
X111229651Y-107602550D01*
X111620279Y-107863560D01*
X112054321Y-108043346D01*
X112515098Y-108135000D01*
X112984902Y-108135000D01*
X113445679Y-108043346D01*
X113879721Y-107863560D01*
X114270349Y-107602550D01*
X114602550Y-107270349D01*
X114863560Y-106879721D01*
X115043346Y-106445679D01*
X115135000Y-105984902D01*
X115135000Y-105515098D01*
X115050988Y-105092738D01*
X125865000Y-105092738D01*
X125865000Y-105907262D01*
X126023906Y-106706135D01*
X126335611Y-107458657D01*
X126788136Y-108135909D01*
X127364091Y-108711864D01*
X128041343Y-109164389D01*
X128793865Y-109476094D01*
X129592738Y-109635000D01*
X130407262Y-109635000D01*
X131206135Y-109476094D01*
X131958657Y-109164389D01*
X132635909Y-108711864D01*
X133211864Y-108135909D01*
X133664389Y-107458657D01*
X133976094Y-106706135D01*
X134135000Y-105907262D01*
X134135000Y-105515098D01*
X144865000Y-105515098D01*
X144865000Y-105984902D01*
X144956654Y-106445679D01*
X145136440Y-106879721D01*
X145397450Y-107270349D01*
X145729651Y-107602550D01*
X146120279Y-107863560D01*
X146554321Y-108043346D01*
X147015098Y-108135000D01*
X147484902Y-108135000D01*
X147945679Y-108043346D01*
X148379721Y-107863560D01*
X148770349Y-107602550D01*
X149102550Y-107270349D01*
X149363560Y-106879721D01*
X149543346Y-106445679D01*
X149635000Y-105984902D01*
X149635000Y-105515098D01*
X149543346Y-105054321D01*
X149363560Y-104620279D01*
X149102550Y-104229651D01*
X148770349Y-103897450D01*
X148379721Y-103636440D01*
X147945679Y-103456654D01*
X147484902Y-103365000D01*
X147015098Y-103365000D01*
X146554321Y-103456654D01*
X146120279Y-103636440D01*
X145729651Y-103897450D01*
X145397450Y-104229651D01*
X145136440Y-104620279D01*
X144956654Y-105054321D01*
X144865000Y-105515098D01*
X134135000Y-105515098D01*
X134135000Y-105092738D01*
X133976094Y-104293865D01*
X133664389Y-103541343D01*
X133211864Y-102864091D01*
X132635909Y-102288136D01*
X131958657Y-101835611D01*
X131206135Y-101523906D01*
X130407262Y-101365000D01*
X129592738Y-101365000D01*
X128793865Y-101523906D01*
X128041343Y-101835611D01*
X127364091Y-102288136D01*
X126788136Y-102864091D01*
X126335611Y-103541343D01*
X126023906Y-104293865D01*
X125865000Y-105092738D01*
X115050988Y-105092738D01*
X115043346Y-105054321D01*
X114863560Y-104620279D01*
X114602550Y-104229651D01*
X114270349Y-103897450D01*
X113879721Y-103636440D01*
X113445679Y-103456654D01*
X112984902Y-103365000D01*
X112515098Y-103365000D01*
X112054321Y-103456654D01*
X111620279Y-103636440D01*
X111229651Y-103897450D01*
X110897450Y-104229651D01*
X110636440Y-104620279D01*
X110456654Y-105054321D01*
X110365000Y-105515098D01*
X100285000Y-105515098D01*
X100285000Y-84641229D01*
X108365000Y-84641229D01*
X108365000Y-85258771D01*
X108485476Y-85864446D01*
X108721799Y-86434979D01*
X109064886Y-86948446D01*
X109501554Y-87385114D01*
X110015021Y-87728201D01*
X110585554Y-87964524D01*
X111191229Y-88085000D01*
X111808771Y-88085000D01*
X112414446Y-87964524D01*
X112984979Y-87728201D01*
X113498446Y-87385114D01*
X113935114Y-86948446D01*
X114278201Y-86434979D01*
X114514524Y-85864446D01*
X114635000Y-85258771D01*
X114635000Y-84641229D01*
X114514524Y-84035554D01*
X114278201Y-83465021D01*
X114029450Y-83092738D01*
X125865000Y-83092738D01*
X125865000Y-83907262D01*
X126023906Y-84706135D01*
X126335611Y-85458657D01*
X126788136Y-86135909D01*
X127364091Y-86711864D01*
X128041343Y-87164389D01*
X128793865Y-87476094D01*
X129592738Y-87635000D01*
X130407262Y-87635000D01*
X131206135Y-87476094D01*
X131958657Y-87164389D01*
X132635909Y-86711864D01*
X133211864Y-86135909D01*
X133664389Y-85458657D01*
X133976094Y-84706135D01*
X133989004Y-84641229D01*
X145365000Y-84641229D01*
X145365000Y-85258771D01*
X145485476Y-85864446D01*
X145721799Y-86434979D01*
X146064886Y-86948446D01*
X146501554Y-87385114D01*
X147015021Y-87728201D01*
X147585554Y-87964524D01*
X148191229Y-88085000D01*
X148808771Y-88085000D01*
X149414446Y-87964524D01*
X149984979Y-87728201D01*
X150498446Y-87385114D01*
X150935114Y-86948446D01*
X151278201Y-86434979D01*
X151514524Y-85864446D01*
X151635000Y-85258771D01*
X151635000Y-84641229D01*
X151514524Y-84035554D01*
X151278201Y-83465021D01*
X150935114Y-82951554D01*
X150498446Y-82514886D01*
X149984979Y-82171799D01*
X149414446Y-81935476D01*
X148808771Y-81815000D01*
X148191229Y-81815000D01*
X147585554Y-81935476D01*
X147015021Y-82171799D01*
X146501554Y-82514886D01*
X146064886Y-82951554D01*
X145721799Y-83465021D01*
X145485476Y-84035554D01*
X145365000Y-84641229D01*
X133989004Y-84641229D01*
X134135000Y-83907262D01*
X134135000Y-83092738D01*
X133976094Y-82293865D01*
X133664389Y-81541343D01*
X133211864Y-80864091D01*
X132635909Y-80288136D01*
X131958657Y-79835611D01*
X131206135Y-79523906D01*
X130407262Y-79365000D01*
X129592738Y-79365000D01*
X128793865Y-79523906D01*
X128041343Y-79835611D01*
X127364091Y-80288136D01*
X126788136Y-80864091D01*
X126335611Y-81541343D01*
X126023906Y-82293865D01*
X125865000Y-83092738D01*
X114029450Y-83092738D01*
X113935114Y-82951554D01*
X113498446Y-82514886D01*
X112984979Y-82171799D01*
X112414446Y-81935476D01*
X111808771Y-81815000D01*
X111191229Y-81815000D01*
X110585554Y-81935476D01*
X110015021Y-82171799D01*
X109501554Y-82514886D01*
X109064886Y-82951554D01*
X108721799Y-83465021D01*
X108485476Y-84035554D01*
X108365000Y-84641229D01*
X100285000Y-84641229D01*
X100285000Y-64592738D01*
X109865000Y-64592738D01*
X109865000Y-65407262D01*
X110023906Y-66206135D01*
X110335611Y-66958657D01*
X110788136Y-67635909D01*
X111364091Y-68211864D01*
X112041343Y-68664389D01*
X112793865Y-68976094D01*
X113592738Y-69135000D01*
X114407262Y-69135000D01*
X115206135Y-68976094D01*
X115958657Y-68664389D01*
X116635909Y-68211864D01*
X117211864Y-67635909D01*
X117664389Y-66958657D01*
X117976094Y-66206135D01*
X118135000Y-65407262D01*
X118135000Y-64592738D01*
X141865000Y-64592738D01*
X141865000Y-65407262D01*
X142023906Y-66206135D01*
X142335611Y-66958657D01*
X142788136Y-67635909D01*
X143364091Y-68211864D01*
X144041343Y-68664389D01*
X144793865Y-68976094D01*
X145592738Y-69135000D01*
X146407262Y-69135000D01*
X147206135Y-68976094D01*
X147958657Y-68664389D01*
X148635909Y-68211864D01*
X149211864Y-67635909D01*
X149664389Y-66958657D01*
X149976094Y-66206135D01*
X150135000Y-65407262D01*
X150135000Y-64592738D01*
X149976094Y-63793865D01*
X149664389Y-63041343D01*
X149211864Y-62364091D01*
X148635909Y-61788136D01*
X147958657Y-61335611D01*
X147206135Y-61023906D01*
X146407262Y-60865000D01*
X145592738Y-60865000D01*
X144793865Y-61023906D01*
X144041343Y-61335611D01*
X143364091Y-61788136D01*
X142788136Y-62364091D01*
X142335611Y-63041343D01*
X142023906Y-63793865D01*
X141865000Y-64592738D01*
X118135000Y-64592738D01*
X117976094Y-63793865D01*
X117664389Y-63041343D01*
X117211864Y-62364091D01*
X116635909Y-61788136D01*
X115958657Y-61335611D01*
X115206135Y-61023906D01*
X114407262Y-60865000D01*
X113592738Y-60865000D01*
X112793865Y-61023906D01*
X112041343Y-61335611D01*
X111364091Y-61788136D01*
X110788136Y-62364091D01*
X110335611Y-63041343D01*
X110023906Y-63793865D01*
X109865000Y-64592738D01*
X100285000Y-64592738D01*
X100285000Y-55550000D01*
X127791928Y-55550000D01*
X127791928Y-56450000D01*
X127804188Y-56574482D01*
X127840498Y-56694180D01*
X127899463Y-56804494D01*
X127978815Y-56901185D01*
X128075506Y-56980537D01*
X128185820Y-57039502D01*
X128305518Y-57075812D01*
X128430000Y-57088072D01*
X128930000Y-57088072D01*
X129054482Y-57075812D01*
X129174180Y-57039502D01*
X129284494Y-56980537D01*
X129381185Y-56901185D01*
X129430000Y-56841704D01*
X129478815Y-56901185D01*
X129575506Y-56980537D01*
X129685820Y-57039502D01*
X129805518Y-57075812D01*
X129930000Y-57088072D01*
X130430000Y-57088072D01*
X130554482Y-57075812D01*
X130674180Y-57039502D01*
X130784494Y-56980537D01*
X130881185Y-56901185D01*
X130960537Y-56804494D01*
X131019502Y-56694180D01*
X131055812Y-56574482D01*
X131068072Y-56450000D01*
X131068072Y-55550000D01*
X131055812Y-55425518D01*
X131019502Y-55305820D01*
X130960537Y-55195506D01*
X130881185Y-55098815D01*
X130784494Y-55019463D01*
X130674180Y-54960498D01*
X130554482Y-54924188D01*
X130430000Y-54911928D01*
X129930000Y-54911928D01*
X129805518Y-54924188D01*
X129685820Y-54960498D01*
X129575506Y-55019463D01*
X129478815Y-55098815D01*
X129430000Y-55158296D01*
X129381185Y-55098815D01*
X129284494Y-55019463D01*
X129174180Y-54960498D01*
X129054482Y-54924188D01*
X128930000Y-54911928D01*
X128430000Y-54911928D01*
X128305518Y-54924188D01*
X128185820Y-54960498D01*
X128075506Y-55019463D01*
X127978815Y-55098815D01*
X127899463Y-55195506D01*
X127840498Y-55305820D01*
X127804188Y-55425518D01*
X127791928Y-55550000D01*
X100285000Y-55550000D01*
X100285000Y-43400000D01*
X103954186Y-43400000D01*
X103997339Y-43838137D01*
X104125138Y-44259436D01*
X104332674Y-44647707D01*
X104611970Y-44988030D01*
X104952293Y-45267326D01*
X105340564Y-45474862D01*
X105761863Y-45602661D01*
X106090204Y-45635000D01*
X108109796Y-45635000D01*
X108438137Y-45602661D01*
X108859436Y-45474862D01*
X109247707Y-45267326D01*
X109588030Y-44988030D01*
X109867326Y-44647707D01*
X110074862Y-44259436D01*
X110202661Y-43838137D01*
X110245814Y-43400000D01*
X149754186Y-43400000D01*
X149797339Y-43838137D01*
X149925138Y-44259436D01*
X150132674Y-44647707D01*
X150411970Y-44988030D01*
X150752293Y-45267326D01*
X151140564Y-45474862D01*
X151561863Y-45602661D01*
X151890204Y-45635000D01*
X153909796Y-45635000D01*
X154238137Y-45602661D01*
X154659436Y-45474862D01*
X155047707Y-45267326D01*
X155388030Y-44988030D01*
X155667326Y-44647707D01*
X155874862Y-44259436D01*
X156002661Y-43838137D01*
X156045814Y-43400000D01*
X156002661Y-42961863D01*
X155874862Y-42540564D01*
X155667326Y-42152293D01*
X155388030Y-41811970D01*
X155047707Y-41532674D01*
X154659436Y-41325138D01*
X154238137Y-41197339D01*
X153909796Y-41165000D01*
X151890204Y-41165000D01*
X151561863Y-41197339D01*
X151140564Y-41325138D01*
X150752293Y-41532674D01*
X150411970Y-41811970D01*
X150132674Y-42152293D01*
X149925138Y-42540564D01*
X149797339Y-42961863D01*
X149754186Y-43400000D01*
X110245814Y-43400000D01*
X110202661Y-42961863D01*
X110074862Y-42540564D01*
X109867326Y-42152293D01*
X109588030Y-41811970D01*
X109247707Y-41532674D01*
X108859436Y-41325138D01*
X108438137Y-41197339D01*
X108109796Y-41165000D01*
X106090204Y-41165000D01*
X105761863Y-41197339D01*
X105340564Y-41325138D01*
X104952293Y-41532674D01*
X104611970Y-41811970D01*
X104332674Y-42152293D01*
X104125138Y-42540564D01*
X103997339Y-42961863D01*
X103954186Y-43400000D01*
X100285000Y-43400000D01*
X100285000Y-41085000D01*
X159715000Y-41085000D01*
X159715001Y-168215000D01*
G37*
X159715001Y-168215000D02*
X100285000Y-168215000D01*
X100285000Y-165900000D01*
X103954186Y-165900000D01*
X103997339Y-166338137D01*
X104125138Y-166759436D01*
X104332674Y-167147707D01*
X104611970Y-167488030D01*
X104952293Y-167767326D01*
X105340564Y-167974862D01*
X105761863Y-168102661D01*
X106090204Y-168135000D01*
X108109796Y-168135000D01*
X108438137Y-168102661D01*
X108859436Y-167974862D01*
X109247707Y-167767326D01*
X109588030Y-167488030D01*
X109867326Y-167147707D01*
X110074862Y-166759436D01*
X110202661Y-166338137D01*
X110245814Y-165900000D01*
X149754186Y-165900000D01*
X149797339Y-166338137D01*
X149925138Y-166759436D01*
X150132674Y-167147707D01*
X150411970Y-167488030D01*
X150752293Y-167767326D01*
X151140564Y-167974862D01*
X151561863Y-168102661D01*
X151890204Y-168135000D01*
X153909796Y-168135000D01*
X154238137Y-168102661D01*
X154659436Y-167974862D01*
X155047707Y-167767326D01*
X155388030Y-167488030D01*
X155667326Y-167147707D01*
X155874862Y-166759436D01*
X156002661Y-166338137D01*
X156045814Y-165900000D01*
X156002661Y-165461863D01*
X155874862Y-165040564D01*
X155667326Y-164652293D01*
X155388030Y-164311970D01*
X155047707Y-164032674D01*
X154659436Y-163825138D01*
X154238137Y-163697339D01*
X153909796Y-163665000D01*
X151890204Y-163665000D01*
X151561863Y-163697339D01*
X151140564Y-163825138D01*
X150752293Y-164032674D01*
X150411970Y-164311970D01*
X150132674Y-164652293D01*
X149925138Y-165040564D01*
X149797339Y-165461863D01*
X149754186Y-165900000D01*
X110245814Y-165900000D01*
X110202661Y-165461863D01*
X110074862Y-165040564D01*
X109867326Y-164652293D01*
X109588030Y-164311970D01*
X109247707Y-164032674D01*
X108859436Y-163825138D01*
X108438137Y-163697339D01*
X108109796Y-163665000D01*
X106090204Y-163665000D01*
X105761863Y-163697339D01*
X105340564Y-163825138D01*
X104952293Y-164032674D01*
X104611970Y-164311970D01*
X104332674Y-164652293D01*
X104125138Y-165040564D01*
X103997339Y-165461863D01*
X103954186Y-165900000D01*
X100285000Y-165900000D01*
X100285000Y-150641984D01*
X101365000Y-150641984D01*
X101365000Y-151358016D01*
X101504691Y-152060290D01*
X101778705Y-152721818D01*
X102176511Y-153317177D01*
X102682823Y-153823489D01*
X103278182Y-154221295D01*
X103939710Y-154495309D01*
X104641984Y-154635000D01*
X105358016Y-154635000D01*
X106060290Y-154495309D01*
X106721818Y-154221295D01*
X107317177Y-153823489D01*
X107823489Y-153317177D01*
X108221295Y-152721818D01*
X108495309Y-152060290D01*
X108635000Y-151358016D01*
X108635000Y-150641984D01*
X111365000Y-150641984D01*
X111365000Y-151358016D01*
X111504691Y-152060290D01*
X111778705Y-152721818D01*
X112176511Y-153317177D01*
X112682823Y-153823489D01*
X113278182Y-154221295D01*
X113939710Y-154495309D01*
X114641984Y-154635000D01*
X115358016Y-154635000D01*
X116060290Y-154495309D01*
X116721818Y-154221295D01*
X117317177Y-153823489D01*
X117823489Y-153317177D01*
X118221295Y-152721818D01*
X118495309Y-152060290D01*
X118635000Y-151358016D01*
X118635000Y-150641984D01*
X121365000Y-150641984D01*
X121365000Y-151358016D01*
X121504691Y-152060290D01*
X121778705Y-152721818D01*
X122176511Y-153317177D01*
X122682823Y-153823489D01*
X123278182Y-154221295D01*
X123939710Y-154495309D01*
X124641984Y-154635000D01*
X125358016Y-154635000D01*
X126060290Y-154495309D01*
X126721818Y-154221295D01*
X127317177Y-153823489D01*
X127823489Y-153317177D01*
X128221295Y-152721818D01*
X128495309Y-152060290D01*
X128635000Y-151358016D01*
X128635000Y-150641984D01*
X131365000Y-150641984D01*
X131365000Y-151358016D01*
X131504691Y-152060290D01*
X131778705Y-152721818D01*
X132176511Y-153317177D01*
X132682823Y-153823489D01*
X133278182Y-154221295D01*
X133939710Y-154495309D01*
X134641984Y-154635000D01*
X135358016Y-154635000D01*
X136060290Y-154495309D01*
X136721818Y-154221295D01*
X137317177Y-153823489D01*
X137823489Y-153317177D01*
X138221295Y-152721818D01*
X138495309Y-152060290D01*
X138635000Y-151358016D01*
X138635000Y-150641984D01*
X141365000Y-150641984D01*
X141365000Y-151358016D01*
X141504691Y-152060290D01*
X141778705Y-152721818D01*
X142176511Y-153317177D01*
X142682823Y-153823489D01*
X143278182Y-154221295D01*
X143939710Y-154495309D01*
X144641984Y-154635000D01*
X145358016Y-154635000D01*
X146060290Y-154495309D01*
X146721818Y-154221295D01*
X147317177Y-153823489D01*
X147823489Y-153317177D01*
X148221295Y-152721818D01*
X148495309Y-152060290D01*
X148635000Y-151358016D01*
X148635000Y-150641984D01*
X151365000Y-150641984D01*
X151365000Y-151358016D01*
X151504691Y-152060290D01*
X151778705Y-152721818D01*
X152176511Y-153317177D01*
X152682823Y-153823489D01*
X153278182Y-154221295D01*
X153939710Y-154495309D01*
X154641984Y-154635000D01*
X155358016Y-154635000D01*
X156060290Y-154495309D01*
X156721818Y-154221295D01*
X157317177Y-153823489D01*
X157823489Y-153317177D01*
X158221295Y-152721818D01*
X158495309Y-152060290D01*
X158635000Y-151358016D01*
X158635000Y-150641984D01*
X158495309Y-149939710D01*
X158221295Y-149278182D01*
X157823489Y-148682823D01*
X157317177Y-148176511D01*
X156721818Y-147778705D01*
X156060290Y-147504691D01*
X155358016Y-147365000D01*
X154641984Y-147365000D01*
X153939710Y-147504691D01*
X153278182Y-147778705D01*
X152682823Y-148176511D01*
X152176511Y-148682823D01*
X151778705Y-149278182D01*
X151504691Y-149939710D01*
X151365000Y-150641984D01*
X148635000Y-150641984D01*
X148495309Y-149939710D01*
X148221295Y-149278182D01*
X147823489Y-148682823D01*
X147317177Y-148176511D01*
X146721818Y-147778705D01*
X146060290Y-147504691D01*
X145358016Y-147365000D01*
X144641984Y-147365000D01*
X143939710Y-147504691D01*
X143278182Y-147778705D01*
X142682823Y-148176511D01*
X142176511Y-148682823D01*
X141778705Y-149278182D01*
X141504691Y-149939710D01*
X141365000Y-150641984D01*
X138635000Y-150641984D01*
X138495309Y-149939710D01*
X138221295Y-149278182D01*
X137823489Y-148682823D01*
X137317177Y-148176511D01*
X136721818Y-147778705D01*
X136060290Y-147504691D01*
X135358016Y-147365000D01*
X134641984Y-147365000D01*
X133939710Y-147504691D01*
X133278182Y-147778705D01*
X132682823Y-148176511D01*
X132176511Y-148682823D01*
X131778705Y-149278182D01*
X131504691Y-149939710D01*
X131365000Y-150641984D01*
X128635000Y-150641984D01*
X128495309Y-149939710D01*
X128221295Y-149278182D01*
X127823489Y-148682823D01*
X127317177Y-148176511D01*
X126721818Y-147778705D01*
X126060290Y-147504691D01*
X125358016Y-147365000D01*
X124641984Y-147365000D01*
X123939710Y-147504691D01*
X123278182Y-147778705D01*
X122682823Y-148176511D01*
X122176511Y-148682823D01*
X121778705Y-149278182D01*
X121504691Y-149939710D01*
X121365000Y-150641984D01*
X118635000Y-150641984D01*
X118495309Y-149939710D01*
X118221295Y-149278182D01*
X117823489Y-148682823D01*
X117317177Y-148176511D01*
X116721818Y-147778705D01*
X116060290Y-147504691D01*
X115358016Y-147365000D01*
X114641984Y-147365000D01*
X113939710Y-147504691D01*
X113278182Y-147778705D01*
X112682823Y-148176511D01*
X112176511Y-148682823D01*
X111778705Y-149278182D01*
X111504691Y-149939710D01*
X111365000Y-150641984D01*
X108635000Y-150641984D01*
X108495309Y-149939710D01*
X108221295Y-149278182D01*
X107823489Y-148682823D01*
X107317177Y-148176511D01*
X106721818Y-147778705D01*
X106060290Y-147504691D01*
X105358016Y-147365000D01*
X104641984Y-147365000D01*
X103939710Y-147504691D01*
X103278182Y-147778705D01*
X102682823Y-148176511D01*
X102176511Y-148682823D01*
X101778705Y-149278182D01*
X101504691Y-149939710D01*
X101365000Y-150641984D01*
X100285000Y-150641984D01*
X100285000Y-124592738D01*
X109865000Y-124592738D01*
X109865000Y-125407262D01*
X110023906Y-126206135D01*
X110335611Y-126958657D01*
X110788136Y-127635909D01*
X111364091Y-128211864D01*
X112041343Y-128664389D01*
X112793865Y-128976094D01*
X113592738Y-129135000D01*
X114407262Y-129135000D01*
X115206135Y-128976094D01*
X115958657Y-128664389D01*
X116635909Y-128211864D01*
X117211864Y-127635909D01*
X117664389Y-126958657D01*
X117976094Y-126206135D01*
X118135000Y-125407262D01*
X118135000Y-124592738D01*
X141865000Y-124592738D01*
X141865000Y-125407262D01*
X142023906Y-126206135D01*
X142335611Y-126958657D01*
X142788136Y-127635909D01*
X143364091Y-128211864D01*
X144041343Y-128664389D01*
X144793865Y-128976094D01*
X145592738Y-129135000D01*
X146407262Y-129135000D01*
X147206135Y-128976094D01*
X147958657Y-128664389D01*
X148635909Y-128211864D01*
X149211864Y-127635909D01*
X149664389Y-126958657D01*
X149976094Y-126206135D01*
X150135000Y-125407262D01*
X150135000Y-124592738D01*
X149976094Y-123793865D01*
X149664389Y-123041343D01*
X149211864Y-122364091D01*
X148635909Y-121788136D01*
X147958657Y-121335611D01*
X147206135Y-121023906D01*
X146407262Y-120865000D01*
X145592738Y-120865000D01*
X144793865Y-121023906D01*
X144041343Y-121335611D01*
X143364091Y-121788136D01*
X142788136Y-122364091D01*
X142335611Y-123041343D01*
X142023906Y-123793865D01*
X141865000Y-124592738D01*
X118135000Y-124592738D01*
X117976094Y-123793865D01*
X117664389Y-123041343D01*
X117211864Y-122364091D01*
X116635909Y-121788136D01*
X115958657Y-121335611D01*
X115206135Y-121023906D01*
X114407262Y-120865000D01*
X113592738Y-120865000D01*
X112793865Y-121023906D01*
X112041343Y-121335611D01*
X111364091Y-121788136D01*
X110788136Y-122364091D01*
X110335611Y-123041343D01*
X110023906Y-123793865D01*
X109865000Y-124592738D01*
X100285000Y-124592738D01*
X100285000Y-105515098D01*
X110365000Y-105515098D01*
X110365000Y-105984902D01*
X110456654Y-106445679D01*
X110636440Y-106879721D01*
X110897450Y-107270349D01*
X111229651Y-107602550D01*
X111620279Y-107863560D01*
X112054321Y-108043346D01*
X112515098Y-108135000D01*
X112984902Y-108135000D01*
X113445679Y-108043346D01*
X113879721Y-107863560D01*
X114270349Y-107602550D01*
X114602550Y-107270349D01*
X114863560Y-106879721D01*
X115043346Y-106445679D01*
X115135000Y-105984902D01*
X115135000Y-105515098D01*
X115050988Y-105092738D01*
X125865000Y-105092738D01*
X125865000Y-105907262D01*
X126023906Y-106706135D01*
X126335611Y-107458657D01*
X126788136Y-108135909D01*
X127364091Y-108711864D01*
X128041343Y-109164389D01*
X128793865Y-109476094D01*
X129592738Y-109635000D01*
X130407262Y-109635000D01*
X131206135Y-109476094D01*
X131958657Y-109164389D01*
X132635909Y-108711864D01*
X133211864Y-108135909D01*
X133664389Y-107458657D01*
X133976094Y-106706135D01*
X134135000Y-105907262D01*
X134135000Y-105515098D01*
X144865000Y-105515098D01*
X144865000Y-105984902D01*
X144956654Y-106445679D01*
X145136440Y-106879721D01*
X145397450Y-107270349D01*
X145729651Y-107602550D01*
X146120279Y-107863560D01*
X146554321Y-108043346D01*
X147015098Y-108135000D01*
X147484902Y-108135000D01*
X147945679Y-108043346D01*
X148379721Y-107863560D01*
X148770349Y-107602550D01*
X149102550Y-107270349D01*
X149363560Y-106879721D01*
X149543346Y-106445679D01*
X149635000Y-105984902D01*
X149635000Y-105515098D01*
X149543346Y-105054321D01*
X149363560Y-104620279D01*
X149102550Y-104229651D01*
X148770349Y-103897450D01*
X148379721Y-103636440D01*
X147945679Y-103456654D01*
X147484902Y-103365000D01*
X147015098Y-103365000D01*
X146554321Y-103456654D01*
X146120279Y-103636440D01*
X145729651Y-103897450D01*
X145397450Y-104229651D01*
X145136440Y-104620279D01*
X144956654Y-105054321D01*
X144865000Y-105515098D01*
X134135000Y-105515098D01*
X134135000Y-105092738D01*
X133976094Y-104293865D01*
X133664389Y-103541343D01*
X133211864Y-102864091D01*
X132635909Y-102288136D01*
X131958657Y-101835611D01*
X131206135Y-101523906D01*
X130407262Y-101365000D01*
X129592738Y-101365000D01*
X128793865Y-101523906D01*
X128041343Y-101835611D01*
X127364091Y-102288136D01*
X126788136Y-102864091D01*
X126335611Y-103541343D01*
X126023906Y-104293865D01*
X125865000Y-105092738D01*
X115050988Y-105092738D01*
X115043346Y-105054321D01*
X114863560Y-104620279D01*
X114602550Y-104229651D01*
X114270349Y-103897450D01*
X113879721Y-103636440D01*
X113445679Y-103456654D01*
X112984902Y-103365000D01*
X112515098Y-103365000D01*
X112054321Y-103456654D01*
X111620279Y-103636440D01*
X111229651Y-103897450D01*
X110897450Y-104229651D01*
X110636440Y-104620279D01*
X110456654Y-105054321D01*
X110365000Y-105515098D01*
X100285000Y-105515098D01*
X100285000Y-84641229D01*
X108365000Y-84641229D01*
X108365000Y-85258771D01*
X108485476Y-85864446D01*
X108721799Y-86434979D01*
X109064886Y-86948446D01*
X109501554Y-87385114D01*
X110015021Y-87728201D01*
X110585554Y-87964524D01*
X111191229Y-88085000D01*
X111808771Y-88085000D01*
X112414446Y-87964524D01*
X112984979Y-87728201D01*
X113498446Y-87385114D01*
X113935114Y-86948446D01*
X114278201Y-86434979D01*
X114514524Y-85864446D01*
X114635000Y-85258771D01*
X114635000Y-84641229D01*
X114514524Y-84035554D01*
X114278201Y-83465021D01*
X114029450Y-83092738D01*
X125865000Y-83092738D01*
X125865000Y-83907262D01*
X126023906Y-84706135D01*
X126335611Y-85458657D01*
X126788136Y-86135909D01*
X127364091Y-86711864D01*
X128041343Y-87164389D01*
X128793865Y-87476094D01*
X129592738Y-87635000D01*
X130407262Y-87635000D01*
X131206135Y-87476094D01*
X131958657Y-87164389D01*
X132635909Y-86711864D01*
X133211864Y-86135909D01*
X133664389Y-85458657D01*
X133976094Y-84706135D01*
X133989004Y-84641229D01*
X145365000Y-84641229D01*
X145365000Y-85258771D01*
X145485476Y-85864446D01*
X145721799Y-86434979D01*
X146064886Y-86948446D01*
X146501554Y-87385114D01*
X147015021Y-87728201D01*
X147585554Y-87964524D01*
X148191229Y-88085000D01*
X148808771Y-88085000D01*
X149414446Y-87964524D01*
X149984979Y-87728201D01*
X150498446Y-87385114D01*
X150935114Y-86948446D01*
X151278201Y-86434979D01*
X151514524Y-85864446D01*
X151635000Y-85258771D01*
X151635000Y-84641229D01*
X151514524Y-84035554D01*
X151278201Y-83465021D01*
X150935114Y-82951554D01*
X150498446Y-82514886D01*
X149984979Y-82171799D01*
X149414446Y-81935476D01*
X148808771Y-81815000D01*
X148191229Y-81815000D01*
X147585554Y-81935476D01*
X147015021Y-82171799D01*
X146501554Y-82514886D01*
X146064886Y-82951554D01*
X145721799Y-83465021D01*
X145485476Y-84035554D01*
X145365000Y-84641229D01*
X133989004Y-84641229D01*
X134135000Y-83907262D01*
X134135000Y-83092738D01*
X133976094Y-82293865D01*
X133664389Y-81541343D01*
X133211864Y-80864091D01*
X132635909Y-80288136D01*
X131958657Y-79835611D01*
X131206135Y-79523906D01*
X130407262Y-79365000D01*
X129592738Y-79365000D01*
X128793865Y-79523906D01*
X128041343Y-79835611D01*
X127364091Y-80288136D01*
X126788136Y-80864091D01*
X126335611Y-81541343D01*
X126023906Y-82293865D01*
X125865000Y-83092738D01*
X114029450Y-83092738D01*
X113935114Y-82951554D01*
X113498446Y-82514886D01*
X112984979Y-82171799D01*
X112414446Y-81935476D01*
X111808771Y-81815000D01*
X111191229Y-81815000D01*
X110585554Y-81935476D01*
X110015021Y-82171799D01*
X109501554Y-82514886D01*
X109064886Y-82951554D01*
X108721799Y-83465021D01*
X108485476Y-84035554D01*
X108365000Y-84641229D01*
X100285000Y-84641229D01*
X100285000Y-64592738D01*
X109865000Y-64592738D01*
X109865000Y-65407262D01*
X110023906Y-66206135D01*
X110335611Y-66958657D01*
X110788136Y-67635909D01*
X111364091Y-68211864D01*
X112041343Y-68664389D01*
X112793865Y-68976094D01*
X113592738Y-69135000D01*
X114407262Y-69135000D01*
X115206135Y-68976094D01*
X115958657Y-68664389D01*
X116635909Y-68211864D01*
X117211864Y-67635909D01*
X117664389Y-66958657D01*
X117976094Y-66206135D01*
X118135000Y-65407262D01*
X118135000Y-64592738D01*
X141865000Y-64592738D01*
X141865000Y-65407262D01*
X142023906Y-66206135D01*
X142335611Y-66958657D01*
X142788136Y-67635909D01*
X143364091Y-68211864D01*
X144041343Y-68664389D01*
X144793865Y-68976094D01*
X145592738Y-69135000D01*
X146407262Y-69135000D01*
X147206135Y-68976094D01*
X147958657Y-68664389D01*
X148635909Y-68211864D01*
X149211864Y-67635909D01*
X149664389Y-66958657D01*
X149976094Y-66206135D01*
X150135000Y-65407262D01*
X150135000Y-64592738D01*
X149976094Y-63793865D01*
X149664389Y-63041343D01*
X149211864Y-62364091D01*
X148635909Y-61788136D01*
X147958657Y-61335611D01*
X147206135Y-61023906D01*
X146407262Y-60865000D01*
X145592738Y-60865000D01*
X144793865Y-61023906D01*
X144041343Y-61335611D01*
X143364091Y-61788136D01*
X142788136Y-62364091D01*
X142335611Y-63041343D01*
X142023906Y-63793865D01*
X141865000Y-64592738D01*
X118135000Y-64592738D01*
X117976094Y-63793865D01*
X117664389Y-63041343D01*
X117211864Y-62364091D01*
X116635909Y-61788136D01*
X115958657Y-61335611D01*
X115206135Y-61023906D01*
X114407262Y-60865000D01*
X113592738Y-60865000D01*
X112793865Y-61023906D01*
X112041343Y-61335611D01*
X111364091Y-61788136D01*
X110788136Y-62364091D01*
X110335611Y-63041343D01*
X110023906Y-63793865D01*
X109865000Y-64592738D01*
X100285000Y-64592738D01*
X100285000Y-55550000D01*
X127791928Y-55550000D01*
X127791928Y-56450000D01*
X127804188Y-56574482D01*
X127840498Y-56694180D01*
X127899463Y-56804494D01*
X127978815Y-56901185D01*
X128075506Y-56980537D01*
X128185820Y-57039502D01*
X128305518Y-57075812D01*
X128430000Y-57088072D01*
X128930000Y-57088072D01*
X129054482Y-57075812D01*
X129174180Y-57039502D01*
X129284494Y-56980537D01*
X129381185Y-56901185D01*
X129430000Y-56841704D01*
X129478815Y-56901185D01*
X129575506Y-56980537D01*
X129685820Y-57039502D01*
X129805518Y-57075812D01*
X129930000Y-57088072D01*
X130430000Y-57088072D01*
X130554482Y-57075812D01*
X130674180Y-57039502D01*
X130784494Y-56980537D01*
X130881185Y-56901185D01*
X130960537Y-56804494D01*
X131019502Y-56694180D01*
X131055812Y-56574482D01*
X131068072Y-56450000D01*
X131068072Y-55550000D01*
X131055812Y-55425518D01*
X131019502Y-55305820D01*
X130960537Y-55195506D01*
X130881185Y-55098815D01*
X130784494Y-55019463D01*
X130674180Y-54960498D01*
X130554482Y-54924188D01*
X130430000Y-54911928D01*
X129930000Y-54911928D01*
X129805518Y-54924188D01*
X129685820Y-54960498D01*
X129575506Y-55019463D01*
X129478815Y-55098815D01*
X129430000Y-55158296D01*
X129381185Y-55098815D01*
X129284494Y-55019463D01*
X129174180Y-54960498D01*
X129054482Y-54924188D01*
X128930000Y-54911928D01*
X128430000Y-54911928D01*
X128305518Y-54924188D01*
X128185820Y-54960498D01*
X128075506Y-55019463D01*
X127978815Y-55098815D01*
X127899463Y-55195506D01*
X127840498Y-55305820D01*
X127804188Y-55425518D01*
X127791928Y-55550000D01*
X100285000Y-55550000D01*
X100285000Y-43400000D01*
X103954186Y-43400000D01*
X103997339Y-43838137D01*
X104125138Y-44259436D01*
X104332674Y-44647707D01*
X104611970Y-44988030D01*
X104952293Y-45267326D01*
X105340564Y-45474862D01*
X105761863Y-45602661D01*
X106090204Y-45635000D01*
X108109796Y-45635000D01*
X108438137Y-45602661D01*
X108859436Y-45474862D01*
X109247707Y-45267326D01*
X109588030Y-44988030D01*
X109867326Y-44647707D01*
X110074862Y-44259436D01*
X110202661Y-43838137D01*
X110245814Y-43400000D01*
X149754186Y-43400000D01*
X149797339Y-43838137D01*
X149925138Y-44259436D01*
X150132674Y-44647707D01*
X150411970Y-44988030D01*
X150752293Y-45267326D01*
X151140564Y-45474862D01*
X151561863Y-45602661D01*
X151890204Y-45635000D01*
X153909796Y-45635000D01*
X154238137Y-45602661D01*
X154659436Y-45474862D01*
X155047707Y-45267326D01*
X155388030Y-44988030D01*
X155667326Y-44647707D01*
X155874862Y-44259436D01*
X156002661Y-43838137D01*
X156045814Y-43400000D01*
X156002661Y-42961863D01*
X155874862Y-42540564D01*
X155667326Y-42152293D01*
X155388030Y-41811970D01*
X155047707Y-41532674D01*
X154659436Y-41325138D01*
X154238137Y-41197339D01*
X153909796Y-41165000D01*
X151890204Y-41165000D01*
X151561863Y-41197339D01*
X151140564Y-41325138D01*
X150752293Y-41532674D01*
X150411970Y-41811970D01*
X150132674Y-42152293D01*
X149925138Y-42540564D01*
X149797339Y-42961863D01*
X149754186Y-43400000D01*
X110245814Y-43400000D01*
X110202661Y-42961863D01*
X110074862Y-42540564D01*
X109867326Y-42152293D01*
X109588030Y-41811970D01*
X109247707Y-41532674D01*
X108859436Y-41325138D01*
X108438137Y-41197339D01*
X108109796Y-41165000D01*
X106090204Y-41165000D01*
X105761863Y-41197339D01*
X105340564Y-41325138D01*
X104952293Y-41532674D01*
X104611970Y-41811970D01*
X104332674Y-42152293D01*
X104125138Y-42540564D01*
X103997339Y-42961863D01*
X103954186Y-43400000D01*
X100285000Y-43400000D01*
X100285000Y-41085000D01*
X159715000Y-41085000D01*
X159715001Y-168215000D01*
M02*
