M48
; DRILL file {KiCad (5.1.5)-3} date 14/05/2020 11:01:13
; FORMAT={-:-/ absolute / inch / decimal}
; #@! TF.CreationDate,2020-05-14T11:01:13+01:00
; #@! TF.GenerationSoftware,Kicad,Pcbnew,(5.1.5)-3
; #@! TF.FileFunction,NonPlated,1,2,NPTH
FMAT,2
INCH
T1C0.1260
T2C0.1378
T3C0.1969
T4C0.2362
T5C0.2756
%
G90
G05
T2
X5.7972Y-4.1634
X4.439Y-4.1634
T3
X4.3898Y-3.3445
X5.8465Y-3.3445
T4
X5.7087Y-5.9449
X4.5276Y-5.9449
X4.1339Y-5.9449
X6.1024Y-5.9449
X4.9213Y-5.9449
X5.315Y-5.9449
T5
X5.1181Y-4.1535
X4.4882Y-4.9213
X5.748Y-4.9213
X5.748Y-2.5591
X5.1181Y-3.2874
X4.4882Y-2.5591
T1
G00X4.1811Y-6.5315
M15
G01X4.252Y-6.5315
M16
G05
G00X5.9843Y-6.5315
M15
G01X6.0551Y-6.5315
M16
G05
G00X4.1811Y-1.7087
M15
G01X4.252Y-1.7087
M16
G05
G00X5.9843Y-1.7087
M15
G01X6.0551Y-1.7087
M16
G05
T0
M30
