G04 #@! TF.GenerationSoftware,KiCad,Pcbnew,(5.1.5)-3*
G04 #@! TF.CreationDate,2020-05-17T16:45:55+01:00*
G04 #@! TF.ProjectId,Addatone Panel,41646461-746f-46e6-9520-50616e656c2e,rev?*
G04 #@! TF.SameCoordinates,Original*
G04 #@! TF.FileFunction,Legend,Top*
G04 #@! TF.FilePolarity,Positive*
%FSLAX46Y46*%
G04 Gerber Fmt 4.6, Leading zero omitted, Abs format (unit mm)*
G04 Created by KiCad (PCBNEW (5.1.5)-3) date 2020-05-17 16:45:55*
%MOMM*%
%LPD*%
G04 APERTURE LIST*
%ADD10C,0.150000*%
%ADD11C,0.300000*%
%ADD12C,0.120000*%
G04 APERTURE END LIST*
D10*
X125880952Y-160852380D02*
X125880952Y-161566666D01*
X125833333Y-161709523D01*
X125738095Y-161804761D01*
X125595238Y-161852380D01*
X125500000Y-161852380D01*
X126833333Y-161852380D02*
X126357142Y-161852380D01*
X126357142Y-160852380D01*
X127738095Y-161757142D02*
X127690476Y-161804761D01*
X127547619Y-161852380D01*
X127452380Y-161852380D01*
X127309523Y-161804761D01*
X127214285Y-161709523D01*
X127166666Y-161614285D01*
X127119047Y-161423809D01*
X127119047Y-161280952D01*
X127166666Y-161090476D01*
X127214285Y-160995238D01*
X127309523Y-160900000D01*
X127452380Y-160852380D01*
X127547619Y-160852380D01*
X127690476Y-160900000D01*
X127738095Y-160947619D01*
X128452380Y-160852380D02*
X128452380Y-161566666D01*
X128404761Y-161709523D01*
X128309523Y-161804761D01*
X128166666Y-161852380D01*
X128071428Y-161852380D01*
X129404761Y-161852380D02*
X128928571Y-161852380D01*
X128928571Y-160852380D01*
X130309523Y-161757142D02*
X130261904Y-161804761D01*
X130119047Y-161852380D01*
X130023809Y-161852380D01*
X129880952Y-161804761D01*
X129785714Y-161709523D01*
X129738095Y-161614285D01*
X129690476Y-161423809D01*
X129690476Y-161280952D01*
X129738095Y-161090476D01*
X129785714Y-160995238D01*
X129880952Y-160900000D01*
X130023809Y-160852380D01*
X130119047Y-160852380D01*
X130261904Y-160900000D01*
X130309523Y-160947619D01*
X131023809Y-160852380D02*
X131023809Y-161566666D01*
X130976190Y-161709523D01*
X130880952Y-161804761D01*
X130738095Y-161852380D01*
X130642857Y-161852380D01*
X131976190Y-161852380D02*
X131500000Y-161852380D01*
X131500000Y-160852380D01*
X132880952Y-161757142D02*
X132833333Y-161804761D01*
X132690476Y-161852380D01*
X132595238Y-161852380D01*
X132452380Y-161804761D01*
X132357142Y-161709523D01*
X132309523Y-161614285D01*
X132261904Y-161423809D01*
X132261904Y-161280952D01*
X132309523Y-161090476D01*
X132357142Y-160995238D01*
X132452380Y-160900000D01*
X132595238Y-160852380D01*
X132690476Y-160852380D01*
X132833333Y-160900000D01*
X132880952Y-160947619D01*
X133595238Y-160852380D02*
X133595238Y-161566666D01*
X133547619Y-161709523D01*
X133452380Y-161804761D01*
X133309523Y-161852380D01*
X133214285Y-161852380D01*
X134547619Y-161852380D02*
X134071428Y-161852380D01*
X134071428Y-160852380D01*
X135452380Y-161757142D02*
X135404761Y-161804761D01*
X135261904Y-161852380D01*
X135166666Y-161852380D01*
X135023809Y-161804761D01*
X134928571Y-161709523D01*
X134880952Y-161614285D01*
X134833333Y-161423809D01*
X134833333Y-161280952D01*
X134880952Y-161090476D01*
X134928571Y-160995238D01*
X135023809Y-160900000D01*
X135166666Y-160852380D01*
X135261904Y-160852380D01*
X135404761Y-160900000D01*
X135452380Y-160947619D01*
D11*
X114914285Y-52033333D02*
X115866666Y-52033333D01*
X114723809Y-52604761D02*
X115390476Y-50604761D01*
X116057142Y-52604761D01*
X117580952Y-52604761D02*
X117580952Y-50604761D01*
X117580952Y-52509523D02*
X117390476Y-52604761D01*
X117009523Y-52604761D01*
X116819047Y-52509523D01*
X116723809Y-52414285D01*
X116628571Y-52223809D01*
X116628571Y-51652380D01*
X116723809Y-51461904D01*
X116819047Y-51366666D01*
X117009523Y-51271428D01*
X117390476Y-51271428D01*
X117580952Y-51366666D01*
X119390476Y-52604761D02*
X119390476Y-50604761D01*
X119390476Y-52509523D02*
X119200000Y-52604761D01*
X118819047Y-52604761D01*
X118628571Y-52509523D01*
X118533333Y-52414285D01*
X118438095Y-52223809D01*
X118438095Y-51652380D01*
X118533333Y-51461904D01*
X118628571Y-51366666D01*
X118819047Y-51271428D01*
X119200000Y-51271428D01*
X119390476Y-51366666D01*
X121200000Y-52604761D02*
X121200000Y-51557142D01*
X121104761Y-51366666D01*
X120914285Y-51271428D01*
X120533333Y-51271428D01*
X120342857Y-51366666D01*
X121200000Y-52509523D02*
X121009523Y-52604761D01*
X120533333Y-52604761D01*
X120342857Y-52509523D01*
X120247619Y-52319047D01*
X120247619Y-52128571D01*
X120342857Y-51938095D01*
X120533333Y-51842857D01*
X121009523Y-51842857D01*
X121200000Y-51747619D01*
X121866666Y-51271428D02*
X122628571Y-51271428D01*
X122152380Y-50604761D02*
X122152380Y-52319047D01*
X122247619Y-52509523D01*
X122438095Y-52604761D01*
X122628571Y-52604761D01*
X123580952Y-52604761D02*
X123390476Y-52509523D01*
X123295238Y-52414285D01*
X123200000Y-52223809D01*
X123200000Y-51652380D01*
X123295238Y-51461904D01*
X123390476Y-51366666D01*
X123580952Y-51271428D01*
X123866666Y-51271428D01*
X124057142Y-51366666D01*
X124152380Y-51461904D01*
X124247619Y-51652380D01*
X124247619Y-52223809D01*
X124152380Y-52414285D01*
X124057142Y-52509523D01*
X123866666Y-52604761D01*
X123580952Y-52604761D01*
X125104761Y-51271428D02*
X125104761Y-52604761D01*
X125104761Y-51461904D02*
X125200000Y-51366666D01*
X125390476Y-51271428D01*
X125676190Y-51271428D01*
X125866666Y-51366666D01*
X125961904Y-51557142D01*
X125961904Y-52604761D01*
X127676190Y-52509523D02*
X127485714Y-52604761D01*
X127104761Y-52604761D01*
X126914285Y-52509523D01*
X126819047Y-52319047D01*
X126819047Y-51557142D01*
X126914285Y-51366666D01*
X127104761Y-51271428D01*
X127485714Y-51271428D01*
X127676190Y-51366666D01*
X127771428Y-51557142D01*
X127771428Y-51747619D01*
X126819047Y-51938095D01*
X130152380Y-52604761D02*
X130152380Y-50604761D01*
X130914285Y-50604761D01*
X131104761Y-50700000D01*
X131200000Y-50795238D01*
X131295238Y-50985714D01*
X131295238Y-51271428D01*
X131200000Y-51461904D01*
X131104761Y-51557142D01*
X130914285Y-51652380D01*
X130152380Y-51652380D01*
X133009523Y-52604761D02*
X133009523Y-51557142D01*
X132914285Y-51366666D01*
X132723809Y-51271428D01*
X132342857Y-51271428D01*
X132152380Y-51366666D01*
X133009523Y-52509523D02*
X132819047Y-52604761D01*
X132342857Y-52604761D01*
X132152380Y-52509523D01*
X132057142Y-52319047D01*
X132057142Y-52128571D01*
X132152380Y-51938095D01*
X132342857Y-51842857D01*
X132819047Y-51842857D01*
X133009523Y-51747619D01*
X133961904Y-51271428D02*
X133961904Y-52604761D01*
X133961904Y-51461904D02*
X134057142Y-51366666D01*
X134247619Y-51271428D01*
X134533333Y-51271428D01*
X134723809Y-51366666D01*
X134819047Y-51557142D01*
X134819047Y-52604761D01*
X136533333Y-52509523D02*
X136342857Y-52604761D01*
X135961904Y-52604761D01*
X135771428Y-52509523D01*
X135676190Y-52319047D01*
X135676190Y-51557142D01*
X135771428Y-51366666D01*
X135961904Y-51271428D01*
X136342857Y-51271428D01*
X136533333Y-51366666D01*
X136628571Y-51557142D01*
X136628571Y-51747619D01*
X135676190Y-51938095D01*
X137771428Y-52604761D02*
X137580952Y-52509523D01*
X137485714Y-52319047D01*
X137485714Y-50604761D01*
X139866666Y-51271428D02*
X140342857Y-52604761D01*
X140819047Y-51271428D01*
X142628571Y-52604761D02*
X141485714Y-52604761D01*
X142057142Y-52604761D02*
X142057142Y-50604761D01*
X141866666Y-50890476D01*
X141676190Y-51080952D01*
X141485714Y-51176190D01*
X143485714Y-52414285D02*
X143580952Y-52509523D01*
X143485714Y-52604761D01*
X143390476Y-52509523D01*
X143485714Y-52414285D01*
X143485714Y-52604761D01*
X144819047Y-50604761D02*
X145009523Y-50604761D01*
X145200000Y-50700000D01*
X145295238Y-50795238D01*
X145390476Y-50985714D01*
X145485714Y-51366666D01*
X145485714Y-51842857D01*
X145390476Y-52223809D01*
X145295238Y-52414285D01*
X145200000Y-52509523D01*
X145009523Y-52604761D01*
X144819047Y-52604761D01*
X144628571Y-52509523D01*
X144533333Y-52414285D01*
X144438095Y-52223809D01*
X144342857Y-51842857D01*
X144342857Y-51366666D01*
X144438095Y-50985714D01*
X144533333Y-50795238D01*
X144628571Y-50700000D01*
X144819047Y-50604761D01*
D12*
X129930000Y-56680000D02*
X128930000Y-56680000D01*
X128930000Y-55320000D02*
X129930000Y-55320000D01*
M02*
