M48
; DRILL file {KiCad (5.99.0-12348-g4b436fb86d)} date Wed Sep 22 22:40:52 2021
; FORMAT={-:-/ absolute / metric / decimal}
; #@! TF.CreationDate,2021-09-22T22:40:52+01:00
; #@! TF.GenerationSoftware,Kicad,Pcbnew,(5.99.0-12348-g4b436fb86d)
; #@! TF.FileFunction,NonPlated,1,2,NPTH
FMAT,2
METRIC
; #@! TA.AperFunction,NonPlated,NPTH,ComponentDrill
T1C3.200
; #@! TA.AperFunction,NonPlated,NPTH,ComponentDrill
T2C3.500
; #@! TA.AperFunction,NonPlated,NPTH,ComponentDrill
T3C5.000
; #@! TA.AperFunction,NonPlated,NPTH,ComponentDrill
T4C6.000
; #@! TA.AperFunction,NonPlated,NPTH,ComponentDrill
T5C7.000
%
G90
G05
T2
X112.75Y-105.75
X147.25Y-105.75
T3
X111.5Y-84.95
X148.5Y-84.95
T4
X105.0Y-151.0
X115.0Y-151.0
X125.0Y-151.0
X135.0Y-151.0
X145.0Y-151.0
X155.0Y-151.0
T5
X114.0Y-125.0
X114.01Y-64.99
X130.0Y-83.5
X130.0Y-105.5
X146.0Y-65.0
X146.0Y-125.0
T1
G00X106.2Y-43.4
M15
G01X108.0Y-43.4
M16
G05
G00X106.2Y-165.9
M15
G01X108.0Y-165.9
M16
G05
G00X152.0Y-43.4
M15
G01X153.8Y-43.4
M16
G05
G00X152.0Y-165.9
M15
G01X153.8Y-165.9
M16
G05
T0
M30
