G04 #@! TF.GenerationSoftware,KiCad,Pcbnew,(5.1.5)-3*
G04 #@! TF.CreationDate,2020-05-17T16:45:55+01:00*
G04 #@! TF.ProjectId,Addatone Panel,41646461-746f-46e6-9520-50616e656c2e,rev?*
G04 #@! TF.SameCoordinates,Original*
G04 #@! TF.FileFunction,Soldermask,Top*
G04 #@! TF.FilePolarity,Negative*
%FSLAX46Y46*%
G04 Gerber Fmt 4.6, Leading zero omitted, Abs format (unit mm)*
G04 Created by KiCad (PCBNEW (5.1.5)-3) date 2020-05-17 16:45:55*
%MOMM*%
%LPD*%
G04 APERTURE LIST*
%ADD10C,0.100000*%
G04 APERTURE END LIST*
D10*
G36*
X153956950Y-164307717D02*
G01*
X154113655Y-164323151D01*
X154415256Y-164414641D01*
X154415258Y-164414642D01*
X154693213Y-164563211D01*
X154936845Y-164763155D01*
X155136789Y-165006787D01*
X155285358Y-165284742D01*
X155285359Y-165284744D01*
X155376849Y-165586345D01*
X155407741Y-165900000D01*
X155376849Y-166213655D01*
X155285359Y-166515256D01*
X155285358Y-166515258D01*
X155136789Y-166793213D01*
X154936845Y-167036845D01*
X154693213Y-167236789D01*
X154415258Y-167385358D01*
X154415256Y-167385359D01*
X154113655Y-167476849D01*
X153956950Y-167492283D01*
X153878598Y-167500000D01*
X151921402Y-167500000D01*
X151843050Y-167492283D01*
X151686345Y-167476849D01*
X151384744Y-167385359D01*
X151384742Y-167385358D01*
X151106787Y-167236789D01*
X150863155Y-167036845D01*
X150663211Y-166793213D01*
X150514642Y-166515258D01*
X150514641Y-166515256D01*
X150423151Y-166213655D01*
X150392259Y-165900000D01*
X150423151Y-165586345D01*
X150514641Y-165284744D01*
X150514642Y-165284742D01*
X150663211Y-165006787D01*
X150863155Y-164763155D01*
X151106787Y-164563211D01*
X151384742Y-164414642D01*
X151384744Y-164414641D01*
X151686345Y-164323151D01*
X151843050Y-164307717D01*
X151921402Y-164300000D01*
X153878598Y-164300000D01*
X153956950Y-164307717D01*
G37*
G36*
X108156950Y-164307717D02*
G01*
X108313655Y-164323151D01*
X108615256Y-164414641D01*
X108615258Y-164414642D01*
X108893213Y-164563211D01*
X109136845Y-164763155D01*
X109336789Y-165006787D01*
X109485358Y-165284742D01*
X109485359Y-165284744D01*
X109576849Y-165586345D01*
X109607741Y-165900000D01*
X109576849Y-166213655D01*
X109485359Y-166515256D01*
X109485358Y-166515258D01*
X109336789Y-166793213D01*
X109136845Y-167036845D01*
X108893213Y-167236789D01*
X108615258Y-167385358D01*
X108615256Y-167385359D01*
X108313655Y-167476849D01*
X108156950Y-167492283D01*
X108078598Y-167500000D01*
X106121402Y-167500000D01*
X106043050Y-167492283D01*
X105886345Y-167476849D01*
X105584744Y-167385359D01*
X105584742Y-167385358D01*
X105306787Y-167236789D01*
X105063155Y-167036845D01*
X104863211Y-166793213D01*
X104714642Y-166515258D01*
X104714641Y-166515256D01*
X104623151Y-166213655D01*
X104592259Y-165900000D01*
X104623151Y-165586345D01*
X104714641Y-165284744D01*
X104714642Y-165284742D01*
X104863211Y-165006787D01*
X105063155Y-164763155D01*
X105306787Y-164563211D01*
X105584742Y-164414642D01*
X105584744Y-164414641D01*
X105886345Y-164323151D01*
X106043050Y-164307717D01*
X106121402Y-164300000D01*
X108078598Y-164300000D01*
X108156950Y-164307717D01*
G37*
G36*
X125681870Y-148076859D02*
G01*
X125875068Y-148115288D01*
X126421033Y-148341434D01*
X126912389Y-148669748D01*
X127330252Y-149087611D01*
X127658566Y-149578967D01*
X127884712Y-150124932D01*
X128000000Y-150704526D01*
X128000000Y-151295474D01*
X127884712Y-151875068D01*
X127658566Y-152421033D01*
X127330252Y-152912389D01*
X126912389Y-153330252D01*
X126421033Y-153658566D01*
X125875068Y-153884712D01*
X125681870Y-153923141D01*
X125295476Y-154000000D01*
X124704524Y-154000000D01*
X124318130Y-153923141D01*
X124124932Y-153884712D01*
X123578967Y-153658566D01*
X123087611Y-153330252D01*
X122669748Y-152912389D01*
X122341434Y-152421033D01*
X122115288Y-151875068D01*
X122000000Y-151295474D01*
X122000000Y-150704526D01*
X122115288Y-150124932D01*
X122341434Y-149578967D01*
X122669748Y-149087611D01*
X123087611Y-148669748D01*
X123578967Y-148341434D01*
X124124932Y-148115288D01*
X124318130Y-148076859D01*
X124704524Y-148000000D01*
X125295476Y-148000000D01*
X125681870Y-148076859D01*
G37*
G36*
X115681870Y-148076859D02*
G01*
X115875068Y-148115288D01*
X116421033Y-148341434D01*
X116912389Y-148669748D01*
X117330252Y-149087611D01*
X117658566Y-149578967D01*
X117884712Y-150124932D01*
X118000000Y-150704526D01*
X118000000Y-151295474D01*
X117884712Y-151875068D01*
X117658566Y-152421033D01*
X117330252Y-152912389D01*
X116912389Y-153330252D01*
X116421033Y-153658566D01*
X115875068Y-153884712D01*
X115681870Y-153923141D01*
X115295476Y-154000000D01*
X114704524Y-154000000D01*
X114318130Y-153923141D01*
X114124932Y-153884712D01*
X113578967Y-153658566D01*
X113087611Y-153330252D01*
X112669748Y-152912389D01*
X112341434Y-152421033D01*
X112115288Y-151875068D01*
X112000000Y-151295474D01*
X112000000Y-150704526D01*
X112115288Y-150124932D01*
X112341434Y-149578967D01*
X112669748Y-149087611D01*
X113087611Y-148669748D01*
X113578967Y-148341434D01*
X114124932Y-148115288D01*
X114318130Y-148076859D01*
X114704524Y-148000000D01*
X115295476Y-148000000D01*
X115681870Y-148076859D01*
G37*
G36*
X105681870Y-148076859D02*
G01*
X105875068Y-148115288D01*
X106421033Y-148341434D01*
X106912389Y-148669748D01*
X107330252Y-149087611D01*
X107658566Y-149578967D01*
X107884712Y-150124932D01*
X108000000Y-150704526D01*
X108000000Y-151295474D01*
X107884712Y-151875068D01*
X107658566Y-152421033D01*
X107330252Y-152912389D01*
X106912389Y-153330252D01*
X106421033Y-153658566D01*
X105875068Y-153884712D01*
X105681870Y-153923141D01*
X105295476Y-154000000D01*
X104704524Y-154000000D01*
X104318130Y-153923141D01*
X104124932Y-153884712D01*
X103578967Y-153658566D01*
X103087611Y-153330252D01*
X102669748Y-152912389D01*
X102341434Y-152421033D01*
X102115288Y-151875068D01*
X102000000Y-151295474D01*
X102000000Y-150704526D01*
X102115288Y-150124932D01*
X102341434Y-149578967D01*
X102669748Y-149087611D01*
X103087611Y-148669748D01*
X103578967Y-148341434D01*
X104124932Y-148115288D01*
X104318130Y-148076859D01*
X104704524Y-148000000D01*
X105295476Y-148000000D01*
X105681870Y-148076859D01*
G37*
G36*
X135681870Y-148076859D02*
G01*
X135875068Y-148115288D01*
X136421033Y-148341434D01*
X136912389Y-148669748D01*
X137330252Y-149087611D01*
X137658566Y-149578967D01*
X137884712Y-150124932D01*
X138000000Y-150704526D01*
X138000000Y-151295474D01*
X137884712Y-151875068D01*
X137658566Y-152421033D01*
X137330252Y-152912389D01*
X136912389Y-153330252D01*
X136421033Y-153658566D01*
X135875068Y-153884712D01*
X135681870Y-153923141D01*
X135295476Y-154000000D01*
X134704524Y-154000000D01*
X134318130Y-153923141D01*
X134124932Y-153884712D01*
X133578967Y-153658566D01*
X133087611Y-153330252D01*
X132669748Y-152912389D01*
X132341434Y-152421033D01*
X132115288Y-151875068D01*
X132000000Y-151295474D01*
X132000000Y-150704526D01*
X132115288Y-150124932D01*
X132341434Y-149578967D01*
X132669748Y-149087611D01*
X133087611Y-148669748D01*
X133578967Y-148341434D01*
X134124932Y-148115288D01*
X134318130Y-148076859D01*
X134704524Y-148000000D01*
X135295476Y-148000000D01*
X135681870Y-148076859D01*
G37*
G36*
X145681870Y-148076859D02*
G01*
X145875068Y-148115288D01*
X146421033Y-148341434D01*
X146912389Y-148669748D01*
X147330252Y-149087611D01*
X147658566Y-149578967D01*
X147884712Y-150124932D01*
X148000000Y-150704526D01*
X148000000Y-151295474D01*
X147884712Y-151875068D01*
X147658566Y-152421033D01*
X147330252Y-152912389D01*
X146912389Y-153330252D01*
X146421033Y-153658566D01*
X145875068Y-153884712D01*
X145681870Y-153923141D01*
X145295476Y-154000000D01*
X144704524Y-154000000D01*
X144318130Y-153923141D01*
X144124932Y-153884712D01*
X143578967Y-153658566D01*
X143087611Y-153330252D01*
X142669748Y-152912389D01*
X142341434Y-152421033D01*
X142115288Y-151875068D01*
X142000000Y-151295474D01*
X142000000Y-150704526D01*
X142115288Y-150124932D01*
X142341434Y-149578967D01*
X142669748Y-149087611D01*
X143087611Y-148669748D01*
X143578967Y-148341434D01*
X144124932Y-148115288D01*
X144318130Y-148076859D01*
X144704524Y-148000000D01*
X145295476Y-148000000D01*
X145681870Y-148076859D01*
G37*
G36*
X155681870Y-148076859D02*
G01*
X155875068Y-148115288D01*
X156421033Y-148341434D01*
X156912389Y-148669748D01*
X157330252Y-149087611D01*
X157658566Y-149578967D01*
X157884712Y-150124932D01*
X158000000Y-150704526D01*
X158000000Y-151295474D01*
X157884712Y-151875068D01*
X157658566Y-152421033D01*
X157330252Y-152912389D01*
X156912389Y-153330252D01*
X156421033Y-153658566D01*
X155875068Y-153884712D01*
X155681870Y-153923141D01*
X155295476Y-154000000D01*
X154704524Y-154000000D01*
X154318130Y-153923141D01*
X154124932Y-153884712D01*
X153578967Y-153658566D01*
X153087611Y-153330252D01*
X152669748Y-152912389D01*
X152341434Y-152421033D01*
X152115288Y-151875068D01*
X152000000Y-151295474D01*
X152000000Y-150704526D01*
X152115288Y-150124932D01*
X152341434Y-149578967D01*
X152669748Y-149087611D01*
X153087611Y-148669748D01*
X153578967Y-148341434D01*
X154124932Y-148115288D01*
X154318130Y-148076859D01*
X154704524Y-148000000D01*
X155295476Y-148000000D01*
X155681870Y-148076859D01*
G37*
G36*
X114682816Y-121567252D02*
G01*
X115020912Y-121634503D01*
X115657872Y-121898340D01*
X116231120Y-122281372D01*
X116718628Y-122768880D01*
X117101660Y-123342128D01*
X117365497Y-123979088D01*
X117500000Y-124655280D01*
X117500000Y-125344720D01*
X117365497Y-126020912D01*
X117101660Y-126657872D01*
X116718628Y-127231120D01*
X116231120Y-127718628D01*
X115657872Y-128101660D01*
X115020912Y-128365497D01*
X114682816Y-128432749D01*
X114344721Y-128500000D01*
X113655279Y-128500000D01*
X113317184Y-128432749D01*
X112979088Y-128365497D01*
X112342128Y-128101660D01*
X111768880Y-127718628D01*
X111281372Y-127231120D01*
X110898340Y-126657872D01*
X110634503Y-126020912D01*
X110500000Y-125344720D01*
X110500000Y-124655280D01*
X110634503Y-123979088D01*
X110898340Y-123342128D01*
X111281372Y-122768880D01*
X111768880Y-122281372D01*
X112342128Y-121898340D01*
X112979088Y-121634503D01*
X113317184Y-121567252D01*
X113655279Y-121500000D01*
X114344721Y-121500000D01*
X114682816Y-121567252D01*
G37*
G36*
X146682816Y-121567252D02*
G01*
X147020912Y-121634503D01*
X147657872Y-121898340D01*
X148231120Y-122281372D01*
X148718628Y-122768880D01*
X149101660Y-123342128D01*
X149365497Y-123979088D01*
X149500000Y-124655280D01*
X149500000Y-125344720D01*
X149365497Y-126020912D01*
X149101660Y-126657872D01*
X148718628Y-127231120D01*
X148231120Y-127718628D01*
X147657872Y-128101660D01*
X147020912Y-128365497D01*
X146682816Y-128432749D01*
X146344721Y-128500000D01*
X145655279Y-128500000D01*
X145317184Y-128432749D01*
X144979088Y-128365497D01*
X144342128Y-128101660D01*
X143768880Y-127718628D01*
X143281372Y-127231120D01*
X142898340Y-126657872D01*
X142634503Y-126020912D01*
X142500000Y-125344720D01*
X142500000Y-124655280D01*
X142634503Y-123979088D01*
X142898340Y-123342128D01*
X143281372Y-122768880D01*
X143768880Y-122281372D01*
X144342128Y-121898340D01*
X144979088Y-121634503D01*
X145317184Y-121567252D01*
X145655279Y-121500000D01*
X146344721Y-121500000D01*
X146682816Y-121567252D01*
G37*
G36*
X130682816Y-102067251D02*
G01*
X131020912Y-102134503D01*
X131657872Y-102398340D01*
X132231120Y-102781372D01*
X132718628Y-103268880D01*
X133101660Y-103842128D01*
X133328880Y-104390686D01*
X133365497Y-104479089D01*
X133500000Y-105155279D01*
X133500000Y-105844721D01*
X133484556Y-105922361D01*
X133365497Y-106520912D01*
X133101660Y-107157872D01*
X132718628Y-107731120D01*
X132231120Y-108218628D01*
X131657872Y-108601660D01*
X131020912Y-108865497D01*
X130682816Y-108932749D01*
X130344721Y-109000000D01*
X129655279Y-109000000D01*
X129317184Y-108932749D01*
X128979088Y-108865497D01*
X128342128Y-108601660D01*
X127768880Y-108218628D01*
X127281372Y-107731120D01*
X126898340Y-107157872D01*
X126634503Y-106520912D01*
X126515444Y-105922361D01*
X126500000Y-105844721D01*
X126500000Y-105155279D01*
X126634503Y-104479089D01*
X126671121Y-104390686D01*
X126898340Y-103842128D01*
X127281372Y-103268880D01*
X127768880Y-102781372D01*
X128342128Y-102398340D01*
X128979088Y-102134503D01*
X129317184Y-102067251D01*
X129655279Y-102000000D01*
X130344721Y-102000000D01*
X130682816Y-102067251D01*
G37*
G36*
X147591408Y-104033626D02*
G01*
X147760456Y-104067251D01*
X148078936Y-104199170D01*
X148365560Y-104390686D01*
X148609314Y-104634440D01*
X148800830Y-104921064D01*
X148932749Y-105239544D01*
X149000000Y-105577640D01*
X149000000Y-105922360D01*
X148932749Y-106260456D01*
X148800830Y-106578936D01*
X148609314Y-106865560D01*
X148365560Y-107109314D01*
X148078936Y-107300830D01*
X147760456Y-107432749D01*
X147591408Y-107466374D01*
X147422361Y-107500000D01*
X147077639Y-107500000D01*
X146908592Y-107466374D01*
X146739544Y-107432749D01*
X146421064Y-107300830D01*
X146134440Y-107109314D01*
X145890686Y-106865560D01*
X145699170Y-106578936D01*
X145567251Y-106260456D01*
X145500000Y-105922360D01*
X145500000Y-105577640D01*
X145567251Y-105239544D01*
X145699170Y-104921064D01*
X145890686Y-104634440D01*
X146134440Y-104390686D01*
X146421064Y-104199170D01*
X146739544Y-104067251D01*
X146908592Y-104033626D01*
X147077639Y-104000000D01*
X147422361Y-104000000D01*
X147591408Y-104033626D01*
G37*
G36*
X113091408Y-104033626D02*
G01*
X113260456Y-104067251D01*
X113578936Y-104199170D01*
X113865560Y-104390686D01*
X114109314Y-104634440D01*
X114300830Y-104921064D01*
X114432749Y-105239544D01*
X114500000Y-105577640D01*
X114500000Y-105922360D01*
X114432749Y-106260456D01*
X114300830Y-106578936D01*
X114109314Y-106865560D01*
X113865560Y-107109314D01*
X113578936Y-107300830D01*
X113260456Y-107432749D01*
X113091408Y-107466374D01*
X112922361Y-107500000D01*
X112577639Y-107500000D01*
X112408592Y-107466374D01*
X112239544Y-107432749D01*
X111921064Y-107300830D01*
X111634440Y-107109314D01*
X111390686Y-106865560D01*
X111199170Y-106578936D01*
X111067251Y-106260456D01*
X111000000Y-105922360D01*
X111000000Y-105577640D01*
X111067251Y-105239544D01*
X111199170Y-104921064D01*
X111390686Y-104634440D01*
X111634440Y-104390686D01*
X111921064Y-104199170D01*
X112239544Y-104067251D01*
X112408592Y-104033626D01*
X112577639Y-104000000D01*
X112922361Y-104000000D01*
X113091408Y-104033626D01*
G37*
G36*
X149229222Y-82546073D02*
G01*
X149684192Y-82734528D01*
X149684194Y-82734529D01*
X149890315Y-82872255D01*
X150093656Y-83008123D01*
X150441877Y-83356344D01*
X150715472Y-83765808D01*
X150903927Y-84220778D01*
X151000000Y-84703770D01*
X151000000Y-85196230D01*
X150903927Y-85679222D01*
X150882430Y-85731120D01*
X150715471Y-86134194D01*
X150441876Y-86543657D01*
X150093657Y-86891876D01*
X149684194Y-87165471D01*
X149684193Y-87165472D01*
X149684192Y-87165472D01*
X149229222Y-87353927D01*
X148746230Y-87450000D01*
X148253770Y-87450000D01*
X147770778Y-87353927D01*
X147315808Y-87165472D01*
X147315807Y-87165472D01*
X147315806Y-87165471D01*
X146906343Y-86891876D01*
X146558124Y-86543657D01*
X146284529Y-86134194D01*
X146117570Y-85731120D01*
X146096073Y-85679222D01*
X146000000Y-85196230D01*
X146000000Y-84703770D01*
X146096073Y-84220778D01*
X146284528Y-83765808D01*
X146558123Y-83356344D01*
X146906344Y-83008123D01*
X147109685Y-82872255D01*
X147315806Y-82734529D01*
X147315808Y-82734528D01*
X147770778Y-82546073D01*
X148253770Y-82450000D01*
X148746230Y-82450000D01*
X149229222Y-82546073D01*
G37*
G36*
X112229222Y-82546073D02*
G01*
X112684192Y-82734528D01*
X112684194Y-82734529D01*
X112890315Y-82872255D01*
X113093656Y-83008123D01*
X113441877Y-83356344D01*
X113715472Y-83765808D01*
X113903927Y-84220778D01*
X114000000Y-84703770D01*
X114000000Y-85196230D01*
X113903927Y-85679222D01*
X113882430Y-85731120D01*
X113715471Y-86134194D01*
X113441876Y-86543657D01*
X113093657Y-86891876D01*
X112684194Y-87165471D01*
X112684193Y-87165472D01*
X112684192Y-87165472D01*
X112229222Y-87353927D01*
X111746230Y-87450000D01*
X111253770Y-87450000D01*
X110770778Y-87353927D01*
X110315808Y-87165472D01*
X110315807Y-87165472D01*
X110315806Y-87165471D01*
X109906343Y-86891876D01*
X109558124Y-86543657D01*
X109284529Y-86134194D01*
X109117570Y-85731120D01*
X109096073Y-85679222D01*
X109000000Y-85196230D01*
X109000000Y-84703770D01*
X109096073Y-84220778D01*
X109284528Y-83765808D01*
X109558123Y-83356344D01*
X109906344Y-83008123D01*
X110109685Y-82872255D01*
X110315806Y-82734529D01*
X110315808Y-82734528D01*
X110770778Y-82546073D01*
X111253770Y-82450000D01*
X111746230Y-82450000D01*
X112229222Y-82546073D01*
G37*
G36*
X130682816Y-80067252D02*
G01*
X131020912Y-80134503D01*
X131657872Y-80398340D01*
X132231120Y-80781372D01*
X132718628Y-81268880D01*
X133101660Y-81842128D01*
X133365497Y-82479088D01*
X133500000Y-83155280D01*
X133500000Y-83844720D01*
X133365497Y-84520912D01*
X133101660Y-85157872D01*
X132718628Y-85731120D01*
X132231120Y-86218628D01*
X131657872Y-86601660D01*
X131020912Y-86865497D01*
X130682816Y-86932749D01*
X130344721Y-87000000D01*
X129655279Y-87000000D01*
X129317184Y-86932749D01*
X128979088Y-86865497D01*
X128342128Y-86601660D01*
X127768880Y-86218628D01*
X127281372Y-85731120D01*
X126898340Y-85157872D01*
X126634503Y-84520912D01*
X126500000Y-83844720D01*
X126500000Y-83155280D01*
X126634503Y-82479088D01*
X126898340Y-81842128D01*
X127281372Y-81268880D01*
X127768880Y-80781372D01*
X128342128Y-80398340D01*
X128979088Y-80134503D01*
X129317184Y-80067252D01*
X129655279Y-80000000D01*
X130344721Y-80000000D01*
X130682816Y-80067252D01*
G37*
G36*
X114682816Y-61567252D02*
G01*
X115020912Y-61634503D01*
X115657872Y-61898340D01*
X116231120Y-62281372D01*
X116718628Y-62768880D01*
X117101660Y-63342128D01*
X117365497Y-63979088D01*
X117500000Y-64655280D01*
X117500000Y-65344720D01*
X117365497Y-66020912D01*
X117101660Y-66657872D01*
X116718628Y-67231120D01*
X116231120Y-67718628D01*
X115657872Y-68101660D01*
X115020912Y-68365497D01*
X114682816Y-68432748D01*
X114344721Y-68500000D01*
X113655279Y-68500000D01*
X113317184Y-68432748D01*
X112979088Y-68365497D01*
X112342128Y-68101660D01*
X111768880Y-67718628D01*
X111281372Y-67231120D01*
X110898340Y-66657872D01*
X110634503Y-66020912D01*
X110500000Y-65344720D01*
X110500000Y-64655280D01*
X110634503Y-63979088D01*
X110898340Y-63342128D01*
X111281372Y-62768880D01*
X111768880Y-62281372D01*
X112342128Y-61898340D01*
X112979088Y-61634503D01*
X113317184Y-61567252D01*
X113655279Y-61500000D01*
X114344721Y-61500000D01*
X114682816Y-61567252D01*
G37*
G36*
X146682816Y-61567252D02*
G01*
X147020912Y-61634503D01*
X147657872Y-61898340D01*
X148231120Y-62281372D01*
X148718628Y-62768880D01*
X149101660Y-63342128D01*
X149365497Y-63979088D01*
X149500000Y-64655280D01*
X149500000Y-65344720D01*
X149365497Y-66020912D01*
X149101660Y-66657872D01*
X148718628Y-67231120D01*
X148231120Y-67718628D01*
X147657872Y-68101660D01*
X147020912Y-68365497D01*
X146682816Y-68432748D01*
X146344721Y-68500000D01*
X145655279Y-68500000D01*
X145317184Y-68432748D01*
X144979088Y-68365497D01*
X144342128Y-68101660D01*
X143768880Y-67718628D01*
X143281372Y-67231120D01*
X142898340Y-66657872D01*
X142634503Y-66020912D01*
X142500000Y-65344720D01*
X142500000Y-64655280D01*
X142634503Y-63979088D01*
X142898340Y-63342128D01*
X143281372Y-62768880D01*
X143768880Y-62281372D01*
X144342128Y-61898340D01*
X144979088Y-61634503D01*
X145317184Y-61567252D01*
X145655279Y-61500000D01*
X146344721Y-61500000D01*
X146682816Y-61567252D01*
G37*
G36*
X128930000Y-56450000D02*
G01*
X128430000Y-56450000D01*
X128430000Y-55550000D01*
X128930000Y-55550000D01*
X128930000Y-56450000D01*
G37*
G36*
X130430000Y-56450000D02*
G01*
X129930000Y-56450000D01*
X129930000Y-55550000D01*
X130430000Y-55550000D01*
X130430000Y-56450000D01*
G37*
G36*
X153956950Y-41807717D02*
G01*
X154113655Y-41823151D01*
X154415256Y-41914641D01*
X154415258Y-41914642D01*
X154693213Y-42063211D01*
X154936845Y-42263155D01*
X155136789Y-42506787D01*
X155285358Y-42784742D01*
X155285359Y-42784744D01*
X155376849Y-43086345D01*
X155407741Y-43400000D01*
X155376849Y-43713655D01*
X155285359Y-44015256D01*
X155285358Y-44015258D01*
X155136789Y-44293213D01*
X154936845Y-44536845D01*
X154693213Y-44736789D01*
X154415258Y-44885358D01*
X154415256Y-44885359D01*
X154113655Y-44976849D01*
X153956950Y-44992283D01*
X153878598Y-45000000D01*
X151921402Y-45000000D01*
X151843050Y-44992283D01*
X151686345Y-44976849D01*
X151384744Y-44885359D01*
X151384742Y-44885358D01*
X151106787Y-44736789D01*
X150863155Y-44536845D01*
X150663211Y-44293213D01*
X150514642Y-44015258D01*
X150514641Y-44015256D01*
X150423151Y-43713655D01*
X150392259Y-43400000D01*
X150423151Y-43086345D01*
X150514641Y-42784744D01*
X150514642Y-42784742D01*
X150663211Y-42506787D01*
X150863155Y-42263155D01*
X151106787Y-42063211D01*
X151384742Y-41914642D01*
X151384744Y-41914641D01*
X151686345Y-41823151D01*
X151843050Y-41807717D01*
X151921402Y-41800000D01*
X153878598Y-41800000D01*
X153956950Y-41807717D01*
G37*
G36*
X108156950Y-41807717D02*
G01*
X108313655Y-41823151D01*
X108615256Y-41914641D01*
X108615258Y-41914642D01*
X108893213Y-42063211D01*
X109136845Y-42263155D01*
X109336789Y-42506787D01*
X109485358Y-42784742D01*
X109485359Y-42784744D01*
X109576849Y-43086345D01*
X109607741Y-43400000D01*
X109576849Y-43713655D01*
X109485359Y-44015256D01*
X109485358Y-44015258D01*
X109336789Y-44293213D01*
X109136845Y-44536845D01*
X108893213Y-44736789D01*
X108615258Y-44885358D01*
X108615256Y-44885359D01*
X108313655Y-44976849D01*
X108156950Y-44992283D01*
X108078598Y-45000000D01*
X106121402Y-45000000D01*
X106043050Y-44992283D01*
X105886345Y-44976849D01*
X105584744Y-44885359D01*
X105584742Y-44885358D01*
X105306787Y-44736789D01*
X105063155Y-44536845D01*
X104863211Y-44293213D01*
X104714642Y-44015258D01*
X104714641Y-44015256D01*
X104623151Y-43713655D01*
X104592259Y-43400000D01*
X104623151Y-43086345D01*
X104714641Y-42784744D01*
X104714642Y-42784742D01*
X104863211Y-42506787D01*
X105063155Y-42263155D01*
X105306787Y-42063211D01*
X105584742Y-41914642D01*
X105584744Y-41914641D01*
X105886345Y-41823151D01*
X106043050Y-41807717D01*
X106121402Y-41800000D01*
X108078598Y-41800000D01*
X108156950Y-41807717D01*
G37*
M02*
