%TF.GenerationSoftware,KiCad,Pcbnew,(5.99.0-12348-g4b436fb86d)*%
%TF.CreationDate,2021-09-22T22:40:44+01:00*%
%TF.ProjectId,Addatone Panel,41646461-746f-46e6-9520-50616e656c2e,rev?*%
%TF.SameCoordinates,Original*%
%TF.FileFunction,Copper,L2,Bot*%
%TF.FilePolarity,Positive*%
%FSLAX46Y46*%
G04 Gerber Fmt 4.6, Leading zero omitted, Abs format (unit mm)*
G04 Created by KiCad (PCBNEW (5.99.0-12348-g4b436fb86d)) date 2021-09-22 22:40:44*
%MOMM*%
%LPD*%
G01*
G04 APERTURE LIST*
%TA.AperFunction,NonConductor*%
%ADD10C,0.100000*%
%TD*%
G04 APERTURE END LIST*
D10*
X110500000Y-163000000D02*
X101000000Y-163000000D01*
X101000000Y-163000000D02*
X101000000Y-139500000D01*
X101000000Y-139500000D02*
X114500000Y-139500000D01*
X114500000Y-139500000D02*
X119500000Y-145500000D01*
X119500000Y-145500000D02*
X140500000Y-145500000D01*
X140500000Y-145500000D02*
X145000000Y-139500000D01*
X145000000Y-139500000D02*
X159000000Y-139500000D01*
X159000000Y-139500000D02*
X159000000Y-163000000D01*
X159000000Y-163000000D02*
X149500000Y-163000000D01*
X149500000Y-163000000D02*
X148000000Y-161000000D01*
X148000000Y-161000000D02*
X112000000Y-161000000D01*
X112000000Y-161000000D02*
X110500000Y-163000000D01*
G36*
X119500000Y-145500000D02*
G01*
X140500000Y-145500000D01*
X145000000Y-139500000D01*
X159000000Y-139500000D01*
X159000000Y-163000000D01*
X149500000Y-163000000D01*
X148000000Y-161000000D01*
X112000000Y-161000000D01*
X110500000Y-163000000D01*
X101000000Y-163000000D01*
X101000000Y-139500000D01*
X114500000Y-139500000D01*
X119500000Y-145500000D01*
G37*
X119500000Y-145500000D02*
X140500000Y-145500000D01*
X145000000Y-139500000D01*
X159000000Y-139500000D01*
X159000000Y-163000000D01*
X149500000Y-163000000D01*
X148000000Y-161000000D01*
X112000000Y-161000000D01*
X110500000Y-163000000D01*
X101000000Y-163000000D01*
X101000000Y-139500000D01*
X114500000Y-139500000D01*
X119500000Y-145500000D01*
X112000000Y-44500000D02*
X114000000Y-41500000D01*
X114000000Y-41500000D02*
X146000000Y-41500000D01*
X146000000Y-41500000D02*
X148000000Y-44500000D01*
X148000000Y-44500000D02*
X148000000Y-45500000D01*
X148000000Y-45500000D02*
X146000000Y-48500000D01*
X146000000Y-48500000D02*
X114000000Y-48500000D01*
X114000000Y-48500000D02*
X112000000Y-45500000D01*
X112000000Y-45500000D02*
X112000000Y-44500000D01*
G36*
X148000000Y-44500000D02*
G01*
X148000000Y-45500000D01*
X146000000Y-48500000D01*
X114000000Y-48500000D01*
X112000000Y-45500000D01*
X112000000Y-44500000D01*
X114000000Y-41500000D01*
X146000000Y-41500000D01*
X148000000Y-44500000D01*
G37*
X148000000Y-44500000D02*
X148000000Y-45500000D01*
X146000000Y-48500000D01*
X114000000Y-48500000D01*
X112000000Y-45500000D01*
X112000000Y-44500000D01*
X114000000Y-41500000D01*
X146000000Y-41500000D01*
X148000000Y-44500000D01*
X140500000Y-99500000D02*
X159000000Y-99500000D01*
X159000000Y-99500000D02*
X159000000Y-112500000D01*
X159000000Y-112500000D02*
X140500000Y-112500000D01*
X140500000Y-112500000D02*
X134500000Y-118500000D01*
X134500000Y-118500000D02*
X125500000Y-118500000D01*
X125500000Y-118500000D02*
X119500000Y-112500000D01*
X119500000Y-112500000D02*
X101000000Y-112500000D01*
X101000000Y-112500000D02*
X101000000Y-99500000D01*
X101000000Y-99500000D02*
X119500000Y-99500000D01*
X119500000Y-99500000D02*
X125500000Y-93500000D01*
X125500000Y-93500000D02*
X134500000Y-93500000D01*
X134500000Y-93500000D02*
X140500000Y-99500000D01*
G36*
X140500000Y-99500000D02*
G01*
X159000000Y-99500000D01*
X159000000Y-112500000D01*
X140500000Y-112500000D01*
X134500000Y-118500000D01*
X125500000Y-118500000D01*
X119500000Y-112500000D01*
X101000000Y-112500000D01*
X101000000Y-99500000D01*
X119500000Y-99500000D01*
X125500000Y-93500000D01*
X134500000Y-93500000D01*
X140500000Y-99500000D01*
G37*
X140500000Y-99500000D02*
X159000000Y-99500000D01*
X159000000Y-112500000D01*
X140500000Y-112500000D01*
X134500000Y-118500000D01*
X125500000Y-118500000D01*
X119500000Y-112500000D01*
X101000000Y-112500000D01*
X101000000Y-99500000D01*
X119500000Y-99500000D01*
X125500000Y-93500000D01*
X134500000Y-93500000D01*
X140500000Y-99500000D01*
X148500000Y-46500000D02*
X159000000Y-46500000D01*
X159000000Y-46500000D02*
X159000000Y-98500000D01*
X159000000Y-98500000D02*
X141000000Y-98500000D01*
X141000000Y-98500000D02*
X135000000Y-92500000D01*
X135000000Y-92500000D02*
X125000000Y-92500000D01*
X125000000Y-92500000D02*
X119000000Y-98500000D01*
X119000000Y-98500000D02*
X101000000Y-98500000D01*
X101000000Y-98500000D02*
X101000000Y-46500000D01*
X101000000Y-46500000D02*
X111500000Y-46500000D01*
X111500000Y-46500000D02*
X113500000Y-49500000D01*
X113500000Y-49500000D02*
X146500000Y-49500000D01*
X146500000Y-49500000D02*
X148500000Y-46500000D01*
G36*
X113500000Y-49500000D02*
G01*
X146500000Y-49500000D01*
X148500000Y-46500000D01*
X159000000Y-46500000D01*
X159000000Y-98500000D01*
X141000000Y-98500000D01*
X135000000Y-92500000D01*
X125000000Y-92500000D01*
X119000000Y-98500000D01*
X101000000Y-98500000D01*
X101000000Y-46500000D01*
X111500000Y-46500000D01*
X113500000Y-49500000D01*
G37*
X113500000Y-49500000D02*
X146500000Y-49500000D01*
X148500000Y-46500000D01*
X159000000Y-46500000D01*
X159000000Y-98500000D01*
X141000000Y-98500000D01*
X135000000Y-92500000D01*
X125000000Y-92500000D01*
X119000000Y-98500000D01*
X101000000Y-98500000D01*
X101000000Y-46500000D01*
X111500000Y-46500000D01*
X113500000Y-49500000D01*
X159000000Y-138500000D02*
X144500000Y-138500000D01*
X144500000Y-138500000D02*
X140000000Y-144500000D01*
X140000000Y-144500000D02*
X120000000Y-144500000D01*
X120000000Y-144500000D02*
X115000000Y-138500000D01*
X115000000Y-138500000D02*
X101000000Y-138500000D01*
X101000000Y-138500000D02*
X101000000Y-113500000D01*
X101000000Y-113500000D02*
X119000000Y-113500000D01*
X119000000Y-113500000D02*
X125000000Y-119500000D01*
X125000000Y-119500000D02*
X135000000Y-119500000D01*
X135000000Y-119500000D02*
X141000000Y-113500000D01*
X141000000Y-113500000D02*
X159000000Y-113500000D01*
X159000000Y-113500000D02*
X159000000Y-138500000D01*
G36*
X125000000Y-119500000D02*
G01*
X135000000Y-119500000D01*
X141000000Y-113500000D01*
X159000000Y-113500000D01*
X159000000Y-138500000D01*
X144500000Y-138500000D01*
X140000000Y-144500000D01*
X120000000Y-144500000D01*
X115000000Y-138500000D01*
X101000000Y-138500000D01*
X101000000Y-113500000D01*
X119000000Y-113500000D01*
X125000000Y-119500000D01*
G37*
X125000000Y-119500000D02*
X135000000Y-119500000D01*
X141000000Y-113500000D01*
X159000000Y-113500000D01*
X159000000Y-138500000D01*
X144500000Y-138500000D01*
X140000000Y-144500000D01*
X120000000Y-144500000D01*
X115000000Y-138500000D01*
X101000000Y-138500000D01*
X101000000Y-113500000D01*
X119000000Y-113500000D01*
X125000000Y-119500000D01*
X149500000Y-164500000D02*
X149500000Y-165500000D01*
X149500000Y-165500000D02*
X147000000Y-168000000D01*
X147000000Y-168000000D02*
X112500000Y-168000000D01*
X112500000Y-168000000D02*
X110500000Y-165500000D01*
X110500000Y-165500000D02*
X110500000Y-164500000D01*
X110500000Y-164500000D02*
X112500000Y-162000000D01*
X112500000Y-162000000D02*
X147500000Y-162000000D01*
X147500000Y-162000000D02*
X149500000Y-164500000D01*
G36*
X149500000Y-164500000D02*
G01*
X149500000Y-165500000D01*
X147000000Y-168000000D01*
X112500000Y-168000000D01*
X110500000Y-165500000D01*
X110500000Y-164500000D01*
X112500000Y-162000000D01*
X147500000Y-162000000D01*
X149500000Y-164500000D01*
G37*
X149500000Y-164500000D02*
X149500000Y-165500000D01*
X147000000Y-168000000D01*
X112500000Y-168000000D01*
X110500000Y-165500000D01*
X110500000Y-164500000D01*
X112500000Y-162000000D01*
X147500000Y-162000000D01*
X149500000Y-164500000D01*
M02*
