G04 #@! TF.GenerationSoftware,KiCad,Pcbnew,(5.1.5)-3*
G04 #@! TF.CreationDate,2020-04-02T15:24:23+01:00*
G04 #@! TF.ProjectId,STM32L152_Dev_Board,53544d33-324c-4313-9532-5f4465765f42,rev?*
G04 #@! TF.SameCoordinates,Original*
G04 #@! TF.FileFunction,Legend,Top*
G04 #@! TF.FilePolarity,Positive*
%FSLAX46Y46*%
G04 Gerber Fmt 4.6, Leading zero omitted, Abs format (unit mm)*
G04 Created by KiCad (PCBNEW (5.1.5)-3) date 2020-04-02 15:24:23*
%MOMM*%
%LPD*%
G04 APERTURE LIST*
%ADD10C,0.150000*%
%ADD11C,0.300000*%
%ADD12C,0.100000*%
%ADD13C,0.120000*%
%ADD14C,0.400000*%
G04 APERTURE END LIST*
D10*
X205438095Y-146671428D02*
X206200000Y-146671428D01*
X207200000Y-147052380D02*
X206628571Y-147052380D01*
X206914285Y-147052380D02*
X206914285Y-146052380D01*
X206819047Y-146195238D01*
X206723809Y-146290476D01*
X206628571Y-146338095D01*
X207580952Y-146147619D02*
X207628571Y-146100000D01*
X207723809Y-146052380D01*
X207961904Y-146052380D01*
X208057142Y-146100000D01*
X208104761Y-146147619D01*
X208152380Y-146242857D01*
X208152380Y-146338095D01*
X208104761Y-146480952D01*
X207533333Y-147052380D01*
X208152380Y-147052380D01*
X208438095Y-146052380D02*
X208771428Y-147052380D01*
X209104761Y-146052380D01*
X190461904Y-130500000D02*
X190366666Y-130452380D01*
X190223809Y-130452380D01*
X190080952Y-130500000D01*
X189985714Y-130595238D01*
X189938095Y-130690476D01*
X189890476Y-130880952D01*
X189890476Y-131023809D01*
X189938095Y-131214285D01*
X189985714Y-131309523D01*
X190080952Y-131404761D01*
X190223809Y-131452380D01*
X190319047Y-131452380D01*
X190461904Y-131404761D01*
X190509523Y-131357142D01*
X190509523Y-131023809D01*
X190319047Y-131023809D01*
D11*
X195678571Y-141557142D02*
X194964285Y-142057142D01*
X195678571Y-142414285D02*
X194178571Y-142414285D01*
X194178571Y-141842857D01*
X194250000Y-141700000D01*
X194321428Y-141628571D01*
X194464285Y-141557142D01*
X194678571Y-141557142D01*
X194821428Y-141628571D01*
X194892857Y-141700000D01*
X194964285Y-141842857D01*
X194964285Y-142414285D01*
X195607142Y-140342857D02*
X195678571Y-140485714D01*
X195678571Y-140771428D01*
X195607142Y-140914285D01*
X195464285Y-140985714D01*
X194892857Y-140985714D01*
X194750000Y-140914285D01*
X194678571Y-140771428D01*
X194678571Y-140485714D01*
X194750000Y-140342857D01*
X194892857Y-140271428D01*
X195035714Y-140271428D01*
X195178571Y-140985714D01*
X195607142Y-139700000D02*
X195678571Y-139557142D01*
X195678571Y-139271428D01*
X195607142Y-139128571D01*
X195464285Y-139057142D01*
X195392857Y-139057142D01*
X195250000Y-139128571D01*
X195178571Y-139271428D01*
X195178571Y-139485714D01*
X195107142Y-139628571D01*
X194964285Y-139700000D01*
X194892857Y-139700000D01*
X194750000Y-139628571D01*
X194678571Y-139485714D01*
X194678571Y-139271428D01*
X194750000Y-139128571D01*
X195607142Y-137842857D02*
X195678571Y-137985714D01*
X195678571Y-138271428D01*
X195607142Y-138414285D01*
X195464285Y-138485714D01*
X194892857Y-138485714D01*
X194750000Y-138414285D01*
X194678571Y-138271428D01*
X194678571Y-137985714D01*
X194750000Y-137842857D01*
X194892857Y-137771428D01*
X195035714Y-137771428D01*
X195178571Y-138485714D01*
X194678571Y-137342857D02*
X194678571Y-136771428D01*
X194178571Y-137128571D02*
X195464285Y-137128571D01*
X195607142Y-137057142D01*
X195678571Y-136914285D01*
X195678571Y-136771428D01*
D10*
X198672380Y-148045285D02*
X197672380Y-148045285D01*
X197672380Y-147664333D01*
X197720000Y-147569095D01*
X197767619Y-147521476D01*
X197862857Y-147473857D01*
X198005714Y-147473857D01*
X198100952Y-147521476D01*
X198148571Y-147569095D01*
X198196190Y-147664333D01*
X198196190Y-148045285D01*
X198148571Y-146711952D02*
X198196190Y-146569095D01*
X198243809Y-146521476D01*
X198339047Y-146473857D01*
X198481904Y-146473857D01*
X198577142Y-146521476D01*
X198624761Y-146569095D01*
X198672380Y-146664333D01*
X198672380Y-147045285D01*
X197672380Y-147045285D01*
X197672380Y-146711952D01*
X197720000Y-146616714D01*
X197767619Y-146569095D01*
X197862857Y-146521476D01*
X197958095Y-146521476D01*
X198053333Y-146569095D01*
X198100952Y-146616714D01*
X198148571Y-146711952D01*
X198148571Y-147045285D01*
X198672380Y-145521476D02*
X198672380Y-146092904D01*
X198672380Y-145807190D02*
X197672380Y-145807190D01*
X197815238Y-145902428D01*
X197910476Y-145997666D01*
X197958095Y-146092904D01*
X197672380Y-144616714D02*
X197672380Y-145092904D01*
X198148571Y-145140523D01*
X198100952Y-145092904D01*
X198053333Y-144997666D01*
X198053333Y-144759571D01*
X198100952Y-144664333D01*
X198148571Y-144616714D01*
X198243809Y-144569095D01*
X198481904Y-144569095D01*
X198577142Y-144616714D01*
X198624761Y-144664333D01*
X198672380Y-144759571D01*
X198672380Y-144997666D01*
X198624761Y-145092904D01*
X198577142Y-145140523D01*
X196132380Y-148045285D02*
X195132380Y-148045285D01*
X195132380Y-147664333D01*
X195180000Y-147569095D01*
X195227619Y-147521476D01*
X195322857Y-147473857D01*
X195465714Y-147473857D01*
X195560952Y-147521476D01*
X195608571Y-147569095D01*
X195656190Y-147664333D01*
X195656190Y-148045285D01*
X195608571Y-146711952D02*
X195656190Y-146569095D01*
X195703809Y-146521476D01*
X195799047Y-146473857D01*
X195941904Y-146473857D01*
X196037142Y-146521476D01*
X196084761Y-146569095D01*
X196132380Y-146664333D01*
X196132380Y-147045285D01*
X195132380Y-147045285D01*
X195132380Y-146711952D01*
X195180000Y-146616714D01*
X195227619Y-146569095D01*
X195322857Y-146521476D01*
X195418095Y-146521476D01*
X195513333Y-146569095D01*
X195560952Y-146616714D01*
X195608571Y-146711952D01*
X195608571Y-147045285D01*
X196132380Y-145521476D02*
X196132380Y-146092904D01*
X196132380Y-145807190D02*
X195132380Y-145807190D01*
X195275238Y-145902428D01*
X195370476Y-145997666D01*
X195418095Y-146092904D01*
X195465714Y-144664333D02*
X196132380Y-144664333D01*
X195084761Y-144902428D02*
X195799047Y-145140523D01*
X195799047Y-144521476D01*
X193719380Y-148045285D02*
X192719380Y-148045285D01*
X192719380Y-147664333D01*
X192767000Y-147569095D01*
X192814619Y-147521476D01*
X192909857Y-147473857D01*
X193052714Y-147473857D01*
X193147952Y-147521476D01*
X193195571Y-147569095D01*
X193243190Y-147664333D01*
X193243190Y-148045285D01*
X193195571Y-146711952D02*
X193243190Y-146569095D01*
X193290809Y-146521476D01*
X193386047Y-146473857D01*
X193528904Y-146473857D01*
X193624142Y-146521476D01*
X193671761Y-146569095D01*
X193719380Y-146664333D01*
X193719380Y-147045285D01*
X192719380Y-147045285D01*
X192719380Y-146711952D01*
X192767000Y-146616714D01*
X192814619Y-146569095D01*
X192909857Y-146521476D01*
X193005095Y-146521476D01*
X193100333Y-146569095D01*
X193147952Y-146616714D01*
X193195571Y-146711952D01*
X193195571Y-147045285D01*
X193719380Y-145521476D02*
X193719380Y-146092904D01*
X193719380Y-145807190D02*
X192719380Y-145807190D01*
X192862238Y-145902428D01*
X192957476Y-145997666D01*
X193005095Y-146092904D01*
X192719380Y-145188142D02*
X192719380Y-144569095D01*
X193100333Y-144902428D01*
X193100333Y-144759571D01*
X193147952Y-144664333D01*
X193195571Y-144616714D01*
X193290809Y-144569095D01*
X193528904Y-144569095D01*
X193624142Y-144616714D01*
X193671761Y-144664333D01*
X193719380Y-144759571D01*
X193719380Y-145045285D01*
X193671761Y-145140523D01*
X193624142Y-145188142D01*
X189746047Y-146867571D02*
X189888904Y-146915190D01*
X189936523Y-146962809D01*
X189984142Y-147058047D01*
X189984142Y-147200904D01*
X189936523Y-147296142D01*
X189888904Y-147343761D01*
X189793666Y-147391380D01*
X189412714Y-147391380D01*
X189412714Y-146391380D01*
X189746047Y-146391380D01*
X189841285Y-146439000D01*
X189888904Y-146486619D01*
X189936523Y-146581857D01*
X189936523Y-146677095D01*
X189888904Y-146772333D01*
X189841285Y-146819952D01*
X189746047Y-146867571D01*
X189412714Y-146867571D01*
X190936523Y-147391380D02*
X190365095Y-147391380D01*
X190650809Y-147391380D02*
X190650809Y-146391380D01*
X190555571Y-146534238D01*
X190460333Y-146629476D01*
X190365095Y-146677095D01*
X191317476Y-146486619D02*
X191365095Y-146439000D01*
X191460333Y-146391380D01*
X191698428Y-146391380D01*
X191793666Y-146439000D01*
X191841285Y-146486619D01*
X191888904Y-146581857D01*
X191888904Y-146677095D01*
X191841285Y-146819952D01*
X191269857Y-147391380D01*
X191888904Y-147391380D01*
X186444047Y-146867571D02*
X186586904Y-146915190D01*
X186634523Y-146962809D01*
X186682142Y-147058047D01*
X186682142Y-147200904D01*
X186634523Y-147296142D01*
X186586904Y-147343761D01*
X186491666Y-147391380D01*
X186110714Y-147391380D01*
X186110714Y-146391380D01*
X186444047Y-146391380D01*
X186539285Y-146439000D01*
X186586904Y-146486619D01*
X186634523Y-146581857D01*
X186634523Y-146677095D01*
X186586904Y-146772333D01*
X186539285Y-146819952D01*
X186444047Y-146867571D01*
X186110714Y-146867571D01*
X187634523Y-147391380D02*
X187063095Y-147391380D01*
X187348809Y-147391380D02*
X187348809Y-146391380D01*
X187253571Y-146534238D01*
X187158333Y-146629476D01*
X187063095Y-146677095D01*
X188586904Y-147391380D02*
X188015476Y-147391380D01*
X188301190Y-147391380D02*
X188301190Y-146391380D01*
X188205952Y-146534238D01*
X188110714Y-146629476D01*
X188015476Y-146677095D01*
X185352380Y-148014285D02*
X184352380Y-148014285D01*
X184352380Y-147633333D01*
X184400000Y-147538095D01*
X184447619Y-147490476D01*
X184542857Y-147442857D01*
X184685714Y-147442857D01*
X184780952Y-147490476D01*
X184828571Y-147538095D01*
X184876190Y-147633333D01*
X184876190Y-148014285D01*
X184828571Y-146680952D02*
X184876190Y-146538095D01*
X184923809Y-146490476D01*
X185019047Y-146442857D01*
X185161904Y-146442857D01*
X185257142Y-146490476D01*
X185304761Y-146538095D01*
X185352380Y-146633333D01*
X185352380Y-147014285D01*
X184352380Y-147014285D01*
X184352380Y-146680952D01*
X184400000Y-146585714D01*
X184447619Y-146538095D01*
X184542857Y-146490476D01*
X184638095Y-146490476D01*
X184733333Y-146538095D01*
X184780952Y-146585714D01*
X184828571Y-146680952D01*
X184828571Y-147014285D01*
X185352380Y-145490476D02*
X185352380Y-146061904D01*
X185352380Y-145776190D02*
X184352380Y-145776190D01*
X184495238Y-145871428D01*
X184590476Y-145966666D01*
X184638095Y-146061904D01*
X184352380Y-144871428D02*
X184352380Y-144776190D01*
X184400000Y-144680952D01*
X184447619Y-144633333D01*
X184542857Y-144585714D01*
X184733333Y-144538095D01*
X184971428Y-144538095D01*
X185161904Y-144585714D01*
X185257142Y-144633333D01*
X185304761Y-144680952D01*
X185352380Y-144776190D01*
X185352380Y-144871428D01*
X185304761Y-144966666D01*
X185257142Y-145014285D01*
X185161904Y-145061904D01*
X184971428Y-145109523D01*
X184733333Y-145109523D01*
X184542857Y-145061904D01*
X184447619Y-145014285D01*
X184400000Y-144966666D01*
X184352380Y-144871428D01*
X183332380Y-148050095D02*
X182332380Y-148050095D01*
X182332380Y-147669142D01*
X182380000Y-147573904D01*
X182427619Y-147526285D01*
X182522857Y-147478666D01*
X182665714Y-147478666D01*
X182760952Y-147526285D01*
X182808571Y-147573904D01*
X182856190Y-147669142D01*
X182856190Y-148050095D01*
X182808571Y-146716761D02*
X182856190Y-146573904D01*
X182903809Y-146526285D01*
X182999047Y-146478666D01*
X183141904Y-146478666D01*
X183237142Y-146526285D01*
X183284761Y-146573904D01*
X183332380Y-146669142D01*
X183332380Y-147050095D01*
X182332380Y-147050095D01*
X182332380Y-146716761D01*
X182380000Y-146621523D01*
X182427619Y-146573904D01*
X182522857Y-146526285D01*
X182618095Y-146526285D01*
X182713333Y-146573904D01*
X182760952Y-146621523D01*
X182808571Y-146716761D01*
X182808571Y-147050095D01*
X182427619Y-146097714D02*
X182380000Y-146050095D01*
X182332380Y-145954857D01*
X182332380Y-145716761D01*
X182380000Y-145621523D01*
X182427619Y-145573904D01*
X182522857Y-145526285D01*
X182618095Y-145526285D01*
X182760952Y-145573904D01*
X183332380Y-146145333D01*
X183332380Y-145526285D01*
X180792380Y-148050095D02*
X179792380Y-148050095D01*
X179792380Y-147669142D01*
X179840000Y-147573904D01*
X179887619Y-147526285D01*
X179982857Y-147478666D01*
X180125714Y-147478666D01*
X180220952Y-147526285D01*
X180268571Y-147573904D01*
X180316190Y-147669142D01*
X180316190Y-148050095D01*
X180268571Y-146716761D02*
X180316190Y-146573904D01*
X180363809Y-146526285D01*
X180459047Y-146478666D01*
X180601904Y-146478666D01*
X180697142Y-146526285D01*
X180744761Y-146573904D01*
X180792380Y-146669142D01*
X180792380Y-147050095D01*
X179792380Y-147050095D01*
X179792380Y-146716761D01*
X179840000Y-146621523D01*
X179887619Y-146573904D01*
X179982857Y-146526285D01*
X180078095Y-146526285D01*
X180173333Y-146573904D01*
X180220952Y-146621523D01*
X180268571Y-146716761D01*
X180268571Y-147050095D01*
X180792380Y-145526285D02*
X180792380Y-146097714D01*
X180792380Y-145812000D02*
X179792380Y-145812000D01*
X179935238Y-145907238D01*
X180030476Y-146002476D01*
X180078095Y-146097714D01*
X178252380Y-148050095D02*
X177252380Y-148050095D01*
X177252380Y-147669142D01*
X177300000Y-147573904D01*
X177347619Y-147526285D01*
X177442857Y-147478666D01*
X177585714Y-147478666D01*
X177680952Y-147526285D01*
X177728571Y-147573904D01*
X177776190Y-147669142D01*
X177776190Y-148050095D01*
X177728571Y-146716761D02*
X177776190Y-146573904D01*
X177823809Y-146526285D01*
X177919047Y-146478666D01*
X178061904Y-146478666D01*
X178157142Y-146526285D01*
X178204761Y-146573904D01*
X178252380Y-146669142D01*
X178252380Y-147050095D01*
X177252380Y-147050095D01*
X177252380Y-146716761D01*
X177300000Y-146621523D01*
X177347619Y-146573904D01*
X177442857Y-146526285D01*
X177538095Y-146526285D01*
X177633333Y-146573904D01*
X177680952Y-146621523D01*
X177728571Y-146716761D01*
X177728571Y-147050095D01*
X177252380Y-145859619D02*
X177252380Y-145764380D01*
X177300000Y-145669142D01*
X177347619Y-145621523D01*
X177442857Y-145573904D01*
X177633333Y-145526285D01*
X177871428Y-145526285D01*
X178061904Y-145573904D01*
X178157142Y-145621523D01*
X178204761Y-145669142D01*
X178252380Y-145764380D01*
X178252380Y-145859619D01*
X178204761Y-145954857D01*
X178157142Y-146002476D01*
X178061904Y-146050095D01*
X177871428Y-146097714D01*
X177633333Y-146097714D01*
X177442857Y-146050095D01*
X177347619Y-146002476D01*
X177300000Y-145954857D01*
X177252380Y-145859619D01*
X175712380Y-147978666D02*
X174712380Y-147978666D01*
X174712380Y-147597714D01*
X174760000Y-147502476D01*
X174807619Y-147454857D01*
X174902857Y-147407238D01*
X175045714Y-147407238D01*
X175140952Y-147454857D01*
X175188571Y-147502476D01*
X175236190Y-147597714D01*
X175236190Y-147978666D01*
X175426666Y-147026285D02*
X175426666Y-146550095D01*
X175712380Y-147121523D02*
X174712380Y-146788190D01*
X175712380Y-146454857D01*
X174712380Y-146216761D02*
X174712380Y-145550095D01*
X175712380Y-145978666D01*
X173172380Y-147978666D02*
X172172380Y-147978666D01*
X172172380Y-147597714D01*
X172220000Y-147502476D01*
X172267619Y-147454857D01*
X172362857Y-147407238D01*
X172505714Y-147407238D01*
X172600952Y-147454857D01*
X172648571Y-147502476D01*
X172696190Y-147597714D01*
X172696190Y-147978666D01*
X172886666Y-147026285D02*
X172886666Y-146550095D01*
X173172380Y-147121523D02*
X172172380Y-146788190D01*
X173172380Y-146454857D01*
X172172380Y-145692952D02*
X172172380Y-145883428D01*
X172220000Y-145978666D01*
X172267619Y-146026285D01*
X172410476Y-146121523D01*
X172600952Y-146169142D01*
X172981904Y-146169142D01*
X173077142Y-146121523D01*
X173124761Y-146073904D01*
X173172380Y-145978666D01*
X173172380Y-145788190D01*
X173124761Y-145692952D01*
X173077142Y-145645333D01*
X172981904Y-145597714D01*
X172743809Y-145597714D01*
X172648571Y-145645333D01*
X172600952Y-145692952D01*
X172553333Y-145788190D01*
X172553333Y-145978666D01*
X172600952Y-146073904D01*
X172648571Y-146121523D01*
X172743809Y-146169142D01*
X170632380Y-147978666D02*
X169632380Y-147978666D01*
X169632380Y-147597714D01*
X169680000Y-147502476D01*
X169727619Y-147454857D01*
X169822857Y-147407238D01*
X169965714Y-147407238D01*
X170060952Y-147454857D01*
X170108571Y-147502476D01*
X170156190Y-147597714D01*
X170156190Y-147978666D01*
X170346666Y-147026285D02*
X170346666Y-146550095D01*
X170632380Y-147121523D02*
X169632380Y-146788190D01*
X170632380Y-146454857D01*
X169632380Y-145645333D02*
X169632380Y-146121523D01*
X170108571Y-146169142D01*
X170060952Y-146121523D01*
X170013333Y-146026285D01*
X170013333Y-145788190D01*
X170060952Y-145692952D01*
X170108571Y-145645333D01*
X170203809Y-145597714D01*
X170441904Y-145597714D01*
X170537142Y-145645333D01*
X170584761Y-145692952D01*
X170632380Y-145788190D01*
X170632380Y-146026285D01*
X170584761Y-146121523D01*
X170537142Y-146169142D01*
X168092380Y-147978666D02*
X167092380Y-147978666D01*
X167092380Y-147597714D01*
X167140000Y-147502476D01*
X167187619Y-147454857D01*
X167282857Y-147407238D01*
X167425714Y-147407238D01*
X167520952Y-147454857D01*
X167568571Y-147502476D01*
X167616190Y-147597714D01*
X167616190Y-147978666D01*
X167806666Y-147026285D02*
X167806666Y-146550095D01*
X168092380Y-147121523D02*
X167092380Y-146788190D01*
X168092380Y-146454857D01*
X167425714Y-145692952D02*
X168092380Y-145692952D01*
X167044761Y-145931047D02*
X167759047Y-146169142D01*
X167759047Y-145550095D01*
X165552380Y-147978666D02*
X164552380Y-147978666D01*
X164552380Y-147597714D01*
X164600000Y-147502476D01*
X164647619Y-147454857D01*
X164742857Y-147407238D01*
X164885714Y-147407238D01*
X164980952Y-147454857D01*
X165028571Y-147502476D01*
X165076190Y-147597714D01*
X165076190Y-147978666D01*
X165266666Y-147026285D02*
X165266666Y-146550095D01*
X165552380Y-147121523D02*
X164552380Y-146788190D01*
X165552380Y-146454857D01*
X164552380Y-146216761D02*
X164552380Y-145597714D01*
X164933333Y-145931047D01*
X164933333Y-145788190D01*
X164980952Y-145692952D01*
X165028571Y-145645333D01*
X165123809Y-145597714D01*
X165361904Y-145597714D01*
X165457142Y-145645333D01*
X165504761Y-145692952D01*
X165552380Y-145788190D01*
X165552380Y-146073904D01*
X165504761Y-146169142D01*
X165457142Y-146216761D01*
X163012380Y-147978666D02*
X162012380Y-147978666D01*
X162012380Y-147597714D01*
X162060000Y-147502476D01*
X162107619Y-147454857D01*
X162202857Y-147407238D01*
X162345714Y-147407238D01*
X162440952Y-147454857D01*
X162488571Y-147502476D01*
X162536190Y-147597714D01*
X162536190Y-147978666D01*
X162726666Y-147026285D02*
X162726666Y-146550095D01*
X163012380Y-147121523D02*
X162012380Y-146788190D01*
X163012380Y-146454857D01*
X162107619Y-146169142D02*
X162060000Y-146121523D01*
X162012380Y-146026285D01*
X162012380Y-145788190D01*
X162060000Y-145692952D01*
X162107619Y-145645333D01*
X162202857Y-145597714D01*
X162298095Y-145597714D01*
X162440952Y-145645333D01*
X163012380Y-146216761D01*
X163012380Y-145597714D01*
X160472380Y-147978666D02*
X159472380Y-147978666D01*
X159472380Y-147597714D01*
X159520000Y-147502476D01*
X159567619Y-147454857D01*
X159662857Y-147407238D01*
X159805714Y-147407238D01*
X159900952Y-147454857D01*
X159948571Y-147502476D01*
X159996190Y-147597714D01*
X159996190Y-147978666D01*
X160186666Y-147026285D02*
X160186666Y-146550095D01*
X160472380Y-147121523D02*
X159472380Y-146788190D01*
X160472380Y-146454857D01*
X160472380Y-145597714D02*
X160472380Y-146169142D01*
X160472380Y-145883428D02*
X159472380Y-145883428D01*
X159615238Y-145978666D01*
X159710476Y-146073904D01*
X159758095Y-146169142D01*
X155074904Y-146747000D02*
X154979666Y-146699380D01*
X154836809Y-146699380D01*
X154693952Y-146747000D01*
X154598714Y-146842238D01*
X154551095Y-146937476D01*
X154503476Y-147127952D01*
X154503476Y-147270809D01*
X154551095Y-147461285D01*
X154598714Y-147556523D01*
X154693952Y-147651761D01*
X154836809Y-147699380D01*
X154932047Y-147699380D01*
X155074904Y-147651761D01*
X155122523Y-147604142D01*
X155122523Y-147270809D01*
X154932047Y-147270809D01*
X150423809Y-146752380D02*
X151042857Y-146752380D01*
X150709523Y-147133333D01*
X150852380Y-147133333D01*
X150947619Y-147180952D01*
X150995238Y-147228571D01*
X151042857Y-147323809D01*
X151042857Y-147561904D01*
X150995238Y-147657142D01*
X150947619Y-147704761D01*
X150852380Y-147752380D01*
X150566666Y-147752380D01*
X150471428Y-147704761D01*
X150423809Y-147657142D01*
X151471428Y-147657142D02*
X151519047Y-147704761D01*
X151471428Y-147752380D01*
X151423809Y-147704761D01*
X151471428Y-147657142D01*
X151471428Y-147752380D01*
X151852380Y-146752380D02*
X152471428Y-146752380D01*
X152138095Y-147133333D01*
X152280952Y-147133333D01*
X152376190Y-147180952D01*
X152423809Y-147228571D01*
X152471428Y-147323809D01*
X152471428Y-147561904D01*
X152423809Y-147657142D01*
X152376190Y-147704761D01*
X152280952Y-147752380D01*
X151995238Y-147752380D01*
X151900000Y-147704761D01*
X151852380Y-147657142D01*
X152757142Y-146752380D02*
X153090476Y-147752380D01*
X153423809Y-146752380D01*
X156313333Y-147699380D02*
X156313333Y-146699380D01*
X156694285Y-146699380D01*
X156789523Y-146747000D01*
X156837142Y-146794619D01*
X156884761Y-146889857D01*
X156884761Y-147032714D01*
X156837142Y-147127952D01*
X156789523Y-147175571D01*
X156694285Y-147223190D01*
X156313333Y-147223190D01*
X157265714Y-147413666D02*
X157741904Y-147413666D01*
X157170476Y-147699380D02*
X157503809Y-146699380D01*
X157837142Y-147699380D01*
X158360952Y-146699380D02*
X158456190Y-146699380D01*
X158551428Y-146747000D01*
X158599047Y-146794619D01*
X158646666Y-146889857D01*
X158694285Y-147080333D01*
X158694285Y-147318428D01*
X158646666Y-147508904D01*
X158599047Y-147604142D01*
X158551428Y-147651761D01*
X158456190Y-147699380D01*
X158360952Y-147699380D01*
X158265714Y-147651761D01*
X158218095Y-147604142D01*
X158170476Y-147508904D01*
X158122857Y-147318428D01*
X158122857Y-147080333D01*
X158170476Y-146889857D01*
X158218095Y-146794619D01*
X158265714Y-146747000D01*
X158360952Y-146699380D01*
X201252380Y-147966666D02*
X200252380Y-147966666D01*
X200252380Y-147585714D01*
X200300000Y-147490476D01*
X200347619Y-147442857D01*
X200442857Y-147395238D01*
X200585714Y-147395238D01*
X200680952Y-147442857D01*
X200728571Y-147490476D01*
X200776190Y-147585714D01*
X200776190Y-147966666D01*
X200966666Y-147014285D02*
X200966666Y-146538095D01*
X201252380Y-147109523D02*
X200252380Y-146776190D01*
X201252380Y-146442857D01*
X200680952Y-145966666D02*
X200633333Y-146061904D01*
X200585714Y-146109523D01*
X200490476Y-146157142D01*
X200442857Y-146157142D01*
X200347619Y-146109523D01*
X200300000Y-146061904D01*
X200252380Y-145966666D01*
X200252380Y-145776190D01*
X200300000Y-145680952D01*
X200347619Y-145633333D01*
X200442857Y-145585714D01*
X200490476Y-145585714D01*
X200585714Y-145633333D01*
X200633333Y-145680952D01*
X200680952Y-145776190D01*
X200680952Y-145966666D01*
X200728571Y-146061904D01*
X200776190Y-146109523D01*
X200871428Y-146157142D01*
X201061904Y-146157142D01*
X201157142Y-146109523D01*
X201204761Y-146061904D01*
X201252380Y-145966666D01*
X201252380Y-145776190D01*
X201204761Y-145680952D01*
X201157142Y-145633333D01*
X201061904Y-145585714D01*
X200871428Y-145585714D01*
X200776190Y-145633333D01*
X200728571Y-145680952D01*
X200680952Y-145776190D01*
X202652380Y-147976190D02*
X202652380Y-147357142D01*
X203033333Y-147690476D01*
X203033333Y-147547619D01*
X203080952Y-147452380D01*
X203128571Y-147404761D01*
X203223809Y-147357142D01*
X203461904Y-147357142D01*
X203557142Y-147404761D01*
X203604761Y-147452380D01*
X203652380Y-147547619D01*
X203652380Y-147833333D01*
X203604761Y-147928571D01*
X203557142Y-147976190D01*
X203557142Y-146928571D02*
X203604761Y-146880952D01*
X203652380Y-146928571D01*
X203604761Y-146976190D01*
X203557142Y-146928571D01*
X203652380Y-146928571D01*
X202652380Y-146547619D02*
X202652380Y-145928571D01*
X203033333Y-146261904D01*
X203033333Y-146119047D01*
X203080952Y-146023809D01*
X203128571Y-145976190D01*
X203223809Y-145928571D01*
X203461904Y-145928571D01*
X203557142Y-145976190D01*
X203604761Y-146023809D01*
X203652380Y-146119047D01*
X203652380Y-146404761D01*
X203604761Y-146500000D01*
X203557142Y-146547619D01*
X202652380Y-145642857D02*
X203652380Y-145309523D01*
X202652380Y-144976190D01*
X205638095Y-131871428D02*
X206400000Y-131871428D01*
X206019047Y-132252380D02*
X206019047Y-131490476D01*
X207400000Y-132252380D02*
X206828571Y-132252380D01*
X207114285Y-132252380D02*
X207114285Y-131252380D01*
X207019047Y-131395238D01*
X206923809Y-131490476D01*
X206828571Y-131538095D01*
X207780952Y-131347619D02*
X207828571Y-131300000D01*
X207923809Y-131252380D01*
X208161904Y-131252380D01*
X208257142Y-131300000D01*
X208304761Y-131347619D01*
X208352380Y-131442857D01*
X208352380Y-131538095D01*
X208304761Y-131680952D01*
X207733333Y-132252380D01*
X208352380Y-132252380D01*
X208638095Y-131252380D02*
X208971428Y-132252380D01*
X209304761Y-131252380D01*
X202552380Y-134304761D02*
X202552380Y-133685714D01*
X202933333Y-134019047D01*
X202933333Y-133876190D01*
X202980952Y-133780952D01*
X203028571Y-133733333D01*
X203123809Y-133685714D01*
X203361904Y-133685714D01*
X203457142Y-133733333D01*
X203504761Y-133780952D01*
X203552380Y-133876190D01*
X203552380Y-134161904D01*
X203504761Y-134257142D01*
X203457142Y-134304761D01*
X203457142Y-133257142D02*
X203504761Y-133209523D01*
X203552380Y-133257142D01*
X203504761Y-133304761D01*
X203457142Y-133257142D01*
X203552380Y-133257142D01*
X202552380Y-132876190D02*
X202552380Y-132257142D01*
X202933333Y-132590476D01*
X202933333Y-132447619D01*
X202980952Y-132352380D01*
X203028571Y-132304761D01*
X203123809Y-132257142D01*
X203361904Y-132257142D01*
X203457142Y-132304761D01*
X203504761Y-132352380D01*
X203552380Y-132447619D01*
X203552380Y-132733333D01*
X203504761Y-132828571D01*
X203457142Y-132876190D01*
X202552380Y-131971428D02*
X203552380Y-131638095D01*
X202552380Y-131304761D01*
X203266666Y-131019047D02*
X203266666Y-130542857D01*
X203552380Y-131114285D02*
X202552380Y-130780952D01*
X203552380Y-130447619D01*
X201152380Y-132866666D02*
X200152380Y-132866666D01*
X200152380Y-132485714D01*
X200200000Y-132390476D01*
X200247619Y-132342857D01*
X200342857Y-132295238D01*
X200485714Y-132295238D01*
X200580952Y-132342857D01*
X200628571Y-132390476D01*
X200676190Y-132485714D01*
X200676190Y-132866666D01*
X200866666Y-131914285D02*
X200866666Y-131438095D01*
X201152380Y-132009523D02*
X200152380Y-131676190D01*
X201152380Y-131342857D01*
X201152380Y-130961904D02*
X201152380Y-130771428D01*
X201104761Y-130676190D01*
X201057142Y-130628571D01*
X200914285Y-130533333D01*
X200723809Y-130485714D01*
X200342857Y-130485714D01*
X200247619Y-130533333D01*
X200200000Y-130580952D01*
X200152380Y-130676190D01*
X200152380Y-130866666D01*
X200200000Y-130961904D01*
X200247619Y-131009523D01*
X200342857Y-131057142D01*
X200580952Y-131057142D01*
X200676190Y-131009523D01*
X200723809Y-130961904D01*
X200771428Y-130866666D01*
X200771428Y-130676190D01*
X200723809Y-130580952D01*
X200676190Y-130533333D01*
X200580952Y-130485714D01*
X198572380Y-133795857D02*
X197572380Y-133795857D01*
X197572380Y-133414904D01*
X197620000Y-133319666D01*
X197667619Y-133272047D01*
X197762857Y-133224428D01*
X197905714Y-133224428D01*
X198000952Y-133272047D01*
X198048571Y-133319666D01*
X198096190Y-133414904D01*
X198096190Y-133795857D01*
X198286666Y-132843476D02*
X198286666Y-132367285D01*
X198572380Y-132938714D02*
X197572380Y-132605380D01*
X198572380Y-132272047D01*
X198572380Y-131414904D02*
X198572380Y-131986333D01*
X198572380Y-131700619D02*
X197572380Y-131700619D01*
X197715238Y-131795857D01*
X197810476Y-131891095D01*
X197858095Y-131986333D01*
X197572380Y-130795857D02*
X197572380Y-130700619D01*
X197620000Y-130605380D01*
X197667619Y-130557761D01*
X197762857Y-130510142D01*
X197953333Y-130462523D01*
X198191428Y-130462523D01*
X198381904Y-130510142D01*
X198477142Y-130557761D01*
X198524761Y-130605380D01*
X198572380Y-130700619D01*
X198572380Y-130795857D01*
X198524761Y-130891095D01*
X198477142Y-130938714D01*
X198381904Y-130986333D01*
X198191428Y-131033952D01*
X197953333Y-131033952D01*
X197762857Y-130986333D01*
X197667619Y-130938714D01*
X197620000Y-130891095D01*
X197572380Y-130795857D01*
X196159380Y-133668857D02*
X195159380Y-133668857D01*
X195159380Y-133287904D01*
X195207000Y-133192666D01*
X195254619Y-133145047D01*
X195349857Y-133097428D01*
X195492714Y-133097428D01*
X195587952Y-133145047D01*
X195635571Y-133192666D01*
X195683190Y-133287904D01*
X195683190Y-133668857D01*
X195873666Y-132716476D02*
X195873666Y-132240285D01*
X196159380Y-132811714D02*
X195159380Y-132478380D01*
X196159380Y-132145047D01*
X196159380Y-131287904D02*
X196159380Y-131859333D01*
X196159380Y-131573619D02*
X195159380Y-131573619D01*
X195302238Y-131668857D01*
X195397476Y-131764095D01*
X195445095Y-131859333D01*
X196159380Y-130335523D02*
X196159380Y-130906952D01*
X196159380Y-130621238D02*
X195159380Y-130621238D01*
X195302238Y-130716476D01*
X195397476Y-130811714D01*
X195445095Y-130906952D01*
X191849523Y-131230666D02*
X192325714Y-131230666D01*
X191754285Y-131516380D02*
X192087619Y-130516380D01*
X192420952Y-131516380D01*
X193278095Y-131516380D02*
X192706666Y-131516380D01*
X192992380Y-131516380D02*
X192992380Y-130516380D01*
X192897142Y-130659238D01*
X192801904Y-130754476D01*
X192706666Y-130802095D01*
X193659047Y-130611619D02*
X193706666Y-130564000D01*
X193801904Y-130516380D01*
X194040000Y-130516380D01*
X194135238Y-130564000D01*
X194182857Y-130611619D01*
X194230476Y-130706857D01*
X194230476Y-130802095D01*
X194182857Y-130944952D01*
X193611428Y-131516380D01*
X194230476Y-131516380D01*
X188252380Y-133742857D02*
X187252380Y-133742857D01*
X187252380Y-133361904D01*
X187300000Y-133266666D01*
X187347619Y-133219047D01*
X187442857Y-133171428D01*
X187585714Y-133171428D01*
X187680952Y-133219047D01*
X187728571Y-133266666D01*
X187776190Y-133361904D01*
X187776190Y-133742857D01*
X187966666Y-132790476D02*
X187966666Y-132314285D01*
X188252380Y-132885714D02*
X187252380Y-132552380D01*
X188252380Y-132219047D01*
X188252380Y-131361904D02*
X188252380Y-131933333D01*
X188252380Y-131647619D02*
X187252380Y-131647619D01*
X187395238Y-131742857D01*
X187490476Y-131838095D01*
X187538095Y-131933333D01*
X187252380Y-130457142D02*
X187252380Y-130933333D01*
X187728571Y-130980952D01*
X187680952Y-130933333D01*
X187633333Y-130838095D01*
X187633333Y-130600000D01*
X187680952Y-130504761D01*
X187728571Y-130457142D01*
X187823809Y-130409523D01*
X188061904Y-130409523D01*
X188157142Y-130457142D01*
X188204761Y-130504761D01*
X188252380Y-130600000D01*
X188252380Y-130838095D01*
X188204761Y-130933333D01*
X188157142Y-130980952D01*
X185999380Y-132937095D02*
X184999380Y-132937095D01*
X184999380Y-132556142D01*
X185047000Y-132460904D01*
X185094619Y-132413285D01*
X185189857Y-132365666D01*
X185332714Y-132365666D01*
X185427952Y-132413285D01*
X185475571Y-132460904D01*
X185523190Y-132556142D01*
X185523190Y-132937095D01*
X185475571Y-131603761D02*
X185523190Y-131460904D01*
X185570809Y-131413285D01*
X185666047Y-131365666D01*
X185808904Y-131365666D01*
X185904142Y-131413285D01*
X185951761Y-131460904D01*
X185999380Y-131556142D01*
X185999380Y-131937095D01*
X184999380Y-131937095D01*
X184999380Y-131603761D01*
X185047000Y-131508523D01*
X185094619Y-131460904D01*
X185189857Y-131413285D01*
X185285095Y-131413285D01*
X185380333Y-131460904D01*
X185427952Y-131508523D01*
X185475571Y-131603761D01*
X185475571Y-131937095D01*
X184999380Y-131032333D02*
X184999380Y-130413285D01*
X185380333Y-130746619D01*
X185380333Y-130603761D01*
X185427952Y-130508523D01*
X185475571Y-130460904D01*
X185570809Y-130413285D01*
X185808904Y-130413285D01*
X185904142Y-130460904D01*
X185951761Y-130508523D01*
X185999380Y-130603761D01*
X185999380Y-130889476D01*
X185951761Y-130984714D01*
X185904142Y-131032333D01*
X183459380Y-132937095D02*
X182459380Y-132937095D01*
X182459380Y-132556142D01*
X182507000Y-132460904D01*
X182554619Y-132413285D01*
X182649857Y-132365666D01*
X182792714Y-132365666D01*
X182887952Y-132413285D01*
X182935571Y-132460904D01*
X182983190Y-132556142D01*
X182983190Y-132937095D01*
X182935571Y-131603761D02*
X182983190Y-131460904D01*
X183030809Y-131413285D01*
X183126047Y-131365666D01*
X183268904Y-131365666D01*
X183364142Y-131413285D01*
X183411761Y-131460904D01*
X183459380Y-131556142D01*
X183459380Y-131937095D01*
X182459380Y-131937095D01*
X182459380Y-131603761D01*
X182507000Y-131508523D01*
X182554619Y-131460904D01*
X182649857Y-131413285D01*
X182745095Y-131413285D01*
X182840333Y-131460904D01*
X182887952Y-131508523D01*
X182935571Y-131603761D01*
X182935571Y-131937095D01*
X182792714Y-130508523D02*
X183459380Y-130508523D01*
X182411761Y-130746619D02*
X183126047Y-130984714D01*
X183126047Y-130365666D01*
X180792380Y-132937095D02*
X179792380Y-132937095D01*
X179792380Y-132556142D01*
X179840000Y-132460904D01*
X179887619Y-132413285D01*
X179982857Y-132365666D01*
X180125714Y-132365666D01*
X180220952Y-132413285D01*
X180268571Y-132460904D01*
X180316190Y-132556142D01*
X180316190Y-132937095D01*
X180268571Y-131603761D02*
X180316190Y-131460904D01*
X180363809Y-131413285D01*
X180459047Y-131365666D01*
X180601904Y-131365666D01*
X180697142Y-131413285D01*
X180744761Y-131460904D01*
X180792380Y-131556142D01*
X180792380Y-131937095D01*
X179792380Y-131937095D01*
X179792380Y-131603761D01*
X179840000Y-131508523D01*
X179887619Y-131460904D01*
X179982857Y-131413285D01*
X180078095Y-131413285D01*
X180173333Y-131460904D01*
X180220952Y-131508523D01*
X180268571Y-131603761D01*
X180268571Y-131937095D01*
X179792380Y-130460904D02*
X179792380Y-130937095D01*
X180268571Y-130984714D01*
X180220952Y-130937095D01*
X180173333Y-130841857D01*
X180173333Y-130603761D01*
X180220952Y-130508523D01*
X180268571Y-130460904D01*
X180363809Y-130413285D01*
X180601904Y-130413285D01*
X180697142Y-130460904D01*
X180744761Y-130508523D01*
X180792380Y-130603761D01*
X180792380Y-130841857D01*
X180744761Y-130937095D01*
X180697142Y-130984714D01*
X178252380Y-132937095D02*
X177252380Y-132937095D01*
X177252380Y-132556142D01*
X177300000Y-132460904D01*
X177347619Y-132413285D01*
X177442857Y-132365666D01*
X177585714Y-132365666D01*
X177680952Y-132413285D01*
X177728571Y-132460904D01*
X177776190Y-132556142D01*
X177776190Y-132937095D01*
X177728571Y-131603761D02*
X177776190Y-131460904D01*
X177823809Y-131413285D01*
X177919047Y-131365666D01*
X178061904Y-131365666D01*
X178157142Y-131413285D01*
X178204761Y-131460904D01*
X178252380Y-131556142D01*
X178252380Y-131937095D01*
X177252380Y-131937095D01*
X177252380Y-131603761D01*
X177300000Y-131508523D01*
X177347619Y-131460904D01*
X177442857Y-131413285D01*
X177538095Y-131413285D01*
X177633333Y-131460904D01*
X177680952Y-131508523D01*
X177728571Y-131603761D01*
X177728571Y-131937095D01*
X177252380Y-130508523D02*
X177252380Y-130699000D01*
X177300000Y-130794238D01*
X177347619Y-130841857D01*
X177490476Y-130937095D01*
X177680952Y-130984714D01*
X178061904Y-130984714D01*
X178157142Y-130937095D01*
X178204761Y-130889476D01*
X178252380Y-130794238D01*
X178252380Y-130603761D01*
X178204761Y-130508523D01*
X178157142Y-130460904D01*
X178061904Y-130413285D01*
X177823809Y-130413285D01*
X177728571Y-130460904D01*
X177680952Y-130508523D01*
X177633333Y-130603761D01*
X177633333Y-130794238D01*
X177680952Y-130889476D01*
X177728571Y-130937095D01*
X177823809Y-130984714D01*
X175752380Y-132938095D02*
X174752380Y-132938095D01*
X174752380Y-132557142D01*
X174800000Y-132461904D01*
X174847619Y-132414285D01*
X174942857Y-132366666D01*
X175085714Y-132366666D01*
X175180952Y-132414285D01*
X175228571Y-132461904D01*
X175276190Y-132557142D01*
X175276190Y-132938095D01*
X175228571Y-131604761D02*
X175276190Y-131461904D01*
X175323809Y-131414285D01*
X175419047Y-131366666D01*
X175561904Y-131366666D01*
X175657142Y-131414285D01*
X175704761Y-131461904D01*
X175752380Y-131557142D01*
X175752380Y-131938095D01*
X174752380Y-131938095D01*
X174752380Y-131604761D01*
X174800000Y-131509523D01*
X174847619Y-131461904D01*
X174942857Y-131414285D01*
X175038095Y-131414285D01*
X175133333Y-131461904D01*
X175180952Y-131509523D01*
X175228571Y-131604761D01*
X175228571Y-131938095D01*
X174752380Y-131033333D02*
X174752380Y-130366666D01*
X175752380Y-130795238D01*
X173299380Y-132937095D02*
X172299380Y-132937095D01*
X172299380Y-132556142D01*
X172347000Y-132460904D01*
X172394619Y-132413285D01*
X172489857Y-132365666D01*
X172632714Y-132365666D01*
X172727952Y-132413285D01*
X172775571Y-132460904D01*
X172823190Y-132556142D01*
X172823190Y-132937095D01*
X172775571Y-131603761D02*
X172823190Y-131460904D01*
X172870809Y-131413285D01*
X172966047Y-131365666D01*
X173108904Y-131365666D01*
X173204142Y-131413285D01*
X173251761Y-131460904D01*
X173299380Y-131556142D01*
X173299380Y-131937095D01*
X172299380Y-131937095D01*
X172299380Y-131603761D01*
X172347000Y-131508523D01*
X172394619Y-131460904D01*
X172489857Y-131413285D01*
X172585095Y-131413285D01*
X172680333Y-131460904D01*
X172727952Y-131508523D01*
X172775571Y-131603761D01*
X172775571Y-131937095D01*
X172727952Y-130794238D02*
X172680333Y-130889476D01*
X172632714Y-130937095D01*
X172537476Y-130984714D01*
X172489857Y-130984714D01*
X172394619Y-130937095D01*
X172347000Y-130889476D01*
X172299380Y-130794238D01*
X172299380Y-130603761D01*
X172347000Y-130508523D01*
X172394619Y-130460904D01*
X172489857Y-130413285D01*
X172537476Y-130413285D01*
X172632714Y-130460904D01*
X172680333Y-130508523D01*
X172727952Y-130603761D01*
X172727952Y-130794238D01*
X172775571Y-130889476D01*
X172823190Y-130937095D01*
X172918428Y-130984714D01*
X173108904Y-130984714D01*
X173204142Y-130937095D01*
X173251761Y-130889476D01*
X173299380Y-130794238D01*
X173299380Y-130603761D01*
X173251761Y-130508523D01*
X173204142Y-130460904D01*
X173108904Y-130413285D01*
X172918428Y-130413285D01*
X172823190Y-130460904D01*
X172775571Y-130508523D01*
X172727952Y-130603761D01*
X170632380Y-132937095D02*
X169632380Y-132937095D01*
X169632380Y-132556142D01*
X169680000Y-132460904D01*
X169727619Y-132413285D01*
X169822857Y-132365666D01*
X169965714Y-132365666D01*
X170060952Y-132413285D01*
X170108571Y-132460904D01*
X170156190Y-132556142D01*
X170156190Y-132937095D01*
X170108571Y-131603761D02*
X170156190Y-131460904D01*
X170203809Y-131413285D01*
X170299047Y-131365666D01*
X170441904Y-131365666D01*
X170537142Y-131413285D01*
X170584761Y-131460904D01*
X170632380Y-131556142D01*
X170632380Y-131937095D01*
X169632380Y-131937095D01*
X169632380Y-131603761D01*
X169680000Y-131508523D01*
X169727619Y-131460904D01*
X169822857Y-131413285D01*
X169918095Y-131413285D01*
X170013333Y-131460904D01*
X170060952Y-131508523D01*
X170108571Y-131603761D01*
X170108571Y-131937095D01*
X170632380Y-130889476D02*
X170632380Y-130699000D01*
X170584761Y-130603761D01*
X170537142Y-130556142D01*
X170394285Y-130460904D01*
X170203809Y-130413285D01*
X169822857Y-130413285D01*
X169727619Y-130460904D01*
X169680000Y-130508523D01*
X169632380Y-130603761D01*
X169632380Y-130794238D01*
X169680000Y-130889476D01*
X169727619Y-130937095D01*
X169822857Y-130984714D01*
X170060952Y-130984714D01*
X170156190Y-130937095D01*
X170203809Y-130889476D01*
X170251428Y-130794238D01*
X170251428Y-130603761D01*
X170203809Y-130508523D01*
X170156190Y-130460904D01*
X170060952Y-130413285D01*
X168092380Y-133814285D02*
X167092380Y-133814285D01*
X167092380Y-133433333D01*
X167140000Y-133338095D01*
X167187619Y-133290476D01*
X167282857Y-133242857D01*
X167425714Y-133242857D01*
X167520952Y-133290476D01*
X167568571Y-133338095D01*
X167616190Y-133433333D01*
X167616190Y-133814285D01*
X167997142Y-132242857D02*
X168044761Y-132290476D01*
X168092380Y-132433333D01*
X168092380Y-132528571D01*
X168044761Y-132671428D01*
X167949523Y-132766666D01*
X167854285Y-132814285D01*
X167663809Y-132861904D01*
X167520952Y-132861904D01*
X167330476Y-132814285D01*
X167235238Y-132766666D01*
X167140000Y-132671428D01*
X167092380Y-132528571D01*
X167092380Y-132433333D01*
X167140000Y-132290476D01*
X167187619Y-132242857D01*
X168092380Y-131290476D02*
X168092380Y-131861904D01*
X168092380Y-131576190D02*
X167092380Y-131576190D01*
X167235238Y-131671428D01*
X167330476Y-131766666D01*
X167378095Y-131861904D01*
X167092380Y-130957142D02*
X167092380Y-130338095D01*
X167473333Y-130671428D01*
X167473333Y-130528571D01*
X167520952Y-130433333D01*
X167568571Y-130385714D01*
X167663809Y-130338095D01*
X167901904Y-130338095D01*
X167997142Y-130385714D01*
X168044761Y-130433333D01*
X168092380Y-130528571D01*
X168092380Y-130814285D01*
X168044761Y-130909523D01*
X167997142Y-130957142D01*
X165552380Y-133814285D02*
X164552380Y-133814285D01*
X164552380Y-133433333D01*
X164600000Y-133338095D01*
X164647619Y-133290476D01*
X164742857Y-133242857D01*
X164885714Y-133242857D01*
X164980952Y-133290476D01*
X165028571Y-133338095D01*
X165076190Y-133433333D01*
X165076190Y-133814285D01*
X165457142Y-132242857D02*
X165504761Y-132290476D01*
X165552380Y-132433333D01*
X165552380Y-132528571D01*
X165504761Y-132671428D01*
X165409523Y-132766666D01*
X165314285Y-132814285D01*
X165123809Y-132861904D01*
X164980952Y-132861904D01*
X164790476Y-132814285D01*
X164695238Y-132766666D01*
X164600000Y-132671428D01*
X164552380Y-132528571D01*
X164552380Y-132433333D01*
X164600000Y-132290476D01*
X164647619Y-132242857D01*
X165552380Y-131290476D02*
X165552380Y-131861904D01*
X165552380Y-131576190D02*
X164552380Y-131576190D01*
X164695238Y-131671428D01*
X164790476Y-131766666D01*
X164838095Y-131861904D01*
X164885714Y-130433333D02*
X165552380Y-130433333D01*
X164504761Y-130671428D02*
X165219047Y-130909523D01*
X165219047Y-130290476D01*
X163152380Y-133814285D02*
X162152380Y-133814285D01*
X162152380Y-133433333D01*
X162200000Y-133338095D01*
X162247619Y-133290476D01*
X162342857Y-133242857D01*
X162485714Y-133242857D01*
X162580952Y-133290476D01*
X162628571Y-133338095D01*
X162676190Y-133433333D01*
X162676190Y-133814285D01*
X163057142Y-132242857D02*
X163104761Y-132290476D01*
X163152380Y-132433333D01*
X163152380Y-132528571D01*
X163104761Y-132671428D01*
X163009523Y-132766666D01*
X162914285Y-132814285D01*
X162723809Y-132861904D01*
X162580952Y-132861904D01*
X162390476Y-132814285D01*
X162295238Y-132766666D01*
X162200000Y-132671428D01*
X162152380Y-132528571D01*
X162152380Y-132433333D01*
X162200000Y-132290476D01*
X162247619Y-132242857D01*
X163152380Y-131290476D02*
X163152380Y-131861904D01*
X163152380Y-131576190D02*
X162152380Y-131576190D01*
X162295238Y-131671428D01*
X162390476Y-131766666D01*
X162438095Y-131861904D01*
X162152380Y-130385714D02*
X162152380Y-130861904D01*
X162628571Y-130909523D01*
X162580952Y-130861904D01*
X162533333Y-130766666D01*
X162533333Y-130528571D01*
X162580952Y-130433333D01*
X162628571Y-130385714D01*
X162723809Y-130338095D01*
X162961904Y-130338095D01*
X163057142Y-130385714D01*
X163104761Y-130433333D01*
X163152380Y-130528571D01*
X163152380Y-130766666D01*
X163104761Y-130861904D01*
X163057142Y-130909523D01*
X159520000Y-130548095D02*
X159472380Y-130643333D01*
X159472380Y-130786190D01*
X159520000Y-130929047D01*
X159615238Y-131024285D01*
X159710476Y-131071904D01*
X159900952Y-131119523D01*
X160043809Y-131119523D01*
X160234285Y-131071904D01*
X160329523Y-131024285D01*
X160424761Y-130929047D01*
X160472380Y-130786190D01*
X160472380Y-130690952D01*
X160424761Y-130548095D01*
X160377142Y-130500476D01*
X160043809Y-130500476D01*
X160043809Y-130690952D01*
X156932380Y-133476190D02*
X156932380Y-132857142D01*
X157313333Y-133190476D01*
X157313333Y-133047619D01*
X157360952Y-132952380D01*
X157408571Y-132904761D01*
X157503809Y-132857142D01*
X157741904Y-132857142D01*
X157837142Y-132904761D01*
X157884761Y-132952380D01*
X157932380Y-133047619D01*
X157932380Y-133333333D01*
X157884761Y-133428571D01*
X157837142Y-133476190D01*
X157837142Y-132428571D02*
X157884761Y-132380952D01*
X157932380Y-132428571D01*
X157884761Y-132476190D01*
X157837142Y-132428571D01*
X157932380Y-132428571D01*
X156932380Y-132047619D02*
X156932380Y-131428571D01*
X157313333Y-131761904D01*
X157313333Y-131619047D01*
X157360952Y-131523809D01*
X157408571Y-131476190D01*
X157503809Y-131428571D01*
X157741904Y-131428571D01*
X157837142Y-131476190D01*
X157884761Y-131523809D01*
X157932380Y-131619047D01*
X157932380Y-131904761D01*
X157884761Y-132000000D01*
X157837142Y-132047619D01*
X156932380Y-131142857D02*
X157932380Y-130809523D01*
X156932380Y-130476190D01*
D12*
G36*
X150495000Y-143764000D02*
G01*
X143002000Y-143764000D01*
X143002000Y-140716000D01*
X150495000Y-140716000D01*
X150495000Y-143764000D01*
G37*
X150495000Y-143764000D02*
X143002000Y-143764000D01*
X143002000Y-140716000D01*
X150495000Y-140716000D01*
X150495000Y-143764000D01*
G36*
X149098000Y-129667000D02*
G01*
X148706400Y-129667000D01*
X148706400Y-127600200D01*
X149098000Y-127600200D01*
X149098000Y-129667000D01*
G37*
X149098000Y-129667000D02*
X148706400Y-129667000D01*
X148706400Y-127600200D01*
X149098000Y-127600200D01*
X149098000Y-129667000D01*
G36*
X144780000Y-146075400D02*
G01*
X144272000Y-146075400D01*
X144272000Y-144043400D01*
X144780000Y-144043400D01*
X144780000Y-146075400D01*
G37*
X144780000Y-146075400D02*
X144272000Y-146075400D01*
X144272000Y-144043400D01*
X144780000Y-144043400D01*
X144780000Y-146075400D01*
D13*
X165225000Y-141150000D02*
X173200000Y-141150000D01*
X165225000Y-137250000D02*
X165225000Y-141150000D01*
X173200000Y-137250000D02*
X165225000Y-137250000D01*
X145114200Y-146604800D02*
X144344200Y-147374800D01*
X145114200Y-146604800D02*
X148924200Y-146604800D01*
X145114200Y-151184800D02*
X144344200Y-150414800D01*
X145114200Y-151184800D02*
X148924200Y-151184800D01*
X144344200Y-147374800D02*
X144344200Y-147774800D01*
X148924200Y-146604800D02*
X148924200Y-147774800D01*
X148924200Y-151184800D02*
X148924200Y-150014800D01*
X144344200Y-150414800D02*
X144344200Y-150014800D01*
X150389400Y-132330000D02*
X151159400Y-133100000D01*
X150389400Y-132330000D02*
X150389400Y-128520000D01*
X154969400Y-132330000D02*
X154199400Y-133100000D01*
X154969400Y-132330000D02*
X154969400Y-128520000D01*
X151159400Y-133100000D02*
X151559400Y-133100000D01*
X150389400Y-128520000D02*
X151559400Y-128520000D01*
X154969400Y-128520000D02*
X153799400Y-128520000D01*
X154199400Y-133100000D02*
X153799400Y-133100000D01*
D14*
X180346391Y-136151750D02*
G75*
G03X180346391Y-136151750I-184391J0D01*
G01*
D10*
X187267000Y-136026750D02*
X187267000Y-136551750D01*
X180017000Y-143276750D02*
X180017000Y-142751750D01*
X187267000Y-143276750D02*
X187267000Y-142751750D01*
X180017000Y-143276750D02*
X180542000Y-143276750D01*
X187267000Y-143276750D02*
X186742000Y-143276750D01*
X187267000Y-136026750D02*
X186742000Y-136026750D01*
D13*
X150768000Y-143134000D02*
X152028000Y-143134000D01*
X157588000Y-143134000D02*
X156328000Y-143134000D01*
X150768000Y-139374000D02*
X150768000Y-143134000D01*
X157588000Y-137124000D02*
X157588000Y-143134000D01*
X176792000Y-135724000D02*
X177792000Y-135724000D01*
X177792000Y-134024000D02*
X176792000Y-134024000D01*
X162004000Y-142689000D02*
X161394000Y-143299000D01*
X162004000Y-140129000D02*
X161394000Y-140129000D01*
X158564000Y-142669000D02*
X159154000Y-143269000D01*
X158564000Y-140129000D02*
X159154000Y-140129000D01*
X162004000Y-142689000D02*
X162004000Y-140149000D01*
X158564000Y-140129000D02*
X158564000Y-142669000D01*
X158544000Y-134552000D02*
X159154000Y-133942000D01*
X158544000Y-137112000D02*
X159154000Y-137112000D01*
X161984000Y-134572000D02*
X161394000Y-133972000D01*
X161984000Y-137112000D02*
X161394000Y-137112000D01*
X158544000Y-134552000D02*
X158544000Y-137092000D01*
X161984000Y-137112000D02*
X161984000Y-134572000D01*
X197248000Y-136550000D02*
X196798000Y-136550000D01*
X196798000Y-136550000D02*
X196798000Y-142850000D01*
X196798000Y-142850000D02*
X197198000Y-142850000D01*
X198548000Y-136550000D02*
X201248000Y-136550000D01*
X201248000Y-142850000D02*
X198548000Y-142850000D01*
X202998000Y-136550000D02*
X202998000Y-142850000D01*
X202998000Y-142850000D02*
X202548000Y-142850000D01*
X202548000Y-136550000D02*
X202998000Y-136550000D01*
X149208800Y-130496000D02*
X144008800Y-130496000D01*
X149208800Y-140716000D02*
X149208800Y-130496000D01*
X144008800Y-143316000D02*
X144008800Y-130496000D01*
X149208800Y-140716000D02*
X146608800Y-140716000D01*
X146608800Y-140716000D02*
X146608800Y-143316000D01*
X146608800Y-143316000D02*
X144008800Y-143316000D01*
X149208800Y-141986000D02*
X149208800Y-143316000D01*
X149208800Y-143316000D02*
X147878800Y-143316000D01*
X188380000Y-134120000D02*
X188380000Y-135120000D01*
X190080000Y-135120000D02*
X190080000Y-134120000D01*
X168648000Y-134278000D02*
X167648000Y-134278000D01*
X167648000Y-135978000D02*
X168648000Y-135978000D01*
X169410000Y-141898000D02*
X168410000Y-141898000D01*
X168410000Y-143598000D02*
X169410000Y-143598000D01*
X188222000Y-145630000D02*
X189222000Y-145630000D01*
X189222000Y-143930000D02*
X188222000Y-143930000D01*
X174506000Y-143344000D02*
X175506000Y-143344000D01*
X175506000Y-141644000D02*
X174506000Y-141644000D01*
X148706400Y-129600200D02*
X148706400Y-127600200D01*
X148706400Y-127600200D02*
X144806400Y-127600200D01*
X148706400Y-129600200D02*
X144806400Y-129600200D01*
X144790600Y-144059400D02*
X148690600Y-144059400D01*
X144790600Y-146059400D02*
X148690600Y-146059400D01*
X144790600Y-144059400D02*
X144790600Y-146059400D01*
D10*
X205232000Y-144526000D02*
X207772000Y-144526000D01*
X207772000Y-144526000D02*
X207772000Y-134366000D01*
X207772000Y-134366000D02*
X205232000Y-134366000D01*
X205232000Y-134366000D02*
X205232000Y-144526000D01*
D13*
X191144000Y-135220000D02*
X191144000Y-134020000D01*
X192904000Y-134020000D02*
X192904000Y-135220000D01*
D10*
X145991342Y-150725142D02*
X145943723Y-150772761D01*
X145800866Y-150820380D01*
X145705628Y-150820380D01*
X145562771Y-150772761D01*
X145467533Y-150677523D01*
X145419914Y-150582285D01*
X145372295Y-150391809D01*
X145372295Y-150248952D01*
X145419914Y-150058476D01*
X145467533Y-149963238D01*
X145562771Y-149868000D01*
X145705628Y-149820380D01*
X145800866Y-149820380D01*
X145943723Y-149868000D01*
X145991342Y-149915619D01*
X146372295Y-149915619D02*
X146419914Y-149868000D01*
X146515152Y-149820380D01*
X146753247Y-149820380D01*
X146848485Y-149868000D01*
X146896104Y-149915619D01*
X146943723Y-150010857D01*
X146943723Y-150106095D01*
X146896104Y-150248952D01*
X146324676Y-150820380D01*
X146943723Y-150820380D01*
X147277057Y-149820380D02*
X147896104Y-149820380D01*
X147562771Y-150201333D01*
X147705628Y-150201333D01*
X147800866Y-150248952D01*
X147848485Y-150296571D01*
X147896104Y-150391809D01*
X147896104Y-150629904D01*
X147848485Y-150725142D01*
X147800866Y-150772761D01*
X147705628Y-150820380D01*
X147419914Y-150820380D01*
X147324676Y-150772761D01*
X147277057Y-150725142D01*
X143473247Y-150976228D02*
X144235152Y-150976228D01*
X143854200Y-151357180D02*
X143854200Y-150595276D01*
X154509742Y-131452857D02*
X154557361Y-131500476D01*
X154604980Y-131643333D01*
X154604980Y-131738571D01*
X154557361Y-131881428D01*
X154462123Y-131976666D01*
X154366885Y-132024285D01*
X154176409Y-132071904D01*
X154033552Y-132071904D01*
X153843076Y-132024285D01*
X153747838Y-131976666D01*
X153652600Y-131881428D01*
X153604980Y-131738571D01*
X153604980Y-131643333D01*
X153652600Y-131500476D01*
X153700219Y-131452857D01*
X153700219Y-131071904D02*
X153652600Y-131024285D01*
X153604980Y-130929047D01*
X153604980Y-130690952D01*
X153652600Y-130595714D01*
X153700219Y-130548095D01*
X153795457Y-130500476D01*
X153890695Y-130500476D01*
X154033552Y-130548095D01*
X154604980Y-131119523D01*
X154604980Y-130500476D01*
X153700219Y-130119523D02*
X153652600Y-130071904D01*
X153604980Y-129976666D01*
X153604980Y-129738571D01*
X153652600Y-129643333D01*
X153700219Y-129595714D01*
X153795457Y-129548095D01*
X153890695Y-129548095D01*
X154033552Y-129595714D01*
X154604980Y-130167142D01*
X154604980Y-129548095D01*
X154760828Y-133970952D02*
X154760828Y-133209047D01*
X155141780Y-133590000D02*
X154379876Y-133590000D01*
X153952380Y-141961904D02*
X154761904Y-141961904D01*
X154857142Y-141914285D01*
X154904761Y-141866666D01*
X154952380Y-141771428D01*
X154952380Y-141580952D01*
X154904761Y-141485714D01*
X154857142Y-141438095D01*
X154761904Y-141390476D01*
X153952380Y-141390476D01*
X154285714Y-140485714D02*
X154952380Y-140485714D01*
X153904761Y-140723809D02*
X154619047Y-140961904D01*
X154619047Y-140342857D01*
X174728142Y-135040666D02*
X174775761Y-135088285D01*
X174823380Y-135231142D01*
X174823380Y-135326380D01*
X174775761Y-135469238D01*
X174680523Y-135564476D01*
X174585285Y-135612095D01*
X174394809Y-135659714D01*
X174251952Y-135659714D01*
X174061476Y-135612095D01*
X173966238Y-135564476D01*
X173871000Y-135469238D01*
X173823380Y-135326380D01*
X173823380Y-135231142D01*
X173871000Y-135088285D01*
X173918619Y-135040666D01*
X174156714Y-134183523D02*
X174823380Y-134183523D01*
X173775761Y-134421619D02*
X174490047Y-134659714D01*
X174490047Y-134040666D01*
X163531142Y-142501857D02*
X163578761Y-142549476D01*
X163626380Y-142692333D01*
X163626380Y-142787571D01*
X163578761Y-142930428D01*
X163483523Y-143025666D01*
X163388285Y-143073285D01*
X163197809Y-143120904D01*
X163054952Y-143120904D01*
X162864476Y-143073285D01*
X162769238Y-143025666D01*
X162674000Y-142930428D01*
X162626380Y-142787571D01*
X162626380Y-142692333D01*
X162674000Y-142549476D01*
X162721619Y-142501857D01*
X162721619Y-142120904D02*
X162674000Y-142073285D01*
X162626380Y-141978047D01*
X162626380Y-141739952D01*
X162674000Y-141644714D01*
X162721619Y-141597095D01*
X162816857Y-141549476D01*
X162912095Y-141549476D01*
X163054952Y-141597095D01*
X163626380Y-142168523D01*
X163626380Y-141549476D01*
X162626380Y-140644714D02*
X162626380Y-141120904D01*
X163102571Y-141168523D01*
X163054952Y-141120904D01*
X163007333Y-141025666D01*
X163007333Y-140787571D01*
X163054952Y-140692333D01*
X163102571Y-140644714D01*
X163197809Y-140597095D01*
X163435904Y-140597095D01*
X163531142Y-140644714D01*
X163578761Y-140692333D01*
X163626380Y-140787571D01*
X163626380Y-141025666D01*
X163578761Y-141120904D01*
X163531142Y-141168523D01*
X161745428Y-144459952D02*
X161745428Y-143698047D01*
X162126380Y-144079000D02*
X161364476Y-144079000D01*
X163357142Y-136542857D02*
X163404761Y-136590476D01*
X163452380Y-136733333D01*
X163452380Y-136828571D01*
X163404761Y-136971428D01*
X163309523Y-137066666D01*
X163214285Y-137114285D01*
X163023809Y-137161904D01*
X162880952Y-137161904D01*
X162690476Y-137114285D01*
X162595238Y-137066666D01*
X162500000Y-136971428D01*
X162452380Y-136828571D01*
X162452380Y-136733333D01*
X162500000Y-136590476D01*
X162547619Y-136542857D01*
X162547619Y-136161904D02*
X162500000Y-136114285D01*
X162452380Y-136019047D01*
X162452380Y-135780952D01*
X162500000Y-135685714D01*
X162547619Y-135638095D01*
X162642857Y-135590476D01*
X162738095Y-135590476D01*
X162880952Y-135638095D01*
X163452380Y-136209523D01*
X163452380Y-135590476D01*
X163452380Y-134638095D02*
X163452380Y-135209523D01*
X163452380Y-134923809D02*
X162452380Y-134923809D01*
X162595238Y-135019047D01*
X162690476Y-135114285D01*
X162738095Y-135209523D01*
X158945428Y-133542952D02*
X158945428Y-132781047D01*
X159326380Y-133162000D02*
X158564476Y-133162000D01*
X200302761Y-140525333D02*
X200350380Y-140382476D01*
X200350380Y-140144380D01*
X200302761Y-140049142D01*
X200255142Y-140001523D01*
X200159904Y-139953904D01*
X200064666Y-139953904D01*
X199969428Y-140001523D01*
X199921809Y-140049142D01*
X199874190Y-140144380D01*
X199826571Y-140334857D01*
X199778952Y-140430095D01*
X199731333Y-140477714D01*
X199636095Y-140525333D01*
X199540857Y-140525333D01*
X199445619Y-140477714D01*
X199398000Y-140430095D01*
X199350380Y-140334857D01*
X199350380Y-140096761D01*
X199398000Y-139953904D01*
X199350380Y-139620571D02*
X200350380Y-139382476D01*
X199636095Y-139192000D01*
X200350380Y-139001523D01*
X199350380Y-138763428D01*
X200350380Y-137858666D02*
X200350380Y-138430095D01*
X200350380Y-138144380D02*
X199350380Y-138144380D01*
X199493238Y-138239619D01*
X199588476Y-138334857D01*
X199636095Y-138430095D01*
X189587142Y-138215666D02*
X189634761Y-138263285D01*
X189682380Y-138406142D01*
X189682380Y-138501380D01*
X189634761Y-138644238D01*
X189539523Y-138739476D01*
X189444285Y-138787095D01*
X189253809Y-138834714D01*
X189110952Y-138834714D01*
X188920476Y-138787095D01*
X188825238Y-138739476D01*
X188730000Y-138644238D01*
X188682380Y-138501380D01*
X188682380Y-138406142D01*
X188730000Y-138263285D01*
X188777619Y-138215666D01*
X189682380Y-137263285D02*
X189682380Y-137834714D01*
X189682380Y-137549000D02*
X188682380Y-137549000D01*
X188825238Y-137644238D01*
X188920476Y-137739476D01*
X188968095Y-137834714D01*
X171553142Y-135294666D02*
X171600761Y-135342285D01*
X171648380Y-135485142D01*
X171648380Y-135580380D01*
X171600761Y-135723238D01*
X171505523Y-135818476D01*
X171410285Y-135866095D01*
X171219809Y-135913714D01*
X171076952Y-135913714D01*
X170886476Y-135866095D01*
X170791238Y-135818476D01*
X170696000Y-135723238D01*
X170648380Y-135580380D01*
X170648380Y-135485142D01*
X170696000Y-135342285D01*
X170743619Y-135294666D01*
X170743619Y-134913714D02*
X170696000Y-134866095D01*
X170648380Y-134770857D01*
X170648380Y-134532761D01*
X170696000Y-134437523D01*
X170743619Y-134389904D01*
X170838857Y-134342285D01*
X170934095Y-134342285D01*
X171076952Y-134389904D01*
X171648380Y-134961333D01*
X171648380Y-134342285D01*
X166092142Y-142914666D02*
X166139761Y-142962285D01*
X166187380Y-143105142D01*
X166187380Y-143200380D01*
X166139761Y-143343238D01*
X166044523Y-143438476D01*
X165949285Y-143486095D01*
X165758809Y-143533714D01*
X165615952Y-143533714D01*
X165425476Y-143486095D01*
X165330238Y-143438476D01*
X165235000Y-143343238D01*
X165187380Y-143200380D01*
X165187380Y-143105142D01*
X165235000Y-142962285D01*
X165282619Y-142914666D01*
X165187380Y-142581333D02*
X165187380Y-141962285D01*
X165568333Y-142295619D01*
X165568333Y-142152761D01*
X165615952Y-142057523D01*
X165663571Y-142009904D01*
X165758809Y-141962285D01*
X165996904Y-141962285D01*
X166092142Y-142009904D01*
X166139761Y-142057523D01*
X166187380Y-142152761D01*
X166187380Y-142438476D01*
X166139761Y-142533714D01*
X166092142Y-142581333D01*
X188936333Y-143486142D02*
X188888714Y-143533761D01*
X188745857Y-143581380D01*
X188650619Y-143581380D01*
X188507761Y-143533761D01*
X188412523Y-143438523D01*
X188364904Y-143343285D01*
X188317285Y-143152809D01*
X188317285Y-143009952D01*
X188364904Y-142819476D01*
X188412523Y-142724238D01*
X188507761Y-142629000D01*
X188650619Y-142581380D01*
X188745857Y-142581380D01*
X188888714Y-142629000D01*
X188936333Y-142676619D01*
X189412523Y-143581380D02*
X189603000Y-143581380D01*
X189698238Y-143533761D01*
X189745857Y-143486142D01*
X189841095Y-143343285D01*
X189888714Y-143152809D01*
X189888714Y-142771857D01*
X189841095Y-142676619D01*
X189793476Y-142629000D01*
X189698238Y-142581380D01*
X189507761Y-142581380D01*
X189412523Y-142629000D01*
X189364904Y-142676619D01*
X189317285Y-142771857D01*
X189317285Y-143009952D01*
X189364904Y-143105190D01*
X189412523Y-143152809D01*
X189507761Y-143200428D01*
X189698238Y-143200428D01*
X189793476Y-143152809D01*
X189841095Y-143105190D01*
X189888714Y-143009952D01*
X172442142Y-143771857D02*
X172489761Y-143819476D01*
X172537380Y-143962333D01*
X172537380Y-144057571D01*
X172489761Y-144200428D01*
X172394523Y-144295666D01*
X172299285Y-144343285D01*
X172108809Y-144390904D01*
X171965952Y-144390904D01*
X171775476Y-144343285D01*
X171680238Y-144295666D01*
X171585000Y-144200428D01*
X171537380Y-144057571D01*
X171537380Y-143962333D01*
X171585000Y-143819476D01*
X171632619Y-143771857D01*
X172537380Y-142819476D02*
X172537380Y-143390904D01*
X172537380Y-143105190D02*
X171537380Y-143105190D01*
X171680238Y-143200428D01*
X171775476Y-143295666D01*
X171823095Y-143390904D01*
X171537380Y-142200428D02*
X171537380Y-142105190D01*
X171585000Y-142009952D01*
X171632619Y-141962333D01*
X171727857Y-141914714D01*
X171918333Y-141867095D01*
X172156428Y-141867095D01*
X172346904Y-141914714D01*
X172442142Y-141962333D01*
X172489761Y-142009952D01*
X172537380Y-142105190D01*
X172537380Y-142200428D01*
X172489761Y-142295666D01*
X172442142Y-142343285D01*
X172346904Y-142390904D01*
X172156428Y-142438523D01*
X171918333Y-142438523D01*
X171727857Y-142390904D01*
X171632619Y-142343285D01*
X171585000Y-142295666D01*
X171537380Y-142200428D01*
X145718304Y-129103380D02*
X145718304Y-128103380D01*
X145956400Y-128103380D01*
X146099257Y-128151000D01*
X146194495Y-128246238D01*
X146242114Y-128341476D01*
X146289733Y-128531952D01*
X146289733Y-128674809D01*
X146242114Y-128865285D01*
X146194495Y-128960523D01*
X146099257Y-129055761D01*
X145956400Y-129103380D01*
X145718304Y-129103380D01*
X146670685Y-128198619D02*
X146718304Y-128151000D01*
X146813542Y-128103380D01*
X147051638Y-128103380D01*
X147146876Y-128151000D01*
X147194495Y-128198619D01*
X147242114Y-128293857D01*
X147242114Y-128389095D01*
X147194495Y-128531952D01*
X146623066Y-129103380D01*
X147242114Y-129103380D01*
X146302504Y-145486380D02*
X146302504Y-144486380D01*
X146540600Y-144486380D01*
X146683457Y-144534000D01*
X146778695Y-144629238D01*
X146826314Y-144724476D01*
X146873933Y-144914952D01*
X146873933Y-145057809D01*
X146826314Y-145248285D01*
X146778695Y-145343523D01*
X146683457Y-145438761D01*
X146540600Y-145486380D01*
X146302504Y-145486380D01*
X147207266Y-144486380D02*
X147826314Y-144486380D01*
X147492980Y-144867333D01*
X147635838Y-144867333D01*
X147731076Y-144914952D01*
X147778695Y-144962571D01*
X147826314Y-145057809D01*
X147826314Y-145295904D01*
X147778695Y-145391142D01*
X147731076Y-145438761D01*
X147635838Y-145486380D01*
X147350123Y-145486380D01*
X147254885Y-145438761D01*
X147207266Y-145391142D01*
X203922380Y-144986190D02*
X203922380Y-144367142D01*
X204303333Y-144700476D01*
X204303333Y-144557619D01*
X204350952Y-144462380D01*
X204398571Y-144414761D01*
X204493809Y-144367142D01*
X204731904Y-144367142D01*
X204827142Y-144414761D01*
X204874761Y-144462380D01*
X204922380Y-144557619D01*
X204922380Y-144843333D01*
X204874761Y-144938571D01*
X204827142Y-144986190D01*
X204827142Y-143938571D02*
X204874761Y-143890952D01*
X204922380Y-143938571D01*
X204874761Y-143986190D01*
X204827142Y-143938571D01*
X204922380Y-143938571D01*
X203922380Y-143557619D02*
X203922380Y-142938571D01*
X204303333Y-143271904D01*
X204303333Y-143129047D01*
X204350952Y-143033809D01*
X204398571Y-142986190D01*
X204493809Y-142938571D01*
X204731904Y-142938571D01*
X204827142Y-142986190D01*
X204874761Y-143033809D01*
X204922380Y-143129047D01*
X204922380Y-143414761D01*
X204874761Y-143510000D01*
X204827142Y-143557619D01*
X203922380Y-142652857D02*
X204922380Y-142319523D01*
X203922380Y-141986190D01*
X203970000Y-140200095D02*
X203922380Y-140295333D01*
X203922380Y-140438190D01*
X203970000Y-140581047D01*
X204065238Y-140676285D01*
X204160476Y-140723904D01*
X204350952Y-140771523D01*
X204493809Y-140771523D01*
X204684285Y-140723904D01*
X204779523Y-140676285D01*
X204874761Y-140581047D01*
X204922380Y-140438190D01*
X204922380Y-140342952D01*
X204874761Y-140200095D01*
X204827142Y-140152476D01*
X204493809Y-140152476D01*
X204493809Y-140342952D01*
X204922380Y-138699809D02*
X203922380Y-138699809D01*
X203922380Y-138033142D02*
X203922380Y-137842666D01*
X203970000Y-137747428D01*
X204065238Y-137652190D01*
X204255714Y-137604571D01*
X204589047Y-137604571D01*
X204779523Y-137652190D01*
X204874761Y-137747428D01*
X204922380Y-137842666D01*
X204922380Y-138033142D01*
X204874761Y-138128380D01*
X204779523Y-138223619D01*
X204589047Y-138271238D01*
X204255714Y-138271238D01*
X204065238Y-138223619D01*
X203970000Y-138128380D01*
X203922380Y-138033142D01*
X204827142Y-135977238D02*
X204874761Y-136024857D01*
X204922380Y-136167714D01*
X204922380Y-136262952D01*
X204874761Y-136405809D01*
X204779523Y-136501047D01*
X204684285Y-136548666D01*
X204493809Y-136596285D01*
X204350952Y-136596285D01*
X204160476Y-136548666D01*
X204065238Y-136501047D01*
X203970000Y-136405809D01*
X203922380Y-136262952D01*
X203922380Y-136167714D01*
X203970000Y-136024857D01*
X204017619Y-135977238D01*
X204922380Y-135072476D02*
X204922380Y-135548666D01*
X203922380Y-135548666D01*
X204922380Y-134739142D02*
X203922380Y-134739142D01*
X204922380Y-134167714D02*
X204350952Y-134596285D01*
X203922380Y-134167714D02*
X204493809Y-134739142D01*
X192476380Y-138215666D02*
X192476380Y-138691857D01*
X191476380Y-138691857D01*
X192476380Y-137358523D02*
X192476380Y-137929952D01*
X192476380Y-137644238D02*
X191476380Y-137644238D01*
X191619238Y-137739476D01*
X191714476Y-137834714D01*
X191762095Y-137929952D01*
M02*
