G04 #@! TF.GenerationSoftware,KiCad,Pcbnew,(5.1.4)-1*
G04 #@! TF.CreationDate,2020-02-14T21:19:55+00:00*
G04 #@! TF.ProjectId,STM32L152_Dev_Board,53544d33-324c-4313-9532-5f4465765f42,rev?*
G04 #@! TF.SameCoordinates,Original*
G04 #@! TF.FileFunction,Legend,Bot*
G04 #@! TF.FilePolarity,Positive*
%FSLAX46Y46*%
G04 Gerber Fmt 4.6, Leading zero omitted, Abs format (unit mm)*
G04 Created by KiCad (PCBNEW (5.1.4)-1) date 2020-02-14 21:19:55*
%MOMM*%
%LPD*%
G04 APERTURE LIST*
%ADD10C,0.150000*%
G04 APERTURE END LIST*
D10*
X190998238Y-138644761D02*
X190855380Y-138692380D01*
X190617285Y-138692380D01*
X190522047Y-138644761D01*
X190474428Y-138597142D01*
X190426809Y-138501904D01*
X190426809Y-138406666D01*
X190474428Y-138311428D01*
X190522047Y-138263809D01*
X190617285Y-138216190D01*
X190807761Y-138168571D01*
X190903000Y-138120952D01*
X190950619Y-138073333D01*
X190998238Y-137978095D01*
X190998238Y-137882857D01*
X190950619Y-137787619D01*
X190903000Y-137740000D01*
X190807761Y-137692380D01*
X190569666Y-137692380D01*
X190426809Y-137740000D01*
X190141095Y-137692380D02*
X189569666Y-137692380D01*
X189855380Y-138692380D02*
X189855380Y-137692380D01*
X189236333Y-138692380D02*
X189236333Y-137692380D01*
X188903000Y-138406666D01*
X188569666Y-137692380D01*
X188569666Y-138692380D01*
X188188714Y-137692380D02*
X187569666Y-137692380D01*
X187903000Y-138073333D01*
X187760142Y-138073333D01*
X187664904Y-138120952D01*
X187617285Y-138168571D01*
X187569666Y-138263809D01*
X187569666Y-138501904D01*
X187617285Y-138597142D01*
X187664904Y-138644761D01*
X187760142Y-138692380D01*
X188045857Y-138692380D01*
X188141095Y-138644761D01*
X188188714Y-138597142D01*
X187188714Y-137787619D02*
X187141095Y-137740000D01*
X187045857Y-137692380D01*
X186807761Y-137692380D01*
X186712523Y-137740000D01*
X186664904Y-137787619D01*
X186617285Y-137882857D01*
X186617285Y-137978095D01*
X186664904Y-138120952D01*
X187236333Y-138692380D01*
X186617285Y-138692380D01*
X185712523Y-138692380D02*
X186188714Y-138692380D01*
X186188714Y-137692380D01*
X184855380Y-138692380D02*
X185426809Y-138692380D01*
X185141095Y-138692380D02*
X185141095Y-137692380D01*
X185236333Y-137835238D01*
X185331571Y-137930476D01*
X185426809Y-137978095D01*
X183950619Y-137692380D02*
X184426809Y-137692380D01*
X184474428Y-138168571D01*
X184426809Y-138120952D01*
X184331571Y-138073333D01*
X184093476Y-138073333D01*
X183998238Y-138120952D01*
X183950619Y-138168571D01*
X183903000Y-138263809D01*
X183903000Y-138501904D01*
X183950619Y-138597142D01*
X183998238Y-138644761D01*
X184093476Y-138692380D01*
X184331571Y-138692380D01*
X184426809Y-138644761D01*
X184474428Y-138597142D01*
X183522047Y-137787619D02*
X183474428Y-137740000D01*
X183379190Y-137692380D01*
X183141095Y-137692380D01*
X183045857Y-137740000D01*
X182998238Y-137787619D01*
X182950619Y-137882857D01*
X182950619Y-137978095D01*
X182998238Y-138120952D01*
X183569666Y-138692380D01*
X182950619Y-138692380D01*
X181331571Y-138692380D02*
X181331571Y-138168571D01*
X181379190Y-138073333D01*
X181474428Y-138025714D01*
X181664904Y-138025714D01*
X181760142Y-138073333D01*
X181331571Y-138644761D02*
X181426809Y-138692380D01*
X181664904Y-138692380D01*
X181760142Y-138644761D01*
X181807761Y-138549523D01*
X181807761Y-138454285D01*
X181760142Y-138359047D01*
X181664904Y-138311428D01*
X181426809Y-138311428D01*
X181331571Y-138263809D01*
X180855380Y-138025714D02*
X180855380Y-138692380D01*
X180855380Y-138120952D02*
X180807761Y-138073333D01*
X180712523Y-138025714D01*
X180569666Y-138025714D01*
X180474428Y-138073333D01*
X180426809Y-138168571D01*
X180426809Y-138692380D01*
X179522047Y-138692380D02*
X179522047Y-137692380D01*
X179522047Y-138644761D02*
X179617285Y-138692380D01*
X179807761Y-138692380D01*
X179903000Y-138644761D01*
X179950619Y-138597142D01*
X179998238Y-138501904D01*
X179998238Y-138216190D01*
X179950619Y-138120952D01*
X179903000Y-138073333D01*
X179807761Y-138025714D01*
X179617285Y-138025714D01*
X179522047Y-138073333D01*
X178331571Y-138644761D02*
X178188714Y-138692380D01*
X177950619Y-138692380D01*
X177855380Y-138644761D01*
X177807761Y-138597142D01*
X177760142Y-138501904D01*
X177760142Y-138406666D01*
X177807761Y-138311428D01*
X177855380Y-138263809D01*
X177950619Y-138216190D01*
X178141095Y-138168571D01*
X178236333Y-138120952D01*
X178283952Y-138073333D01*
X178331571Y-137978095D01*
X178331571Y-137882857D01*
X178283952Y-137787619D01*
X178236333Y-137740000D01*
X178141095Y-137692380D01*
X177903000Y-137692380D01*
X177760142Y-137740000D01*
X177474428Y-137692380D02*
X176903000Y-137692380D01*
X177188714Y-138692380D02*
X177188714Y-137692380D01*
X176569666Y-138692380D02*
X176569666Y-137692380D01*
X176236333Y-138406666D01*
X175903000Y-137692380D01*
X175903000Y-138692380D01*
X175522047Y-137692380D02*
X174903000Y-137692380D01*
X175236333Y-138073333D01*
X175093476Y-138073333D01*
X174998238Y-138120952D01*
X174950619Y-138168571D01*
X174903000Y-138263809D01*
X174903000Y-138501904D01*
X174950619Y-138597142D01*
X174998238Y-138644761D01*
X175093476Y-138692380D01*
X175379190Y-138692380D01*
X175474428Y-138644761D01*
X175522047Y-138597142D01*
X174522047Y-137787619D02*
X174474428Y-137740000D01*
X174379190Y-137692380D01*
X174141095Y-137692380D01*
X174045857Y-137740000D01*
X173998238Y-137787619D01*
X173950619Y-137882857D01*
X173950619Y-137978095D01*
X173998238Y-138120952D01*
X174569666Y-138692380D01*
X173950619Y-138692380D01*
X173045857Y-138692380D02*
X173522047Y-138692380D01*
X173522047Y-137692380D01*
X172283952Y-138025714D02*
X172283952Y-138692380D01*
X172522047Y-137644761D02*
X172760142Y-138359047D01*
X172141095Y-138359047D01*
X171283952Y-137692380D02*
X171760142Y-137692380D01*
X171807761Y-138168571D01*
X171760142Y-138120952D01*
X171664904Y-138073333D01*
X171426809Y-138073333D01*
X171331571Y-138120952D01*
X171283952Y-138168571D01*
X171236333Y-138263809D01*
X171236333Y-138501904D01*
X171283952Y-138597142D01*
X171331571Y-138644761D01*
X171426809Y-138692380D01*
X171664904Y-138692380D01*
X171760142Y-138644761D01*
X171807761Y-138597142D01*
X170283952Y-138692380D02*
X170855380Y-138692380D01*
X170569666Y-138692380D02*
X170569666Y-137692380D01*
X170664904Y-137835238D01*
X170760142Y-137930476D01*
X170855380Y-137978095D01*
X169093476Y-138692380D02*
X169093476Y-137692380D01*
X168855380Y-137692380D01*
X168712523Y-137740000D01*
X168617285Y-137835238D01*
X168569666Y-137930476D01*
X168522047Y-138120952D01*
X168522047Y-138263809D01*
X168569666Y-138454285D01*
X168617285Y-138549523D01*
X168712523Y-138644761D01*
X168855380Y-138692380D01*
X169093476Y-138692380D01*
X167712523Y-138644761D02*
X167807761Y-138692380D01*
X167998238Y-138692380D01*
X168093476Y-138644761D01*
X168141095Y-138549523D01*
X168141095Y-138168571D01*
X168093476Y-138073333D01*
X167998238Y-138025714D01*
X167807761Y-138025714D01*
X167712523Y-138073333D01*
X167664904Y-138168571D01*
X167664904Y-138263809D01*
X168141095Y-138359047D01*
X167331571Y-138025714D02*
X167093476Y-138692380D01*
X166855380Y-138025714D01*
X165379190Y-138168571D02*
X165236333Y-138216190D01*
X165188714Y-138263809D01*
X165141095Y-138359047D01*
X165141095Y-138501904D01*
X165188714Y-138597142D01*
X165236333Y-138644761D01*
X165331571Y-138692380D01*
X165712523Y-138692380D01*
X165712523Y-137692380D01*
X165379190Y-137692380D01*
X165283952Y-137740000D01*
X165236333Y-137787619D01*
X165188714Y-137882857D01*
X165188714Y-137978095D01*
X165236333Y-138073333D01*
X165283952Y-138120952D01*
X165379190Y-138168571D01*
X165712523Y-138168571D01*
X164569666Y-138692380D02*
X164664904Y-138644761D01*
X164712523Y-138597142D01*
X164760142Y-138501904D01*
X164760142Y-138216190D01*
X164712523Y-138120952D01*
X164664904Y-138073333D01*
X164569666Y-138025714D01*
X164426809Y-138025714D01*
X164331571Y-138073333D01*
X164283952Y-138120952D01*
X164236333Y-138216190D01*
X164236333Y-138501904D01*
X164283952Y-138597142D01*
X164331571Y-138644761D01*
X164426809Y-138692380D01*
X164569666Y-138692380D01*
X163379190Y-138692380D02*
X163379190Y-138168571D01*
X163426809Y-138073333D01*
X163522047Y-138025714D01*
X163712523Y-138025714D01*
X163807761Y-138073333D01*
X163379190Y-138644761D02*
X163474428Y-138692380D01*
X163712523Y-138692380D01*
X163807761Y-138644761D01*
X163855380Y-138549523D01*
X163855380Y-138454285D01*
X163807761Y-138359047D01*
X163712523Y-138311428D01*
X163474428Y-138311428D01*
X163379190Y-138263809D01*
X162903000Y-138692380D02*
X162903000Y-138025714D01*
X162903000Y-138216190D02*
X162855380Y-138120952D01*
X162807761Y-138073333D01*
X162712523Y-138025714D01*
X162617285Y-138025714D01*
X161855380Y-138692380D02*
X161855380Y-137692380D01*
X161855380Y-138644761D02*
X161950619Y-138692380D01*
X162141095Y-138692380D01*
X162236333Y-138644761D01*
X162283952Y-138597142D01*
X162331571Y-138501904D01*
X162331571Y-138216190D01*
X162283952Y-138120952D01*
X162236333Y-138073333D01*
X162141095Y-138025714D01*
X161950619Y-138025714D01*
X161855380Y-138073333D01*
X184736333Y-140342380D02*
X184736333Y-139342380D01*
X184403000Y-140056666D01*
X184069666Y-139342380D01*
X184069666Y-140342380D01*
X183450619Y-140342380D02*
X183545857Y-140294761D01*
X183593476Y-140247142D01*
X183641095Y-140151904D01*
X183641095Y-139866190D01*
X183593476Y-139770952D01*
X183545857Y-139723333D01*
X183450619Y-139675714D01*
X183307761Y-139675714D01*
X183212523Y-139723333D01*
X183164904Y-139770952D01*
X183117285Y-139866190D01*
X183117285Y-140151904D01*
X183164904Y-140247142D01*
X183212523Y-140294761D01*
X183307761Y-140342380D01*
X183450619Y-140342380D01*
X182260142Y-139675714D02*
X182260142Y-140342380D01*
X182688714Y-139675714D02*
X182688714Y-140199523D01*
X182641095Y-140294761D01*
X182545857Y-140342380D01*
X182403000Y-140342380D01*
X182307761Y-140294761D01*
X182260142Y-140247142D01*
X181783952Y-139675714D02*
X181783952Y-140342380D01*
X181783952Y-139770952D02*
X181736333Y-139723333D01*
X181641095Y-139675714D01*
X181498238Y-139675714D01*
X181403000Y-139723333D01*
X181355380Y-139818571D01*
X181355380Y-140342380D01*
X181022047Y-139675714D02*
X180641095Y-139675714D01*
X180879190Y-139342380D02*
X180879190Y-140199523D01*
X180831571Y-140294761D01*
X180736333Y-140342380D01*
X180641095Y-140342380D01*
X180307761Y-139675714D02*
X180307761Y-140532857D01*
X180355380Y-140628095D01*
X180450619Y-140675714D01*
X180498238Y-140675714D01*
X180307761Y-139342380D02*
X180355380Y-139390000D01*
X180307761Y-139437619D01*
X180260142Y-139390000D01*
X180307761Y-139342380D01*
X180307761Y-139437619D01*
X179688714Y-140342380D02*
X179783952Y-140294761D01*
X179831571Y-140247142D01*
X179879190Y-140151904D01*
X179879190Y-139866190D01*
X179831571Y-139770952D01*
X179783952Y-139723333D01*
X179688714Y-139675714D01*
X179545857Y-139675714D01*
X179450619Y-139723333D01*
X179403000Y-139770952D01*
X179355380Y-139866190D01*
X179355380Y-140151904D01*
X179403000Y-140247142D01*
X179450619Y-140294761D01*
X179545857Y-140342380D01*
X179688714Y-140342380D01*
X179022047Y-139675714D02*
X178783952Y-140342380D01*
X178545857Y-139675714D02*
X178783952Y-140342380D01*
X178879190Y-140580476D01*
X178926809Y-140628095D01*
X179022047Y-140675714D01*
X177403000Y-140342380D02*
X177403000Y-139342380D01*
X177069666Y-140056666D01*
X176736333Y-139342380D01*
X176736333Y-140342380D01*
X176117285Y-140342380D02*
X176212523Y-140294761D01*
X176260142Y-140247142D01*
X176307761Y-140151904D01*
X176307761Y-139866190D01*
X176260142Y-139770952D01*
X176212523Y-139723333D01*
X176117285Y-139675714D01*
X175974428Y-139675714D01*
X175879190Y-139723333D01*
X175831571Y-139770952D01*
X175783952Y-139866190D01*
X175783952Y-140151904D01*
X175831571Y-140247142D01*
X175879190Y-140294761D01*
X175974428Y-140342380D01*
X176117285Y-140342380D01*
X174926809Y-140342380D02*
X174926809Y-139342380D01*
X174926809Y-140294761D02*
X175022047Y-140342380D01*
X175212523Y-140342380D01*
X175307761Y-140294761D01*
X175355380Y-140247142D01*
X175403000Y-140151904D01*
X175403000Y-139866190D01*
X175355380Y-139770952D01*
X175307761Y-139723333D01*
X175212523Y-139675714D01*
X175022047Y-139675714D01*
X174926809Y-139723333D01*
X174022047Y-139675714D02*
X174022047Y-140342380D01*
X174450619Y-139675714D02*
X174450619Y-140199523D01*
X174403000Y-140294761D01*
X174307761Y-140342380D01*
X174164904Y-140342380D01*
X174069666Y-140294761D01*
X174022047Y-140247142D01*
X173403000Y-140342380D02*
X173498238Y-140294761D01*
X173545857Y-140199523D01*
X173545857Y-139342380D01*
X172593476Y-140342380D02*
X172593476Y-139818571D01*
X172641095Y-139723333D01*
X172736333Y-139675714D01*
X172926809Y-139675714D01*
X173022047Y-139723333D01*
X172593476Y-140294761D02*
X172688714Y-140342380D01*
X172926809Y-140342380D01*
X173022047Y-140294761D01*
X173069666Y-140199523D01*
X173069666Y-140104285D01*
X173022047Y-140009047D01*
X172926809Y-139961428D01*
X172688714Y-139961428D01*
X172593476Y-139913809D01*
X172117285Y-140342380D02*
X172117285Y-139675714D01*
X172117285Y-139866190D02*
X172069666Y-139770952D01*
X172022047Y-139723333D01*
X171926809Y-139675714D01*
X171831571Y-139675714D01*
X170831571Y-139675714D02*
X170593476Y-140342380D01*
X170355380Y-139675714D01*
X169450619Y-140342380D02*
X170022047Y-140342380D01*
X169736333Y-140342380D02*
X169736333Y-139342380D01*
X169831571Y-139485238D01*
X169926809Y-139580476D01*
X170022047Y-139628095D01*
X169022047Y-140247142D02*
X168974428Y-140294761D01*
X169022047Y-140342380D01*
X169069666Y-140294761D01*
X169022047Y-140247142D01*
X169022047Y-140342380D01*
X168022047Y-140342380D02*
X168593476Y-140342380D01*
X168307761Y-140342380D02*
X168307761Y-139342380D01*
X168403000Y-139485238D01*
X168498238Y-139580476D01*
X168593476Y-139628095D01*
M02*
