G04 #@! TF.GenerationSoftware,KiCad,Pcbnew,(5.1.5)-3*
G04 #@! TF.CreationDate,2020-05-17T16:51:04+01:00*
G04 #@! TF.ProjectId,STM32L152_Dev_Board,53544d33-324c-4313-9532-5f4465765f42,rev?*
G04 #@! TF.SameCoordinates,Original*
G04 #@! TF.FileFunction,Soldermask,Top*
G04 #@! TF.FilePolarity,Negative*
%FSLAX46Y46*%
G04 Gerber Fmt 4.6, Leading zero omitted, Abs format (unit mm)*
G04 Created by KiCad (PCBNEW (5.1.5)-3) date 2020-05-17 16:51:04*
%MOMM*%
%LPD*%
G04 APERTURE LIST*
%ADD10C,0.100000*%
G04 APERTURE END LIST*
D10*
G36*
X209181000Y-150253000D02*
G01*
X207379000Y-150253000D01*
X207379000Y-148451000D01*
X209181000Y-148451000D01*
X209181000Y-150253000D01*
G37*
G36*
X167753512Y-148455927D02*
G01*
X167902812Y-148485624D01*
X168066784Y-148553544D01*
X168214354Y-148652147D01*
X168339853Y-148777646D01*
X168438456Y-148925216D01*
X168506376Y-149089188D01*
X168541000Y-149263259D01*
X168541000Y-149440741D01*
X168506376Y-149614812D01*
X168438456Y-149778784D01*
X168339853Y-149926354D01*
X168214354Y-150051853D01*
X168066784Y-150150456D01*
X167902812Y-150218376D01*
X167753512Y-150248073D01*
X167728742Y-150253000D01*
X167551258Y-150253000D01*
X167526488Y-150248073D01*
X167377188Y-150218376D01*
X167213216Y-150150456D01*
X167065646Y-150051853D01*
X166940147Y-149926354D01*
X166841544Y-149778784D01*
X166773624Y-149614812D01*
X166739000Y-149440741D01*
X166739000Y-149263259D01*
X166773624Y-149089188D01*
X166841544Y-148925216D01*
X166940147Y-148777646D01*
X167065646Y-148652147D01*
X167213216Y-148553544D01*
X167377188Y-148485624D01*
X167526488Y-148455927D01*
X167551258Y-148451000D01*
X167728742Y-148451000D01*
X167753512Y-148455927D01*
G37*
G36*
X195693512Y-148455927D02*
G01*
X195842812Y-148485624D01*
X196006784Y-148553544D01*
X196154354Y-148652147D01*
X196279853Y-148777646D01*
X196378456Y-148925216D01*
X196446376Y-149089188D01*
X196481000Y-149263259D01*
X196481000Y-149440741D01*
X196446376Y-149614812D01*
X196378456Y-149778784D01*
X196279853Y-149926354D01*
X196154354Y-150051853D01*
X196006784Y-150150456D01*
X195842812Y-150218376D01*
X195693512Y-150248073D01*
X195668742Y-150253000D01*
X195491258Y-150253000D01*
X195466488Y-150248073D01*
X195317188Y-150218376D01*
X195153216Y-150150456D01*
X195005646Y-150051853D01*
X194880147Y-149926354D01*
X194781544Y-149778784D01*
X194713624Y-149614812D01*
X194679000Y-149440741D01*
X194679000Y-149263259D01*
X194713624Y-149089188D01*
X194781544Y-148925216D01*
X194880147Y-148777646D01*
X195005646Y-148652147D01*
X195153216Y-148553544D01*
X195317188Y-148485624D01*
X195466488Y-148455927D01*
X195491258Y-148451000D01*
X195668742Y-148451000D01*
X195693512Y-148455927D01*
G37*
G36*
X193153512Y-148455927D02*
G01*
X193302812Y-148485624D01*
X193466784Y-148553544D01*
X193614354Y-148652147D01*
X193739853Y-148777646D01*
X193838456Y-148925216D01*
X193906376Y-149089188D01*
X193941000Y-149263259D01*
X193941000Y-149440741D01*
X193906376Y-149614812D01*
X193838456Y-149778784D01*
X193739853Y-149926354D01*
X193614354Y-150051853D01*
X193466784Y-150150456D01*
X193302812Y-150218376D01*
X193153512Y-150248073D01*
X193128742Y-150253000D01*
X192951258Y-150253000D01*
X192926488Y-150248073D01*
X192777188Y-150218376D01*
X192613216Y-150150456D01*
X192465646Y-150051853D01*
X192340147Y-149926354D01*
X192241544Y-149778784D01*
X192173624Y-149614812D01*
X192139000Y-149440741D01*
X192139000Y-149263259D01*
X192173624Y-149089188D01*
X192241544Y-148925216D01*
X192340147Y-148777646D01*
X192465646Y-148652147D01*
X192613216Y-148553544D01*
X192777188Y-148485624D01*
X192926488Y-148455927D01*
X192951258Y-148451000D01*
X193128742Y-148451000D01*
X193153512Y-148455927D01*
G37*
G36*
X190613512Y-148455927D02*
G01*
X190762812Y-148485624D01*
X190926784Y-148553544D01*
X191074354Y-148652147D01*
X191199853Y-148777646D01*
X191298456Y-148925216D01*
X191366376Y-149089188D01*
X191401000Y-149263259D01*
X191401000Y-149440741D01*
X191366376Y-149614812D01*
X191298456Y-149778784D01*
X191199853Y-149926354D01*
X191074354Y-150051853D01*
X190926784Y-150150456D01*
X190762812Y-150218376D01*
X190613512Y-150248073D01*
X190588742Y-150253000D01*
X190411258Y-150253000D01*
X190386488Y-150248073D01*
X190237188Y-150218376D01*
X190073216Y-150150456D01*
X189925646Y-150051853D01*
X189800147Y-149926354D01*
X189701544Y-149778784D01*
X189633624Y-149614812D01*
X189599000Y-149440741D01*
X189599000Y-149263259D01*
X189633624Y-149089188D01*
X189701544Y-148925216D01*
X189800147Y-148777646D01*
X189925646Y-148652147D01*
X190073216Y-148553544D01*
X190237188Y-148485624D01*
X190386488Y-148455927D01*
X190411258Y-148451000D01*
X190588742Y-148451000D01*
X190613512Y-148455927D01*
G37*
G36*
X188073512Y-148455927D02*
G01*
X188222812Y-148485624D01*
X188386784Y-148553544D01*
X188534354Y-148652147D01*
X188659853Y-148777646D01*
X188758456Y-148925216D01*
X188826376Y-149089188D01*
X188861000Y-149263259D01*
X188861000Y-149440741D01*
X188826376Y-149614812D01*
X188758456Y-149778784D01*
X188659853Y-149926354D01*
X188534354Y-150051853D01*
X188386784Y-150150456D01*
X188222812Y-150218376D01*
X188073512Y-150248073D01*
X188048742Y-150253000D01*
X187871258Y-150253000D01*
X187846488Y-150248073D01*
X187697188Y-150218376D01*
X187533216Y-150150456D01*
X187385646Y-150051853D01*
X187260147Y-149926354D01*
X187161544Y-149778784D01*
X187093624Y-149614812D01*
X187059000Y-149440741D01*
X187059000Y-149263259D01*
X187093624Y-149089188D01*
X187161544Y-148925216D01*
X187260147Y-148777646D01*
X187385646Y-148652147D01*
X187533216Y-148553544D01*
X187697188Y-148485624D01*
X187846488Y-148455927D01*
X187871258Y-148451000D01*
X188048742Y-148451000D01*
X188073512Y-148455927D01*
G37*
G36*
X185533512Y-148455927D02*
G01*
X185682812Y-148485624D01*
X185846784Y-148553544D01*
X185994354Y-148652147D01*
X186119853Y-148777646D01*
X186218456Y-148925216D01*
X186286376Y-149089188D01*
X186321000Y-149263259D01*
X186321000Y-149440741D01*
X186286376Y-149614812D01*
X186218456Y-149778784D01*
X186119853Y-149926354D01*
X185994354Y-150051853D01*
X185846784Y-150150456D01*
X185682812Y-150218376D01*
X185533512Y-150248073D01*
X185508742Y-150253000D01*
X185331258Y-150253000D01*
X185306488Y-150248073D01*
X185157188Y-150218376D01*
X184993216Y-150150456D01*
X184845646Y-150051853D01*
X184720147Y-149926354D01*
X184621544Y-149778784D01*
X184553624Y-149614812D01*
X184519000Y-149440741D01*
X184519000Y-149263259D01*
X184553624Y-149089188D01*
X184621544Y-148925216D01*
X184720147Y-148777646D01*
X184845646Y-148652147D01*
X184993216Y-148553544D01*
X185157188Y-148485624D01*
X185306488Y-148455927D01*
X185331258Y-148451000D01*
X185508742Y-148451000D01*
X185533512Y-148455927D01*
G37*
G36*
X182993512Y-148455927D02*
G01*
X183142812Y-148485624D01*
X183306784Y-148553544D01*
X183454354Y-148652147D01*
X183579853Y-148777646D01*
X183678456Y-148925216D01*
X183746376Y-149089188D01*
X183781000Y-149263259D01*
X183781000Y-149440741D01*
X183746376Y-149614812D01*
X183678456Y-149778784D01*
X183579853Y-149926354D01*
X183454354Y-150051853D01*
X183306784Y-150150456D01*
X183142812Y-150218376D01*
X182993512Y-150248073D01*
X182968742Y-150253000D01*
X182791258Y-150253000D01*
X182766488Y-150248073D01*
X182617188Y-150218376D01*
X182453216Y-150150456D01*
X182305646Y-150051853D01*
X182180147Y-149926354D01*
X182081544Y-149778784D01*
X182013624Y-149614812D01*
X181979000Y-149440741D01*
X181979000Y-149263259D01*
X182013624Y-149089188D01*
X182081544Y-148925216D01*
X182180147Y-148777646D01*
X182305646Y-148652147D01*
X182453216Y-148553544D01*
X182617188Y-148485624D01*
X182766488Y-148455927D01*
X182791258Y-148451000D01*
X182968742Y-148451000D01*
X182993512Y-148455927D01*
G37*
G36*
X180453512Y-148455927D02*
G01*
X180602812Y-148485624D01*
X180766784Y-148553544D01*
X180914354Y-148652147D01*
X181039853Y-148777646D01*
X181138456Y-148925216D01*
X181206376Y-149089188D01*
X181241000Y-149263259D01*
X181241000Y-149440741D01*
X181206376Y-149614812D01*
X181138456Y-149778784D01*
X181039853Y-149926354D01*
X180914354Y-150051853D01*
X180766784Y-150150456D01*
X180602812Y-150218376D01*
X180453512Y-150248073D01*
X180428742Y-150253000D01*
X180251258Y-150253000D01*
X180226488Y-150248073D01*
X180077188Y-150218376D01*
X179913216Y-150150456D01*
X179765646Y-150051853D01*
X179640147Y-149926354D01*
X179541544Y-149778784D01*
X179473624Y-149614812D01*
X179439000Y-149440741D01*
X179439000Y-149263259D01*
X179473624Y-149089188D01*
X179541544Y-148925216D01*
X179640147Y-148777646D01*
X179765646Y-148652147D01*
X179913216Y-148553544D01*
X180077188Y-148485624D01*
X180226488Y-148455927D01*
X180251258Y-148451000D01*
X180428742Y-148451000D01*
X180453512Y-148455927D01*
G37*
G36*
X177913512Y-148455927D02*
G01*
X178062812Y-148485624D01*
X178226784Y-148553544D01*
X178374354Y-148652147D01*
X178499853Y-148777646D01*
X178598456Y-148925216D01*
X178666376Y-149089188D01*
X178701000Y-149263259D01*
X178701000Y-149440741D01*
X178666376Y-149614812D01*
X178598456Y-149778784D01*
X178499853Y-149926354D01*
X178374354Y-150051853D01*
X178226784Y-150150456D01*
X178062812Y-150218376D01*
X177913512Y-150248073D01*
X177888742Y-150253000D01*
X177711258Y-150253000D01*
X177686488Y-150248073D01*
X177537188Y-150218376D01*
X177373216Y-150150456D01*
X177225646Y-150051853D01*
X177100147Y-149926354D01*
X177001544Y-149778784D01*
X176933624Y-149614812D01*
X176899000Y-149440741D01*
X176899000Y-149263259D01*
X176933624Y-149089188D01*
X177001544Y-148925216D01*
X177100147Y-148777646D01*
X177225646Y-148652147D01*
X177373216Y-148553544D01*
X177537188Y-148485624D01*
X177686488Y-148455927D01*
X177711258Y-148451000D01*
X177888742Y-148451000D01*
X177913512Y-148455927D01*
G37*
G36*
X175373512Y-148455927D02*
G01*
X175522812Y-148485624D01*
X175686784Y-148553544D01*
X175834354Y-148652147D01*
X175959853Y-148777646D01*
X176058456Y-148925216D01*
X176126376Y-149089188D01*
X176161000Y-149263259D01*
X176161000Y-149440741D01*
X176126376Y-149614812D01*
X176058456Y-149778784D01*
X175959853Y-149926354D01*
X175834354Y-150051853D01*
X175686784Y-150150456D01*
X175522812Y-150218376D01*
X175373512Y-150248073D01*
X175348742Y-150253000D01*
X175171258Y-150253000D01*
X175146488Y-150248073D01*
X174997188Y-150218376D01*
X174833216Y-150150456D01*
X174685646Y-150051853D01*
X174560147Y-149926354D01*
X174461544Y-149778784D01*
X174393624Y-149614812D01*
X174359000Y-149440741D01*
X174359000Y-149263259D01*
X174393624Y-149089188D01*
X174461544Y-148925216D01*
X174560147Y-148777646D01*
X174685646Y-148652147D01*
X174833216Y-148553544D01*
X174997188Y-148485624D01*
X175146488Y-148455927D01*
X175171258Y-148451000D01*
X175348742Y-148451000D01*
X175373512Y-148455927D01*
G37*
G36*
X172833512Y-148455927D02*
G01*
X172982812Y-148485624D01*
X173146784Y-148553544D01*
X173294354Y-148652147D01*
X173419853Y-148777646D01*
X173518456Y-148925216D01*
X173586376Y-149089188D01*
X173621000Y-149263259D01*
X173621000Y-149440741D01*
X173586376Y-149614812D01*
X173518456Y-149778784D01*
X173419853Y-149926354D01*
X173294354Y-150051853D01*
X173146784Y-150150456D01*
X172982812Y-150218376D01*
X172833512Y-150248073D01*
X172808742Y-150253000D01*
X172631258Y-150253000D01*
X172606488Y-150248073D01*
X172457188Y-150218376D01*
X172293216Y-150150456D01*
X172145646Y-150051853D01*
X172020147Y-149926354D01*
X171921544Y-149778784D01*
X171853624Y-149614812D01*
X171819000Y-149440741D01*
X171819000Y-149263259D01*
X171853624Y-149089188D01*
X171921544Y-148925216D01*
X172020147Y-148777646D01*
X172145646Y-148652147D01*
X172293216Y-148553544D01*
X172457188Y-148485624D01*
X172606488Y-148455927D01*
X172631258Y-148451000D01*
X172808742Y-148451000D01*
X172833512Y-148455927D01*
G37*
G36*
X165213512Y-148455927D02*
G01*
X165362812Y-148485624D01*
X165526784Y-148553544D01*
X165674354Y-148652147D01*
X165799853Y-148777646D01*
X165898456Y-148925216D01*
X165966376Y-149089188D01*
X166001000Y-149263259D01*
X166001000Y-149440741D01*
X165966376Y-149614812D01*
X165898456Y-149778784D01*
X165799853Y-149926354D01*
X165674354Y-150051853D01*
X165526784Y-150150456D01*
X165362812Y-150218376D01*
X165213512Y-150248073D01*
X165188742Y-150253000D01*
X165011258Y-150253000D01*
X164986488Y-150248073D01*
X164837188Y-150218376D01*
X164673216Y-150150456D01*
X164525646Y-150051853D01*
X164400147Y-149926354D01*
X164301544Y-149778784D01*
X164233624Y-149614812D01*
X164199000Y-149440741D01*
X164199000Y-149263259D01*
X164233624Y-149089188D01*
X164301544Y-148925216D01*
X164400147Y-148777646D01*
X164525646Y-148652147D01*
X164673216Y-148553544D01*
X164837188Y-148485624D01*
X164986488Y-148455927D01*
X165011258Y-148451000D01*
X165188742Y-148451000D01*
X165213512Y-148455927D01*
G37*
G36*
X170293512Y-148455927D02*
G01*
X170442812Y-148485624D01*
X170606784Y-148553544D01*
X170754354Y-148652147D01*
X170879853Y-148777646D01*
X170978456Y-148925216D01*
X171046376Y-149089188D01*
X171081000Y-149263259D01*
X171081000Y-149440741D01*
X171046376Y-149614812D01*
X170978456Y-149778784D01*
X170879853Y-149926354D01*
X170754354Y-150051853D01*
X170606784Y-150150456D01*
X170442812Y-150218376D01*
X170293512Y-150248073D01*
X170268742Y-150253000D01*
X170091258Y-150253000D01*
X170066488Y-150248073D01*
X169917188Y-150218376D01*
X169753216Y-150150456D01*
X169605646Y-150051853D01*
X169480147Y-149926354D01*
X169381544Y-149778784D01*
X169313624Y-149614812D01*
X169279000Y-149440741D01*
X169279000Y-149263259D01*
X169313624Y-149089188D01*
X169381544Y-148925216D01*
X169480147Y-148777646D01*
X169605646Y-148652147D01*
X169753216Y-148553544D01*
X169917188Y-148485624D01*
X170066488Y-148455927D01*
X170091258Y-148451000D01*
X170268742Y-148451000D01*
X170293512Y-148455927D01*
G37*
G36*
X203313512Y-148455927D02*
G01*
X203462812Y-148485624D01*
X203626784Y-148553544D01*
X203774354Y-148652147D01*
X203899853Y-148777646D01*
X203998456Y-148925216D01*
X204066376Y-149089188D01*
X204101000Y-149263259D01*
X204101000Y-149440741D01*
X204066376Y-149614812D01*
X203998456Y-149778784D01*
X203899853Y-149926354D01*
X203774354Y-150051853D01*
X203626784Y-150150456D01*
X203462812Y-150218376D01*
X203313512Y-150248073D01*
X203288742Y-150253000D01*
X203111258Y-150253000D01*
X203086488Y-150248073D01*
X202937188Y-150218376D01*
X202773216Y-150150456D01*
X202625646Y-150051853D01*
X202500147Y-149926354D01*
X202401544Y-149778784D01*
X202333624Y-149614812D01*
X202299000Y-149440741D01*
X202299000Y-149263259D01*
X202333624Y-149089188D01*
X202401544Y-148925216D01*
X202500147Y-148777646D01*
X202625646Y-148652147D01*
X202773216Y-148553544D01*
X202937188Y-148485624D01*
X203086488Y-148455927D01*
X203111258Y-148451000D01*
X203288742Y-148451000D01*
X203313512Y-148455927D01*
G37*
G36*
X200773512Y-148455927D02*
G01*
X200922812Y-148485624D01*
X201086784Y-148553544D01*
X201234354Y-148652147D01*
X201359853Y-148777646D01*
X201458456Y-148925216D01*
X201526376Y-149089188D01*
X201561000Y-149263259D01*
X201561000Y-149440741D01*
X201526376Y-149614812D01*
X201458456Y-149778784D01*
X201359853Y-149926354D01*
X201234354Y-150051853D01*
X201086784Y-150150456D01*
X200922812Y-150218376D01*
X200773512Y-150248073D01*
X200748742Y-150253000D01*
X200571258Y-150253000D01*
X200546488Y-150248073D01*
X200397188Y-150218376D01*
X200233216Y-150150456D01*
X200085646Y-150051853D01*
X199960147Y-149926354D01*
X199861544Y-149778784D01*
X199793624Y-149614812D01*
X199759000Y-149440741D01*
X199759000Y-149263259D01*
X199793624Y-149089188D01*
X199861544Y-148925216D01*
X199960147Y-148777646D01*
X200085646Y-148652147D01*
X200233216Y-148553544D01*
X200397188Y-148485624D01*
X200546488Y-148455927D01*
X200571258Y-148451000D01*
X200748742Y-148451000D01*
X200773512Y-148455927D01*
G37*
G36*
X198233512Y-148455927D02*
G01*
X198382812Y-148485624D01*
X198546784Y-148553544D01*
X198694354Y-148652147D01*
X198819853Y-148777646D01*
X198918456Y-148925216D01*
X198986376Y-149089188D01*
X199021000Y-149263259D01*
X199021000Y-149440741D01*
X198986376Y-149614812D01*
X198918456Y-149778784D01*
X198819853Y-149926354D01*
X198694354Y-150051853D01*
X198546784Y-150150456D01*
X198382812Y-150218376D01*
X198233512Y-150248073D01*
X198208742Y-150253000D01*
X198031258Y-150253000D01*
X198006488Y-150248073D01*
X197857188Y-150218376D01*
X197693216Y-150150456D01*
X197545646Y-150051853D01*
X197420147Y-149926354D01*
X197321544Y-149778784D01*
X197253624Y-149614812D01*
X197219000Y-149440741D01*
X197219000Y-149263259D01*
X197253624Y-149089188D01*
X197321544Y-148925216D01*
X197420147Y-148777646D01*
X197545646Y-148652147D01*
X197693216Y-148553544D01*
X197857188Y-148485624D01*
X198006488Y-148455927D01*
X198031258Y-148451000D01*
X198208742Y-148451000D01*
X198233512Y-148455927D01*
G37*
G36*
X153301000Y-150253000D02*
G01*
X151499000Y-150253000D01*
X151499000Y-148451000D01*
X153301000Y-148451000D01*
X153301000Y-150253000D01*
G37*
G36*
X157593512Y-148455927D02*
G01*
X157742812Y-148485624D01*
X157906784Y-148553544D01*
X158054354Y-148652147D01*
X158179853Y-148777646D01*
X158278456Y-148925216D01*
X158346376Y-149089188D01*
X158381000Y-149263259D01*
X158381000Y-149440741D01*
X158346376Y-149614812D01*
X158278456Y-149778784D01*
X158179853Y-149926354D01*
X158054354Y-150051853D01*
X157906784Y-150150456D01*
X157742812Y-150218376D01*
X157593512Y-150248073D01*
X157568742Y-150253000D01*
X157391258Y-150253000D01*
X157366488Y-150248073D01*
X157217188Y-150218376D01*
X157053216Y-150150456D01*
X156905646Y-150051853D01*
X156780147Y-149926354D01*
X156681544Y-149778784D01*
X156613624Y-149614812D01*
X156579000Y-149440741D01*
X156579000Y-149263259D01*
X156613624Y-149089188D01*
X156681544Y-148925216D01*
X156780147Y-148777646D01*
X156905646Y-148652147D01*
X157053216Y-148553544D01*
X157217188Y-148485624D01*
X157366488Y-148455927D01*
X157391258Y-148451000D01*
X157568742Y-148451000D01*
X157593512Y-148455927D01*
G37*
G36*
X160133512Y-148455927D02*
G01*
X160282812Y-148485624D01*
X160446784Y-148553544D01*
X160594354Y-148652147D01*
X160719853Y-148777646D01*
X160818456Y-148925216D01*
X160886376Y-149089188D01*
X160921000Y-149263259D01*
X160921000Y-149440741D01*
X160886376Y-149614812D01*
X160818456Y-149778784D01*
X160719853Y-149926354D01*
X160594354Y-150051853D01*
X160446784Y-150150456D01*
X160282812Y-150218376D01*
X160133512Y-150248073D01*
X160108742Y-150253000D01*
X159931258Y-150253000D01*
X159906488Y-150248073D01*
X159757188Y-150218376D01*
X159593216Y-150150456D01*
X159445646Y-150051853D01*
X159320147Y-149926354D01*
X159221544Y-149778784D01*
X159153624Y-149614812D01*
X159119000Y-149440741D01*
X159119000Y-149263259D01*
X159153624Y-149089188D01*
X159221544Y-148925216D01*
X159320147Y-148777646D01*
X159445646Y-148652147D01*
X159593216Y-148553544D01*
X159757188Y-148485624D01*
X159906488Y-148455927D01*
X159931258Y-148451000D01*
X160108742Y-148451000D01*
X160133512Y-148455927D01*
G37*
G36*
X162673512Y-148455927D02*
G01*
X162822812Y-148485624D01*
X162986784Y-148553544D01*
X163134354Y-148652147D01*
X163259853Y-148777646D01*
X163358456Y-148925216D01*
X163426376Y-149089188D01*
X163461000Y-149263259D01*
X163461000Y-149440741D01*
X163426376Y-149614812D01*
X163358456Y-149778784D01*
X163259853Y-149926354D01*
X163134354Y-150051853D01*
X162986784Y-150150456D01*
X162822812Y-150218376D01*
X162673512Y-150248073D01*
X162648742Y-150253000D01*
X162471258Y-150253000D01*
X162446488Y-150248073D01*
X162297188Y-150218376D01*
X162133216Y-150150456D01*
X161985646Y-150051853D01*
X161860147Y-149926354D01*
X161761544Y-149778784D01*
X161693624Y-149614812D01*
X161659000Y-149440741D01*
X161659000Y-149263259D01*
X161693624Y-149089188D01*
X161761544Y-148925216D01*
X161860147Y-148777646D01*
X161985646Y-148652147D01*
X162133216Y-148553544D01*
X162297188Y-148485624D01*
X162446488Y-148455927D01*
X162471258Y-148451000D01*
X162648742Y-148451000D01*
X162673512Y-148455927D01*
G37*
G36*
X155053512Y-148455927D02*
G01*
X155202812Y-148485624D01*
X155366784Y-148553544D01*
X155514354Y-148652147D01*
X155639853Y-148777646D01*
X155738456Y-148925216D01*
X155806376Y-149089188D01*
X155841000Y-149263259D01*
X155841000Y-149440741D01*
X155806376Y-149614812D01*
X155738456Y-149778784D01*
X155639853Y-149926354D01*
X155514354Y-150051853D01*
X155366784Y-150150456D01*
X155202812Y-150218376D01*
X155053512Y-150248073D01*
X155028742Y-150253000D01*
X154851258Y-150253000D01*
X154826488Y-150248073D01*
X154677188Y-150218376D01*
X154513216Y-150150456D01*
X154365646Y-150051853D01*
X154240147Y-149926354D01*
X154141544Y-149778784D01*
X154073624Y-149614812D01*
X154039000Y-149440741D01*
X154039000Y-149263259D01*
X154073624Y-149089188D01*
X154141544Y-148925216D01*
X154240147Y-148777646D01*
X154365646Y-148652147D01*
X154513216Y-148553544D01*
X154677188Y-148485624D01*
X154826488Y-148455927D01*
X154851258Y-148451000D01*
X155028742Y-148451000D01*
X155053512Y-148455927D01*
G37*
G36*
X146185200Y-149745800D02*
G01*
X143183200Y-149745800D01*
X143183200Y-148043800D01*
X146185200Y-148043800D01*
X146185200Y-149745800D01*
G37*
G36*
X150085200Y-149745800D02*
G01*
X147083200Y-149745800D01*
X147083200Y-148043800D01*
X150085200Y-148043800D01*
X150085200Y-149745800D01*
G37*
G36*
X145891600Y-145710400D02*
G01*
X144889600Y-145710400D01*
X144889600Y-144408400D01*
X145891600Y-144408400D01*
X145891600Y-145710400D01*
G37*
G36*
X149191600Y-145710400D02*
G01*
X148189600Y-145710400D01*
X148189600Y-144408400D01*
X149191600Y-144408400D01*
X149191600Y-145710400D01*
G37*
G36*
X190773000Y-145456000D02*
G01*
X189171000Y-145456000D01*
X189171000Y-144104000D01*
X190773000Y-144104000D01*
X190773000Y-145456000D01*
G37*
G36*
X188273000Y-145456000D02*
G01*
X186671000Y-145456000D01*
X186671000Y-144104000D01*
X188273000Y-144104000D01*
X188273000Y-145456000D01*
G37*
G36*
X156129000Y-145425000D02*
G01*
X152227000Y-145425000D01*
X152227000Y-143323000D01*
X156129000Y-143323000D01*
X156129000Y-145425000D01*
G37*
G36*
X161125000Y-144510000D02*
G01*
X159423000Y-144510000D01*
X159423000Y-142208000D01*
X161125000Y-142208000D01*
X161125000Y-144510000D01*
G37*
G36*
X207403000Y-144157000D02*
G01*
X205601000Y-144157000D01*
X205601000Y-142355000D01*
X207403000Y-142355000D01*
X207403000Y-144157000D01*
G37*
G36*
X198449000Y-144006000D02*
G01*
X197347000Y-144006000D01*
X197347000Y-141154000D01*
X198449000Y-141154000D01*
X198449000Y-144006000D01*
G37*
G36*
X202449000Y-144006000D02*
G01*
X201347000Y-144006000D01*
X201347000Y-141154000D01*
X202449000Y-141154000D01*
X202449000Y-144006000D01*
G37*
G36*
X170961000Y-143424000D02*
G01*
X169359000Y-143424000D01*
X169359000Y-142072000D01*
X170961000Y-142072000D01*
X170961000Y-143424000D01*
G37*
G36*
X168461000Y-143424000D02*
G01*
X166859000Y-143424000D01*
X166859000Y-142072000D01*
X168461000Y-142072000D01*
X168461000Y-143424000D01*
G37*
G36*
X180896304Y-142700202D02*
G01*
X180931400Y-142703658D01*
X180950346Y-142709406D01*
X180969290Y-142715152D01*
X181004209Y-142733816D01*
X181034816Y-142758934D01*
X181045379Y-142771805D01*
X181062701Y-142789127D01*
X181083075Y-142802741D01*
X181105714Y-142812118D01*
X181129747Y-142816899D01*
X181154251Y-142816899D01*
X181178284Y-142812119D01*
X181200923Y-142802742D01*
X181221298Y-142789128D01*
X181238625Y-142771801D01*
X181249184Y-142758934D01*
X181279790Y-142733816D01*
X181314709Y-142715152D01*
X181333653Y-142709405D01*
X181352599Y-142703658D01*
X181391999Y-142699778D01*
X181392000Y-142699778D01*
X181396304Y-142700202D01*
X181431400Y-142703658D01*
X181450346Y-142709406D01*
X181469290Y-142715152D01*
X181504209Y-142733816D01*
X181534816Y-142758934D01*
X181545379Y-142771805D01*
X181562701Y-142789127D01*
X181583075Y-142802741D01*
X181605714Y-142812118D01*
X181629747Y-142816899D01*
X181654251Y-142816899D01*
X181678284Y-142812119D01*
X181700923Y-142802742D01*
X181721298Y-142789128D01*
X181738625Y-142771801D01*
X181749184Y-142758934D01*
X181779790Y-142733816D01*
X181814709Y-142715152D01*
X181833653Y-142709405D01*
X181852599Y-142703658D01*
X181891999Y-142699778D01*
X181892000Y-142699778D01*
X181896304Y-142700202D01*
X181931400Y-142703658D01*
X181950346Y-142709406D01*
X181969290Y-142715152D01*
X182004209Y-142733816D01*
X182034816Y-142758934D01*
X182045379Y-142771805D01*
X182062702Y-142789128D01*
X182083077Y-142802742D01*
X182105715Y-142812120D01*
X182129749Y-142816900D01*
X182154253Y-142816900D01*
X182178286Y-142812120D01*
X182200925Y-142802742D01*
X182221299Y-142789129D01*
X182238622Y-142771805D01*
X182249184Y-142758935D01*
X182279790Y-142733817D01*
X182314709Y-142715153D01*
X182333653Y-142709407D01*
X182352599Y-142703659D01*
X182391999Y-142699779D01*
X182392000Y-142699779D01*
X182396304Y-142700203D01*
X182431400Y-142703659D01*
X182450346Y-142709407D01*
X182469290Y-142715153D01*
X182504209Y-142733817D01*
X182534816Y-142758935D01*
X182545379Y-142771806D01*
X182562701Y-142789128D01*
X182583075Y-142802742D01*
X182605714Y-142812119D01*
X182629747Y-142816900D01*
X182654251Y-142816900D01*
X182678284Y-142812120D01*
X182700923Y-142802743D01*
X182721298Y-142789129D01*
X182738618Y-142771809D01*
X182749184Y-142758934D01*
X182779790Y-142733816D01*
X182814709Y-142715152D01*
X182833653Y-142709405D01*
X182852599Y-142703658D01*
X182891999Y-142699778D01*
X182892000Y-142699778D01*
X182896304Y-142700202D01*
X182931400Y-142703658D01*
X182950346Y-142709406D01*
X182969290Y-142715152D01*
X183004209Y-142733816D01*
X183034816Y-142758934D01*
X183045379Y-142771805D01*
X183062701Y-142789127D01*
X183083075Y-142802741D01*
X183105714Y-142812118D01*
X183129747Y-142816899D01*
X183154251Y-142816899D01*
X183178284Y-142812119D01*
X183200923Y-142802742D01*
X183221298Y-142789128D01*
X183238625Y-142771801D01*
X183249184Y-142758934D01*
X183279790Y-142733816D01*
X183314709Y-142715152D01*
X183333653Y-142709405D01*
X183352599Y-142703658D01*
X183391999Y-142699778D01*
X183392000Y-142699778D01*
X183396304Y-142700202D01*
X183431400Y-142703658D01*
X183450346Y-142709406D01*
X183469290Y-142715152D01*
X183504209Y-142733816D01*
X183534816Y-142758934D01*
X183545379Y-142771805D01*
X183562701Y-142789127D01*
X183583075Y-142802741D01*
X183605714Y-142812118D01*
X183629747Y-142816899D01*
X183654251Y-142816899D01*
X183678284Y-142812119D01*
X183700923Y-142802742D01*
X183721298Y-142789128D01*
X183738625Y-142771801D01*
X183749184Y-142758934D01*
X183779790Y-142733816D01*
X183814709Y-142715152D01*
X183833653Y-142709405D01*
X183852599Y-142703658D01*
X183891999Y-142699778D01*
X183892000Y-142699778D01*
X183896304Y-142700202D01*
X183931400Y-142703658D01*
X183950346Y-142709406D01*
X183969290Y-142715152D01*
X184004209Y-142733816D01*
X184034816Y-142758934D01*
X184045379Y-142771805D01*
X184062701Y-142789127D01*
X184083075Y-142802741D01*
X184105714Y-142812118D01*
X184129747Y-142816899D01*
X184154251Y-142816899D01*
X184178284Y-142812119D01*
X184200923Y-142802742D01*
X184221298Y-142789128D01*
X184238625Y-142771801D01*
X184249184Y-142758934D01*
X184279790Y-142733816D01*
X184314709Y-142715152D01*
X184333653Y-142709405D01*
X184352599Y-142703658D01*
X184391999Y-142699778D01*
X184392000Y-142699778D01*
X184396304Y-142700202D01*
X184431400Y-142703658D01*
X184450346Y-142709406D01*
X184469290Y-142715152D01*
X184504209Y-142733816D01*
X184534816Y-142758934D01*
X184545379Y-142771805D01*
X184562702Y-142789128D01*
X184583077Y-142802742D01*
X184605715Y-142812120D01*
X184629749Y-142816900D01*
X184654253Y-142816900D01*
X184678286Y-142812120D01*
X184700925Y-142802742D01*
X184721299Y-142789129D01*
X184738622Y-142771805D01*
X184749184Y-142758935D01*
X184779790Y-142733817D01*
X184814709Y-142715153D01*
X184833653Y-142709407D01*
X184852599Y-142703659D01*
X184891999Y-142699779D01*
X184892000Y-142699779D01*
X184896304Y-142700203D01*
X184931400Y-142703659D01*
X184950346Y-142709407D01*
X184969290Y-142715153D01*
X185004209Y-142733817D01*
X185034816Y-142758935D01*
X185045379Y-142771806D01*
X185062701Y-142789128D01*
X185083075Y-142802742D01*
X185105714Y-142812119D01*
X185129747Y-142816900D01*
X185154251Y-142816900D01*
X185178284Y-142812120D01*
X185200923Y-142802743D01*
X185221298Y-142789129D01*
X185238618Y-142771809D01*
X185249184Y-142758934D01*
X185279790Y-142733816D01*
X185314709Y-142715152D01*
X185333653Y-142709405D01*
X185352599Y-142703658D01*
X185391999Y-142699778D01*
X185392000Y-142699778D01*
X185396304Y-142700202D01*
X185431400Y-142703658D01*
X185450346Y-142709406D01*
X185469290Y-142715152D01*
X185504209Y-142733816D01*
X185534816Y-142758934D01*
X185545379Y-142771805D01*
X185562701Y-142789127D01*
X185583075Y-142802741D01*
X185605714Y-142812118D01*
X185629747Y-142816899D01*
X185654251Y-142816899D01*
X185678284Y-142812119D01*
X185700923Y-142802742D01*
X185721298Y-142789128D01*
X185738625Y-142771801D01*
X185749184Y-142758934D01*
X185779790Y-142733816D01*
X185814709Y-142715152D01*
X185833653Y-142709405D01*
X185852599Y-142703658D01*
X185891999Y-142699778D01*
X185892000Y-142699778D01*
X185896304Y-142700202D01*
X185931400Y-142703658D01*
X185950346Y-142709406D01*
X185969290Y-142715152D01*
X186004209Y-142733816D01*
X186034816Y-142758934D01*
X186045379Y-142771805D01*
X186062701Y-142789127D01*
X186083075Y-142802741D01*
X186105714Y-142812118D01*
X186129747Y-142816899D01*
X186154251Y-142816899D01*
X186178284Y-142812119D01*
X186200923Y-142802742D01*
X186221298Y-142789128D01*
X186238625Y-142771801D01*
X186249184Y-142758934D01*
X186279790Y-142733816D01*
X186314709Y-142715152D01*
X186333653Y-142709405D01*
X186352599Y-142703658D01*
X186391999Y-142699778D01*
X186392000Y-142699778D01*
X186396304Y-142700202D01*
X186431400Y-142703658D01*
X186450346Y-142709406D01*
X186469290Y-142715152D01*
X186504209Y-142733816D01*
X186534816Y-142758934D01*
X186559934Y-142789540D01*
X186578598Y-142824459D01*
X186584345Y-142843403D01*
X186590092Y-142862349D01*
X186593000Y-142891876D01*
X186593000Y-143211624D01*
X186590092Y-143241151D01*
X186590091Y-143241153D01*
X186578598Y-143279041D01*
X186559934Y-143313960D01*
X186534816Y-143344566D01*
X186504210Y-143369684D01*
X186469291Y-143388348D01*
X186450347Y-143394095D01*
X186431401Y-143399842D01*
X186392001Y-143403722D01*
X186392000Y-143403722D01*
X186387696Y-143403298D01*
X186352600Y-143399842D01*
X186333654Y-143394094D01*
X186314710Y-143388348D01*
X186279791Y-143369684D01*
X186249185Y-143344566D01*
X186238617Y-143331689D01*
X186221302Y-143314374D01*
X186200928Y-143300759D01*
X186178290Y-143291381D01*
X186154257Y-143286600D01*
X186129753Y-143286600D01*
X186105719Y-143291379D01*
X186083080Y-143300756D01*
X186062705Y-143314369D01*
X186045379Y-143331695D01*
X186034816Y-143344566D01*
X186004210Y-143369684D01*
X185969291Y-143388348D01*
X185950347Y-143394095D01*
X185931401Y-143399842D01*
X185892001Y-143403722D01*
X185892000Y-143403722D01*
X185887696Y-143403298D01*
X185852600Y-143399842D01*
X185833654Y-143394094D01*
X185814710Y-143388348D01*
X185779791Y-143369684D01*
X185749185Y-143344566D01*
X185738617Y-143331689D01*
X185721302Y-143314374D01*
X185700928Y-143300759D01*
X185678290Y-143291381D01*
X185654257Y-143286600D01*
X185629753Y-143286600D01*
X185605719Y-143291379D01*
X185583080Y-143300756D01*
X185562705Y-143314369D01*
X185545379Y-143331695D01*
X185534816Y-143344566D01*
X185504210Y-143369684D01*
X185469291Y-143388348D01*
X185450347Y-143394095D01*
X185431401Y-143399842D01*
X185392001Y-143403722D01*
X185392000Y-143403722D01*
X185387696Y-143403298D01*
X185352600Y-143399842D01*
X185333654Y-143394094D01*
X185314710Y-143388348D01*
X185279791Y-143369684D01*
X185249185Y-143344566D01*
X185238622Y-143331695D01*
X185221300Y-143314373D01*
X185200926Y-143300759D01*
X185178287Y-143291382D01*
X185154254Y-143286601D01*
X185129750Y-143286601D01*
X185105717Y-143291381D01*
X185083078Y-143300758D01*
X185062703Y-143314372D01*
X185045379Y-143331696D01*
X185034816Y-143344567D01*
X185004210Y-143369685D01*
X184969291Y-143388349D01*
X184950347Y-143394096D01*
X184931401Y-143399843D01*
X184892001Y-143403723D01*
X184892000Y-143403723D01*
X184887696Y-143403299D01*
X184852600Y-143399843D01*
X184833654Y-143394096D01*
X184814710Y-143388349D01*
X184779791Y-143369685D01*
X184749185Y-143344567D01*
X184738622Y-143331696D01*
X184721299Y-143314373D01*
X184700924Y-143300759D01*
X184678286Y-143291381D01*
X184654252Y-143286601D01*
X184629748Y-143286601D01*
X184605715Y-143291381D01*
X184583076Y-143300759D01*
X184562702Y-143314372D01*
X184545379Y-143331695D01*
X184534816Y-143344566D01*
X184504210Y-143369684D01*
X184469291Y-143388348D01*
X184450347Y-143394095D01*
X184431401Y-143399842D01*
X184392001Y-143403722D01*
X184392000Y-143403722D01*
X184387696Y-143403298D01*
X184352600Y-143399842D01*
X184333654Y-143394094D01*
X184314710Y-143388348D01*
X184279791Y-143369684D01*
X184249185Y-143344566D01*
X184238617Y-143331689D01*
X184221302Y-143314374D01*
X184200928Y-143300759D01*
X184178290Y-143291381D01*
X184154257Y-143286600D01*
X184129753Y-143286600D01*
X184105719Y-143291379D01*
X184083080Y-143300756D01*
X184062705Y-143314369D01*
X184045379Y-143331695D01*
X184034816Y-143344566D01*
X184004210Y-143369684D01*
X183969291Y-143388348D01*
X183950347Y-143394095D01*
X183931401Y-143399842D01*
X183892001Y-143403722D01*
X183892000Y-143403722D01*
X183887696Y-143403298D01*
X183852600Y-143399842D01*
X183833654Y-143394094D01*
X183814710Y-143388348D01*
X183779791Y-143369684D01*
X183749185Y-143344566D01*
X183738617Y-143331689D01*
X183721302Y-143314374D01*
X183700928Y-143300759D01*
X183678290Y-143291381D01*
X183654257Y-143286600D01*
X183629753Y-143286600D01*
X183605719Y-143291379D01*
X183583080Y-143300756D01*
X183562705Y-143314369D01*
X183545379Y-143331695D01*
X183534816Y-143344566D01*
X183504210Y-143369684D01*
X183469291Y-143388348D01*
X183450347Y-143394095D01*
X183431401Y-143399842D01*
X183392001Y-143403722D01*
X183392000Y-143403722D01*
X183387696Y-143403298D01*
X183352600Y-143399842D01*
X183333654Y-143394094D01*
X183314710Y-143388348D01*
X183279791Y-143369684D01*
X183249185Y-143344566D01*
X183238617Y-143331689D01*
X183221302Y-143314374D01*
X183200928Y-143300759D01*
X183178290Y-143291381D01*
X183154257Y-143286600D01*
X183129753Y-143286600D01*
X183105719Y-143291379D01*
X183083080Y-143300756D01*
X183062705Y-143314369D01*
X183045379Y-143331695D01*
X183034816Y-143344566D01*
X183004210Y-143369684D01*
X182969291Y-143388348D01*
X182950347Y-143394095D01*
X182931401Y-143399842D01*
X182892001Y-143403722D01*
X182892000Y-143403722D01*
X182887696Y-143403298D01*
X182852600Y-143399842D01*
X182833654Y-143394094D01*
X182814710Y-143388348D01*
X182779791Y-143369684D01*
X182749185Y-143344566D01*
X182738622Y-143331695D01*
X182721300Y-143314373D01*
X182700926Y-143300759D01*
X182678287Y-143291382D01*
X182654254Y-143286601D01*
X182629750Y-143286601D01*
X182605717Y-143291381D01*
X182583078Y-143300758D01*
X182562703Y-143314372D01*
X182545379Y-143331696D01*
X182534816Y-143344567D01*
X182504210Y-143369685D01*
X182469291Y-143388349D01*
X182450347Y-143394096D01*
X182431401Y-143399843D01*
X182392001Y-143403723D01*
X182392000Y-143403723D01*
X182387696Y-143403299D01*
X182352600Y-143399843D01*
X182333654Y-143394096D01*
X182314710Y-143388349D01*
X182279791Y-143369685D01*
X182249185Y-143344567D01*
X182238622Y-143331696D01*
X182221299Y-143314373D01*
X182200924Y-143300759D01*
X182178286Y-143291381D01*
X182154252Y-143286601D01*
X182129748Y-143286601D01*
X182105715Y-143291381D01*
X182083076Y-143300759D01*
X182062702Y-143314372D01*
X182045379Y-143331695D01*
X182034816Y-143344566D01*
X182004210Y-143369684D01*
X181969291Y-143388348D01*
X181950347Y-143394095D01*
X181931401Y-143399842D01*
X181892001Y-143403722D01*
X181892000Y-143403722D01*
X181887696Y-143403298D01*
X181852600Y-143399842D01*
X181833654Y-143394094D01*
X181814710Y-143388348D01*
X181779791Y-143369684D01*
X181749185Y-143344566D01*
X181738617Y-143331689D01*
X181721302Y-143314374D01*
X181700928Y-143300759D01*
X181678290Y-143291381D01*
X181654257Y-143286600D01*
X181629753Y-143286600D01*
X181605719Y-143291379D01*
X181583080Y-143300756D01*
X181562705Y-143314369D01*
X181545379Y-143331695D01*
X181534816Y-143344566D01*
X181504210Y-143369684D01*
X181469291Y-143388348D01*
X181450347Y-143394095D01*
X181431401Y-143399842D01*
X181392001Y-143403722D01*
X181392000Y-143403722D01*
X181387696Y-143403298D01*
X181352600Y-143399842D01*
X181333654Y-143394094D01*
X181314710Y-143388348D01*
X181279791Y-143369684D01*
X181249185Y-143344566D01*
X181238617Y-143331689D01*
X181221302Y-143314374D01*
X181200928Y-143300759D01*
X181178290Y-143291381D01*
X181154257Y-143286600D01*
X181129753Y-143286600D01*
X181105719Y-143291379D01*
X181083080Y-143300756D01*
X181062705Y-143314369D01*
X181045379Y-143331695D01*
X181034816Y-143344566D01*
X181004210Y-143369684D01*
X180969291Y-143388348D01*
X180950347Y-143394095D01*
X180931401Y-143399842D01*
X180892001Y-143403722D01*
X180892000Y-143403722D01*
X180887696Y-143403298D01*
X180852600Y-143399842D01*
X180833654Y-143394094D01*
X180814710Y-143388348D01*
X180779791Y-143369684D01*
X180749185Y-143344566D01*
X180724067Y-143313960D01*
X180705404Y-143279043D01*
X180705402Y-143279040D01*
X180693908Y-143241151D01*
X180691000Y-143211624D01*
X180691000Y-142891877D01*
X180693908Y-142862350D01*
X180705403Y-142824458D01*
X180724065Y-142789543D01*
X180724066Y-142789541D01*
X180749184Y-142758934D01*
X180779790Y-142733816D01*
X180814709Y-142715152D01*
X180833653Y-142709405D01*
X180852599Y-142703658D01*
X180891999Y-142699778D01*
X180892000Y-142699778D01*
X180896304Y-142700202D01*
G37*
G36*
X177057000Y-143170000D02*
G01*
X175455000Y-143170000D01*
X175455000Y-141818000D01*
X177057000Y-141818000D01*
X177057000Y-143170000D01*
G37*
G36*
X174557000Y-143170000D02*
G01*
X172955000Y-143170000D01*
X172955000Y-141818000D01*
X174557000Y-141818000D01*
X174557000Y-143170000D01*
G37*
G36*
X148779800Y-142887000D02*
G01*
X146977800Y-142887000D01*
X146977800Y-141085000D01*
X148779800Y-141085000D01*
X148779800Y-142887000D01*
G37*
G36*
X145444373Y-141088348D02*
G01*
X145601612Y-141119624D01*
X145765584Y-141187544D01*
X145913154Y-141286147D01*
X146038653Y-141411646D01*
X146137256Y-141559216D01*
X146205176Y-141723188D01*
X146232856Y-141862347D01*
X146239800Y-141897258D01*
X146239800Y-142074742D01*
X146236203Y-142092825D01*
X146205176Y-142248812D01*
X146137256Y-142412784D01*
X146038653Y-142560354D01*
X145913154Y-142685853D01*
X145765584Y-142784456D01*
X145601612Y-142852376D01*
X145452312Y-142882073D01*
X145427542Y-142887000D01*
X145250058Y-142887000D01*
X145225288Y-142882073D01*
X145075988Y-142852376D01*
X144912016Y-142784456D01*
X144764446Y-142685853D01*
X144638947Y-142560354D01*
X144540344Y-142412784D01*
X144472424Y-142248812D01*
X144441397Y-142092825D01*
X144437800Y-142074742D01*
X144437800Y-141897258D01*
X144444744Y-141862347D01*
X144472424Y-141723188D01*
X144540344Y-141559216D01*
X144638947Y-141411646D01*
X144764446Y-141286147D01*
X144912016Y-141187544D01*
X145075988Y-141119624D01*
X145233227Y-141088348D01*
X145250058Y-141085000D01*
X145427542Y-141085000D01*
X145444373Y-141088348D01*
G37*
G36*
X180431401Y-136703658D02*
G01*
X180450347Y-136709406D01*
X180469291Y-136715152D01*
X180504210Y-136733816D01*
X180534816Y-136758934D01*
X180559934Y-136789540D01*
X180577466Y-136822340D01*
X180578597Y-136824457D01*
X180590092Y-136862349D01*
X180593972Y-136901750D01*
X180590092Y-136941151D01*
X180590091Y-136941153D01*
X180578598Y-136979041D01*
X180559934Y-137013960D01*
X180534816Y-137044566D01*
X180521945Y-137055129D01*
X180504623Y-137072451D01*
X180491009Y-137092825D01*
X180481632Y-137115464D01*
X180476851Y-137139497D01*
X180476851Y-137164001D01*
X180481631Y-137188034D01*
X180491008Y-137210673D01*
X180504622Y-137231048D01*
X180521945Y-137248371D01*
X180534816Y-137258934D01*
X180559934Y-137289540D01*
X180578598Y-137324459D01*
X180581123Y-137332784D01*
X180590092Y-137362349D01*
X180593972Y-137401750D01*
X180590092Y-137441151D01*
X180590091Y-137441153D01*
X180578598Y-137479041D01*
X180559934Y-137513960D01*
X180534816Y-137544566D01*
X180521945Y-137555129D01*
X180504623Y-137572451D01*
X180491009Y-137592825D01*
X180481632Y-137615464D01*
X180476851Y-137639497D01*
X180476851Y-137664001D01*
X180481631Y-137688034D01*
X180491008Y-137710673D01*
X180504622Y-137731048D01*
X180521945Y-137748371D01*
X180534816Y-137758934D01*
X180559934Y-137789540D01*
X180569266Y-137807000D01*
X180578597Y-137824457D01*
X180590092Y-137862349D01*
X180593972Y-137901750D01*
X180590092Y-137941151D01*
X180590091Y-137941153D01*
X180578598Y-137979041D01*
X180559934Y-138013960D01*
X180534816Y-138044566D01*
X180521945Y-138055129D01*
X180504623Y-138072451D01*
X180491009Y-138092825D01*
X180481632Y-138115464D01*
X180476851Y-138139497D01*
X180476851Y-138164001D01*
X180481631Y-138188034D01*
X180491008Y-138210673D01*
X180504622Y-138231048D01*
X180521948Y-138248374D01*
X180534815Y-138258934D01*
X180559933Y-138289540D01*
X180577465Y-138322340D01*
X180578596Y-138324457D01*
X180590091Y-138362349D01*
X180593971Y-138401750D01*
X180590091Y-138441151D01*
X180590090Y-138441153D01*
X180578597Y-138479041D01*
X180559933Y-138513960D01*
X180534815Y-138544566D01*
X180534813Y-138544568D01*
X180521948Y-138555126D01*
X180504621Y-138572453D01*
X180491008Y-138592828D01*
X180481631Y-138615467D01*
X180476851Y-138639500D01*
X180476851Y-138664004D01*
X180481632Y-138688037D01*
X180491010Y-138710676D01*
X180504624Y-138731050D01*
X180521945Y-138748371D01*
X180534816Y-138758934D01*
X180559934Y-138789540D01*
X180577466Y-138822340D01*
X180578597Y-138824457D01*
X180590092Y-138862349D01*
X180593972Y-138901750D01*
X180590092Y-138941151D01*
X180590091Y-138941153D01*
X180578598Y-138979041D01*
X180559934Y-139013960D01*
X180534816Y-139044566D01*
X180521945Y-139055129D01*
X180504623Y-139072451D01*
X180491009Y-139092825D01*
X180481632Y-139115464D01*
X180476851Y-139139497D01*
X180476851Y-139164001D01*
X180481631Y-139188034D01*
X180491008Y-139210673D01*
X180504622Y-139231048D01*
X180521945Y-139248371D01*
X180534816Y-139258934D01*
X180559934Y-139289540D01*
X180577466Y-139322340D01*
X180578597Y-139324457D01*
X180590092Y-139362349D01*
X180593972Y-139401750D01*
X180590092Y-139441151D01*
X180590091Y-139441153D01*
X180578598Y-139479041D01*
X180559934Y-139513960D01*
X180534816Y-139544566D01*
X180521945Y-139555129D01*
X180504623Y-139572451D01*
X180491009Y-139592825D01*
X180481632Y-139615464D01*
X180476851Y-139639497D01*
X180476851Y-139664001D01*
X180481631Y-139688034D01*
X180491008Y-139710673D01*
X180504622Y-139731048D01*
X180521945Y-139748371D01*
X180534816Y-139758934D01*
X180559934Y-139789540D01*
X180573542Y-139815000D01*
X180578597Y-139824457D01*
X180590092Y-139862349D01*
X180593972Y-139901750D01*
X180590092Y-139941151D01*
X180590091Y-139941153D01*
X180578598Y-139979041D01*
X180559934Y-140013960D01*
X180534816Y-140044566D01*
X180521945Y-140055129D01*
X180504623Y-140072451D01*
X180491009Y-140092825D01*
X180481632Y-140115464D01*
X180476851Y-140139497D01*
X180476851Y-140164001D01*
X180481631Y-140188034D01*
X180491008Y-140210673D01*
X180504622Y-140231048D01*
X180521945Y-140248371D01*
X180534816Y-140258934D01*
X180559934Y-140289540D01*
X180577466Y-140322340D01*
X180578597Y-140324457D01*
X180590092Y-140362349D01*
X180593972Y-140401750D01*
X180590092Y-140441151D01*
X180590091Y-140441153D01*
X180578598Y-140479041D01*
X180559934Y-140513960D01*
X180534816Y-140544566D01*
X180521945Y-140555129D01*
X180504623Y-140572451D01*
X180491009Y-140592825D01*
X180481632Y-140615464D01*
X180476851Y-140639497D01*
X180476851Y-140664001D01*
X180481631Y-140688034D01*
X180491008Y-140710673D01*
X180504622Y-140731048D01*
X180521948Y-140748374D01*
X180534815Y-140758934D01*
X180559933Y-140789540D01*
X180568058Y-140804742D01*
X180578596Y-140824457D01*
X180590091Y-140862349D01*
X180593971Y-140901750D01*
X180590091Y-140941151D01*
X180590090Y-140941153D01*
X180578597Y-140979041D01*
X180559933Y-141013960D01*
X180534815Y-141044566D01*
X180534813Y-141044568D01*
X180521948Y-141055126D01*
X180504621Y-141072453D01*
X180491008Y-141092828D01*
X180481631Y-141115467D01*
X180476851Y-141139500D01*
X180476851Y-141164004D01*
X180481632Y-141188037D01*
X180491010Y-141210676D01*
X180504624Y-141231050D01*
X180521945Y-141248371D01*
X180534816Y-141258934D01*
X180559934Y-141289540D01*
X180577466Y-141322340D01*
X180578597Y-141324457D01*
X180590092Y-141362349D01*
X180593972Y-141401750D01*
X180590092Y-141441151D01*
X180590091Y-141441153D01*
X180578598Y-141479041D01*
X180559934Y-141513960D01*
X180534816Y-141544566D01*
X180521945Y-141555129D01*
X180504623Y-141572451D01*
X180491009Y-141592825D01*
X180481632Y-141615464D01*
X180476851Y-141639497D01*
X180476851Y-141664001D01*
X180481631Y-141688034D01*
X180491008Y-141710673D01*
X180504622Y-141731048D01*
X180521945Y-141748371D01*
X180534816Y-141758934D01*
X180559934Y-141789540D01*
X180575146Y-141818000D01*
X180578597Y-141824457D01*
X180590092Y-141862349D01*
X180593972Y-141901750D01*
X180590092Y-141941151D01*
X180590091Y-141941153D01*
X180578598Y-141979041D01*
X180559934Y-142013960D01*
X180534816Y-142044566D01*
X180521945Y-142055129D01*
X180504623Y-142072451D01*
X180491009Y-142092825D01*
X180481632Y-142115464D01*
X180476851Y-142139497D01*
X180476851Y-142164001D01*
X180481631Y-142188034D01*
X180491008Y-142210673D01*
X180504622Y-142231048D01*
X180521945Y-142248371D01*
X180534816Y-142258934D01*
X180559934Y-142289540D01*
X180577466Y-142322340D01*
X180578597Y-142324457D01*
X180590092Y-142362349D01*
X180593972Y-142401750D01*
X180590092Y-142441151D01*
X180590091Y-142441153D01*
X180578598Y-142479041D01*
X180559934Y-142513960D01*
X180534816Y-142544566D01*
X180504210Y-142569684D01*
X180469291Y-142588348D01*
X180450347Y-142594095D01*
X180431401Y-142599842D01*
X180401874Y-142602750D01*
X180082126Y-142602750D01*
X180052599Y-142599842D01*
X180033653Y-142594095D01*
X180014709Y-142588348D01*
X179979790Y-142569684D01*
X179949184Y-142544566D01*
X179924066Y-142513960D01*
X179905402Y-142479041D01*
X179893909Y-142441153D01*
X179893908Y-142441151D01*
X179890028Y-142401750D01*
X179893908Y-142362349D01*
X179905403Y-142324457D01*
X179906534Y-142322340D01*
X179924066Y-142289540D01*
X179949184Y-142258934D01*
X179962055Y-142248371D01*
X179979377Y-142231049D01*
X179992991Y-142210675D01*
X180002368Y-142188036D01*
X180007149Y-142164003D01*
X180007149Y-142139499D01*
X180002369Y-142115466D01*
X179992992Y-142092827D01*
X179979378Y-142072452D01*
X179962055Y-142055129D01*
X179949184Y-142044566D01*
X179924066Y-142013960D01*
X179905402Y-141979041D01*
X179893909Y-141941153D01*
X179893908Y-141941151D01*
X179890028Y-141901750D01*
X179893908Y-141862349D01*
X179905403Y-141824457D01*
X179908854Y-141818000D01*
X179924066Y-141789540D01*
X179949184Y-141758934D01*
X179962055Y-141748371D01*
X179979377Y-141731049D01*
X179992991Y-141710675D01*
X180002368Y-141688036D01*
X180007149Y-141664003D01*
X180007149Y-141639499D01*
X180002369Y-141615466D01*
X179992992Y-141592827D01*
X179979378Y-141572452D01*
X179962055Y-141555129D01*
X179949184Y-141544566D01*
X179924066Y-141513960D01*
X179905402Y-141479041D01*
X179893909Y-141441153D01*
X179893908Y-141441151D01*
X179890028Y-141401750D01*
X179893908Y-141362349D01*
X179905403Y-141324457D01*
X179906534Y-141322340D01*
X179924066Y-141289540D01*
X179949184Y-141258934D01*
X179962051Y-141248374D01*
X179979378Y-141231047D01*
X179992991Y-141210672D01*
X180002368Y-141188033D01*
X180007148Y-141164000D01*
X180007148Y-141139496D01*
X180002367Y-141115463D01*
X179992989Y-141092824D01*
X179979375Y-141072450D01*
X179962054Y-141055129D01*
X179949183Y-141044566D01*
X179924065Y-141013960D01*
X179905401Y-140979041D01*
X179893908Y-140941153D01*
X179893907Y-140941151D01*
X179890027Y-140901750D01*
X179893907Y-140862349D01*
X179905402Y-140824457D01*
X179915940Y-140804742D01*
X179924065Y-140789540D01*
X179949183Y-140758934D01*
X179962054Y-140748371D01*
X179979376Y-140731049D01*
X179992990Y-140710675D01*
X180002367Y-140688036D01*
X180007148Y-140664003D01*
X180007148Y-140639499D01*
X180002368Y-140615466D01*
X179992991Y-140592827D01*
X179979377Y-140572452D01*
X179962051Y-140555126D01*
X179949186Y-140544568D01*
X179949184Y-140544566D01*
X179924066Y-140513960D01*
X179905402Y-140479041D01*
X179893909Y-140441153D01*
X179893908Y-140441151D01*
X179890028Y-140401750D01*
X179893908Y-140362349D01*
X179905403Y-140324457D01*
X179906534Y-140322340D01*
X179924066Y-140289540D01*
X179949184Y-140258934D01*
X179962055Y-140248371D01*
X179979377Y-140231049D01*
X179992991Y-140210675D01*
X180002368Y-140188036D01*
X180007149Y-140164003D01*
X180007149Y-140139499D01*
X180002369Y-140115466D01*
X179992992Y-140092827D01*
X179979378Y-140072452D01*
X179962055Y-140055129D01*
X179949184Y-140044566D01*
X179924066Y-140013960D01*
X179905402Y-139979041D01*
X179893909Y-139941153D01*
X179893908Y-139941151D01*
X179890028Y-139901750D01*
X179893908Y-139862349D01*
X179905403Y-139824457D01*
X179910458Y-139815000D01*
X179924066Y-139789540D01*
X179949184Y-139758934D01*
X179962055Y-139748371D01*
X179979377Y-139731049D01*
X179992991Y-139710675D01*
X180002368Y-139688036D01*
X180007149Y-139664003D01*
X180007149Y-139639499D01*
X180002369Y-139615466D01*
X179992992Y-139592827D01*
X179979378Y-139572452D01*
X179962055Y-139555129D01*
X179949184Y-139544566D01*
X179924066Y-139513960D01*
X179905402Y-139479041D01*
X179893909Y-139441153D01*
X179893908Y-139441151D01*
X179890028Y-139401750D01*
X179893908Y-139362349D01*
X179905403Y-139324457D01*
X179906534Y-139322340D01*
X179924066Y-139289540D01*
X179949184Y-139258934D01*
X179962055Y-139248371D01*
X179979377Y-139231049D01*
X179992991Y-139210675D01*
X180002368Y-139188036D01*
X180007149Y-139164003D01*
X180007149Y-139139499D01*
X180002369Y-139115466D01*
X179992992Y-139092827D01*
X179979378Y-139072452D01*
X179962055Y-139055129D01*
X179949184Y-139044566D01*
X179924066Y-139013960D01*
X179905402Y-138979041D01*
X179893909Y-138941153D01*
X179893908Y-138941151D01*
X179890028Y-138901750D01*
X179893908Y-138862349D01*
X179905403Y-138824457D01*
X179906534Y-138822340D01*
X179924066Y-138789540D01*
X179949184Y-138758934D01*
X179959639Y-138750354D01*
X179962051Y-138748374D01*
X179979378Y-138731047D01*
X179992991Y-138710672D01*
X180002368Y-138688033D01*
X180007148Y-138664000D01*
X180007148Y-138639496D01*
X180002367Y-138615463D01*
X179992989Y-138592824D01*
X179979375Y-138572450D01*
X179962054Y-138555129D01*
X179949183Y-138544566D01*
X179924065Y-138513960D01*
X179905401Y-138479041D01*
X179893908Y-138441153D01*
X179893907Y-138441151D01*
X179890027Y-138401750D01*
X179893907Y-138362349D01*
X179905402Y-138324457D01*
X179906533Y-138322340D01*
X179924065Y-138289540D01*
X179949183Y-138258934D01*
X179962054Y-138248371D01*
X179979376Y-138231049D01*
X179992990Y-138210675D01*
X180002367Y-138188036D01*
X180007148Y-138164003D01*
X180007148Y-138139499D01*
X180002368Y-138115466D01*
X179992991Y-138092827D01*
X179979377Y-138072452D01*
X179962051Y-138055126D01*
X179949186Y-138044568D01*
X179949184Y-138044566D01*
X179924066Y-138013960D01*
X179905402Y-137979041D01*
X179893909Y-137941153D01*
X179893908Y-137941151D01*
X179890028Y-137901750D01*
X179893908Y-137862349D01*
X179905403Y-137824457D01*
X179914734Y-137807000D01*
X179924066Y-137789540D01*
X179949184Y-137758934D01*
X179962055Y-137748371D01*
X179979377Y-137731049D01*
X179992991Y-137710675D01*
X180002368Y-137688036D01*
X180007149Y-137664003D01*
X180007149Y-137639499D01*
X180002369Y-137615466D01*
X179992992Y-137592827D01*
X179979378Y-137572452D01*
X179962055Y-137555129D01*
X179949184Y-137544566D01*
X179924066Y-137513960D01*
X179905402Y-137479041D01*
X179893909Y-137441153D01*
X179893908Y-137441151D01*
X179890028Y-137401750D01*
X179893908Y-137362349D01*
X179902877Y-137332784D01*
X179905402Y-137324459D01*
X179924066Y-137289540D01*
X179949184Y-137258934D01*
X179962055Y-137248371D01*
X179979377Y-137231049D01*
X179992991Y-137210675D01*
X180002368Y-137188036D01*
X180007149Y-137164003D01*
X180007149Y-137139499D01*
X180002369Y-137115466D01*
X179992992Y-137092827D01*
X179979378Y-137072452D01*
X179962055Y-137055129D01*
X179949184Y-137044566D01*
X179924066Y-137013960D01*
X179905402Y-136979041D01*
X179893909Y-136941153D01*
X179893908Y-136941151D01*
X179890028Y-136901750D01*
X179893908Y-136862349D01*
X179905403Y-136824457D01*
X179906534Y-136822340D01*
X179924066Y-136789540D01*
X179949184Y-136758934D01*
X179979790Y-136733816D01*
X180014709Y-136715152D01*
X180033653Y-136709405D01*
X180052599Y-136703658D01*
X180082126Y-136700750D01*
X180401874Y-136700750D01*
X180431401Y-136703658D01*
G37*
G36*
X187231401Y-136703658D02*
G01*
X187250347Y-136709406D01*
X187269291Y-136715152D01*
X187304210Y-136733816D01*
X187334816Y-136758934D01*
X187359934Y-136789540D01*
X187377466Y-136822340D01*
X187378597Y-136824457D01*
X187390092Y-136862349D01*
X187393972Y-136901750D01*
X187390092Y-136941151D01*
X187390091Y-136941153D01*
X187378598Y-136979041D01*
X187359934Y-137013960D01*
X187334816Y-137044566D01*
X187321945Y-137055129D01*
X187304623Y-137072451D01*
X187291009Y-137092825D01*
X187281632Y-137115464D01*
X187276851Y-137139497D01*
X187276851Y-137164001D01*
X187281631Y-137188034D01*
X187291008Y-137210673D01*
X187304622Y-137231048D01*
X187321945Y-137248371D01*
X187334816Y-137258934D01*
X187359934Y-137289540D01*
X187378598Y-137324459D01*
X187381123Y-137332784D01*
X187390092Y-137362349D01*
X187393972Y-137401750D01*
X187390092Y-137441151D01*
X187390091Y-137441153D01*
X187378598Y-137479041D01*
X187359934Y-137513960D01*
X187334816Y-137544566D01*
X187321945Y-137555129D01*
X187304623Y-137572451D01*
X187291009Y-137592825D01*
X187281632Y-137615464D01*
X187276851Y-137639497D01*
X187276851Y-137664001D01*
X187281631Y-137688034D01*
X187291008Y-137710673D01*
X187304622Y-137731048D01*
X187321945Y-137748371D01*
X187334816Y-137758934D01*
X187359934Y-137789540D01*
X187369266Y-137807000D01*
X187378597Y-137824457D01*
X187390092Y-137862349D01*
X187393972Y-137901750D01*
X187390092Y-137941151D01*
X187390091Y-137941153D01*
X187378598Y-137979041D01*
X187359934Y-138013960D01*
X187334816Y-138044566D01*
X187334814Y-138044568D01*
X187321949Y-138055126D01*
X187304622Y-138072453D01*
X187291009Y-138092828D01*
X187281632Y-138115467D01*
X187276852Y-138139500D01*
X187276852Y-138164004D01*
X187281633Y-138188037D01*
X187291011Y-138210676D01*
X187304625Y-138231050D01*
X187321946Y-138248371D01*
X187334817Y-138258934D01*
X187359935Y-138289540D01*
X187377467Y-138322340D01*
X187378598Y-138324457D01*
X187390093Y-138362349D01*
X187393973Y-138401750D01*
X187390093Y-138441151D01*
X187390092Y-138441153D01*
X187378599Y-138479041D01*
X187359935Y-138513960D01*
X187334817Y-138544566D01*
X187321946Y-138555129D01*
X187304624Y-138572451D01*
X187291010Y-138592825D01*
X187281633Y-138615464D01*
X187276852Y-138639497D01*
X187276852Y-138664001D01*
X187281632Y-138688034D01*
X187291009Y-138710673D01*
X187304623Y-138731048D01*
X187321949Y-138748374D01*
X187324362Y-138750354D01*
X187334816Y-138758934D01*
X187359934Y-138789540D01*
X187377466Y-138822340D01*
X187378597Y-138824457D01*
X187390092Y-138862349D01*
X187393972Y-138901750D01*
X187390092Y-138941151D01*
X187390091Y-138941153D01*
X187378598Y-138979041D01*
X187359934Y-139013960D01*
X187334816Y-139044566D01*
X187321945Y-139055129D01*
X187304623Y-139072451D01*
X187291009Y-139092825D01*
X187281632Y-139115464D01*
X187276851Y-139139497D01*
X187276851Y-139164001D01*
X187281631Y-139188034D01*
X187291008Y-139210673D01*
X187304622Y-139231048D01*
X187321945Y-139248371D01*
X187334816Y-139258934D01*
X187359934Y-139289540D01*
X187377466Y-139322340D01*
X187378597Y-139324457D01*
X187390092Y-139362349D01*
X187393972Y-139401750D01*
X187390092Y-139441151D01*
X187390091Y-139441153D01*
X187378598Y-139479041D01*
X187359934Y-139513960D01*
X187334816Y-139544566D01*
X187321945Y-139555129D01*
X187304623Y-139572451D01*
X187291009Y-139592825D01*
X187281632Y-139615464D01*
X187276851Y-139639497D01*
X187276851Y-139664001D01*
X187281631Y-139688034D01*
X187291008Y-139710673D01*
X187304622Y-139731048D01*
X187321945Y-139748371D01*
X187334816Y-139758934D01*
X187359934Y-139789540D01*
X187373542Y-139815000D01*
X187378597Y-139824457D01*
X187390092Y-139862349D01*
X187393972Y-139901750D01*
X187390092Y-139941151D01*
X187390091Y-139941153D01*
X187378598Y-139979041D01*
X187359934Y-140013960D01*
X187334816Y-140044566D01*
X187321945Y-140055129D01*
X187304623Y-140072451D01*
X187291009Y-140092825D01*
X187281632Y-140115464D01*
X187276851Y-140139497D01*
X187276851Y-140164001D01*
X187281631Y-140188034D01*
X187291008Y-140210673D01*
X187304622Y-140231048D01*
X187321945Y-140248371D01*
X187334816Y-140258934D01*
X187359934Y-140289540D01*
X187377466Y-140322340D01*
X187378597Y-140324457D01*
X187390092Y-140362349D01*
X187393972Y-140401750D01*
X187390092Y-140441151D01*
X187390091Y-140441153D01*
X187378598Y-140479041D01*
X187359934Y-140513960D01*
X187334816Y-140544566D01*
X187334814Y-140544568D01*
X187321949Y-140555126D01*
X187304622Y-140572453D01*
X187291009Y-140592828D01*
X187281632Y-140615467D01*
X187276852Y-140639500D01*
X187276852Y-140664004D01*
X187281633Y-140688037D01*
X187291011Y-140710676D01*
X187304625Y-140731050D01*
X187321946Y-140748371D01*
X187334817Y-140758934D01*
X187359935Y-140789540D01*
X187368060Y-140804742D01*
X187378598Y-140824457D01*
X187390093Y-140862349D01*
X187393973Y-140901750D01*
X187390093Y-140941151D01*
X187390092Y-140941153D01*
X187378599Y-140979041D01*
X187359935Y-141013960D01*
X187334817Y-141044566D01*
X187321946Y-141055129D01*
X187304624Y-141072451D01*
X187291010Y-141092825D01*
X187281633Y-141115464D01*
X187276852Y-141139497D01*
X187276852Y-141164001D01*
X187281632Y-141188034D01*
X187291009Y-141210673D01*
X187304623Y-141231048D01*
X187321949Y-141248374D01*
X187334816Y-141258934D01*
X187359934Y-141289540D01*
X187377466Y-141322340D01*
X187378597Y-141324457D01*
X187390092Y-141362349D01*
X187393972Y-141401750D01*
X187390092Y-141441151D01*
X187390091Y-141441153D01*
X187378598Y-141479041D01*
X187359934Y-141513960D01*
X187334816Y-141544566D01*
X187321945Y-141555129D01*
X187304623Y-141572451D01*
X187291009Y-141592825D01*
X187281632Y-141615464D01*
X187276851Y-141639497D01*
X187276851Y-141664001D01*
X187281631Y-141688034D01*
X187291008Y-141710673D01*
X187304622Y-141731048D01*
X187321945Y-141748371D01*
X187334816Y-141758934D01*
X187359934Y-141789540D01*
X187375146Y-141818000D01*
X187378597Y-141824457D01*
X187390092Y-141862349D01*
X187393972Y-141901750D01*
X187390092Y-141941151D01*
X187390091Y-141941153D01*
X187378598Y-141979041D01*
X187359934Y-142013960D01*
X187334816Y-142044566D01*
X187321945Y-142055129D01*
X187304623Y-142072451D01*
X187291009Y-142092825D01*
X187281632Y-142115464D01*
X187276851Y-142139497D01*
X187276851Y-142164001D01*
X187281631Y-142188034D01*
X187291008Y-142210673D01*
X187304622Y-142231048D01*
X187321945Y-142248371D01*
X187334816Y-142258934D01*
X187359934Y-142289540D01*
X187377466Y-142322340D01*
X187378597Y-142324457D01*
X187390092Y-142362349D01*
X187393972Y-142401750D01*
X187390092Y-142441151D01*
X187390091Y-142441153D01*
X187378598Y-142479041D01*
X187359934Y-142513960D01*
X187334816Y-142544566D01*
X187304210Y-142569684D01*
X187269291Y-142588348D01*
X187250347Y-142594095D01*
X187231401Y-142599842D01*
X187201874Y-142602750D01*
X186882126Y-142602750D01*
X186852599Y-142599842D01*
X186833653Y-142594095D01*
X186814709Y-142588348D01*
X186779790Y-142569684D01*
X186749184Y-142544566D01*
X186724066Y-142513960D01*
X186705402Y-142479041D01*
X186693909Y-142441153D01*
X186693908Y-142441151D01*
X186690028Y-142401750D01*
X186693908Y-142362349D01*
X186705403Y-142324457D01*
X186706534Y-142322340D01*
X186724066Y-142289540D01*
X186749184Y-142258934D01*
X186762055Y-142248371D01*
X186779377Y-142231049D01*
X186792991Y-142210675D01*
X186802368Y-142188036D01*
X186807149Y-142164003D01*
X186807149Y-142139499D01*
X186802369Y-142115466D01*
X186792992Y-142092827D01*
X186779378Y-142072452D01*
X186762055Y-142055129D01*
X186749184Y-142044566D01*
X186724066Y-142013960D01*
X186705402Y-141979041D01*
X186693909Y-141941153D01*
X186693908Y-141941151D01*
X186690028Y-141901750D01*
X186693908Y-141862349D01*
X186705403Y-141824457D01*
X186708854Y-141818000D01*
X186724066Y-141789540D01*
X186749184Y-141758934D01*
X186762055Y-141748371D01*
X186779377Y-141731049D01*
X186792991Y-141710675D01*
X186802368Y-141688036D01*
X186807149Y-141664003D01*
X186807149Y-141639499D01*
X186802369Y-141615466D01*
X186792992Y-141592827D01*
X186779378Y-141572452D01*
X186762055Y-141555129D01*
X186749184Y-141544566D01*
X186724066Y-141513960D01*
X186705402Y-141479041D01*
X186693909Y-141441153D01*
X186693908Y-141441151D01*
X186690028Y-141401750D01*
X186693908Y-141362349D01*
X186705403Y-141324457D01*
X186706534Y-141322340D01*
X186724066Y-141289540D01*
X186749184Y-141258934D01*
X186762055Y-141248371D01*
X186779377Y-141231049D01*
X186792991Y-141210675D01*
X186802368Y-141188036D01*
X186807149Y-141164003D01*
X186807149Y-141139499D01*
X186802369Y-141115466D01*
X186792992Y-141092827D01*
X186779378Y-141072452D01*
X186762052Y-141055126D01*
X186749187Y-141044568D01*
X186749185Y-141044566D01*
X186724067Y-141013960D01*
X186705403Y-140979041D01*
X186693910Y-140941153D01*
X186693909Y-140941151D01*
X186690029Y-140901750D01*
X186693909Y-140862349D01*
X186705404Y-140824457D01*
X186715942Y-140804742D01*
X186724067Y-140789540D01*
X186749185Y-140758934D01*
X186762052Y-140748374D01*
X186779379Y-140731047D01*
X186792992Y-140710672D01*
X186802369Y-140688033D01*
X186807149Y-140664000D01*
X186807149Y-140639496D01*
X186802368Y-140615463D01*
X186792990Y-140592824D01*
X186779376Y-140572450D01*
X186762055Y-140555129D01*
X186749184Y-140544566D01*
X186724066Y-140513960D01*
X186705402Y-140479041D01*
X186693909Y-140441153D01*
X186693908Y-140441151D01*
X186690028Y-140401750D01*
X186693908Y-140362349D01*
X186705403Y-140324457D01*
X186706534Y-140322340D01*
X186724066Y-140289540D01*
X186749184Y-140258934D01*
X186762055Y-140248371D01*
X186779377Y-140231049D01*
X186792991Y-140210675D01*
X186802368Y-140188036D01*
X186807149Y-140164003D01*
X186807149Y-140139499D01*
X186802369Y-140115466D01*
X186792992Y-140092827D01*
X186779378Y-140072452D01*
X186762055Y-140055129D01*
X186749184Y-140044566D01*
X186724066Y-140013960D01*
X186705402Y-139979041D01*
X186693909Y-139941153D01*
X186693908Y-139941151D01*
X186690028Y-139901750D01*
X186693908Y-139862349D01*
X186705403Y-139824457D01*
X186710458Y-139815000D01*
X186724066Y-139789540D01*
X186749184Y-139758934D01*
X186762055Y-139748371D01*
X186779377Y-139731049D01*
X186792991Y-139710675D01*
X186802368Y-139688036D01*
X186807149Y-139664003D01*
X186807149Y-139639499D01*
X186802369Y-139615466D01*
X186792992Y-139592827D01*
X186779378Y-139572452D01*
X186762055Y-139555129D01*
X186749184Y-139544566D01*
X186724066Y-139513960D01*
X186705402Y-139479041D01*
X186693909Y-139441153D01*
X186693908Y-139441151D01*
X186690028Y-139401750D01*
X186693908Y-139362349D01*
X186705403Y-139324457D01*
X186706534Y-139322340D01*
X186724066Y-139289540D01*
X186749184Y-139258934D01*
X186762055Y-139248371D01*
X186779377Y-139231049D01*
X186792991Y-139210675D01*
X186802368Y-139188036D01*
X186807149Y-139164003D01*
X186807149Y-139139499D01*
X186802369Y-139115466D01*
X186792992Y-139092827D01*
X186779378Y-139072452D01*
X186762055Y-139055129D01*
X186749184Y-139044566D01*
X186724066Y-139013960D01*
X186705402Y-138979041D01*
X186693909Y-138941153D01*
X186693908Y-138941151D01*
X186690028Y-138901750D01*
X186693908Y-138862349D01*
X186705403Y-138824457D01*
X186706534Y-138822340D01*
X186724066Y-138789540D01*
X186749184Y-138758934D01*
X186762055Y-138748371D01*
X186779377Y-138731049D01*
X186792991Y-138710675D01*
X186802368Y-138688036D01*
X186807149Y-138664003D01*
X186807149Y-138639499D01*
X186802369Y-138615466D01*
X186792992Y-138592827D01*
X186779378Y-138572452D01*
X186762052Y-138555126D01*
X186749187Y-138544568D01*
X186749185Y-138544566D01*
X186724067Y-138513960D01*
X186705403Y-138479041D01*
X186693910Y-138441153D01*
X186693909Y-138441151D01*
X186690029Y-138401750D01*
X186693909Y-138362349D01*
X186705404Y-138324457D01*
X186706535Y-138322340D01*
X186724067Y-138289540D01*
X186749185Y-138258934D01*
X186762052Y-138248374D01*
X186779379Y-138231047D01*
X186792992Y-138210672D01*
X186802369Y-138188033D01*
X186807149Y-138164000D01*
X186807149Y-138139496D01*
X186802368Y-138115463D01*
X186792990Y-138092824D01*
X186779376Y-138072450D01*
X186762055Y-138055129D01*
X186749184Y-138044566D01*
X186724066Y-138013960D01*
X186705402Y-137979041D01*
X186693909Y-137941153D01*
X186693908Y-137941151D01*
X186690028Y-137901750D01*
X186693908Y-137862349D01*
X186705403Y-137824457D01*
X186714734Y-137807000D01*
X186724066Y-137789540D01*
X186749184Y-137758934D01*
X186762055Y-137748371D01*
X186779377Y-137731049D01*
X186792991Y-137710675D01*
X186802368Y-137688036D01*
X186807149Y-137664003D01*
X186807149Y-137639499D01*
X186802369Y-137615466D01*
X186792992Y-137592827D01*
X186779378Y-137572452D01*
X186762055Y-137555129D01*
X186749184Y-137544566D01*
X186724066Y-137513960D01*
X186705402Y-137479041D01*
X186693909Y-137441153D01*
X186693908Y-137441151D01*
X186690028Y-137401750D01*
X186693908Y-137362349D01*
X186702877Y-137332784D01*
X186705402Y-137324459D01*
X186724066Y-137289540D01*
X186749184Y-137258934D01*
X186762055Y-137248371D01*
X186779377Y-137231049D01*
X186792991Y-137210675D01*
X186802368Y-137188036D01*
X186807149Y-137164003D01*
X186807149Y-137139499D01*
X186802369Y-137115466D01*
X186792992Y-137092827D01*
X186779378Y-137072452D01*
X186762055Y-137055129D01*
X186749184Y-137044566D01*
X186724066Y-137013960D01*
X186705402Y-136979041D01*
X186693909Y-136941153D01*
X186693908Y-136941151D01*
X186690028Y-136901750D01*
X186693908Y-136862349D01*
X186705403Y-136824457D01*
X186706534Y-136822340D01*
X186724066Y-136789540D01*
X186749184Y-136758934D01*
X186779790Y-136733816D01*
X186814709Y-136715152D01*
X186833653Y-136709405D01*
X186852599Y-136703658D01*
X186882126Y-136700750D01*
X187201874Y-136700750D01*
X187231401Y-136703658D01*
G37*
G36*
X185993000Y-142002750D02*
G01*
X181291000Y-142002750D01*
X181291000Y-137300750D01*
X185993000Y-137300750D01*
X185993000Y-142002750D01*
G37*
G36*
X206615512Y-139819927D02*
G01*
X206764812Y-139849624D01*
X206928784Y-139917544D01*
X207076354Y-140016147D01*
X207201853Y-140141646D01*
X207300456Y-140289216D01*
X207368376Y-140453188D01*
X207395260Y-140588348D01*
X207400655Y-140615467D01*
X207403000Y-140627259D01*
X207403000Y-140804741D01*
X207368376Y-140978812D01*
X207300456Y-141142784D01*
X207201853Y-141290354D01*
X207076354Y-141415853D01*
X206928784Y-141514456D01*
X206764812Y-141582376D01*
X206615512Y-141612073D01*
X206590742Y-141617000D01*
X206413258Y-141617000D01*
X206388488Y-141612073D01*
X206239188Y-141582376D01*
X206075216Y-141514456D01*
X205927646Y-141415853D01*
X205802147Y-141290354D01*
X205703544Y-141142784D01*
X205635624Y-140978812D01*
X205601000Y-140804741D01*
X205601000Y-140627259D01*
X205603346Y-140615467D01*
X205608740Y-140588348D01*
X205635624Y-140453188D01*
X205703544Y-140289216D01*
X205802147Y-140141646D01*
X205927646Y-140016147D01*
X206075216Y-139917544D01*
X206239188Y-139849624D01*
X206388488Y-139819927D01*
X206413258Y-139815000D01*
X206590742Y-139815000D01*
X206615512Y-139819927D01*
G37*
G36*
X161125000Y-141510000D02*
G01*
X159423000Y-141510000D01*
X159423000Y-139208000D01*
X161125000Y-139208000D01*
X161125000Y-141510000D01*
G37*
G36*
X145452312Y-138549927D02*
G01*
X145601612Y-138579624D01*
X145765584Y-138647544D01*
X145913154Y-138746147D01*
X146038653Y-138871646D01*
X146137256Y-139019216D01*
X146205176Y-139183188D01*
X146239800Y-139357259D01*
X146239800Y-139534741D01*
X146205176Y-139708812D01*
X146137256Y-139872784D01*
X146038653Y-140020354D01*
X145913154Y-140145853D01*
X145765584Y-140244456D01*
X145601612Y-140312376D01*
X145452312Y-140342073D01*
X145427542Y-140347000D01*
X145250058Y-140347000D01*
X145225288Y-140342073D01*
X145075988Y-140312376D01*
X144912016Y-140244456D01*
X144764446Y-140145853D01*
X144638947Y-140020354D01*
X144540344Y-139872784D01*
X144472424Y-139708812D01*
X144437800Y-139534741D01*
X144437800Y-139357259D01*
X144472424Y-139183188D01*
X144540344Y-139019216D01*
X144638947Y-138871646D01*
X144764446Y-138746147D01*
X144912016Y-138647544D01*
X145075988Y-138579624D01*
X145225288Y-138549927D01*
X145250058Y-138545000D01*
X145427542Y-138545000D01*
X145452312Y-138549927D01*
G37*
G36*
X147992312Y-138549927D02*
G01*
X148141612Y-138579624D01*
X148305584Y-138647544D01*
X148453154Y-138746147D01*
X148578653Y-138871646D01*
X148677256Y-139019216D01*
X148745176Y-139183188D01*
X148779800Y-139357259D01*
X148779800Y-139534741D01*
X148745176Y-139708812D01*
X148677256Y-139872784D01*
X148578653Y-140020354D01*
X148453154Y-140145853D01*
X148305584Y-140244456D01*
X148141612Y-140312376D01*
X147992312Y-140342073D01*
X147967542Y-140347000D01*
X147790058Y-140347000D01*
X147765288Y-140342073D01*
X147615988Y-140312376D01*
X147452016Y-140244456D01*
X147304446Y-140145853D01*
X147178947Y-140020354D01*
X147080344Y-139872784D01*
X147012424Y-139708812D01*
X146977800Y-139534741D01*
X146977800Y-139357259D01*
X147012424Y-139183188D01*
X147080344Y-139019216D01*
X147178947Y-138871646D01*
X147304446Y-138746147D01*
X147452016Y-138647544D01*
X147615988Y-138579624D01*
X147765288Y-138549927D01*
X147790058Y-138545000D01*
X147967542Y-138545000D01*
X147992312Y-138549927D01*
G37*
G36*
X169489000Y-140239000D02*
G01*
X166062000Y-140239000D01*
X166062000Y-137637000D01*
X169489000Y-137637000D01*
X169489000Y-140239000D01*
G37*
G36*
X175314000Y-140239000D02*
G01*
X171887000Y-140239000D01*
X171887000Y-137637000D01*
X175314000Y-137637000D01*
X175314000Y-140239000D01*
G37*
G36*
X154979000Y-139125000D02*
G01*
X153377000Y-139125000D01*
X153377000Y-137023000D01*
X154979000Y-137023000D01*
X154979000Y-139125000D01*
G37*
G36*
X157279000Y-139125000D02*
G01*
X155677000Y-139125000D01*
X155677000Y-137023000D01*
X157279000Y-137023000D01*
X157279000Y-139125000D01*
G37*
G36*
X152679000Y-139125000D02*
G01*
X151077000Y-139125000D01*
X151077000Y-137023000D01*
X152679000Y-137023000D01*
X152679000Y-139125000D01*
G37*
G36*
X206615512Y-137279927D02*
G01*
X206764812Y-137309624D01*
X206928784Y-137377544D01*
X207076354Y-137476147D01*
X207201853Y-137601646D01*
X207300456Y-137749216D01*
X207368376Y-137913188D01*
X207403000Y-138087259D01*
X207403000Y-138264741D01*
X207368376Y-138438812D01*
X207300456Y-138602784D01*
X207201853Y-138750354D01*
X207076354Y-138875853D01*
X206928784Y-138974456D01*
X206764812Y-139042376D01*
X206615512Y-139072073D01*
X206590742Y-139077000D01*
X206413258Y-139077000D01*
X206388488Y-139072073D01*
X206239188Y-139042376D01*
X206075216Y-138974456D01*
X205927646Y-138875853D01*
X205802147Y-138750354D01*
X205703544Y-138602784D01*
X205635624Y-138438812D01*
X205601000Y-138264741D01*
X205601000Y-138087259D01*
X205635624Y-137913188D01*
X205703544Y-137749216D01*
X205802147Y-137601646D01*
X205927646Y-137476147D01*
X206075216Y-137377544D01*
X206239188Y-137309624D01*
X206388488Y-137279927D01*
X206413258Y-137275000D01*
X206590742Y-137275000D01*
X206615512Y-137279927D01*
G37*
G36*
X202449000Y-138246000D02*
G01*
X201347000Y-138246000D01*
X201347000Y-135394000D01*
X202449000Y-135394000D01*
X202449000Y-138246000D01*
G37*
G36*
X198449000Y-138246000D02*
G01*
X197347000Y-138246000D01*
X197347000Y-135394000D01*
X198449000Y-135394000D01*
X198449000Y-138246000D01*
G37*
G36*
X161125000Y-138033000D02*
G01*
X159423000Y-138033000D01*
X159423000Y-135731000D01*
X161125000Y-135731000D01*
X161125000Y-138033000D01*
G37*
G36*
X145452312Y-136009927D02*
G01*
X145601612Y-136039624D01*
X145765584Y-136107544D01*
X145913154Y-136206147D01*
X146038653Y-136331646D01*
X146137256Y-136479216D01*
X146205176Y-136643188D01*
X146239800Y-136817259D01*
X146239800Y-136994741D01*
X146205176Y-137168812D01*
X146137256Y-137332784D01*
X146038653Y-137480354D01*
X145913154Y-137605853D01*
X145765584Y-137704456D01*
X145601612Y-137772376D01*
X145452312Y-137802073D01*
X145427542Y-137807000D01*
X145250058Y-137807000D01*
X145225288Y-137802073D01*
X145075988Y-137772376D01*
X144912016Y-137704456D01*
X144764446Y-137605853D01*
X144638947Y-137480354D01*
X144540344Y-137332784D01*
X144472424Y-137168812D01*
X144437800Y-136994741D01*
X144437800Y-136817259D01*
X144472424Y-136643188D01*
X144540344Y-136479216D01*
X144638947Y-136331646D01*
X144764446Y-136206147D01*
X144912016Y-136107544D01*
X145075988Y-136039624D01*
X145225288Y-136009927D01*
X145250058Y-136005000D01*
X145427542Y-136005000D01*
X145452312Y-136009927D01*
G37*
G36*
X147992312Y-136009927D02*
G01*
X148141612Y-136039624D01*
X148305584Y-136107544D01*
X148453154Y-136206147D01*
X148578653Y-136331646D01*
X148677256Y-136479216D01*
X148745176Y-136643188D01*
X148779800Y-136817259D01*
X148779800Y-136994741D01*
X148745176Y-137168812D01*
X148677256Y-137332784D01*
X148578653Y-137480354D01*
X148453154Y-137605853D01*
X148305584Y-137704456D01*
X148141612Y-137772376D01*
X147992312Y-137802073D01*
X147967542Y-137807000D01*
X147790058Y-137807000D01*
X147765288Y-137802073D01*
X147615988Y-137772376D01*
X147452016Y-137704456D01*
X147304446Y-137605853D01*
X147178947Y-137480354D01*
X147080344Y-137332784D01*
X147012424Y-137168812D01*
X146977800Y-136994741D01*
X146977800Y-136817259D01*
X147012424Y-136643188D01*
X147080344Y-136479216D01*
X147178947Y-136331646D01*
X147304446Y-136206147D01*
X147452016Y-136107544D01*
X147615988Y-136039624D01*
X147765288Y-136009927D01*
X147790058Y-136005000D01*
X147967542Y-136005000D01*
X147992312Y-136009927D01*
G37*
G36*
X192725000Y-136771000D02*
G01*
X191323000Y-136771000D01*
X191323000Y-135169000D01*
X192725000Y-135169000D01*
X192725000Y-136771000D01*
G37*
G36*
X189906000Y-136671000D02*
G01*
X188554000Y-136671000D01*
X188554000Y-135069000D01*
X189906000Y-135069000D01*
X189906000Y-136671000D01*
G37*
G36*
X182396304Y-135900201D02*
G01*
X182431400Y-135903657D01*
X182450346Y-135909405D01*
X182469290Y-135915151D01*
X182504209Y-135933815D01*
X182534816Y-135958933D01*
X182545379Y-135971804D01*
X182562702Y-135989127D01*
X182583077Y-136002741D01*
X182605715Y-136012119D01*
X182629749Y-136016899D01*
X182654253Y-136016899D01*
X182678286Y-136012119D01*
X182700925Y-136002741D01*
X182721299Y-135989128D01*
X182738622Y-135971804D01*
X182749184Y-135958934D01*
X182779790Y-135933816D01*
X182814709Y-135915152D01*
X182833653Y-135909406D01*
X182852599Y-135903658D01*
X182891999Y-135899778D01*
X182892000Y-135899778D01*
X182896304Y-135900202D01*
X182931400Y-135903658D01*
X182950346Y-135909406D01*
X182969290Y-135915152D01*
X183004209Y-135933816D01*
X183034816Y-135958934D01*
X183045379Y-135971805D01*
X183062701Y-135989127D01*
X183083075Y-136002741D01*
X183105714Y-136012118D01*
X183129747Y-136016899D01*
X183154251Y-136016899D01*
X183178284Y-136012119D01*
X183200923Y-136002742D01*
X183221298Y-135989128D01*
X183238622Y-135971804D01*
X183249184Y-135958934D01*
X183279790Y-135933816D01*
X183314709Y-135915152D01*
X183333653Y-135909406D01*
X183352599Y-135903658D01*
X183391999Y-135899778D01*
X183392000Y-135899778D01*
X183396304Y-135900202D01*
X183431400Y-135903658D01*
X183450346Y-135909406D01*
X183469290Y-135915152D01*
X183504209Y-135933816D01*
X183534816Y-135958934D01*
X183545379Y-135971805D01*
X183562701Y-135989127D01*
X183583075Y-136002741D01*
X183605714Y-136012118D01*
X183629747Y-136016899D01*
X183654251Y-136016899D01*
X183678284Y-136012119D01*
X183700923Y-136002742D01*
X183721298Y-135989128D01*
X183738622Y-135971804D01*
X183749184Y-135958934D01*
X183779790Y-135933816D01*
X183814709Y-135915152D01*
X183833653Y-135909406D01*
X183852599Y-135903658D01*
X183891999Y-135899778D01*
X183892000Y-135899778D01*
X183896304Y-135900202D01*
X183931400Y-135903658D01*
X183950346Y-135909406D01*
X183969290Y-135915152D01*
X184004209Y-135933816D01*
X184034816Y-135958934D01*
X184045379Y-135971805D01*
X184062701Y-135989127D01*
X184083075Y-136002741D01*
X184105714Y-136012118D01*
X184129747Y-136016899D01*
X184154251Y-136016899D01*
X184178284Y-136012119D01*
X184200923Y-136002742D01*
X184221298Y-135989128D01*
X184238622Y-135971804D01*
X184249184Y-135958934D01*
X184279790Y-135933816D01*
X184314709Y-135915152D01*
X184333653Y-135909406D01*
X184352599Y-135903658D01*
X184391999Y-135899778D01*
X184392000Y-135899778D01*
X184396304Y-135900202D01*
X184431400Y-135903658D01*
X184450346Y-135909406D01*
X184469290Y-135915152D01*
X184504209Y-135933816D01*
X184534816Y-135958934D01*
X184545379Y-135971805D01*
X184562701Y-135989127D01*
X184583075Y-136002741D01*
X184605714Y-136012118D01*
X184629747Y-136016899D01*
X184654251Y-136016899D01*
X184678284Y-136012119D01*
X184700923Y-136002742D01*
X184721298Y-135989128D01*
X184738618Y-135971808D01*
X184749184Y-135958933D01*
X184779790Y-135933815D01*
X184814709Y-135915151D01*
X184833653Y-135909405D01*
X184852599Y-135903657D01*
X184891999Y-135899777D01*
X184892000Y-135899777D01*
X184896304Y-135900201D01*
X184931400Y-135903657D01*
X184950346Y-135909405D01*
X184969290Y-135915151D01*
X185004209Y-135933815D01*
X185034816Y-135958933D01*
X185045379Y-135971804D01*
X185062702Y-135989127D01*
X185083077Y-136002741D01*
X185105715Y-136012119D01*
X185129749Y-136016899D01*
X185154253Y-136016899D01*
X185178286Y-136012119D01*
X185200925Y-136002741D01*
X185221299Y-135989128D01*
X185238622Y-135971804D01*
X185249184Y-135958934D01*
X185279790Y-135933816D01*
X185314709Y-135915152D01*
X185333653Y-135909406D01*
X185352599Y-135903658D01*
X185391999Y-135899778D01*
X185392000Y-135899778D01*
X185396304Y-135900202D01*
X185431400Y-135903658D01*
X185450346Y-135909406D01*
X185469290Y-135915152D01*
X185504209Y-135933816D01*
X185534816Y-135958934D01*
X185545379Y-135971805D01*
X185562701Y-135989127D01*
X185583075Y-136002741D01*
X185605714Y-136012118D01*
X185629747Y-136016899D01*
X185654251Y-136016899D01*
X185678284Y-136012119D01*
X185700923Y-136002742D01*
X185721298Y-135989128D01*
X185738622Y-135971804D01*
X185749184Y-135958934D01*
X185779790Y-135933816D01*
X185814709Y-135915152D01*
X185833653Y-135909406D01*
X185852599Y-135903658D01*
X185891999Y-135899778D01*
X185892000Y-135899778D01*
X185896304Y-135900202D01*
X185931400Y-135903658D01*
X185950346Y-135909406D01*
X185969290Y-135915152D01*
X186004209Y-135933816D01*
X186034816Y-135958934D01*
X186045379Y-135971805D01*
X186062701Y-135989127D01*
X186083075Y-136002741D01*
X186105714Y-136012118D01*
X186129747Y-136016899D01*
X186154251Y-136016899D01*
X186178284Y-136012119D01*
X186200923Y-136002742D01*
X186221298Y-135989128D01*
X186238622Y-135971804D01*
X186249184Y-135958934D01*
X186279790Y-135933816D01*
X186314709Y-135915152D01*
X186333653Y-135909406D01*
X186352599Y-135903658D01*
X186391999Y-135899778D01*
X186392000Y-135899778D01*
X186396304Y-135900202D01*
X186431400Y-135903658D01*
X186450346Y-135909406D01*
X186469290Y-135915152D01*
X186504209Y-135933816D01*
X186534816Y-135958934D01*
X186559934Y-135989540D01*
X186572002Y-136012119D01*
X186578597Y-136024457D01*
X186590092Y-136062349D01*
X186593000Y-136091876D01*
X186593000Y-136411624D01*
X186590092Y-136441151D01*
X186578597Y-136479043D01*
X186578503Y-136479218D01*
X186559934Y-136513960D01*
X186534816Y-136544566D01*
X186504210Y-136569684D01*
X186469291Y-136588348D01*
X186450347Y-136594095D01*
X186431401Y-136599842D01*
X186392001Y-136603722D01*
X186392000Y-136603722D01*
X186387696Y-136603298D01*
X186352600Y-136599842D01*
X186333654Y-136594095D01*
X186314710Y-136588348D01*
X186279791Y-136569684D01*
X186249185Y-136544566D01*
X186238622Y-136531695D01*
X186221299Y-136514372D01*
X186200924Y-136500758D01*
X186178286Y-136491380D01*
X186154252Y-136486600D01*
X186129748Y-136486600D01*
X186105715Y-136491380D01*
X186083076Y-136500758D01*
X186062702Y-136514371D01*
X186045384Y-136531689D01*
X186034816Y-136544566D01*
X186004210Y-136569684D01*
X185969291Y-136588348D01*
X185950347Y-136594095D01*
X185931401Y-136599842D01*
X185892001Y-136603722D01*
X185892000Y-136603722D01*
X185887696Y-136603298D01*
X185852600Y-136599842D01*
X185833654Y-136594095D01*
X185814710Y-136588348D01*
X185779791Y-136569684D01*
X185749185Y-136544566D01*
X185738622Y-136531695D01*
X185721299Y-136514372D01*
X185700924Y-136500758D01*
X185678286Y-136491380D01*
X185654252Y-136486600D01*
X185629748Y-136486600D01*
X185605715Y-136491380D01*
X185583076Y-136500758D01*
X185562702Y-136514371D01*
X185545384Y-136531689D01*
X185534816Y-136544566D01*
X185504210Y-136569684D01*
X185469291Y-136588348D01*
X185450347Y-136594095D01*
X185431401Y-136599842D01*
X185392001Y-136603722D01*
X185392000Y-136603722D01*
X185387696Y-136603298D01*
X185352600Y-136599842D01*
X185333654Y-136594095D01*
X185314710Y-136588348D01*
X185279791Y-136569684D01*
X185249185Y-136544566D01*
X185238622Y-136531695D01*
X185221299Y-136514372D01*
X185200924Y-136500758D01*
X185178286Y-136491380D01*
X185154252Y-136486600D01*
X185129748Y-136486600D01*
X185105715Y-136491380D01*
X185083076Y-136500758D01*
X185062702Y-136514371D01*
X185045379Y-136531694D01*
X185034816Y-136544565D01*
X185004210Y-136569683D01*
X184969291Y-136588347D01*
X184950347Y-136594093D01*
X184931401Y-136599841D01*
X184892001Y-136603721D01*
X184892000Y-136603721D01*
X184887696Y-136603297D01*
X184852600Y-136599841D01*
X184833654Y-136594094D01*
X184814710Y-136588347D01*
X184779791Y-136569683D01*
X184749185Y-136544565D01*
X184738622Y-136531694D01*
X184721300Y-136514372D01*
X184700926Y-136500758D01*
X184678287Y-136491381D01*
X184654254Y-136486600D01*
X184629750Y-136486600D01*
X184605717Y-136491380D01*
X184583078Y-136500757D01*
X184562703Y-136514371D01*
X184545379Y-136531695D01*
X184534816Y-136544566D01*
X184504210Y-136569684D01*
X184469291Y-136588348D01*
X184450347Y-136594095D01*
X184431401Y-136599842D01*
X184392001Y-136603722D01*
X184392000Y-136603722D01*
X184387696Y-136603298D01*
X184352600Y-136599842D01*
X184333654Y-136594095D01*
X184314710Y-136588348D01*
X184279791Y-136569684D01*
X184249185Y-136544566D01*
X184238622Y-136531695D01*
X184221299Y-136514372D01*
X184200924Y-136500758D01*
X184178286Y-136491380D01*
X184154252Y-136486600D01*
X184129748Y-136486600D01*
X184105715Y-136491380D01*
X184083076Y-136500758D01*
X184062702Y-136514371D01*
X184045384Y-136531689D01*
X184034816Y-136544566D01*
X184004210Y-136569684D01*
X183969291Y-136588348D01*
X183950347Y-136594095D01*
X183931401Y-136599842D01*
X183892001Y-136603722D01*
X183892000Y-136603722D01*
X183887696Y-136603298D01*
X183852600Y-136599842D01*
X183833654Y-136594095D01*
X183814710Y-136588348D01*
X183779791Y-136569684D01*
X183749185Y-136544566D01*
X183738622Y-136531695D01*
X183721299Y-136514372D01*
X183700924Y-136500758D01*
X183678286Y-136491380D01*
X183654252Y-136486600D01*
X183629748Y-136486600D01*
X183605715Y-136491380D01*
X183583076Y-136500758D01*
X183562702Y-136514371D01*
X183545384Y-136531689D01*
X183534816Y-136544566D01*
X183504210Y-136569684D01*
X183469291Y-136588348D01*
X183450347Y-136594095D01*
X183431401Y-136599842D01*
X183392001Y-136603722D01*
X183392000Y-136603722D01*
X183387696Y-136603298D01*
X183352600Y-136599842D01*
X183333654Y-136594095D01*
X183314710Y-136588348D01*
X183279791Y-136569684D01*
X183249185Y-136544566D01*
X183238622Y-136531695D01*
X183221299Y-136514372D01*
X183200924Y-136500758D01*
X183178286Y-136491380D01*
X183154252Y-136486600D01*
X183129748Y-136486600D01*
X183105715Y-136491380D01*
X183083076Y-136500758D01*
X183062702Y-136514371D01*
X183045384Y-136531689D01*
X183034816Y-136544566D01*
X183004210Y-136569684D01*
X182969291Y-136588348D01*
X182950347Y-136594095D01*
X182931401Y-136599842D01*
X182892001Y-136603722D01*
X182892000Y-136603722D01*
X182887696Y-136603298D01*
X182852600Y-136599842D01*
X182833654Y-136594095D01*
X182814710Y-136588348D01*
X182779791Y-136569684D01*
X182749185Y-136544566D01*
X182738622Y-136531695D01*
X182721299Y-136514372D01*
X182700924Y-136500758D01*
X182678286Y-136491380D01*
X182654252Y-136486600D01*
X182629748Y-136486600D01*
X182605715Y-136491380D01*
X182583076Y-136500758D01*
X182562702Y-136514371D01*
X182545379Y-136531694D01*
X182534816Y-136544565D01*
X182504210Y-136569683D01*
X182469291Y-136588347D01*
X182450347Y-136594093D01*
X182431401Y-136599841D01*
X182392001Y-136603721D01*
X182392000Y-136603721D01*
X182387696Y-136603297D01*
X182352600Y-136599841D01*
X182333654Y-136594094D01*
X182314710Y-136588347D01*
X182279791Y-136569683D01*
X182249185Y-136544565D01*
X182238622Y-136531694D01*
X182221300Y-136514372D01*
X182200926Y-136500758D01*
X182178287Y-136491381D01*
X182154254Y-136486600D01*
X182129750Y-136486600D01*
X182105717Y-136491380D01*
X182083078Y-136500757D01*
X182062703Y-136514371D01*
X182045379Y-136531695D01*
X182034816Y-136544566D01*
X182004210Y-136569684D01*
X181969291Y-136588348D01*
X181950347Y-136594095D01*
X181931401Y-136599842D01*
X181892001Y-136603722D01*
X181892000Y-136603722D01*
X181887696Y-136603298D01*
X181852600Y-136599842D01*
X181833654Y-136594095D01*
X181814710Y-136588348D01*
X181779791Y-136569684D01*
X181749185Y-136544566D01*
X181738622Y-136531695D01*
X181721299Y-136514372D01*
X181700924Y-136500758D01*
X181678286Y-136491380D01*
X181654252Y-136486600D01*
X181629748Y-136486600D01*
X181605715Y-136491380D01*
X181583076Y-136500758D01*
X181562702Y-136514371D01*
X181545384Y-136531689D01*
X181534816Y-136544566D01*
X181504210Y-136569684D01*
X181469291Y-136588348D01*
X181450347Y-136594095D01*
X181431401Y-136599842D01*
X181392001Y-136603722D01*
X181392000Y-136603722D01*
X181387696Y-136603298D01*
X181352600Y-136599842D01*
X181333654Y-136594095D01*
X181314710Y-136588348D01*
X181279791Y-136569684D01*
X181249185Y-136544566D01*
X181238622Y-136531695D01*
X181221299Y-136514372D01*
X181200924Y-136500758D01*
X181178286Y-136491380D01*
X181154252Y-136486600D01*
X181129748Y-136486600D01*
X181105715Y-136491380D01*
X181083076Y-136500758D01*
X181062702Y-136514371D01*
X181045384Y-136531689D01*
X181034816Y-136544566D01*
X181004210Y-136569684D01*
X180969291Y-136588348D01*
X180950347Y-136594095D01*
X180931401Y-136599842D01*
X180892001Y-136603722D01*
X180892000Y-136603722D01*
X180887696Y-136603298D01*
X180852600Y-136599842D01*
X180833654Y-136594095D01*
X180814710Y-136588348D01*
X180779791Y-136569684D01*
X180749185Y-136544566D01*
X180724067Y-136513960D01*
X180709443Y-136486600D01*
X180705402Y-136479040D01*
X180693908Y-136441151D01*
X180691000Y-136411624D01*
X180691000Y-136091877D01*
X180693908Y-136062350D01*
X180705403Y-136024458D01*
X180724065Y-135989543D01*
X180724066Y-135989541D01*
X180749184Y-135958934D01*
X180779790Y-135933816D01*
X180814709Y-135915152D01*
X180833653Y-135909406D01*
X180852599Y-135903658D01*
X180891999Y-135899778D01*
X180892000Y-135899778D01*
X180896304Y-135900202D01*
X180931400Y-135903658D01*
X180950346Y-135909406D01*
X180969290Y-135915152D01*
X181004209Y-135933816D01*
X181034816Y-135958934D01*
X181045379Y-135971805D01*
X181062701Y-135989127D01*
X181083075Y-136002741D01*
X181105714Y-136012118D01*
X181129747Y-136016899D01*
X181154251Y-136016899D01*
X181178284Y-136012119D01*
X181200923Y-136002742D01*
X181221298Y-135989128D01*
X181238622Y-135971804D01*
X181249184Y-135958934D01*
X181279790Y-135933816D01*
X181314709Y-135915152D01*
X181333653Y-135909406D01*
X181352599Y-135903658D01*
X181391999Y-135899778D01*
X181392000Y-135899778D01*
X181396304Y-135900202D01*
X181431400Y-135903658D01*
X181450346Y-135909406D01*
X181469290Y-135915152D01*
X181504209Y-135933816D01*
X181534816Y-135958934D01*
X181545379Y-135971805D01*
X181562701Y-135989127D01*
X181583075Y-136002741D01*
X181605714Y-136012118D01*
X181629747Y-136016899D01*
X181654251Y-136016899D01*
X181678284Y-136012119D01*
X181700923Y-136002742D01*
X181721298Y-135989128D01*
X181738622Y-135971804D01*
X181749184Y-135958934D01*
X181779790Y-135933816D01*
X181814709Y-135915152D01*
X181833653Y-135909406D01*
X181852599Y-135903658D01*
X181891999Y-135899778D01*
X181892000Y-135899778D01*
X181896304Y-135900202D01*
X181931400Y-135903658D01*
X181950346Y-135909406D01*
X181969290Y-135915152D01*
X182004209Y-135933816D01*
X182034816Y-135958934D01*
X182045379Y-135971805D01*
X182062701Y-135989127D01*
X182083075Y-136002741D01*
X182105714Y-136012118D01*
X182129747Y-136016899D01*
X182154251Y-136016899D01*
X182178284Y-136012119D01*
X182200923Y-136002742D01*
X182221298Y-135989128D01*
X182238618Y-135971808D01*
X182249184Y-135958933D01*
X182279790Y-135933815D01*
X182314709Y-135915151D01*
X182333653Y-135909405D01*
X182352599Y-135903657D01*
X182391999Y-135899777D01*
X182392000Y-135899777D01*
X182396304Y-135900201D01*
G37*
G36*
X206615512Y-134739927D02*
G01*
X206764812Y-134769624D01*
X206928784Y-134837544D01*
X207076354Y-134936147D01*
X207201853Y-135061646D01*
X207300456Y-135209216D01*
X207368376Y-135373188D01*
X207403000Y-135547259D01*
X207403000Y-135724741D01*
X207368376Y-135898812D01*
X207300456Y-136062784D01*
X207201853Y-136210354D01*
X207076354Y-136335853D01*
X206928784Y-136434456D01*
X206764812Y-136502376D01*
X206615512Y-136532073D01*
X206590742Y-136537000D01*
X206413258Y-136537000D01*
X206388488Y-136532073D01*
X206239188Y-136502376D01*
X206075216Y-136434456D01*
X205927646Y-136335853D01*
X205802147Y-136210354D01*
X205703544Y-136062784D01*
X205635624Y-135898812D01*
X205601000Y-135724741D01*
X205601000Y-135547259D01*
X205635624Y-135373188D01*
X205703544Y-135209216D01*
X205802147Y-135061646D01*
X205927646Y-134936147D01*
X206075216Y-134837544D01*
X206239188Y-134769624D01*
X206388488Y-134739927D01*
X206413258Y-134735000D01*
X206590742Y-134735000D01*
X206615512Y-134739927D01*
G37*
G36*
X170199000Y-135804000D02*
G01*
X168597000Y-135804000D01*
X168597000Y-134452000D01*
X170199000Y-134452000D01*
X170199000Y-135804000D01*
G37*
G36*
X167699000Y-135804000D02*
G01*
X166097000Y-135804000D01*
X166097000Y-134452000D01*
X167699000Y-134452000D01*
X167699000Y-135804000D01*
G37*
G36*
X176843000Y-135550000D02*
G01*
X175241000Y-135550000D01*
X175241000Y-134198000D01*
X176843000Y-134198000D01*
X176843000Y-135550000D01*
G37*
G36*
X179343000Y-135550000D02*
G01*
X177741000Y-135550000D01*
X177741000Y-134198000D01*
X179343000Y-134198000D01*
X179343000Y-135550000D01*
G37*
G36*
X145452312Y-133469927D02*
G01*
X145601612Y-133499624D01*
X145765584Y-133567544D01*
X145913154Y-133666147D01*
X146038653Y-133791646D01*
X146137256Y-133939216D01*
X146205176Y-134103188D01*
X146239800Y-134277259D01*
X146239800Y-134454741D01*
X146205176Y-134628812D01*
X146137256Y-134792784D01*
X146038653Y-134940354D01*
X145913154Y-135065853D01*
X145765584Y-135164456D01*
X145601612Y-135232376D01*
X145452312Y-135262073D01*
X145427542Y-135267000D01*
X145250058Y-135267000D01*
X145225288Y-135262073D01*
X145075988Y-135232376D01*
X144912016Y-135164456D01*
X144764446Y-135065853D01*
X144638947Y-134940354D01*
X144540344Y-134792784D01*
X144472424Y-134628812D01*
X144437800Y-134454741D01*
X144437800Y-134277259D01*
X144472424Y-134103188D01*
X144540344Y-133939216D01*
X144638947Y-133791646D01*
X144764446Y-133666147D01*
X144912016Y-133567544D01*
X145075988Y-133499624D01*
X145225288Y-133469927D01*
X145250058Y-133465000D01*
X145427542Y-133465000D01*
X145452312Y-133469927D01*
G37*
G36*
X147992312Y-133469927D02*
G01*
X148141612Y-133499624D01*
X148305584Y-133567544D01*
X148453154Y-133666147D01*
X148578653Y-133791646D01*
X148677256Y-133939216D01*
X148745176Y-134103188D01*
X148779800Y-134277259D01*
X148779800Y-134454741D01*
X148745176Y-134628812D01*
X148677256Y-134792784D01*
X148578653Y-134940354D01*
X148453154Y-135065853D01*
X148305584Y-135164456D01*
X148141612Y-135232376D01*
X147992312Y-135262073D01*
X147967542Y-135267000D01*
X147790058Y-135267000D01*
X147765288Y-135262073D01*
X147615988Y-135232376D01*
X147452016Y-135164456D01*
X147304446Y-135065853D01*
X147178947Y-134940354D01*
X147080344Y-134792784D01*
X147012424Y-134628812D01*
X146977800Y-134454741D01*
X146977800Y-134277259D01*
X147012424Y-134103188D01*
X147080344Y-133939216D01*
X147178947Y-133791646D01*
X147304446Y-133666147D01*
X147452016Y-133567544D01*
X147615988Y-133499624D01*
X147765288Y-133469927D01*
X147790058Y-133465000D01*
X147967542Y-133465000D01*
X147992312Y-133469927D01*
G37*
G36*
X161125000Y-135033000D02*
G01*
X159423000Y-135033000D01*
X159423000Y-132731000D01*
X161125000Y-132731000D01*
X161125000Y-135033000D01*
G37*
G36*
X153530400Y-134261000D02*
G01*
X151828400Y-134261000D01*
X151828400Y-131259000D01*
X153530400Y-131259000D01*
X153530400Y-134261000D01*
G37*
G36*
X189906000Y-134171000D02*
G01*
X188554000Y-134171000D01*
X188554000Y-132569000D01*
X189906000Y-132569000D01*
X189906000Y-134171000D01*
G37*
G36*
X192725000Y-134071000D02*
G01*
X191323000Y-134071000D01*
X191323000Y-132469000D01*
X192725000Y-132469000D01*
X192725000Y-134071000D01*
G37*
G36*
X145452312Y-130929927D02*
G01*
X145601612Y-130959624D01*
X145765584Y-131027544D01*
X145913154Y-131126147D01*
X146038653Y-131251646D01*
X146137256Y-131399216D01*
X146205176Y-131563188D01*
X146239800Y-131737259D01*
X146239800Y-131914741D01*
X146205176Y-132088812D01*
X146137256Y-132252784D01*
X146038653Y-132400354D01*
X145913154Y-132525853D01*
X145765584Y-132624456D01*
X145601612Y-132692376D01*
X145452312Y-132722073D01*
X145427542Y-132727000D01*
X145250058Y-132727000D01*
X145225288Y-132722073D01*
X145075988Y-132692376D01*
X144912016Y-132624456D01*
X144764446Y-132525853D01*
X144638947Y-132400354D01*
X144540344Y-132252784D01*
X144472424Y-132088812D01*
X144437800Y-131914741D01*
X144437800Y-131737259D01*
X144472424Y-131563188D01*
X144540344Y-131399216D01*
X144638947Y-131251646D01*
X144764446Y-131126147D01*
X144912016Y-131027544D01*
X145075988Y-130959624D01*
X145225288Y-130929927D01*
X145250058Y-130925000D01*
X145427542Y-130925000D01*
X145452312Y-130929927D01*
G37*
G36*
X147992312Y-130929927D02*
G01*
X148141612Y-130959624D01*
X148305584Y-131027544D01*
X148453154Y-131126147D01*
X148578653Y-131251646D01*
X148677256Y-131399216D01*
X148745176Y-131563188D01*
X148779800Y-131737259D01*
X148779800Y-131914741D01*
X148745176Y-132088812D01*
X148677256Y-132252784D01*
X148578653Y-132400354D01*
X148453154Y-132525853D01*
X148305584Y-132624456D01*
X148141612Y-132692376D01*
X147992312Y-132722073D01*
X147967542Y-132727000D01*
X147790058Y-132727000D01*
X147765288Y-132722073D01*
X147615988Y-132692376D01*
X147452016Y-132624456D01*
X147304446Y-132525853D01*
X147178947Y-132400354D01*
X147080344Y-132252784D01*
X147012424Y-132088812D01*
X146977800Y-131914741D01*
X146977800Y-131737259D01*
X147012424Y-131563188D01*
X147080344Y-131399216D01*
X147178947Y-131251646D01*
X147304446Y-131126147D01*
X147452016Y-131027544D01*
X147615988Y-130959624D01*
X147765288Y-130929927D01*
X147790058Y-130925000D01*
X147967542Y-130925000D01*
X147992312Y-130929927D01*
G37*
G36*
X153530400Y-130361000D02*
G01*
X151828400Y-130361000D01*
X151828400Y-127359000D01*
X153530400Y-127359000D01*
X153530400Y-130361000D01*
G37*
G36*
X160133512Y-128135927D02*
G01*
X160282812Y-128165624D01*
X160446784Y-128233544D01*
X160594354Y-128332147D01*
X160719853Y-128457646D01*
X160818456Y-128605216D01*
X160886376Y-128769188D01*
X160921000Y-128943259D01*
X160921000Y-129120741D01*
X160886376Y-129294812D01*
X160818456Y-129458784D01*
X160719853Y-129606354D01*
X160594354Y-129731853D01*
X160446784Y-129830456D01*
X160282812Y-129898376D01*
X160133512Y-129928073D01*
X160108742Y-129933000D01*
X159931258Y-129933000D01*
X159906488Y-129928073D01*
X159757188Y-129898376D01*
X159593216Y-129830456D01*
X159445646Y-129731853D01*
X159320147Y-129606354D01*
X159221544Y-129458784D01*
X159153624Y-129294812D01*
X159119000Y-129120741D01*
X159119000Y-128943259D01*
X159153624Y-128769188D01*
X159221544Y-128605216D01*
X159320147Y-128457646D01*
X159445646Y-128332147D01*
X159593216Y-128233544D01*
X159757188Y-128165624D01*
X159906488Y-128135927D01*
X159931258Y-128131000D01*
X160108742Y-128131000D01*
X160133512Y-128135927D01*
G37*
G36*
X204101000Y-129933000D02*
G01*
X202299000Y-129933000D01*
X202299000Y-128131000D01*
X204101000Y-128131000D01*
X204101000Y-129933000D01*
G37*
G36*
X200773512Y-128135927D02*
G01*
X200922812Y-128165624D01*
X201086784Y-128233544D01*
X201234354Y-128332147D01*
X201359853Y-128457646D01*
X201458456Y-128605216D01*
X201526376Y-128769188D01*
X201561000Y-128943259D01*
X201561000Y-129120741D01*
X201526376Y-129294812D01*
X201458456Y-129458784D01*
X201359853Y-129606354D01*
X201234354Y-129731853D01*
X201086784Y-129830456D01*
X200922812Y-129898376D01*
X200773512Y-129928073D01*
X200748742Y-129933000D01*
X200571258Y-129933000D01*
X200546488Y-129928073D01*
X200397188Y-129898376D01*
X200233216Y-129830456D01*
X200085646Y-129731853D01*
X199960147Y-129606354D01*
X199861544Y-129458784D01*
X199793624Y-129294812D01*
X199759000Y-129120741D01*
X199759000Y-128943259D01*
X199793624Y-128769188D01*
X199861544Y-128605216D01*
X199960147Y-128457646D01*
X200085646Y-128332147D01*
X200233216Y-128233544D01*
X200397188Y-128165624D01*
X200546488Y-128135927D01*
X200571258Y-128131000D01*
X200748742Y-128131000D01*
X200773512Y-128135927D01*
G37*
G36*
X198233512Y-128135927D02*
G01*
X198382812Y-128165624D01*
X198546784Y-128233544D01*
X198694354Y-128332147D01*
X198819853Y-128457646D01*
X198918456Y-128605216D01*
X198986376Y-128769188D01*
X199021000Y-128943259D01*
X199021000Y-129120741D01*
X198986376Y-129294812D01*
X198918456Y-129458784D01*
X198819853Y-129606354D01*
X198694354Y-129731853D01*
X198546784Y-129830456D01*
X198382812Y-129898376D01*
X198233512Y-129928073D01*
X198208742Y-129933000D01*
X198031258Y-129933000D01*
X198006488Y-129928073D01*
X197857188Y-129898376D01*
X197693216Y-129830456D01*
X197545646Y-129731853D01*
X197420147Y-129606354D01*
X197321544Y-129458784D01*
X197253624Y-129294812D01*
X197219000Y-129120741D01*
X197219000Y-128943259D01*
X197253624Y-128769188D01*
X197321544Y-128605216D01*
X197420147Y-128457646D01*
X197545646Y-128332147D01*
X197693216Y-128233544D01*
X197857188Y-128165624D01*
X198006488Y-128135927D01*
X198031258Y-128131000D01*
X198208742Y-128131000D01*
X198233512Y-128135927D01*
G37*
G36*
X193153512Y-128135927D02*
G01*
X193302812Y-128165624D01*
X193466784Y-128233544D01*
X193614354Y-128332147D01*
X193739853Y-128457646D01*
X193838456Y-128605216D01*
X193906376Y-128769188D01*
X193941000Y-128943259D01*
X193941000Y-129120741D01*
X193906376Y-129294812D01*
X193838456Y-129458784D01*
X193739853Y-129606354D01*
X193614354Y-129731853D01*
X193466784Y-129830456D01*
X193302812Y-129898376D01*
X193153512Y-129928073D01*
X193128742Y-129933000D01*
X192951258Y-129933000D01*
X192926488Y-129928073D01*
X192777188Y-129898376D01*
X192613216Y-129830456D01*
X192465646Y-129731853D01*
X192340147Y-129606354D01*
X192241544Y-129458784D01*
X192173624Y-129294812D01*
X192139000Y-129120741D01*
X192139000Y-128943259D01*
X192173624Y-128769188D01*
X192241544Y-128605216D01*
X192340147Y-128457646D01*
X192465646Y-128332147D01*
X192613216Y-128233544D01*
X192777188Y-128165624D01*
X192926488Y-128135927D01*
X192951258Y-128131000D01*
X193128742Y-128131000D01*
X193153512Y-128135927D01*
G37*
G36*
X190613512Y-128135927D02*
G01*
X190762812Y-128165624D01*
X190926784Y-128233544D01*
X191074354Y-128332147D01*
X191199853Y-128457646D01*
X191298456Y-128605216D01*
X191366376Y-128769188D01*
X191401000Y-128943259D01*
X191401000Y-129120741D01*
X191366376Y-129294812D01*
X191298456Y-129458784D01*
X191199853Y-129606354D01*
X191074354Y-129731853D01*
X190926784Y-129830456D01*
X190762812Y-129898376D01*
X190613512Y-129928073D01*
X190588742Y-129933000D01*
X190411258Y-129933000D01*
X190386488Y-129928073D01*
X190237188Y-129898376D01*
X190073216Y-129830456D01*
X189925646Y-129731853D01*
X189800147Y-129606354D01*
X189701544Y-129458784D01*
X189633624Y-129294812D01*
X189599000Y-129120741D01*
X189599000Y-128943259D01*
X189633624Y-128769188D01*
X189701544Y-128605216D01*
X189800147Y-128457646D01*
X189925646Y-128332147D01*
X190073216Y-128233544D01*
X190237188Y-128165624D01*
X190386488Y-128135927D01*
X190411258Y-128131000D01*
X190588742Y-128131000D01*
X190613512Y-128135927D01*
G37*
G36*
X188073512Y-128135927D02*
G01*
X188222812Y-128165624D01*
X188386784Y-128233544D01*
X188534354Y-128332147D01*
X188659853Y-128457646D01*
X188758456Y-128605216D01*
X188826376Y-128769188D01*
X188861000Y-128943259D01*
X188861000Y-129120741D01*
X188826376Y-129294812D01*
X188758456Y-129458784D01*
X188659853Y-129606354D01*
X188534354Y-129731853D01*
X188386784Y-129830456D01*
X188222812Y-129898376D01*
X188073512Y-129928073D01*
X188048742Y-129933000D01*
X187871258Y-129933000D01*
X187846488Y-129928073D01*
X187697188Y-129898376D01*
X187533216Y-129830456D01*
X187385646Y-129731853D01*
X187260147Y-129606354D01*
X187161544Y-129458784D01*
X187093624Y-129294812D01*
X187059000Y-129120741D01*
X187059000Y-128943259D01*
X187093624Y-128769188D01*
X187161544Y-128605216D01*
X187260147Y-128457646D01*
X187385646Y-128332147D01*
X187533216Y-128233544D01*
X187697188Y-128165624D01*
X187846488Y-128135927D01*
X187871258Y-128131000D01*
X188048742Y-128131000D01*
X188073512Y-128135927D01*
G37*
G36*
X185533512Y-128135927D02*
G01*
X185682812Y-128165624D01*
X185846784Y-128233544D01*
X185994354Y-128332147D01*
X186119853Y-128457646D01*
X186218456Y-128605216D01*
X186286376Y-128769188D01*
X186321000Y-128943259D01*
X186321000Y-129120741D01*
X186286376Y-129294812D01*
X186218456Y-129458784D01*
X186119853Y-129606354D01*
X185994354Y-129731853D01*
X185846784Y-129830456D01*
X185682812Y-129898376D01*
X185533512Y-129928073D01*
X185508742Y-129933000D01*
X185331258Y-129933000D01*
X185306488Y-129928073D01*
X185157188Y-129898376D01*
X184993216Y-129830456D01*
X184845646Y-129731853D01*
X184720147Y-129606354D01*
X184621544Y-129458784D01*
X184553624Y-129294812D01*
X184519000Y-129120741D01*
X184519000Y-128943259D01*
X184553624Y-128769188D01*
X184621544Y-128605216D01*
X184720147Y-128457646D01*
X184845646Y-128332147D01*
X184993216Y-128233544D01*
X185157188Y-128165624D01*
X185306488Y-128135927D01*
X185331258Y-128131000D01*
X185508742Y-128131000D01*
X185533512Y-128135927D01*
G37*
G36*
X182993512Y-128135927D02*
G01*
X183142812Y-128165624D01*
X183306784Y-128233544D01*
X183454354Y-128332147D01*
X183579853Y-128457646D01*
X183678456Y-128605216D01*
X183746376Y-128769188D01*
X183781000Y-128943259D01*
X183781000Y-129120741D01*
X183746376Y-129294812D01*
X183678456Y-129458784D01*
X183579853Y-129606354D01*
X183454354Y-129731853D01*
X183306784Y-129830456D01*
X183142812Y-129898376D01*
X182993512Y-129928073D01*
X182968742Y-129933000D01*
X182791258Y-129933000D01*
X182766488Y-129928073D01*
X182617188Y-129898376D01*
X182453216Y-129830456D01*
X182305646Y-129731853D01*
X182180147Y-129606354D01*
X182081544Y-129458784D01*
X182013624Y-129294812D01*
X181979000Y-129120741D01*
X181979000Y-128943259D01*
X182013624Y-128769188D01*
X182081544Y-128605216D01*
X182180147Y-128457646D01*
X182305646Y-128332147D01*
X182453216Y-128233544D01*
X182617188Y-128165624D01*
X182766488Y-128135927D01*
X182791258Y-128131000D01*
X182968742Y-128131000D01*
X182993512Y-128135927D01*
G37*
G36*
X180453512Y-128135927D02*
G01*
X180602812Y-128165624D01*
X180766784Y-128233544D01*
X180914354Y-128332147D01*
X181039853Y-128457646D01*
X181138456Y-128605216D01*
X181206376Y-128769188D01*
X181241000Y-128943259D01*
X181241000Y-129120741D01*
X181206376Y-129294812D01*
X181138456Y-129458784D01*
X181039853Y-129606354D01*
X180914354Y-129731853D01*
X180766784Y-129830456D01*
X180602812Y-129898376D01*
X180453512Y-129928073D01*
X180428742Y-129933000D01*
X180251258Y-129933000D01*
X180226488Y-129928073D01*
X180077188Y-129898376D01*
X179913216Y-129830456D01*
X179765646Y-129731853D01*
X179640147Y-129606354D01*
X179541544Y-129458784D01*
X179473624Y-129294812D01*
X179439000Y-129120741D01*
X179439000Y-128943259D01*
X179473624Y-128769188D01*
X179541544Y-128605216D01*
X179640147Y-128457646D01*
X179765646Y-128332147D01*
X179913216Y-128233544D01*
X180077188Y-128165624D01*
X180226488Y-128135927D01*
X180251258Y-128131000D01*
X180428742Y-128131000D01*
X180453512Y-128135927D01*
G37*
G36*
X177913512Y-128135927D02*
G01*
X178062812Y-128165624D01*
X178226784Y-128233544D01*
X178374354Y-128332147D01*
X178499853Y-128457646D01*
X178598456Y-128605216D01*
X178666376Y-128769188D01*
X178701000Y-128943259D01*
X178701000Y-129120741D01*
X178666376Y-129294812D01*
X178598456Y-129458784D01*
X178499853Y-129606354D01*
X178374354Y-129731853D01*
X178226784Y-129830456D01*
X178062812Y-129898376D01*
X177913512Y-129928073D01*
X177888742Y-129933000D01*
X177711258Y-129933000D01*
X177686488Y-129928073D01*
X177537188Y-129898376D01*
X177373216Y-129830456D01*
X177225646Y-129731853D01*
X177100147Y-129606354D01*
X177001544Y-129458784D01*
X176933624Y-129294812D01*
X176899000Y-129120741D01*
X176899000Y-128943259D01*
X176933624Y-128769188D01*
X177001544Y-128605216D01*
X177100147Y-128457646D01*
X177225646Y-128332147D01*
X177373216Y-128233544D01*
X177537188Y-128165624D01*
X177686488Y-128135927D01*
X177711258Y-128131000D01*
X177888742Y-128131000D01*
X177913512Y-128135927D01*
G37*
G36*
X175373512Y-128135927D02*
G01*
X175522812Y-128165624D01*
X175686784Y-128233544D01*
X175834354Y-128332147D01*
X175959853Y-128457646D01*
X176058456Y-128605216D01*
X176126376Y-128769188D01*
X176161000Y-128943259D01*
X176161000Y-129120741D01*
X176126376Y-129294812D01*
X176058456Y-129458784D01*
X175959853Y-129606354D01*
X175834354Y-129731853D01*
X175686784Y-129830456D01*
X175522812Y-129898376D01*
X175373512Y-129928073D01*
X175348742Y-129933000D01*
X175171258Y-129933000D01*
X175146488Y-129928073D01*
X174997188Y-129898376D01*
X174833216Y-129830456D01*
X174685646Y-129731853D01*
X174560147Y-129606354D01*
X174461544Y-129458784D01*
X174393624Y-129294812D01*
X174359000Y-129120741D01*
X174359000Y-128943259D01*
X174393624Y-128769188D01*
X174461544Y-128605216D01*
X174560147Y-128457646D01*
X174685646Y-128332147D01*
X174833216Y-128233544D01*
X174997188Y-128165624D01*
X175146488Y-128135927D01*
X175171258Y-128131000D01*
X175348742Y-128131000D01*
X175373512Y-128135927D01*
G37*
G36*
X172833512Y-128135927D02*
G01*
X172982812Y-128165624D01*
X173146784Y-128233544D01*
X173294354Y-128332147D01*
X173419853Y-128457646D01*
X173518456Y-128605216D01*
X173586376Y-128769188D01*
X173621000Y-128943259D01*
X173621000Y-129120741D01*
X173586376Y-129294812D01*
X173518456Y-129458784D01*
X173419853Y-129606354D01*
X173294354Y-129731853D01*
X173146784Y-129830456D01*
X172982812Y-129898376D01*
X172833512Y-129928073D01*
X172808742Y-129933000D01*
X172631258Y-129933000D01*
X172606488Y-129928073D01*
X172457188Y-129898376D01*
X172293216Y-129830456D01*
X172145646Y-129731853D01*
X172020147Y-129606354D01*
X171921544Y-129458784D01*
X171853624Y-129294812D01*
X171819000Y-129120741D01*
X171819000Y-128943259D01*
X171853624Y-128769188D01*
X171921544Y-128605216D01*
X172020147Y-128457646D01*
X172145646Y-128332147D01*
X172293216Y-128233544D01*
X172457188Y-128165624D01*
X172606488Y-128135927D01*
X172631258Y-128131000D01*
X172808742Y-128131000D01*
X172833512Y-128135927D01*
G37*
G36*
X170293512Y-128135927D02*
G01*
X170442812Y-128165624D01*
X170606784Y-128233544D01*
X170754354Y-128332147D01*
X170879853Y-128457646D01*
X170978456Y-128605216D01*
X171046376Y-128769188D01*
X171081000Y-128943259D01*
X171081000Y-129120741D01*
X171046376Y-129294812D01*
X170978456Y-129458784D01*
X170879853Y-129606354D01*
X170754354Y-129731853D01*
X170606784Y-129830456D01*
X170442812Y-129898376D01*
X170293512Y-129928073D01*
X170268742Y-129933000D01*
X170091258Y-129933000D01*
X170066488Y-129928073D01*
X169917188Y-129898376D01*
X169753216Y-129830456D01*
X169605646Y-129731853D01*
X169480147Y-129606354D01*
X169381544Y-129458784D01*
X169313624Y-129294812D01*
X169279000Y-129120741D01*
X169279000Y-128943259D01*
X169313624Y-128769188D01*
X169381544Y-128605216D01*
X169480147Y-128457646D01*
X169605646Y-128332147D01*
X169753216Y-128233544D01*
X169917188Y-128165624D01*
X170066488Y-128135927D01*
X170091258Y-128131000D01*
X170268742Y-128131000D01*
X170293512Y-128135927D01*
G37*
G36*
X167753512Y-128135927D02*
G01*
X167902812Y-128165624D01*
X168066784Y-128233544D01*
X168214354Y-128332147D01*
X168339853Y-128457646D01*
X168438456Y-128605216D01*
X168506376Y-128769188D01*
X168541000Y-128943259D01*
X168541000Y-129120741D01*
X168506376Y-129294812D01*
X168438456Y-129458784D01*
X168339853Y-129606354D01*
X168214354Y-129731853D01*
X168066784Y-129830456D01*
X167902812Y-129898376D01*
X167753512Y-129928073D01*
X167728742Y-129933000D01*
X167551258Y-129933000D01*
X167526488Y-129928073D01*
X167377188Y-129898376D01*
X167213216Y-129830456D01*
X167065646Y-129731853D01*
X166940147Y-129606354D01*
X166841544Y-129458784D01*
X166773624Y-129294812D01*
X166739000Y-129120741D01*
X166739000Y-128943259D01*
X166773624Y-128769188D01*
X166841544Y-128605216D01*
X166940147Y-128457646D01*
X167065646Y-128332147D01*
X167213216Y-128233544D01*
X167377188Y-128165624D01*
X167526488Y-128135927D01*
X167551258Y-128131000D01*
X167728742Y-128131000D01*
X167753512Y-128135927D01*
G37*
G36*
X165213512Y-128135927D02*
G01*
X165362812Y-128165624D01*
X165526784Y-128233544D01*
X165674354Y-128332147D01*
X165799853Y-128457646D01*
X165898456Y-128605216D01*
X165966376Y-128769188D01*
X166001000Y-128943259D01*
X166001000Y-129120741D01*
X165966376Y-129294812D01*
X165898456Y-129458784D01*
X165799853Y-129606354D01*
X165674354Y-129731853D01*
X165526784Y-129830456D01*
X165362812Y-129898376D01*
X165213512Y-129928073D01*
X165188742Y-129933000D01*
X165011258Y-129933000D01*
X164986488Y-129928073D01*
X164837188Y-129898376D01*
X164673216Y-129830456D01*
X164525646Y-129731853D01*
X164400147Y-129606354D01*
X164301544Y-129458784D01*
X164233624Y-129294812D01*
X164199000Y-129120741D01*
X164199000Y-128943259D01*
X164233624Y-128769188D01*
X164301544Y-128605216D01*
X164400147Y-128457646D01*
X164525646Y-128332147D01*
X164673216Y-128233544D01*
X164837188Y-128165624D01*
X164986488Y-128135927D01*
X165011258Y-128131000D01*
X165188742Y-128131000D01*
X165213512Y-128135927D01*
G37*
G36*
X162673512Y-128135927D02*
G01*
X162822812Y-128165624D01*
X162986784Y-128233544D01*
X163134354Y-128332147D01*
X163259853Y-128457646D01*
X163358456Y-128605216D01*
X163426376Y-128769188D01*
X163461000Y-128943259D01*
X163461000Y-129120741D01*
X163426376Y-129294812D01*
X163358456Y-129458784D01*
X163259853Y-129606354D01*
X163134354Y-129731853D01*
X162986784Y-129830456D01*
X162822812Y-129898376D01*
X162673512Y-129928073D01*
X162648742Y-129933000D01*
X162471258Y-129933000D01*
X162446488Y-129928073D01*
X162297188Y-129898376D01*
X162133216Y-129830456D01*
X161985646Y-129731853D01*
X161860147Y-129606354D01*
X161761544Y-129458784D01*
X161693624Y-129294812D01*
X161659000Y-129120741D01*
X161659000Y-128943259D01*
X161693624Y-128769188D01*
X161761544Y-128605216D01*
X161860147Y-128457646D01*
X161985646Y-128332147D01*
X162133216Y-128233544D01*
X162297188Y-128165624D01*
X162446488Y-128135927D01*
X162471258Y-128131000D01*
X162648742Y-128131000D01*
X162673512Y-128135927D01*
G37*
G36*
X195693512Y-128135927D02*
G01*
X195842812Y-128165624D01*
X196006784Y-128233544D01*
X196154354Y-128332147D01*
X196279853Y-128457646D01*
X196378456Y-128605216D01*
X196446376Y-128769188D01*
X196481000Y-128943259D01*
X196481000Y-129120741D01*
X196446376Y-129294812D01*
X196378456Y-129458784D01*
X196279853Y-129606354D01*
X196154354Y-129731853D01*
X196006784Y-129830456D01*
X195842812Y-129898376D01*
X195693512Y-129928073D01*
X195668742Y-129933000D01*
X195491258Y-129933000D01*
X195466488Y-129928073D01*
X195317188Y-129898376D01*
X195153216Y-129830456D01*
X195005646Y-129731853D01*
X194880147Y-129606354D01*
X194781544Y-129458784D01*
X194713624Y-129294812D01*
X194679000Y-129120741D01*
X194679000Y-128943259D01*
X194713624Y-128769188D01*
X194781544Y-128605216D01*
X194880147Y-128457646D01*
X195005646Y-128332147D01*
X195153216Y-128233544D01*
X195317188Y-128165624D01*
X195466488Y-128135927D01*
X195491258Y-128131000D01*
X195668742Y-128131000D01*
X195693512Y-128135927D01*
G37*
G36*
X157593512Y-128135927D02*
G01*
X157742812Y-128165624D01*
X157906784Y-128233544D01*
X158054354Y-128332147D01*
X158179853Y-128457646D01*
X158278456Y-128605216D01*
X158346376Y-128769188D01*
X158381000Y-128943259D01*
X158381000Y-129120741D01*
X158346376Y-129294812D01*
X158278456Y-129458784D01*
X158179853Y-129606354D01*
X158054354Y-129731853D01*
X157906784Y-129830456D01*
X157742812Y-129898376D01*
X157593512Y-129928073D01*
X157568742Y-129933000D01*
X157391258Y-129933000D01*
X157366488Y-129928073D01*
X157217188Y-129898376D01*
X157053216Y-129830456D01*
X156905646Y-129731853D01*
X156780147Y-129606354D01*
X156681544Y-129458784D01*
X156613624Y-129294812D01*
X156579000Y-129120741D01*
X156579000Y-128943259D01*
X156613624Y-128769188D01*
X156681544Y-128605216D01*
X156780147Y-128457646D01*
X156905646Y-128332147D01*
X157053216Y-128233544D01*
X157217188Y-128165624D01*
X157366488Y-128135927D01*
X157391258Y-128131000D01*
X157568742Y-128131000D01*
X157593512Y-128135927D01*
G37*
G36*
X209181000Y-129933000D02*
G01*
X207379000Y-129933000D01*
X207379000Y-128131000D01*
X209181000Y-128131000D01*
X209181000Y-129933000D01*
G37*
G36*
X148607400Y-129251200D02*
G01*
X147605400Y-129251200D01*
X147605400Y-127949200D01*
X148607400Y-127949200D01*
X148607400Y-129251200D01*
G37*
G36*
X145307400Y-129251200D02*
G01*
X144305400Y-129251200D01*
X144305400Y-127949200D01*
X145307400Y-127949200D01*
X145307400Y-129251200D01*
G37*
M02*
