G04 #@! TF.GenerationSoftware,KiCad,Pcbnew,(5.1.5)-3*
G04 #@! TF.CreationDate,2020-04-02T15:24:23+01:00*
G04 #@! TF.ProjectId,STM32L152_Dev_Board,53544d33-324c-4313-9532-5f4465765f42,rev?*
G04 #@! TF.SameCoordinates,Original*
G04 #@! TF.FileFunction,Copper,L2,Bot*
G04 #@! TF.FilePolarity,Positive*
%FSLAX46Y46*%
G04 Gerber Fmt 4.6, Leading zero omitted, Abs format (unit mm)*
G04 Created by KiCad (PCBNEW (5.1.5)-3) date 2020-04-02 15:24:23*
%MOMM*%
%LPD*%
G04 APERTURE LIST*
%ADD10R,1.700000X1.700000*%
%ADD11O,1.700000X1.700000*%
%ADD12C,1.700000*%
%ADD13C,0.800000*%
%ADD14C,0.400000*%
%ADD15C,0.250000*%
%ADD16C,0.254000*%
G04 APERTURE END LIST*
D10*
X208280000Y-149352000D03*
X208280000Y-129032000D03*
D11*
X203200000Y-149352000D03*
X200660000Y-149352000D03*
X198120000Y-149352000D03*
X195580000Y-149352000D03*
X193040000Y-149352000D03*
X190500000Y-149352000D03*
X187960000Y-149352000D03*
X185420000Y-149352000D03*
X182880000Y-149352000D03*
X180340000Y-149352000D03*
X177800000Y-149352000D03*
X175260000Y-149352000D03*
X172720000Y-149352000D03*
X170180000Y-149352000D03*
X167640000Y-149352000D03*
X165100000Y-149352000D03*
X162560000Y-149352000D03*
X160020000Y-149352000D03*
X157480000Y-149352000D03*
X154940000Y-149352000D03*
D10*
X152400000Y-149352000D03*
D11*
X157480000Y-129032000D03*
X160020000Y-129032000D03*
X162560000Y-129032000D03*
X165100000Y-129032000D03*
X167640000Y-129032000D03*
X170180000Y-129032000D03*
X172720000Y-129032000D03*
X175260000Y-129032000D03*
X177800000Y-129032000D03*
X180340000Y-129032000D03*
X182880000Y-129032000D03*
X185420000Y-129032000D03*
X187960000Y-129032000D03*
X190500000Y-129032000D03*
X193040000Y-129032000D03*
X195580000Y-129032000D03*
X198120000Y-129032000D03*
X200660000Y-129032000D03*
D10*
X203200000Y-129032000D03*
X147878800Y-141986000D03*
D11*
X145338800Y-141986000D03*
X147878800Y-139446000D03*
X145338800Y-139446000D03*
X147878800Y-136906000D03*
X145338800Y-136906000D03*
X147878800Y-134366000D03*
X145338800Y-134366000D03*
X147878800Y-131826000D03*
X145338800Y-131826000D03*
D12*
X206502000Y-135636000D03*
X206502000Y-138176000D03*
X206502000Y-140716000D03*
D10*
X206502000Y-143256000D03*
D13*
X190647000Y-135870000D03*
X199390000Y-135890000D03*
X183600000Y-139000000D03*
X185200000Y-141400000D03*
X182000000Y-138000000D03*
X158242000Y-135128000D03*
X174498000Y-134620000D03*
X185200000Y-138000000D03*
X187325000Y-133223000D03*
X172466000Y-142240000D03*
X191262000Y-145542000D03*
X200406000Y-141478000D03*
X200406000Y-136652000D03*
X193929000Y-144780000D03*
X172085000Y-136398000D03*
X182000000Y-141400000D03*
X191700000Y-147700000D03*
X155400000Y-130000000D03*
X164338000Y-143256000D03*
X193548000Y-133350000D03*
X205251999Y-133369999D03*
X187452000Y-143256000D03*
X173609000Y-133731000D03*
X161798000Y-133731000D03*
X177673000Y-142113000D03*
X156972000Y-131572000D03*
X150368000Y-147574000D03*
X187198000Y-135128000D03*
X189230000Y-137668000D03*
X178739800Y-140126750D03*
X195795900Y-140119100D03*
D14*
X190647000Y-135870000D02*
X199370000Y-135870000D01*
X199370000Y-135870000D02*
X199390000Y-135890000D01*
X205232000Y-133350000D02*
X205251999Y-133369999D01*
X193548000Y-133350000D02*
X205232000Y-133350000D01*
X187452000Y-143256000D02*
X206502000Y-143256000D01*
X177800000Y-143256000D02*
X187452000Y-143256000D01*
X173609000Y-133731000D02*
X161798000Y-133731000D01*
X164338000Y-143256000D02*
X177673000Y-143256000D01*
X177673000Y-142113000D02*
X177673000Y-143256000D01*
X156972000Y-131572000D02*
X204450000Y-131572000D01*
X206990000Y-129032000D02*
X208280000Y-129032000D01*
X204450000Y-131572000D02*
X206990000Y-129032000D01*
X150818315Y-146558000D02*
X206800000Y-146558000D01*
X150368000Y-147574000D02*
X150368000Y-147008315D01*
X150368000Y-147008315D02*
X150818315Y-146558000D01*
X208280000Y-148038000D02*
X208280000Y-149352000D01*
X206800000Y-146558000D02*
X208280000Y-148038000D01*
D15*
X205594001Y-134728001D02*
X206502000Y-135636000D01*
X187597999Y-134728001D02*
X205594001Y-134728001D01*
X187198000Y-135128000D02*
X187597999Y-134728001D01*
X205299919Y-138176000D02*
X206502000Y-138176000D01*
X204574918Y-138901001D02*
X205299919Y-138176000D01*
X190151999Y-138901001D02*
X204574918Y-138901001D01*
X189774999Y-138524001D02*
X190151999Y-138901001D01*
X189774999Y-138212999D02*
X189774999Y-138524001D01*
X189230000Y-137668000D02*
X189774999Y-138212999D01*
X178739800Y-140126750D02*
X195788250Y-140126750D01*
X195788250Y-140126750D02*
X195795900Y-140119100D01*
D16*
G36*
X207051938Y-147990805D02*
G01*
X206978815Y-148050815D01*
X206899463Y-148147506D01*
X206840498Y-148257820D01*
X206804188Y-148377518D01*
X206791928Y-148502000D01*
X206791928Y-150202000D01*
X206804188Y-150326482D01*
X206840498Y-150446180D01*
X206899463Y-150556494D01*
X206978815Y-150653185D01*
X207054137Y-150715000D01*
X203789918Y-150715000D01*
X203903411Y-150667990D01*
X204146632Y-150505475D01*
X204353475Y-150298632D01*
X204515990Y-150055411D01*
X204627932Y-149785158D01*
X204685000Y-149498260D01*
X204685000Y-149205740D01*
X204627932Y-148918842D01*
X204515990Y-148648589D01*
X204353475Y-148405368D01*
X204146632Y-148198525D01*
X203903411Y-148036010D01*
X203633158Y-147924068D01*
X203346260Y-147867000D01*
X203053740Y-147867000D01*
X202766842Y-147924068D01*
X202496589Y-148036010D01*
X202253368Y-148198525D01*
X202046525Y-148405368D01*
X201930000Y-148579760D01*
X201813475Y-148405368D01*
X201606632Y-148198525D01*
X201363411Y-148036010D01*
X201093158Y-147924068D01*
X200806260Y-147867000D01*
X200513740Y-147867000D01*
X200226842Y-147924068D01*
X199956589Y-148036010D01*
X199713368Y-148198525D01*
X199506525Y-148405368D01*
X199390000Y-148579760D01*
X199273475Y-148405368D01*
X199066632Y-148198525D01*
X198823411Y-148036010D01*
X198553158Y-147924068D01*
X198266260Y-147867000D01*
X197973740Y-147867000D01*
X197686842Y-147924068D01*
X197416589Y-148036010D01*
X197173368Y-148198525D01*
X196966525Y-148405368D01*
X196850000Y-148579760D01*
X196733475Y-148405368D01*
X196526632Y-148198525D01*
X196283411Y-148036010D01*
X196013158Y-147924068D01*
X195726260Y-147867000D01*
X195433740Y-147867000D01*
X195146842Y-147924068D01*
X194876589Y-148036010D01*
X194633368Y-148198525D01*
X194426525Y-148405368D01*
X194310000Y-148579760D01*
X194193475Y-148405368D01*
X193986632Y-148198525D01*
X193743411Y-148036010D01*
X193473158Y-147924068D01*
X193186260Y-147867000D01*
X192893740Y-147867000D01*
X192606842Y-147924068D01*
X192336589Y-148036010D01*
X192093368Y-148198525D01*
X191886525Y-148405368D01*
X191770000Y-148579760D01*
X191653475Y-148405368D01*
X191446632Y-148198525D01*
X191203411Y-148036010D01*
X190933158Y-147924068D01*
X190646260Y-147867000D01*
X190353740Y-147867000D01*
X190066842Y-147924068D01*
X189796589Y-148036010D01*
X189553368Y-148198525D01*
X189346525Y-148405368D01*
X189230000Y-148579760D01*
X189113475Y-148405368D01*
X188906632Y-148198525D01*
X188663411Y-148036010D01*
X188393158Y-147924068D01*
X188106260Y-147867000D01*
X187813740Y-147867000D01*
X187526842Y-147924068D01*
X187256589Y-148036010D01*
X187013368Y-148198525D01*
X186806525Y-148405368D01*
X186690000Y-148579760D01*
X186573475Y-148405368D01*
X186366632Y-148198525D01*
X186123411Y-148036010D01*
X185853158Y-147924068D01*
X185566260Y-147867000D01*
X185273740Y-147867000D01*
X184986842Y-147924068D01*
X184716589Y-148036010D01*
X184473368Y-148198525D01*
X184266525Y-148405368D01*
X184150000Y-148579760D01*
X184033475Y-148405368D01*
X183826632Y-148198525D01*
X183583411Y-148036010D01*
X183313158Y-147924068D01*
X183026260Y-147867000D01*
X182733740Y-147867000D01*
X182446842Y-147924068D01*
X182176589Y-148036010D01*
X181933368Y-148198525D01*
X181726525Y-148405368D01*
X181610000Y-148579760D01*
X181493475Y-148405368D01*
X181286632Y-148198525D01*
X181043411Y-148036010D01*
X180773158Y-147924068D01*
X180486260Y-147867000D01*
X180193740Y-147867000D01*
X179906842Y-147924068D01*
X179636589Y-148036010D01*
X179393368Y-148198525D01*
X179186525Y-148405368D01*
X179070000Y-148579760D01*
X178953475Y-148405368D01*
X178746632Y-148198525D01*
X178503411Y-148036010D01*
X178233158Y-147924068D01*
X177946260Y-147867000D01*
X177653740Y-147867000D01*
X177366842Y-147924068D01*
X177096589Y-148036010D01*
X176853368Y-148198525D01*
X176646525Y-148405368D01*
X176530000Y-148579760D01*
X176413475Y-148405368D01*
X176206632Y-148198525D01*
X175963411Y-148036010D01*
X175693158Y-147924068D01*
X175406260Y-147867000D01*
X175113740Y-147867000D01*
X174826842Y-147924068D01*
X174556589Y-148036010D01*
X174313368Y-148198525D01*
X174106525Y-148405368D01*
X173990000Y-148579760D01*
X173873475Y-148405368D01*
X173666632Y-148198525D01*
X173423411Y-148036010D01*
X173153158Y-147924068D01*
X172866260Y-147867000D01*
X172573740Y-147867000D01*
X172286842Y-147924068D01*
X172016589Y-148036010D01*
X171773368Y-148198525D01*
X171566525Y-148405368D01*
X171450000Y-148579760D01*
X171333475Y-148405368D01*
X171126632Y-148198525D01*
X170883411Y-148036010D01*
X170613158Y-147924068D01*
X170326260Y-147867000D01*
X170033740Y-147867000D01*
X169746842Y-147924068D01*
X169476589Y-148036010D01*
X169233368Y-148198525D01*
X169026525Y-148405368D01*
X168910000Y-148579760D01*
X168793475Y-148405368D01*
X168586632Y-148198525D01*
X168343411Y-148036010D01*
X168073158Y-147924068D01*
X167786260Y-147867000D01*
X167493740Y-147867000D01*
X167206842Y-147924068D01*
X166936589Y-148036010D01*
X166693368Y-148198525D01*
X166486525Y-148405368D01*
X166370000Y-148579760D01*
X166253475Y-148405368D01*
X166046632Y-148198525D01*
X165803411Y-148036010D01*
X165533158Y-147924068D01*
X165246260Y-147867000D01*
X164953740Y-147867000D01*
X164666842Y-147924068D01*
X164396589Y-148036010D01*
X164153368Y-148198525D01*
X163946525Y-148405368D01*
X163830000Y-148579760D01*
X163713475Y-148405368D01*
X163506632Y-148198525D01*
X163263411Y-148036010D01*
X162993158Y-147924068D01*
X162706260Y-147867000D01*
X162413740Y-147867000D01*
X162126842Y-147924068D01*
X161856589Y-148036010D01*
X161613368Y-148198525D01*
X161406525Y-148405368D01*
X161290000Y-148579760D01*
X161173475Y-148405368D01*
X160966632Y-148198525D01*
X160723411Y-148036010D01*
X160453158Y-147924068D01*
X160166260Y-147867000D01*
X159873740Y-147867000D01*
X159586842Y-147924068D01*
X159316589Y-148036010D01*
X159073368Y-148198525D01*
X158866525Y-148405368D01*
X158750000Y-148579760D01*
X158633475Y-148405368D01*
X158426632Y-148198525D01*
X158183411Y-148036010D01*
X157913158Y-147924068D01*
X157626260Y-147867000D01*
X157333740Y-147867000D01*
X157046842Y-147924068D01*
X156776589Y-148036010D01*
X156533368Y-148198525D01*
X156326525Y-148405368D01*
X156204805Y-148587534D01*
X156135178Y-148470645D01*
X155940269Y-148254412D01*
X155706920Y-148080359D01*
X155444099Y-147955175D01*
X155296890Y-147910524D01*
X155067000Y-148031845D01*
X155067000Y-149225000D01*
X155087000Y-149225000D01*
X155087000Y-149479000D01*
X155067000Y-149479000D01*
X155067000Y-149499000D01*
X154813000Y-149499000D01*
X154813000Y-149479000D01*
X154793000Y-149479000D01*
X154793000Y-149225000D01*
X154813000Y-149225000D01*
X154813000Y-148031845D01*
X154583110Y-147910524D01*
X154435901Y-147955175D01*
X154173080Y-148080359D01*
X153939731Y-148254412D01*
X153863966Y-148338466D01*
X153839502Y-148257820D01*
X153780537Y-148147506D01*
X153701185Y-148050815D01*
X153604494Y-147971463D01*
X153494180Y-147912498D01*
X153374482Y-147876188D01*
X153250000Y-147863928D01*
X151550000Y-147863928D01*
X151425518Y-147876188D01*
X151354137Y-147897841D01*
X151363226Y-147875898D01*
X151403000Y-147675939D01*
X151403000Y-147472061D01*
X151387274Y-147393000D01*
X206454133Y-147393000D01*
X207051938Y-147990805D01*
G37*
X207051938Y-147990805D02*
X206978815Y-148050815D01*
X206899463Y-148147506D01*
X206840498Y-148257820D01*
X206804188Y-148377518D01*
X206791928Y-148502000D01*
X206791928Y-150202000D01*
X206804188Y-150326482D01*
X206840498Y-150446180D01*
X206899463Y-150556494D01*
X206978815Y-150653185D01*
X207054137Y-150715000D01*
X203789918Y-150715000D01*
X203903411Y-150667990D01*
X204146632Y-150505475D01*
X204353475Y-150298632D01*
X204515990Y-150055411D01*
X204627932Y-149785158D01*
X204685000Y-149498260D01*
X204685000Y-149205740D01*
X204627932Y-148918842D01*
X204515990Y-148648589D01*
X204353475Y-148405368D01*
X204146632Y-148198525D01*
X203903411Y-148036010D01*
X203633158Y-147924068D01*
X203346260Y-147867000D01*
X203053740Y-147867000D01*
X202766842Y-147924068D01*
X202496589Y-148036010D01*
X202253368Y-148198525D01*
X202046525Y-148405368D01*
X201930000Y-148579760D01*
X201813475Y-148405368D01*
X201606632Y-148198525D01*
X201363411Y-148036010D01*
X201093158Y-147924068D01*
X200806260Y-147867000D01*
X200513740Y-147867000D01*
X200226842Y-147924068D01*
X199956589Y-148036010D01*
X199713368Y-148198525D01*
X199506525Y-148405368D01*
X199390000Y-148579760D01*
X199273475Y-148405368D01*
X199066632Y-148198525D01*
X198823411Y-148036010D01*
X198553158Y-147924068D01*
X198266260Y-147867000D01*
X197973740Y-147867000D01*
X197686842Y-147924068D01*
X197416589Y-148036010D01*
X197173368Y-148198525D01*
X196966525Y-148405368D01*
X196850000Y-148579760D01*
X196733475Y-148405368D01*
X196526632Y-148198525D01*
X196283411Y-148036010D01*
X196013158Y-147924068D01*
X195726260Y-147867000D01*
X195433740Y-147867000D01*
X195146842Y-147924068D01*
X194876589Y-148036010D01*
X194633368Y-148198525D01*
X194426525Y-148405368D01*
X194310000Y-148579760D01*
X194193475Y-148405368D01*
X193986632Y-148198525D01*
X193743411Y-148036010D01*
X193473158Y-147924068D01*
X193186260Y-147867000D01*
X192893740Y-147867000D01*
X192606842Y-147924068D01*
X192336589Y-148036010D01*
X192093368Y-148198525D01*
X191886525Y-148405368D01*
X191770000Y-148579760D01*
X191653475Y-148405368D01*
X191446632Y-148198525D01*
X191203411Y-148036010D01*
X190933158Y-147924068D01*
X190646260Y-147867000D01*
X190353740Y-147867000D01*
X190066842Y-147924068D01*
X189796589Y-148036010D01*
X189553368Y-148198525D01*
X189346525Y-148405368D01*
X189230000Y-148579760D01*
X189113475Y-148405368D01*
X188906632Y-148198525D01*
X188663411Y-148036010D01*
X188393158Y-147924068D01*
X188106260Y-147867000D01*
X187813740Y-147867000D01*
X187526842Y-147924068D01*
X187256589Y-148036010D01*
X187013368Y-148198525D01*
X186806525Y-148405368D01*
X186690000Y-148579760D01*
X186573475Y-148405368D01*
X186366632Y-148198525D01*
X186123411Y-148036010D01*
X185853158Y-147924068D01*
X185566260Y-147867000D01*
X185273740Y-147867000D01*
X184986842Y-147924068D01*
X184716589Y-148036010D01*
X184473368Y-148198525D01*
X184266525Y-148405368D01*
X184150000Y-148579760D01*
X184033475Y-148405368D01*
X183826632Y-148198525D01*
X183583411Y-148036010D01*
X183313158Y-147924068D01*
X183026260Y-147867000D01*
X182733740Y-147867000D01*
X182446842Y-147924068D01*
X182176589Y-148036010D01*
X181933368Y-148198525D01*
X181726525Y-148405368D01*
X181610000Y-148579760D01*
X181493475Y-148405368D01*
X181286632Y-148198525D01*
X181043411Y-148036010D01*
X180773158Y-147924068D01*
X180486260Y-147867000D01*
X180193740Y-147867000D01*
X179906842Y-147924068D01*
X179636589Y-148036010D01*
X179393368Y-148198525D01*
X179186525Y-148405368D01*
X179070000Y-148579760D01*
X178953475Y-148405368D01*
X178746632Y-148198525D01*
X178503411Y-148036010D01*
X178233158Y-147924068D01*
X177946260Y-147867000D01*
X177653740Y-147867000D01*
X177366842Y-147924068D01*
X177096589Y-148036010D01*
X176853368Y-148198525D01*
X176646525Y-148405368D01*
X176530000Y-148579760D01*
X176413475Y-148405368D01*
X176206632Y-148198525D01*
X175963411Y-148036010D01*
X175693158Y-147924068D01*
X175406260Y-147867000D01*
X175113740Y-147867000D01*
X174826842Y-147924068D01*
X174556589Y-148036010D01*
X174313368Y-148198525D01*
X174106525Y-148405368D01*
X173990000Y-148579760D01*
X173873475Y-148405368D01*
X173666632Y-148198525D01*
X173423411Y-148036010D01*
X173153158Y-147924068D01*
X172866260Y-147867000D01*
X172573740Y-147867000D01*
X172286842Y-147924068D01*
X172016589Y-148036010D01*
X171773368Y-148198525D01*
X171566525Y-148405368D01*
X171450000Y-148579760D01*
X171333475Y-148405368D01*
X171126632Y-148198525D01*
X170883411Y-148036010D01*
X170613158Y-147924068D01*
X170326260Y-147867000D01*
X170033740Y-147867000D01*
X169746842Y-147924068D01*
X169476589Y-148036010D01*
X169233368Y-148198525D01*
X169026525Y-148405368D01*
X168910000Y-148579760D01*
X168793475Y-148405368D01*
X168586632Y-148198525D01*
X168343411Y-148036010D01*
X168073158Y-147924068D01*
X167786260Y-147867000D01*
X167493740Y-147867000D01*
X167206842Y-147924068D01*
X166936589Y-148036010D01*
X166693368Y-148198525D01*
X166486525Y-148405368D01*
X166370000Y-148579760D01*
X166253475Y-148405368D01*
X166046632Y-148198525D01*
X165803411Y-148036010D01*
X165533158Y-147924068D01*
X165246260Y-147867000D01*
X164953740Y-147867000D01*
X164666842Y-147924068D01*
X164396589Y-148036010D01*
X164153368Y-148198525D01*
X163946525Y-148405368D01*
X163830000Y-148579760D01*
X163713475Y-148405368D01*
X163506632Y-148198525D01*
X163263411Y-148036010D01*
X162993158Y-147924068D01*
X162706260Y-147867000D01*
X162413740Y-147867000D01*
X162126842Y-147924068D01*
X161856589Y-148036010D01*
X161613368Y-148198525D01*
X161406525Y-148405368D01*
X161290000Y-148579760D01*
X161173475Y-148405368D01*
X160966632Y-148198525D01*
X160723411Y-148036010D01*
X160453158Y-147924068D01*
X160166260Y-147867000D01*
X159873740Y-147867000D01*
X159586842Y-147924068D01*
X159316589Y-148036010D01*
X159073368Y-148198525D01*
X158866525Y-148405368D01*
X158750000Y-148579760D01*
X158633475Y-148405368D01*
X158426632Y-148198525D01*
X158183411Y-148036010D01*
X157913158Y-147924068D01*
X157626260Y-147867000D01*
X157333740Y-147867000D01*
X157046842Y-147924068D01*
X156776589Y-148036010D01*
X156533368Y-148198525D01*
X156326525Y-148405368D01*
X156204805Y-148587534D01*
X156135178Y-148470645D01*
X155940269Y-148254412D01*
X155706920Y-148080359D01*
X155444099Y-147955175D01*
X155296890Y-147910524D01*
X155067000Y-148031845D01*
X155067000Y-149225000D01*
X155087000Y-149225000D01*
X155087000Y-149479000D01*
X155067000Y-149479000D01*
X155067000Y-149499000D01*
X154813000Y-149499000D01*
X154813000Y-149479000D01*
X154793000Y-149479000D01*
X154793000Y-149225000D01*
X154813000Y-149225000D01*
X154813000Y-148031845D01*
X154583110Y-147910524D01*
X154435901Y-147955175D01*
X154173080Y-148080359D01*
X153939731Y-148254412D01*
X153863966Y-148338466D01*
X153839502Y-148257820D01*
X153780537Y-148147506D01*
X153701185Y-148050815D01*
X153604494Y-147971463D01*
X153494180Y-147912498D01*
X153374482Y-147876188D01*
X153250000Y-147863928D01*
X151550000Y-147863928D01*
X151425518Y-147876188D01*
X151354137Y-147897841D01*
X151363226Y-147875898D01*
X151403000Y-147675939D01*
X151403000Y-147472061D01*
X151387274Y-147393000D01*
X206454133Y-147393000D01*
X207051938Y-147990805D01*
G36*
X157123678Y-127588784D02*
G01*
X157046842Y-127604068D01*
X156776589Y-127716010D01*
X156533368Y-127878525D01*
X156326525Y-128085368D01*
X156164010Y-128328589D01*
X156052068Y-128598842D01*
X155995000Y-128885740D01*
X155995000Y-129178260D01*
X156052068Y-129465158D01*
X156164010Y-129735411D01*
X156326525Y-129978632D01*
X156533368Y-130185475D01*
X156776589Y-130347990D01*
X157046842Y-130459932D01*
X157333740Y-130517000D01*
X157626260Y-130517000D01*
X157913158Y-130459932D01*
X158183411Y-130347990D01*
X158426632Y-130185475D01*
X158633475Y-129978632D01*
X158755195Y-129796466D01*
X158824822Y-129913355D01*
X159019731Y-130129588D01*
X159253080Y-130303641D01*
X159515901Y-130428825D01*
X159663110Y-130473476D01*
X159893000Y-130352155D01*
X159893000Y-129159000D01*
X159873000Y-129159000D01*
X159873000Y-128905000D01*
X159893000Y-128905000D01*
X159893000Y-128885000D01*
X160147000Y-128885000D01*
X160147000Y-128905000D01*
X160167000Y-128905000D01*
X160167000Y-129159000D01*
X160147000Y-129159000D01*
X160147000Y-130352155D01*
X160376890Y-130473476D01*
X160524099Y-130428825D01*
X160786920Y-130303641D01*
X161020269Y-130129588D01*
X161215178Y-129913355D01*
X161284805Y-129796466D01*
X161406525Y-129978632D01*
X161613368Y-130185475D01*
X161856589Y-130347990D01*
X162126842Y-130459932D01*
X162413740Y-130517000D01*
X162706260Y-130517000D01*
X162993158Y-130459932D01*
X163263411Y-130347990D01*
X163506632Y-130185475D01*
X163713475Y-129978632D01*
X163830000Y-129804240D01*
X163946525Y-129978632D01*
X164153368Y-130185475D01*
X164396589Y-130347990D01*
X164666842Y-130459932D01*
X164953740Y-130517000D01*
X165246260Y-130517000D01*
X165533158Y-130459932D01*
X165803411Y-130347990D01*
X166046632Y-130185475D01*
X166253475Y-129978632D01*
X166370000Y-129804240D01*
X166486525Y-129978632D01*
X166693368Y-130185475D01*
X166936589Y-130347990D01*
X167206842Y-130459932D01*
X167493740Y-130517000D01*
X167786260Y-130517000D01*
X168073158Y-130459932D01*
X168343411Y-130347990D01*
X168586632Y-130185475D01*
X168793475Y-129978632D01*
X168910000Y-129804240D01*
X169026525Y-129978632D01*
X169233368Y-130185475D01*
X169476589Y-130347990D01*
X169746842Y-130459932D01*
X170033740Y-130517000D01*
X170326260Y-130517000D01*
X170613158Y-130459932D01*
X170883411Y-130347990D01*
X171126632Y-130185475D01*
X171333475Y-129978632D01*
X171450000Y-129804240D01*
X171566525Y-129978632D01*
X171773368Y-130185475D01*
X172016589Y-130347990D01*
X172286842Y-130459932D01*
X172573740Y-130517000D01*
X172866260Y-130517000D01*
X173153158Y-130459932D01*
X173423411Y-130347990D01*
X173666632Y-130185475D01*
X173873475Y-129978632D01*
X173990000Y-129804240D01*
X174106525Y-129978632D01*
X174313368Y-130185475D01*
X174556589Y-130347990D01*
X174826842Y-130459932D01*
X175113740Y-130517000D01*
X175406260Y-130517000D01*
X175693158Y-130459932D01*
X175963411Y-130347990D01*
X176206632Y-130185475D01*
X176413475Y-129978632D01*
X176530000Y-129804240D01*
X176646525Y-129978632D01*
X176853368Y-130185475D01*
X177096589Y-130347990D01*
X177366842Y-130459932D01*
X177653740Y-130517000D01*
X177946260Y-130517000D01*
X178233158Y-130459932D01*
X178503411Y-130347990D01*
X178746632Y-130185475D01*
X178953475Y-129978632D01*
X179070000Y-129804240D01*
X179186525Y-129978632D01*
X179393368Y-130185475D01*
X179636589Y-130347990D01*
X179906842Y-130459932D01*
X180193740Y-130517000D01*
X180486260Y-130517000D01*
X180773158Y-130459932D01*
X181043411Y-130347990D01*
X181286632Y-130185475D01*
X181493475Y-129978632D01*
X181610000Y-129804240D01*
X181726525Y-129978632D01*
X181933368Y-130185475D01*
X182176589Y-130347990D01*
X182446842Y-130459932D01*
X182733740Y-130517000D01*
X183026260Y-130517000D01*
X183313158Y-130459932D01*
X183583411Y-130347990D01*
X183826632Y-130185475D01*
X184033475Y-129978632D01*
X184150000Y-129804240D01*
X184266525Y-129978632D01*
X184473368Y-130185475D01*
X184716589Y-130347990D01*
X184986842Y-130459932D01*
X185273740Y-130517000D01*
X185566260Y-130517000D01*
X185853158Y-130459932D01*
X186123411Y-130347990D01*
X186366632Y-130185475D01*
X186573475Y-129978632D01*
X186690000Y-129804240D01*
X186806525Y-129978632D01*
X187013368Y-130185475D01*
X187256589Y-130347990D01*
X187526842Y-130459932D01*
X187813740Y-130517000D01*
X188106260Y-130517000D01*
X188393158Y-130459932D01*
X188663411Y-130347990D01*
X188906632Y-130185475D01*
X189113475Y-129978632D01*
X189235195Y-129796466D01*
X189304822Y-129913355D01*
X189499731Y-130129588D01*
X189733080Y-130303641D01*
X189995901Y-130428825D01*
X190143110Y-130473476D01*
X190373000Y-130352155D01*
X190373000Y-129159000D01*
X190353000Y-129159000D01*
X190353000Y-128905000D01*
X190373000Y-128905000D01*
X190373000Y-128885000D01*
X190627000Y-128885000D01*
X190627000Y-128905000D01*
X190647000Y-128905000D01*
X190647000Y-129159000D01*
X190627000Y-129159000D01*
X190627000Y-130352155D01*
X190856890Y-130473476D01*
X191004099Y-130428825D01*
X191266920Y-130303641D01*
X191500269Y-130129588D01*
X191695178Y-129913355D01*
X191764805Y-129796466D01*
X191886525Y-129978632D01*
X192093368Y-130185475D01*
X192336589Y-130347990D01*
X192606842Y-130459932D01*
X192893740Y-130517000D01*
X193186260Y-130517000D01*
X193473158Y-130459932D01*
X193743411Y-130347990D01*
X193986632Y-130185475D01*
X194193475Y-129978632D01*
X194310000Y-129804240D01*
X194426525Y-129978632D01*
X194633368Y-130185475D01*
X194876589Y-130347990D01*
X195146842Y-130459932D01*
X195433740Y-130517000D01*
X195726260Y-130517000D01*
X196013158Y-130459932D01*
X196283411Y-130347990D01*
X196526632Y-130185475D01*
X196733475Y-129978632D01*
X196850000Y-129804240D01*
X196966525Y-129978632D01*
X197173368Y-130185475D01*
X197416589Y-130347990D01*
X197686842Y-130459932D01*
X197973740Y-130517000D01*
X198266260Y-130517000D01*
X198553158Y-130459932D01*
X198823411Y-130347990D01*
X199066632Y-130185475D01*
X199273475Y-129978632D01*
X199390000Y-129804240D01*
X199506525Y-129978632D01*
X199713368Y-130185475D01*
X199956589Y-130347990D01*
X200226842Y-130459932D01*
X200513740Y-130517000D01*
X200806260Y-130517000D01*
X201093158Y-130459932D01*
X201363411Y-130347990D01*
X201606632Y-130185475D01*
X201738487Y-130053620D01*
X201760498Y-130126180D01*
X201819463Y-130236494D01*
X201898815Y-130333185D01*
X201995506Y-130412537D01*
X202105820Y-130471502D01*
X202225518Y-130507812D01*
X202350000Y-130520072D01*
X204050000Y-130520072D01*
X204174482Y-130507812D01*
X204294180Y-130471502D01*
X204404494Y-130412537D01*
X204501185Y-130333185D01*
X204580537Y-130236494D01*
X204639502Y-130126180D01*
X204675812Y-130006482D01*
X204688072Y-129882000D01*
X204688072Y-128182000D01*
X204675812Y-128057518D01*
X204639502Y-127937820D01*
X204580537Y-127827506D01*
X204501185Y-127730815D01*
X204404494Y-127651463D01*
X204310472Y-127601206D01*
X207168121Y-127601959D01*
X207075506Y-127651463D01*
X206978815Y-127730815D01*
X206899463Y-127827506D01*
X206840498Y-127937820D01*
X206804188Y-128057518D01*
X206791928Y-128182000D01*
X206791928Y-128219512D01*
X206668913Y-128256828D01*
X206523854Y-128334364D01*
X206396709Y-128438709D01*
X206370559Y-128470573D01*
X204104133Y-130737000D01*
X157585285Y-130737000D01*
X157462256Y-130654795D01*
X157273898Y-130576774D01*
X157073939Y-130537000D01*
X156870061Y-130537000D01*
X156670102Y-130576774D01*
X156481744Y-130654795D01*
X156312226Y-130768063D01*
X156168063Y-130912226D01*
X156054795Y-131081744D01*
X155976774Y-131270102D01*
X155937000Y-131470061D01*
X155937000Y-131673939D01*
X155976774Y-131873898D01*
X156054795Y-132062256D01*
X156168063Y-132231774D01*
X156312226Y-132375937D01*
X156481744Y-132489205D01*
X156670102Y-132567226D01*
X156870061Y-132607000D01*
X157073939Y-132607000D01*
X157273898Y-132567226D01*
X157462256Y-132489205D01*
X157585285Y-132407000D01*
X193120018Y-132407000D01*
X193057744Y-132432795D01*
X192888226Y-132546063D01*
X192744063Y-132690226D01*
X192630795Y-132859744D01*
X192552774Y-133048102D01*
X192513000Y-133248061D01*
X192513000Y-133451939D01*
X192552774Y-133651898D01*
X192630795Y-133840256D01*
X192716151Y-133968001D01*
X187635321Y-133968001D01*
X187597998Y-133964325D01*
X187560676Y-133968001D01*
X187560666Y-133968001D01*
X187449013Y-133978998D01*
X187305752Y-134022455D01*
X187173774Y-134093000D01*
X187096061Y-134093000D01*
X186896102Y-134132774D01*
X186707744Y-134210795D01*
X186538226Y-134324063D01*
X186394063Y-134468226D01*
X186280795Y-134637744D01*
X186202774Y-134826102D01*
X186163000Y-135026061D01*
X186163000Y-135229939D01*
X186202774Y-135429898D01*
X186280795Y-135618256D01*
X186394063Y-135787774D01*
X186538226Y-135931937D01*
X186707744Y-136045205D01*
X186896102Y-136123226D01*
X187096061Y-136163000D01*
X187299939Y-136163000D01*
X187499898Y-136123226D01*
X187688256Y-136045205D01*
X187857774Y-135931937D01*
X188001937Y-135787774D01*
X188115205Y-135618256D01*
X188169159Y-135488001D01*
X189684953Y-135488001D01*
X189651774Y-135568102D01*
X189612000Y-135768061D01*
X189612000Y-135971939D01*
X189651774Y-136171898D01*
X189729795Y-136360256D01*
X189843063Y-136529774D01*
X189987226Y-136673937D01*
X190156744Y-136787205D01*
X190345102Y-136865226D01*
X190545061Y-136905000D01*
X190748939Y-136905000D01*
X190948898Y-136865226D01*
X191137256Y-136787205D01*
X191260285Y-136705000D01*
X198746783Y-136705000D01*
X198899744Y-136807205D01*
X199088102Y-136885226D01*
X199288061Y-136925000D01*
X199491939Y-136925000D01*
X199691898Y-136885226D01*
X199880256Y-136807205D01*
X200049774Y-136693937D01*
X200193937Y-136549774D01*
X200307205Y-136380256D01*
X200385226Y-136191898D01*
X200425000Y-135991939D01*
X200425000Y-135788061D01*
X200385226Y-135588102D01*
X200343763Y-135488001D01*
X205017346Y-135488001D01*
X205017000Y-135489740D01*
X205017000Y-135782260D01*
X205074068Y-136069158D01*
X205186010Y-136339411D01*
X205348525Y-136582632D01*
X205555368Y-136789475D01*
X205729760Y-136906000D01*
X205555368Y-137022525D01*
X205348525Y-137229368D01*
X205221091Y-137420087D01*
X205150933Y-137426997D01*
X205007672Y-137470454D01*
X204875643Y-137541026D01*
X204759918Y-137635999D01*
X204736120Y-137664998D01*
X204260117Y-138141001D01*
X190531585Y-138141001D01*
X190524002Y-138064013D01*
X190480545Y-137920752D01*
X190472804Y-137906269D01*
X190409973Y-137788722D01*
X190338798Y-137701996D01*
X190315000Y-137672998D01*
X190286002Y-137649201D01*
X190265000Y-137628198D01*
X190265000Y-137566061D01*
X190225226Y-137366102D01*
X190147205Y-137177744D01*
X190033937Y-137008226D01*
X189889774Y-136864063D01*
X189720256Y-136750795D01*
X189531898Y-136672774D01*
X189331939Y-136633000D01*
X189128061Y-136633000D01*
X188928102Y-136672774D01*
X188739744Y-136750795D01*
X188570226Y-136864063D01*
X188426063Y-137008226D01*
X188312795Y-137177744D01*
X188234774Y-137366102D01*
X188195000Y-137566061D01*
X188195000Y-137769939D01*
X188234774Y-137969898D01*
X188312795Y-138158256D01*
X188426063Y-138327774D01*
X188570226Y-138471937D01*
X188739744Y-138585205D01*
X188928102Y-138663226D01*
X189029131Y-138683322D01*
X189069453Y-138816248D01*
X189140025Y-138948277D01*
X189234998Y-139064002D01*
X189264001Y-139087804D01*
X189542947Y-139366750D01*
X179443511Y-139366750D01*
X179399574Y-139322813D01*
X179230056Y-139209545D01*
X179041698Y-139131524D01*
X178841739Y-139091750D01*
X178637861Y-139091750D01*
X178437902Y-139131524D01*
X178249544Y-139209545D01*
X178080026Y-139322813D01*
X177935863Y-139466976D01*
X177822595Y-139636494D01*
X177744574Y-139824852D01*
X177704800Y-140024811D01*
X177704800Y-140228689D01*
X177744574Y-140428648D01*
X177822595Y-140617006D01*
X177935863Y-140786524D01*
X178080026Y-140930687D01*
X178249544Y-141043955D01*
X178437902Y-141121976D01*
X178637861Y-141161750D01*
X178841739Y-141161750D01*
X179041698Y-141121976D01*
X179230056Y-141043955D01*
X179399574Y-140930687D01*
X179443511Y-140886750D01*
X195099839Y-140886750D01*
X195136126Y-140923037D01*
X195305644Y-141036305D01*
X195494002Y-141114326D01*
X195693961Y-141154100D01*
X195897839Y-141154100D01*
X196097798Y-141114326D01*
X196286156Y-141036305D01*
X196455674Y-140923037D01*
X196594180Y-140784531D01*
X205011389Y-140784531D01*
X205053401Y-141074019D01*
X205151081Y-141349747D01*
X205224528Y-141487157D01*
X205473603Y-141564792D01*
X206322395Y-140716000D01*
X206681605Y-140716000D01*
X207530397Y-141564792D01*
X207779472Y-141487157D01*
X207905371Y-141223117D01*
X207977339Y-140939589D01*
X207992611Y-140647469D01*
X207950599Y-140357981D01*
X207852919Y-140082253D01*
X207779472Y-139944843D01*
X207530397Y-139867208D01*
X206681605Y-140716000D01*
X206322395Y-140716000D01*
X205473603Y-139867208D01*
X205224528Y-139944843D01*
X205098629Y-140208883D01*
X205026661Y-140492411D01*
X205011389Y-140784531D01*
X196594180Y-140784531D01*
X196599837Y-140778874D01*
X196713105Y-140609356D01*
X196791126Y-140420998D01*
X196830900Y-140221039D01*
X196830900Y-140017161D01*
X196791126Y-139817202D01*
X196726425Y-139661001D01*
X204537596Y-139661001D01*
X204574918Y-139664677D01*
X204612240Y-139661001D01*
X204612251Y-139661001D01*
X204723904Y-139650004D01*
X204867165Y-139606547D01*
X204999194Y-139535975D01*
X205114919Y-139441002D01*
X205138721Y-139411999D01*
X205388307Y-139162414D01*
X205555368Y-139329475D01*
X205728729Y-139445311D01*
X205653208Y-139687603D01*
X206502000Y-140536395D01*
X207350792Y-139687603D01*
X207275271Y-139445311D01*
X207448632Y-139329475D01*
X207655475Y-139122632D01*
X207817990Y-138879411D01*
X207929932Y-138609158D01*
X207987000Y-138322260D01*
X207987000Y-138029740D01*
X207929932Y-137742842D01*
X207817990Y-137472589D01*
X207655475Y-137229368D01*
X207448632Y-137022525D01*
X207274240Y-136906000D01*
X207448632Y-136789475D01*
X207655475Y-136582632D01*
X207817990Y-136339411D01*
X207929932Y-136069158D01*
X207987000Y-135782260D01*
X207987000Y-135489740D01*
X207929932Y-135202842D01*
X207817990Y-134932589D01*
X207655475Y-134689368D01*
X207448632Y-134482525D01*
X207205411Y-134320010D01*
X206935158Y-134208068D01*
X206648260Y-134151000D01*
X206355740Y-134151000D01*
X206139016Y-134194109D01*
X206134002Y-134188000D01*
X206018277Y-134093027D01*
X206001598Y-134084111D01*
X206055936Y-134029773D01*
X206169204Y-133860255D01*
X206247225Y-133671897D01*
X206286999Y-133471938D01*
X206286999Y-133268060D01*
X206247225Y-133068101D01*
X206169204Y-132879743D01*
X206055936Y-132710225D01*
X205911773Y-132566062D01*
X205742255Y-132452794D01*
X205553897Y-132374773D01*
X205353938Y-132334999D01*
X205150060Y-132334999D01*
X204950101Y-132374773D01*
X204761743Y-132452794D01*
X204668645Y-132515000D01*
X194161285Y-132515000D01*
X194038256Y-132432795D01*
X193975982Y-132407000D01*
X204408982Y-132407000D01*
X204450000Y-132411040D01*
X204491018Y-132407000D01*
X204491019Y-132407000D01*
X204613689Y-132394918D01*
X204771087Y-132347172D01*
X204916146Y-132269636D01*
X205043291Y-132165291D01*
X205069446Y-132133421D01*
X206929623Y-130273244D01*
X206978815Y-130333185D01*
X207075506Y-130412537D01*
X207185820Y-130471502D01*
X207305518Y-130507812D01*
X207430000Y-130520072D01*
X209015000Y-130520072D01*
X209015001Y-147641758D01*
X208977636Y-147571854D01*
X208873291Y-147444709D01*
X208841428Y-147418560D01*
X207419446Y-145996579D01*
X207393291Y-145964709D01*
X207266146Y-145860364D01*
X207121087Y-145782828D01*
X206963689Y-145735082D01*
X206841019Y-145723000D01*
X206841018Y-145723000D01*
X206800000Y-145718960D01*
X206758982Y-145723000D01*
X150859333Y-145723000D01*
X150818315Y-145718960D01*
X150777297Y-145723000D01*
X150777296Y-145723000D01*
X150654626Y-145735082D01*
X150497228Y-145782828D01*
X150352169Y-145860364D01*
X150225024Y-145964709D01*
X150198873Y-145996574D01*
X149806574Y-146388874D01*
X149774710Y-146415024D01*
X149670365Y-146542169D01*
X149592828Y-146687228D01*
X149545082Y-146844626D01*
X149545082Y-146844627D01*
X149533760Y-146959577D01*
X149450795Y-147083744D01*
X149372774Y-147272102D01*
X149333000Y-147472061D01*
X149333000Y-147675939D01*
X149372774Y-147875898D01*
X149450795Y-148064256D01*
X149564063Y-148233774D01*
X149708226Y-148377937D01*
X149877744Y-148491205D01*
X150066102Y-148569226D01*
X150266061Y-148609000D01*
X150469939Y-148609000D01*
X150669898Y-148569226D01*
X150858256Y-148491205D01*
X150916847Y-148452056D01*
X150911928Y-148502000D01*
X150911928Y-150202000D01*
X150924188Y-150326482D01*
X150960498Y-150446180D01*
X151019463Y-150556494D01*
X151098815Y-150653185D01*
X151174137Y-150715000D01*
X143433000Y-150715000D01*
X143433000Y-141839740D01*
X143853800Y-141839740D01*
X143853800Y-142132260D01*
X143910868Y-142419158D01*
X144022810Y-142689411D01*
X144185325Y-142932632D01*
X144392168Y-143139475D01*
X144635389Y-143301990D01*
X144905642Y-143413932D01*
X145192540Y-143471000D01*
X145485060Y-143471000D01*
X145771958Y-143413932D01*
X146042211Y-143301990D01*
X146285432Y-143139475D01*
X146417287Y-143007620D01*
X146439298Y-143080180D01*
X146498263Y-143190494D01*
X146577615Y-143287185D01*
X146674306Y-143366537D01*
X146784620Y-143425502D01*
X146904318Y-143461812D01*
X147028800Y-143474072D01*
X148728800Y-143474072D01*
X148853282Y-143461812D01*
X148972980Y-143425502D01*
X149083294Y-143366537D01*
X149179985Y-143287185D01*
X149259337Y-143190494D01*
X149278811Y-143154061D01*
X163303000Y-143154061D01*
X163303000Y-143357939D01*
X163342774Y-143557898D01*
X163420795Y-143746256D01*
X163534063Y-143915774D01*
X163678226Y-144059937D01*
X163847744Y-144173205D01*
X164036102Y-144251226D01*
X164236061Y-144291000D01*
X164439939Y-144291000D01*
X164639898Y-144251226D01*
X164828256Y-144173205D01*
X164951285Y-144091000D01*
X177631982Y-144091000D01*
X177673000Y-144095040D01*
X177736500Y-144088786D01*
X177758981Y-144091000D01*
X186838715Y-144091000D01*
X186961744Y-144173205D01*
X187150102Y-144251226D01*
X187350061Y-144291000D01*
X187553939Y-144291000D01*
X187753898Y-144251226D01*
X187942256Y-144173205D01*
X188065285Y-144091000D01*
X205013928Y-144091000D01*
X205013928Y-144106000D01*
X205026188Y-144230482D01*
X205062498Y-144350180D01*
X205121463Y-144460494D01*
X205200815Y-144557185D01*
X205297506Y-144636537D01*
X205407820Y-144695502D01*
X205527518Y-144731812D01*
X205652000Y-144744072D01*
X207352000Y-144744072D01*
X207476482Y-144731812D01*
X207596180Y-144695502D01*
X207706494Y-144636537D01*
X207803185Y-144557185D01*
X207882537Y-144460494D01*
X207941502Y-144350180D01*
X207977812Y-144230482D01*
X207990072Y-144106000D01*
X207990072Y-142406000D01*
X207977812Y-142281518D01*
X207941502Y-142161820D01*
X207882537Y-142051506D01*
X207803185Y-141954815D01*
X207706494Y-141875463D01*
X207596180Y-141816498D01*
X207476482Y-141780188D01*
X207352000Y-141767928D01*
X207343458Y-141767928D01*
X207350792Y-141744397D01*
X206502000Y-140895605D01*
X205653208Y-141744397D01*
X205660542Y-141767928D01*
X205652000Y-141767928D01*
X205527518Y-141780188D01*
X205407820Y-141816498D01*
X205297506Y-141875463D01*
X205200815Y-141954815D01*
X205121463Y-142051506D01*
X205062498Y-142161820D01*
X205026188Y-142281518D01*
X205013928Y-142406000D01*
X205013928Y-142421000D01*
X188065285Y-142421000D01*
X187942256Y-142338795D01*
X187753898Y-142260774D01*
X187553939Y-142221000D01*
X187350061Y-142221000D01*
X187150102Y-142260774D01*
X186961744Y-142338795D01*
X186838715Y-142421000D01*
X178665698Y-142421000D01*
X178668226Y-142414898D01*
X178708000Y-142214939D01*
X178708000Y-142011061D01*
X178668226Y-141811102D01*
X178590205Y-141622744D01*
X178476937Y-141453226D01*
X178332774Y-141309063D01*
X178163256Y-141195795D01*
X177974898Y-141117774D01*
X177774939Y-141078000D01*
X177571061Y-141078000D01*
X177371102Y-141117774D01*
X177182744Y-141195795D01*
X177013226Y-141309063D01*
X176869063Y-141453226D01*
X176755795Y-141622744D01*
X176677774Y-141811102D01*
X176638000Y-142011061D01*
X176638000Y-142214939D01*
X176677774Y-142414898D01*
X176680302Y-142421000D01*
X164951285Y-142421000D01*
X164828256Y-142338795D01*
X164639898Y-142260774D01*
X164439939Y-142221000D01*
X164236061Y-142221000D01*
X164036102Y-142260774D01*
X163847744Y-142338795D01*
X163678226Y-142452063D01*
X163534063Y-142596226D01*
X163420795Y-142765744D01*
X163342774Y-142954102D01*
X163303000Y-143154061D01*
X149278811Y-143154061D01*
X149318302Y-143080180D01*
X149354612Y-142960482D01*
X149366872Y-142836000D01*
X149366872Y-141136000D01*
X149354612Y-141011518D01*
X149318302Y-140891820D01*
X149259337Y-140781506D01*
X149179985Y-140684815D01*
X149083294Y-140605463D01*
X148972980Y-140546498D01*
X148892334Y-140522034D01*
X148976388Y-140446269D01*
X149150441Y-140212920D01*
X149275625Y-139950099D01*
X149320276Y-139802890D01*
X149198955Y-139573000D01*
X148005800Y-139573000D01*
X148005800Y-139593000D01*
X147751800Y-139593000D01*
X147751800Y-139573000D01*
X145465800Y-139573000D01*
X145465800Y-139593000D01*
X145211800Y-139593000D01*
X145211800Y-139573000D01*
X144018645Y-139573000D01*
X143897324Y-139802890D01*
X143941975Y-139950099D01*
X144067159Y-140212920D01*
X144241212Y-140446269D01*
X144457445Y-140641178D01*
X144574334Y-140710805D01*
X144392168Y-140832525D01*
X144185325Y-141039368D01*
X144022810Y-141282589D01*
X143910868Y-141552842D01*
X143853800Y-141839740D01*
X143433000Y-141839740D01*
X143433000Y-137262890D01*
X143897324Y-137262890D01*
X143941975Y-137410099D01*
X144067159Y-137672920D01*
X144241212Y-137906269D01*
X144457445Y-138101178D01*
X144583055Y-138176000D01*
X144457445Y-138250822D01*
X144241212Y-138445731D01*
X144067159Y-138679080D01*
X143941975Y-138941901D01*
X143897324Y-139089110D01*
X144018645Y-139319000D01*
X145211800Y-139319000D01*
X145211800Y-137033000D01*
X145465800Y-137033000D01*
X145465800Y-139319000D01*
X147751800Y-139319000D01*
X147751800Y-137033000D01*
X148005800Y-137033000D01*
X148005800Y-139319000D01*
X149198955Y-139319000D01*
X149320276Y-139089110D01*
X149275625Y-138941901D01*
X149150441Y-138679080D01*
X148976388Y-138445731D01*
X148760155Y-138250822D01*
X148634545Y-138176000D01*
X148760155Y-138101178D01*
X148976388Y-137906269D01*
X149150441Y-137672920D01*
X149275625Y-137410099D01*
X149320276Y-137262890D01*
X149198955Y-137033000D01*
X148005800Y-137033000D01*
X147751800Y-137033000D01*
X145465800Y-137033000D01*
X145211800Y-137033000D01*
X144018645Y-137033000D01*
X143897324Y-137262890D01*
X143433000Y-137262890D01*
X143433000Y-134722890D01*
X143897324Y-134722890D01*
X143941975Y-134870099D01*
X144067159Y-135132920D01*
X144241212Y-135366269D01*
X144457445Y-135561178D01*
X144583055Y-135636000D01*
X144457445Y-135710822D01*
X144241212Y-135905731D01*
X144067159Y-136139080D01*
X143941975Y-136401901D01*
X143897324Y-136549110D01*
X144018645Y-136779000D01*
X145211800Y-136779000D01*
X145211800Y-134493000D01*
X145465800Y-134493000D01*
X145465800Y-136779000D01*
X147751800Y-136779000D01*
X147751800Y-134493000D01*
X148005800Y-134493000D01*
X148005800Y-136779000D01*
X149198955Y-136779000D01*
X149320276Y-136549110D01*
X149275625Y-136401901D01*
X149150441Y-136139080D01*
X148976388Y-135905731D01*
X148760155Y-135710822D01*
X148634545Y-135636000D01*
X148760155Y-135561178D01*
X148976388Y-135366269D01*
X149150441Y-135132920D01*
X149275625Y-134870099D01*
X149320276Y-134722890D01*
X149198955Y-134493000D01*
X148005800Y-134493000D01*
X147751800Y-134493000D01*
X145465800Y-134493000D01*
X145211800Y-134493000D01*
X144018645Y-134493000D01*
X143897324Y-134722890D01*
X143433000Y-134722890D01*
X143433000Y-131679740D01*
X143853800Y-131679740D01*
X143853800Y-131972260D01*
X143910868Y-132259158D01*
X144022810Y-132529411D01*
X144185325Y-132772632D01*
X144392168Y-132979475D01*
X144574334Y-133101195D01*
X144457445Y-133170822D01*
X144241212Y-133365731D01*
X144067159Y-133599080D01*
X143941975Y-133861901D01*
X143897324Y-134009110D01*
X144018645Y-134239000D01*
X145211800Y-134239000D01*
X145211800Y-134219000D01*
X145465800Y-134219000D01*
X145465800Y-134239000D01*
X147751800Y-134239000D01*
X147751800Y-134219000D01*
X148005800Y-134219000D01*
X148005800Y-134239000D01*
X149198955Y-134239000D01*
X149320276Y-134009110D01*
X149275625Y-133861901D01*
X149164722Y-133629061D01*
X160763000Y-133629061D01*
X160763000Y-133832939D01*
X160802774Y-134032898D01*
X160880795Y-134221256D01*
X160994063Y-134390774D01*
X161138226Y-134534937D01*
X161307744Y-134648205D01*
X161496102Y-134726226D01*
X161696061Y-134766000D01*
X161899939Y-134766000D01*
X162099898Y-134726226D01*
X162288256Y-134648205D01*
X162411285Y-134566000D01*
X172995715Y-134566000D01*
X173118744Y-134648205D01*
X173307102Y-134726226D01*
X173507061Y-134766000D01*
X173710939Y-134766000D01*
X173910898Y-134726226D01*
X174099256Y-134648205D01*
X174268774Y-134534937D01*
X174412937Y-134390774D01*
X174526205Y-134221256D01*
X174604226Y-134032898D01*
X174644000Y-133832939D01*
X174644000Y-133629061D01*
X174604226Y-133429102D01*
X174526205Y-133240744D01*
X174412937Y-133071226D01*
X174268774Y-132927063D01*
X174099256Y-132813795D01*
X173910898Y-132735774D01*
X173710939Y-132696000D01*
X173507061Y-132696000D01*
X173307102Y-132735774D01*
X173118744Y-132813795D01*
X172995715Y-132896000D01*
X162411285Y-132896000D01*
X162288256Y-132813795D01*
X162099898Y-132735774D01*
X161899939Y-132696000D01*
X161696061Y-132696000D01*
X161496102Y-132735774D01*
X161307744Y-132813795D01*
X161138226Y-132927063D01*
X160994063Y-133071226D01*
X160880795Y-133240744D01*
X160802774Y-133429102D01*
X160763000Y-133629061D01*
X149164722Y-133629061D01*
X149150441Y-133599080D01*
X148976388Y-133365731D01*
X148760155Y-133170822D01*
X148643266Y-133101195D01*
X148825432Y-132979475D01*
X149032275Y-132772632D01*
X149194790Y-132529411D01*
X149306732Y-132259158D01*
X149363800Y-131972260D01*
X149363800Y-131679740D01*
X149306732Y-131392842D01*
X149194790Y-131122589D01*
X149032275Y-130879368D01*
X148825432Y-130672525D01*
X148582211Y-130510010D01*
X148311958Y-130398068D01*
X148025060Y-130341000D01*
X147732540Y-130341000D01*
X147445642Y-130398068D01*
X147175389Y-130510010D01*
X146932168Y-130672525D01*
X146725325Y-130879368D01*
X146608800Y-131053760D01*
X146492275Y-130879368D01*
X146285432Y-130672525D01*
X146042211Y-130510010D01*
X145771958Y-130398068D01*
X145485060Y-130341000D01*
X145192540Y-130341000D01*
X144905642Y-130398068D01*
X144635389Y-130510010D01*
X144392168Y-130672525D01*
X144185325Y-130879368D01*
X144022810Y-131122589D01*
X143910868Y-131392842D01*
X143853800Y-131679740D01*
X143433000Y-131679740D01*
X143433000Y-127585180D01*
X157123678Y-127588784D01*
G37*
X157123678Y-127588784D02*
X157046842Y-127604068D01*
X156776589Y-127716010D01*
X156533368Y-127878525D01*
X156326525Y-128085368D01*
X156164010Y-128328589D01*
X156052068Y-128598842D01*
X155995000Y-128885740D01*
X155995000Y-129178260D01*
X156052068Y-129465158D01*
X156164010Y-129735411D01*
X156326525Y-129978632D01*
X156533368Y-130185475D01*
X156776589Y-130347990D01*
X157046842Y-130459932D01*
X157333740Y-130517000D01*
X157626260Y-130517000D01*
X157913158Y-130459932D01*
X158183411Y-130347990D01*
X158426632Y-130185475D01*
X158633475Y-129978632D01*
X158755195Y-129796466D01*
X158824822Y-129913355D01*
X159019731Y-130129588D01*
X159253080Y-130303641D01*
X159515901Y-130428825D01*
X159663110Y-130473476D01*
X159893000Y-130352155D01*
X159893000Y-129159000D01*
X159873000Y-129159000D01*
X159873000Y-128905000D01*
X159893000Y-128905000D01*
X159893000Y-128885000D01*
X160147000Y-128885000D01*
X160147000Y-128905000D01*
X160167000Y-128905000D01*
X160167000Y-129159000D01*
X160147000Y-129159000D01*
X160147000Y-130352155D01*
X160376890Y-130473476D01*
X160524099Y-130428825D01*
X160786920Y-130303641D01*
X161020269Y-130129588D01*
X161215178Y-129913355D01*
X161284805Y-129796466D01*
X161406525Y-129978632D01*
X161613368Y-130185475D01*
X161856589Y-130347990D01*
X162126842Y-130459932D01*
X162413740Y-130517000D01*
X162706260Y-130517000D01*
X162993158Y-130459932D01*
X163263411Y-130347990D01*
X163506632Y-130185475D01*
X163713475Y-129978632D01*
X163830000Y-129804240D01*
X163946525Y-129978632D01*
X164153368Y-130185475D01*
X164396589Y-130347990D01*
X164666842Y-130459932D01*
X164953740Y-130517000D01*
X165246260Y-130517000D01*
X165533158Y-130459932D01*
X165803411Y-130347990D01*
X166046632Y-130185475D01*
X166253475Y-129978632D01*
X166370000Y-129804240D01*
X166486525Y-129978632D01*
X166693368Y-130185475D01*
X166936589Y-130347990D01*
X167206842Y-130459932D01*
X167493740Y-130517000D01*
X167786260Y-130517000D01*
X168073158Y-130459932D01*
X168343411Y-130347990D01*
X168586632Y-130185475D01*
X168793475Y-129978632D01*
X168910000Y-129804240D01*
X169026525Y-129978632D01*
X169233368Y-130185475D01*
X169476589Y-130347990D01*
X169746842Y-130459932D01*
X170033740Y-130517000D01*
X170326260Y-130517000D01*
X170613158Y-130459932D01*
X170883411Y-130347990D01*
X171126632Y-130185475D01*
X171333475Y-129978632D01*
X171450000Y-129804240D01*
X171566525Y-129978632D01*
X171773368Y-130185475D01*
X172016589Y-130347990D01*
X172286842Y-130459932D01*
X172573740Y-130517000D01*
X172866260Y-130517000D01*
X173153158Y-130459932D01*
X173423411Y-130347990D01*
X173666632Y-130185475D01*
X173873475Y-129978632D01*
X173990000Y-129804240D01*
X174106525Y-129978632D01*
X174313368Y-130185475D01*
X174556589Y-130347990D01*
X174826842Y-130459932D01*
X175113740Y-130517000D01*
X175406260Y-130517000D01*
X175693158Y-130459932D01*
X175963411Y-130347990D01*
X176206632Y-130185475D01*
X176413475Y-129978632D01*
X176530000Y-129804240D01*
X176646525Y-129978632D01*
X176853368Y-130185475D01*
X177096589Y-130347990D01*
X177366842Y-130459932D01*
X177653740Y-130517000D01*
X177946260Y-130517000D01*
X178233158Y-130459932D01*
X178503411Y-130347990D01*
X178746632Y-130185475D01*
X178953475Y-129978632D01*
X179070000Y-129804240D01*
X179186525Y-129978632D01*
X179393368Y-130185475D01*
X179636589Y-130347990D01*
X179906842Y-130459932D01*
X180193740Y-130517000D01*
X180486260Y-130517000D01*
X180773158Y-130459932D01*
X181043411Y-130347990D01*
X181286632Y-130185475D01*
X181493475Y-129978632D01*
X181610000Y-129804240D01*
X181726525Y-129978632D01*
X181933368Y-130185475D01*
X182176589Y-130347990D01*
X182446842Y-130459932D01*
X182733740Y-130517000D01*
X183026260Y-130517000D01*
X183313158Y-130459932D01*
X183583411Y-130347990D01*
X183826632Y-130185475D01*
X184033475Y-129978632D01*
X184150000Y-129804240D01*
X184266525Y-129978632D01*
X184473368Y-130185475D01*
X184716589Y-130347990D01*
X184986842Y-130459932D01*
X185273740Y-130517000D01*
X185566260Y-130517000D01*
X185853158Y-130459932D01*
X186123411Y-130347990D01*
X186366632Y-130185475D01*
X186573475Y-129978632D01*
X186690000Y-129804240D01*
X186806525Y-129978632D01*
X187013368Y-130185475D01*
X187256589Y-130347990D01*
X187526842Y-130459932D01*
X187813740Y-130517000D01*
X188106260Y-130517000D01*
X188393158Y-130459932D01*
X188663411Y-130347990D01*
X188906632Y-130185475D01*
X189113475Y-129978632D01*
X189235195Y-129796466D01*
X189304822Y-129913355D01*
X189499731Y-130129588D01*
X189733080Y-130303641D01*
X189995901Y-130428825D01*
X190143110Y-130473476D01*
X190373000Y-130352155D01*
X190373000Y-129159000D01*
X190353000Y-129159000D01*
X190353000Y-128905000D01*
X190373000Y-128905000D01*
X190373000Y-128885000D01*
X190627000Y-128885000D01*
X190627000Y-128905000D01*
X190647000Y-128905000D01*
X190647000Y-129159000D01*
X190627000Y-129159000D01*
X190627000Y-130352155D01*
X190856890Y-130473476D01*
X191004099Y-130428825D01*
X191266920Y-130303641D01*
X191500269Y-130129588D01*
X191695178Y-129913355D01*
X191764805Y-129796466D01*
X191886525Y-129978632D01*
X192093368Y-130185475D01*
X192336589Y-130347990D01*
X192606842Y-130459932D01*
X192893740Y-130517000D01*
X193186260Y-130517000D01*
X193473158Y-130459932D01*
X193743411Y-130347990D01*
X193986632Y-130185475D01*
X194193475Y-129978632D01*
X194310000Y-129804240D01*
X194426525Y-129978632D01*
X194633368Y-130185475D01*
X194876589Y-130347990D01*
X195146842Y-130459932D01*
X195433740Y-130517000D01*
X195726260Y-130517000D01*
X196013158Y-130459932D01*
X196283411Y-130347990D01*
X196526632Y-130185475D01*
X196733475Y-129978632D01*
X196850000Y-129804240D01*
X196966525Y-129978632D01*
X197173368Y-130185475D01*
X197416589Y-130347990D01*
X197686842Y-130459932D01*
X197973740Y-130517000D01*
X198266260Y-130517000D01*
X198553158Y-130459932D01*
X198823411Y-130347990D01*
X199066632Y-130185475D01*
X199273475Y-129978632D01*
X199390000Y-129804240D01*
X199506525Y-129978632D01*
X199713368Y-130185475D01*
X199956589Y-130347990D01*
X200226842Y-130459932D01*
X200513740Y-130517000D01*
X200806260Y-130517000D01*
X201093158Y-130459932D01*
X201363411Y-130347990D01*
X201606632Y-130185475D01*
X201738487Y-130053620D01*
X201760498Y-130126180D01*
X201819463Y-130236494D01*
X201898815Y-130333185D01*
X201995506Y-130412537D01*
X202105820Y-130471502D01*
X202225518Y-130507812D01*
X202350000Y-130520072D01*
X204050000Y-130520072D01*
X204174482Y-130507812D01*
X204294180Y-130471502D01*
X204404494Y-130412537D01*
X204501185Y-130333185D01*
X204580537Y-130236494D01*
X204639502Y-130126180D01*
X204675812Y-130006482D01*
X204688072Y-129882000D01*
X204688072Y-128182000D01*
X204675812Y-128057518D01*
X204639502Y-127937820D01*
X204580537Y-127827506D01*
X204501185Y-127730815D01*
X204404494Y-127651463D01*
X204310472Y-127601206D01*
X207168121Y-127601959D01*
X207075506Y-127651463D01*
X206978815Y-127730815D01*
X206899463Y-127827506D01*
X206840498Y-127937820D01*
X206804188Y-128057518D01*
X206791928Y-128182000D01*
X206791928Y-128219512D01*
X206668913Y-128256828D01*
X206523854Y-128334364D01*
X206396709Y-128438709D01*
X206370559Y-128470573D01*
X204104133Y-130737000D01*
X157585285Y-130737000D01*
X157462256Y-130654795D01*
X157273898Y-130576774D01*
X157073939Y-130537000D01*
X156870061Y-130537000D01*
X156670102Y-130576774D01*
X156481744Y-130654795D01*
X156312226Y-130768063D01*
X156168063Y-130912226D01*
X156054795Y-131081744D01*
X155976774Y-131270102D01*
X155937000Y-131470061D01*
X155937000Y-131673939D01*
X155976774Y-131873898D01*
X156054795Y-132062256D01*
X156168063Y-132231774D01*
X156312226Y-132375937D01*
X156481744Y-132489205D01*
X156670102Y-132567226D01*
X156870061Y-132607000D01*
X157073939Y-132607000D01*
X157273898Y-132567226D01*
X157462256Y-132489205D01*
X157585285Y-132407000D01*
X193120018Y-132407000D01*
X193057744Y-132432795D01*
X192888226Y-132546063D01*
X192744063Y-132690226D01*
X192630795Y-132859744D01*
X192552774Y-133048102D01*
X192513000Y-133248061D01*
X192513000Y-133451939D01*
X192552774Y-133651898D01*
X192630795Y-133840256D01*
X192716151Y-133968001D01*
X187635321Y-133968001D01*
X187597998Y-133964325D01*
X187560676Y-133968001D01*
X187560666Y-133968001D01*
X187449013Y-133978998D01*
X187305752Y-134022455D01*
X187173774Y-134093000D01*
X187096061Y-134093000D01*
X186896102Y-134132774D01*
X186707744Y-134210795D01*
X186538226Y-134324063D01*
X186394063Y-134468226D01*
X186280795Y-134637744D01*
X186202774Y-134826102D01*
X186163000Y-135026061D01*
X186163000Y-135229939D01*
X186202774Y-135429898D01*
X186280795Y-135618256D01*
X186394063Y-135787774D01*
X186538226Y-135931937D01*
X186707744Y-136045205D01*
X186896102Y-136123226D01*
X187096061Y-136163000D01*
X187299939Y-136163000D01*
X187499898Y-136123226D01*
X187688256Y-136045205D01*
X187857774Y-135931937D01*
X188001937Y-135787774D01*
X188115205Y-135618256D01*
X188169159Y-135488001D01*
X189684953Y-135488001D01*
X189651774Y-135568102D01*
X189612000Y-135768061D01*
X189612000Y-135971939D01*
X189651774Y-136171898D01*
X189729795Y-136360256D01*
X189843063Y-136529774D01*
X189987226Y-136673937D01*
X190156744Y-136787205D01*
X190345102Y-136865226D01*
X190545061Y-136905000D01*
X190748939Y-136905000D01*
X190948898Y-136865226D01*
X191137256Y-136787205D01*
X191260285Y-136705000D01*
X198746783Y-136705000D01*
X198899744Y-136807205D01*
X199088102Y-136885226D01*
X199288061Y-136925000D01*
X199491939Y-136925000D01*
X199691898Y-136885226D01*
X199880256Y-136807205D01*
X200049774Y-136693937D01*
X200193937Y-136549774D01*
X200307205Y-136380256D01*
X200385226Y-136191898D01*
X200425000Y-135991939D01*
X200425000Y-135788061D01*
X200385226Y-135588102D01*
X200343763Y-135488001D01*
X205017346Y-135488001D01*
X205017000Y-135489740D01*
X205017000Y-135782260D01*
X205074068Y-136069158D01*
X205186010Y-136339411D01*
X205348525Y-136582632D01*
X205555368Y-136789475D01*
X205729760Y-136906000D01*
X205555368Y-137022525D01*
X205348525Y-137229368D01*
X205221091Y-137420087D01*
X205150933Y-137426997D01*
X205007672Y-137470454D01*
X204875643Y-137541026D01*
X204759918Y-137635999D01*
X204736120Y-137664998D01*
X204260117Y-138141001D01*
X190531585Y-138141001D01*
X190524002Y-138064013D01*
X190480545Y-137920752D01*
X190472804Y-137906269D01*
X190409973Y-137788722D01*
X190338798Y-137701996D01*
X190315000Y-137672998D01*
X190286002Y-137649201D01*
X190265000Y-137628198D01*
X190265000Y-137566061D01*
X190225226Y-137366102D01*
X190147205Y-137177744D01*
X190033937Y-137008226D01*
X189889774Y-136864063D01*
X189720256Y-136750795D01*
X189531898Y-136672774D01*
X189331939Y-136633000D01*
X189128061Y-136633000D01*
X188928102Y-136672774D01*
X188739744Y-136750795D01*
X188570226Y-136864063D01*
X188426063Y-137008226D01*
X188312795Y-137177744D01*
X188234774Y-137366102D01*
X188195000Y-137566061D01*
X188195000Y-137769939D01*
X188234774Y-137969898D01*
X188312795Y-138158256D01*
X188426063Y-138327774D01*
X188570226Y-138471937D01*
X188739744Y-138585205D01*
X188928102Y-138663226D01*
X189029131Y-138683322D01*
X189069453Y-138816248D01*
X189140025Y-138948277D01*
X189234998Y-139064002D01*
X189264001Y-139087804D01*
X189542947Y-139366750D01*
X179443511Y-139366750D01*
X179399574Y-139322813D01*
X179230056Y-139209545D01*
X179041698Y-139131524D01*
X178841739Y-139091750D01*
X178637861Y-139091750D01*
X178437902Y-139131524D01*
X178249544Y-139209545D01*
X178080026Y-139322813D01*
X177935863Y-139466976D01*
X177822595Y-139636494D01*
X177744574Y-139824852D01*
X177704800Y-140024811D01*
X177704800Y-140228689D01*
X177744574Y-140428648D01*
X177822595Y-140617006D01*
X177935863Y-140786524D01*
X178080026Y-140930687D01*
X178249544Y-141043955D01*
X178437902Y-141121976D01*
X178637861Y-141161750D01*
X178841739Y-141161750D01*
X179041698Y-141121976D01*
X179230056Y-141043955D01*
X179399574Y-140930687D01*
X179443511Y-140886750D01*
X195099839Y-140886750D01*
X195136126Y-140923037D01*
X195305644Y-141036305D01*
X195494002Y-141114326D01*
X195693961Y-141154100D01*
X195897839Y-141154100D01*
X196097798Y-141114326D01*
X196286156Y-141036305D01*
X196455674Y-140923037D01*
X196594180Y-140784531D01*
X205011389Y-140784531D01*
X205053401Y-141074019D01*
X205151081Y-141349747D01*
X205224528Y-141487157D01*
X205473603Y-141564792D01*
X206322395Y-140716000D01*
X206681605Y-140716000D01*
X207530397Y-141564792D01*
X207779472Y-141487157D01*
X207905371Y-141223117D01*
X207977339Y-140939589D01*
X207992611Y-140647469D01*
X207950599Y-140357981D01*
X207852919Y-140082253D01*
X207779472Y-139944843D01*
X207530397Y-139867208D01*
X206681605Y-140716000D01*
X206322395Y-140716000D01*
X205473603Y-139867208D01*
X205224528Y-139944843D01*
X205098629Y-140208883D01*
X205026661Y-140492411D01*
X205011389Y-140784531D01*
X196594180Y-140784531D01*
X196599837Y-140778874D01*
X196713105Y-140609356D01*
X196791126Y-140420998D01*
X196830900Y-140221039D01*
X196830900Y-140017161D01*
X196791126Y-139817202D01*
X196726425Y-139661001D01*
X204537596Y-139661001D01*
X204574918Y-139664677D01*
X204612240Y-139661001D01*
X204612251Y-139661001D01*
X204723904Y-139650004D01*
X204867165Y-139606547D01*
X204999194Y-139535975D01*
X205114919Y-139441002D01*
X205138721Y-139411999D01*
X205388307Y-139162414D01*
X205555368Y-139329475D01*
X205728729Y-139445311D01*
X205653208Y-139687603D01*
X206502000Y-140536395D01*
X207350792Y-139687603D01*
X207275271Y-139445311D01*
X207448632Y-139329475D01*
X207655475Y-139122632D01*
X207817990Y-138879411D01*
X207929932Y-138609158D01*
X207987000Y-138322260D01*
X207987000Y-138029740D01*
X207929932Y-137742842D01*
X207817990Y-137472589D01*
X207655475Y-137229368D01*
X207448632Y-137022525D01*
X207274240Y-136906000D01*
X207448632Y-136789475D01*
X207655475Y-136582632D01*
X207817990Y-136339411D01*
X207929932Y-136069158D01*
X207987000Y-135782260D01*
X207987000Y-135489740D01*
X207929932Y-135202842D01*
X207817990Y-134932589D01*
X207655475Y-134689368D01*
X207448632Y-134482525D01*
X207205411Y-134320010D01*
X206935158Y-134208068D01*
X206648260Y-134151000D01*
X206355740Y-134151000D01*
X206139016Y-134194109D01*
X206134002Y-134188000D01*
X206018277Y-134093027D01*
X206001598Y-134084111D01*
X206055936Y-134029773D01*
X206169204Y-133860255D01*
X206247225Y-133671897D01*
X206286999Y-133471938D01*
X206286999Y-133268060D01*
X206247225Y-133068101D01*
X206169204Y-132879743D01*
X206055936Y-132710225D01*
X205911773Y-132566062D01*
X205742255Y-132452794D01*
X205553897Y-132374773D01*
X205353938Y-132334999D01*
X205150060Y-132334999D01*
X204950101Y-132374773D01*
X204761743Y-132452794D01*
X204668645Y-132515000D01*
X194161285Y-132515000D01*
X194038256Y-132432795D01*
X193975982Y-132407000D01*
X204408982Y-132407000D01*
X204450000Y-132411040D01*
X204491018Y-132407000D01*
X204491019Y-132407000D01*
X204613689Y-132394918D01*
X204771087Y-132347172D01*
X204916146Y-132269636D01*
X205043291Y-132165291D01*
X205069446Y-132133421D01*
X206929623Y-130273244D01*
X206978815Y-130333185D01*
X207075506Y-130412537D01*
X207185820Y-130471502D01*
X207305518Y-130507812D01*
X207430000Y-130520072D01*
X209015000Y-130520072D01*
X209015001Y-147641758D01*
X208977636Y-147571854D01*
X208873291Y-147444709D01*
X208841428Y-147418560D01*
X207419446Y-145996579D01*
X207393291Y-145964709D01*
X207266146Y-145860364D01*
X207121087Y-145782828D01*
X206963689Y-145735082D01*
X206841019Y-145723000D01*
X206841018Y-145723000D01*
X206800000Y-145718960D01*
X206758982Y-145723000D01*
X150859333Y-145723000D01*
X150818315Y-145718960D01*
X150777297Y-145723000D01*
X150777296Y-145723000D01*
X150654626Y-145735082D01*
X150497228Y-145782828D01*
X150352169Y-145860364D01*
X150225024Y-145964709D01*
X150198873Y-145996574D01*
X149806574Y-146388874D01*
X149774710Y-146415024D01*
X149670365Y-146542169D01*
X149592828Y-146687228D01*
X149545082Y-146844626D01*
X149545082Y-146844627D01*
X149533760Y-146959577D01*
X149450795Y-147083744D01*
X149372774Y-147272102D01*
X149333000Y-147472061D01*
X149333000Y-147675939D01*
X149372774Y-147875898D01*
X149450795Y-148064256D01*
X149564063Y-148233774D01*
X149708226Y-148377937D01*
X149877744Y-148491205D01*
X150066102Y-148569226D01*
X150266061Y-148609000D01*
X150469939Y-148609000D01*
X150669898Y-148569226D01*
X150858256Y-148491205D01*
X150916847Y-148452056D01*
X150911928Y-148502000D01*
X150911928Y-150202000D01*
X150924188Y-150326482D01*
X150960498Y-150446180D01*
X151019463Y-150556494D01*
X151098815Y-150653185D01*
X151174137Y-150715000D01*
X143433000Y-150715000D01*
X143433000Y-141839740D01*
X143853800Y-141839740D01*
X143853800Y-142132260D01*
X143910868Y-142419158D01*
X144022810Y-142689411D01*
X144185325Y-142932632D01*
X144392168Y-143139475D01*
X144635389Y-143301990D01*
X144905642Y-143413932D01*
X145192540Y-143471000D01*
X145485060Y-143471000D01*
X145771958Y-143413932D01*
X146042211Y-143301990D01*
X146285432Y-143139475D01*
X146417287Y-143007620D01*
X146439298Y-143080180D01*
X146498263Y-143190494D01*
X146577615Y-143287185D01*
X146674306Y-143366537D01*
X146784620Y-143425502D01*
X146904318Y-143461812D01*
X147028800Y-143474072D01*
X148728800Y-143474072D01*
X148853282Y-143461812D01*
X148972980Y-143425502D01*
X149083294Y-143366537D01*
X149179985Y-143287185D01*
X149259337Y-143190494D01*
X149278811Y-143154061D01*
X163303000Y-143154061D01*
X163303000Y-143357939D01*
X163342774Y-143557898D01*
X163420795Y-143746256D01*
X163534063Y-143915774D01*
X163678226Y-144059937D01*
X163847744Y-144173205D01*
X164036102Y-144251226D01*
X164236061Y-144291000D01*
X164439939Y-144291000D01*
X164639898Y-144251226D01*
X164828256Y-144173205D01*
X164951285Y-144091000D01*
X177631982Y-144091000D01*
X177673000Y-144095040D01*
X177736500Y-144088786D01*
X177758981Y-144091000D01*
X186838715Y-144091000D01*
X186961744Y-144173205D01*
X187150102Y-144251226D01*
X187350061Y-144291000D01*
X187553939Y-144291000D01*
X187753898Y-144251226D01*
X187942256Y-144173205D01*
X188065285Y-144091000D01*
X205013928Y-144091000D01*
X205013928Y-144106000D01*
X205026188Y-144230482D01*
X205062498Y-144350180D01*
X205121463Y-144460494D01*
X205200815Y-144557185D01*
X205297506Y-144636537D01*
X205407820Y-144695502D01*
X205527518Y-144731812D01*
X205652000Y-144744072D01*
X207352000Y-144744072D01*
X207476482Y-144731812D01*
X207596180Y-144695502D01*
X207706494Y-144636537D01*
X207803185Y-144557185D01*
X207882537Y-144460494D01*
X207941502Y-144350180D01*
X207977812Y-144230482D01*
X207990072Y-144106000D01*
X207990072Y-142406000D01*
X207977812Y-142281518D01*
X207941502Y-142161820D01*
X207882537Y-142051506D01*
X207803185Y-141954815D01*
X207706494Y-141875463D01*
X207596180Y-141816498D01*
X207476482Y-141780188D01*
X207352000Y-141767928D01*
X207343458Y-141767928D01*
X207350792Y-141744397D01*
X206502000Y-140895605D01*
X205653208Y-141744397D01*
X205660542Y-141767928D01*
X205652000Y-141767928D01*
X205527518Y-141780188D01*
X205407820Y-141816498D01*
X205297506Y-141875463D01*
X205200815Y-141954815D01*
X205121463Y-142051506D01*
X205062498Y-142161820D01*
X205026188Y-142281518D01*
X205013928Y-142406000D01*
X205013928Y-142421000D01*
X188065285Y-142421000D01*
X187942256Y-142338795D01*
X187753898Y-142260774D01*
X187553939Y-142221000D01*
X187350061Y-142221000D01*
X187150102Y-142260774D01*
X186961744Y-142338795D01*
X186838715Y-142421000D01*
X178665698Y-142421000D01*
X178668226Y-142414898D01*
X178708000Y-142214939D01*
X178708000Y-142011061D01*
X178668226Y-141811102D01*
X178590205Y-141622744D01*
X178476937Y-141453226D01*
X178332774Y-141309063D01*
X178163256Y-141195795D01*
X177974898Y-141117774D01*
X177774939Y-141078000D01*
X177571061Y-141078000D01*
X177371102Y-141117774D01*
X177182744Y-141195795D01*
X177013226Y-141309063D01*
X176869063Y-141453226D01*
X176755795Y-141622744D01*
X176677774Y-141811102D01*
X176638000Y-142011061D01*
X176638000Y-142214939D01*
X176677774Y-142414898D01*
X176680302Y-142421000D01*
X164951285Y-142421000D01*
X164828256Y-142338795D01*
X164639898Y-142260774D01*
X164439939Y-142221000D01*
X164236061Y-142221000D01*
X164036102Y-142260774D01*
X163847744Y-142338795D01*
X163678226Y-142452063D01*
X163534063Y-142596226D01*
X163420795Y-142765744D01*
X163342774Y-142954102D01*
X163303000Y-143154061D01*
X149278811Y-143154061D01*
X149318302Y-143080180D01*
X149354612Y-142960482D01*
X149366872Y-142836000D01*
X149366872Y-141136000D01*
X149354612Y-141011518D01*
X149318302Y-140891820D01*
X149259337Y-140781506D01*
X149179985Y-140684815D01*
X149083294Y-140605463D01*
X148972980Y-140546498D01*
X148892334Y-140522034D01*
X148976388Y-140446269D01*
X149150441Y-140212920D01*
X149275625Y-139950099D01*
X149320276Y-139802890D01*
X149198955Y-139573000D01*
X148005800Y-139573000D01*
X148005800Y-139593000D01*
X147751800Y-139593000D01*
X147751800Y-139573000D01*
X145465800Y-139573000D01*
X145465800Y-139593000D01*
X145211800Y-139593000D01*
X145211800Y-139573000D01*
X144018645Y-139573000D01*
X143897324Y-139802890D01*
X143941975Y-139950099D01*
X144067159Y-140212920D01*
X144241212Y-140446269D01*
X144457445Y-140641178D01*
X144574334Y-140710805D01*
X144392168Y-140832525D01*
X144185325Y-141039368D01*
X144022810Y-141282589D01*
X143910868Y-141552842D01*
X143853800Y-141839740D01*
X143433000Y-141839740D01*
X143433000Y-137262890D01*
X143897324Y-137262890D01*
X143941975Y-137410099D01*
X144067159Y-137672920D01*
X144241212Y-137906269D01*
X144457445Y-138101178D01*
X144583055Y-138176000D01*
X144457445Y-138250822D01*
X144241212Y-138445731D01*
X144067159Y-138679080D01*
X143941975Y-138941901D01*
X143897324Y-139089110D01*
X144018645Y-139319000D01*
X145211800Y-139319000D01*
X145211800Y-137033000D01*
X145465800Y-137033000D01*
X145465800Y-139319000D01*
X147751800Y-139319000D01*
X147751800Y-137033000D01*
X148005800Y-137033000D01*
X148005800Y-139319000D01*
X149198955Y-139319000D01*
X149320276Y-139089110D01*
X149275625Y-138941901D01*
X149150441Y-138679080D01*
X148976388Y-138445731D01*
X148760155Y-138250822D01*
X148634545Y-138176000D01*
X148760155Y-138101178D01*
X148976388Y-137906269D01*
X149150441Y-137672920D01*
X149275625Y-137410099D01*
X149320276Y-137262890D01*
X149198955Y-137033000D01*
X148005800Y-137033000D01*
X147751800Y-137033000D01*
X145465800Y-137033000D01*
X145211800Y-137033000D01*
X144018645Y-137033000D01*
X143897324Y-137262890D01*
X143433000Y-137262890D01*
X143433000Y-134722890D01*
X143897324Y-134722890D01*
X143941975Y-134870099D01*
X144067159Y-135132920D01*
X144241212Y-135366269D01*
X144457445Y-135561178D01*
X144583055Y-135636000D01*
X144457445Y-135710822D01*
X144241212Y-135905731D01*
X144067159Y-136139080D01*
X143941975Y-136401901D01*
X143897324Y-136549110D01*
X144018645Y-136779000D01*
X145211800Y-136779000D01*
X145211800Y-134493000D01*
X145465800Y-134493000D01*
X145465800Y-136779000D01*
X147751800Y-136779000D01*
X147751800Y-134493000D01*
X148005800Y-134493000D01*
X148005800Y-136779000D01*
X149198955Y-136779000D01*
X149320276Y-136549110D01*
X149275625Y-136401901D01*
X149150441Y-136139080D01*
X148976388Y-135905731D01*
X148760155Y-135710822D01*
X148634545Y-135636000D01*
X148760155Y-135561178D01*
X148976388Y-135366269D01*
X149150441Y-135132920D01*
X149275625Y-134870099D01*
X149320276Y-134722890D01*
X149198955Y-134493000D01*
X148005800Y-134493000D01*
X147751800Y-134493000D01*
X145465800Y-134493000D01*
X145211800Y-134493000D01*
X144018645Y-134493000D01*
X143897324Y-134722890D01*
X143433000Y-134722890D01*
X143433000Y-131679740D01*
X143853800Y-131679740D01*
X143853800Y-131972260D01*
X143910868Y-132259158D01*
X144022810Y-132529411D01*
X144185325Y-132772632D01*
X144392168Y-132979475D01*
X144574334Y-133101195D01*
X144457445Y-133170822D01*
X144241212Y-133365731D01*
X144067159Y-133599080D01*
X143941975Y-133861901D01*
X143897324Y-134009110D01*
X144018645Y-134239000D01*
X145211800Y-134239000D01*
X145211800Y-134219000D01*
X145465800Y-134219000D01*
X145465800Y-134239000D01*
X147751800Y-134239000D01*
X147751800Y-134219000D01*
X148005800Y-134219000D01*
X148005800Y-134239000D01*
X149198955Y-134239000D01*
X149320276Y-134009110D01*
X149275625Y-133861901D01*
X149164722Y-133629061D01*
X160763000Y-133629061D01*
X160763000Y-133832939D01*
X160802774Y-134032898D01*
X160880795Y-134221256D01*
X160994063Y-134390774D01*
X161138226Y-134534937D01*
X161307744Y-134648205D01*
X161496102Y-134726226D01*
X161696061Y-134766000D01*
X161899939Y-134766000D01*
X162099898Y-134726226D01*
X162288256Y-134648205D01*
X162411285Y-134566000D01*
X172995715Y-134566000D01*
X173118744Y-134648205D01*
X173307102Y-134726226D01*
X173507061Y-134766000D01*
X173710939Y-134766000D01*
X173910898Y-134726226D01*
X174099256Y-134648205D01*
X174268774Y-134534937D01*
X174412937Y-134390774D01*
X174526205Y-134221256D01*
X174604226Y-134032898D01*
X174644000Y-133832939D01*
X174644000Y-133629061D01*
X174604226Y-133429102D01*
X174526205Y-133240744D01*
X174412937Y-133071226D01*
X174268774Y-132927063D01*
X174099256Y-132813795D01*
X173910898Y-132735774D01*
X173710939Y-132696000D01*
X173507061Y-132696000D01*
X173307102Y-132735774D01*
X173118744Y-132813795D01*
X172995715Y-132896000D01*
X162411285Y-132896000D01*
X162288256Y-132813795D01*
X162099898Y-132735774D01*
X161899939Y-132696000D01*
X161696061Y-132696000D01*
X161496102Y-132735774D01*
X161307744Y-132813795D01*
X161138226Y-132927063D01*
X160994063Y-133071226D01*
X160880795Y-133240744D01*
X160802774Y-133429102D01*
X160763000Y-133629061D01*
X149164722Y-133629061D01*
X149150441Y-133599080D01*
X148976388Y-133365731D01*
X148760155Y-133170822D01*
X148643266Y-133101195D01*
X148825432Y-132979475D01*
X149032275Y-132772632D01*
X149194790Y-132529411D01*
X149306732Y-132259158D01*
X149363800Y-131972260D01*
X149363800Y-131679740D01*
X149306732Y-131392842D01*
X149194790Y-131122589D01*
X149032275Y-130879368D01*
X148825432Y-130672525D01*
X148582211Y-130510010D01*
X148311958Y-130398068D01*
X148025060Y-130341000D01*
X147732540Y-130341000D01*
X147445642Y-130398068D01*
X147175389Y-130510010D01*
X146932168Y-130672525D01*
X146725325Y-130879368D01*
X146608800Y-131053760D01*
X146492275Y-130879368D01*
X146285432Y-130672525D01*
X146042211Y-130510010D01*
X145771958Y-130398068D01*
X145485060Y-130341000D01*
X145192540Y-130341000D01*
X144905642Y-130398068D01*
X144635389Y-130510010D01*
X144392168Y-130672525D01*
X144185325Y-130879368D01*
X144022810Y-131122589D01*
X143910868Y-131392842D01*
X143853800Y-131679740D01*
X143433000Y-131679740D01*
X143433000Y-127585180D01*
X157123678Y-127588784D01*
M02*
