G04 #@! TF.GenerationSoftware,KiCad,Pcbnew,(5.1.5)-3*
G04 #@! TF.CreationDate,2020-04-02T15:24:24+01:00*
G04 #@! TF.ProjectId,STM32L152_Dev_Board,53544d33-324c-4313-9532-5f4465765f42,rev?*
G04 #@! TF.SameCoordinates,Original*
G04 #@! TF.FileFunction,Soldermask,Top*
G04 #@! TF.FilePolarity,Negative*
%FSLAX46Y46*%
G04 Gerber Fmt 4.6, Leading zero omitted, Abs format (unit mm)*
G04 Created by KiCad (PCBNEW (5.1.5)-3) date 2020-04-02 15:24:24*
%MOMM*%
%LPD*%
G04 APERTURE LIST*
%ADD10C,0.100000*%
G04 APERTURE END LIST*
D10*
G36*
X175373512Y-148455927D02*
G01*
X175522812Y-148485624D01*
X175686784Y-148553544D01*
X175834354Y-148652147D01*
X175959853Y-148777646D01*
X176058456Y-148925216D01*
X176126376Y-149089188D01*
X176161000Y-149263259D01*
X176161000Y-149440741D01*
X176126376Y-149614812D01*
X176058456Y-149778784D01*
X175959853Y-149926354D01*
X175834354Y-150051853D01*
X175686784Y-150150456D01*
X175522812Y-150218376D01*
X175373512Y-150248073D01*
X175348742Y-150253000D01*
X175171258Y-150253000D01*
X175146488Y-150248073D01*
X174997188Y-150218376D01*
X174833216Y-150150456D01*
X174685646Y-150051853D01*
X174560147Y-149926354D01*
X174461544Y-149778784D01*
X174393624Y-149614812D01*
X174359000Y-149440741D01*
X174359000Y-149263259D01*
X174393624Y-149089188D01*
X174461544Y-148925216D01*
X174560147Y-148777646D01*
X174685646Y-148652147D01*
X174833216Y-148553544D01*
X174997188Y-148485624D01*
X175146488Y-148455927D01*
X175171258Y-148451000D01*
X175348742Y-148451000D01*
X175373512Y-148455927D01*
G37*
G36*
X177913512Y-148455927D02*
G01*
X178062812Y-148485624D01*
X178226784Y-148553544D01*
X178374354Y-148652147D01*
X178499853Y-148777646D01*
X178598456Y-148925216D01*
X178666376Y-149089188D01*
X178701000Y-149263259D01*
X178701000Y-149440741D01*
X178666376Y-149614812D01*
X178598456Y-149778784D01*
X178499853Y-149926354D01*
X178374354Y-150051853D01*
X178226784Y-150150456D01*
X178062812Y-150218376D01*
X177913512Y-150248073D01*
X177888742Y-150253000D01*
X177711258Y-150253000D01*
X177686488Y-150248073D01*
X177537188Y-150218376D01*
X177373216Y-150150456D01*
X177225646Y-150051853D01*
X177100147Y-149926354D01*
X177001544Y-149778784D01*
X176933624Y-149614812D01*
X176899000Y-149440741D01*
X176899000Y-149263259D01*
X176933624Y-149089188D01*
X177001544Y-148925216D01*
X177100147Y-148777646D01*
X177225646Y-148652147D01*
X177373216Y-148553544D01*
X177537188Y-148485624D01*
X177686488Y-148455927D01*
X177711258Y-148451000D01*
X177888742Y-148451000D01*
X177913512Y-148455927D01*
G37*
G36*
X153301000Y-150253000D02*
G01*
X151499000Y-150253000D01*
X151499000Y-148451000D01*
X153301000Y-148451000D01*
X153301000Y-150253000D01*
G37*
G36*
X155053512Y-148455927D02*
G01*
X155202812Y-148485624D01*
X155366784Y-148553544D01*
X155514354Y-148652147D01*
X155639853Y-148777646D01*
X155738456Y-148925216D01*
X155806376Y-149089188D01*
X155841000Y-149263259D01*
X155841000Y-149440741D01*
X155806376Y-149614812D01*
X155738456Y-149778784D01*
X155639853Y-149926354D01*
X155514354Y-150051853D01*
X155366784Y-150150456D01*
X155202812Y-150218376D01*
X155053512Y-150248073D01*
X155028742Y-150253000D01*
X154851258Y-150253000D01*
X154826488Y-150248073D01*
X154677188Y-150218376D01*
X154513216Y-150150456D01*
X154365646Y-150051853D01*
X154240147Y-149926354D01*
X154141544Y-149778784D01*
X154073624Y-149614812D01*
X154039000Y-149440741D01*
X154039000Y-149263259D01*
X154073624Y-149089188D01*
X154141544Y-148925216D01*
X154240147Y-148777646D01*
X154365646Y-148652147D01*
X154513216Y-148553544D01*
X154677188Y-148485624D01*
X154826488Y-148455927D01*
X154851258Y-148451000D01*
X155028742Y-148451000D01*
X155053512Y-148455927D01*
G37*
G36*
X157593512Y-148455927D02*
G01*
X157742812Y-148485624D01*
X157906784Y-148553544D01*
X158054354Y-148652147D01*
X158179853Y-148777646D01*
X158278456Y-148925216D01*
X158346376Y-149089188D01*
X158381000Y-149263259D01*
X158381000Y-149440741D01*
X158346376Y-149614812D01*
X158278456Y-149778784D01*
X158179853Y-149926354D01*
X158054354Y-150051853D01*
X157906784Y-150150456D01*
X157742812Y-150218376D01*
X157593512Y-150248073D01*
X157568742Y-150253000D01*
X157391258Y-150253000D01*
X157366488Y-150248073D01*
X157217188Y-150218376D01*
X157053216Y-150150456D01*
X156905646Y-150051853D01*
X156780147Y-149926354D01*
X156681544Y-149778784D01*
X156613624Y-149614812D01*
X156579000Y-149440741D01*
X156579000Y-149263259D01*
X156613624Y-149089188D01*
X156681544Y-148925216D01*
X156780147Y-148777646D01*
X156905646Y-148652147D01*
X157053216Y-148553544D01*
X157217188Y-148485624D01*
X157366488Y-148455927D01*
X157391258Y-148451000D01*
X157568742Y-148451000D01*
X157593512Y-148455927D01*
G37*
G36*
X160133512Y-148455927D02*
G01*
X160282812Y-148485624D01*
X160446784Y-148553544D01*
X160594354Y-148652147D01*
X160719853Y-148777646D01*
X160818456Y-148925216D01*
X160886376Y-149089188D01*
X160921000Y-149263259D01*
X160921000Y-149440741D01*
X160886376Y-149614812D01*
X160818456Y-149778784D01*
X160719853Y-149926354D01*
X160594354Y-150051853D01*
X160446784Y-150150456D01*
X160282812Y-150218376D01*
X160133512Y-150248073D01*
X160108742Y-150253000D01*
X159931258Y-150253000D01*
X159906488Y-150248073D01*
X159757188Y-150218376D01*
X159593216Y-150150456D01*
X159445646Y-150051853D01*
X159320147Y-149926354D01*
X159221544Y-149778784D01*
X159153624Y-149614812D01*
X159119000Y-149440741D01*
X159119000Y-149263259D01*
X159153624Y-149089188D01*
X159221544Y-148925216D01*
X159320147Y-148777646D01*
X159445646Y-148652147D01*
X159593216Y-148553544D01*
X159757188Y-148485624D01*
X159906488Y-148455927D01*
X159931258Y-148451000D01*
X160108742Y-148451000D01*
X160133512Y-148455927D01*
G37*
G36*
X162673512Y-148455927D02*
G01*
X162822812Y-148485624D01*
X162986784Y-148553544D01*
X163134354Y-148652147D01*
X163259853Y-148777646D01*
X163358456Y-148925216D01*
X163426376Y-149089188D01*
X163461000Y-149263259D01*
X163461000Y-149440741D01*
X163426376Y-149614812D01*
X163358456Y-149778784D01*
X163259853Y-149926354D01*
X163134354Y-150051853D01*
X162986784Y-150150456D01*
X162822812Y-150218376D01*
X162673512Y-150248073D01*
X162648742Y-150253000D01*
X162471258Y-150253000D01*
X162446488Y-150248073D01*
X162297188Y-150218376D01*
X162133216Y-150150456D01*
X161985646Y-150051853D01*
X161860147Y-149926354D01*
X161761544Y-149778784D01*
X161693624Y-149614812D01*
X161659000Y-149440741D01*
X161659000Y-149263259D01*
X161693624Y-149089188D01*
X161761544Y-148925216D01*
X161860147Y-148777646D01*
X161985646Y-148652147D01*
X162133216Y-148553544D01*
X162297188Y-148485624D01*
X162446488Y-148455927D01*
X162471258Y-148451000D01*
X162648742Y-148451000D01*
X162673512Y-148455927D01*
G37*
G36*
X165213512Y-148455927D02*
G01*
X165362812Y-148485624D01*
X165526784Y-148553544D01*
X165674354Y-148652147D01*
X165799853Y-148777646D01*
X165898456Y-148925216D01*
X165966376Y-149089188D01*
X166001000Y-149263259D01*
X166001000Y-149440741D01*
X165966376Y-149614812D01*
X165898456Y-149778784D01*
X165799853Y-149926354D01*
X165674354Y-150051853D01*
X165526784Y-150150456D01*
X165362812Y-150218376D01*
X165213512Y-150248073D01*
X165188742Y-150253000D01*
X165011258Y-150253000D01*
X164986488Y-150248073D01*
X164837188Y-150218376D01*
X164673216Y-150150456D01*
X164525646Y-150051853D01*
X164400147Y-149926354D01*
X164301544Y-149778784D01*
X164233624Y-149614812D01*
X164199000Y-149440741D01*
X164199000Y-149263259D01*
X164233624Y-149089188D01*
X164301544Y-148925216D01*
X164400147Y-148777646D01*
X164525646Y-148652147D01*
X164673216Y-148553544D01*
X164837188Y-148485624D01*
X164986488Y-148455927D01*
X165011258Y-148451000D01*
X165188742Y-148451000D01*
X165213512Y-148455927D01*
G37*
G36*
X167753512Y-148455927D02*
G01*
X167902812Y-148485624D01*
X168066784Y-148553544D01*
X168214354Y-148652147D01*
X168339853Y-148777646D01*
X168438456Y-148925216D01*
X168506376Y-149089188D01*
X168541000Y-149263259D01*
X168541000Y-149440741D01*
X168506376Y-149614812D01*
X168438456Y-149778784D01*
X168339853Y-149926354D01*
X168214354Y-150051853D01*
X168066784Y-150150456D01*
X167902812Y-150218376D01*
X167753512Y-150248073D01*
X167728742Y-150253000D01*
X167551258Y-150253000D01*
X167526488Y-150248073D01*
X167377188Y-150218376D01*
X167213216Y-150150456D01*
X167065646Y-150051853D01*
X166940147Y-149926354D01*
X166841544Y-149778784D01*
X166773624Y-149614812D01*
X166739000Y-149440741D01*
X166739000Y-149263259D01*
X166773624Y-149089188D01*
X166841544Y-148925216D01*
X166940147Y-148777646D01*
X167065646Y-148652147D01*
X167213216Y-148553544D01*
X167377188Y-148485624D01*
X167526488Y-148455927D01*
X167551258Y-148451000D01*
X167728742Y-148451000D01*
X167753512Y-148455927D01*
G37*
G36*
X170293512Y-148455927D02*
G01*
X170442812Y-148485624D01*
X170606784Y-148553544D01*
X170754354Y-148652147D01*
X170879853Y-148777646D01*
X170978456Y-148925216D01*
X171046376Y-149089188D01*
X171081000Y-149263259D01*
X171081000Y-149440741D01*
X171046376Y-149614812D01*
X170978456Y-149778784D01*
X170879853Y-149926354D01*
X170754354Y-150051853D01*
X170606784Y-150150456D01*
X170442812Y-150218376D01*
X170293512Y-150248073D01*
X170268742Y-150253000D01*
X170091258Y-150253000D01*
X170066488Y-150248073D01*
X169917188Y-150218376D01*
X169753216Y-150150456D01*
X169605646Y-150051853D01*
X169480147Y-149926354D01*
X169381544Y-149778784D01*
X169313624Y-149614812D01*
X169279000Y-149440741D01*
X169279000Y-149263259D01*
X169313624Y-149089188D01*
X169381544Y-148925216D01*
X169480147Y-148777646D01*
X169605646Y-148652147D01*
X169753216Y-148553544D01*
X169917188Y-148485624D01*
X170066488Y-148455927D01*
X170091258Y-148451000D01*
X170268742Y-148451000D01*
X170293512Y-148455927D01*
G37*
G36*
X172833512Y-148455927D02*
G01*
X172982812Y-148485624D01*
X173146784Y-148553544D01*
X173294354Y-148652147D01*
X173419853Y-148777646D01*
X173518456Y-148925216D01*
X173586376Y-149089188D01*
X173621000Y-149263259D01*
X173621000Y-149440741D01*
X173586376Y-149614812D01*
X173518456Y-149778784D01*
X173419853Y-149926354D01*
X173294354Y-150051853D01*
X173146784Y-150150456D01*
X172982812Y-150218376D01*
X172833512Y-150248073D01*
X172808742Y-150253000D01*
X172631258Y-150253000D01*
X172606488Y-150248073D01*
X172457188Y-150218376D01*
X172293216Y-150150456D01*
X172145646Y-150051853D01*
X172020147Y-149926354D01*
X171921544Y-149778784D01*
X171853624Y-149614812D01*
X171819000Y-149440741D01*
X171819000Y-149263259D01*
X171853624Y-149089188D01*
X171921544Y-148925216D01*
X172020147Y-148777646D01*
X172145646Y-148652147D01*
X172293216Y-148553544D01*
X172457188Y-148485624D01*
X172606488Y-148455927D01*
X172631258Y-148451000D01*
X172808742Y-148451000D01*
X172833512Y-148455927D01*
G37*
G36*
X180453512Y-148455927D02*
G01*
X180602812Y-148485624D01*
X180766784Y-148553544D01*
X180914354Y-148652147D01*
X181039853Y-148777646D01*
X181138456Y-148925216D01*
X181206376Y-149089188D01*
X181241000Y-149263259D01*
X181241000Y-149440741D01*
X181206376Y-149614812D01*
X181138456Y-149778784D01*
X181039853Y-149926354D01*
X180914354Y-150051853D01*
X180766784Y-150150456D01*
X180602812Y-150218376D01*
X180453512Y-150248073D01*
X180428742Y-150253000D01*
X180251258Y-150253000D01*
X180226488Y-150248073D01*
X180077188Y-150218376D01*
X179913216Y-150150456D01*
X179765646Y-150051853D01*
X179640147Y-149926354D01*
X179541544Y-149778784D01*
X179473624Y-149614812D01*
X179439000Y-149440741D01*
X179439000Y-149263259D01*
X179473624Y-149089188D01*
X179541544Y-148925216D01*
X179640147Y-148777646D01*
X179765646Y-148652147D01*
X179913216Y-148553544D01*
X180077188Y-148485624D01*
X180226488Y-148455927D01*
X180251258Y-148451000D01*
X180428742Y-148451000D01*
X180453512Y-148455927D01*
G37*
G36*
X182993512Y-148455927D02*
G01*
X183142812Y-148485624D01*
X183306784Y-148553544D01*
X183454354Y-148652147D01*
X183579853Y-148777646D01*
X183678456Y-148925216D01*
X183746376Y-149089188D01*
X183781000Y-149263259D01*
X183781000Y-149440741D01*
X183746376Y-149614812D01*
X183678456Y-149778784D01*
X183579853Y-149926354D01*
X183454354Y-150051853D01*
X183306784Y-150150456D01*
X183142812Y-150218376D01*
X182993512Y-150248073D01*
X182968742Y-150253000D01*
X182791258Y-150253000D01*
X182766488Y-150248073D01*
X182617188Y-150218376D01*
X182453216Y-150150456D01*
X182305646Y-150051853D01*
X182180147Y-149926354D01*
X182081544Y-149778784D01*
X182013624Y-149614812D01*
X181979000Y-149440741D01*
X181979000Y-149263259D01*
X182013624Y-149089188D01*
X182081544Y-148925216D01*
X182180147Y-148777646D01*
X182305646Y-148652147D01*
X182453216Y-148553544D01*
X182617188Y-148485624D01*
X182766488Y-148455927D01*
X182791258Y-148451000D01*
X182968742Y-148451000D01*
X182993512Y-148455927D01*
G37*
G36*
X185533512Y-148455927D02*
G01*
X185682812Y-148485624D01*
X185846784Y-148553544D01*
X185994354Y-148652147D01*
X186119853Y-148777646D01*
X186218456Y-148925216D01*
X186286376Y-149089188D01*
X186321000Y-149263259D01*
X186321000Y-149440741D01*
X186286376Y-149614812D01*
X186218456Y-149778784D01*
X186119853Y-149926354D01*
X185994354Y-150051853D01*
X185846784Y-150150456D01*
X185682812Y-150218376D01*
X185533512Y-150248073D01*
X185508742Y-150253000D01*
X185331258Y-150253000D01*
X185306488Y-150248073D01*
X185157188Y-150218376D01*
X184993216Y-150150456D01*
X184845646Y-150051853D01*
X184720147Y-149926354D01*
X184621544Y-149778784D01*
X184553624Y-149614812D01*
X184519000Y-149440741D01*
X184519000Y-149263259D01*
X184553624Y-149089188D01*
X184621544Y-148925216D01*
X184720147Y-148777646D01*
X184845646Y-148652147D01*
X184993216Y-148553544D01*
X185157188Y-148485624D01*
X185306488Y-148455927D01*
X185331258Y-148451000D01*
X185508742Y-148451000D01*
X185533512Y-148455927D01*
G37*
G36*
X188073512Y-148455927D02*
G01*
X188222812Y-148485624D01*
X188386784Y-148553544D01*
X188534354Y-148652147D01*
X188659853Y-148777646D01*
X188758456Y-148925216D01*
X188826376Y-149089188D01*
X188861000Y-149263259D01*
X188861000Y-149440741D01*
X188826376Y-149614812D01*
X188758456Y-149778784D01*
X188659853Y-149926354D01*
X188534354Y-150051853D01*
X188386784Y-150150456D01*
X188222812Y-150218376D01*
X188073512Y-150248073D01*
X188048742Y-150253000D01*
X187871258Y-150253000D01*
X187846488Y-150248073D01*
X187697188Y-150218376D01*
X187533216Y-150150456D01*
X187385646Y-150051853D01*
X187260147Y-149926354D01*
X187161544Y-149778784D01*
X187093624Y-149614812D01*
X187059000Y-149440741D01*
X187059000Y-149263259D01*
X187093624Y-149089188D01*
X187161544Y-148925216D01*
X187260147Y-148777646D01*
X187385646Y-148652147D01*
X187533216Y-148553544D01*
X187697188Y-148485624D01*
X187846488Y-148455927D01*
X187871258Y-148451000D01*
X188048742Y-148451000D01*
X188073512Y-148455927D01*
G37*
G36*
X190613512Y-148455927D02*
G01*
X190762812Y-148485624D01*
X190926784Y-148553544D01*
X191074354Y-148652147D01*
X191199853Y-148777646D01*
X191298456Y-148925216D01*
X191366376Y-149089188D01*
X191401000Y-149263259D01*
X191401000Y-149440741D01*
X191366376Y-149614812D01*
X191298456Y-149778784D01*
X191199853Y-149926354D01*
X191074354Y-150051853D01*
X190926784Y-150150456D01*
X190762812Y-150218376D01*
X190613512Y-150248073D01*
X190588742Y-150253000D01*
X190411258Y-150253000D01*
X190386488Y-150248073D01*
X190237188Y-150218376D01*
X190073216Y-150150456D01*
X189925646Y-150051853D01*
X189800147Y-149926354D01*
X189701544Y-149778784D01*
X189633624Y-149614812D01*
X189599000Y-149440741D01*
X189599000Y-149263259D01*
X189633624Y-149089188D01*
X189701544Y-148925216D01*
X189800147Y-148777646D01*
X189925646Y-148652147D01*
X190073216Y-148553544D01*
X190237188Y-148485624D01*
X190386488Y-148455927D01*
X190411258Y-148451000D01*
X190588742Y-148451000D01*
X190613512Y-148455927D01*
G37*
G36*
X193153512Y-148455927D02*
G01*
X193302812Y-148485624D01*
X193466784Y-148553544D01*
X193614354Y-148652147D01*
X193739853Y-148777646D01*
X193838456Y-148925216D01*
X193906376Y-149089188D01*
X193941000Y-149263259D01*
X193941000Y-149440741D01*
X193906376Y-149614812D01*
X193838456Y-149778784D01*
X193739853Y-149926354D01*
X193614354Y-150051853D01*
X193466784Y-150150456D01*
X193302812Y-150218376D01*
X193153512Y-150248073D01*
X193128742Y-150253000D01*
X192951258Y-150253000D01*
X192926488Y-150248073D01*
X192777188Y-150218376D01*
X192613216Y-150150456D01*
X192465646Y-150051853D01*
X192340147Y-149926354D01*
X192241544Y-149778784D01*
X192173624Y-149614812D01*
X192139000Y-149440741D01*
X192139000Y-149263259D01*
X192173624Y-149089188D01*
X192241544Y-148925216D01*
X192340147Y-148777646D01*
X192465646Y-148652147D01*
X192613216Y-148553544D01*
X192777188Y-148485624D01*
X192926488Y-148455927D01*
X192951258Y-148451000D01*
X193128742Y-148451000D01*
X193153512Y-148455927D01*
G37*
G36*
X195693512Y-148455927D02*
G01*
X195842812Y-148485624D01*
X196006784Y-148553544D01*
X196154354Y-148652147D01*
X196279853Y-148777646D01*
X196378456Y-148925216D01*
X196446376Y-149089188D01*
X196481000Y-149263259D01*
X196481000Y-149440741D01*
X196446376Y-149614812D01*
X196378456Y-149778784D01*
X196279853Y-149926354D01*
X196154354Y-150051853D01*
X196006784Y-150150456D01*
X195842812Y-150218376D01*
X195693512Y-150248073D01*
X195668742Y-150253000D01*
X195491258Y-150253000D01*
X195466488Y-150248073D01*
X195317188Y-150218376D01*
X195153216Y-150150456D01*
X195005646Y-150051853D01*
X194880147Y-149926354D01*
X194781544Y-149778784D01*
X194713624Y-149614812D01*
X194679000Y-149440741D01*
X194679000Y-149263259D01*
X194713624Y-149089188D01*
X194781544Y-148925216D01*
X194880147Y-148777646D01*
X195005646Y-148652147D01*
X195153216Y-148553544D01*
X195317188Y-148485624D01*
X195466488Y-148455927D01*
X195491258Y-148451000D01*
X195668742Y-148451000D01*
X195693512Y-148455927D01*
G37*
G36*
X198233512Y-148455927D02*
G01*
X198382812Y-148485624D01*
X198546784Y-148553544D01*
X198694354Y-148652147D01*
X198819853Y-148777646D01*
X198918456Y-148925216D01*
X198986376Y-149089188D01*
X199021000Y-149263259D01*
X199021000Y-149440741D01*
X198986376Y-149614812D01*
X198918456Y-149778784D01*
X198819853Y-149926354D01*
X198694354Y-150051853D01*
X198546784Y-150150456D01*
X198382812Y-150218376D01*
X198233512Y-150248073D01*
X198208742Y-150253000D01*
X198031258Y-150253000D01*
X198006488Y-150248073D01*
X197857188Y-150218376D01*
X197693216Y-150150456D01*
X197545646Y-150051853D01*
X197420147Y-149926354D01*
X197321544Y-149778784D01*
X197253624Y-149614812D01*
X197219000Y-149440741D01*
X197219000Y-149263259D01*
X197253624Y-149089188D01*
X197321544Y-148925216D01*
X197420147Y-148777646D01*
X197545646Y-148652147D01*
X197693216Y-148553544D01*
X197857188Y-148485624D01*
X198006488Y-148455927D01*
X198031258Y-148451000D01*
X198208742Y-148451000D01*
X198233512Y-148455927D01*
G37*
G36*
X200773512Y-148455927D02*
G01*
X200922812Y-148485624D01*
X201086784Y-148553544D01*
X201234354Y-148652147D01*
X201359853Y-148777646D01*
X201458456Y-148925216D01*
X201526376Y-149089188D01*
X201561000Y-149263259D01*
X201561000Y-149440741D01*
X201526376Y-149614812D01*
X201458456Y-149778784D01*
X201359853Y-149926354D01*
X201234354Y-150051853D01*
X201086784Y-150150456D01*
X200922812Y-150218376D01*
X200773512Y-150248073D01*
X200748742Y-150253000D01*
X200571258Y-150253000D01*
X200546488Y-150248073D01*
X200397188Y-150218376D01*
X200233216Y-150150456D01*
X200085646Y-150051853D01*
X199960147Y-149926354D01*
X199861544Y-149778784D01*
X199793624Y-149614812D01*
X199759000Y-149440741D01*
X199759000Y-149263259D01*
X199793624Y-149089188D01*
X199861544Y-148925216D01*
X199960147Y-148777646D01*
X200085646Y-148652147D01*
X200233216Y-148553544D01*
X200397188Y-148485624D01*
X200546488Y-148455927D01*
X200571258Y-148451000D01*
X200748742Y-148451000D01*
X200773512Y-148455927D01*
G37*
G36*
X203313512Y-148455927D02*
G01*
X203462812Y-148485624D01*
X203626784Y-148553544D01*
X203774354Y-148652147D01*
X203899853Y-148777646D01*
X203998456Y-148925216D01*
X204066376Y-149089188D01*
X204101000Y-149263259D01*
X204101000Y-149440741D01*
X204066376Y-149614812D01*
X203998456Y-149778784D01*
X203899853Y-149926354D01*
X203774354Y-150051853D01*
X203626784Y-150150456D01*
X203462812Y-150218376D01*
X203313512Y-150248073D01*
X203288742Y-150253000D01*
X203111258Y-150253000D01*
X203086488Y-150248073D01*
X202937188Y-150218376D01*
X202773216Y-150150456D01*
X202625646Y-150051853D01*
X202500147Y-149926354D01*
X202401544Y-149778784D01*
X202333624Y-149614812D01*
X202299000Y-149440741D01*
X202299000Y-149263259D01*
X202333624Y-149089188D01*
X202401544Y-148925216D01*
X202500147Y-148777646D01*
X202625646Y-148652147D01*
X202773216Y-148553544D01*
X202937188Y-148485624D01*
X203086488Y-148455927D01*
X203111258Y-148451000D01*
X203288742Y-148451000D01*
X203313512Y-148455927D01*
G37*
G36*
X209181000Y-150253000D02*
G01*
X207379000Y-150253000D01*
X207379000Y-148451000D01*
X209181000Y-148451000D01*
X209181000Y-150253000D01*
G37*
G36*
X150085200Y-149745800D02*
G01*
X147083200Y-149745800D01*
X147083200Y-148043800D01*
X150085200Y-148043800D01*
X150085200Y-149745800D01*
G37*
G36*
X146185200Y-149745800D02*
G01*
X143183200Y-149745800D01*
X143183200Y-148043800D01*
X146185200Y-148043800D01*
X146185200Y-149745800D01*
G37*
G36*
X149191600Y-145710400D02*
G01*
X148189600Y-145710400D01*
X148189600Y-144408400D01*
X149191600Y-144408400D01*
X149191600Y-145710400D01*
G37*
G36*
X145891600Y-145710400D02*
G01*
X144889600Y-145710400D01*
X144889600Y-144408400D01*
X145891600Y-144408400D01*
X145891600Y-145710400D01*
G37*
G36*
X190773000Y-145456000D02*
G01*
X189171000Y-145456000D01*
X189171000Y-144104000D01*
X190773000Y-144104000D01*
X190773000Y-145456000D01*
G37*
G36*
X188273000Y-145456000D02*
G01*
X186671000Y-145456000D01*
X186671000Y-144104000D01*
X188273000Y-144104000D01*
X188273000Y-145456000D01*
G37*
G36*
X156129000Y-145425000D02*
G01*
X152227000Y-145425000D01*
X152227000Y-143323000D01*
X156129000Y-143323000D01*
X156129000Y-145425000D01*
G37*
G36*
X161125000Y-144510000D02*
G01*
X159423000Y-144510000D01*
X159423000Y-142208000D01*
X161125000Y-142208000D01*
X161125000Y-144510000D01*
G37*
G36*
X207403000Y-144157000D02*
G01*
X205601000Y-144157000D01*
X205601000Y-142355000D01*
X207403000Y-142355000D01*
X207403000Y-144157000D01*
G37*
G36*
X198449000Y-144006000D02*
G01*
X197347000Y-144006000D01*
X197347000Y-141154000D01*
X198449000Y-141154000D01*
X198449000Y-144006000D01*
G37*
G36*
X202449000Y-144006000D02*
G01*
X201347000Y-144006000D01*
X201347000Y-141154000D01*
X202449000Y-141154000D01*
X202449000Y-144006000D01*
G37*
G36*
X186593000Y-136575751D02*
G01*
X186595402Y-136600137D01*
X186602515Y-136623586D01*
X186614066Y-136645197D01*
X186629611Y-136664139D01*
X186648553Y-136679684D01*
X186670164Y-136691235D01*
X186693613Y-136698348D01*
X186717999Y-136700750D01*
X187493000Y-136700750D01*
X187493000Y-142602750D01*
X186717999Y-142602750D01*
X186693613Y-142605152D01*
X186670164Y-142612265D01*
X186648553Y-142623816D01*
X186629611Y-142639361D01*
X186614066Y-142658303D01*
X186602515Y-142679914D01*
X186595402Y-142703363D01*
X186593000Y-142727749D01*
X186593000Y-143502750D01*
X180691000Y-143502750D01*
X180691000Y-142727749D01*
X180688598Y-142703363D01*
X180681485Y-142679914D01*
X180669934Y-142658303D01*
X180654389Y-142639361D01*
X180635447Y-142623816D01*
X180613836Y-142612265D01*
X180590387Y-142605152D01*
X180566001Y-142602750D01*
X179791000Y-142602750D01*
X179791000Y-136700750D01*
X180566001Y-136700750D01*
X180590387Y-136698348D01*
X180613836Y-136691235D01*
X180635447Y-136679684D01*
X180654389Y-136664139D01*
X180669934Y-136645197D01*
X180681485Y-136623586D01*
X180688598Y-136600137D01*
X180691000Y-136575751D01*
X180691000Y-135800750D01*
X186593000Y-135800750D01*
X186593000Y-136575751D01*
G37*
G36*
X170961000Y-143424000D02*
G01*
X169359000Y-143424000D01*
X169359000Y-142072000D01*
X170961000Y-142072000D01*
X170961000Y-143424000D01*
G37*
G36*
X168461000Y-143424000D02*
G01*
X166859000Y-143424000D01*
X166859000Y-142072000D01*
X168461000Y-142072000D01*
X168461000Y-143424000D01*
G37*
G36*
X174557000Y-143170000D02*
G01*
X172955000Y-143170000D01*
X172955000Y-141818000D01*
X174557000Y-141818000D01*
X174557000Y-143170000D01*
G37*
G36*
X177057000Y-143170000D02*
G01*
X175455000Y-143170000D01*
X175455000Y-141818000D01*
X177057000Y-141818000D01*
X177057000Y-143170000D01*
G37*
G36*
X145452312Y-141089927D02*
G01*
X145601612Y-141119624D01*
X145765584Y-141187544D01*
X145913154Y-141286147D01*
X146038653Y-141411646D01*
X146137256Y-141559216D01*
X146205176Y-141723188D01*
X146239800Y-141897259D01*
X146239800Y-142074741D01*
X146205176Y-142248812D01*
X146137256Y-142412784D01*
X146038653Y-142560354D01*
X145913154Y-142685853D01*
X145765584Y-142784456D01*
X145601612Y-142852376D01*
X145452312Y-142882073D01*
X145427542Y-142887000D01*
X145250058Y-142887000D01*
X145225288Y-142882073D01*
X145075988Y-142852376D01*
X144912016Y-142784456D01*
X144764446Y-142685853D01*
X144638947Y-142560354D01*
X144540344Y-142412784D01*
X144472424Y-142248812D01*
X144437800Y-142074741D01*
X144437800Y-141897259D01*
X144472424Y-141723188D01*
X144540344Y-141559216D01*
X144638947Y-141411646D01*
X144764446Y-141286147D01*
X144912016Y-141187544D01*
X145075988Y-141119624D01*
X145225288Y-141089927D01*
X145250058Y-141085000D01*
X145427542Y-141085000D01*
X145452312Y-141089927D01*
G37*
G36*
X148779800Y-142887000D02*
G01*
X146977800Y-142887000D01*
X146977800Y-141085000D01*
X148779800Y-141085000D01*
X148779800Y-142887000D01*
G37*
G36*
X206615512Y-139819927D02*
G01*
X206764812Y-139849624D01*
X206928784Y-139917544D01*
X207076354Y-140016147D01*
X207201853Y-140141646D01*
X207300456Y-140289216D01*
X207368376Y-140453188D01*
X207403000Y-140627259D01*
X207403000Y-140804741D01*
X207368376Y-140978812D01*
X207300456Y-141142784D01*
X207201853Y-141290354D01*
X207076354Y-141415853D01*
X206928784Y-141514456D01*
X206764812Y-141582376D01*
X206615512Y-141612073D01*
X206590742Y-141617000D01*
X206413258Y-141617000D01*
X206388488Y-141612073D01*
X206239188Y-141582376D01*
X206075216Y-141514456D01*
X205927646Y-141415853D01*
X205802147Y-141290354D01*
X205703544Y-141142784D01*
X205635624Y-140978812D01*
X205601000Y-140804741D01*
X205601000Y-140627259D01*
X205635624Y-140453188D01*
X205703544Y-140289216D01*
X205802147Y-140141646D01*
X205927646Y-140016147D01*
X206075216Y-139917544D01*
X206239188Y-139849624D01*
X206388488Y-139819927D01*
X206413258Y-139815000D01*
X206590742Y-139815000D01*
X206615512Y-139819927D01*
G37*
G36*
X161125000Y-141510000D02*
G01*
X159423000Y-141510000D01*
X159423000Y-139208000D01*
X161125000Y-139208000D01*
X161125000Y-141510000D01*
G37*
G36*
X174626000Y-140501000D02*
G01*
X171199000Y-140501000D01*
X171199000Y-137899000D01*
X174626000Y-137899000D01*
X174626000Y-140501000D01*
G37*
G36*
X168801000Y-140501000D02*
G01*
X165374000Y-140501000D01*
X165374000Y-137899000D01*
X168801000Y-137899000D01*
X168801000Y-140501000D01*
G37*
G36*
X145452312Y-138549927D02*
G01*
X145601612Y-138579624D01*
X145765584Y-138647544D01*
X145913154Y-138746147D01*
X146038653Y-138871646D01*
X146137256Y-139019216D01*
X146205176Y-139183188D01*
X146239800Y-139357259D01*
X146239800Y-139534741D01*
X146205176Y-139708812D01*
X146137256Y-139872784D01*
X146038653Y-140020354D01*
X145913154Y-140145853D01*
X145765584Y-140244456D01*
X145601612Y-140312376D01*
X145452312Y-140342073D01*
X145427542Y-140347000D01*
X145250058Y-140347000D01*
X145225288Y-140342073D01*
X145075988Y-140312376D01*
X144912016Y-140244456D01*
X144764446Y-140145853D01*
X144638947Y-140020354D01*
X144540344Y-139872784D01*
X144472424Y-139708812D01*
X144437800Y-139534741D01*
X144437800Y-139357259D01*
X144472424Y-139183188D01*
X144540344Y-139019216D01*
X144638947Y-138871646D01*
X144764446Y-138746147D01*
X144912016Y-138647544D01*
X145075988Y-138579624D01*
X145225288Y-138549927D01*
X145250058Y-138545000D01*
X145427542Y-138545000D01*
X145452312Y-138549927D01*
G37*
G36*
X147992312Y-138549927D02*
G01*
X148141612Y-138579624D01*
X148305584Y-138647544D01*
X148453154Y-138746147D01*
X148578653Y-138871646D01*
X148677256Y-139019216D01*
X148745176Y-139183188D01*
X148779800Y-139357259D01*
X148779800Y-139534741D01*
X148745176Y-139708812D01*
X148677256Y-139872784D01*
X148578653Y-140020354D01*
X148453154Y-140145853D01*
X148305584Y-140244456D01*
X148141612Y-140312376D01*
X147992312Y-140342073D01*
X147967542Y-140347000D01*
X147790058Y-140347000D01*
X147765288Y-140342073D01*
X147615988Y-140312376D01*
X147452016Y-140244456D01*
X147304446Y-140145853D01*
X147178947Y-140020354D01*
X147080344Y-139872784D01*
X147012424Y-139708812D01*
X146977800Y-139534741D01*
X146977800Y-139357259D01*
X147012424Y-139183188D01*
X147080344Y-139019216D01*
X147178947Y-138871646D01*
X147304446Y-138746147D01*
X147452016Y-138647544D01*
X147615988Y-138579624D01*
X147765288Y-138549927D01*
X147790058Y-138545000D01*
X147967542Y-138545000D01*
X147992312Y-138549927D01*
G37*
G36*
X152679000Y-139125000D02*
G01*
X151077000Y-139125000D01*
X151077000Y-137023000D01*
X152679000Y-137023000D01*
X152679000Y-139125000D01*
G37*
G36*
X157279000Y-139125000D02*
G01*
X155677000Y-139125000D01*
X155677000Y-137023000D01*
X157279000Y-137023000D01*
X157279000Y-139125000D01*
G37*
G36*
X154979000Y-139125000D02*
G01*
X153377000Y-139125000D01*
X153377000Y-137023000D01*
X154979000Y-137023000D01*
X154979000Y-139125000D01*
G37*
G36*
X206615512Y-137279927D02*
G01*
X206764812Y-137309624D01*
X206928784Y-137377544D01*
X207076354Y-137476147D01*
X207201853Y-137601646D01*
X207300456Y-137749216D01*
X207368376Y-137913188D01*
X207403000Y-138087259D01*
X207403000Y-138264741D01*
X207368376Y-138438812D01*
X207300456Y-138602784D01*
X207201853Y-138750354D01*
X207076354Y-138875853D01*
X206928784Y-138974456D01*
X206764812Y-139042376D01*
X206615512Y-139072073D01*
X206590742Y-139077000D01*
X206413258Y-139077000D01*
X206388488Y-139072073D01*
X206239188Y-139042376D01*
X206075216Y-138974456D01*
X205927646Y-138875853D01*
X205802147Y-138750354D01*
X205703544Y-138602784D01*
X205635624Y-138438812D01*
X205601000Y-138264741D01*
X205601000Y-138087259D01*
X205635624Y-137913188D01*
X205703544Y-137749216D01*
X205802147Y-137601646D01*
X205927646Y-137476147D01*
X206075216Y-137377544D01*
X206239188Y-137309624D01*
X206388488Y-137279927D01*
X206413258Y-137275000D01*
X206590742Y-137275000D01*
X206615512Y-137279927D01*
G37*
G36*
X198449000Y-138246000D02*
G01*
X197347000Y-138246000D01*
X197347000Y-135394000D01*
X198449000Y-135394000D01*
X198449000Y-138246000D01*
G37*
G36*
X202449000Y-138246000D02*
G01*
X201347000Y-138246000D01*
X201347000Y-135394000D01*
X202449000Y-135394000D01*
X202449000Y-138246000D01*
G37*
G36*
X161125000Y-138033000D02*
G01*
X159423000Y-138033000D01*
X159423000Y-135731000D01*
X161125000Y-135731000D01*
X161125000Y-138033000D01*
G37*
G36*
X145452312Y-136009927D02*
G01*
X145601612Y-136039624D01*
X145765584Y-136107544D01*
X145913154Y-136206147D01*
X146038653Y-136331646D01*
X146137256Y-136479216D01*
X146205176Y-136643188D01*
X146239800Y-136817259D01*
X146239800Y-136994741D01*
X146205176Y-137168812D01*
X146137256Y-137332784D01*
X146038653Y-137480354D01*
X145913154Y-137605853D01*
X145765584Y-137704456D01*
X145601612Y-137772376D01*
X145452312Y-137802073D01*
X145427542Y-137807000D01*
X145250058Y-137807000D01*
X145225288Y-137802073D01*
X145075988Y-137772376D01*
X144912016Y-137704456D01*
X144764446Y-137605853D01*
X144638947Y-137480354D01*
X144540344Y-137332784D01*
X144472424Y-137168812D01*
X144437800Y-136994741D01*
X144437800Y-136817259D01*
X144472424Y-136643188D01*
X144540344Y-136479216D01*
X144638947Y-136331646D01*
X144764446Y-136206147D01*
X144912016Y-136107544D01*
X145075988Y-136039624D01*
X145225288Y-136009927D01*
X145250058Y-136005000D01*
X145427542Y-136005000D01*
X145452312Y-136009927D01*
G37*
G36*
X147992312Y-136009927D02*
G01*
X148141612Y-136039624D01*
X148305584Y-136107544D01*
X148453154Y-136206147D01*
X148578653Y-136331646D01*
X148677256Y-136479216D01*
X148745176Y-136643188D01*
X148779800Y-136817259D01*
X148779800Y-136994741D01*
X148745176Y-137168812D01*
X148677256Y-137332784D01*
X148578653Y-137480354D01*
X148453154Y-137605853D01*
X148305584Y-137704456D01*
X148141612Y-137772376D01*
X147992312Y-137802073D01*
X147967542Y-137807000D01*
X147790058Y-137807000D01*
X147765288Y-137802073D01*
X147615988Y-137772376D01*
X147452016Y-137704456D01*
X147304446Y-137605853D01*
X147178947Y-137480354D01*
X147080344Y-137332784D01*
X147012424Y-137168812D01*
X146977800Y-136994741D01*
X146977800Y-136817259D01*
X147012424Y-136643188D01*
X147080344Y-136479216D01*
X147178947Y-136331646D01*
X147304446Y-136206147D01*
X147452016Y-136107544D01*
X147615988Y-136039624D01*
X147765288Y-136009927D01*
X147790058Y-136005000D01*
X147967542Y-136005000D01*
X147992312Y-136009927D01*
G37*
G36*
X192725000Y-136771000D02*
G01*
X191323000Y-136771000D01*
X191323000Y-135169000D01*
X192725000Y-135169000D01*
X192725000Y-136771000D01*
G37*
G36*
X189906000Y-136671000D02*
G01*
X188554000Y-136671000D01*
X188554000Y-135069000D01*
X189906000Y-135069000D01*
X189906000Y-136671000D01*
G37*
G36*
X206615512Y-134739927D02*
G01*
X206764812Y-134769624D01*
X206928784Y-134837544D01*
X207076354Y-134936147D01*
X207201853Y-135061646D01*
X207300456Y-135209216D01*
X207368376Y-135373188D01*
X207403000Y-135547259D01*
X207403000Y-135724741D01*
X207368376Y-135898812D01*
X207300456Y-136062784D01*
X207201853Y-136210354D01*
X207076354Y-136335853D01*
X206928784Y-136434456D01*
X206764812Y-136502376D01*
X206615512Y-136532073D01*
X206590742Y-136537000D01*
X206413258Y-136537000D01*
X206388488Y-136532073D01*
X206239188Y-136502376D01*
X206075216Y-136434456D01*
X205927646Y-136335853D01*
X205802147Y-136210354D01*
X205703544Y-136062784D01*
X205635624Y-135898812D01*
X205601000Y-135724741D01*
X205601000Y-135547259D01*
X205635624Y-135373188D01*
X205703544Y-135209216D01*
X205802147Y-135061646D01*
X205927646Y-134936147D01*
X206075216Y-134837544D01*
X206239188Y-134769624D01*
X206388488Y-134739927D01*
X206413258Y-134735000D01*
X206590742Y-134735000D01*
X206615512Y-134739927D01*
G37*
G36*
X170199000Y-135804000D02*
G01*
X168597000Y-135804000D01*
X168597000Y-134452000D01*
X170199000Y-134452000D01*
X170199000Y-135804000D01*
G37*
G36*
X167699000Y-135804000D02*
G01*
X166097000Y-135804000D01*
X166097000Y-134452000D01*
X167699000Y-134452000D01*
X167699000Y-135804000D01*
G37*
G36*
X176843000Y-135550000D02*
G01*
X175241000Y-135550000D01*
X175241000Y-134198000D01*
X176843000Y-134198000D01*
X176843000Y-135550000D01*
G37*
G36*
X179343000Y-135550000D02*
G01*
X177741000Y-135550000D01*
X177741000Y-134198000D01*
X179343000Y-134198000D01*
X179343000Y-135550000D01*
G37*
G36*
X145452312Y-133469927D02*
G01*
X145601612Y-133499624D01*
X145765584Y-133567544D01*
X145913154Y-133666147D01*
X146038653Y-133791646D01*
X146137256Y-133939216D01*
X146205176Y-134103188D01*
X146239800Y-134277259D01*
X146239800Y-134454741D01*
X146205176Y-134628812D01*
X146137256Y-134792784D01*
X146038653Y-134940354D01*
X145913154Y-135065853D01*
X145765584Y-135164456D01*
X145601612Y-135232376D01*
X145452312Y-135262073D01*
X145427542Y-135267000D01*
X145250058Y-135267000D01*
X145225288Y-135262073D01*
X145075988Y-135232376D01*
X144912016Y-135164456D01*
X144764446Y-135065853D01*
X144638947Y-134940354D01*
X144540344Y-134792784D01*
X144472424Y-134628812D01*
X144437800Y-134454741D01*
X144437800Y-134277259D01*
X144472424Y-134103188D01*
X144540344Y-133939216D01*
X144638947Y-133791646D01*
X144764446Y-133666147D01*
X144912016Y-133567544D01*
X145075988Y-133499624D01*
X145225288Y-133469927D01*
X145250058Y-133465000D01*
X145427542Y-133465000D01*
X145452312Y-133469927D01*
G37*
G36*
X147992312Y-133469927D02*
G01*
X148141612Y-133499624D01*
X148305584Y-133567544D01*
X148453154Y-133666147D01*
X148578653Y-133791646D01*
X148677256Y-133939216D01*
X148745176Y-134103188D01*
X148779800Y-134277259D01*
X148779800Y-134454741D01*
X148745176Y-134628812D01*
X148677256Y-134792784D01*
X148578653Y-134940354D01*
X148453154Y-135065853D01*
X148305584Y-135164456D01*
X148141612Y-135232376D01*
X147992312Y-135262073D01*
X147967542Y-135267000D01*
X147790058Y-135267000D01*
X147765288Y-135262073D01*
X147615988Y-135232376D01*
X147452016Y-135164456D01*
X147304446Y-135065853D01*
X147178947Y-134940354D01*
X147080344Y-134792784D01*
X147012424Y-134628812D01*
X146977800Y-134454741D01*
X146977800Y-134277259D01*
X147012424Y-134103188D01*
X147080344Y-133939216D01*
X147178947Y-133791646D01*
X147304446Y-133666147D01*
X147452016Y-133567544D01*
X147615988Y-133499624D01*
X147765288Y-133469927D01*
X147790058Y-133465000D01*
X147967542Y-133465000D01*
X147992312Y-133469927D01*
G37*
G36*
X161125000Y-135033000D02*
G01*
X159423000Y-135033000D01*
X159423000Y-132731000D01*
X161125000Y-132731000D01*
X161125000Y-135033000D01*
G37*
G36*
X153530400Y-134261000D02*
G01*
X151828400Y-134261000D01*
X151828400Y-131259000D01*
X153530400Y-131259000D01*
X153530400Y-134261000D01*
G37*
G36*
X189906000Y-134171000D02*
G01*
X188554000Y-134171000D01*
X188554000Y-132569000D01*
X189906000Y-132569000D01*
X189906000Y-134171000D01*
G37*
G36*
X192725000Y-134071000D02*
G01*
X191323000Y-134071000D01*
X191323000Y-132469000D01*
X192725000Y-132469000D01*
X192725000Y-134071000D01*
G37*
G36*
X145452312Y-130929927D02*
G01*
X145601612Y-130959624D01*
X145765584Y-131027544D01*
X145913154Y-131126147D01*
X146038653Y-131251646D01*
X146137256Y-131399216D01*
X146205176Y-131563188D01*
X146239800Y-131737259D01*
X146239800Y-131914741D01*
X146205176Y-132088812D01*
X146137256Y-132252784D01*
X146038653Y-132400354D01*
X145913154Y-132525853D01*
X145765584Y-132624456D01*
X145601612Y-132692376D01*
X145452312Y-132722073D01*
X145427542Y-132727000D01*
X145250058Y-132727000D01*
X145225288Y-132722073D01*
X145075988Y-132692376D01*
X144912016Y-132624456D01*
X144764446Y-132525853D01*
X144638947Y-132400354D01*
X144540344Y-132252784D01*
X144472424Y-132088812D01*
X144437800Y-131914741D01*
X144437800Y-131737259D01*
X144472424Y-131563188D01*
X144540344Y-131399216D01*
X144638947Y-131251646D01*
X144764446Y-131126147D01*
X144912016Y-131027544D01*
X145075988Y-130959624D01*
X145225288Y-130929927D01*
X145250058Y-130925000D01*
X145427542Y-130925000D01*
X145452312Y-130929927D01*
G37*
G36*
X147992312Y-130929927D02*
G01*
X148141612Y-130959624D01*
X148305584Y-131027544D01*
X148453154Y-131126147D01*
X148578653Y-131251646D01*
X148677256Y-131399216D01*
X148745176Y-131563188D01*
X148779800Y-131737259D01*
X148779800Y-131914741D01*
X148745176Y-132088812D01*
X148677256Y-132252784D01*
X148578653Y-132400354D01*
X148453154Y-132525853D01*
X148305584Y-132624456D01*
X148141612Y-132692376D01*
X147992312Y-132722073D01*
X147967542Y-132727000D01*
X147790058Y-132727000D01*
X147765288Y-132722073D01*
X147615988Y-132692376D01*
X147452016Y-132624456D01*
X147304446Y-132525853D01*
X147178947Y-132400354D01*
X147080344Y-132252784D01*
X147012424Y-132088812D01*
X146977800Y-131914741D01*
X146977800Y-131737259D01*
X147012424Y-131563188D01*
X147080344Y-131399216D01*
X147178947Y-131251646D01*
X147304446Y-131126147D01*
X147452016Y-131027544D01*
X147615988Y-130959624D01*
X147765288Y-130929927D01*
X147790058Y-130925000D01*
X147967542Y-130925000D01*
X147992312Y-130929927D01*
G37*
G36*
X153530400Y-130361000D02*
G01*
X151828400Y-130361000D01*
X151828400Y-127359000D01*
X153530400Y-127359000D01*
X153530400Y-130361000D01*
G37*
G36*
X175373512Y-128135927D02*
G01*
X175522812Y-128165624D01*
X175686784Y-128233544D01*
X175834354Y-128332147D01*
X175959853Y-128457646D01*
X176058456Y-128605216D01*
X176126376Y-128769188D01*
X176161000Y-128943259D01*
X176161000Y-129120741D01*
X176126376Y-129294812D01*
X176058456Y-129458784D01*
X175959853Y-129606354D01*
X175834354Y-129731853D01*
X175686784Y-129830456D01*
X175522812Y-129898376D01*
X175373512Y-129928073D01*
X175348742Y-129933000D01*
X175171258Y-129933000D01*
X175146488Y-129928073D01*
X174997188Y-129898376D01*
X174833216Y-129830456D01*
X174685646Y-129731853D01*
X174560147Y-129606354D01*
X174461544Y-129458784D01*
X174393624Y-129294812D01*
X174359000Y-129120741D01*
X174359000Y-128943259D01*
X174393624Y-128769188D01*
X174461544Y-128605216D01*
X174560147Y-128457646D01*
X174685646Y-128332147D01*
X174833216Y-128233544D01*
X174997188Y-128165624D01*
X175146488Y-128135927D01*
X175171258Y-128131000D01*
X175348742Y-128131000D01*
X175373512Y-128135927D01*
G37*
G36*
X204101000Y-129933000D02*
G01*
X202299000Y-129933000D01*
X202299000Y-128131000D01*
X204101000Y-128131000D01*
X204101000Y-129933000D01*
G37*
G36*
X200773512Y-128135927D02*
G01*
X200922812Y-128165624D01*
X201086784Y-128233544D01*
X201234354Y-128332147D01*
X201359853Y-128457646D01*
X201458456Y-128605216D01*
X201526376Y-128769188D01*
X201561000Y-128943259D01*
X201561000Y-129120741D01*
X201526376Y-129294812D01*
X201458456Y-129458784D01*
X201359853Y-129606354D01*
X201234354Y-129731853D01*
X201086784Y-129830456D01*
X200922812Y-129898376D01*
X200773512Y-129928073D01*
X200748742Y-129933000D01*
X200571258Y-129933000D01*
X200546488Y-129928073D01*
X200397188Y-129898376D01*
X200233216Y-129830456D01*
X200085646Y-129731853D01*
X199960147Y-129606354D01*
X199861544Y-129458784D01*
X199793624Y-129294812D01*
X199759000Y-129120741D01*
X199759000Y-128943259D01*
X199793624Y-128769188D01*
X199861544Y-128605216D01*
X199960147Y-128457646D01*
X200085646Y-128332147D01*
X200233216Y-128233544D01*
X200397188Y-128165624D01*
X200546488Y-128135927D01*
X200571258Y-128131000D01*
X200748742Y-128131000D01*
X200773512Y-128135927D01*
G37*
G36*
X198233512Y-128135927D02*
G01*
X198382812Y-128165624D01*
X198546784Y-128233544D01*
X198694354Y-128332147D01*
X198819853Y-128457646D01*
X198918456Y-128605216D01*
X198986376Y-128769188D01*
X199021000Y-128943259D01*
X199021000Y-129120741D01*
X198986376Y-129294812D01*
X198918456Y-129458784D01*
X198819853Y-129606354D01*
X198694354Y-129731853D01*
X198546784Y-129830456D01*
X198382812Y-129898376D01*
X198233512Y-129928073D01*
X198208742Y-129933000D01*
X198031258Y-129933000D01*
X198006488Y-129928073D01*
X197857188Y-129898376D01*
X197693216Y-129830456D01*
X197545646Y-129731853D01*
X197420147Y-129606354D01*
X197321544Y-129458784D01*
X197253624Y-129294812D01*
X197219000Y-129120741D01*
X197219000Y-128943259D01*
X197253624Y-128769188D01*
X197321544Y-128605216D01*
X197420147Y-128457646D01*
X197545646Y-128332147D01*
X197693216Y-128233544D01*
X197857188Y-128165624D01*
X198006488Y-128135927D01*
X198031258Y-128131000D01*
X198208742Y-128131000D01*
X198233512Y-128135927D01*
G37*
G36*
X195693512Y-128135927D02*
G01*
X195842812Y-128165624D01*
X196006784Y-128233544D01*
X196154354Y-128332147D01*
X196279853Y-128457646D01*
X196378456Y-128605216D01*
X196446376Y-128769188D01*
X196481000Y-128943259D01*
X196481000Y-129120741D01*
X196446376Y-129294812D01*
X196378456Y-129458784D01*
X196279853Y-129606354D01*
X196154354Y-129731853D01*
X196006784Y-129830456D01*
X195842812Y-129898376D01*
X195693512Y-129928073D01*
X195668742Y-129933000D01*
X195491258Y-129933000D01*
X195466488Y-129928073D01*
X195317188Y-129898376D01*
X195153216Y-129830456D01*
X195005646Y-129731853D01*
X194880147Y-129606354D01*
X194781544Y-129458784D01*
X194713624Y-129294812D01*
X194679000Y-129120741D01*
X194679000Y-128943259D01*
X194713624Y-128769188D01*
X194781544Y-128605216D01*
X194880147Y-128457646D01*
X195005646Y-128332147D01*
X195153216Y-128233544D01*
X195317188Y-128165624D01*
X195466488Y-128135927D01*
X195491258Y-128131000D01*
X195668742Y-128131000D01*
X195693512Y-128135927D01*
G37*
G36*
X193153512Y-128135927D02*
G01*
X193302812Y-128165624D01*
X193466784Y-128233544D01*
X193614354Y-128332147D01*
X193739853Y-128457646D01*
X193838456Y-128605216D01*
X193906376Y-128769188D01*
X193941000Y-128943259D01*
X193941000Y-129120741D01*
X193906376Y-129294812D01*
X193838456Y-129458784D01*
X193739853Y-129606354D01*
X193614354Y-129731853D01*
X193466784Y-129830456D01*
X193302812Y-129898376D01*
X193153512Y-129928073D01*
X193128742Y-129933000D01*
X192951258Y-129933000D01*
X192926488Y-129928073D01*
X192777188Y-129898376D01*
X192613216Y-129830456D01*
X192465646Y-129731853D01*
X192340147Y-129606354D01*
X192241544Y-129458784D01*
X192173624Y-129294812D01*
X192139000Y-129120741D01*
X192139000Y-128943259D01*
X192173624Y-128769188D01*
X192241544Y-128605216D01*
X192340147Y-128457646D01*
X192465646Y-128332147D01*
X192613216Y-128233544D01*
X192777188Y-128165624D01*
X192926488Y-128135927D01*
X192951258Y-128131000D01*
X193128742Y-128131000D01*
X193153512Y-128135927D01*
G37*
G36*
X190613512Y-128135927D02*
G01*
X190762812Y-128165624D01*
X190926784Y-128233544D01*
X191074354Y-128332147D01*
X191199853Y-128457646D01*
X191298456Y-128605216D01*
X191366376Y-128769188D01*
X191401000Y-128943259D01*
X191401000Y-129120741D01*
X191366376Y-129294812D01*
X191298456Y-129458784D01*
X191199853Y-129606354D01*
X191074354Y-129731853D01*
X190926784Y-129830456D01*
X190762812Y-129898376D01*
X190613512Y-129928073D01*
X190588742Y-129933000D01*
X190411258Y-129933000D01*
X190386488Y-129928073D01*
X190237188Y-129898376D01*
X190073216Y-129830456D01*
X189925646Y-129731853D01*
X189800147Y-129606354D01*
X189701544Y-129458784D01*
X189633624Y-129294812D01*
X189599000Y-129120741D01*
X189599000Y-128943259D01*
X189633624Y-128769188D01*
X189701544Y-128605216D01*
X189800147Y-128457646D01*
X189925646Y-128332147D01*
X190073216Y-128233544D01*
X190237188Y-128165624D01*
X190386488Y-128135927D01*
X190411258Y-128131000D01*
X190588742Y-128131000D01*
X190613512Y-128135927D01*
G37*
G36*
X188073512Y-128135927D02*
G01*
X188222812Y-128165624D01*
X188386784Y-128233544D01*
X188534354Y-128332147D01*
X188659853Y-128457646D01*
X188758456Y-128605216D01*
X188826376Y-128769188D01*
X188861000Y-128943259D01*
X188861000Y-129120741D01*
X188826376Y-129294812D01*
X188758456Y-129458784D01*
X188659853Y-129606354D01*
X188534354Y-129731853D01*
X188386784Y-129830456D01*
X188222812Y-129898376D01*
X188073512Y-129928073D01*
X188048742Y-129933000D01*
X187871258Y-129933000D01*
X187846488Y-129928073D01*
X187697188Y-129898376D01*
X187533216Y-129830456D01*
X187385646Y-129731853D01*
X187260147Y-129606354D01*
X187161544Y-129458784D01*
X187093624Y-129294812D01*
X187059000Y-129120741D01*
X187059000Y-128943259D01*
X187093624Y-128769188D01*
X187161544Y-128605216D01*
X187260147Y-128457646D01*
X187385646Y-128332147D01*
X187533216Y-128233544D01*
X187697188Y-128165624D01*
X187846488Y-128135927D01*
X187871258Y-128131000D01*
X188048742Y-128131000D01*
X188073512Y-128135927D01*
G37*
G36*
X185533512Y-128135927D02*
G01*
X185682812Y-128165624D01*
X185846784Y-128233544D01*
X185994354Y-128332147D01*
X186119853Y-128457646D01*
X186218456Y-128605216D01*
X186286376Y-128769188D01*
X186321000Y-128943259D01*
X186321000Y-129120741D01*
X186286376Y-129294812D01*
X186218456Y-129458784D01*
X186119853Y-129606354D01*
X185994354Y-129731853D01*
X185846784Y-129830456D01*
X185682812Y-129898376D01*
X185533512Y-129928073D01*
X185508742Y-129933000D01*
X185331258Y-129933000D01*
X185306488Y-129928073D01*
X185157188Y-129898376D01*
X184993216Y-129830456D01*
X184845646Y-129731853D01*
X184720147Y-129606354D01*
X184621544Y-129458784D01*
X184553624Y-129294812D01*
X184519000Y-129120741D01*
X184519000Y-128943259D01*
X184553624Y-128769188D01*
X184621544Y-128605216D01*
X184720147Y-128457646D01*
X184845646Y-128332147D01*
X184993216Y-128233544D01*
X185157188Y-128165624D01*
X185306488Y-128135927D01*
X185331258Y-128131000D01*
X185508742Y-128131000D01*
X185533512Y-128135927D01*
G37*
G36*
X182993512Y-128135927D02*
G01*
X183142812Y-128165624D01*
X183306784Y-128233544D01*
X183454354Y-128332147D01*
X183579853Y-128457646D01*
X183678456Y-128605216D01*
X183746376Y-128769188D01*
X183781000Y-128943259D01*
X183781000Y-129120741D01*
X183746376Y-129294812D01*
X183678456Y-129458784D01*
X183579853Y-129606354D01*
X183454354Y-129731853D01*
X183306784Y-129830456D01*
X183142812Y-129898376D01*
X182993512Y-129928073D01*
X182968742Y-129933000D01*
X182791258Y-129933000D01*
X182766488Y-129928073D01*
X182617188Y-129898376D01*
X182453216Y-129830456D01*
X182305646Y-129731853D01*
X182180147Y-129606354D01*
X182081544Y-129458784D01*
X182013624Y-129294812D01*
X181979000Y-129120741D01*
X181979000Y-128943259D01*
X182013624Y-128769188D01*
X182081544Y-128605216D01*
X182180147Y-128457646D01*
X182305646Y-128332147D01*
X182453216Y-128233544D01*
X182617188Y-128165624D01*
X182766488Y-128135927D01*
X182791258Y-128131000D01*
X182968742Y-128131000D01*
X182993512Y-128135927D01*
G37*
G36*
X209181000Y-129933000D02*
G01*
X207379000Y-129933000D01*
X207379000Y-128131000D01*
X209181000Y-128131000D01*
X209181000Y-129933000D01*
G37*
G36*
X177913512Y-128135927D02*
G01*
X178062812Y-128165624D01*
X178226784Y-128233544D01*
X178374354Y-128332147D01*
X178499853Y-128457646D01*
X178598456Y-128605216D01*
X178666376Y-128769188D01*
X178701000Y-128943259D01*
X178701000Y-129120741D01*
X178666376Y-129294812D01*
X178598456Y-129458784D01*
X178499853Y-129606354D01*
X178374354Y-129731853D01*
X178226784Y-129830456D01*
X178062812Y-129898376D01*
X177913512Y-129928073D01*
X177888742Y-129933000D01*
X177711258Y-129933000D01*
X177686488Y-129928073D01*
X177537188Y-129898376D01*
X177373216Y-129830456D01*
X177225646Y-129731853D01*
X177100147Y-129606354D01*
X177001544Y-129458784D01*
X176933624Y-129294812D01*
X176899000Y-129120741D01*
X176899000Y-128943259D01*
X176933624Y-128769188D01*
X177001544Y-128605216D01*
X177100147Y-128457646D01*
X177225646Y-128332147D01*
X177373216Y-128233544D01*
X177537188Y-128165624D01*
X177686488Y-128135927D01*
X177711258Y-128131000D01*
X177888742Y-128131000D01*
X177913512Y-128135927D01*
G37*
G36*
X172833512Y-128135927D02*
G01*
X172982812Y-128165624D01*
X173146784Y-128233544D01*
X173294354Y-128332147D01*
X173419853Y-128457646D01*
X173518456Y-128605216D01*
X173586376Y-128769188D01*
X173621000Y-128943259D01*
X173621000Y-129120741D01*
X173586376Y-129294812D01*
X173518456Y-129458784D01*
X173419853Y-129606354D01*
X173294354Y-129731853D01*
X173146784Y-129830456D01*
X172982812Y-129898376D01*
X172833512Y-129928073D01*
X172808742Y-129933000D01*
X172631258Y-129933000D01*
X172606488Y-129928073D01*
X172457188Y-129898376D01*
X172293216Y-129830456D01*
X172145646Y-129731853D01*
X172020147Y-129606354D01*
X171921544Y-129458784D01*
X171853624Y-129294812D01*
X171819000Y-129120741D01*
X171819000Y-128943259D01*
X171853624Y-128769188D01*
X171921544Y-128605216D01*
X172020147Y-128457646D01*
X172145646Y-128332147D01*
X172293216Y-128233544D01*
X172457188Y-128165624D01*
X172606488Y-128135927D01*
X172631258Y-128131000D01*
X172808742Y-128131000D01*
X172833512Y-128135927D01*
G37*
G36*
X170293512Y-128135927D02*
G01*
X170442812Y-128165624D01*
X170606784Y-128233544D01*
X170754354Y-128332147D01*
X170879853Y-128457646D01*
X170978456Y-128605216D01*
X171046376Y-128769188D01*
X171081000Y-128943259D01*
X171081000Y-129120741D01*
X171046376Y-129294812D01*
X170978456Y-129458784D01*
X170879853Y-129606354D01*
X170754354Y-129731853D01*
X170606784Y-129830456D01*
X170442812Y-129898376D01*
X170293512Y-129928073D01*
X170268742Y-129933000D01*
X170091258Y-129933000D01*
X170066488Y-129928073D01*
X169917188Y-129898376D01*
X169753216Y-129830456D01*
X169605646Y-129731853D01*
X169480147Y-129606354D01*
X169381544Y-129458784D01*
X169313624Y-129294812D01*
X169279000Y-129120741D01*
X169279000Y-128943259D01*
X169313624Y-128769188D01*
X169381544Y-128605216D01*
X169480147Y-128457646D01*
X169605646Y-128332147D01*
X169753216Y-128233544D01*
X169917188Y-128165624D01*
X170066488Y-128135927D01*
X170091258Y-128131000D01*
X170268742Y-128131000D01*
X170293512Y-128135927D01*
G37*
G36*
X167753512Y-128135927D02*
G01*
X167902812Y-128165624D01*
X168066784Y-128233544D01*
X168214354Y-128332147D01*
X168339853Y-128457646D01*
X168438456Y-128605216D01*
X168506376Y-128769188D01*
X168541000Y-128943259D01*
X168541000Y-129120741D01*
X168506376Y-129294812D01*
X168438456Y-129458784D01*
X168339853Y-129606354D01*
X168214354Y-129731853D01*
X168066784Y-129830456D01*
X167902812Y-129898376D01*
X167753512Y-129928073D01*
X167728742Y-129933000D01*
X167551258Y-129933000D01*
X167526488Y-129928073D01*
X167377188Y-129898376D01*
X167213216Y-129830456D01*
X167065646Y-129731853D01*
X166940147Y-129606354D01*
X166841544Y-129458784D01*
X166773624Y-129294812D01*
X166739000Y-129120741D01*
X166739000Y-128943259D01*
X166773624Y-128769188D01*
X166841544Y-128605216D01*
X166940147Y-128457646D01*
X167065646Y-128332147D01*
X167213216Y-128233544D01*
X167377188Y-128165624D01*
X167526488Y-128135927D01*
X167551258Y-128131000D01*
X167728742Y-128131000D01*
X167753512Y-128135927D01*
G37*
G36*
X165213512Y-128135927D02*
G01*
X165362812Y-128165624D01*
X165526784Y-128233544D01*
X165674354Y-128332147D01*
X165799853Y-128457646D01*
X165898456Y-128605216D01*
X165966376Y-128769188D01*
X166001000Y-128943259D01*
X166001000Y-129120741D01*
X165966376Y-129294812D01*
X165898456Y-129458784D01*
X165799853Y-129606354D01*
X165674354Y-129731853D01*
X165526784Y-129830456D01*
X165362812Y-129898376D01*
X165213512Y-129928073D01*
X165188742Y-129933000D01*
X165011258Y-129933000D01*
X164986488Y-129928073D01*
X164837188Y-129898376D01*
X164673216Y-129830456D01*
X164525646Y-129731853D01*
X164400147Y-129606354D01*
X164301544Y-129458784D01*
X164233624Y-129294812D01*
X164199000Y-129120741D01*
X164199000Y-128943259D01*
X164233624Y-128769188D01*
X164301544Y-128605216D01*
X164400147Y-128457646D01*
X164525646Y-128332147D01*
X164673216Y-128233544D01*
X164837188Y-128165624D01*
X164986488Y-128135927D01*
X165011258Y-128131000D01*
X165188742Y-128131000D01*
X165213512Y-128135927D01*
G37*
G36*
X162673512Y-128135927D02*
G01*
X162822812Y-128165624D01*
X162986784Y-128233544D01*
X163134354Y-128332147D01*
X163259853Y-128457646D01*
X163358456Y-128605216D01*
X163426376Y-128769188D01*
X163461000Y-128943259D01*
X163461000Y-129120741D01*
X163426376Y-129294812D01*
X163358456Y-129458784D01*
X163259853Y-129606354D01*
X163134354Y-129731853D01*
X162986784Y-129830456D01*
X162822812Y-129898376D01*
X162673512Y-129928073D01*
X162648742Y-129933000D01*
X162471258Y-129933000D01*
X162446488Y-129928073D01*
X162297188Y-129898376D01*
X162133216Y-129830456D01*
X161985646Y-129731853D01*
X161860147Y-129606354D01*
X161761544Y-129458784D01*
X161693624Y-129294812D01*
X161659000Y-129120741D01*
X161659000Y-128943259D01*
X161693624Y-128769188D01*
X161761544Y-128605216D01*
X161860147Y-128457646D01*
X161985646Y-128332147D01*
X162133216Y-128233544D01*
X162297188Y-128165624D01*
X162446488Y-128135927D01*
X162471258Y-128131000D01*
X162648742Y-128131000D01*
X162673512Y-128135927D01*
G37*
G36*
X160133512Y-128135927D02*
G01*
X160282812Y-128165624D01*
X160446784Y-128233544D01*
X160594354Y-128332147D01*
X160719853Y-128457646D01*
X160818456Y-128605216D01*
X160886376Y-128769188D01*
X160921000Y-128943259D01*
X160921000Y-129120741D01*
X160886376Y-129294812D01*
X160818456Y-129458784D01*
X160719853Y-129606354D01*
X160594354Y-129731853D01*
X160446784Y-129830456D01*
X160282812Y-129898376D01*
X160133512Y-129928073D01*
X160108742Y-129933000D01*
X159931258Y-129933000D01*
X159906488Y-129928073D01*
X159757188Y-129898376D01*
X159593216Y-129830456D01*
X159445646Y-129731853D01*
X159320147Y-129606354D01*
X159221544Y-129458784D01*
X159153624Y-129294812D01*
X159119000Y-129120741D01*
X159119000Y-128943259D01*
X159153624Y-128769188D01*
X159221544Y-128605216D01*
X159320147Y-128457646D01*
X159445646Y-128332147D01*
X159593216Y-128233544D01*
X159757188Y-128165624D01*
X159906488Y-128135927D01*
X159931258Y-128131000D01*
X160108742Y-128131000D01*
X160133512Y-128135927D01*
G37*
G36*
X157593512Y-128135927D02*
G01*
X157742812Y-128165624D01*
X157906784Y-128233544D01*
X158054354Y-128332147D01*
X158179853Y-128457646D01*
X158278456Y-128605216D01*
X158346376Y-128769188D01*
X158381000Y-128943259D01*
X158381000Y-129120741D01*
X158346376Y-129294812D01*
X158278456Y-129458784D01*
X158179853Y-129606354D01*
X158054354Y-129731853D01*
X157906784Y-129830456D01*
X157742812Y-129898376D01*
X157593512Y-129928073D01*
X157568742Y-129933000D01*
X157391258Y-129933000D01*
X157366488Y-129928073D01*
X157217188Y-129898376D01*
X157053216Y-129830456D01*
X156905646Y-129731853D01*
X156780147Y-129606354D01*
X156681544Y-129458784D01*
X156613624Y-129294812D01*
X156579000Y-129120741D01*
X156579000Y-128943259D01*
X156613624Y-128769188D01*
X156681544Y-128605216D01*
X156780147Y-128457646D01*
X156905646Y-128332147D01*
X157053216Y-128233544D01*
X157217188Y-128165624D01*
X157366488Y-128135927D01*
X157391258Y-128131000D01*
X157568742Y-128131000D01*
X157593512Y-128135927D01*
G37*
G36*
X180453512Y-128135927D02*
G01*
X180602812Y-128165624D01*
X180766784Y-128233544D01*
X180914354Y-128332147D01*
X181039853Y-128457646D01*
X181138456Y-128605216D01*
X181206376Y-128769188D01*
X181241000Y-128943259D01*
X181241000Y-129120741D01*
X181206376Y-129294812D01*
X181138456Y-129458784D01*
X181039853Y-129606354D01*
X180914354Y-129731853D01*
X180766784Y-129830456D01*
X180602812Y-129898376D01*
X180453512Y-129928073D01*
X180428742Y-129933000D01*
X180251258Y-129933000D01*
X180226488Y-129928073D01*
X180077188Y-129898376D01*
X179913216Y-129830456D01*
X179765646Y-129731853D01*
X179640147Y-129606354D01*
X179541544Y-129458784D01*
X179473624Y-129294812D01*
X179439000Y-129120741D01*
X179439000Y-128943259D01*
X179473624Y-128769188D01*
X179541544Y-128605216D01*
X179640147Y-128457646D01*
X179765646Y-128332147D01*
X179913216Y-128233544D01*
X180077188Y-128165624D01*
X180226488Y-128135927D01*
X180251258Y-128131000D01*
X180428742Y-128131000D01*
X180453512Y-128135927D01*
G37*
G36*
X145307400Y-129251200D02*
G01*
X144305400Y-129251200D01*
X144305400Y-127949200D01*
X145307400Y-127949200D01*
X145307400Y-129251200D01*
G37*
G36*
X148607400Y-129251200D02*
G01*
X147605400Y-129251200D01*
X147605400Y-127949200D01*
X148607400Y-127949200D01*
X148607400Y-129251200D01*
G37*
M02*
