G04 #@! TF.GenerationSoftware,KiCad,Pcbnew,(5.1.5)-3*
G04 #@! TF.CreationDate,2020-05-17T16:51:04+01:00*
G04 #@! TF.ProjectId,STM32L152_Dev_Board,53544d33-324c-4313-9532-5f4465765f42,rev?*
G04 #@! TF.SameCoordinates,Original*
G04 #@! TF.FileFunction,Copper,L1,Top*
G04 #@! TF.FilePolarity,Positive*
%FSLAX46Y46*%
G04 Gerber Fmt 4.6, Leading zero omitted, Abs format (unit mm)*
G04 Created by KiCad (PCBNEW (5.1.5)-3) date 2020-05-17 16:51:04*
%MOMM*%
%LPD*%
G04 APERTURE LIST*
%ADD10C,0.500000*%
%ADD11R,0.900000X0.900000*%
%ADD12R,0.900000X1.400000*%
%ADD13R,1.400000X0.900000*%
%ADD14R,1.400000X1.400000*%
%ADD15O,0.300000X0.600000*%
%ADD16O,0.600000X0.300000*%
%ADD17R,3.325000X2.500000*%
%ADD18R,1.700000X1.700000*%
%ADD19O,1.700000X1.700000*%
%ADD20R,2.900000X1.600000*%
%ADD21R,1.600000X2.900000*%
%ADD22R,3.800000X2.000000*%
%ADD23R,1.500000X2.000000*%
%ADD24R,1.500000X1.250000*%
%ADD25R,1.600000X2.200000*%
%ADD26R,1.000000X2.750000*%
%ADD27R,1.250000X1.500000*%
%ADD28R,0.900000X1.200000*%
%ADD29C,1.700000*%
%ADD30R,1.300000X1.500000*%
%ADD31C,0.800000*%
%ADD32C,0.250000*%
%ADD33C,0.400000*%
%ADD34C,0.254000*%
G04 APERTURE END LIST*
D10*
X182242000Y-138251750D03*
X182242001Y-139651750D03*
X182242000Y-141051750D03*
X183642000Y-141051749D03*
X185042000Y-141051750D03*
X185041999Y-139651750D03*
X185042000Y-138251750D03*
X183642000Y-138251751D03*
X183642000Y-139651750D03*
D11*
X181792000Y-137801750D03*
D12*
X181792000Y-138951750D03*
X181792000Y-140351750D03*
D11*
X181792000Y-141501750D03*
D13*
X182942000Y-137801750D03*
D14*
X182942000Y-138951750D03*
X182942000Y-140351750D03*
D13*
X182942000Y-141501750D03*
X184342000Y-137801750D03*
D14*
X184342000Y-138951750D03*
X184342000Y-140351750D03*
D13*
X184342000Y-141501750D03*
D11*
X185492000Y-137801750D03*
D12*
X185492000Y-138951750D03*
X185492000Y-140351750D03*
D11*
X185492000Y-141501750D03*
D15*
X180892000Y-136251750D03*
X181392000Y-136251750D03*
X181892000Y-136251750D03*
X182392000Y-136251749D03*
X182892000Y-136251750D03*
X183392000Y-136251750D03*
X183892000Y-136251750D03*
X184392000Y-136251750D03*
X184892000Y-136251749D03*
X185392000Y-136251750D03*
X185892000Y-136251750D03*
X186392000Y-136251750D03*
D16*
X187042000Y-136901750D03*
X187042000Y-137401750D03*
X187042000Y-137901750D03*
X187042001Y-138401750D03*
X187042000Y-138901750D03*
X187042000Y-139401750D03*
X187042000Y-139901750D03*
X187042000Y-140401750D03*
X187042001Y-140901750D03*
X187042000Y-141401750D03*
X187042000Y-141901750D03*
X187042000Y-142401750D03*
D15*
X186392000Y-143051750D03*
X185892000Y-143051750D03*
X185392000Y-143051750D03*
X184892000Y-143051751D03*
X184392000Y-143051750D03*
X183892000Y-143051750D03*
X183392000Y-143051750D03*
X182892000Y-143051750D03*
X182392000Y-143051751D03*
X181892000Y-143051750D03*
X181392000Y-143051750D03*
X180892000Y-143051750D03*
D16*
X180242000Y-142401750D03*
X180242000Y-141901750D03*
X180242000Y-141401750D03*
X180241999Y-140901750D03*
X180242000Y-140401750D03*
X180242000Y-139901750D03*
X180242000Y-139401750D03*
X180242000Y-138901750D03*
X180241999Y-138401750D03*
X180242000Y-137901750D03*
X180242000Y-137401750D03*
X180242000Y-136901750D03*
D17*
X167775500Y-138938000D03*
X173600500Y-138938000D03*
D18*
X208280000Y-149352000D03*
X208280000Y-129032000D03*
D19*
X203200000Y-149352000D03*
X200660000Y-149352000D03*
X198120000Y-149352000D03*
X195580000Y-149352000D03*
X193040000Y-149352000D03*
X190500000Y-149352000D03*
X187960000Y-149352000D03*
X185420000Y-149352000D03*
X182880000Y-149352000D03*
X180340000Y-149352000D03*
X177800000Y-149352000D03*
X175260000Y-149352000D03*
X172720000Y-149352000D03*
X170180000Y-149352000D03*
X167640000Y-149352000D03*
X165100000Y-149352000D03*
X162560000Y-149352000D03*
X160020000Y-149352000D03*
X157480000Y-149352000D03*
X154940000Y-149352000D03*
D18*
X152400000Y-149352000D03*
D19*
X157480000Y-129032000D03*
X160020000Y-129032000D03*
X162560000Y-129032000D03*
X165100000Y-129032000D03*
X167640000Y-129032000D03*
X170180000Y-129032000D03*
X172720000Y-129032000D03*
X175260000Y-129032000D03*
X177800000Y-129032000D03*
X180340000Y-129032000D03*
X182880000Y-129032000D03*
X185420000Y-129032000D03*
X187960000Y-129032000D03*
X190500000Y-129032000D03*
X193040000Y-129032000D03*
X195580000Y-129032000D03*
X198120000Y-129032000D03*
X200660000Y-129032000D03*
D18*
X203200000Y-129032000D03*
D20*
X148584200Y-148894800D03*
X144684200Y-148894800D03*
D21*
X152679400Y-128860000D03*
X152679400Y-132760000D03*
D22*
X154178000Y-144374000D03*
D23*
X154178000Y-138074000D03*
X151878000Y-138074000D03*
X156478000Y-138074000D03*
D24*
X178542000Y-134874000D03*
X176042000Y-134874000D03*
D25*
X160274000Y-140359000D03*
X160274000Y-143359000D03*
X160274000Y-136882000D03*
X160274000Y-133882000D03*
D26*
X201898000Y-142580000D03*
X201898000Y-136820000D03*
X197898000Y-136820000D03*
X197898000Y-142580000D03*
D18*
X147878800Y-141986000D03*
D19*
X145338800Y-141986000D03*
X147878800Y-139446000D03*
X145338800Y-139446000D03*
X147878800Y-136906000D03*
X145338800Y-136906000D03*
X147878800Y-134366000D03*
X145338800Y-134366000D03*
X147878800Y-131826000D03*
X145338800Y-131826000D03*
D27*
X189230000Y-135870000D03*
X189230000Y-133370000D03*
D24*
X166898000Y-135128000D03*
X169398000Y-135128000D03*
X167660000Y-142748000D03*
X170160000Y-142748000D03*
X189972000Y-144780000D03*
X187472000Y-144780000D03*
X176256000Y-142494000D03*
X173756000Y-142494000D03*
D28*
X148106400Y-128600200D03*
X144806400Y-128600200D03*
X148690600Y-145059400D03*
X145390600Y-145059400D03*
D29*
X206502000Y-135636000D03*
X206502000Y-138176000D03*
X206502000Y-140716000D03*
D18*
X206502000Y-143256000D03*
D30*
X192024000Y-133270000D03*
X192024000Y-135970000D03*
D31*
X190647000Y-135870000D03*
X199390000Y-135890000D03*
X158242000Y-135128000D03*
X174498000Y-134620000D03*
X187325000Y-133223000D03*
X172466000Y-142240000D03*
X191262000Y-145542000D03*
X200406000Y-141478000D03*
X200406000Y-136652000D03*
X193929000Y-144780000D03*
X172085000Y-136398000D03*
X191700000Y-147700000D03*
X155400000Y-130000000D03*
X164338000Y-143256000D03*
X193548000Y-133350000D03*
X205251999Y-133369999D03*
X173609000Y-133731000D03*
X161798000Y-133731000D03*
X177673000Y-142113000D03*
X187660000Y-143250000D03*
X156972000Y-131572000D03*
X150368000Y-147574000D03*
X187198000Y-135128000D03*
X189230000Y-137668000D03*
X178739800Y-140126750D03*
X195795900Y-140119100D03*
D32*
X187057750Y-136886000D02*
X187042000Y-136901750D01*
D33*
X203200000Y-132645685D02*
X203200000Y-129032000D01*
X199955685Y-135890000D02*
X203200000Y-132645685D01*
X199390000Y-135890000D02*
X199955685Y-135890000D01*
X191924000Y-135870000D02*
X192024000Y-135970000D01*
X189230000Y-135870000D02*
X191924000Y-135870000D01*
D32*
X187748750Y-135870000D02*
X189230000Y-135870000D01*
X187092000Y-136526750D02*
X187748750Y-135870000D01*
X187092000Y-136901750D02*
X187092000Y-136526750D01*
X181892000Y-140401750D02*
X182142000Y-140151750D01*
X180192000Y-140401750D02*
X181892000Y-140401750D01*
X185892000Y-137401750D02*
X185776875Y-137516875D01*
X187092000Y-137401750D02*
X185892000Y-137401750D01*
X185892000Y-141901750D02*
X185142000Y-141151750D01*
X185892000Y-143101750D02*
X185892000Y-141901750D01*
X185776875Y-137516875D02*
X185142000Y-138151750D01*
X174010000Y-142240000D02*
X172466000Y-142240000D01*
D33*
X190734000Y-145542000D02*
X189972000Y-144780000D01*
X191262000Y-145542000D02*
X190734000Y-145542000D01*
X160020000Y-129032000D02*
X161290000Y-130302000D01*
D32*
X182892000Y-137108000D02*
X182000000Y-138000000D01*
X182892000Y-136201750D02*
X182892000Y-137108000D01*
X181392000Y-137401750D02*
X181792000Y-137801750D01*
X181392000Y-136251750D02*
X181392000Y-137401750D01*
X174974250Y-138901750D02*
X174938000Y-138938000D01*
X180242000Y-138901750D02*
X174974250Y-138901750D01*
X172333000Y-138938000D02*
X174938000Y-138938000D01*
X169398000Y-136003000D02*
X172333000Y-138938000D01*
X169398000Y-135128000D02*
X169398000Y-136003000D01*
X166987000Y-138938000D02*
X166438000Y-138938000D01*
X168938000Y-138938000D02*
X166438000Y-138938000D01*
X170970000Y-140970000D02*
X168938000Y-138938000D01*
X176741002Y-140970000D02*
X170970000Y-140970000D01*
X178309252Y-139401750D02*
X176741002Y-140970000D01*
X180242000Y-139401750D02*
X178309252Y-139401750D01*
X170970000Y-141063000D02*
X170970000Y-140970000D01*
X170160000Y-141873000D02*
X170970000Y-141063000D01*
X170160000Y-142748000D02*
X170160000Y-141873000D01*
D33*
X206502000Y-143256000D02*
X205251999Y-143255999D01*
X205252000Y-143256000D02*
X206502000Y-143256000D01*
X203200000Y-145308000D02*
X205252000Y-143256000D01*
X203200000Y-149352000D02*
X203200000Y-145308000D01*
X192024000Y-133270000D02*
X193468000Y-133270000D01*
X193468000Y-133270000D02*
X193548000Y-133350000D01*
X205251999Y-143255999D02*
X205251999Y-133369999D01*
X187452000Y-144760000D02*
X187472000Y-144780000D01*
D32*
X178343010Y-133800010D02*
X173678010Y-133800010D01*
X178542000Y-133999000D02*
X178343010Y-133800010D01*
X178542000Y-134874000D02*
X178542000Y-133999000D01*
X180892000Y-135976750D02*
X179789250Y-134874000D01*
X180892000Y-136201750D02*
X180892000Y-135976750D01*
X176510000Y-142748000D02*
X176385000Y-142748000D01*
D33*
X161798000Y-132588000D02*
X161798000Y-133731000D01*
X158894001Y-129881999D02*
X158329999Y-129881999D01*
X161798000Y-132588000D02*
X158894001Y-129881999D01*
X158329999Y-129881999D02*
X157480000Y-129032000D01*
X160274000Y-142678000D02*
X160274000Y-142978000D01*
X160377000Y-143256000D02*
X160274000Y-143359000D01*
X161798000Y-143129000D02*
X161671000Y-143256000D01*
X164338000Y-143256000D02*
X161671000Y-143256000D01*
X161671000Y-143256000D02*
X160377000Y-143256000D01*
X158367600Y-143359000D02*
X160274000Y-143359000D01*
X154178000Y-139474000D02*
X158063000Y-143359000D01*
X154178000Y-138074000D02*
X154178000Y-139474000D01*
X158367600Y-143804402D02*
X158367600Y-143359000D01*
X152820002Y-149352000D02*
X158367600Y-143804402D01*
X152400000Y-149352000D02*
X152820002Y-149352000D01*
X158063000Y-143359000D02*
X158367600Y-143359000D01*
X161798000Y-133731000D02*
X161798000Y-143129000D01*
X177292000Y-142494000D02*
X177673000Y-142113000D01*
X176256000Y-142494000D02*
X177292000Y-142494000D01*
D32*
X186392000Y-143700000D02*
X187472000Y-144780000D01*
X186392000Y-143101750D02*
X186392000Y-143700000D01*
D33*
X187660000Y-144592000D02*
X187472000Y-144780000D01*
X187660000Y-143250000D02*
X187660000Y-144592000D01*
D32*
X179789250Y-134874000D02*
X178542000Y-134874000D01*
X178884250Y-140901750D02*
X177673000Y-142113000D01*
X180241999Y-140901750D02*
X178884250Y-140901750D01*
D33*
X151966200Y-132610000D02*
X152679400Y-132610000D01*
X148106400Y-128750200D02*
X151966200Y-132610000D01*
X148106400Y-128600200D02*
X148106400Y-128750200D01*
X153951400Y-133882000D02*
X152679400Y-132610000D01*
X160274000Y-133882000D02*
X153951400Y-133882000D01*
X151878000Y-133411400D02*
X152679400Y-132610000D01*
X151878000Y-138074000D02*
X151878000Y-133411400D01*
X152679400Y-132610000D02*
X155934000Y-132610000D01*
X155934000Y-132610000D02*
X156972000Y-131572000D01*
X148690600Y-148638400D02*
X148434200Y-148894800D01*
X148690600Y-145059400D02*
X148690600Y-148638400D01*
X148434200Y-148894800D02*
X149047200Y-148894800D01*
X149047200Y-148894800D02*
X150368000Y-147574000D01*
X145338800Y-129132600D02*
X144806400Y-128600200D01*
X145338800Y-131826000D02*
X145338800Y-129132600D01*
X145338800Y-131826000D02*
X147878800Y-131826000D01*
X145338800Y-141986000D02*
X147878800Y-141986000D01*
X145338800Y-145007600D02*
X145390600Y-145059400D01*
X145338800Y-141986000D02*
X145338800Y-145007600D01*
D32*
X186392000Y-136201750D02*
X186392000Y-135934000D01*
X186392000Y-135934000D02*
X187198000Y-135128000D01*
X187092000Y-137901750D02*
X188996250Y-137901750D01*
X188996250Y-137901750D02*
X189230000Y-137668000D01*
X180192000Y-139901750D02*
X178964800Y-139901750D01*
X178964800Y-139901750D02*
X178739800Y-140126750D01*
X197891900Y-140119100D02*
X197898000Y-140113000D01*
X195795900Y-140119100D02*
X197891900Y-140119100D01*
X197898000Y-136820000D02*
X197898000Y-140113000D01*
X197898000Y-140113000D02*
X197898000Y-142580000D01*
X174686001Y-136078001D02*
X167640000Y-129032000D01*
X177954661Y-136078001D02*
X174686001Y-136078001D01*
X179278410Y-137401750D02*
X177954661Y-136078001D01*
X180242000Y-137401750D02*
X179278410Y-137401750D01*
X177768261Y-136528011D02*
X174499600Y-136528010D01*
X180242000Y-137901750D02*
X179142000Y-137901750D01*
X179142000Y-137901750D02*
X177768261Y-136528011D01*
X174499600Y-136528010D02*
X168527590Y-130556000D01*
X166624000Y-130556000D02*
X165100000Y-129032000D01*
X168527590Y-130556000D02*
X166624000Y-130556000D01*
X164534010Y-131006010D02*
X162560000Y-129032000D01*
X168341190Y-131006010D02*
X164534010Y-131006010D01*
X174313200Y-136978020D02*
X168341190Y-131006010D01*
X176856020Y-136978020D02*
X174313200Y-136978020D01*
X178279750Y-138401750D02*
X176856020Y-136978020D01*
X180242000Y-138401750D02*
X178279750Y-138401750D01*
X183392000Y-144197390D02*
X183392000Y-143051750D01*
X179087389Y-148502001D02*
X183392000Y-144197390D01*
X177800000Y-149352000D02*
X178649999Y-148502001D01*
X178649999Y-148502001D02*
X179087389Y-148502001D01*
X183892000Y-143051750D02*
X183892000Y-143260000D01*
X183892000Y-145800000D02*
X183892000Y-143101750D01*
X180340000Y-149352000D02*
X183892000Y-145800000D01*
X184392000Y-147840000D02*
X182880000Y-149352000D01*
X184392000Y-143051750D02*
X184392000Y-147840000D01*
X185392000Y-129060000D02*
X185420000Y-129032000D01*
X185392000Y-136251750D02*
X185392000Y-129060000D01*
X184892000Y-131044000D02*
X182880000Y-129032000D01*
X184892000Y-136251750D02*
X184892000Y-131044000D01*
X184342010Y-133034010D02*
X180340000Y-129032000D01*
X184342010Y-135601760D02*
X184342010Y-133034010D01*
X184392000Y-135651750D02*
X184342010Y-135601760D01*
X184392000Y-136251750D02*
X184392000Y-135651750D01*
X183892000Y-135124000D02*
X177800000Y-129032000D01*
X183892000Y-136251750D02*
X183892000Y-135124000D01*
X183392000Y-135651750D02*
X180074250Y-132334000D01*
X183392000Y-136251750D02*
X183392000Y-135651750D01*
X178562000Y-132334000D02*
X175260000Y-129032000D01*
X180074250Y-132334000D02*
X178562000Y-132334000D01*
X182392000Y-135515340D02*
X179718660Y-132842000D01*
X182392000Y-136251750D02*
X182392000Y-135515340D01*
X176530000Y-132842000D02*
X172720000Y-129032000D01*
X179718660Y-132842000D02*
X176530000Y-132842000D01*
X181892000Y-135651750D02*
X179590250Y-133350000D01*
X181892000Y-136251750D02*
X181892000Y-135651750D01*
X174498000Y-133350000D02*
X170180000Y-129032000D01*
X179590250Y-133350000D02*
X174498000Y-133350000D01*
X184892000Y-148824000D02*
X185420000Y-149352000D01*
X184892000Y-143051750D02*
X184892000Y-148824000D01*
X185392000Y-146784000D02*
X187960000Y-149352000D01*
X185392000Y-143051750D02*
X185392000Y-146784000D01*
X189650001Y-148502001D02*
X190500000Y-149352000D01*
X188896999Y-143413997D02*
X188896999Y-147748999D01*
X187884752Y-142401750D02*
X188896999Y-143413997D01*
X188896999Y-147748999D02*
X189650001Y-148502001D01*
X187042000Y-142401750D02*
X187884752Y-142401750D01*
X192786000Y-149098000D02*
X193040000Y-149352000D01*
X192786000Y-145633998D02*
X192786000Y-149098000D01*
X187092000Y-141901750D02*
X189053752Y-141901750D01*
X189053752Y-141901750D02*
X192786000Y-145633998D01*
X195580000Y-147791588D02*
X195580000Y-149352000D01*
X189190162Y-141401750D02*
X195580000Y-147791588D01*
X187092000Y-141401750D02*
X189190162Y-141401750D01*
X198120000Y-147833588D02*
X198120000Y-149352000D01*
X191188162Y-140901750D02*
X198120000Y-147833588D01*
X187092000Y-140901750D02*
X191188162Y-140901750D01*
X162560000Y-144272000D02*
X157480000Y-149352000D01*
X176585340Y-144272000D02*
X162560000Y-144272000D01*
X179455590Y-141401750D02*
X176585340Y-144272000D01*
X180192000Y-141401750D02*
X179455590Y-141401750D01*
X164649990Y-144722010D02*
X160020000Y-149352000D01*
X176771740Y-144722010D02*
X164649990Y-144722010D01*
X179592000Y-141901750D02*
X176771740Y-144722010D01*
X180192000Y-141901750D02*
X179592000Y-141901750D01*
X166345009Y-145566991D02*
X162560000Y-149352000D01*
X176563169Y-145566991D02*
X166345009Y-145566991D01*
X179728410Y-142401750D02*
X176563169Y-145566991D01*
X180192000Y-142401750D02*
X179728410Y-142401750D01*
X168434999Y-146017001D02*
X165100000Y-149352000D01*
X178151749Y-146017001D02*
X168434999Y-146017001D01*
X180892000Y-143276750D02*
X178151749Y-146017001D01*
X180892000Y-143051750D02*
X180892000Y-143276750D01*
X181392000Y-143651750D02*
X181392000Y-143051750D01*
X178576739Y-146467011D02*
X181392000Y-143651750D01*
X167640000Y-149352000D02*
X170524989Y-146467011D01*
X170524989Y-146467011D02*
X178576739Y-146467011D01*
X181892000Y-143788160D02*
X181892000Y-143051750D01*
X178763140Y-146917020D02*
X181892000Y-143788160D01*
X171412898Y-146917021D02*
X178763140Y-146917020D01*
X170180000Y-148149919D02*
X171412898Y-146917021D01*
X170180000Y-149352000D02*
X170180000Y-148149919D01*
X182392000Y-143924570D02*
X182392000Y-143051750D01*
X178949541Y-147367029D02*
X182392000Y-143924570D01*
X174704971Y-147367029D02*
X178949541Y-147367029D01*
X172720000Y-149352000D02*
X174704971Y-147367029D01*
X182892000Y-144060980D02*
X182892000Y-143051750D01*
X179135942Y-147817038D02*
X182892000Y-144060980D01*
X176794961Y-147817039D02*
X179135942Y-147817038D01*
X175260000Y-149352000D02*
X176794961Y-147817039D01*
X191709750Y-140401750D02*
X200660000Y-149352000D01*
X187092000Y-140401750D02*
X191709750Y-140401750D01*
X200660000Y-131228232D02*
X200660000Y-129032000D01*
X191986482Y-139901750D02*
X200660000Y-131228232D01*
X187092000Y-139901750D02*
X191986482Y-139901750D01*
X198120000Y-133131822D02*
X198120000Y-129032000D01*
X191850072Y-139401750D02*
X198120000Y-133131822D01*
X187092000Y-139401750D02*
X191850072Y-139401750D01*
X195580000Y-135035412D02*
X195580000Y-129032000D01*
X191713662Y-138901750D02*
X195580000Y-135035412D01*
X187092000Y-138901750D02*
X191713662Y-138901750D01*
X191577252Y-138401750D02*
X194818000Y-135161002D01*
X187092000Y-138401750D02*
X191577252Y-138401750D01*
X194818000Y-130810000D02*
X193040000Y-129032000D01*
X194818000Y-135161002D02*
X194818000Y-130810000D01*
X185892000Y-131100000D02*
X187960000Y-129032000D01*
X185892000Y-136251750D02*
X185892000Y-131100000D01*
D34*
G36*
X207168121Y-127601959D02*
G01*
X207075506Y-127651463D01*
X206978815Y-127730815D01*
X206899463Y-127827506D01*
X206840498Y-127937820D01*
X206804188Y-128057518D01*
X206791928Y-128182000D01*
X206791928Y-129882000D01*
X206804188Y-130006482D01*
X206840498Y-130126180D01*
X206899463Y-130236494D01*
X206978815Y-130333185D01*
X207075506Y-130412537D01*
X207185820Y-130471502D01*
X207305518Y-130507812D01*
X207430000Y-130520072D01*
X209015000Y-130520072D01*
X209015001Y-147863928D01*
X207430000Y-147863928D01*
X207305518Y-147876188D01*
X207185820Y-147912498D01*
X207075506Y-147971463D01*
X206978815Y-148050815D01*
X206899463Y-148147506D01*
X206840498Y-148257820D01*
X206804188Y-148377518D01*
X206791928Y-148502000D01*
X206791928Y-150202000D01*
X206804188Y-150326482D01*
X206840498Y-150446180D01*
X206899463Y-150556494D01*
X206978815Y-150653185D01*
X207054137Y-150715000D01*
X203789918Y-150715000D01*
X203903411Y-150667990D01*
X204146632Y-150505475D01*
X204353475Y-150298632D01*
X204515990Y-150055411D01*
X204627932Y-149785158D01*
X204685000Y-149498260D01*
X204685000Y-149205740D01*
X204627932Y-148918842D01*
X204515990Y-148648589D01*
X204353475Y-148405368D01*
X204146632Y-148198525D01*
X204035000Y-148123935D01*
X204035000Y-145653867D01*
X205169653Y-144519214D01*
X205200815Y-144557185D01*
X205297506Y-144636537D01*
X205407820Y-144695502D01*
X205527518Y-144731812D01*
X205652000Y-144744072D01*
X207352000Y-144744072D01*
X207476482Y-144731812D01*
X207596180Y-144695502D01*
X207706494Y-144636537D01*
X207803185Y-144557185D01*
X207882537Y-144460494D01*
X207941502Y-144350180D01*
X207977812Y-144230482D01*
X207990072Y-144106000D01*
X207990072Y-142406000D01*
X207977812Y-142281518D01*
X207941502Y-142161820D01*
X207882537Y-142051506D01*
X207803185Y-141954815D01*
X207706494Y-141875463D01*
X207596180Y-141816498D01*
X207476482Y-141780188D01*
X207352000Y-141767928D01*
X207343458Y-141767928D01*
X207350792Y-141744397D01*
X206502000Y-140895605D01*
X206487858Y-140909748D01*
X206308253Y-140730143D01*
X206322395Y-140716000D01*
X206681605Y-140716000D01*
X207530397Y-141564792D01*
X207779472Y-141487157D01*
X207905371Y-141223117D01*
X207977339Y-140939589D01*
X207992611Y-140647469D01*
X207950599Y-140357981D01*
X207852919Y-140082253D01*
X207779472Y-139944843D01*
X207530397Y-139867208D01*
X206681605Y-140716000D01*
X206322395Y-140716000D01*
X206308253Y-140701858D01*
X206487858Y-140522253D01*
X206502000Y-140536395D01*
X207350792Y-139687603D01*
X207275271Y-139445311D01*
X207448632Y-139329475D01*
X207655475Y-139122632D01*
X207817990Y-138879411D01*
X207929932Y-138609158D01*
X207987000Y-138322260D01*
X207987000Y-138029740D01*
X207929932Y-137742842D01*
X207817990Y-137472589D01*
X207655475Y-137229368D01*
X207448632Y-137022525D01*
X207274240Y-136906000D01*
X207448632Y-136789475D01*
X207655475Y-136582632D01*
X207817990Y-136339411D01*
X207929932Y-136069158D01*
X207987000Y-135782260D01*
X207987000Y-135489740D01*
X207929932Y-135202842D01*
X207817990Y-134932589D01*
X207655475Y-134689368D01*
X207448632Y-134482525D01*
X207205411Y-134320010D01*
X206935158Y-134208068D01*
X206648260Y-134151000D01*
X206355740Y-134151000D01*
X206086999Y-134204456D01*
X206086999Y-133983284D01*
X206169204Y-133860255D01*
X206247225Y-133671897D01*
X206286999Y-133471938D01*
X206286999Y-133268060D01*
X206247225Y-133068101D01*
X206169204Y-132879743D01*
X206055936Y-132710225D01*
X205911773Y-132566062D01*
X205742255Y-132452794D01*
X205553897Y-132374773D01*
X205353938Y-132334999D01*
X205150060Y-132334999D01*
X204950101Y-132374773D01*
X204761743Y-132452794D01*
X204592225Y-132566062D01*
X204448062Y-132710225D01*
X204334794Y-132879743D01*
X204256773Y-133068101D01*
X204216999Y-133268060D01*
X204216999Y-133471938D01*
X204256773Y-133671897D01*
X204334794Y-133860255D01*
X204417000Y-133983285D01*
X204416999Y-142910133D01*
X202638574Y-144688559D01*
X202606710Y-144714709D01*
X202580562Y-144746571D01*
X202502364Y-144841855D01*
X202424828Y-144986914D01*
X202377082Y-145144312D01*
X202360960Y-145308000D01*
X202365001Y-145349028D01*
X202365000Y-148123935D01*
X202253368Y-148198525D01*
X202046525Y-148405368D01*
X201930000Y-148579760D01*
X201813475Y-148405368D01*
X201606632Y-148198525D01*
X201363411Y-148036010D01*
X201093158Y-147924068D01*
X200806260Y-147867000D01*
X200513740Y-147867000D01*
X200293592Y-147910790D01*
X192672917Y-140290116D01*
X196759928Y-136203105D01*
X196759928Y-138195000D01*
X196772188Y-138319482D01*
X196808498Y-138439180D01*
X196867463Y-138549494D01*
X196946815Y-138646185D01*
X197043506Y-138725537D01*
X197138001Y-138776046D01*
X197138001Y-139359100D01*
X196499611Y-139359100D01*
X196455674Y-139315163D01*
X196286156Y-139201895D01*
X196097798Y-139123874D01*
X195897839Y-139084100D01*
X195693961Y-139084100D01*
X195494002Y-139123874D01*
X195305644Y-139201895D01*
X195136126Y-139315163D01*
X194991963Y-139459326D01*
X194878695Y-139628844D01*
X194800674Y-139817202D01*
X194760900Y-140017161D01*
X194760900Y-140221039D01*
X194800674Y-140420998D01*
X194878695Y-140609356D01*
X194991963Y-140778874D01*
X195136126Y-140923037D01*
X195305644Y-141036305D01*
X195494002Y-141114326D01*
X195693961Y-141154100D01*
X195897839Y-141154100D01*
X196097798Y-141114326D01*
X196286156Y-141036305D01*
X196455674Y-140923037D01*
X196499611Y-140879100D01*
X196852179Y-140879100D01*
X196808498Y-140960820D01*
X196772188Y-141080518D01*
X196759928Y-141205000D01*
X196759928Y-143955000D01*
X196772188Y-144079482D01*
X196808498Y-144199180D01*
X196867463Y-144309494D01*
X196946815Y-144406185D01*
X197043506Y-144485537D01*
X197153820Y-144544502D01*
X197273518Y-144580812D01*
X197398000Y-144593072D01*
X198398000Y-144593072D01*
X198522482Y-144580812D01*
X198642180Y-144544502D01*
X198752494Y-144485537D01*
X198849185Y-144406185D01*
X198928537Y-144309494D01*
X198987502Y-144199180D01*
X199023812Y-144079482D01*
X199036072Y-143955000D01*
X200759928Y-143955000D01*
X200772188Y-144079482D01*
X200808498Y-144199180D01*
X200867463Y-144309494D01*
X200946815Y-144406185D01*
X201043506Y-144485537D01*
X201153820Y-144544502D01*
X201273518Y-144580812D01*
X201398000Y-144593072D01*
X201612250Y-144590000D01*
X201771000Y-144431250D01*
X201771000Y-142707000D01*
X202025000Y-142707000D01*
X202025000Y-144431250D01*
X202183750Y-144590000D01*
X202398000Y-144593072D01*
X202522482Y-144580812D01*
X202642180Y-144544502D01*
X202752494Y-144485537D01*
X202849185Y-144406185D01*
X202928537Y-144309494D01*
X202987502Y-144199180D01*
X203023812Y-144079482D01*
X203036072Y-143955000D01*
X203033000Y-142865750D01*
X202874250Y-142707000D01*
X202025000Y-142707000D01*
X201771000Y-142707000D01*
X200921750Y-142707000D01*
X200763000Y-142865750D01*
X200759928Y-143955000D01*
X199036072Y-143955000D01*
X199036072Y-141205000D01*
X200759928Y-141205000D01*
X200763000Y-142294250D01*
X200921750Y-142453000D01*
X201771000Y-142453000D01*
X201771000Y-140728750D01*
X202025000Y-140728750D01*
X202025000Y-142453000D01*
X202874250Y-142453000D01*
X203033000Y-142294250D01*
X203036072Y-141205000D01*
X203023812Y-141080518D01*
X202987502Y-140960820D01*
X202928537Y-140850506D01*
X202849185Y-140753815D01*
X202752494Y-140674463D01*
X202642180Y-140615498D01*
X202522482Y-140579188D01*
X202398000Y-140566928D01*
X202183750Y-140570000D01*
X202025000Y-140728750D01*
X201771000Y-140728750D01*
X201612250Y-140570000D01*
X201398000Y-140566928D01*
X201273518Y-140579188D01*
X201153820Y-140615498D01*
X201043506Y-140674463D01*
X200946815Y-140753815D01*
X200867463Y-140850506D01*
X200808498Y-140960820D01*
X200772188Y-141080518D01*
X200759928Y-141205000D01*
X199036072Y-141205000D01*
X199023812Y-141080518D01*
X198987502Y-140960820D01*
X198928537Y-140850506D01*
X198849185Y-140753815D01*
X198752494Y-140674463D01*
X198658000Y-140623954D01*
X198658000Y-140150325D01*
X198661676Y-140113000D01*
X198658000Y-140075675D01*
X198658000Y-138776046D01*
X198752494Y-138725537D01*
X198849185Y-138646185D01*
X198928537Y-138549494D01*
X198987502Y-138439180D01*
X199023812Y-138319482D01*
X199036072Y-138195000D01*
X200759928Y-138195000D01*
X200772188Y-138319482D01*
X200808498Y-138439180D01*
X200867463Y-138549494D01*
X200946815Y-138646185D01*
X201043506Y-138725537D01*
X201153820Y-138784502D01*
X201273518Y-138820812D01*
X201398000Y-138833072D01*
X201612250Y-138830000D01*
X201771000Y-138671250D01*
X201771000Y-136947000D01*
X202025000Y-136947000D01*
X202025000Y-138671250D01*
X202183750Y-138830000D01*
X202398000Y-138833072D01*
X202522482Y-138820812D01*
X202642180Y-138784502D01*
X202752494Y-138725537D01*
X202849185Y-138646185D01*
X202928537Y-138549494D01*
X202987502Y-138439180D01*
X203023812Y-138319482D01*
X203036072Y-138195000D01*
X203033000Y-137105750D01*
X202874250Y-136947000D01*
X202025000Y-136947000D01*
X201771000Y-136947000D01*
X200921750Y-136947000D01*
X200763000Y-137105750D01*
X200759928Y-138195000D01*
X199036072Y-138195000D01*
X199036072Y-136863674D01*
X199088102Y-136885226D01*
X199288061Y-136925000D01*
X199491939Y-136925000D01*
X199691898Y-136885226D01*
X199880256Y-136807205D01*
X200004423Y-136724240D01*
X200119374Y-136712918D01*
X200276772Y-136665172D01*
X200421831Y-136587636D01*
X200548976Y-136483291D01*
X200575131Y-136451421D01*
X200762239Y-136264313D01*
X200763000Y-136534250D01*
X200921750Y-136693000D01*
X201771000Y-136693000D01*
X201771000Y-136673000D01*
X202025000Y-136673000D01*
X202025000Y-136693000D01*
X202874250Y-136693000D01*
X203033000Y-136534250D01*
X203036072Y-135445000D01*
X203023812Y-135320518D01*
X202987502Y-135200820D01*
X202928537Y-135090506D01*
X202849185Y-134993815D01*
X202752494Y-134914463D01*
X202642180Y-134855498D01*
X202522482Y-134819188D01*
X202398000Y-134806928D01*
X202217030Y-134809523D01*
X203761428Y-133265125D01*
X203793291Y-133238976D01*
X203897636Y-133111831D01*
X203975172Y-132966772D01*
X204022918Y-132809374D01*
X204035000Y-132686704D01*
X204035000Y-132686694D01*
X204039039Y-132645686D01*
X204035000Y-132604678D01*
X204035000Y-130520072D01*
X204050000Y-130520072D01*
X204174482Y-130507812D01*
X204294180Y-130471502D01*
X204404494Y-130412537D01*
X204501185Y-130333185D01*
X204580537Y-130236494D01*
X204639502Y-130126180D01*
X204675812Y-130006482D01*
X204688072Y-129882000D01*
X204688072Y-128182000D01*
X204675812Y-128057518D01*
X204639502Y-127937820D01*
X204580537Y-127827506D01*
X204501185Y-127730815D01*
X204404494Y-127651463D01*
X204310472Y-127601206D01*
X207168121Y-127601959D01*
G37*
X207168121Y-127601959D02*
X207075506Y-127651463D01*
X206978815Y-127730815D01*
X206899463Y-127827506D01*
X206840498Y-127937820D01*
X206804188Y-128057518D01*
X206791928Y-128182000D01*
X206791928Y-129882000D01*
X206804188Y-130006482D01*
X206840498Y-130126180D01*
X206899463Y-130236494D01*
X206978815Y-130333185D01*
X207075506Y-130412537D01*
X207185820Y-130471502D01*
X207305518Y-130507812D01*
X207430000Y-130520072D01*
X209015000Y-130520072D01*
X209015001Y-147863928D01*
X207430000Y-147863928D01*
X207305518Y-147876188D01*
X207185820Y-147912498D01*
X207075506Y-147971463D01*
X206978815Y-148050815D01*
X206899463Y-148147506D01*
X206840498Y-148257820D01*
X206804188Y-148377518D01*
X206791928Y-148502000D01*
X206791928Y-150202000D01*
X206804188Y-150326482D01*
X206840498Y-150446180D01*
X206899463Y-150556494D01*
X206978815Y-150653185D01*
X207054137Y-150715000D01*
X203789918Y-150715000D01*
X203903411Y-150667990D01*
X204146632Y-150505475D01*
X204353475Y-150298632D01*
X204515990Y-150055411D01*
X204627932Y-149785158D01*
X204685000Y-149498260D01*
X204685000Y-149205740D01*
X204627932Y-148918842D01*
X204515990Y-148648589D01*
X204353475Y-148405368D01*
X204146632Y-148198525D01*
X204035000Y-148123935D01*
X204035000Y-145653867D01*
X205169653Y-144519214D01*
X205200815Y-144557185D01*
X205297506Y-144636537D01*
X205407820Y-144695502D01*
X205527518Y-144731812D01*
X205652000Y-144744072D01*
X207352000Y-144744072D01*
X207476482Y-144731812D01*
X207596180Y-144695502D01*
X207706494Y-144636537D01*
X207803185Y-144557185D01*
X207882537Y-144460494D01*
X207941502Y-144350180D01*
X207977812Y-144230482D01*
X207990072Y-144106000D01*
X207990072Y-142406000D01*
X207977812Y-142281518D01*
X207941502Y-142161820D01*
X207882537Y-142051506D01*
X207803185Y-141954815D01*
X207706494Y-141875463D01*
X207596180Y-141816498D01*
X207476482Y-141780188D01*
X207352000Y-141767928D01*
X207343458Y-141767928D01*
X207350792Y-141744397D01*
X206502000Y-140895605D01*
X206487858Y-140909748D01*
X206308253Y-140730143D01*
X206322395Y-140716000D01*
X206681605Y-140716000D01*
X207530397Y-141564792D01*
X207779472Y-141487157D01*
X207905371Y-141223117D01*
X207977339Y-140939589D01*
X207992611Y-140647469D01*
X207950599Y-140357981D01*
X207852919Y-140082253D01*
X207779472Y-139944843D01*
X207530397Y-139867208D01*
X206681605Y-140716000D01*
X206322395Y-140716000D01*
X206308253Y-140701858D01*
X206487858Y-140522253D01*
X206502000Y-140536395D01*
X207350792Y-139687603D01*
X207275271Y-139445311D01*
X207448632Y-139329475D01*
X207655475Y-139122632D01*
X207817990Y-138879411D01*
X207929932Y-138609158D01*
X207987000Y-138322260D01*
X207987000Y-138029740D01*
X207929932Y-137742842D01*
X207817990Y-137472589D01*
X207655475Y-137229368D01*
X207448632Y-137022525D01*
X207274240Y-136906000D01*
X207448632Y-136789475D01*
X207655475Y-136582632D01*
X207817990Y-136339411D01*
X207929932Y-136069158D01*
X207987000Y-135782260D01*
X207987000Y-135489740D01*
X207929932Y-135202842D01*
X207817990Y-134932589D01*
X207655475Y-134689368D01*
X207448632Y-134482525D01*
X207205411Y-134320010D01*
X206935158Y-134208068D01*
X206648260Y-134151000D01*
X206355740Y-134151000D01*
X206086999Y-134204456D01*
X206086999Y-133983284D01*
X206169204Y-133860255D01*
X206247225Y-133671897D01*
X206286999Y-133471938D01*
X206286999Y-133268060D01*
X206247225Y-133068101D01*
X206169204Y-132879743D01*
X206055936Y-132710225D01*
X205911773Y-132566062D01*
X205742255Y-132452794D01*
X205553897Y-132374773D01*
X205353938Y-132334999D01*
X205150060Y-132334999D01*
X204950101Y-132374773D01*
X204761743Y-132452794D01*
X204592225Y-132566062D01*
X204448062Y-132710225D01*
X204334794Y-132879743D01*
X204256773Y-133068101D01*
X204216999Y-133268060D01*
X204216999Y-133471938D01*
X204256773Y-133671897D01*
X204334794Y-133860255D01*
X204417000Y-133983285D01*
X204416999Y-142910133D01*
X202638574Y-144688559D01*
X202606710Y-144714709D01*
X202580562Y-144746571D01*
X202502364Y-144841855D01*
X202424828Y-144986914D01*
X202377082Y-145144312D01*
X202360960Y-145308000D01*
X202365001Y-145349028D01*
X202365000Y-148123935D01*
X202253368Y-148198525D01*
X202046525Y-148405368D01*
X201930000Y-148579760D01*
X201813475Y-148405368D01*
X201606632Y-148198525D01*
X201363411Y-148036010D01*
X201093158Y-147924068D01*
X200806260Y-147867000D01*
X200513740Y-147867000D01*
X200293592Y-147910790D01*
X192672917Y-140290116D01*
X196759928Y-136203105D01*
X196759928Y-138195000D01*
X196772188Y-138319482D01*
X196808498Y-138439180D01*
X196867463Y-138549494D01*
X196946815Y-138646185D01*
X197043506Y-138725537D01*
X197138001Y-138776046D01*
X197138001Y-139359100D01*
X196499611Y-139359100D01*
X196455674Y-139315163D01*
X196286156Y-139201895D01*
X196097798Y-139123874D01*
X195897839Y-139084100D01*
X195693961Y-139084100D01*
X195494002Y-139123874D01*
X195305644Y-139201895D01*
X195136126Y-139315163D01*
X194991963Y-139459326D01*
X194878695Y-139628844D01*
X194800674Y-139817202D01*
X194760900Y-140017161D01*
X194760900Y-140221039D01*
X194800674Y-140420998D01*
X194878695Y-140609356D01*
X194991963Y-140778874D01*
X195136126Y-140923037D01*
X195305644Y-141036305D01*
X195494002Y-141114326D01*
X195693961Y-141154100D01*
X195897839Y-141154100D01*
X196097798Y-141114326D01*
X196286156Y-141036305D01*
X196455674Y-140923037D01*
X196499611Y-140879100D01*
X196852179Y-140879100D01*
X196808498Y-140960820D01*
X196772188Y-141080518D01*
X196759928Y-141205000D01*
X196759928Y-143955000D01*
X196772188Y-144079482D01*
X196808498Y-144199180D01*
X196867463Y-144309494D01*
X196946815Y-144406185D01*
X197043506Y-144485537D01*
X197153820Y-144544502D01*
X197273518Y-144580812D01*
X197398000Y-144593072D01*
X198398000Y-144593072D01*
X198522482Y-144580812D01*
X198642180Y-144544502D01*
X198752494Y-144485537D01*
X198849185Y-144406185D01*
X198928537Y-144309494D01*
X198987502Y-144199180D01*
X199023812Y-144079482D01*
X199036072Y-143955000D01*
X200759928Y-143955000D01*
X200772188Y-144079482D01*
X200808498Y-144199180D01*
X200867463Y-144309494D01*
X200946815Y-144406185D01*
X201043506Y-144485537D01*
X201153820Y-144544502D01*
X201273518Y-144580812D01*
X201398000Y-144593072D01*
X201612250Y-144590000D01*
X201771000Y-144431250D01*
X201771000Y-142707000D01*
X202025000Y-142707000D01*
X202025000Y-144431250D01*
X202183750Y-144590000D01*
X202398000Y-144593072D01*
X202522482Y-144580812D01*
X202642180Y-144544502D01*
X202752494Y-144485537D01*
X202849185Y-144406185D01*
X202928537Y-144309494D01*
X202987502Y-144199180D01*
X203023812Y-144079482D01*
X203036072Y-143955000D01*
X203033000Y-142865750D01*
X202874250Y-142707000D01*
X202025000Y-142707000D01*
X201771000Y-142707000D01*
X200921750Y-142707000D01*
X200763000Y-142865750D01*
X200759928Y-143955000D01*
X199036072Y-143955000D01*
X199036072Y-141205000D01*
X200759928Y-141205000D01*
X200763000Y-142294250D01*
X200921750Y-142453000D01*
X201771000Y-142453000D01*
X201771000Y-140728750D01*
X202025000Y-140728750D01*
X202025000Y-142453000D01*
X202874250Y-142453000D01*
X203033000Y-142294250D01*
X203036072Y-141205000D01*
X203023812Y-141080518D01*
X202987502Y-140960820D01*
X202928537Y-140850506D01*
X202849185Y-140753815D01*
X202752494Y-140674463D01*
X202642180Y-140615498D01*
X202522482Y-140579188D01*
X202398000Y-140566928D01*
X202183750Y-140570000D01*
X202025000Y-140728750D01*
X201771000Y-140728750D01*
X201612250Y-140570000D01*
X201398000Y-140566928D01*
X201273518Y-140579188D01*
X201153820Y-140615498D01*
X201043506Y-140674463D01*
X200946815Y-140753815D01*
X200867463Y-140850506D01*
X200808498Y-140960820D01*
X200772188Y-141080518D01*
X200759928Y-141205000D01*
X199036072Y-141205000D01*
X199023812Y-141080518D01*
X198987502Y-140960820D01*
X198928537Y-140850506D01*
X198849185Y-140753815D01*
X198752494Y-140674463D01*
X198658000Y-140623954D01*
X198658000Y-140150325D01*
X198661676Y-140113000D01*
X198658000Y-140075675D01*
X198658000Y-138776046D01*
X198752494Y-138725537D01*
X198849185Y-138646185D01*
X198928537Y-138549494D01*
X198987502Y-138439180D01*
X199023812Y-138319482D01*
X199036072Y-138195000D01*
X200759928Y-138195000D01*
X200772188Y-138319482D01*
X200808498Y-138439180D01*
X200867463Y-138549494D01*
X200946815Y-138646185D01*
X201043506Y-138725537D01*
X201153820Y-138784502D01*
X201273518Y-138820812D01*
X201398000Y-138833072D01*
X201612250Y-138830000D01*
X201771000Y-138671250D01*
X201771000Y-136947000D01*
X202025000Y-136947000D01*
X202025000Y-138671250D01*
X202183750Y-138830000D01*
X202398000Y-138833072D01*
X202522482Y-138820812D01*
X202642180Y-138784502D01*
X202752494Y-138725537D01*
X202849185Y-138646185D01*
X202928537Y-138549494D01*
X202987502Y-138439180D01*
X203023812Y-138319482D01*
X203036072Y-138195000D01*
X203033000Y-137105750D01*
X202874250Y-136947000D01*
X202025000Y-136947000D01*
X201771000Y-136947000D01*
X200921750Y-136947000D01*
X200763000Y-137105750D01*
X200759928Y-138195000D01*
X199036072Y-138195000D01*
X199036072Y-136863674D01*
X199088102Y-136885226D01*
X199288061Y-136925000D01*
X199491939Y-136925000D01*
X199691898Y-136885226D01*
X199880256Y-136807205D01*
X200004423Y-136724240D01*
X200119374Y-136712918D01*
X200276772Y-136665172D01*
X200421831Y-136587636D01*
X200548976Y-136483291D01*
X200575131Y-136451421D01*
X200762239Y-136264313D01*
X200763000Y-136534250D01*
X200921750Y-136693000D01*
X201771000Y-136693000D01*
X201771000Y-136673000D01*
X202025000Y-136673000D01*
X202025000Y-136693000D01*
X202874250Y-136693000D01*
X203033000Y-136534250D01*
X203036072Y-135445000D01*
X203023812Y-135320518D01*
X202987502Y-135200820D01*
X202928537Y-135090506D01*
X202849185Y-134993815D01*
X202752494Y-134914463D01*
X202642180Y-134855498D01*
X202522482Y-134819188D01*
X202398000Y-134806928D01*
X202217030Y-134809523D01*
X203761428Y-133265125D01*
X203793291Y-133238976D01*
X203897636Y-133111831D01*
X203975172Y-132966772D01*
X204022918Y-132809374D01*
X204035000Y-132686704D01*
X204035000Y-132686694D01*
X204039039Y-132645686D01*
X204035000Y-132604678D01*
X204035000Y-130520072D01*
X204050000Y-130520072D01*
X204174482Y-130507812D01*
X204294180Y-130471502D01*
X204404494Y-130412537D01*
X204501185Y-130333185D01*
X204580537Y-130236494D01*
X204639502Y-130126180D01*
X204675812Y-130006482D01*
X204688072Y-129882000D01*
X204688072Y-128182000D01*
X204675812Y-128057518D01*
X204639502Y-127937820D01*
X204580537Y-127827506D01*
X204501185Y-127730815D01*
X204404494Y-127651463D01*
X204310472Y-127601206D01*
X207168121Y-127601959D01*
G36*
X143875439Y-127585297D02*
G01*
X143825863Y-127645706D01*
X143766898Y-127756020D01*
X143730588Y-127875718D01*
X143718328Y-128000200D01*
X143718328Y-129200200D01*
X143730588Y-129324682D01*
X143766898Y-129444380D01*
X143825863Y-129554694D01*
X143905215Y-129651385D01*
X144001906Y-129730737D01*
X144112220Y-129789702D01*
X144231918Y-129826012D01*
X144356400Y-129838272D01*
X144503801Y-129838272D01*
X144503800Y-130597935D01*
X144392168Y-130672525D01*
X144185325Y-130879368D01*
X144022810Y-131122589D01*
X143910868Y-131392842D01*
X143853800Y-131679740D01*
X143853800Y-131972260D01*
X143910868Y-132259158D01*
X144022810Y-132529411D01*
X144185325Y-132772632D01*
X144392168Y-132979475D01*
X144574334Y-133101195D01*
X144457445Y-133170822D01*
X144241212Y-133365731D01*
X144067159Y-133599080D01*
X143941975Y-133861901D01*
X143897324Y-134009110D01*
X144018645Y-134239000D01*
X145211800Y-134239000D01*
X145211800Y-134219000D01*
X145465800Y-134219000D01*
X145465800Y-134239000D01*
X147751800Y-134239000D01*
X147751800Y-134219000D01*
X148005800Y-134219000D01*
X148005800Y-134239000D01*
X149198955Y-134239000D01*
X149320276Y-134009110D01*
X149275625Y-133861901D01*
X149150441Y-133599080D01*
X148976388Y-133365731D01*
X148760155Y-133170822D01*
X148643266Y-133101195D01*
X148825432Y-132979475D01*
X149032275Y-132772632D01*
X149194790Y-132529411D01*
X149306732Y-132259158D01*
X149363800Y-131972260D01*
X149363800Y-131679740D01*
X149306732Y-131392842D01*
X149194790Y-131122589D01*
X149032275Y-130879368D01*
X148825432Y-130672525D01*
X148582211Y-130510010D01*
X148311958Y-130398068D01*
X148025060Y-130341000D01*
X147732540Y-130341000D01*
X147445642Y-130398068D01*
X147175389Y-130510010D01*
X146932168Y-130672525D01*
X146725325Y-130879368D01*
X146650735Y-130991000D01*
X146566865Y-130991000D01*
X146492275Y-130879368D01*
X146285432Y-130672525D01*
X146173800Y-130597935D01*
X146173800Y-129173607D01*
X146177839Y-129132599D01*
X146173800Y-129091591D01*
X146173800Y-129091581D01*
X146161718Y-128968911D01*
X146113972Y-128811513D01*
X146036436Y-128666454D01*
X145932091Y-128539309D01*
X145900221Y-128513154D01*
X145894472Y-128507405D01*
X145894472Y-128000200D01*
X145882212Y-127875718D01*
X145845902Y-127756020D01*
X145786937Y-127645706D01*
X145737763Y-127585787D01*
X147174727Y-127586165D01*
X147125863Y-127645706D01*
X147066898Y-127756020D01*
X147030588Y-127875718D01*
X147018328Y-128000200D01*
X147018328Y-129200200D01*
X147030588Y-129324682D01*
X147066898Y-129444380D01*
X147125863Y-129554694D01*
X147205215Y-129651385D01*
X147301906Y-129730737D01*
X147412220Y-129789702D01*
X147531918Y-129826012D01*
X147656400Y-129838272D01*
X148013605Y-129838272D01*
X151159542Y-132984211D01*
X151102828Y-133090314D01*
X151055082Y-133247712D01*
X151038960Y-133411400D01*
X151043001Y-133452428D01*
X151043000Y-136444299D01*
X151003518Y-136448188D01*
X150883820Y-136484498D01*
X150773506Y-136543463D01*
X150676815Y-136622815D01*
X150597463Y-136719506D01*
X150538498Y-136829820D01*
X150502188Y-136949518D01*
X150489928Y-137074000D01*
X150489928Y-139074000D01*
X150502188Y-139198482D01*
X150538498Y-139318180D01*
X150597463Y-139428494D01*
X150676815Y-139525185D01*
X150773506Y-139604537D01*
X150883820Y-139663502D01*
X151003518Y-139699812D01*
X151128000Y-139712072D01*
X152628000Y-139712072D01*
X152752482Y-139699812D01*
X152872180Y-139663502D01*
X152982494Y-139604537D01*
X153028000Y-139567191D01*
X153073506Y-139604537D01*
X153183820Y-139663502D01*
X153303518Y-139699812D01*
X153376095Y-139706960D01*
X153402828Y-139795086D01*
X153480364Y-139940145D01*
X153480365Y-139940146D01*
X153584710Y-140067291D01*
X153616574Y-140093441D01*
X156301294Y-142778162D01*
X156202482Y-142748188D01*
X156078000Y-142735928D01*
X152278000Y-142735928D01*
X152153518Y-142748188D01*
X152033820Y-142784498D01*
X151923506Y-142843463D01*
X151826815Y-142922815D01*
X151747463Y-143019506D01*
X151688498Y-143129820D01*
X151652188Y-143249518D01*
X151639928Y-143374000D01*
X151639928Y-145374000D01*
X151652188Y-145498482D01*
X151688498Y-145618180D01*
X151747463Y-145728494D01*
X151826815Y-145825185D01*
X151923506Y-145904537D01*
X152033820Y-145963502D01*
X152153518Y-145999812D01*
X152278000Y-146012072D01*
X154979063Y-146012072D01*
X153127207Y-147863928D01*
X151550000Y-147863928D01*
X151425518Y-147876188D01*
X151354137Y-147897841D01*
X151363226Y-147875898D01*
X151403000Y-147675939D01*
X151403000Y-147472061D01*
X151363226Y-147272102D01*
X151285205Y-147083744D01*
X151171937Y-146914226D01*
X151027774Y-146770063D01*
X150858256Y-146656795D01*
X150669898Y-146578774D01*
X150469939Y-146539000D01*
X150266061Y-146539000D01*
X150066102Y-146578774D01*
X149877744Y-146656795D01*
X149708226Y-146770063D01*
X149564063Y-146914226D01*
X149525600Y-146971790D01*
X149525600Y-146164901D01*
X149591785Y-146110585D01*
X149671137Y-146013894D01*
X149730102Y-145903580D01*
X149766412Y-145783882D01*
X149778672Y-145659400D01*
X149778672Y-144459400D01*
X149766412Y-144334918D01*
X149730102Y-144215220D01*
X149671137Y-144104906D01*
X149591785Y-144008215D01*
X149495094Y-143928863D01*
X149384780Y-143869898D01*
X149265082Y-143833588D01*
X149140600Y-143821328D01*
X148240600Y-143821328D01*
X148116118Y-143833588D01*
X147996420Y-143869898D01*
X147886106Y-143928863D01*
X147789415Y-144008215D01*
X147710063Y-144104906D01*
X147651098Y-144215220D01*
X147614788Y-144334918D01*
X147602528Y-144459400D01*
X147602528Y-145659400D01*
X147614788Y-145783882D01*
X147651098Y-145903580D01*
X147710063Y-146013894D01*
X147789415Y-146110585D01*
X147855600Y-146164902D01*
X147855601Y-147456728D01*
X147134200Y-147456728D01*
X147009718Y-147468988D01*
X146890020Y-147505298D01*
X146779706Y-147564263D01*
X146683015Y-147643615D01*
X146634200Y-147703096D01*
X146585385Y-147643615D01*
X146488694Y-147564263D01*
X146378380Y-147505298D01*
X146258682Y-147468988D01*
X146134200Y-147456728D01*
X144969950Y-147459800D01*
X144811200Y-147618550D01*
X144811200Y-148767800D01*
X144831200Y-148767800D01*
X144831200Y-149021800D01*
X144811200Y-149021800D01*
X144811200Y-150171050D01*
X144969950Y-150329800D01*
X146134200Y-150332872D01*
X146258682Y-150320612D01*
X146378380Y-150284302D01*
X146488694Y-150225337D01*
X146585385Y-150145985D01*
X146634200Y-150086504D01*
X146683015Y-150145985D01*
X146779706Y-150225337D01*
X146890020Y-150284302D01*
X147009718Y-150320612D01*
X147134200Y-150332872D01*
X150034200Y-150332872D01*
X150158682Y-150320612D01*
X150278380Y-150284302D01*
X150388694Y-150225337D01*
X150485385Y-150145985D01*
X150564737Y-150049294D01*
X150623702Y-149938980D01*
X150660012Y-149819282D01*
X150672272Y-149694800D01*
X150672272Y-148568243D01*
X150858256Y-148491205D01*
X150916847Y-148452056D01*
X150911928Y-148502000D01*
X150911928Y-150202000D01*
X150924188Y-150326482D01*
X150960498Y-150446180D01*
X151019463Y-150556494D01*
X151098815Y-150653185D01*
X151174137Y-150715000D01*
X143433000Y-150715000D01*
X143433000Y-150332347D01*
X144398450Y-150329800D01*
X144557200Y-150171050D01*
X144557200Y-149021800D01*
X144537200Y-149021800D01*
X144537200Y-148767800D01*
X144557200Y-148767800D01*
X144557200Y-147618550D01*
X144398450Y-147459800D01*
X143433000Y-147457253D01*
X143433000Y-141839740D01*
X143853800Y-141839740D01*
X143853800Y-142132260D01*
X143910868Y-142419158D01*
X144022810Y-142689411D01*
X144185325Y-142932632D01*
X144392168Y-143139475D01*
X144503800Y-143214065D01*
X144503801Y-143996409D01*
X144489415Y-144008215D01*
X144410063Y-144104906D01*
X144351098Y-144215220D01*
X144314788Y-144334918D01*
X144302528Y-144459400D01*
X144302528Y-145659400D01*
X144314788Y-145783882D01*
X144351098Y-145903580D01*
X144410063Y-146013894D01*
X144489415Y-146110585D01*
X144586106Y-146189937D01*
X144696420Y-146248902D01*
X144816118Y-146285212D01*
X144940600Y-146297472D01*
X145840600Y-146297472D01*
X145965082Y-146285212D01*
X146084780Y-146248902D01*
X146195094Y-146189937D01*
X146291785Y-146110585D01*
X146371137Y-146013894D01*
X146430102Y-145903580D01*
X146466412Y-145783882D01*
X146478672Y-145659400D01*
X146478672Y-144459400D01*
X146466412Y-144334918D01*
X146430102Y-144215220D01*
X146371137Y-144104906D01*
X146291785Y-144008215D01*
X146195094Y-143928863D01*
X146173800Y-143917481D01*
X146173800Y-143214065D01*
X146285432Y-143139475D01*
X146417287Y-143007620D01*
X146439298Y-143080180D01*
X146498263Y-143190494D01*
X146577615Y-143287185D01*
X146674306Y-143366537D01*
X146784620Y-143425502D01*
X146904318Y-143461812D01*
X147028800Y-143474072D01*
X148728800Y-143474072D01*
X148853282Y-143461812D01*
X148972980Y-143425502D01*
X149083294Y-143366537D01*
X149179985Y-143287185D01*
X149259337Y-143190494D01*
X149318302Y-143080180D01*
X149354612Y-142960482D01*
X149366872Y-142836000D01*
X149366872Y-141136000D01*
X149354612Y-141011518D01*
X149318302Y-140891820D01*
X149259337Y-140781506D01*
X149179985Y-140684815D01*
X149083294Y-140605463D01*
X148972980Y-140546498D01*
X148892334Y-140522034D01*
X148976388Y-140446269D01*
X149150441Y-140212920D01*
X149275625Y-139950099D01*
X149320276Y-139802890D01*
X149198955Y-139573000D01*
X148005800Y-139573000D01*
X148005800Y-139593000D01*
X147751800Y-139593000D01*
X147751800Y-139573000D01*
X145465800Y-139573000D01*
X145465800Y-139593000D01*
X145211800Y-139593000D01*
X145211800Y-139573000D01*
X144018645Y-139573000D01*
X143897324Y-139802890D01*
X143941975Y-139950099D01*
X144067159Y-140212920D01*
X144241212Y-140446269D01*
X144457445Y-140641178D01*
X144574334Y-140710805D01*
X144392168Y-140832525D01*
X144185325Y-141039368D01*
X144022810Y-141282589D01*
X143910868Y-141552842D01*
X143853800Y-141839740D01*
X143433000Y-141839740D01*
X143433000Y-137262890D01*
X143897324Y-137262890D01*
X143941975Y-137410099D01*
X144067159Y-137672920D01*
X144241212Y-137906269D01*
X144457445Y-138101178D01*
X144583055Y-138176000D01*
X144457445Y-138250822D01*
X144241212Y-138445731D01*
X144067159Y-138679080D01*
X143941975Y-138941901D01*
X143897324Y-139089110D01*
X144018645Y-139319000D01*
X145211800Y-139319000D01*
X145211800Y-137033000D01*
X145465800Y-137033000D01*
X145465800Y-139319000D01*
X147751800Y-139319000D01*
X147751800Y-137033000D01*
X148005800Y-137033000D01*
X148005800Y-139319000D01*
X149198955Y-139319000D01*
X149320276Y-139089110D01*
X149275625Y-138941901D01*
X149150441Y-138679080D01*
X148976388Y-138445731D01*
X148760155Y-138250822D01*
X148634545Y-138176000D01*
X148760155Y-138101178D01*
X148976388Y-137906269D01*
X149150441Y-137672920D01*
X149275625Y-137410099D01*
X149320276Y-137262890D01*
X149198955Y-137033000D01*
X148005800Y-137033000D01*
X147751800Y-137033000D01*
X145465800Y-137033000D01*
X145211800Y-137033000D01*
X144018645Y-137033000D01*
X143897324Y-137262890D01*
X143433000Y-137262890D01*
X143433000Y-134722890D01*
X143897324Y-134722890D01*
X143941975Y-134870099D01*
X144067159Y-135132920D01*
X144241212Y-135366269D01*
X144457445Y-135561178D01*
X144583055Y-135636000D01*
X144457445Y-135710822D01*
X144241212Y-135905731D01*
X144067159Y-136139080D01*
X143941975Y-136401901D01*
X143897324Y-136549110D01*
X144018645Y-136779000D01*
X145211800Y-136779000D01*
X145211800Y-134493000D01*
X145465800Y-134493000D01*
X145465800Y-136779000D01*
X147751800Y-136779000D01*
X147751800Y-134493000D01*
X148005800Y-134493000D01*
X148005800Y-136779000D01*
X149198955Y-136779000D01*
X149320276Y-136549110D01*
X149275625Y-136401901D01*
X149150441Y-136139080D01*
X148976388Y-135905731D01*
X148760155Y-135710822D01*
X148634545Y-135636000D01*
X148760155Y-135561178D01*
X148976388Y-135366269D01*
X149150441Y-135132920D01*
X149275625Y-134870099D01*
X149320276Y-134722890D01*
X149198955Y-134493000D01*
X148005800Y-134493000D01*
X147751800Y-134493000D01*
X145465800Y-134493000D01*
X145211800Y-134493000D01*
X144018645Y-134493000D01*
X143897324Y-134722890D01*
X143433000Y-134722890D01*
X143433000Y-127585180D01*
X143875439Y-127585297D01*
G37*
X143875439Y-127585297D02*
X143825863Y-127645706D01*
X143766898Y-127756020D01*
X143730588Y-127875718D01*
X143718328Y-128000200D01*
X143718328Y-129200200D01*
X143730588Y-129324682D01*
X143766898Y-129444380D01*
X143825863Y-129554694D01*
X143905215Y-129651385D01*
X144001906Y-129730737D01*
X144112220Y-129789702D01*
X144231918Y-129826012D01*
X144356400Y-129838272D01*
X144503801Y-129838272D01*
X144503800Y-130597935D01*
X144392168Y-130672525D01*
X144185325Y-130879368D01*
X144022810Y-131122589D01*
X143910868Y-131392842D01*
X143853800Y-131679740D01*
X143853800Y-131972260D01*
X143910868Y-132259158D01*
X144022810Y-132529411D01*
X144185325Y-132772632D01*
X144392168Y-132979475D01*
X144574334Y-133101195D01*
X144457445Y-133170822D01*
X144241212Y-133365731D01*
X144067159Y-133599080D01*
X143941975Y-133861901D01*
X143897324Y-134009110D01*
X144018645Y-134239000D01*
X145211800Y-134239000D01*
X145211800Y-134219000D01*
X145465800Y-134219000D01*
X145465800Y-134239000D01*
X147751800Y-134239000D01*
X147751800Y-134219000D01*
X148005800Y-134219000D01*
X148005800Y-134239000D01*
X149198955Y-134239000D01*
X149320276Y-134009110D01*
X149275625Y-133861901D01*
X149150441Y-133599080D01*
X148976388Y-133365731D01*
X148760155Y-133170822D01*
X148643266Y-133101195D01*
X148825432Y-132979475D01*
X149032275Y-132772632D01*
X149194790Y-132529411D01*
X149306732Y-132259158D01*
X149363800Y-131972260D01*
X149363800Y-131679740D01*
X149306732Y-131392842D01*
X149194790Y-131122589D01*
X149032275Y-130879368D01*
X148825432Y-130672525D01*
X148582211Y-130510010D01*
X148311958Y-130398068D01*
X148025060Y-130341000D01*
X147732540Y-130341000D01*
X147445642Y-130398068D01*
X147175389Y-130510010D01*
X146932168Y-130672525D01*
X146725325Y-130879368D01*
X146650735Y-130991000D01*
X146566865Y-130991000D01*
X146492275Y-130879368D01*
X146285432Y-130672525D01*
X146173800Y-130597935D01*
X146173800Y-129173607D01*
X146177839Y-129132599D01*
X146173800Y-129091591D01*
X146173800Y-129091581D01*
X146161718Y-128968911D01*
X146113972Y-128811513D01*
X146036436Y-128666454D01*
X145932091Y-128539309D01*
X145900221Y-128513154D01*
X145894472Y-128507405D01*
X145894472Y-128000200D01*
X145882212Y-127875718D01*
X145845902Y-127756020D01*
X145786937Y-127645706D01*
X145737763Y-127585787D01*
X147174727Y-127586165D01*
X147125863Y-127645706D01*
X147066898Y-127756020D01*
X147030588Y-127875718D01*
X147018328Y-128000200D01*
X147018328Y-129200200D01*
X147030588Y-129324682D01*
X147066898Y-129444380D01*
X147125863Y-129554694D01*
X147205215Y-129651385D01*
X147301906Y-129730737D01*
X147412220Y-129789702D01*
X147531918Y-129826012D01*
X147656400Y-129838272D01*
X148013605Y-129838272D01*
X151159542Y-132984211D01*
X151102828Y-133090314D01*
X151055082Y-133247712D01*
X151038960Y-133411400D01*
X151043001Y-133452428D01*
X151043000Y-136444299D01*
X151003518Y-136448188D01*
X150883820Y-136484498D01*
X150773506Y-136543463D01*
X150676815Y-136622815D01*
X150597463Y-136719506D01*
X150538498Y-136829820D01*
X150502188Y-136949518D01*
X150489928Y-137074000D01*
X150489928Y-139074000D01*
X150502188Y-139198482D01*
X150538498Y-139318180D01*
X150597463Y-139428494D01*
X150676815Y-139525185D01*
X150773506Y-139604537D01*
X150883820Y-139663502D01*
X151003518Y-139699812D01*
X151128000Y-139712072D01*
X152628000Y-139712072D01*
X152752482Y-139699812D01*
X152872180Y-139663502D01*
X152982494Y-139604537D01*
X153028000Y-139567191D01*
X153073506Y-139604537D01*
X153183820Y-139663502D01*
X153303518Y-139699812D01*
X153376095Y-139706960D01*
X153402828Y-139795086D01*
X153480364Y-139940145D01*
X153480365Y-139940146D01*
X153584710Y-140067291D01*
X153616574Y-140093441D01*
X156301294Y-142778162D01*
X156202482Y-142748188D01*
X156078000Y-142735928D01*
X152278000Y-142735928D01*
X152153518Y-142748188D01*
X152033820Y-142784498D01*
X151923506Y-142843463D01*
X151826815Y-142922815D01*
X151747463Y-143019506D01*
X151688498Y-143129820D01*
X151652188Y-143249518D01*
X151639928Y-143374000D01*
X151639928Y-145374000D01*
X151652188Y-145498482D01*
X151688498Y-145618180D01*
X151747463Y-145728494D01*
X151826815Y-145825185D01*
X151923506Y-145904537D01*
X152033820Y-145963502D01*
X152153518Y-145999812D01*
X152278000Y-146012072D01*
X154979063Y-146012072D01*
X153127207Y-147863928D01*
X151550000Y-147863928D01*
X151425518Y-147876188D01*
X151354137Y-147897841D01*
X151363226Y-147875898D01*
X151403000Y-147675939D01*
X151403000Y-147472061D01*
X151363226Y-147272102D01*
X151285205Y-147083744D01*
X151171937Y-146914226D01*
X151027774Y-146770063D01*
X150858256Y-146656795D01*
X150669898Y-146578774D01*
X150469939Y-146539000D01*
X150266061Y-146539000D01*
X150066102Y-146578774D01*
X149877744Y-146656795D01*
X149708226Y-146770063D01*
X149564063Y-146914226D01*
X149525600Y-146971790D01*
X149525600Y-146164901D01*
X149591785Y-146110585D01*
X149671137Y-146013894D01*
X149730102Y-145903580D01*
X149766412Y-145783882D01*
X149778672Y-145659400D01*
X149778672Y-144459400D01*
X149766412Y-144334918D01*
X149730102Y-144215220D01*
X149671137Y-144104906D01*
X149591785Y-144008215D01*
X149495094Y-143928863D01*
X149384780Y-143869898D01*
X149265082Y-143833588D01*
X149140600Y-143821328D01*
X148240600Y-143821328D01*
X148116118Y-143833588D01*
X147996420Y-143869898D01*
X147886106Y-143928863D01*
X147789415Y-144008215D01*
X147710063Y-144104906D01*
X147651098Y-144215220D01*
X147614788Y-144334918D01*
X147602528Y-144459400D01*
X147602528Y-145659400D01*
X147614788Y-145783882D01*
X147651098Y-145903580D01*
X147710063Y-146013894D01*
X147789415Y-146110585D01*
X147855600Y-146164902D01*
X147855601Y-147456728D01*
X147134200Y-147456728D01*
X147009718Y-147468988D01*
X146890020Y-147505298D01*
X146779706Y-147564263D01*
X146683015Y-147643615D01*
X146634200Y-147703096D01*
X146585385Y-147643615D01*
X146488694Y-147564263D01*
X146378380Y-147505298D01*
X146258682Y-147468988D01*
X146134200Y-147456728D01*
X144969950Y-147459800D01*
X144811200Y-147618550D01*
X144811200Y-148767800D01*
X144831200Y-148767800D01*
X144831200Y-149021800D01*
X144811200Y-149021800D01*
X144811200Y-150171050D01*
X144969950Y-150329800D01*
X146134200Y-150332872D01*
X146258682Y-150320612D01*
X146378380Y-150284302D01*
X146488694Y-150225337D01*
X146585385Y-150145985D01*
X146634200Y-150086504D01*
X146683015Y-150145985D01*
X146779706Y-150225337D01*
X146890020Y-150284302D01*
X147009718Y-150320612D01*
X147134200Y-150332872D01*
X150034200Y-150332872D01*
X150158682Y-150320612D01*
X150278380Y-150284302D01*
X150388694Y-150225337D01*
X150485385Y-150145985D01*
X150564737Y-150049294D01*
X150623702Y-149938980D01*
X150660012Y-149819282D01*
X150672272Y-149694800D01*
X150672272Y-148568243D01*
X150858256Y-148491205D01*
X150916847Y-148452056D01*
X150911928Y-148502000D01*
X150911928Y-150202000D01*
X150924188Y-150326482D01*
X150960498Y-150446180D01*
X151019463Y-150556494D01*
X151098815Y-150653185D01*
X151174137Y-150715000D01*
X143433000Y-150715000D01*
X143433000Y-150332347D01*
X144398450Y-150329800D01*
X144557200Y-150171050D01*
X144557200Y-149021800D01*
X144537200Y-149021800D01*
X144537200Y-148767800D01*
X144557200Y-148767800D01*
X144557200Y-147618550D01*
X144398450Y-147459800D01*
X143433000Y-147457253D01*
X143433000Y-141839740D01*
X143853800Y-141839740D01*
X143853800Y-142132260D01*
X143910868Y-142419158D01*
X144022810Y-142689411D01*
X144185325Y-142932632D01*
X144392168Y-143139475D01*
X144503800Y-143214065D01*
X144503801Y-143996409D01*
X144489415Y-144008215D01*
X144410063Y-144104906D01*
X144351098Y-144215220D01*
X144314788Y-144334918D01*
X144302528Y-144459400D01*
X144302528Y-145659400D01*
X144314788Y-145783882D01*
X144351098Y-145903580D01*
X144410063Y-146013894D01*
X144489415Y-146110585D01*
X144586106Y-146189937D01*
X144696420Y-146248902D01*
X144816118Y-146285212D01*
X144940600Y-146297472D01*
X145840600Y-146297472D01*
X145965082Y-146285212D01*
X146084780Y-146248902D01*
X146195094Y-146189937D01*
X146291785Y-146110585D01*
X146371137Y-146013894D01*
X146430102Y-145903580D01*
X146466412Y-145783882D01*
X146478672Y-145659400D01*
X146478672Y-144459400D01*
X146466412Y-144334918D01*
X146430102Y-144215220D01*
X146371137Y-144104906D01*
X146291785Y-144008215D01*
X146195094Y-143928863D01*
X146173800Y-143917481D01*
X146173800Y-143214065D01*
X146285432Y-143139475D01*
X146417287Y-143007620D01*
X146439298Y-143080180D01*
X146498263Y-143190494D01*
X146577615Y-143287185D01*
X146674306Y-143366537D01*
X146784620Y-143425502D01*
X146904318Y-143461812D01*
X147028800Y-143474072D01*
X148728800Y-143474072D01*
X148853282Y-143461812D01*
X148972980Y-143425502D01*
X149083294Y-143366537D01*
X149179985Y-143287185D01*
X149259337Y-143190494D01*
X149318302Y-143080180D01*
X149354612Y-142960482D01*
X149366872Y-142836000D01*
X149366872Y-141136000D01*
X149354612Y-141011518D01*
X149318302Y-140891820D01*
X149259337Y-140781506D01*
X149179985Y-140684815D01*
X149083294Y-140605463D01*
X148972980Y-140546498D01*
X148892334Y-140522034D01*
X148976388Y-140446269D01*
X149150441Y-140212920D01*
X149275625Y-139950099D01*
X149320276Y-139802890D01*
X149198955Y-139573000D01*
X148005800Y-139573000D01*
X148005800Y-139593000D01*
X147751800Y-139593000D01*
X147751800Y-139573000D01*
X145465800Y-139573000D01*
X145465800Y-139593000D01*
X145211800Y-139593000D01*
X145211800Y-139573000D01*
X144018645Y-139573000D01*
X143897324Y-139802890D01*
X143941975Y-139950099D01*
X144067159Y-140212920D01*
X144241212Y-140446269D01*
X144457445Y-140641178D01*
X144574334Y-140710805D01*
X144392168Y-140832525D01*
X144185325Y-141039368D01*
X144022810Y-141282589D01*
X143910868Y-141552842D01*
X143853800Y-141839740D01*
X143433000Y-141839740D01*
X143433000Y-137262890D01*
X143897324Y-137262890D01*
X143941975Y-137410099D01*
X144067159Y-137672920D01*
X144241212Y-137906269D01*
X144457445Y-138101178D01*
X144583055Y-138176000D01*
X144457445Y-138250822D01*
X144241212Y-138445731D01*
X144067159Y-138679080D01*
X143941975Y-138941901D01*
X143897324Y-139089110D01*
X144018645Y-139319000D01*
X145211800Y-139319000D01*
X145211800Y-137033000D01*
X145465800Y-137033000D01*
X145465800Y-139319000D01*
X147751800Y-139319000D01*
X147751800Y-137033000D01*
X148005800Y-137033000D01*
X148005800Y-139319000D01*
X149198955Y-139319000D01*
X149320276Y-139089110D01*
X149275625Y-138941901D01*
X149150441Y-138679080D01*
X148976388Y-138445731D01*
X148760155Y-138250822D01*
X148634545Y-138176000D01*
X148760155Y-138101178D01*
X148976388Y-137906269D01*
X149150441Y-137672920D01*
X149275625Y-137410099D01*
X149320276Y-137262890D01*
X149198955Y-137033000D01*
X148005800Y-137033000D01*
X147751800Y-137033000D01*
X145465800Y-137033000D01*
X145211800Y-137033000D01*
X144018645Y-137033000D01*
X143897324Y-137262890D01*
X143433000Y-137262890D01*
X143433000Y-134722890D01*
X143897324Y-134722890D01*
X143941975Y-134870099D01*
X144067159Y-135132920D01*
X144241212Y-135366269D01*
X144457445Y-135561178D01*
X144583055Y-135636000D01*
X144457445Y-135710822D01*
X144241212Y-135905731D01*
X144067159Y-136139080D01*
X143941975Y-136401901D01*
X143897324Y-136549110D01*
X144018645Y-136779000D01*
X145211800Y-136779000D01*
X145211800Y-134493000D01*
X145465800Y-134493000D01*
X145465800Y-136779000D01*
X147751800Y-136779000D01*
X147751800Y-134493000D01*
X148005800Y-134493000D01*
X148005800Y-136779000D01*
X149198955Y-136779000D01*
X149320276Y-136549110D01*
X149275625Y-136401901D01*
X149150441Y-136139080D01*
X148976388Y-135905731D01*
X148760155Y-135710822D01*
X148634545Y-135636000D01*
X148760155Y-135561178D01*
X148976388Y-135366269D01*
X149150441Y-135132920D01*
X149275625Y-134870099D01*
X149320276Y-134722890D01*
X149198955Y-134493000D01*
X148005800Y-134493000D01*
X147751800Y-134493000D01*
X145465800Y-134493000D01*
X145211800Y-134493000D01*
X144018645Y-134493000D01*
X143897324Y-134722890D01*
X143433000Y-134722890D01*
X143433000Y-127585180D01*
X143875439Y-127585297D01*
G36*
X155067000Y-149225000D02*
G01*
X155087000Y-149225000D01*
X155087000Y-149479000D01*
X155067000Y-149479000D01*
X155067000Y-149499000D01*
X154813000Y-149499000D01*
X154813000Y-149479000D01*
X154793000Y-149479000D01*
X154793000Y-149225000D01*
X154813000Y-149225000D01*
X154813000Y-149205000D01*
X155067000Y-149205000D01*
X155067000Y-149225000D01*
G37*
X155067000Y-149225000D02*
X155087000Y-149225000D01*
X155087000Y-149479000D01*
X155067000Y-149479000D01*
X155067000Y-149499000D01*
X154813000Y-149499000D01*
X154813000Y-149479000D01*
X154793000Y-149479000D01*
X154793000Y-149225000D01*
X154813000Y-149225000D01*
X154813000Y-149205000D01*
X155067000Y-149205000D01*
X155067000Y-149225000D01*
G36*
X197315299Y-148103689D02*
G01*
X197173368Y-148198525D01*
X196966525Y-148405368D01*
X196850000Y-148579760D01*
X196733475Y-148405368D01*
X196526632Y-148198525D01*
X196340000Y-148073822D01*
X196340000Y-147828921D01*
X196343677Y-147791588D01*
X196329003Y-147642602D01*
X196285546Y-147499341D01*
X196214974Y-147367312D01*
X196143799Y-147280585D01*
X196120001Y-147251587D01*
X196091004Y-147227790D01*
X190524963Y-141661750D01*
X190873361Y-141661750D01*
X197315299Y-148103689D01*
G37*
X197315299Y-148103689D02*
X197173368Y-148198525D01*
X196966525Y-148405368D01*
X196850000Y-148579760D01*
X196733475Y-148405368D01*
X196526632Y-148198525D01*
X196340000Y-148073822D01*
X196340000Y-147828921D01*
X196343677Y-147791588D01*
X196329003Y-147642602D01*
X196285546Y-147499341D01*
X196214974Y-147367312D01*
X196143799Y-147280585D01*
X196120001Y-147251587D01*
X196091004Y-147227790D01*
X190524963Y-141661750D01*
X190873361Y-141661750D01*
X197315299Y-148103689D01*
G36*
X190099000Y-144653000D02*
G01*
X190119000Y-144653000D01*
X190119000Y-144907000D01*
X190099000Y-144907000D01*
X190099000Y-145881250D01*
X190257750Y-146040000D01*
X190722000Y-146043072D01*
X190846482Y-146030812D01*
X190966180Y-145994502D01*
X191076494Y-145935537D01*
X191173185Y-145856185D01*
X191252537Y-145759494D01*
X191311502Y-145649180D01*
X191347812Y-145529482D01*
X191360072Y-145405000D01*
X191358956Y-145281756D01*
X192026000Y-145948800D01*
X192026001Y-148265892D01*
X191886525Y-148405368D01*
X191770000Y-148579760D01*
X191653475Y-148405368D01*
X191446632Y-148198525D01*
X191203411Y-148036010D01*
X190933158Y-147924068D01*
X190646260Y-147867000D01*
X190353740Y-147867000D01*
X190133592Y-147910790D01*
X189656999Y-147434198D01*
X189656999Y-146040194D01*
X189686250Y-146040000D01*
X189845000Y-145881250D01*
X189845000Y-144907000D01*
X189825000Y-144907000D01*
X189825000Y-144653000D01*
X189845000Y-144653000D01*
X189845000Y-144633000D01*
X190099000Y-144633000D01*
X190099000Y-144653000D01*
G37*
X190099000Y-144653000D02*
X190119000Y-144653000D01*
X190119000Y-144907000D01*
X190099000Y-144907000D01*
X190099000Y-145881250D01*
X190257750Y-146040000D01*
X190722000Y-146043072D01*
X190846482Y-146030812D01*
X190966180Y-145994502D01*
X191076494Y-145935537D01*
X191173185Y-145856185D01*
X191252537Y-145759494D01*
X191311502Y-145649180D01*
X191347812Y-145529482D01*
X191360072Y-145405000D01*
X191358956Y-145281756D01*
X192026000Y-145948800D01*
X192026001Y-148265892D01*
X191886525Y-148405368D01*
X191770000Y-148579760D01*
X191653475Y-148405368D01*
X191446632Y-148198525D01*
X191203411Y-148036010D01*
X190933158Y-147924068D01*
X190646260Y-147867000D01*
X190353740Y-147867000D01*
X190133592Y-147910790D01*
X189656999Y-147434198D01*
X189656999Y-146040194D01*
X189686250Y-146040000D01*
X189845000Y-145881250D01*
X189845000Y-144907000D01*
X189825000Y-144907000D01*
X189825000Y-144653000D01*
X189845000Y-144653000D01*
X189845000Y-144633000D01*
X190099000Y-144633000D01*
X190099000Y-144653000D01*
G36*
X172380188Y-141744518D02*
G01*
X172367928Y-141869000D01*
X172371000Y-142208250D01*
X172529750Y-142367000D01*
X173629000Y-142367000D01*
X173629000Y-142347000D01*
X173883000Y-142347000D01*
X173883000Y-142367000D01*
X173903000Y-142367000D01*
X173903000Y-142621000D01*
X173883000Y-142621000D01*
X173883000Y-142641000D01*
X173629000Y-142641000D01*
X173629000Y-142621000D01*
X172529750Y-142621000D01*
X172371000Y-142779750D01*
X172367928Y-143119000D01*
X172380188Y-143243482D01*
X172416498Y-143363180D01*
X172475463Y-143473494D01*
X172507064Y-143512000D01*
X171531408Y-143512000D01*
X171535812Y-143497482D01*
X171548072Y-143373000D01*
X171548072Y-142123000D01*
X171535812Y-141998518D01*
X171499502Y-141878820D01*
X171440537Y-141768506D01*
X171408936Y-141730000D01*
X172384592Y-141730000D01*
X172380188Y-141744518D01*
G37*
X172380188Y-141744518D02*
X172367928Y-141869000D01*
X172371000Y-142208250D01*
X172529750Y-142367000D01*
X173629000Y-142367000D01*
X173629000Y-142347000D01*
X173883000Y-142347000D01*
X173883000Y-142367000D01*
X173903000Y-142367000D01*
X173903000Y-142621000D01*
X173883000Y-142621000D01*
X173883000Y-142641000D01*
X173629000Y-142641000D01*
X173629000Y-142621000D01*
X172529750Y-142621000D01*
X172371000Y-142779750D01*
X172367928Y-143119000D01*
X172380188Y-143243482D01*
X172416498Y-143363180D01*
X172475463Y-143473494D01*
X172507064Y-143512000D01*
X171531408Y-143512000D01*
X171535812Y-143497482D01*
X171548072Y-143373000D01*
X171548072Y-142123000D01*
X171535812Y-141998518D01*
X171499502Y-141878820D01*
X171440537Y-141768506D01*
X171408936Y-141730000D01*
X172384592Y-141730000D01*
X172380188Y-141744518D01*
G36*
X161406525Y-129978632D02*
G01*
X161613368Y-130185475D01*
X161856589Y-130347990D01*
X162126842Y-130459932D01*
X162413740Y-130517000D01*
X162706260Y-130517000D01*
X162926408Y-130473209D01*
X163970210Y-131517012D01*
X163994009Y-131546011D01*
X164109734Y-131640984D01*
X164241763Y-131711556D01*
X164385024Y-131755013D01*
X164496677Y-131766010D01*
X164496685Y-131766010D01*
X164534010Y-131769686D01*
X164571335Y-131766010D01*
X168026389Y-131766010D01*
X170125307Y-133864928D01*
X168648000Y-133864928D01*
X168523518Y-133877188D01*
X168403820Y-133913498D01*
X168293506Y-133972463D01*
X168196815Y-134051815D01*
X168148000Y-134111296D01*
X168099185Y-134051815D01*
X168002494Y-133972463D01*
X167892180Y-133913498D01*
X167772482Y-133877188D01*
X167648000Y-133864928D01*
X167183750Y-133868000D01*
X167025000Y-134026750D01*
X167025000Y-135001000D01*
X167045000Y-135001000D01*
X167045000Y-135255000D01*
X167025000Y-135255000D01*
X167025000Y-136229250D01*
X167183750Y-136388000D01*
X167648000Y-136391072D01*
X167772482Y-136378812D01*
X167892180Y-136342502D01*
X168002494Y-136283537D01*
X168099185Y-136204185D01*
X168148000Y-136144704D01*
X168196815Y-136204185D01*
X168293506Y-136283537D01*
X168403820Y-136342502D01*
X168523518Y-136378812D01*
X168648000Y-136391072D01*
X168743674Y-136391072D01*
X168763026Y-136427276D01*
X168834201Y-136514002D01*
X168858000Y-136543001D01*
X168886998Y-136566799D01*
X169370127Y-137049928D01*
X166113000Y-137049928D01*
X165988518Y-137062188D01*
X165868820Y-137098498D01*
X165758506Y-137157463D01*
X165661815Y-137236815D01*
X165582463Y-137333506D01*
X165523498Y-137443820D01*
X165487188Y-137563518D01*
X165474928Y-137688000D01*
X165474928Y-140188000D01*
X165487188Y-140312482D01*
X165523498Y-140432180D01*
X165582463Y-140542494D01*
X165661815Y-140639185D01*
X165758506Y-140718537D01*
X165868820Y-140777502D01*
X165988518Y-140813812D01*
X166113000Y-140826072D01*
X169438000Y-140826072D01*
X169562482Y-140813812D01*
X169682180Y-140777502D01*
X169695553Y-140770354D01*
X169941698Y-141016500D01*
X169648998Y-141309201D01*
X169620000Y-141332999D01*
X169596202Y-141361997D01*
X169596201Y-141361998D01*
X169525026Y-141448724D01*
X169505674Y-141484928D01*
X169410000Y-141484928D01*
X169285518Y-141497188D01*
X169165820Y-141533498D01*
X169055506Y-141592463D01*
X168958815Y-141671815D01*
X168910000Y-141731296D01*
X168861185Y-141671815D01*
X168764494Y-141592463D01*
X168654180Y-141533498D01*
X168534482Y-141497188D01*
X168410000Y-141484928D01*
X167945750Y-141488000D01*
X167787000Y-141646750D01*
X167787000Y-142621000D01*
X167807000Y-142621000D01*
X167807000Y-142875000D01*
X167787000Y-142875000D01*
X167787000Y-142895000D01*
X167533000Y-142895000D01*
X167533000Y-142875000D01*
X166433750Y-142875000D01*
X166275000Y-143033750D01*
X166271928Y-143373000D01*
X166284188Y-143497482D01*
X166288592Y-143512000D01*
X165342356Y-143512000D01*
X165373000Y-143357939D01*
X165373000Y-143154061D01*
X165333226Y-142954102D01*
X165255205Y-142765744D01*
X165141937Y-142596226D01*
X164997774Y-142452063D01*
X164828256Y-142338795D01*
X164639898Y-142260774D01*
X164439939Y-142221000D01*
X164236061Y-142221000D01*
X164036102Y-142260774D01*
X163847744Y-142338795D01*
X163724715Y-142421000D01*
X162633000Y-142421000D01*
X162633000Y-142123000D01*
X166271928Y-142123000D01*
X166275000Y-142462250D01*
X166433750Y-142621000D01*
X167533000Y-142621000D01*
X167533000Y-141646750D01*
X167374250Y-141488000D01*
X166910000Y-141484928D01*
X166785518Y-141497188D01*
X166665820Y-141533498D01*
X166555506Y-141592463D01*
X166458815Y-141671815D01*
X166379463Y-141768506D01*
X166320498Y-141878820D01*
X166284188Y-141998518D01*
X166271928Y-142123000D01*
X162633000Y-142123000D01*
X162633000Y-135753000D01*
X165509928Y-135753000D01*
X165522188Y-135877482D01*
X165558498Y-135997180D01*
X165617463Y-136107494D01*
X165696815Y-136204185D01*
X165793506Y-136283537D01*
X165903820Y-136342502D01*
X166023518Y-136378812D01*
X166148000Y-136391072D01*
X166612250Y-136388000D01*
X166771000Y-136229250D01*
X166771000Y-135255000D01*
X165671750Y-135255000D01*
X165513000Y-135413750D01*
X165509928Y-135753000D01*
X162633000Y-135753000D01*
X162633000Y-134503000D01*
X165509928Y-134503000D01*
X165513000Y-134842250D01*
X165671750Y-135001000D01*
X166771000Y-135001000D01*
X166771000Y-134026750D01*
X166612250Y-133868000D01*
X166148000Y-133864928D01*
X166023518Y-133877188D01*
X165903820Y-133913498D01*
X165793506Y-133972463D01*
X165696815Y-134051815D01*
X165617463Y-134148506D01*
X165558498Y-134258820D01*
X165522188Y-134378518D01*
X165509928Y-134503000D01*
X162633000Y-134503000D01*
X162633000Y-134344285D01*
X162715205Y-134221256D01*
X162793226Y-134032898D01*
X162833000Y-133832939D01*
X162833000Y-133629061D01*
X162793226Y-133429102D01*
X162715205Y-133240744D01*
X162633000Y-133117715D01*
X162633000Y-132614261D01*
X162636518Y-132558405D01*
X162627535Y-132491497D01*
X162620918Y-132424311D01*
X162616607Y-132410101D01*
X162614632Y-132395387D01*
X162592772Y-132331525D01*
X162573172Y-132266913D01*
X162566172Y-132253817D01*
X162561364Y-132239771D01*
X162527461Y-132181395D01*
X162495636Y-132121854D01*
X162486217Y-132110377D01*
X162478760Y-132097537D01*
X162434125Y-132046902D01*
X162391291Y-131994709D01*
X162348022Y-131959199D01*
X160644253Y-130371595D01*
X160786920Y-130303641D01*
X161020269Y-130129588D01*
X161215178Y-129913355D01*
X161284805Y-129796466D01*
X161406525Y-129978632D01*
G37*
X161406525Y-129978632D02*
X161613368Y-130185475D01*
X161856589Y-130347990D01*
X162126842Y-130459932D01*
X162413740Y-130517000D01*
X162706260Y-130517000D01*
X162926408Y-130473209D01*
X163970210Y-131517012D01*
X163994009Y-131546011D01*
X164109734Y-131640984D01*
X164241763Y-131711556D01*
X164385024Y-131755013D01*
X164496677Y-131766010D01*
X164496685Y-131766010D01*
X164534010Y-131769686D01*
X164571335Y-131766010D01*
X168026389Y-131766010D01*
X170125307Y-133864928D01*
X168648000Y-133864928D01*
X168523518Y-133877188D01*
X168403820Y-133913498D01*
X168293506Y-133972463D01*
X168196815Y-134051815D01*
X168148000Y-134111296D01*
X168099185Y-134051815D01*
X168002494Y-133972463D01*
X167892180Y-133913498D01*
X167772482Y-133877188D01*
X167648000Y-133864928D01*
X167183750Y-133868000D01*
X167025000Y-134026750D01*
X167025000Y-135001000D01*
X167045000Y-135001000D01*
X167045000Y-135255000D01*
X167025000Y-135255000D01*
X167025000Y-136229250D01*
X167183750Y-136388000D01*
X167648000Y-136391072D01*
X167772482Y-136378812D01*
X167892180Y-136342502D01*
X168002494Y-136283537D01*
X168099185Y-136204185D01*
X168148000Y-136144704D01*
X168196815Y-136204185D01*
X168293506Y-136283537D01*
X168403820Y-136342502D01*
X168523518Y-136378812D01*
X168648000Y-136391072D01*
X168743674Y-136391072D01*
X168763026Y-136427276D01*
X168834201Y-136514002D01*
X168858000Y-136543001D01*
X168886998Y-136566799D01*
X169370127Y-137049928D01*
X166113000Y-137049928D01*
X165988518Y-137062188D01*
X165868820Y-137098498D01*
X165758506Y-137157463D01*
X165661815Y-137236815D01*
X165582463Y-137333506D01*
X165523498Y-137443820D01*
X165487188Y-137563518D01*
X165474928Y-137688000D01*
X165474928Y-140188000D01*
X165487188Y-140312482D01*
X165523498Y-140432180D01*
X165582463Y-140542494D01*
X165661815Y-140639185D01*
X165758506Y-140718537D01*
X165868820Y-140777502D01*
X165988518Y-140813812D01*
X166113000Y-140826072D01*
X169438000Y-140826072D01*
X169562482Y-140813812D01*
X169682180Y-140777502D01*
X169695553Y-140770354D01*
X169941698Y-141016500D01*
X169648998Y-141309201D01*
X169620000Y-141332999D01*
X169596202Y-141361997D01*
X169596201Y-141361998D01*
X169525026Y-141448724D01*
X169505674Y-141484928D01*
X169410000Y-141484928D01*
X169285518Y-141497188D01*
X169165820Y-141533498D01*
X169055506Y-141592463D01*
X168958815Y-141671815D01*
X168910000Y-141731296D01*
X168861185Y-141671815D01*
X168764494Y-141592463D01*
X168654180Y-141533498D01*
X168534482Y-141497188D01*
X168410000Y-141484928D01*
X167945750Y-141488000D01*
X167787000Y-141646750D01*
X167787000Y-142621000D01*
X167807000Y-142621000D01*
X167807000Y-142875000D01*
X167787000Y-142875000D01*
X167787000Y-142895000D01*
X167533000Y-142895000D01*
X167533000Y-142875000D01*
X166433750Y-142875000D01*
X166275000Y-143033750D01*
X166271928Y-143373000D01*
X166284188Y-143497482D01*
X166288592Y-143512000D01*
X165342356Y-143512000D01*
X165373000Y-143357939D01*
X165373000Y-143154061D01*
X165333226Y-142954102D01*
X165255205Y-142765744D01*
X165141937Y-142596226D01*
X164997774Y-142452063D01*
X164828256Y-142338795D01*
X164639898Y-142260774D01*
X164439939Y-142221000D01*
X164236061Y-142221000D01*
X164036102Y-142260774D01*
X163847744Y-142338795D01*
X163724715Y-142421000D01*
X162633000Y-142421000D01*
X162633000Y-142123000D01*
X166271928Y-142123000D01*
X166275000Y-142462250D01*
X166433750Y-142621000D01*
X167533000Y-142621000D01*
X167533000Y-141646750D01*
X167374250Y-141488000D01*
X166910000Y-141484928D01*
X166785518Y-141497188D01*
X166665820Y-141533498D01*
X166555506Y-141592463D01*
X166458815Y-141671815D01*
X166379463Y-141768506D01*
X166320498Y-141878820D01*
X166284188Y-141998518D01*
X166271928Y-142123000D01*
X162633000Y-142123000D01*
X162633000Y-135753000D01*
X165509928Y-135753000D01*
X165522188Y-135877482D01*
X165558498Y-135997180D01*
X165617463Y-136107494D01*
X165696815Y-136204185D01*
X165793506Y-136283537D01*
X165903820Y-136342502D01*
X166023518Y-136378812D01*
X166148000Y-136391072D01*
X166612250Y-136388000D01*
X166771000Y-136229250D01*
X166771000Y-135255000D01*
X165671750Y-135255000D01*
X165513000Y-135413750D01*
X165509928Y-135753000D01*
X162633000Y-135753000D01*
X162633000Y-134503000D01*
X165509928Y-134503000D01*
X165513000Y-134842250D01*
X165671750Y-135001000D01*
X166771000Y-135001000D01*
X166771000Y-134026750D01*
X166612250Y-133868000D01*
X166148000Y-133864928D01*
X166023518Y-133877188D01*
X165903820Y-133913498D01*
X165793506Y-133972463D01*
X165696815Y-134051815D01*
X165617463Y-134148506D01*
X165558498Y-134258820D01*
X165522188Y-134378518D01*
X165509928Y-134503000D01*
X162633000Y-134503000D01*
X162633000Y-134344285D01*
X162715205Y-134221256D01*
X162793226Y-134032898D01*
X162833000Y-133832939D01*
X162833000Y-133629061D01*
X162793226Y-133429102D01*
X162715205Y-133240744D01*
X162633000Y-133117715D01*
X162633000Y-132614261D01*
X162636518Y-132558405D01*
X162627535Y-132491497D01*
X162620918Y-132424311D01*
X162616607Y-132410101D01*
X162614632Y-132395387D01*
X162592772Y-132331525D01*
X162573172Y-132266913D01*
X162566172Y-132253817D01*
X162561364Y-132239771D01*
X162527461Y-132181395D01*
X162495636Y-132121854D01*
X162486217Y-132110377D01*
X162478760Y-132097537D01*
X162434125Y-132046902D01*
X162391291Y-131994709D01*
X162348022Y-131959199D01*
X160644253Y-130371595D01*
X160786920Y-130303641D01*
X161020269Y-130129588D01*
X161215178Y-129913355D01*
X161284805Y-129796466D01*
X161406525Y-129978632D01*
G36*
X153910381Y-134717000D02*
G01*
X153910382Y-134717000D01*
X153951400Y-134721040D01*
X153992418Y-134717000D01*
X158835928Y-134717000D01*
X158835928Y-134982000D01*
X158848188Y-135106482D01*
X158884498Y-135226180D01*
X158943463Y-135336494D01*
X158980809Y-135382000D01*
X158943463Y-135427506D01*
X158884498Y-135537820D01*
X158848188Y-135657518D01*
X158835928Y-135782000D01*
X158839000Y-136596250D01*
X158997750Y-136755000D01*
X160147000Y-136755000D01*
X160147000Y-136735000D01*
X160401000Y-136735000D01*
X160401000Y-136755000D01*
X160421000Y-136755000D01*
X160421000Y-137009000D01*
X160401000Y-137009000D01*
X160401000Y-138458250D01*
X160559750Y-138617000D01*
X160963001Y-138619409D01*
X160963001Y-138621591D01*
X160559750Y-138624000D01*
X160401000Y-138782750D01*
X160401000Y-140232000D01*
X160421000Y-140232000D01*
X160421000Y-140486000D01*
X160401000Y-140486000D01*
X160401000Y-140506000D01*
X160147000Y-140506000D01*
X160147000Y-140486000D01*
X158997750Y-140486000D01*
X158839000Y-140644750D01*
X158835928Y-141459000D01*
X158848188Y-141583482D01*
X158884498Y-141703180D01*
X158943463Y-141813494D01*
X158980809Y-141859000D01*
X158943463Y-141904506D01*
X158884498Y-142014820D01*
X158848188Y-142134518D01*
X158835928Y-142259000D01*
X158835928Y-142524000D01*
X158408869Y-142524000D01*
X155576476Y-139691609D01*
X155603518Y-139699812D01*
X155728000Y-139712072D01*
X156192250Y-139709000D01*
X156351000Y-139550250D01*
X156351000Y-138201000D01*
X156605000Y-138201000D01*
X156605000Y-139550250D01*
X156763750Y-139709000D01*
X157228000Y-139712072D01*
X157352482Y-139699812D01*
X157472180Y-139663502D01*
X157582494Y-139604537D01*
X157679185Y-139525185D01*
X157758537Y-139428494D01*
X157817502Y-139318180D01*
X157835454Y-139259000D01*
X158835928Y-139259000D01*
X158839000Y-140073250D01*
X158997750Y-140232000D01*
X160147000Y-140232000D01*
X160147000Y-138782750D01*
X159988250Y-138624000D01*
X159474000Y-138620928D01*
X159349518Y-138633188D01*
X159229820Y-138669498D01*
X159119506Y-138728463D01*
X159022815Y-138807815D01*
X158943463Y-138904506D01*
X158884498Y-139014820D01*
X158848188Y-139134518D01*
X158835928Y-139259000D01*
X157835454Y-139259000D01*
X157853812Y-139198482D01*
X157866072Y-139074000D01*
X157863000Y-138359750D01*
X157704250Y-138201000D01*
X156605000Y-138201000D01*
X156351000Y-138201000D01*
X156331000Y-138201000D01*
X156331000Y-137982000D01*
X158835928Y-137982000D01*
X158848188Y-138106482D01*
X158884498Y-138226180D01*
X158943463Y-138336494D01*
X159022815Y-138433185D01*
X159119506Y-138512537D01*
X159229820Y-138571502D01*
X159349518Y-138607812D01*
X159474000Y-138620072D01*
X159988250Y-138617000D01*
X160147000Y-138458250D01*
X160147000Y-137009000D01*
X158997750Y-137009000D01*
X158839000Y-137167750D01*
X158835928Y-137982000D01*
X156331000Y-137982000D01*
X156331000Y-137947000D01*
X156351000Y-137947000D01*
X156351000Y-136597750D01*
X156605000Y-136597750D01*
X156605000Y-137947000D01*
X157704250Y-137947000D01*
X157863000Y-137788250D01*
X157866072Y-137074000D01*
X157853812Y-136949518D01*
X157817502Y-136829820D01*
X157758537Y-136719506D01*
X157679185Y-136622815D01*
X157582494Y-136543463D01*
X157472180Y-136484498D01*
X157352482Y-136448188D01*
X157228000Y-136435928D01*
X156763750Y-136439000D01*
X156605000Y-136597750D01*
X156351000Y-136597750D01*
X156192250Y-136439000D01*
X155728000Y-136435928D01*
X155603518Y-136448188D01*
X155483820Y-136484498D01*
X155373506Y-136543463D01*
X155328000Y-136580809D01*
X155282494Y-136543463D01*
X155172180Y-136484498D01*
X155052482Y-136448188D01*
X154928000Y-136435928D01*
X153428000Y-136435928D01*
X153303518Y-136448188D01*
X153183820Y-136484498D01*
X153073506Y-136543463D01*
X153028000Y-136580809D01*
X152982494Y-136543463D01*
X152872180Y-136484498D01*
X152752482Y-136448188D01*
X152713000Y-136444299D01*
X152713000Y-134848072D01*
X153479400Y-134848072D01*
X153603882Y-134835812D01*
X153723580Y-134799502D01*
X153833894Y-134740537D01*
X153867697Y-134712796D01*
X153910381Y-134717000D01*
G37*
X153910381Y-134717000D02*
X153910382Y-134717000D01*
X153951400Y-134721040D01*
X153992418Y-134717000D01*
X158835928Y-134717000D01*
X158835928Y-134982000D01*
X158848188Y-135106482D01*
X158884498Y-135226180D01*
X158943463Y-135336494D01*
X158980809Y-135382000D01*
X158943463Y-135427506D01*
X158884498Y-135537820D01*
X158848188Y-135657518D01*
X158835928Y-135782000D01*
X158839000Y-136596250D01*
X158997750Y-136755000D01*
X160147000Y-136755000D01*
X160147000Y-136735000D01*
X160401000Y-136735000D01*
X160401000Y-136755000D01*
X160421000Y-136755000D01*
X160421000Y-137009000D01*
X160401000Y-137009000D01*
X160401000Y-138458250D01*
X160559750Y-138617000D01*
X160963001Y-138619409D01*
X160963001Y-138621591D01*
X160559750Y-138624000D01*
X160401000Y-138782750D01*
X160401000Y-140232000D01*
X160421000Y-140232000D01*
X160421000Y-140486000D01*
X160401000Y-140486000D01*
X160401000Y-140506000D01*
X160147000Y-140506000D01*
X160147000Y-140486000D01*
X158997750Y-140486000D01*
X158839000Y-140644750D01*
X158835928Y-141459000D01*
X158848188Y-141583482D01*
X158884498Y-141703180D01*
X158943463Y-141813494D01*
X158980809Y-141859000D01*
X158943463Y-141904506D01*
X158884498Y-142014820D01*
X158848188Y-142134518D01*
X158835928Y-142259000D01*
X158835928Y-142524000D01*
X158408869Y-142524000D01*
X155576476Y-139691609D01*
X155603518Y-139699812D01*
X155728000Y-139712072D01*
X156192250Y-139709000D01*
X156351000Y-139550250D01*
X156351000Y-138201000D01*
X156605000Y-138201000D01*
X156605000Y-139550250D01*
X156763750Y-139709000D01*
X157228000Y-139712072D01*
X157352482Y-139699812D01*
X157472180Y-139663502D01*
X157582494Y-139604537D01*
X157679185Y-139525185D01*
X157758537Y-139428494D01*
X157817502Y-139318180D01*
X157835454Y-139259000D01*
X158835928Y-139259000D01*
X158839000Y-140073250D01*
X158997750Y-140232000D01*
X160147000Y-140232000D01*
X160147000Y-138782750D01*
X159988250Y-138624000D01*
X159474000Y-138620928D01*
X159349518Y-138633188D01*
X159229820Y-138669498D01*
X159119506Y-138728463D01*
X159022815Y-138807815D01*
X158943463Y-138904506D01*
X158884498Y-139014820D01*
X158848188Y-139134518D01*
X158835928Y-139259000D01*
X157835454Y-139259000D01*
X157853812Y-139198482D01*
X157866072Y-139074000D01*
X157863000Y-138359750D01*
X157704250Y-138201000D01*
X156605000Y-138201000D01*
X156351000Y-138201000D01*
X156331000Y-138201000D01*
X156331000Y-137982000D01*
X158835928Y-137982000D01*
X158848188Y-138106482D01*
X158884498Y-138226180D01*
X158943463Y-138336494D01*
X159022815Y-138433185D01*
X159119506Y-138512537D01*
X159229820Y-138571502D01*
X159349518Y-138607812D01*
X159474000Y-138620072D01*
X159988250Y-138617000D01*
X160147000Y-138458250D01*
X160147000Y-137009000D01*
X158997750Y-137009000D01*
X158839000Y-137167750D01*
X158835928Y-137982000D01*
X156331000Y-137982000D01*
X156331000Y-137947000D01*
X156351000Y-137947000D01*
X156351000Y-136597750D01*
X156605000Y-136597750D01*
X156605000Y-137947000D01*
X157704250Y-137947000D01*
X157863000Y-137788250D01*
X157866072Y-137074000D01*
X157853812Y-136949518D01*
X157817502Y-136829820D01*
X157758537Y-136719506D01*
X157679185Y-136622815D01*
X157582494Y-136543463D01*
X157472180Y-136484498D01*
X157352482Y-136448188D01*
X157228000Y-136435928D01*
X156763750Y-136439000D01*
X156605000Y-136597750D01*
X156351000Y-136597750D01*
X156192250Y-136439000D01*
X155728000Y-136435928D01*
X155603518Y-136448188D01*
X155483820Y-136484498D01*
X155373506Y-136543463D01*
X155328000Y-136580809D01*
X155282494Y-136543463D01*
X155172180Y-136484498D01*
X155052482Y-136448188D01*
X154928000Y-136435928D01*
X153428000Y-136435928D01*
X153303518Y-136448188D01*
X153183820Y-136484498D01*
X153073506Y-136543463D01*
X153028000Y-136580809D01*
X152982494Y-136543463D01*
X152872180Y-136484498D01*
X152752482Y-136448188D01*
X152713000Y-136444299D01*
X152713000Y-134848072D01*
X153479400Y-134848072D01*
X153603882Y-134835812D01*
X153723580Y-134799502D01*
X153833894Y-134740537D01*
X153867697Y-134712796D01*
X153910381Y-134717000D01*
G36*
X183069000Y-137674750D02*
G01*
X183169750Y-137674750D01*
X183069000Y-137775500D01*
X183069000Y-137976697D01*
X183052498Y-138007570D01*
X183037505Y-138056995D01*
X183007000Y-138087500D01*
X183003928Y-138251750D01*
X183007000Y-138666000D01*
X183069000Y-138728000D01*
X183069000Y-138824750D01*
X183165750Y-138824750D01*
X183227750Y-138886750D01*
X183642000Y-138889822D01*
X184056250Y-138886750D01*
X184118250Y-138824750D01*
X184215000Y-138824750D01*
X184215000Y-138728000D01*
X184277000Y-138666000D01*
X184280072Y-138251750D01*
X184277000Y-138087500D01*
X184246495Y-138056995D01*
X184231502Y-138007570D01*
X184215000Y-137976697D01*
X184215000Y-137775500D01*
X184114250Y-137674750D01*
X184215000Y-137674750D01*
X184215000Y-137654750D01*
X184469000Y-137654750D01*
X184469000Y-137674750D01*
X184489000Y-137674750D01*
X184489000Y-137755500D01*
X184469000Y-137775500D01*
X184469000Y-137976697D01*
X184452498Y-138007570D01*
X184437505Y-138056995D01*
X184407000Y-138087500D01*
X184403928Y-138251750D01*
X184407000Y-138666000D01*
X184469000Y-138728000D01*
X184469000Y-138824750D01*
X184565750Y-138824750D01*
X184627750Y-138886750D01*
X185042000Y-138889822D01*
X185206250Y-138886750D01*
X185236755Y-138856245D01*
X185286180Y-138841252D01*
X185317053Y-138824750D01*
X185518250Y-138824750D01*
X185538250Y-138804750D01*
X185619000Y-138804750D01*
X185619000Y-138824750D01*
X185639000Y-138824750D01*
X185639000Y-139078750D01*
X185619000Y-139078750D01*
X185619000Y-139179500D01*
X185518250Y-139078750D01*
X185317053Y-139078750D01*
X185286180Y-139062248D01*
X185236755Y-139047255D01*
X185206250Y-139016750D01*
X185042000Y-139013678D01*
X184627750Y-139016750D01*
X184565750Y-139078750D01*
X184469000Y-139078750D01*
X184469000Y-139175500D01*
X184407000Y-139237500D01*
X184403928Y-139651750D01*
X184407000Y-140066000D01*
X184469000Y-140128000D01*
X184469000Y-140224750D01*
X184565750Y-140224750D01*
X184627750Y-140286750D01*
X185042000Y-140289822D01*
X185206250Y-140286750D01*
X185236755Y-140256245D01*
X185286180Y-140241252D01*
X185317053Y-140224750D01*
X185518250Y-140224750D01*
X185619000Y-140124000D01*
X185619000Y-140224750D01*
X185639000Y-140224750D01*
X185639000Y-140478750D01*
X185619000Y-140478750D01*
X185619000Y-140498750D01*
X185538250Y-140498750D01*
X185518250Y-140478750D01*
X185317053Y-140478750D01*
X185286180Y-140462248D01*
X185236755Y-140447255D01*
X185206250Y-140416750D01*
X185042000Y-140413678D01*
X184627750Y-140416750D01*
X184565750Y-140478750D01*
X184469000Y-140478750D01*
X184469000Y-140575500D01*
X184407000Y-140637500D01*
X184403928Y-141051750D01*
X184407000Y-141216000D01*
X184437505Y-141246505D01*
X184452498Y-141295930D01*
X184469000Y-141326803D01*
X184469000Y-141528000D01*
X184489000Y-141548000D01*
X184489000Y-141628750D01*
X184469000Y-141628750D01*
X184469000Y-141648750D01*
X184215000Y-141648750D01*
X184215000Y-141628750D01*
X184114250Y-141628750D01*
X184215000Y-141528000D01*
X184215000Y-141326803D01*
X184231502Y-141295930D01*
X184246495Y-141246505D01*
X184277000Y-141216000D01*
X184280072Y-141051750D01*
X184277000Y-140637500D01*
X184215000Y-140575500D01*
X184215000Y-140478750D01*
X184118250Y-140478750D01*
X184056250Y-140416750D01*
X183642000Y-140413678D01*
X183227750Y-140416750D01*
X183165750Y-140478750D01*
X183069000Y-140478750D01*
X183069000Y-140575500D01*
X183007000Y-140637500D01*
X183003928Y-141051750D01*
X183007000Y-141216000D01*
X183037505Y-141246505D01*
X183052498Y-141295930D01*
X183069000Y-141326803D01*
X183069000Y-141528000D01*
X183169750Y-141628750D01*
X183069000Y-141628750D01*
X183069000Y-141648750D01*
X182815000Y-141648750D01*
X182815000Y-141628750D01*
X182795000Y-141628750D01*
X182795000Y-141548000D01*
X182815000Y-141528000D01*
X182815000Y-141326803D01*
X182831502Y-141295930D01*
X182846495Y-141246505D01*
X182877000Y-141216000D01*
X182880072Y-141051750D01*
X182877000Y-140637500D01*
X182815000Y-140575500D01*
X182815000Y-140478750D01*
X182718250Y-140478750D01*
X182656250Y-140416750D01*
X182242000Y-140413678D01*
X182077750Y-140416750D01*
X182047245Y-140447255D01*
X181997820Y-140462248D01*
X181966947Y-140478750D01*
X181765750Y-140478750D01*
X181745750Y-140498750D01*
X181665000Y-140498750D01*
X181665000Y-140478750D01*
X181645000Y-140478750D01*
X181645000Y-140224750D01*
X181665000Y-140224750D01*
X181665000Y-140124000D01*
X181765750Y-140224750D01*
X181966947Y-140224750D01*
X181997820Y-140241252D01*
X182047245Y-140256245D01*
X182077750Y-140286750D01*
X182242000Y-140289822D01*
X182656250Y-140286750D01*
X182718250Y-140224750D01*
X182815000Y-140224750D01*
X182815000Y-140128000D01*
X182877000Y-140066000D01*
X182880072Y-139651750D01*
X183003928Y-139651750D01*
X183007000Y-140066000D01*
X183069000Y-140128000D01*
X183069000Y-140224750D01*
X183165750Y-140224750D01*
X183227750Y-140286750D01*
X183642000Y-140289822D01*
X184056250Y-140286750D01*
X184118250Y-140224750D01*
X184215000Y-140224750D01*
X184215000Y-140128000D01*
X184277000Y-140066000D01*
X184280072Y-139651750D01*
X184277000Y-139237500D01*
X184215000Y-139175500D01*
X184215000Y-139078750D01*
X184118250Y-139078750D01*
X184056250Y-139016750D01*
X183642000Y-139013678D01*
X183227750Y-139016750D01*
X183165750Y-139078750D01*
X183069000Y-139078750D01*
X183069000Y-139175500D01*
X183007000Y-139237500D01*
X183003928Y-139651750D01*
X182880072Y-139651750D01*
X182877000Y-139237500D01*
X182815000Y-139175500D01*
X182815000Y-139078750D01*
X182718250Y-139078750D01*
X182656250Y-139016750D01*
X182242000Y-139013678D01*
X182077750Y-139016750D01*
X182047245Y-139047255D01*
X181997820Y-139062248D01*
X181966947Y-139078750D01*
X181765750Y-139078750D01*
X181665000Y-139179500D01*
X181665000Y-139078750D01*
X181645000Y-139078750D01*
X181645000Y-138824750D01*
X181665000Y-138824750D01*
X181665000Y-138804750D01*
X181745750Y-138804750D01*
X181765750Y-138824750D01*
X181966947Y-138824750D01*
X181997820Y-138841252D01*
X182047245Y-138856245D01*
X182077750Y-138886750D01*
X182242000Y-138889822D01*
X182656250Y-138886750D01*
X182718250Y-138824750D01*
X182815000Y-138824750D01*
X182815000Y-138728000D01*
X182877000Y-138666000D01*
X182880072Y-138251750D01*
X182877000Y-138087500D01*
X182846495Y-138056995D01*
X182831502Y-138007570D01*
X182815000Y-137976697D01*
X182815000Y-137775500D01*
X182795000Y-137755500D01*
X182795000Y-137674750D01*
X182815000Y-137674750D01*
X182815000Y-137654750D01*
X183069000Y-137654750D01*
X183069000Y-137674750D01*
G37*
X183069000Y-137674750D02*
X183169750Y-137674750D01*
X183069000Y-137775500D01*
X183069000Y-137976697D01*
X183052498Y-138007570D01*
X183037505Y-138056995D01*
X183007000Y-138087500D01*
X183003928Y-138251750D01*
X183007000Y-138666000D01*
X183069000Y-138728000D01*
X183069000Y-138824750D01*
X183165750Y-138824750D01*
X183227750Y-138886750D01*
X183642000Y-138889822D01*
X184056250Y-138886750D01*
X184118250Y-138824750D01*
X184215000Y-138824750D01*
X184215000Y-138728000D01*
X184277000Y-138666000D01*
X184280072Y-138251750D01*
X184277000Y-138087500D01*
X184246495Y-138056995D01*
X184231502Y-138007570D01*
X184215000Y-137976697D01*
X184215000Y-137775500D01*
X184114250Y-137674750D01*
X184215000Y-137674750D01*
X184215000Y-137654750D01*
X184469000Y-137654750D01*
X184469000Y-137674750D01*
X184489000Y-137674750D01*
X184489000Y-137755500D01*
X184469000Y-137775500D01*
X184469000Y-137976697D01*
X184452498Y-138007570D01*
X184437505Y-138056995D01*
X184407000Y-138087500D01*
X184403928Y-138251750D01*
X184407000Y-138666000D01*
X184469000Y-138728000D01*
X184469000Y-138824750D01*
X184565750Y-138824750D01*
X184627750Y-138886750D01*
X185042000Y-138889822D01*
X185206250Y-138886750D01*
X185236755Y-138856245D01*
X185286180Y-138841252D01*
X185317053Y-138824750D01*
X185518250Y-138824750D01*
X185538250Y-138804750D01*
X185619000Y-138804750D01*
X185619000Y-138824750D01*
X185639000Y-138824750D01*
X185639000Y-139078750D01*
X185619000Y-139078750D01*
X185619000Y-139179500D01*
X185518250Y-139078750D01*
X185317053Y-139078750D01*
X185286180Y-139062248D01*
X185236755Y-139047255D01*
X185206250Y-139016750D01*
X185042000Y-139013678D01*
X184627750Y-139016750D01*
X184565750Y-139078750D01*
X184469000Y-139078750D01*
X184469000Y-139175500D01*
X184407000Y-139237500D01*
X184403928Y-139651750D01*
X184407000Y-140066000D01*
X184469000Y-140128000D01*
X184469000Y-140224750D01*
X184565750Y-140224750D01*
X184627750Y-140286750D01*
X185042000Y-140289822D01*
X185206250Y-140286750D01*
X185236755Y-140256245D01*
X185286180Y-140241252D01*
X185317053Y-140224750D01*
X185518250Y-140224750D01*
X185619000Y-140124000D01*
X185619000Y-140224750D01*
X185639000Y-140224750D01*
X185639000Y-140478750D01*
X185619000Y-140478750D01*
X185619000Y-140498750D01*
X185538250Y-140498750D01*
X185518250Y-140478750D01*
X185317053Y-140478750D01*
X185286180Y-140462248D01*
X185236755Y-140447255D01*
X185206250Y-140416750D01*
X185042000Y-140413678D01*
X184627750Y-140416750D01*
X184565750Y-140478750D01*
X184469000Y-140478750D01*
X184469000Y-140575500D01*
X184407000Y-140637500D01*
X184403928Y-141051750D01*
X184407000Y-141216000D01*
X184437505Y-141246505D01*
X184452498Y-141295930D01*
X184469000Y-141326803D01*
X184469000Y-141528000D01*
X184489000Y-141548000D01*
X184489000Y-141628750D01*
X184469000Y-141628750D01*
X184469000Y-141648750D01*
X184215000Y-141648750D01*
X184215000Y-141628750D01*
X184114250Y-141628750D01*
X184215000Y-141528000D01*
X184215000Y-141326803D01*
X184231502Y-141295930D01*
X184246495Y-141246505D01*
X184277000Y-141216000D01*
X184280072Y-141051750D01*
X184277000Y-140637500D01*
X184215000Y-140575500D01*
X184215000Y-140478750D01*
X184118250Y-140478750D01*
X184056250Y-140416750D01*
X183642000Y-140413678D01*
X183227750Y-140416750D01*
X183165750Y-140478750D01*
X183069000Y-140478750D01*
X183069000Y-140575500D01*
X183007000Y-140637500D01*
X183003928Y-141051750D01*
X183007000Y-141216000D01*
X183037505Y-141246505D01*
X183052498Y-141295930D01*
X183069000Y-141326803D01*
X183069000Y-141528000D01*
X183169750Y-141628750D01*
X183069000Y-141628750D01*
X183069000Y-141648750D01*
X182815000Y-141648750D01*
X182815000Y-141628750D01*
X182795000Y-141628750D01*
X182795000Y-141548000D01*
X182815000Y-141528000D01*
X182815000Y-141326803D01*
X182831502Y-141295930D01*
X182846495Y-141246505D01*
X182877000Y-141216000D01*
X182880072Y-141051750D01*
X182877000Y-140637500D01*
X182815000Y-140575500D01*
X182815000Y-140478750D01*
X182718250Y-140478750D01*
X182656250Y-140416750D01*
X182242000Y-140413678D01*
X182077750Y-140416750D01*
X182047245Y-140447255D01*
X181997820Y-140462248D01*
X181966947Y-140478750D01*
X181765750Y-140478750D01*
X181745750Y-140498750D01*
X181665000Y-140498750D01*
X181665000Y-140478750D01*
X181645000Y-140478750D01*
X181645000Y-140224750D01*
X181665000Y-140224750D01*
X181665000Y-140124000D01*
X181765750Y-140224750D01*
X181966947Y-140224750D01*
X181997820Y-140241252D01*
X182047245Y-140256245D01*
X182077750Y-140286750D01*
X182242000Y-140289822D01*
X182656250Y-140286750D01*
X182718250Y-140224750D01*
X182815000Y-140224750D01*
X182815000Y-140128000D01*
X182877000Y-140066000D01*
X182880072Y-139651750D01*
X183003928Y-139651750D01*
X183007000Y-140066000D01*
X183069000Y-140128000D01*
X183069000Y-140224750D01*
X183165750Y-140224750D01*
X183227750Y-140286750D01*
X183642000Y-140289822D01*
X184056250Y-140286750D01*
X184118250Y-140224750D01*
X184215000Y-140224750D01*
X184215000Y-140128000D01*
X184277000Y-140066000D01*
X184280072Y-139651750D01*
X184277000Y-139237500D01*
X184215000Y-139175500D01*
X184215000Y-139078750D01*
X184118250Y-139078750D01*
X184056250Y-139016750D01*
X183642000Y-139013678D01*
X183227750Y-139016750D01*
X183165750Y-139078750D01*
X183069000Y-139078750D01*
X183069000Y-139175500D01*
X183007000Y-139237500D01*
X183003928Y-139651750D01*
X182880072Y-139651750D01*
X182877000Y-139237500D01*
X182815000Y-139175500D01*
X182815000Y-139078750D01*
X182718250Y-139078750D01*
X182656250Y-139016750D01*
X182242000Y-139013678D01*
X182077750Y-139016750D01*
X182047245Y-139047255D01*
X181997820Y-139062248D01*
X181966947Y-139078750D01*
X181765750Y-139078750D01*
X181665000Y-139179500D01*
X181665000Y-139078750D01*
X181645000Y-139078750D01*
X181645000Y-138824750D01*
X181665000Y-138824750D01*
X181665000Y-138804750D01*
X181745750Y-138804750D01*
X181765750Y-138824750D01*
X181966947Y-138824750D01*
X181997820Y-138841252D01*
X182047245Y-138856245D01*
X182077750Y-138886750D01*
X182242000Y-138889822D01*
X182656250Y-138886750D01*
X182718250Y-138824750D01*
X182815000Y-138824750D01*
X182815000Y-138728000D01*
X182877000Y-138666000D01*
X182880072Y-138251750D01*
X182877000Y-138087500D01*
X182846495Y-138056995D01*
X182831502Y-138007570D01*
X182815000Y-137976697D01*
X182815000Y-137775500D01*
X182795000Y-137755500D01*
X182795000Y-137674750D01*
X182815000Y-137674750D01*
X182815000Y-137654750D01*
X183069000Y-137654750D01*
X183069000Y-137674750D01*
G36*
X173310306Y-137049928D02*
G01*
X171938000Y-137049928D01*
X171813518Y-137062188D01*
X171693820Y-137098498D01*
X171612022Y-137142221D01*
X170632902Y-136163101D01*
X170678537Y-136107494D01*
X170737502Y-135997180D01*
X170773812Y-135877482D01*
X170786072Y-135753000D01*
X170786072Y-134525693D01*
X173310306Y-137049928D01*
G37*
X173310306Y-137049928D02*
X171938000Y-137049928D01*
X171813518Y-137062188D01*
X171693820Y-137098498D01*
X171612022Y-137142221D01*
X170632902Y-136163101D01*
X170678537Y-136107494D01*
X170737502Y-135997180D01*
X170773812Y-135877482D01*
X170786072Y-135753000D01*
X170786072Y-134525693D01*
X173310306Y-137049928D01*
G36*
X174657000Y-134588250D02*
G01*
X174815750Y-134747000D01*
X175915000Y-134747000D01*
X175915000Y-134727000D01*
X176169000Y-134727000D01*
X176169000Y-134747000D01*
X176189000Y-134747000D01*
X176189000Y-135001000D01*
X176169000Y-135001000D01*
X176169000Y-135021000D01*
X175915000Y-135021000D01*
X175915000Y-135001000D01*
X174815750Y-135001000D01*
X174749776Y-135066974D01*
X174242812Y-134560010D01*
X174656744Y-134560010D01*
X174657000Y-134588250D01*
G37*
X174657000Y-134588250D02*
X174815750Y-134747000D01*
X175915000Y-134747000D01*
X175915000Y-134727000D01*
X176169000Y-134727000D01*
X176169000Y-134747000D01*
X176189000Y-134747000D01*
X176189000Y-135001000D01*
X176169000Y-135001000D01*
X176169000Y-135021000D01*
X175915000Y-135021000D01*
X175915000Y-135001000D01*
X174815750Y-135001000D01*
X174749776Y-135066974D01*
X174242812Y-134560010D01*
X174656744Y-134560010D01*
X174657000Y-134588250D01*
G36*
X190627000Y-128905000D02*
G01*
X190647000Y-128905000D01*
X190647000Y-129159000D01*
X190627000Y-129159000D01*
X190627000Y-130352155D01*
X190856890Y-130473476D01*
X191004099Y-130428825D01*
X191266920Y-130303641D01*
X191500269Y-130129588D01*
X191695178Y-129913355D01*
X191764805Y-129796466D01*
X191886525Y-129978632D01*
X192093368Y-130185475D01*
X192336589Y-130347990D01*
X192606842Y-130459932D01*
X192893740Y-130517000D01*
X193186260Y-130517000D01*
X193406408Y-130473210D01*
X194058001Y-131124803D01*
X194058001Y-132445988D01*
X194038256Y-132432795D01*
X193849898Y-132354774D01*
X193649939Y-132315000D01*
X193446061Y-132315000D01*
X193285099Y-132347017D01*
X193263502Y-132275820D01*
X193204537Y-132165506D01*
X193125185Y-132068815D01*
X193028494Y-131989463D01*
X192918180Y-131930498D01*
X192798482Y-131894188D01*
X192674000Y-131881928D01*
X191374000Y-131881928D01*
X191249518Y-131894188D01*
X191129820Y-131930498D01*
X191019506Y-131989463D01*
X190922815Y-132068815D01*
X190843463Y-132165506D01*
X190784498Y-132275820D01*
X190748188Y-132395518D01*
X190735928Y-132520000D01*
X190735928Y-134020000D01*
X190748188Y-134144482D01*
X190784498Y-134264180D01*
X190843463Y-134374494D01*
X190922815Y-134471185D01*
X191019506Y-134550537D01*
X191129820Y-134609502D01*
X191164427Y-134620000D01*
X191129820Y-134630498D01*
X191019506Y-134689463D01*
X190922815Y-134768815D01*
X190851720Y-134855444D01*
X190748939Y-134835000D01*
X190545061Y-134835000D01*
X190434444Y-134857003D01*
X190385537Y-134765506D01*
X190306185Y-134668815D01*
X190246704Y-134620000D01*
X190306185Y-134571185D01*
X190385537Y-134474494D01*
X190444502Y-134364180D01*
X190480812Y-134244482D01*
X190493072Y-134120000D01*
X190490000Y-133655750D01*
X190331250Y-133497000D01*
X189357000Y-133497000D01*
X189357000Y-133517000D01*
X189103000Y-133517000D01*
X189103000Y-133497000D01*
X188128750Y-133497000D01*
X187970000Y-133655750D01*
X187966928Y-134120000D01*
X187979188Y-134244482D01*
X188015498Y-134364180D01*
X188074463Y-134474494D01*
X188153815Y-134571185D01*
X188213296Y-134620000D01*
X188153815Y-134668815D01*
X188136709Y-134689659D01*
X188115205Y-134637744D01*
X188001937Y-134468226D01*
X187857774Y-134324063D01*
X187688256Y-134210795D01*
X187499898Y-134132774D01*
X187299939Y-134093000D01*
X187096061Y-134093000D01*
X186896102Y-134132774D01*
X186707744Y-134210795D01*
X186652000Y-134248042D01*
X186652000Y-132620000D01*
X187966928Y-132620000D01*
X187970000Y-133084250D01*
X188128750Y-133243000D01*
X189103000Y-133243000D01*
X189103000Y-132143750D01*
X189357000Y-132143750D01*
X189357000Y-133243000D01*
X190331250Y-133243000D01*
X190490000Y-133084250D01*
X190493072Y-132620000D01*
X190480812Y-132495518D01*
X190444502Y-132375820D01*
X190385537Y-132265506D01*
X190306185Y-132168815D01*
X190209494Y-132089463D01*
X190099180Y-132030498D01*
X189979482Y-131994188D01*
X189855000Y-131981928D01*
X189515750Y-131985000D01*
X189357000Y-132143750D01*
X189103000Y-132143750D01*
X188944250Y-131985000D01*
X188605000Y-131981928D01*
X188480518Y-131994188D01*
X188360820Y-132030498D01*
X188250506Y-132089463D01*
X188153815Y-132168815D01*
X188074463Y-132265506D01*
X188015498Y-132375820D01*
X187979188Y-132495518D01*
X187966928Y-132620000D01*
X186652000Y-132620000D01*
X186652000Y-131414801D01*
X187593592Y-130473210D01*
X187813740Y-130517000D01*
X188106260Y-130517000D01*
X188393158Y-130459932D01*
X188663411Y-130347990D01*
X188906632Y-130185475D01*
X189113475Y-129978632D01*
X189235195Y-129796466D01*
X189304822Y-129913355D01*
X189499731Y-130129588D01*
X189733080Y-130303641D01*
X189995901Y-130428825D01*
X190143110Y-130473476D01*
X190373000Y-130352155D01*
X190373000Y-129159000D01*
X190353000Y-129159000D01*
X190353000Y-128905000D01*
X190373000Y-128905000D01*
X190373000Y-128885000D01*
X190627000Y-128885000D01*
X190627000Y-128905000D01*
G37*
X190627000Y-128905000D02*
X190647000Y-128905000D01*
X190647000Y-129159000D01*
X190627000Y-129159000D01*
X190627000Y-130352155D01*
X190856890Y-130473476D01*
X191004099Y-130428825D01*
X191266920Y-130303641D01*
X191500269Y-130129588D01*
X191695178Y-129913355D01*
X191764805Y-129796466D01*
X191886525Y-129978632D01*
X192093368Y-130185475D01*
X192336589Y-130347990D01*
X192606842Y-130459932D01*
X192893740Y-130517000D01*
X193186260Y-130517000D01*
X193406408Y-130473210D01*
X194058001Y-131124803D01*
X194058001Y-132445988D01*
X194038256Y-132432795D01*
X193849898Y-132354774D01*
X193649939Y-132315000D01*
X193446061Y-132315000D01*
X193285099Y-132347017D01*
X193263502Y-132275820D01*
X193204537Y-132165506D01*
X193125185Y-132068815D01*
X193028494Y-131989463D01*
X192918180Y-131930498D01*
X192798482Y-131894188D01*
X192674000Y-131881928D01*
X191374000Y-131881928D01*
X191249518Y-131894188D01*
X191129820Y-131930498D01*
X191019506Y-131989463D01*
X190922815Y-132068815D01*
X190843463Y-132165506D01*
X190784498Y-132275820D01*
X190748188Y-132395518D01*
X190735928Y-132520000D01*
X190735928Y-134020000D01*
X190748188Y-134144482D01*
X190784498Y-134264180D01*
X190843463Y-134374494D01*
X190922815Y-134471185D01*
X191019506Y-134550537D01*
X191129820Y-134609502D01*
X191164427Y-134620000D01*
X191129820Y-134630498D01*
X191019506Y-134689463D01*
X190922815Y-134768815D01*
X190851720Y-134855444D01*
X190748939Y-134835000D01*
X190545061Y-134835000D01*
X190434444Y-134857003D01*
X190385537Y-134765506D01*
X190306185Y-134668815D01*
X190246704Y-134620000D01*
X190306185Y-134571185D01*
X190385537Y-134474494D01*
X190444502Y-134364180D01*
X190480812Y-134244482D01*
X190493072Y-134120000D01*
X190490000Y-133655750D01*
X190331250Y-133497000D01*
X189357000Y-133497000D01*
X189357000Y-133517000D01*
X189103000Y-133517000D01*
X189103000Y-133497000D01*
X188128750Y-133497000D01*
X187970000Y-133655750D01*
X187966928Y-134120000D01*
X187979188Y-134244482D01*
X188015498Y-134364180D01*
X188074463Y-134474494D01*
X188153815Y-134571185D01*
X188213296Y-134620000D01*
X188153815Y-134668815D01*
X188136709Y-134689659D01*
X188115205Y-134637744D01*
X188001937Y-134468226D01*
X187857774Y-134324063D01*
X187688256Y-134210795D01*
X187499898Y-134132774D01*
X187299939Y-134093000D01*
X187096061Y-134093000D01*
X186896102Y-134132774D01*
X186707744Y-134210795D01*
X186652000Y-134248042D01*
X186652000Y-132620000D01*
X187966928Y-132620000D01*
X187970000Y-133084250D01*
X188128750Y-133243000D01*
X189103000Y-133243000D01*
X189103000Y-132143750D01*
X189357000Y-132143750D01*
X189357000Y-133243000D01*
X190331250Y-133243000D01*
X190490000Y-133084250D01*
X190493072Y-132620000D01*
X190480812Y-132495518D01*
X190444502Y-132375820D01*
X190385537Y-132265506D01*
X190306185Y-132168815D01*
X190209494Y-132089463D01*
X190099180Y-132030498D01*
X189979482Y-131994188D01*
X189855000Y-131981928D01*
X189515750Y-131985000D01*
X189357000Y-132143750D01*
X189103000Y-132143750D01*
X188944250Y-131985000D01*
X188605000Y-131981928D01*
X188480518Y-131994188D01*
X188360820Y-132030498D01*
X188250506Y-132089463D01*
X188153815Y-132168815D01*
X188074463Y-132265506D01*
X188015498Y-132375820D01*
X187979188Y-132495518D01*
X187966928Y-132620000D01*
X186652000Y-132620000D01*
X186652000Y-131414801D01*
X187593592Y-130473210D01*
X187813740Y-130517000D01*
X188106260Y-130517000D01*
X188393158Y-130459932D01*
X188663411Y-130347990D01*
X188906632Y-130185475D01*
X189113475Y-129978632D01*
X189235195Y-129796466D01*
X189304822Y-129913355D01*
X189499731Y-130129588D01*
X189733080Y-130303641D01*
X189995901Y-130428825D01*
X190143110Y-130473476D01*
X190373000Y-130352155D01*
X190373000Y-129159000D01*
X190353000Y-129159000D01*
X190353000Y-128905000D01*
X190373000Y-128905000D01*
X190373000Y-128885000D01*
X190627000Y-128885000D01*
X190627000Y-128905000D01*
G36*
X151241796Y-127587236D02*
G01*
X151244400Y-128574250D01*
X151403150Y-128733000D01*
X152552400Y-128733000D01*
X152552400Y-128713000D01*
X152806400Y-128713000D01*
X152806400Y-128733000D01*
X153955650Y-128733000D01*
X154114400Y-128574250D01*
X154117002Y-127587993D01*
X157123678Y-127588784D01*
X157046842Y-127604068D01*
X156776589Y-127716010D01*
X156533368Y-127878525D01*
X156326525Y-128085368D01*
X156164010Y-128328589D01*
X156052068Y-128598842D01*
X155995000Y-128885740D01*
X155995000Y-129178260D01*
X156052068Y-129465158D01*
X156164010Y-129735411D01*
X156326525Y-129978632D01*
X156533368Y-130185475D01*
X156776589Y-130347990D01*
X157046842Y-130459932D01*
X157333740Y-130517000D01*
X157626260Y-130517000D01*
X157756069Y-130491179D01*
X157860367Y-130576774D01*
X157863853Y-130579635D01*
X158008912Y-130657171D01*
X158166310Y-130704917D01*
X158329998Y-130721039D01*
X158371017Y-130716999D01*
X158565267Y-130716999D01*
X160096603Y-132143928D01*
X159474000Y-132143928D01*
X159349518Y-132156188D01*
X159229820Y-132192498D01*
X159119506Y-132251463D01*
X159022815Y-132330815D01*
X158943463Y-132427506D01*
X158884498Y-132537820D01*
X158848188Y-132657518D01*
X158835928Y-132782000D01*
X158835928Y-133047000D01*
X156677867Y-133047000D01*
X157128776Y-132596092D01*
X157273898Y-132567226D01*
X157462256Y-132489205D01*
X157631774Y-132375937D01*
X157775937Y-132231774D01*
X157889205Y-132062256D01*
X157967226Y-131873898D01*
X158007000Y-131673939D01*
X158007000Y-131470061D01*
X157967226Y-131270102D01*
X157889205Y-131081744D01*
X157775937Y-130912226D01*
X157631774Y-130768063D01*
X157462256Y-130654795D01*
X157273898Y-130576774D01*
X157073939Y-130537000D01*
X156870061Y-130537000D01*
X156670102Y-130576774D01*
X156481744Y-130654795D01*
X156312226Y-130768063D01*
X156168063Y-130912226D01*
X156054795Y-131081744D01*
X155976774Y-131270102D01*
X155947908Y-131415224D01*
X155588133Y-131775000D01*
X154117472Y-131775000D01*
X154117472Y-131310000D01*
X154105212Y-131185518D01*
X154068902Y-131065820D01*
X154009937Y-130955506D01*
X153930585Y-130858815D01*
X153871104Y-130810000D01*
X153930585Y-130761185D01*
X154009937Y-130664494D01*
X154068902Y-130554180D01*
X154105212Y-130434482D01*
X154117472Y-130310000D01*
X154114400Y-129145750D01*
X153955650Y-128987000D01*
X152806400Y-128987000D01*
X152806400Y-129007000D01*
X152552400Y-129007000D01*
X152552400Y-128987000D01*
X151403150Y-128987000D01*
X151244400Y-129145750D01*
X151241328Y-130310000D01*
X151253588Y-130434482D01*
X151289898Y-130554180D01*
X151348863Y-130664494D01*
X151428215Y-130761185D01*
X151487696Y-130810000D01*
X151428215Y-130858815D01*
X151413641Y-130876573D01*
X149194472Y-128657405D01*
X149194472Y-128000200D01*
X149182212Y-127875718D01*
X149145902Y-127756020D01*
X149086937Y-127645706D01*
X149038476Y-127586656D01*
X151241796Y-127587236D01*
G37*
X151241796Y-127587236D02*
X151244400Y-128574250D01*
X151403150Y-128733000D01*
X152552400Y-128733000D01*
X152552400Y-128713000D01*
X152806400Y-128713000D01*
X152806400Y-128733000D01*
X153955650Y-128733000D01*
X154114400Y-128574250D01*
X154117002Y-127587993D01*
X157123678Y-127588784D01*
X157046842Y-127604068D01*
X156776589Y-127716010D01*
X156533368Y-127878525D01*
X156326525Y-128085368D01*
X156164010Y-128328589D01*
X156052068Y-128598842D01*
X155995000Y-128885740D01*
X155995000Y-129178260D01*
X156052068Y-129465158D01*
X156164010Y-129735411D01*
X156326525Y-129978632D01*
X156533368Y-130185475D01*
X156776589Y-130347990D01*
X157046842Y-130459932D01*
X157333740Y-130517000D01*
X157626260Y-130517000D01*
X157756069Y-130491179D01*
X157860367Y-130576774D01*
X157863853Y-130579635D01*
X158008912Y-130657171D01*
X158166310Y-130704917D01*
X158329998Y-130721039D01*
X158371017Y-130716999D01*
X158565267Y-130716999D01*
X160096603Y-132143928D01*
X159474000Y-132143928D01*
X159349518Y-132156188D01*
X159229820Y-132192498D01*
X159119506Y-132251463D01*
X159022815Y-132330815D01*
X158943463Y-132427506D01*
X158884498Y-132537820D01*
X158848188Y-132657518D01*
X158835928Y-132782000D01*
X158835928Y-133047000D01*
X156677867Y-133047000D01*
X157128776Y-132596092D01*
X157273898Y-132567226D01*
X157462256Y-132489205D01*
X157631774Y-132375937D01*
X157775937Y-132231774D01*
X157889205Y-132062256D01*
X157967226Y-131873898D01*
X158007000Y-131673939D01*
X158007000Y-131470061D01*
X157967226Y-131270102D01*
X157889205Y-131081744D01*
X157775937Y-130912226D01*
X157631774Y-130768063D01*
X157462256Y-130654795D01*
X157273898Y-130576774D01*
X157073939Y-130537000D01*
X156870061Y-130537000D01*
X156670102Y-130576774D01*
X156481744Y-130654795D01*
X156312226Y-130768063D01*
X156168063Y-130912226D01*
X156054795Y-131081744D01*
X155976774Y-131270102D01*
X155947908Y-131415224D01*
X155588133Y-131775000D01*
X154117472Y-131775000D01*
X154117472Y-131310000D01*
X154105212Y-131185518D01*
X154068902Y-131065820D01*
X154009937Y-130955506D01*
X153930585Y-130858815D01*
X153871104Y-130810000D01*
X153930585Y-130761185D01*
X154009937Y-130664494D01*
X154068902Y-130554180D01*
X154105212Y-130434482D01*
X154117472Y-130310000D01*
X154114400Y-129145750D01*
X153955650Y-128987000D01*
X152806400Y-128987000D01*
X152806400Y-129007000D01*
X152552400Y-129007000D01*
X152552400Y-128987000D01*
X151403150Y-128987000D01*
X151244400Y-129145750D01*
X151241328Y-130310000D01*
X151253588Y-130434482D01*
X151289898Y-130554180D01*
X151348863Y-130664494D01*
X151428215Y-130761185D01*
X151487696Y-130810000D01*
X151428215Y-130858815D01*
X151413641Y-130876573D01*
X149194472Y-128657405D01*
X149194472Y-128000200D01*
X149182212Y-127875718D01*
X149145902Y-127756020D01*
X149086937Y-127645706D01*
X149038476Y-127586656D01*
X151241796Y-127587236D01*
G36*
X160147000Y-128905000D02*
G01*
X160167000Y-128905000D01*
X160167000Y-129159000D01*
X160147000Y-129159000D01*
X160147000Y-129179000D01*
X159893000Y-129179000D01*
X159893000Y-129159000D01*
X159873000Y-129159000D01*
X159873000Y-128905000D01*
X159893000Y-128905000D01*
X159893000Y-128885000D01*
X160147000Y-128885000D01*
X160147000Y-128905000D01*
G37*
X160147000Y-128905000D02*
X160167000Y-128905000D01*
X160167000Y-129159000D01*
X160147000Y-129159000D01*
X160147000Y-129179000D01*
X159893000Y-129179000D01*
X159893000Y-129159000D01*
X159873000Y-129159000D01*
X159873000Y-128905000D01*
X159893000Y-128905000D01*
X159893000Y-128885000D01*
X160147000Y-128885000D01*
X160147000Y-128905000D01*
M02*
