M48
; DRILL file {KiCad (5.1.4)-1} date 13/02/2020 17:11:00
; FORMAT={-:-/ absolute / inch / decimal}
; #@! TF.CreationDate,2020-02-13T17:11:00+00:00
; #@! TF.GenerationSoftware,Kicad,Pcbnew,(5.1.4)-1
; #@! TF.FileFunction,Plated,1,2,PTH
FMAT,2
INCH
T1C0.0157
T2C0.0394
%
G90
G05
T1
X5.92Y-5.81
X6.18Y-5.18
X6.23Y-5.32
X6.37Y-5.2428
X6.47Y-5.62
X6.79Y-5.6
X6.81Y-5.24
X6.87Y-5.3
X7.0Y-5.58
X7.03Y-5.52
X7.3141Y-5.4141
X7.37Y-5.32
X7.375Y-5.245
X7.38Y-5.64
X7.45Y-5.42
X7.5058Y-5.3492
X7.53Y-5.73
X7.62Y-5.25
X7.635Y-5.7
X7.79Y-5.52
X7.85Y-5.35
X7.89Y-5.38
X7.89Y-5.57
X8.0808Y-5.2508
T2
X6.2Y-5.08
X6.3Y-5.08
X6.4Y-5.08
X6.5Y-5.08
X6.6Y-5.08
X6.7Y-5.08
X6.8Y-5.08
X6.9Y-5.08
X7.0Y-5.08
X7.1Y-5.08
X7.2Y-5.08
X7.3Y-5.08
X7.4Y-5.08
X7.5Y-5.08
X7.6Y-5.08
X7.7Y-5.08
X7.8Y-5.08
X7.9Y-5.08
X8.0Y-5.08
X8.1Y-5.08
X6.0Y-5.88
X6.1Y-5.88
X6.2Y-5.88
X6.3Y-5.88
X6.4Y-5.88
X6.5Y-5.88
X6.6Y-5.88
X6.7Y-5.88
X6.8Y-5.88
X6.9Y-5.88
X7.0Y-5.88
X7.1Y-5.88
X7.2Y-5.88
X7.3Y-5.88
X7.4Y-5.88
X7.5Y-5.88
X7.6Y-5.88
X7.7Y-5.88
X7.8Y-5.88
X7.9Y-5.88
X8.0Y-5.88
X8.1Y-5.88
X8.13Y-5.34
X8.13Y-5.44
X8.13Y-5.54
X8.13Y-5.64
X5.722Y-5.19
X5.722Y-5.29
X5.722Y-5.39
X5.722Y-5.49
X5.722Y-5.59
X5.822Y-5.19
X5.822Y-5.29
X5.822Y-5.39
X5.822Y-5.49
X5.822Y-5.59
T0
M30
