G04 #@! TF.GenerationSoftware,KiCad,Pcbnew,(5.1.5)-3*
G04 #@! TF.CreationDate,2020-05-17T16:51:04+01:00*
G04 #@! TF.ProjectId,STM32L152_Dev_Board,53544d33-324c-4313-9532-5f4465765f42,rev?*
G04 #@! TF.SameCoordinates,Original*
G04 #@! TF.FileFunction,Paste,Top*
G04 #@! TF.FilePolarity,Positive*
%FSLAX46Y46*%
G04 Gerber Fmt 4.6, Leading zero omitted, Abs format (unit mm)*
G04 Created by KiCad (PCBNEW (5.1.5)-3) date 2020-05-17 16:51:04*
%MOMM*%
%LPD*%
G04 APERTURE LIST*
%ADD10R,0.540000X0.540000*%
%ADD11R,0.540000X0.840000*%
%ADD12R,0.840000X0.540000*%
%ADD13R,0.840000X0.840000*%
%ADD14O,0.300000X0.600000*%
%ADD15O,0.600000X0.300000*%
%ADD16R,3.325000X2.500000*%
%ADD17R,2.900000X1.600000*%
%ADD18R,1.600000X2.900000*%
%ADD19R,3.800000X2.000000*%
%ADD20R,1.500000X2.000000*%
%ADD21R,1.500000X1.250000*%
%ADD22R,1.600000X2.200000*%
%ADD23R,1.000000X2.750000*%
%ADD24R,1.250000X1.500000*%
%ADD25R,0.900000X1.200000*%
%ADD26R,1.300000X1.500000*%
G04 APERTURE END LIST*
D10*
X181792000Y-137801750D03*
D11*
X181792000Y-138951750D03*
X181792000Y-140351750D03*
D10*
X181792000Y-141501750D03*
D12*
X182942000Y-137801750D03*
D13*
X182942000Y-138951750D03*
X182942000Y-140351750D03*
D12*
X182942000Y-141501750D03*
X184342000Y-137801750D03*
D13*
X184342000Y-138951750D03*
X184342000Y-140351750D03*
D12*
X184342000Y-141501750D03*
D10*
X185492000Y-137801750D03*
D11*
X185492000Y-138951750D03*
X185492000Y-140351750D03*
D10*
X185492000Y-141501750D03*
D14*
X180892000Y-136251750D03*
X181392000Y-136251750D03*
X181892000Y-136251750D03*
X182392000Y-136251749D03*
X182892000Y-136251750D03*
X183392000Y-136251750D03*
X183892000Y-136251750D03*
X184392000Y-136251750D03*
X184892000Y-136251749D03*
X185392000Y-136251750D03*
X185892000Y-136251750D03*
X186392000Y-136251750D03*
D15*
X187042000Y-136901750D03*
X187042000Y-137401750D03*
X187042000Y-137901750D03*
X187042001Y-138401750D03*
X187042000Y-138901750D03*
X187042000Y-139401750D03*
X187042000Y-139901750D03*
X187042000Y-140401750D03*
X187042001Y-140901750D03*
X187042000Y-141401750D03*
X187042000Y-141901750D03*
X187042000Y-142401750D03*
D14*
X186392000Y-143051750D03*
X185892000Y-143051750D03*
X185392000Y-143051750D03*
X184892000Y-143051751D03*
X184392000Y-143051750D03*
X183892000Y-143051750D03*
X183392000Y-143051750D03*
X182892000Y-143051750D03*
X182392000Y-143051751D03*
X181892000Y-143051750D03*
X181392000Y-143051750D03*
X180892000Y-143051750D03*
D15*
X180242000Y-142401750D03*
X180242000Y-141901750D03*
X180242000Y-141401750D03*
X180241999Y-140901750D03*
X180242000Y-140401750D03*
X180242000Y-139901750D03*
X180242000Y-139401750D03*
X180242000Y-138901750D03*
X180241999Y-138401750D03*
X180242000Y-137901750D03*
X180242000Y-137401750D03*
X180242000Y-136901750D03*
D16*
X167775500Y-138938000D03*
X173600500Y-138938000D03*
D17*
X148584200Y-148894800D03*
X144684200Y-148894800D03*
D18*
X152679400Y-128860000D03*
X152679400Y-132760000D03*
D19*
X154178000Y-144374000D03*
D20*
X154178000Y-138074000D03*
X151878000Y-138074000D03*
X156478000Y-138074000D03*
D21*
X178542000Y-134874000D03*
X176042000Y-134874000D03*
D22*
X160274000Y-140359000D03*
X160274000Y-143359000D03*
X160274000Y-136882000D03*
X160274000Y-133882000D03*
D23*
X201898000Y-142580000D03*
X201898000Y-136820000D03*
X197898000Y-136820000D03*
X197898000Y-142580000D03*
D24*
X189230000Y-135870000D03*
X189230000Y-133370000D03*
D21*
X166898000Y-135128000D03*
X169398000Y-135128000D03*
X167660000Y-142748000D03*
X170160000Y-142748000D03*
X189972000Y-144780000D03*
X187472000Y-144780000D03*
X176256000Y-142494000D03*
X173756000Y-142494000D03*
D25*
X148106400Y-128600200D03*
X144806400Y-128600200D03*
X148690600Y-145059400D03*
X145390600Y-145059400D03*
D26*
X192024000Y-133270000D03*
X192024000Y-135970000D03*
M02*
