M48
; DRILL file {KiCad (5.1.5)-3} date 14/05/2020 10:55:59
; FORMAT={-:-/ absolute / inch / decimal}
; #@! TF.CreationDate,2020-05-14T10:55:59+01:00
; #@! TF.GenerationSoftware,Kicad,Pcbnew,(5.1.5)-3
; #@! TF.FileFunction,Plated,1,2,PTH
FMAT,2
INCH
T1C0.0157
T2C0.0197
T3C0.0394
T4C0.0430
T5C0.0433
%
G90
G05
T1
X4.1969Y-4.4567
X4.2441Y-4.5906
X4.6575Y-3.9803
X4.7835Y-4.5394
X4.811Y-4.4646
X4.8189Y-3.9094
X5.2362Y-4.937
X5.4134Y-4.8031
X5.8858Y-3.6496
X5.9843Y-3.7598
T3
X4.0472Y-4.0276
X4.0472Y-4.1276
X4.0472Y-4.2276
X4.0472Y-4.3276
X4.0472Y-4.4276
X4.0472Y-4.5276
X4.0472Y-4.6276
X4.0472Y-4.7276
X4.0472Y-4.8276
X4.0472Y-4.9276
X5.6496Y-2.8543
X5.748Y-2.8543
X5.8465Y-2.8543
X6.122Y-3.1496
X6.122Y-3.2496
X6.122Y-3.3496
X6.122Y-3.4496
X6.122Y-3.5496
X6.122Y-3.6496
X6.122Y-3.7496
X6.122Y-3.8496
X6.122Y-3.9496
X6.122Y-4.0496
X6.122Y-4.1496
X6.122Y-4.2496
X5.0197Y-3.5827
X5.1181Y-3.5827
X5.2165Y-3.5827
X5.0197Y-4.4488
X5.1181Y-4.4488
X5.2165Y-4.4488
X4.3898Y-5.2165
X4.4882Y-5.2165
X4.5866Y-5.2165
X4.3898Y-2.8543
X4.4882Y-2.8543
X4.5866Y-2.8543
X5.6496Y-5.2165
X5.748Y-5.2165
X5.8465Y-5.2165
T4
X5.8465Y-3.2449
X5.8465Y-3.3449
X5.8465Y-3.4449
X4.3898Y-3.2449
X4.3898Y-3.3449
X4.3898Y-3.4449
T5
X5.6693Y-4.0748
X5.6693Y-4.252
X5.9252Y-4.0748
X5.9252Y-4.252
X4.311Y-4.0748
X4.311Y-4.252
X4.5669Y-4.0748
X4.5669Y-4.252
T2
G00X4.1535Y-5.7512
M15
G01X4.1142Y-5.7512
M16
G05
G00X4.1535Y-6.078
M15
G01X4.1142Y-6.078
M16
G05
G00X4.1535Y-6.2
M15
G01X4.1142Y-6.2
M16
G05
G00X4.5472Y-5.7512
M15
G01X4.5079Y-5.7512
M16
G05
G00X4.5472Y-6.078
M15
G01X4.5079Y-6.078
M16
G05
G00X4.5472Y-6.2
M15
G01X4.5079Y-6.2
M16
G05
G00X5.7283Y-5.7512
M15
G01X5.689Y-5.7512
M16
G05
G00X5.7283Y-6.078
M15
G01X5.689Y-6.078
M16
G05
G00X5.7283Y-6.2
M15
G01X5.689Y-6.2
M16
G05
G00X6.122Y-5.7512
M15
G01X6.0827Y-5.7512
M16
G05
G00X6.122Y-6.078
M15
G01X6.0827Y-6.078
M16
G05
G00X6.122Y-6.2
M15
G01X6.0827Y-6.2
M16
G05
G00X5.3346Y-5.7512
M15
G01X5.2953Y-5.7512
M16
G05
G00X5.3346Y-6.078
M15
G01X5.2953Y-6.078
M16
G05
G00X5.3346Y-6.2
M15
G01X5.2953Y-6.2
M16
G05
G00X4.9409Y-5.7512
M15
G01X4.9016Y-5.7512
M16
G05
G00X4.9409Y-6.078
M15
G01X4.9016Y-6.078
M16
G05
G00X4.9409Y-6.2
M15
G01X4.9016Y-6.2
M16
G05
T0
M30
