G04 #@! TF.GenerationSoftware,KiCad,Pcbnew,(5.1.5)-3*
G04 #@! TF.CreationDate,2020-05-14T10:55:58+01:00*
G04 #@! TF.ProjectId,AddaTone Controls,41646461-546f-46e6-9520-436f6e74726f,rev?*
G04 #@! TF.SameCoordinates,Original*
G04 #@! TF.FileFunction,Legend,Bot*
G04 #@! TF.FilePolarity,Positive*
%FSLAX46Y46*%
G04 Gerber Fmt 4.6, Leading zero omitted, Abs format (unit mm)*
G04 Created by KiCad (PCBNEW (5.1.5)-3) date 2020-05-14 10:55:58*
%MOMM*%
%LPD*%
G04 APERTURE LIST*
%ADD10C,0.300000*%
%ADD11C,0.150000*%
%ADD12C,0.120000*%
G04 APERTURE END LIST*
D10*
X144100000Y-54450000D02*
X143385714Y-54450000D01*
X144242857Y-54878571D02*
X143742857Y-53378571D01*
X143242857Y-54878571D01*
X142100000Y-54878571D02*
X142100000Y-53378571D01*
X142100000Y-54807142D02*
X142242857Y-54878571D01*
X142528571Y-54878571D01*
X142671428Y-54807142D01*
X142742857Y-54735714D01*
X142814285Y-54592857D01*
X142814285Y-54164285D01*
X142742857Y-54021428D01*
X142671428Y-53950000D01*
X142528571Y-53878571D01*
X142242857Y-53878571D01*
X142100000Y-53950000D01*
X140742857Y-54878571D02*
X140742857Y-53378571D01*
X140742857Y-54807142D02*
X140885714Y-54878571D01*
X141171428Y-54878571D01*
X141314285Y-54807142D01*
X141385714Y-54735714D01*
X141457142Y-54592857D01*
X141457142Y-54164285D01*
X141385714Y-54021428D01*
X141314285Y-53950000D01*
X141171428Y-53878571D01*
X140885714Y-53878571D01*
X140742857Y-53950000D01*
X139385714Y-54878571D02*
X139385714Y-54092857D01*
X139457142Y-53950000D01*
X139600000Y-53878571D01*
X139885714Y-53878571D01*
X140028571Y-53950000D01*
X139385714Y-54807142D02*
X139528571Y-54878571D01*
X139885714Y-54878571D01*
X140028571Y-54807142D01*
X140100000Y-54664285D01*
X140100000Y-54521428D01*
X140028571Y-54378571D01*
X139885714Y-54307142D01*
X139528571Y-54307142D01*
X139385714Y-54235714D01*
X138885714Y-53878571D02*
X138314285Y-53878571D01*
X138671428Y-53378571D02*
X138671428Y-54664285D01*
X138600000Y-54807142D01*
X138457142Y-54878571D01*
X138314285Y-54878571D01*
X137600000Y-54878571D02*
X137742857Y-54807142D01*
X137814285Y-54735714D01*
X137885714Y-54592857D01*
X137885714Y-54164285D01*
X137814285Y-54021428D01*
X137742857Y-53950000D01*
X137600000Y-53878571D01*
X137385714Y-53878571D01*
X137242857Y-53950000D01*
X137171428Y-54021428D01*
X137100000Y-54164285D01*
X137100000Y-54592857D01*
X137171428Y-54735714D01*
X137242857Y-54807142D01*
X137385714Y-54878571D01*
X137600000Y-54878571D01*
X136457142Y-53878571D02*
X136457142Y-54878571D01*
X136457142Y-54021428D02*
X136385714Y-53950000D01*
X136242857Y-53878571D01*
X136028571Y-53878571D01*
X135885714Y-53950000D01*
X135814285Y-54092857D01*
X135814285Y-54878571D01*
X134528571Y-54807142D02*
X134671428Y-54878571D01*
X134957142Y-54878571D01*
X135100000Y-54807142D01*
X135171428Y-54664285D01*
X135171428Y-54092857D01*
X135100000Y-53950000D01*
X134957142Y-53878571D01*
X134671428Y-53878571D01*
X134528571Y-53950000D01*
X134457142Y-54092857D01*
X134457142Y-54235714D01*
X135171428Y-54378571D01*
X131814285Y-54735714D02*
X131885714Y-54807142D01*
X132100000Y-54878571D01*
X132242857Y-54878571D01*
X132457142Y-54807142D01*
X132600000Y-54664285D01*
X132671428Y-54521428D01*
X132742857Y-54235714D01*
X132742857Y-54021428D01*
X132671428Y-53735714D01*
X132600000Y-53592857D01*
X132457142Y-53450000D01*
X132242857Y-53378571D01*
X132100000Y-53378571D01*
X131885714Y-53450000D01*
X131814285Y-53521428D01*
X130957142Y-54878571D02*
X131100000Y-54807142D01*
X131171428Y-54735714D01*
X131242857Y-54592857D01*
X131242857Y-54164285D01*
X131171428Y-54021428D01*
X131100000Y-53950000D01*
X130957142Y-53878571D01*
X130742857Y-53878571D01*
X130600000Y-53950000D01*
X130528571Y-54021428D01*
X130457142Y-54164285D01*
X130457142Y-54592857D01*
X130528571Y-54735714D01*
X130600000Y-54807142D01*
X130742857Y-54878571D01*
X130957142Y-54878571D01*
X129814285Y-53878571D02*
X129814285Y-54878571D01*
X129814285Y-54021428D02*
X129742857Y-53950000D01*
X129600000Y-53878571D01*
X129385714Y-53878571D01*
X129242857Y-53950000D01*
X129171428Y-54092857D01*
X129171428Y-54878571D01*
X128671428Y-53878571D02*
X128100000Y-53878571D01*
X128457142Y-53378571D02*
X128457142Y-54664285D01*
X128385714Y-54807142D01*
X128242857Y-54878571D01*
X128100000Y-54878571D01*
X127600000Y-54878571D02*
X127600000Y-53878571D01*
X127600000Y-54164285D02*
X127528571Y-54021428D01*
X127457142Y-53950000D01*
X127314285Y-53878571D01*
X127171428Y-53878571D01*
X126457142Y-54878571D02*
X126600000Y-54807142D01*
X126671428Y-54735714D01*
X126742857Y-54592857D01*
X126742857Y-54164285D01*
X126671428Y-54021428D01*
X126600000Y-53950000D01*
X126457142Y-53878571D01*
X126242857Y-53878571D01*
X126100000Y-53950000D01*
X126028571Y-54021428D01*
X125957142Y-54164285D01*
X125957142Y-54592857D01*
X126028571Y-54735714D01*
X126100000Y-54807142D01*
X126242857Y-54878571D01*
X126457142Y-54878571D01*
X125100000Y-54878571D02*
X125242857Y-54807142D01*
X125314285Y-54664285D01*
X125314285Y-53378571D01*
X124600000Y-54807142D02*
X124457142Y-54878571D01*
X124171428Y-54878571D01*
X124028571Y-54807142D01*
X123957142Y-54664285D01*
X123957142Y-54592857D01*
X124028571Y-54450000D01*
X124171428Y-54378571D01*
X124385714Y-54378571D01*
X124528571Y-54307142D01*
X124600000Y-54164285D01*
X124600000Y-54092857D01*
X124528571Y-53950000D01*
X124385714Y-53878571D01*
X124171428Y-53878571D01*
X124028571Y-53950000D01*
X122314285Y-53878571D02*
X121957142Y-54878571D01*
X121600000Y-53878571D01*
X120242857Y-54878571D02*
X121100000Y-54878571D01*
X120671428Y-54878571D02*
X120671428Y-53378571D01*
X120814285Y-53592857D01*
X120957142Y-53735714D01*
X121100000Y-53807142D01*
X119600000Y-54735714D02*
X119528571Y-54807142D01*
X119600000Y-54878571D01*
X119671428Y-54807142D01*
X119600000Y-54735714D01*
X119600000Y-54878571D01*
X118600000Y-53378571D02*
X118457142Y-53378571D01*
X118314285Y-53450000D01*
X118242857Y-53521428D01*
X118171428Y-53664285D01*
X118100000Y-53950000D01*
X118100000Y-54307142D01*
X118171428Y-54592857D01*
X118242857Y-54735714D01*
X118314285Y-54807142D01*
X118457142Y-54878571D01*
X118600000Y-54878571D01*
X118742857Y-54807142D01*
X118814285Y-54735714D01*
X118885714Y-54592857D01*
X118957142Y-54307142D01*
X118957142Y-53950000D01*
X118885714Y-53664285D01*
X118814285Y-53521428D01*
X118742857Y-53450000D01*
X118600000Y-53378571D01*
D11*
X149664404Y-91452380D02*
X149664404Y-90452380D01*
X149331071Y-91166666D01*
X148997738Y-90452380D01*
X148997738Y-91452380D01*
X148521547Y-91452380D02*
X148521547Y-90785714D01*
X148521547Y-90452380D02*
X148569166Y-90500000D01*
X148521547Y-90547619D01*
X148473928Y-90500000D01*
X148521547Y-90452380D01*
X148521547Y-90547619D01*
X148140595Y-91452380D02*
X147616785Y-90785714D01*
X148140595Y-90785714D02*
X147616785Y-91452380D01*
X114092976Y-91452380D02*
X114426309Y-90976190D01*
X114664404Y-91452380D02*
X114664404Y-90452380D01*
X114283452Y-90452380D01*
X114188214Y-90500000D01*
X114140595Y-90547619D01*
X114092976Y-90642857D01*
X114092976Y-90785714D01*
X114140595Y-90880952D01*
X114188214Y-90928571D01*
X114283452Y-90976190D01*
X114664404Y-90976190D01*
X113664404Y-91452380D02*
X113664404Y-90785714D01*
X113664404Y-90452380D02*
X113712023Y-90500000D01*
X113664404Y-90547619D01*
X113616785Y-90500000D01*
X113664404Y-90452380D01*
X113664404Y-90547619D01*
X113188214Y-90785714D02*
X113188214Y-91452380D01*
X113188214Y-90880952D02*
X113140595Y-90833333D01*
X113045357Y-90785714D01*
X112902500Y-90785714D01*
X112807261Y-90833333D01*
X112759642Y-90928571D01*
X112759642Y-91452380D01*
X111854880Y-90785714D02*
X111854880Y-91595238D01*
X111902500Y-91690476D01*
X111950119Y-91738095D01*
X112045357Y-91785714D01*
X112188214Y-91785714D01*
X112283452Y-91738095D01*
X111854880Y-91404761D02*
X111950119Y-91452380D01*
X112140595Y-91452380D01*
X112235833Y-91404761D01*
X112283452Y-91357142D01*
X112331071Y-91261904D01*
X112331071Y-90976190D01*
X112283452Y-90880952D01*
X112235833Y-90833333D01*
X112140595Y-90785714D01*
X111950119Y-90785714D01*
X111854880Y-90833333D01*
X110616785Y-91452380D02*
X110616785Y-90452380D01*
X110283452Y-91166666D01*
X109950119Y-90452380D01*
X109950119Y-91452380D01*
X109331071Y-91452380D02*
X109426309Y-91404761D01*
X109473928Y-91357142D01*
X109521547Y-91261904D01*
X109521547Y-90976190D01*
X109473928Y-90880952D01*
X109426309Y-90833333D01*
X109331071Y-90785714D01*
X109188214Y-90785714D01*
X109092976Y-90833333D01*
X109045357Y-90880952D01*
X108997738Y-90976190D01*
X108997738Y-91261904D01*
X109045357Y-91357142D01*
X109092976Y-91404761D01*
X109188214Y-91452380D01*
X109331071Y-91452380D01*
X108140595Y-91452380D02*
X108140595Y-90452380D01*
X108140595Y-91404761D02*
X108235833Y-91452380D01*
X108426309Y-91452380D01*
X108521547Y-91404761D01*
X108569166Y-91357142D01*
X108616785Y-91261904D01*
X108616785Y-90976190D01*
X108569166Y-90880952D01*
X108521547Y-90833333D01*
X108426309Y-90785714D01*
X108235833Y-90785714D01*
X108140595Y-90833333D01*
X157690476Y-143766666D02*
X157214285Y-143766666D01*
X157785714Y-144052380D02*
X157452380Y-143052380D01*
X157119047Y-144052380D01*
X156357142Y-143385714D02*
X156357142Y-144052380D01*
X156785714Y-143385714D02*
X156785714Y-143909523D01*
X156738095Y-144004761D01*
X156642857Y-144052380D01*
X156500000Y-144052380D01*
X156404761Y-144004761D01*
X156357142Y-143957142D01*
X155452380Y-144052380D02*
X155452380Y-143052380D01*
X155452380Y-144004761D02*
X155547619Y-144052380D01*
X155738095Y-144052380D01*
X155833333Y-144004761D01*
X155880952Y-143957142D01*
X155928571Y-143861904D01*
X155928571Y-143576190D01*
X155880952Y-143480952D01*
X155833333Y-143433333D01*
X155738095Y-143385714D01*
X155547619Y-143385714D01*
X155452380Y-143433333D01*
X154976190Y-144052380D02*
X154976190Y-143385714D01*
X154976190Y-143052380D02*
X155023809Y-143100000D01*
X154976190Y-143147619D01*
X154928571Y-143100000D01*
X154976190Y-143052380D01*
X154976190Y-143147619D01*
X154357142Y-144052380D02*
X154452380Y-144004761D01*
X154500000Y-143957142D01*
X154547619Y-143861904D01*
X154547619Y-143576190D01*
X154500000Y-143480952D01*
X154452380Y-143433333D01*
X154357142Y-143385714D01*
X154214285Y-143385714D01*
X154119047Y-143433333D01*
X154071428Y-143480952D01*
X154023809Y-143576190D01*
X154023809Y-143861904D01*
X154071428Y-143957142D01*
X154119047Y-144004761D01*
X154214285Y-144052380D01*
X154357142Y-144052380D01*
X152309523Y-144052380D02*
X152880952Y-144052380D01*
X152595238Y-144052380D02*
X152595238Y-143052380D01*
X152690476Y-143195238D01*
X152785714Y-143290476D01*
X152880952Y-143338095D01*
X107690476Y-143766666D02*
X107214285Y-143766666D01*
X107785714Y-144052380D02*
X107452380Y-143052380D01*
X107119047Y-144052380D01*
X106357142Y-143385714D02*
X106357142Y-144052380D01*
X106785714Y-143385714D02*
X106785714Y-143909523D01*
X106738095Y-144004761D01*
X106642857Y-144052380D01*
X106500000Y-144052380D01*
X106404761Y-144004761D01*
X106357142Y-143957142D01*
X105452380Y-144052380D02*
X105452380Y-143052380D01*
X105452380Y-144004761D02*
X105547619Y-144052380D01*
X105738095Y-144052380D01*
X105833333Y-144004761D01*
X105880952Y-143957142D01*
X105928571Y-143861904D01*
X105928571Y-143576190D01*
X105880952Y-143480952D01*
X105833333Y-143433333D01*
X105738095Y-143385714D01*
X105547619Y-143385714D01*
X105452380Y-143433333D01*
X104976190Y-144052380D02*
X104976190Y-143385714D01*
X104976190Y-143052380D02*
X105023809Y-143100000D01*
X104976190Y-143147619D01*
X104928571Y-143100000D01*
X104976190Y-143052380D01*
X104976190Y-143147619D01*
X104357142Y-144052380D02*
X104452380Y-144004761D01*
X104500000Y-143957142D01*
X104547619Y-143861904D01*
X104547619Y-143576190D01*
X104500000Y-143480952D01*
X104452380Y-143433333D01*
X104357142Y-143385714D01*
X104214285Y-143385714D01*
X104119047Y-143433333D01*
X104071428Y-143480952D01*
X104023809Y-143576190D01*
X104023809Y-143861904D01*
X104071428Y-143957142D01*
X104119047Y-144004761D01*
X104214285Y-144052380D01*
X104357142Y-144052380D01*
X102880952Y-143147619D02*
X102833333Y-143100000D01*
X102738095Y-143052380D01*
X102500000Y-143052380D01*
X102404761Y-143100000D01*
X102357142Y-143147619D01*
X102309523Y-143242857D01*
X102309523Y-143338095D01*
X102357142Y-143480952D01*
X102928571Y-144052380D01*
X102309523Y-144052380D01*
X117571428Y-144052380D02*
X117571428Y-143052380D01*
X117571428Y-143528571D02*
X117000000Y-143528571D01*
X117000000Y-144052380D02*
X117000000Y-143052380D01*
X116095238Y-144052380D02*
X116095238Y-143528571D01*
X116142857Y-143433333D01*
X116238095Y-143385714D01*
X116428571Y-143385714D01*
X116523809Y-143433333D01*
X116095238Y-144004761D02*
X116190476Y-144052380D01*
X116428571Y-144052380D01*
X116523809Y-144004761D01*
X116571428Y-143909523D01*
X116571428Y-143814285D01*
X116523809Y-143719047D01*
X116428571Y-143671428D01*
X116190476Y-143671428D01*
X116095238Y-143623809D01*
X115619047Y-144052380D02*
X115619047Y-143385714D01*
X115619047Y-143576190D02*
X115571428Y-143480952D01*
X115523809Y-143433333D01*
X115428571Y-143385714D01*
X115333333Y-143385714D01*
X115000000Y-144052380D02*
X115000000Y-143385714D01*
X115000000Y-143480952D02*
X114952380Y-143433333D01*
X114857142Y-143385714D01*
X114714285Y-143385714D01*
X114619047Y-143433333D01*
X114571428Y-143528571D01*
X114571428Y-144052380D01*
X114571428Y-143528571D02*
X114523809Y-143433333D01*
X114428571Y-143385714D01*
X114285714Y-143385714D01*
X114190476Y-143433333D01*
X114142857Y-143528571D01*
X114142857Y-144052380D01*
X112952380Y-143147619D02*
X112904761Y-143100000D01*
X112809523Y-143052380D01*
X112571428Y-143052380D01*
X112476190Y-143100000D01*
X112428571Y-143147619D01*
X112380952Y-143242857D01*
X112380952Y-143338095D01*
X112428571Y-143480952D01*
X113000000Y-144052380D01*
X112380952Y-144052380D01*
X126642857Y-143052380D02*
X126404761Y-144052380D01*
X126214285Y-143338095D01*
X126023809Y-144052380D01*
X125785714Y-143052380D01*
X124976190Y-144052380D02*
X124976190Y-143528571D01*
X125023809Y-143433333D01*
X125119047Y-143385714D01*
X125309523Y-143385714D01*
X125404761Y-143433333D01*
X124976190Y-144004761D02*
X125071428Y-144052380D01*
X125309523Y-144052380D01*
X125404761Y-144004761D01*
X125452380Y-143909523D01*
X125452380Y-143814285D01*
X125404761Y-143719047D01*
X125309523Y-143671428D01*
X125071428Y-143671428D01*
X124976190Y-143623809D01*
X124500000Y-144052380D02*
X124500000Y-143385714D01*
X124500000Y-143576190D02*
X124452380Y-143480952D01*
X124404761Y-143433333D01*
X124309523Y-143385714D01*
X124214285Y-143385714D01*
X123880952Y-143385714D02*
X123880952Y-144385714D01*
X123880952Y-143433333D02*
X123785714Y-143385714D01*
X123595238Y-143385714D01*
X123500000Y-143433333D01*
X123452380Y-143480952D01*
X123404761Y-143576190D01*
X123404761Y-143861904D01*
X123452380Y-143957142D01*
X123500000Y-144004761D01*
X123595238Y-144052380D01*
X123785714Y-144052380D01*
X123880952Y-144004761D01*
X136666666Y-144052380D02*
X136666666Y-143052380D01*
X136285714Y-143052380D01*
X136190476Y-143100000D01*
X136142857Y-143147619D01*
X136095238Y-143242857D01*
X136095238Y-143385714D01*
X136142857Y-143480952D01*
X136190476Y-143528571D01*
X136285714Y-143576190D01*
X136666666Y-143576190D01*
X135666666Y-144052380D02*
X135666666Y-143385714D01*
X135666666Y-143052380D02*
X135714285Y-143100000D01*
X135666666Y-143147619D01*
X135619047Y-143100000D01*
X135666666Y-143052380D01*
X135666666Y-143147619D01*
X135333333Y-143385714D02*
X134952380Y-143385714D01*
X135190476Y-143052380D02*
X135190476Y-143909523D01*
X135142857Y-144004761D01*
X135047619Y-144052380D01*
X134952380Y-144052380D01*
X134190476Y-144004761D02*
X134285714Y-144052380D01*
X134476190Y-144052380D01*
X134571428Y-144004761D01*
X134619047Y-143957142D01*
X134666666Y-143861904D01*
X134666666Y-143576190D01*
X134619047Y-143480952D01*
X134571428Y-143433333D01*
X134476190Y-143385714D01*
X134285714Y-143385714D01*
X134190476Y-143433333D01*
X133761904Y-144052380D02*
X133761904Y-143052380D01*
X133333333Y-144052380D02*
X133333333Y-143528571D01*
X133380952Y-143433333D01*
X133476190Y-143385714D01*
X133619047Y-143385714D01*
X133714285Y-143433333D01*
X133761904Y-143480952D01*
X147571428Y-144052380D02*
X147571428Y-143052380D01*
X147571428Y-143528571D02*
X147000000Y-143528571D01*
X147000000Y-144052380D02*
X147000000Y-143052380D01*
X146095238Y-144052380D02*
X146095238Y-143528571D01*
X146142857Y-143433333D01*
X146238095Y-143385714D01*
X146428571Y-143385714D01*
X146523809Y-143433333D01*
X146095238Y-144004761D02*
X146190476Y-144052380D01*
X146428571Y-144052380D01*
X146523809Y-144004761D01*
X146571428Y-143909523D01*
X146571428Y-143814285D01*
X146523809Y-143719047D01*
X146428571Y-143671428D01*
X146190476Y-143671428D01*
X146095238Y-143623809D01*
X145619047Y-144052380D02*
X145619047Y-143385714D01*
X145619047Y-143576190D02*
X145571428Y-143480952D01*
X145523809Y-143433333D01*
X145428571Y-143385714D01*
X145333333Y-143385714D01*
X145000000Y-144052380D02*
X145000000Y-143385714D01*
X145000000Y-143480952D02*
X144952380Y-143433333D01*
X144857142Y-143385714D01*
X144714285Y-143385714D01*
X144619047Y-143433333D01*
X144571428Y-143528571D01*
X144571428Y-144052380D01*
X144571428Y-143528571D02*
X144523809Y-143433333D01*
X144428571Y-143385714D01*
X144285714Y-143385714D01*
X144190476Y-143433333D01*
X144142857Y-143528571D01*
X144142857Y-144052380D01*
X142380952Y-144052380D02*
X142952380Y-144052380D01*
X142666666Y-144052380D02*
X142666666Y-143052380D01*
X142761904Y-143195238D01*
X142857142Y-143290476D01*
X142952380Y-143338095D01*
X114092976Y-111652380D02*
X114426309Y-111176190D01*
X114664404Y-111652380D02*
X114664404Y-110652380D01*
X114283452Y-110652380D01*
X114188214Y-110700000D01*
X114140595Y-110747619D01*
X114092976Y-110842857D01*
X114092976Y-110985714D01*
X114140595Y-111080952D01*
X114188214Y-111128571D01*
X114283452Y-111176190D01*
X114664404Y-111176190D01*
X113283452Y-111604761D02*
X113378690Y-111652380D01*
X113569166Y-111652380D01*
X113664404Y-111604761D01*
X113712023Y-111509523D01*
X113712023Y-111128571D01*
X113664404Y-111033333D01*
X113569166Y-110985714D01*
X113378690Y-110985714D01*
X113283452Y-111033333D01*
X113235833Y-111128571D01*
X113235833Y-111223809D01*
X113712023Y-111319047D01*
X112854880Y-111604761D02*
X112759642Y-111652380D01*
X112569166Y-111652380D01*
X112473928Y-111604761D01*
X112426309Y-111509523D01*
X112426309Y-111461904D01*
X112473928Y-111366666D01*
X112569166Y-111319047D01*
X112712023Y-111319047D01*
X112807261Y-111271428D01*
X112854880Y-111176190D01*
X112854880Y-111128571D01*
X112807261Y-111033333D01*
X112712023Y-110985714D01*
X112569166Y-110985714D01*
X112473928Y-111033333D01*
X111616785Y-111604761D02*
X111712023Y-111652380D01*
X111902500Y-111652380D01*
X111997738Y-111604761D01*
X112045357Y-111509523D01*
X112045357Y-111128571D01*
X111997738Y-111033333D01*
X111902500Y-110985714D01*
X111712023Y-110985714D01*
X111616785Y-111033333D01*
X111569166Y-111128571D01*
X111569166Y-111223809D01*
X112045357Y-111319047D01*
X111283452Y-110985714D02*
X110902500Y-110985714D01*
X111140595Y-110652380D02*
X111140595Y-111509523D01*
X111092976Y-111604761D01*
X110997738Y-111652380D01*
X110902500Y-111652380D01*
X147892976Y-111557142D02*
X147940595Y-111604761D01*
X148083452Y-111652380D01*
X148178690Y-111652380D01*
X148321547Y-111604761D01*
X148416785Y-111509523D01*
X148464404Y-111414285D01*
X148512023Y-111223809D01*
X148512023Y-111080952D01*
X148464404Y-110890476D01*
X148416785Y-110795238D01*
X148321547Y-110700000D01*
X148178690Y-110652380D01*
X148083452Y-110652380D01*
X147940595Y-110700000D01*
X147892976Y-110747619D01*
X147035833Y-111652380D02*
X147035833Y-111128571D01*
X147083452Y-111033333D01*
X147178690Y-110985714D01*
X147369166Y-110985714D01*
X147464404Y-111033333D01*
X147035833Y-111604761D02*
X147131071Y-111652380D01*
X147369166Y-111652380D01*
X147464404Y-111604761D01*
X147512023Y-111509523D01*
X147512023Y-111414285D01*
X147464404Y-111319047D01*
X147369166Y-111271428D01*
X147131071Y-111271428D01*
X147035833Y-111223809D01*
X146416785Y-111652380D02*
X146512023Y-111604761D01*
X146559642Y-111509523D01*
X146559642Y-110652380D01*
X146035833Y-111652380D02*
X146035833Y-110985714D01*
X146035833Y-110652380D02*
X146083452Y-110700000D01*
X146035833Y-110747619D01*
X145988214Y-110700000D01*
X146035833Y-110652380D01*
X146035833Y-110747619D01*
X145559642Y-111652380D02*
X145559642Y-110652380D01*
X145559642Y-111033333D02*
X145464404Y-110985714D01*
X145273928Y-110985714D01*
X145178690Y-111033333D01*
X145131071Y-111080952D01*
X145083452Y-111176190D01*
X145083452Y-111461904D01*
X145131071Y-111557142D01*
X145178690Y-111604761D01*
X145273928Y-111652380D01*
X145464404Y-111652380D01*
X145559642Y-111604761D01*
D12*
X149500000Y-109000000D02*
X145000000Y-109000000D01*
X150750000Y-105000000D02*
X150750000Y-106500000D01*
X145000000Y-102500000D02*
X149500000Y-102500000D01*
X143750000Y-106500000D02*
X143750000Y-105000000D01*
X116762432Y-123828018D02*
G75*
G03X111238000Y-123827000I-2762432J-1171982D01*
G01*
X111702247Y-126928295D02*
G75*
G03X116298000Y-126928000I2297753J1928295D01*
G01*
X118961000Y-131560000D02*
X118961000Y-127694000D01*
X118961000Y-123305000D02*
X118961000Y-119440000D01*
X109040000Y-131560000D02*
X109040000Y-127694000D01*
X109040000Y-123305000D02*
X109040000Y-119440000D01*
X118961000Y-131560000D02*
X117325000Y-131560000D01*
X115675000Y-131560000D02*
X114825000Y-131560000D01*
X113175000Y-131560000D02*
X112325000Y-131560000D01*
X110675000Y-131560000D02*
X109040000Y-131560000D01*
X118961000Y-119440000D02*
X109040000Y-119440000D01*
X134961000Y-99940000D02*
X125040000Y-99940000D01*
X126675000Y-112060000D02*
X125040000Y-112060000D01*
X129175000Y-112060000D02*
X128325000Y-112060000D01*
X131675000Y-112060000D02*
X130825000Y-112060000D01*
X134961000Y-112060000D02*
X133325000Y-112060000D01*
X125040000Y-103805000D02*
X125040000Y-99940000D01*
X125040000Y-112060000D02*
X125040000Y-108194000D01*
X134961000Y-103805000D02*
X134961000Y-99940000D01*
X134961000Y-112060000D02*
X134961000Y-108194000D01*
X127702247Y-107428295D02*
G75*
G03X132298000Y-107428000I2297753J1928295D01*
G01*
X132762432Y-104328018D02*
G75*
G03X127238000Y-104327000I-2762432J-1171982D01*
G01*
X150961000Y-119440000D02*
X141040000Y-119440000D01*
X142675000Y-131560000D02*
X141040000Y-131560000D01*
X145175000Y-131560000D02*
X144325000Y-131560000D01*
X147675000Y-131560000D02*
X146825000Y-131560000D01*
X150961000Y-131560000D02*
X149325000Y-131560000D01*
X141040000Y-123305000D02*
X141040000Y-119440000D01*
X141040000Y-131560000D02*
X141040000Y-127694000D01*
X150961000Y-123305000D02*
X150961000Y-119440000D01*
X150961000Y-131560000D02*
X150961000Y-127694000D01*
X143702247Y-126928295D02*
G75*
G03X148298000Y-126928000I2297753J1928295D01*
G01*
X148762432Y-123828018D02*
G75*
G03X143238000Y-123827000I-2762432J-1171982D01*
G01*
X150961000Y-59440000D02*
X141040000Y-59440000D01*
X142675000Y-71560000D02*
X141040000Y-71560000D01*
X145175000Y-71560000D02*
X144325000Y-71560000D01*
X147675000Y-71560000D02*
X146825000Y-71560000D01*
X150961000Y-71560000D02*
X149325000Y-71560000D01*
X141040000Y-63305000D02*
X141040000Y-59440000D01*
X141040000Y-71560000D02*
X141040000Y-67694000D01*
X150961000Y-63305000D02*
X150961000Y-59440000D01*
X150961000Y-71560000D02*
X150961000Y-67694000D01*
X143702247Y-66928295D02*
G75*
G03X148298000Y-66928000I2297753J1928295D01*
G01*
X148762432Y-63828018D02*
G75*
G03X143238000Y-63827000I-2762432J-1171982D01*
G01*
X116762432Y-63828018D02*
G75*
G03X111238000Y-63827000I-2762432J-1171982D01*
G01*
X111702247Y-66928295D02*
G75*
G03X116298000Y-66928000I2297753J1928295D01*
G01*
X118961000Y-71560000D02*
X118961000Y-67694000D01*
X118961000Y-63305000D02*
X118961000Y-59440000D01*
X109040000Y-71560000D02*
X109040000Y-67694000D01*
X109040000Y-63305000D02*
X109040000Y-59440000D01*
X118961000Y-71560000D02*
X117325000Y-71560000D01*
X115675000Y-71560000D02*
X114825000Y-71560000D01*
X113175000Y-71560000D02*
X112325000Y-71560000D01*
X110675000Y-71560000D02*
X109040000Y-71560000D01*
X118961000Y-59440000D02*
X109040000Y-59440000D01*
X132762432Y-82328018D02*
G75*
G03X127238000Y-82327000I-2762432J-1171982D01*
G01*
X127702247Y-85428295D02*
G75*
G03X132298000Y-85428000I2297753J1928295D01*
G01*
X134961000Y-90060000D02*
X134961000Y-86194000D01*
X134961000Y-81805000D02*
X134961000Y-77940000D01*
X125040000Y-90060000D02*
X125040000Y-86194000D01*
X125040000Y-81805000D02*
X125040000Y-77940000D01*
X134961000Y-90060000D02*
X133325000Y-90060000D01*
X131675000Y-90060000D02*
X130825000Y-90060000D01*
X129175000Y-90060000D02*
X128325000Y-90060000D01*
X126675000Y-90060000D02*
X125040000Y-90060000D01*
X134961000Y-77940000D02*
X125040000Y-77940000D01*
D11*
X139445000Y-154810000D02*
X136905000Y-154810000D01*
X136905000Y-154810000D02*
X136905000Y-155445000D01*
X136905000Y-155445000D02*
X133095000Y-155445000D01*
X133095000Y-155445000D02*
X133095000Y-154810000D01*
X133095000Y-154810000D02*
X130555000Y-154810000D01*
X133095000Y-152905000D02*
G75*
G02X133095000Y-149095000I1905000J1905000D01*
G01*
X136905000Y-149095000D02*
G75*
G02X136905000Y-152905000I-1905000J-1905000D01*
G01*
X133095000Y-152905000D02*
X136905000Y-152905000D01*
X136905000Y-149095000D02*
X133095000Y-149095000D01*
X136796051Y-151000000D02*
G75*
G03X136796051Y-151000000I-1796051J0D01*
G01*
X130500000Y-145000000D02*
X130500000Y-155500000D01*
X139500000Y-145000000D02*
X139500000Y-155500000D01*
X139500000Y-155500000D02*
X130500000Y-155500000D01*
X139500000Y-145000000D02*
X130500000Y-145000000D01*
X136300000Y-151000000D02*
G75*
G03X136300000Y-151000000I-1300000J0D01*
G01*
X146300000Y-151000000D02*
G75*
G03X146300000Y-151000000I-1300000J0D01*
G01*
X149500000Y-145000000D02*
X140500000Y-145000000D01*
X149500000Y-155500000D02*
X140500000Y-155500000D01*
X149500000Y-145000000D02*
X149500000Y-155500000D01*
X140500000Y-145000000D02*
X140500000Y-155500000D01*
X146796051Y-151000000D02*
G75*
G03X146796051Y-151000000I-1796051J0D01*
G01*
X146905000Y-149095000D02*
X143095000Y-149095000D01*
X143095000Y-152905000D02*
X146905000Y-152905000D01*
X146905000Y-149095000D02*
G75*
G02X146905000Y-152905000I-1905000J-1905000D01*
G01*
X143095000Y-152905000D02*
G75*
G02X143095000Y-149095000I1905000J1905000D01*
G01*
X143095000Y-154810000D02*
X140555000Y-154810000D01*
X143095000Y-155445000D02*
X143095000Y-154810000D01*
X146905000Y-155445000D02*
X143095000Y-155445000D01*
X146905000Y-154810000D02*
X146905000Y-155445000D01*
X149445000Y-154810000D02*
X146905000Y-154810000D01*
X119445000Y-154810000D02*
X116905000Y-154810000D01*
X116905000Y-154810000D02*
X116905000Y-155445000D01*
X116905000Y-155445000D02*
X113095000Y-155445000D01*
X113095000Y-155445000D02*
X113095000Y-154810000D01*
X113095000Y-154810000D02*
X110555000Y-154810000D01*
X113095000Y-152905000D02*
G75*
G02X113095000Y-149095000I1905000J1905000D01*
G01*
X116905000Y-149095000D02*
G75*
G02X116905000Y-152905000I-1905000J-1905000D01*
G01*
X113095000Y-152905000D02*
X116905000Y-152905000D01*
X116905000Y-149095000D02*
X113095000Y-149095000D01*
X116796051Y-151000000D02*
G75*
G03X116796051Y-151000000I-1796051J0D01*
G01*
X110500000Y-145000000D02*
X110500000Y-155500000D01*
X119500000Y-145000000D02*
X119500000Y-155500000D01*
X119500000Y-155500000D02*
X110500000Y-155500000D01*
X119500000Y-145000000D02*
X110500000Y-145000000D01*
X116300000Y-151000000D02*
G75*
G03X116300000Y-151000000I-1300000J0D01*
G01*
X126300000Y-151000000D02*
G75*
G03X126300000Y-151000000I-1300000J0D01*
G01*
X129500000Y-145000000D02*
X120500000Y-145000000D01*
X129500000Y-155500000D02*
X120500000Y-155500000D01*
X129500000Y-145000000D02*
X129500000Y-155500000D01*
X120500000Y-145000000D02*
X120500000Y-155500000D01*
X126796051Y-151000000D02*
G75*
G03X126796051Y-151000000I-1796051J0D01*
G01*
X126905000Y-149095000D02*
X123095000Y-149095000D01*
X123095000Y-152905000D02*
X126905000Y-152905000D01*
X126905000Y-149095000D02*
G75*
G02X126905000Y-152905000I-1905000J-1905000D01*
G01*
X123095000Y-152905000D02*
G75*
G02X123095000Y-149095000I1905000J1905000D01*
G01*
X123095000Y-154810000D02*
X120555000Y-154810000D01*
X123095000Y-155445000D02*
X123095000Y-154810000D01*
X126905000Y-155445000D02*
X123095000Y-155445000D01*
X126905000Y-154810000D02*
X126905000Y-155445000D01*
X129445000Y-154810000D02*
X126905000Y-154810000D01*
X159445000Y-154810000D02*
X156905000Y-154810000D01*
X156905000Y-154810000D02*
X156905000Y-155445000D01*
X156905000Y-155445000D02*
X153095000Y-155445000D01*
X153095000Y-155445000D02*
X153095000Y-154810000D01*
X153095000Y-154810000D02*
X150555000Y-154810000D01*
X153095000Y-152905000D02*
G75*
G02X153095000Y-149095000I1905000J1905000D01*
G01*
X156905000Y-149095000D02*
G75*
G02X156905000Y-152905000I-1905000J-1905000D01*
G01*
X153095000Y-152905000D02*
X156905000Y-152905000D01*
X156905000Y-149095000D02*
X153095000Y-149095000D01*
X156796051Y-151000000D02*
G75*
G03X156796051Y-151000000I-1796051J0D01*
G01*
X150500000Y-145000000D02*
X150500000Y-155500000D01*
X159500000Y-145000000D02*
X159500000Y-155500000D01*
X159500000Y-155500000D02*
X150500000Y-155500000D01*
X159500000Y-145000000D02*
X150500000Y-145000000D01*
X156300000Y-151000000D02*
G75*
G03X156300000Y-151000000I-1300000J0D01*
G01*
X106300000Y-151000000D02*
G75*
G03X106300000Y-151000000I-1300000J0D01*
G01*
X109500000Y-145000000D02*
X100500000Y-145000000D01*
X109500000Y-155500000D02*
X100500000Y-155500000D01*
X109500000Y-145000000D02*
X109500000Y-155500000D01*
X100500000Y-145000000D02*
X100500000Y-155500000D01*
X106796051Y-151000000D02*
G75*
G03X106796051Y-151000000I-1796051J0D01*
G01*
X106905000Y-149095000D02*
X103095000Y-149095000D01*
X103095000Y-152905000D02*
X106905000Y-152905000D01*
X106905000Y-149095000D02*
G75*
G02X106905000Y-152905000I-1905000J-1905000D01*
G01*
X103095000Y-152905000D02*
G75*
G02X103095000Y-149095000I1905000J1905000D01*
G01*
X103095000Y-154810000D02*
X100555000Y-154810000D01*
X103095000Y-155445000D02*
X103095000Y-154810000D01*
X106905000Y-155445000D02*
X103095000Y-155445000D01*
X106905000Y-154810000D02*
X106905000Y-155445000D01*
X109445000Y-154810000D02*
X106905000Y-154810000D01*
D12*
X109250000Y-106500000D02*
X109250000Y-105000000D01*
X110500000Y-102500000D02*
X115000000Y-102500000D01*
X116250000Y-105000000D02*
X116250000Y-106500000D01*
X115000000Y-109000000D02*
X110500000Y-109000000D01*
D11*
X114181000Y-89063400D02*
X114181000Y-80896000D01*
X108819000Y-89038000D02*
X108819000Y-86838000D01*
X108819000Y-83246000D02*
X108819000Y-80946000D01*
X145819000Y-83246000D02*
X145819000Y-80946000D01*
X145819000Y-89038000D02*
X145819000Y-86838000D01*
X151181000Y-89063400D02*
X151181000Y-80896000D01*
X115920952Y-135397142D02*
X115968571Y-135444761D01*
X116111428Y-135492380D01*
X116206666Y-135492380D01*
X116349523Y-135444761D01*
X116444761Y-135349523D01*
X116492380Y-135254285D01*
X116540000Y-135063809D01*
X116540000Y-134920952D01*
X116492380Y-134730476D01*
X116444761Y-134635238D01*
X116349523Y-134540000D01*
X116206666Y-134492380D01*
X116111428Y-134492380D01*
X115968571Y-134540000D01*
X115920952Y-134587619D01*
X115635238Y-134492380D02*
X115063809Y-134492380D01*
X115349523Y-135492380D02*
X115349523Y-134492380D01*
X114301904Y-134825714D02*
X114301904Y-135492380D01*
X114730476Y-134825714D02*
X114730476Y-135349523D01*
X114682857Y-135444761D01*
X114587619Y-135492380D01*
X114444761Y-135492380D01*
X114349523Y-135444761D01*
X114301904Y-135397142D01*
X113825714Y-134825714D02*
X113825714Y-135492380D01*
X113825714Y-134920952D02*
X113778095Y-134873333D01*
X113682857Y-134825714D01*
X113540000Y-134825714D01*
X113444761Y-134873333D01*
X113397142Y-134968571D01*
X113397142Y-135492380D01*
X112540000Y-135444761D02*
X112635238Y-135492380D01*
X112825714Y-135492380D01*
X112920952Y-135444761D01*
X112968571Y-135349523D01*
X112968571Y-134968571D01*
X112920952Y-134873333D01*
X112825714Y-134825714D01*
X112635238Y-134825714D01*
X112540000Y-134873333D01*
X112492380Y-134968571D01*
X112492380Y-135063809D01*
X112968571Y-135159047D01*
X111540000Y-135492380D02*
X112111428Y-135492380D01*
X111825714Y-135492380D02*
X111825714Y-134492380D01*
X111920952Y-134635238D01*
X112016190Y-134730476D01*
X112111428Y-134778095D01*
X132159047Y-114992380D02*
X131920952Y-115992380D01*
X131730476Y-115278095D01*
X131540000Y-115992380D01*
X131301904Y-114992380D01*
X130492380Y-115992380D02*
X130492380Y-115468571D01*
X130540000Y-115373333D01*
X130635238Y-115325714D01*
X130825714Y-115325714D01*
X130920952Y-115373333D01*
X130492380Y-115944761D02*
X130587619Y-115992380D01*
X130825714Y-115992380D01*
X130920952Y-115944761D01*
X130968571Y-115849523D01*
X130968571Y-115754285D01*
X130920952Y-115659047D01*
X130825714Y-115611428D01*
X130587619Y-115611428D01*
X130492380Y-115563809D01*
X130016190Y-115992380D02*
X130016190Y-115325714D01*
X130016190Y-115516190D02*
X129968571Y-115420952D01*
X129920952Y-115373333D01*
X129825714Y-115325714D01*
X129730476Y-115325714D01*
X129397142Y-115325714D02*
X129397142Y-116325714D01*
X129397142Y-115373333D02*
X129301904Y-115325714D01*
X129111428Y-115325714D01*
X129016190Y-115373333D01*
X128968571Y-115420952D01*
X128920952Y-115516190D01*
X128920952Y-115801904D01*
X128968571Y-115897142D01*
X129016190Y-115944761D01*
X129111428Y-115992380D01*
X129301904Y-115992380D01*
X129397142Y-115944761D01*
X127968571Y-115992380D02*
X128540000Y-115992380D01*
X128254285Y-115992380D02*
X128254285Y-114992380D01*
X128349523Y-115135238D01*
X128444761Y-115230476D01*
X128540000Y-115278095D01*
X148087619Y-134968571D02*
X148420952Y-134968571D01*
X148420952Y-135492380D02*
X148420952Y-134492380D01*
X147944761Y-134492380D01*
X147706666Y-134492380D02*
X147135238Y-134492380D01*
X147420952Y-135492380D02*
X147420952Y-134492380D01*
X146373333Y-134825714D02*
X146373333Y-135492380D01*
X146801904Y-134825714D02*
X146801904Y-135349523D01*
X146754285Y-135444761D01*
X146659047Y-135492380D01*
X146516190Y-135492380D01*
X146420952Y-135444761D01*
X146373333Y-135397142D01*
X145897142Y-134825714D02*
X145897142Y-135492380D01*
X145897142Y-134920952D02*
X145849523Y-134873333D01*
X145754285Y-134825714D01*
X145611428Y-134825714D01*
X145516190Y-134873333D01*
X145468571Y-134968571D01*
X145468571Y-135492380D01*
X144611428Y-135444761D02*
X144706666Y-135492380D01*
X144897142Y-135492380D01*
X144992380Y-135444761D01*
X145040000Y-135349523D01*
X145040000Y-134968571D01*
X144992380Y-134873333D01*
X144897142Y-134825714D01*
X144706666Y-134825714D01*
X144611428Y-134873333D01*
X144563809Y-134968571D01*
X144563809Y-135063809D01*
X145040000Y-135159047D01*
X143611428Y-135492380D02*
X144182857Y-135492380D01*
X143897142Y-135492380D02*
X143897142Y-134492380D01*
X143992380Y-134635238D01*
X144087619Y-134730476D01*
X144182857Y-134778095D01*
X148230476Y-75492380D02*
X148230476Y-74492380D01*
X148230476Y-74968571D02*
X147659047Y-74968571D01*
X147659047Y-75492380D02*
X147659047Y-74492380D01*
X146754285Y-75492380D02*
X146754285Y-74968571D01*
X146801904Y-74873333D01*
X146897142Y-74825714D01*
X147087619Y-74825714D01*
X147182857Y-74873333D01*
X146754285Y-75444761D02*
X146849523Y-75492380D01*
X147087619Y-75492380D01*
X147182857Y-75444761D01*
X147230476Y-75349523D01*
X147230476Y-75254285D01*
X147182857Y-75159047D01*
X147087619Y-75111428D01*
X146849523Y-75111428D01*
X146754285Y-75063809D01*
X146278095Y-75492380D02*
X146278095Y-74825714D01*
X146278095Y-75016190D02*
X146230476Y-74920952D01*
X146182857Y-74873333D01*
X146087619Y-74825714D01*
X145992380Y-74825714D01*
X145659047Y-75492380D02*
X145659047Y-74825714D01*
X145659047Y-74920952D02*
X145611428Y-74873333D01*
X145516190Y-74825714D01*
X145373333Y-74825714D01*
X145278095Y-74873333D01*
X145230476Y-74968571D01*
X145230476Y-75492380D01*
X145230476Y-74968571D02*
X145182857Y-74873333D01*
X145087619Y-74825714D01*
X144944761Y-74825714D01*
X144849523Y-74873333D01*
X144801904Y-74968571D01*
X144801904Y-75492380D01*
X143801904Y-75492380D02*
X144373333Y-75492380D01*
X144087619Y-75492380D02*
X144087619Y-74492380D01*
X144182857Y-74635238D01*
X144278095Y-74730476D01*
X144373333Y-74778095D01*
X116230476Y-75492380D02*
X116230476Y-74492380D01*
X116230476Y-74968571D02*
X115659047Y-74968571D01*
X115659047Y-75492380D02*
X115659047Y-74492380D01*
X114754285Y-75492380D02*
X114754285Y-74968571D01*
X114801904Y-74873333D01*
X114897142Y-74825714D01*
X115087619Y-74825714D01*
X115182857Y-74873333D01*
X114754285Y-75444761D02*
X114849523Y-75492380D01*
X115087619Y-75492380D01*
X115182857Y-75444761D01*
X115230476Y-75349523D01*
X115230476Y-75254285D01*
X115182857Y-75159047D01*
X115087619Y-75111428D01*
X114849523Y-75111428D01*
X114754285Y-75063809D01*
X114278095Y-75492380D02*
X114278095Y-74825714D01*
X114278095Y-75016190D02*
X114230476Y-74920952D01*
X114182857Y-74873333D01*
X114087619Y-74825714D01*
X113992380Y-74825714D01*
X113659047Y-75492380D02*
X113659047Y-74825714D01*
X113659047Y-74920952D02*
X113611428Y-74873333D01*
X113516190Y-74825714D01*
X113373333Y-74825714D01*
X113278095Y-74873333D01*
X113230476Y-74968571D01*
X113230476Y-75492380D01*
X113230476Y-74968571D02*
X113182857Y-74873333D01*
X113087619Y-74825714D01*
X112944761Y-74825714D01*
X112849523Y-74873333D01*
X112801904Y-74968571D01*
X112801904Y-75492380D01*
X112373333Y-74587619D02*
X112325714Y-74540000D01*
X112230476Y-74492380D01*
X111992380Y-74492380D01*
X111897142Y-74540000D01*
X111849523Y-74587619D01*
X111801904Y-74682857D01*
X111801904Y-74778095D01*
X111849523Y-74920952D01*
X112420952Y-75492380D01*
X111801904Y-75492380D01*
X134373333Y-93992380D02*
X134373333Y-92992380D01*
X134373333Y-93468571D02*
X133801904Y-93468571D01*
X133801904Y-93992380D02*
X133801904Y-92992380D01*
X132897142Y-93992380D02*
X132897142Y-93468571D01*
X132944761Y-93373333D01*
X133040000Y-93325714D01*
X133230476Y-93325714D01*
X133325714Y-93373333D01*
X132897142Y-93944761D02*
X132992380Y-93992380D01*
X133230476Y-93992380D01*
X133325714Y-93944761D01*
X133373333Y-93849523D01*
X133373333Y-93754285D01*
X133325714Y-93659047D01*
X133230476Y-93611428D01*
X132992380Y-93611428D01*
X132897142Y-93563809D01*
X132420952Y-93992380D02*
X132420952Y-93325714D01*
X132420952Y-93516190D02*
X132373333Y-93420952D01*
X132325714Y-93373333D01*
X132230476Y-93325714D01*
X132135238Y-93325714D01*
X131801904Y-93992380D02*
X131801904Y-93325714D01*
X131801904Y-93420952D02*
X131754285Y-93373333D01*
X131659047Y-93325714D01*
X131516190Y-93325714D01*
X131420952Y-93373333D01*
X131373333Y-93468571D01*
X131373333Y-93992380D01*
X131373333Y-93468571D02*
X131325714Y-93373333D01*
X131230476Y-93325714D01*
X131087619Y-93325714D01*
X130992380Y-93373333D01*
X130944761Y-93468571D01*
X130944761Y-93992380D01*
X129897142Y-93897142D02*
X129944761Y-93944761D01*
X130087619Y-93992380D01*
X130182857Y-93992380D01*
X130325714Y-93944761D01*
X130420952Y-93849523D01*
X130468571Y-93754285D01*
X130516190Y-93563809D01*
X130516190Y-93420952D01*
X130468571Y-93230476D01*
X130420952Y-93135238D01*
X130325714Y-93040000D01*
X130182857Y-92992380D01*
X130087619Y-92992380D01*
X129944761Y-93040000D01*
X129897142Y-93087619D01*
X129325714Y-93992380D02*
X129420952Y-93944761D01*
X129468571Y-93897142D01*
X129516190Y-93801904D01*
X129516190Y-93516190D01*
X129468571Y-93420952D01*
X129420952Y-93373333D01*
X129325714Y-93325714D01*
X129182857Y-93325714D01*
X129087619Y-93373333D01*
X129040000Y-93420952D01*
X128992380Y-93516190D01*
X128992380Y-93801904D01*
X129040000Y-93897142D01*
X129087619Y-93944761D01*
X129182857Y-93992380D01*
X129325714Y-93992380D01*
X128135238Y-93325714D02*
X128135238Y-93992380D01*
X128563809Y-93325714D02*
X128563809Y-93849523D01*
X128516190Y-93944761D01*
X128420952Y-93992380D01*
X128278095Y-93992380D01*
X128182857Y-93944761D01*
X128135238Y-93897142D01*
X127659047Y-93325714D02*
X127659047Y-93992380D01*
X127659047Y-93420952D02*
X127611428Y-93373333D01*
X127516190Y-93325714D01*
X127373333Y-93325714D01*
X127278095Y-93373333D01*
X127230476Y-93468571D01*
X127230476Y-93992380D01*
X126897142Y-93325714D02*
X126516190Y-93325714D01*
X126754285Y-92992380D02*
X126754285Y-93849523D01*
X126706666Y-93944761D01*
X126611428Y-93992380D01*
X126516190Y-93992380D01*
X125659047Y-93992380D02*
X126230476Y-93992380D01*
X125944761Y-93992380D02*
X125944761Y-92992380D01*
X126040000Y-93135238D01*
X126135238Y-93230476D01*
X126230476Y-93278095D01*
M02*
