G04 #@! TF.GenerationSoftware,KiCad,Pcbnew,(5.1.5)-3*
G04 #@! TF.CreationDate,2020-05-14T10:55:58+01:00*
G04 #@! TF.ProjectId,AddaTone Controls,41646461-546f-46e6-9520-436f6e74726f,rev?*
G04 #@! TF.SameCoordinates,Original*
G04 #@! TF.FileFunction,Soldermask,Top*
G04 #@! TF.FilePolarity,Negative*
%FSLAX46Y46*%
G04 Gerber Fmt 4.6, Leading zero omitted, Abs format (unit mm)*
G04 Created by KiCad (PCBNEW (5.1.5)-3) date 2020-05-14 10:55:58*
%MOMM*%
%LPD*%
G04 APERTURE LIST*
%ADD10C,0.100000*%
G04 APERTURE END LIST*
D10*
G36*
X106250000Y-157980000D02*
G01*
X103750000Y-157980000D01*
X103750000Y-156980000D01*
X106250000Y-156980000D01*
X106250000Y-157980000D01*
G37*
G36*
X146250000Y-157980000D02*
G01*
X143750000Y-157980000D01*
X143750000Y-156980000D01*
X146250000Y-156980000D01*
X146250000Y-157980000D01*
G37*
G36*
X136250000Y-157980000D02*
G01*
X133750000Y-157980000D01*
X133750000Y-156980000D01*
X136250000Y-156980000D01*
X136250000Y-157980000D01*
G37*
G36*
X116250000Y-157980000D02*
G01*
X113750000Y-157980000D01*
X113750000Y-156980000D01*
X116250000Y-156980000D01*
X116250000Y-157980000D01*
G37*
G36*
X156250000Y-157980000D02*
G01*
X153750000Y-157980000D01*
X153750000Y-156980000D01*
X156250000Y-156980000D01*
X156250000Y-157980000D01*
G37*
G36*
X126250000Y-157980000D02*
G01*
X123750000Y-157980000D01*
X123750000Y-156980000D01*
X126250000Y-156980000D01*
X126250000Y-157980000D01*
G37*
G36*
X146250000Y-154880000D02*
G01*
X143750000Y-154880000D01*
X143750000Y-153880000D01*
X146250000Y-153880000D01*
X146250000Y-154880000D01*
G37*
G36*
X106250000Y-154880000D02*
G01*
X103750000Y-154880000D01*
X103750000Y-153880000D01*
X106250000Y-153880000D01*
X106250000Y-154880000D01*
G37*
G36*
X156250000Y-154880000D02*
G01*
X153750000Y-154880000D01*
X153750000Y-153880000D01*
X156250000Y-153880000D01*
X156250000Y-154880000D01*
G37*
G36*
X126250000Y-154880000D02*
G01*
X123750000Y-154880000D01*
X123750000Y-153880000D01*
X126250000Y-153880000D01*
X126250000Y-154880000D01*
G37*
G36*
X116250000Y-154880000D02*
G01*
X113750000Y-154880000D01*
X113750000Y-153880000D01*
X116250000Y-153880000D01*
X116250000Y-154880000D01*
G37*
G36*
X136250000Y-154880000D02*
G01*
X133750000Y-154880000D01*
X133750000Y-153880000D01*
X136250000Y-153880000D01*
X136250000Y-154880000D01*
G37*
G36*
X135364610Y-149798036D02*
G01*
X135592095Y-149892264D01*
X135592097Y-149892265D01*
X135796828Y-150029062D01*
X135970938Y-150203172D01*
X136107736Y-150407905D01*
X136201964Y-150635390D01*
X136250000Y-150876884D01*
X136250000Y-151123116D01*
X136201964Y-151364610D01*
X136107736Y-151592095D01*
X136107735Y-151592097D01*
X135970938Y-151796828D01*
X135796828Y-151970938D01*
X135592097Y-152107735D01*
X135592096Y-152107736D01*
X135592095Y-152107736D01*
X135364610Y-152201964D01*
X135123116Y-152250000D01*
X134876884Y-152250000D01*
X134635390Y-152201964D01*
X134407905Y-152107736D01*
X134407904Y-152107736D01*
X134407903Y-152107735D01*
X134203172Y-151970938D01*
X134029062Y-151796828D01*
X133892265Y-151592097D01*
X133892264Y-151592095D01*
X133798036Y-151364610D01*
X133750000Y-151123116D01*
X133750000Y-150876884D01*
X133798036Y-150635390D01*
X133892264Y-150407905D01*
X134029062Y-150203172D01*
X134203172Y-150029062D01*
X134407903Y-149892265D01*
X134407905Y-149892264D01*
X134635390Y-149798036D01*
X134876884Y-149750000D01*
X135123116Y-149750000D01*
X135364610Y-149798036D01*
G37*
G36*
X125364610Y-149798036D02*
G01*
X125592095Y-149892264D01*
X125592097Y-149892265D01*
X125796828Y-150029062D01*
X125970938Y-150203172D01*
X126107736Y-150407905D01*
X126201964Y-150635390D01*
X126250000Y-150876884D01*
X126250000Y-151123116D01*
X126201964Y-151364610D01*
X126107736Y-151592095D01*
X126107735Y-151592097D01*
X125970938Y-151796828D01*
X125796828Y-151970938D01*
X125592097Y-152107735D01*
X125592096Y-152107736D01*
X125592095Y-152107736D01*
X125364610Y-152201964D01*
X125123116Y-152250000D01*
X124876884Y-152250000D01*
X124635390Y-152201964D01*
X124407905Y-152107736D01*
X124407904Y-152107736D01*
X124407903Y-152107735D01*
X124203172Y-151970938D01*
X124029062Y-151796828D01*
X123892265Y-151592097D01*
X123892264Y-151592095D01*
X123798036Y-151364610D01*
X123750000Y-151123116D01*
X123750000Y-150876884D01*
X123798036Y-150635390D01*
X123892264Y-150407905D01*
X124029062Y-150203172D01*
X124203172Y-150029062D01*
X124407903Y-149892265D01*
X124407905Y-149892264D01*
X124635390Y-149798036D01*
X124876884Y-149750000D01*
X125123116Y-149750000D01*
X125364610Y-149798036D01*
G37*
G36*
X145364610Y-149798036D02*
G01*
X145592095Y-149892264D01*
X145592097Y-149892265D01*
X145796828Y-150029062D01*
X145970938Y-150203172D01*
X146107736Y-150407905D01*
X146201964Y-150635390D01*
X146250000Y-150876884D01*
X146250000Y-151123116D01*
X146201964Y-151364610D01*
X146107736Y-151592095D01*
X146107735Y-151592097D01*
X145970938Y-151796828D01*
X145796828Y-151970938D01*
X145592097Y-152107735D01*
X145592096Y-152107736D01*
X145592095Y-152107736D01*
X145364610Y-152201964D01*
X145123116Y-152250000D01*
X144876884Y-152250000D01*
X144635390Y-152201964D01*
X144407905Y-152107736D01*
X144407904Y-152107736D01*
X144407903Y-152107735D01*
X144203172Y-151970938D01*
X144029062Y-151796828D01*
X143892265Y-151592097D01*
X143892264Y-151592095D01*
X143798036Y-151364610D01*
X143750000Y-151123116D01*
X143750000Y-150876884D01*
X143798036Y-150635390D01*
X143892264Y-150407905D01*
X144029062Y-150203172D01*
X144203172Y-150029062D01*
X144407903Y-149892265D01*
X144407905Y-149892264D01*
X144635390Y-149798036D01*
X144876884Y-149750000D01*
X145123116Y-149750000D01*
X145364610Y-149798036D01*
G37*
G36*
X155364610Y-149798036D02*
G01*
X155592095Y-149892264D01*
X155592097Y-149892265D01*
X155796828Y-150029062D01*
X155970938Y-150203172D01*
X156107736Y-150407905D01*
X156201964Y-150635390D01*
X156250000Y-150876884D01*
X156250000Y-151123116D01*
X156201964Y-151364610D01*
X156107736Y-151592095D01*
X156107735Y-151592097D01*
X155970938Y-151796828D01*
X155796828Y-151970938D01*
X155592097Y-152107735D01*
X155592096Y-152107736D01*
X155592095Y-152107736D01*
X155364610Y-152201964D01*
X155123116Y-152250000D01*
X154876884Y-152250000D01*
X154635390Y-152201964D01*
X154407905Y-152107736D01*
X154407904Y-152107736D01*
X154407903Y-152107735D01*
X154203172Y-151970938D01*
X154029062Y-151796828D01*
X153892265Y-151592097D01*
X153892264Y-151592095D01*
X153798036Y-151364610D01*
X153750000Y-151123116D01*
X153750000Y-150876884D01*
X153798036Y-150635390D01*
X153892264Y-150407905D01*
X154029062Y-150203172D01*
X154203172Y-150029062D01*
X154407903Y-149892265D01*
X154407905Y-149892264D01*
X154635390Y-149798036D01*
X154876884Y-149750000D01*
X155123116Y-149750000D01*
X155364610Y-149798036D01*
G37*
G36*
X105364610Y-149798036D02*
G01*
X105592095Y-149892264D01*
X105592097Y-149892265D01*
X105796828Y-150029062D01*
X105970938Y-150203172D01*
X106107736Y-150407905D01*
X106201964Y-150635390D01*
X106250000Y-150876884D01*
X106250000Y-151123116D01*
X106201964Y-151364610D01*
X106107736Y-151592095D01*
X106107735Y-151592097D01*
X105970938Y-151796828D01*
X105796828Y-151970938D01*
X105592097Y-152107735D01*
X105592096Y-152107736D01*
X105592095Y-152107736D01*
X105364610Y-152201964D01*
X105123116Y-152250000D01*
X104876884Y-152250000D01*
X104635390Y-152201964D01*
X104407905Y-152107736D01*
X104407904Y-152107736D01*
X104407903Y-152107735D01*
X104203172Y-151970938D01*
X104029062Y-151796828D01*
X103892265Y-151592097D01*
X103892264Y-151592095D01*
X103798036Y-151364610D01*
X103750000Y-151123116D01*
X103750000Y-150876884D01*
X103798036Y-150635390D01*
X103892264Y-150407905D01*
X104029062Y-150203172D01*
X104203172Y-150029062D01*
X104407903Y-149892265D01*
X104407905Y-149892264D01*
X104635390Y-149798036D01*
X104876884Y-149750000D01*
X105123116Y-149750000D01*
X105364610Y-149798036D01*
G37*
G36*
X115364610Y-149798036D02*
G01*
X115592095Y-149892264D01*
X115592097Y-149892265D01*
X115796828Y-150029062D01*
X115970938Y-150203172D01*
X116107736Y-150407905D01*
X116201964Y-150635390D01*
X116250000Y-150876884D01*
X116250000Y-151123116D01*
X116201964Y-151364610D01*
X116107736Y-151592095D01*
X116107735Y-151592097D01*
X115970938Y-151796828D01*
X115796828Y-151970938D01*
X115592097Y-152107735D01*
X115592096Y-152107736D01*
X115592095Y-152107736D01*
X115364610Y-152201964D01*
X115123116Y-152250000D01*
X114876884Y-152250000D01*
X114635390Y-152201964D01*
X114407905Y-152107736D01*
X114407904Y-152107736D01*
X114407903Y-152107735D01*
X114203172Y-151970938D01*
X114029062Y-151796828D01*
X113892265Y-151592097D01*
X113892264Y-151592095D01*
X113798036Y-151364610D01*
X113750000Y-151123116D01*
X113750000Y-150876884D01*
X113798036Y-150635390D01*
X113892264Y-150407905D01*
X114029062Y-150203172D01*
X114203172Y-150029062D01*
X114407903Y-149892265D01*
X114407905Y-149892264D01*
X114635390Y-149798036D01*
X114876884Y-149750000D01*
X115123116Y-149750000D01*
X115364610Y-149798036D01*
G37*
G36*
X126250000Y-146580000D02*
G01*
X123750000Y-146580000D01*
X123750000Y-145580000D01*
X126250000Y-145580000D01*
X126250000Y-146580000D01*
G37*
G36*
X156250000Y-146580000D02*
G01*
X153750000Y-146580000D01*
X153750000Y-145580000D01*
X156250000Y-145580000D01*
X156250000Y-146580000D01*
G37*
G36*
X116250000Y-146580000D02*
G01*
X113750000Y-146580000D01*
X113750000Y-145580000D01*
X116250000Y-145580000D01*
X116250000Y-146580000D01*
G37*
G36*
X146250000Y-146580000D02*
G01*
X143750000Y-146580000D01*
X143750000Y-145580000D01*
X146250000Y-145580000D01*
X146250000Y-146580000D01*
G37*
G36*
X106250000Y-146580000D02*
G01*
X103750000Y-146580000D01*
X103750000Y-145580000D01*
X106250000Y-145580000D01*
X106250000Y-146580000D01*
G37*
G36*
X136250000Y-146580000D02*
G01*
X133750000Y-146580000D01*
X133750000Y-145580000D01*
X136250000Y-145580000D01*
X136250000Y-146580000D01*
G37*
G36*
X143762520Y-131634586D02*
G01*
X143926310Y-131702430D01*
X144073717Y-131800924D01*
X144199076Y-131926283D01*
X144297570Y-132073690D01*
X144365414Y-132237480D01*
X144400000Y-132411358D01*
X144400000Y-132588642D01*
X144365414Y-132762520D01*
X144297570Y-132926310D01*
X144199076Y-133073717D01*
X144073717Y-133199076D01*
X143926310Y-133297570D01*
X143926309Y-133297571D01*
X143926308Y-133297571D01*
X143762520Y-133365414D01*
X143588644Y-133400000D01*
X143411356Y-133400000D01*
X143237480Y-133365414D01*
X143073692Y-133297571D01*
X143073691Y-133297571D01*
X143073690Y-133297570D01*
X142926283Y-133199076D01*
X142800924Y-133073717D01*
X142702430Y-132926310D01*
X142634586Y-132762520D01*
X142600000Y-132588642D01*
X142600000Y-132411358D01*
X142634586Y-132237480D01*
X142702430Y-132073690D01*
X142800924Y-131926283D01*
X142926283Y-131800924D01*
X143073690Y-131702430D01*
X143237480Y-131634586D01*
X143411356Y-131600000D01*
X143588644Y-131600000D01*
X143762520Y-131634586D01*
G37*
G36*
X148762520Y-131634586D02*
G01*
X148926310Y-131702430D01*
X149073717Y-131800924D01*
X149199076Y-131926283D01*
X149297570Y-132073690D01*
X149365414Y-132237480D01*
X149400000Y-132411358D01*
X149400000Y-132588642D01*
X149365414Y-132762520D01*
X149297570Y-132926310D01*
X149199076Y-133073717D01*
X149073717Y-133199076D01*
X148926310Y-133297570D01*
X148926309Y-133297571D01*
X148926308Y-133297571D01*
X148762520Y-133365414D01*
X148588644Y-133400000D01*
X148411356Y-133400000D01*
X148237480Y-133365414D01*
X148073692Y-133297571D01*
X148073691Y-133297571D01*
X148073690Y-133297570D01*
X147926283Y-133199076D01*
X147800924Y-133073717D01*
X147702430Y-132926310D01*
X147634586Y-132762520D01*
X147600000Y-132588642D01*
X147600000Y-132411358D01*
X147634586Y-132237480D01*
X147702430Y-132073690D01*
X147800924Y-131926283D01*
X147926283Y-131800924D01*
X148073690Y-131702430D01*
X148237480Y-131634586D01*
X148411356Y-131600000D01*
X148588644Y-131600000D01*
X148762520Y-131634586D01*
G37*
G36*
X111762520Y-131634586D02*
G01*
X111926310Y-131702430D01*
X112073717Y-131800924D01*
X112199076Y-131926283D01*
X112297570Y-132073690D01*
X112365414Y-132237480D01*
X112400000Y-132411358D01*
X112400000Y-132588642D01*
X112365414Y-132762520D01*
X112297570Y-132926310D01*
X112199076Y-133073717D01*
X112073717Y-133199076D01*
X111926310Y-133297570D01*
X111926309Y-133297571D01*
X111926308Y-133297571D01*
X111762520Y-133365414D01*
X111588644Y-133400000D01*
X111411356Y-133400000D01*
X111237480Y-133365414D01*
X111073692Y-133297571D01*
X111073691Y-133297571D01*
X111073690Y-133297570D01*
X110926283Y-133199076D01*
X110800924Y-133073717D01*
X110702430Y-132926310D01*
X110634586Y-132762520D01*
X110600000Y-132588642D01*
X110600000Y-132411358D01*
X110634586Y-132237480D01*
X110702430Y-132073690D01*
X110800924Y-131926283D01*
X110926283Y-131800924D01*
X111073690Y-131702430D01*
X111237480Y-131634586D01*
X111411356Y-131600000D01*
X111588644Y-131600000D01*
X111762520Y-131634586D01*
G37*
G36*
X116762520Y-131634586D02*
G01*
X116926310Y-131702430D01*
X117073717Y-131800924D01*
X117199076Y-131926283D01*
X117297570Y-132073690D01*
X117365414Y-132237480D01*
X117400000Y-132411358D01*
X117400000Y-132588642D01*
X117365414Y-132762520D01*
X117297570Y-132926310D01*
X117199076Y-133073717D01*
X117073717Y-133199076D01*
X116926310Y-133297570D01*
X116926309Y-133297571D01*
X116926308Y-133297571D01*
X116762520Y-133365414D01*
X116588644Y-133400000D01*
X116411356Y-133400000D01*
X116237480Y-133365414D01*
X116073692Y-133297571D01*
X116073691Y-133297571D01*
X116073690Y-133297570D01*
X115926283Y-133199076D01*
X115800924Y-133073717D01*
X115702430Y-132926310D01*
X115634586Y-132762520D01*
X115600000Y-132588642D01*
X115600000Y-132411358D01*
X115634586Y-132237480D01*
X115702430Y-132073690D01*
X115800924Y-131926283D01*
X115926283Y-131800924D01*
X116073690Y-131702430D01*
X116237480Y-131634586D01*
X116411356Y-131600000D01*
X116588644Y-131600000D01*
X116762520Y-131634586D01*
G37*
G36*
X146262520Y-131634586D02*
G01*
X146426310Y-131702430D01*
X146573717Y-131800924D01*
X146699076Y-131926283D01*
X146797570Y-132073690D01*
X146865414Y-132237480D01*
X146900000Y-132411358D01*
X146900000Y-132588642D01*
X146865414Y-132762520D01*
X146797570Y-132926310D01*
X146699076Y-133073717D01*
X146573717Y-133199076D01*
X146426310Y-133297570D01*
X146426309Y-133297571D01*
X146426308Y-133297571D01*
X146262520Y-133365414D01*
X146088644Y-133400000D01*
X145911356Y-133400000D01*
X145737480Y-133365414D01*
X145573692Y-133297571D01*
X145573691Y-133297571D01*
X145573690Y-133297570D01*
X145426283Y-133199076D01*
X145300924Y-133073717D01*
X145202430Y-132926310D01*
X145134586Y-132762520D01*
X145100000Y-132588642D01*
X145100000Y-132411358D01*
X145134586Y-132237480D01*
X145202430Y-132073690D01*
X145300924Y-131926283D01*
X145426283Y-131800924D01*
X145573690Y-131702430D01*
X145737480Y-131634586D01*
X145911356Y-131600000D01*
X146088644Y-131600000D01*
X146262520Y-131634586D01*
G37*
G36*
X114262520Y-131634586D02*
G01*
X114426310Y-131702430D01*
X114573717Y-131800924D01*
X114699076Y-131926283D01*
X114797570Y-132073690D01*
X114865414Y-132237480D01*
X114900000Y-132411358D01*
X114900000Y-132588642D01*
X114865414Y-132762520D01*
X114797570Y-132926310D01*
X114699076Y-133073717D01*
X114573717Y-133199076D01*
X114426310Y-133297570D01*
X114426309Y-133297571D01*
X114426308Y-133297571D01*
X114262520Y-133365414D01*
X114088644Y-133400000D01*
X113911356Y-133400000D01*
X113737480Y-133365414D01*
X113573692Y-133297571D01*
X113573691Y-133297571D01*
X113573690Y-133297570D01*
X113426283Y-133199076D01*
X113300924Y-133073717D01*
X113202430Y-132926310D01*
X113134586Y-132762520D01*
X113100000Y-132588642D01*
X113100000Y-132411358D01*
X113134586Y-132237480D01*
X113202430Y-132073690D01*
X113300924Y-131926283D01*
X113426283Y-131800924D01*
X113573690Y-131702430D01*
X113737480Y-131634586D01*
X113911356Y-131600000D01*
X114088644Y-131600000D01*
X114262520Y-131634586D01*
G37*
G36*
X150983377Y-123576858D02*
G01*
X151347353Y-123727622D01*
X151347355Y-123727623D01*
X151674926Y-123946499D01*
X151953501Y-124225074D01*
X152137042Y-124499762D01*
X152172378Y-124552647D01*
X152323142Y-124916623D01*
X152400000Y-125303016D01*
X152400000Y-125696984D01*
X152323142Y-126083377D01*
X152172378Y-126447353D01*
X152172377Y-126447355D01*
X151953501Y-126774926D01*
X151674926Y-127053501D01*
X151347355Y-127272377D01*
X151347354Y-127272378D01*
X151347353Y-127272378D01*
X150983377Y-127423142D01*
X150596984Y-127500000D01*
X150203016Y-127500000D01*
X149816623Y-127423142D01*
X149452647Y-127272378D01*
X149452646Y-127272378D01*
X149452645Y-127272377D01*
X149125074Y-127053501D01*
X148846499Y-126774926D01*
X148627623Y-126447355D01*
X148627622Y-126447353D01*
X148476858Y-126083377D01*
X148400000Y-125696984D01*
X148400000Y-125303016D01*
X148476858Y-124916623D01*
X148627622Y-124552647D01*
X148662959Y-124499762D01*
X148846499Y-124225074D01*
X149125074Y-123946499D01*
X149452645Y-123727623D01*
X149452647Y-123727622D01*
X149816623Y-123576858D01*
X150203016Y-123500000D01*
X150596984Y-123500000D01*
X150983377Y-123576858D01*
G37*
G36*
X142183377Y-123576858D02*
G01*
X142547353Y-123727622D01*
X142547355Y-123727623D01*
X142874926Y-123946499D01*
X143153501Y-124225074D01*
X143337042Y-124499762D01*
X143372378Y-124552647D01*
X143523142Y-124916623D01*
X143600000Y-125303016D01*
X143600000Y-125696984D01*
X143523142Y-126083377D01*
X143372378Y-126447353D01*
X143372377Y-126447355D01*
X143153501Y-126774926D01*
X142874926Y-127053501D01*
X142547355Y-127272377D01*
X142547354Y-127272378D01*
X142547353Y-127272378D01*
X142183377Y-127423142D01*
X141796984Y-127500000D01*
X141403016Y-127500000D01*
X141016623Y-127423142D01*
X140652647Y-127272378D01*
X140652646Y-127272378D01*
X140652645Y-127272377D01*
X140325074Y-127053501D01*
X140046499Y-126774926D01*
X139827623Y-126447355D01*
X139827622Y-126447353D01*
X139676858Y-126083377D01*
X139600000Y-125696984D01*
X139600000Y-125303016D01*
X139676858Y-124916623D01*
X139827622Y-124552647D01*
X139862959Y-124499762D01*
X140046499Y-124225074D01*
X140325074Y-123946499D01*
X140652645Y-123727623D01*
X140652647Y-123727622D01*
X141016623Y-123576858D01*
X141403016Y-123500000D01*
X141796984Y-123500000D01*
X142183377Y-123576858D01*
G37*
G36*
X118983377Y-123576858D02*
G01*
X119347353Y-123727622D01*
X119347355Y-123727623D01*
X119674926Y-123946499D01*
X119953501Y-124225074D01*
X120137042Y-124499762D01*
X120172378Y-124552647D01*
X120323142Y-124916623D01*
X120400000Y-125303016D01*
X120400000Y-125696984D01*
X120323142Y-126083377D01*
X120172378Y-126447353D01*
X120172377Y-126447355D01*
X119953501Y-126774926D01*
X119674926Y-127053501D01*
X119347355Y-127272377D01*
X119347354Y-127272378D01*
X119347353Y-127272378D01*
X118983377Y-127423142D01*
X118596984Y-127500000D01*
X118203016Y-127500000D01*
X117816623Y-127423142D01*
X117452647Y-127272378D01*
X117452646Y-127272378D01*
X117452645Y-127272377D01*
X117125074Y-127053501D01*
X116846499Y-126774926D01*
X116627623Y-126447355D01*
X116627622Y-126447353D01*
X116476858Y-126083377D01*
X116400000Y-125696984D01*
X116400000Y-125303016D01*
X116476858Y-124916623D01*
X116627622Y-124552647D01*
X116662959Y-124499762D01*
X116846499Y-124225074D01*
X117125074Y-123946499D01*
X117452645Y-123727623D01*
X117452647Y-123727622D01*
X117816623Y-123576858D01*
X118203016Y-123500000D01*
X118596984Y-123500000D01*
X118983377Y-123576858D01*
G37*
G36*
X110183377Y-123576858D02*
G01*
X110547353Y-123727622D01*
X110547355Y-123727623D01*
X110874926Y-123946499D01*
X111153501Y-124225074D01*
X111337042Y-124499762D01*
X111372378Y-124552647D01*
X111523142Y-124916623D01*
X111600000Y-125303016D01*
X111600000Y-125696984D01*
X111523142Y-126083377D01*
X111372378Y-126447353D01*
X111372377Y-126447355D01*
X111153501Y-126774926D01*
X110874926Y-127053501D01*
X110547355Y-127272377D01*
X110547354Y-127272378D01*
X110547353Y-127272378D01*
X110183377Y-127423142D01*
X109796984Y-127500000D01*
X109403016Y-127500000D01*
X109016623Y-127423142D01*
X108652647Y-127272378D01*
X108652646Y-127272378D01*
X108652645Y-127272377D01*
X108325074Y-127053501D01*
X108046499Y-126774926D01*
X107827623Y-126447355D01*
X107827622Y-126447353D01*
X107676858Y-126083377D01*
X107600000Y-125696984D01*
X107600000Y-125303016D01*
X107676858Y-124916623D01*
X107827622Y-124552647D01*
X107862959Y-124499762D01*
X108046499Y-124225074D01*
X108325074Y-123946499D01*
X108652645Y-123727623D01*
X108652647Y-123727622D01*
X109016623Y-123576858D01*
X109403016Y-123500000D01*
X109796984Y-123500000D01*
X110183377Y-123576858D01*
G37*
G36*
X103047935Y-124342664D02*
G01*
X103202624Y-124406739D01*
X103202626Y-124406740D01*
X103341844Y-124499762D01*
X103460238Y-124618156D01*
X103553260Y-124757374D01*
X103553261Y-124757376D01*
X103617336Y-124912065D01*
X103650000Y-125076281D01*
X103650000Y-125243719D01*
X103617336Y-125407935D01*
X103553261Y-125562624D01*
X103553260Y-125562626D01*
X103460238Y-125701844D01*
X103341844Y-125820238D01*
X103202626Y-125913260D01*
X103202625Y-125913261D01*
X103202624Y-125913261D01*
X103047935Y-125977336D01*
X102883719Y-126010000D01*
X102716281Y-126010000D01*
X102552065Y-125977336D01*
X102397376Y-125913261D01*
X102397375Y-125913261D01*
X102397374Y-125913260D01*
X102258156Y-125820238D01*
X102139762Y-125701844D01*
X102046740Y-125562626D01*
X102046739Y-125562624D01*
X101982664Y-125407935D01*
X101950000Y-125243719D01*
X101950000Y-125076281D01*
X101982664Y-124912065D01*
X102046739Y-124757376D01*
X102046740Y-124757374D01*
X102139762Y-124618156D01*
X102258156Y-124499762D01*
X102397374Y-124406740D01*
X102397376Y-124406739D01*
X102552065Y-124342664D01*
X102716281Y-124310000D01*
X102883719Y-124310000D01*
X103047935Y-124342664D01*
G37*
G36*
X103047935Y-121802664D02*
G01*
X103202624Y-121866739D01*
X103202626Y-121866740D01*
X103341844Y-121959762D01*
X103460238Y-122078156D01*
X103553260Y-122217374D01*
X103553261Y-122217376D01*
X103617336Y-122372065D01*
X103650000Y-122536281D01*
X103650000Y-122703719D01*
X103617336Y-122867935D01*
X103553261Y-123022624D01*
X103553260Y-123022626D01*
X103460238Y-123161844D01*
X103341844Y-123280238D01*
X103202626Y-123373260D01*
X103202625Y-123373261D01*
X103202624Y-123373261D01*
X103047935Y-123437336D01*
X102883719Y-123470000D01*
X102716281Y-123470000D01*
X102552065Y-123437336D01*
X102397376Y-123373261D01*
X102397375Y-123373261D01*
X102397374Y-123373260D01*
X102258156Y-123280238D01*
X102139762Y-123161844D01*
X102046740Y-123022626D01*
X102046739Y-123022624D01*
X101982664Y-122867935D01*
X101950000Y-122703719D01*
X101950000Y-122536281D01*
X101982664Y-122372065D01*
X102046739Y-122217376D01*
X102046740Y-122217374D01*
X102139762Y-122078156D01*
X102258156Y-121959762D01*
X102397374Y-121866740D01*
X102397376Y-121866739D01*
X102552065Y-121802664D01*
X102716281Y-121770000D01*
X102883719Y-121770000D01*
X103047935Y-121802664D01*
G37*
G36*
X103047935Y-119262664D02*
G01*
X103202624Y-119326739D01*
X103202626Y-119326740D01*
X103341844Y-119419762D01*
X103460238Y-119538156D01*
X103553260Y-119677374D01*
X103553261Y-119677376D01*
X103617336Y-119832065D01*
X103650000Y-119996281D01*
X103650000Y-120163719D01*
X103617336Y-120327935D01*
X103553261Y-120482624D01*
X103553260Y-120482626D01*
X103460238Y-120621844D01*
X103341844Y-120740238D01*
X103202626Y-120833260D01*
X103202625Y-120833261D01*
X103202624Y-120833261D01*
X103047935Y-120897336D01*
X102883719Y-120930000D01*
X102716281Y-120930000D01*
X102552065Y-120897336D01*
X102397376Y-120833261D01*
X102397375Y-120833261D01*
X102397374Y-120833260D01*
X102258156Y-120740238D01*
X102139762Y-120621844D01*
X102046740Y-120482626D01*
X102046739Y-120482624D01*
X101982664Y-120327935D01*
X101950000Y-120163719D01*
X101950000Y-119996281D01*
X101982664Y-119832065D01*
X102046739Y-119677376D01*
X102046740Y-119677374D01*
X102139762Y-119538156D01*
X102258156Y-119419762D01*
X102397374Y-119326740D01*
X102397376Y-119326739D01*
X102552065Y-119262664D01*
X102716281Y-119230000D01*
X102883719Y-119230000D01*
X103047935Y-119262664D01*
G37*
G36*
X103047935Y-116722664D02*
G01*
X103202624Y-116786739D01*
X103202626Y-116786740D01*
X103341844Y-116879762D01*
X103460238Y-116998156D01*
X103553260Y-117137374D01*
X103553261Y-117137376D01*
X103617336Y-117292065D01*
X103650000Y-117456281D01*
X103650000Y-117623719D01*
X103617336Y-117787935D01*
X103553261Y-117942624D01*
X103553260Y-117942626D01*
X103460238Y-118081844D01*
X103341844Y-118200238D01*
X103202626Y-118293260D01*
X103202625Y-118293261D01*
X103202624Y-118293261D01*
X103047935Y-118357336D01*
X102883719Y-118390000D01*
X102716281Y-118390000D01*
X102552065Y-118357336D01*
X102397376Y-118293261D01*
X102397375Y-118293261D01*
X102397374Y-118293260D01*
X102258156Y-118200238D01*
X102139762Y-118081844D01*
X102046740Y-117942626D01*
X102046739Y-117942624D01*
X101982664Y-117787935D01*
X101950000Y-117623719D01*
X101950000Y-117456281D01*
X101982664Y-117292065D01*
X102046739Y-117137376D01*
X102046740Y-117137374D01*
X102139762Y-116998156D01*
X102258156Y-116879762D01*
X102397374Y-116786740D01*
X102397376Y-116786739D01*
X102552065Y-116722664D01*
X102716281Y-116690000D01*
X102883719Y-116690000D01*
X103047935Y-116722664D01*
G37*
G36*
X103047935Y-114182664D02*
G01*
X103202624Y-114246739D01*
X103202626Y-114246740D01*
X103341844Y-114339762D01*
X103460238Y-114458156D01*
X103553260Y-114597374D01*
X103553261Y-114597376D01*
X103617336Y-114752065D01*
X103650000Y-114916281D01*
X103650000Y-115083719D01*
X103617336Y-115247935D01*
X103553261Y-115402624D01*
X103553260Y-115402626D01*
X103460238Y-115541844D01*
X103341844Y-115660238D01*
X103202626Y-115753260D01*
X103202625Y-115753261D01*
X103202624Y-115753261D01*
X103047935Y-115817336D01*
X102883719Y-115850000D01*
X102716281Y-115850000D01*
X102552065Y-115817336D01*
X102397376Y-115753261D01*
X102397375Y-115753261D01*
X102397374Y-115753260D01*
X102258156Y-115660238D01*
X102139762Y-115541844D01*
X102046740Y-115402626D01*
X102046739Y-115402624D01*
X101982664Y-115247935D01*
X101950000Y-115083719D01*
X101950000Y-114916281D01*
X101982664Y-114752065D01*
X102046739Y-114597376D01*
X102046740Y-114597374D01*
X102139762Y-114458156D01*
X102258156Y-114339762D01*
X102397374Y-114246740D01*
X102397376Y-114246739D01*
X102552065Y-114182664D01*
X102716281Y-114150000D01*
X102883719Y-114150000D01*
X103047935Y-114182664D01*
G37*
G36*
X127762520Y-112134586D02*
G01*
X127926310Y-112202430D01*
X128073717Y-112300924D01*
X128199076Y-112426283D01*
X128277543Y-112543718D01*
X128297571Y-112573692D01*
X128365414Y-112737480D01*
X128400000Y-112911356D01*
X128400000Y-113088644D01*
X128375212Y-113213260D01*
X128365414Y-113262520D01*
X128297570Y-113426310D01*
X128199076Y-113573717D01*
X128073717Y-113699076D01*
X127926310Y-113797570D01*
X127926309Y-113797571D01*
X127926308Y-113797571D01*
X127762520Y-113865414D01*
X127588644Y-113900000D01*
X127411356Y-113900000D01*
X127237480Y-113865414D01*
X127073692Y-113797571D01*
X127073691Y-113797571D01*
X127073690Y-113797570D01*
X126926283Y-113699076D01*
X126800924Y-113573717D01*
X126702430Y-113426310D01*
X126634586Y-113262520D01*
X126624788Y-113213260D01*
X126600000Y-113088644D01*
X126600000Y-112911356D01*
X126634586Y-112737480D01*
X126702429Y-112573692D01*
X126722457Y-112543718D01*
X126800924Y-112426283D01*
X126926283Y-112300924D01*
X127073690Y-112202430D01*
X127237480Y-112134586D01*
X127411356Y-112100000D01*
X127588644Y-112100000D01*
X127762520Y-112134586D01*
G37*
G36*
X130262520Y-112134586D02*
G01*
X130426310Y-112202430D01*
X130573717Y-112300924D01*
X130699076Y-112426283D01*
X130777543Y-112543718D01*
X130797571Y-112573692D01*
X130865414Y-112737480D01*
X130900000Y-112911356D01*
X130900000Y-113088644D01*
X130875212Y-113213260D01*
X130865414Y-113262520D01*
X130797570Y-113426310D01*
X130699076Y-113573717D01*
X130573717Y-113699076D01*
X130426310Y-113797570D01*
X130426309Y-113797571D01*
X130426308Y-113797571D01*
X130262520Y-113865414D01*
X130088644Y-113900000D01*
X129911356Y-113900000D01*
X129737480Y-113865414D01*
X129573692Y-113797571D01*
X129573691Y-113797571D01*
X129573690Y-113797570D01*
X129426283Y-113699076D01*
X129300924Y-113573717D01*
X129202430Y-113426310D01*
X129134586Y-113262520D01*
X129124788Y-113213260D01*
X129100000Y-113088644D01*
X129100000Y-112911356D01*
X129134586Y-112737480D01*
X129202429Y-112573692D01*
X129222457Y-112543718D01*
X129300924Y-112426283D01*
X129426283Y-112300924D01*
X129573690Y-112202430D01*
X129737480Y-112134586D01*
X129911356Y-112100000D01*
X130088644Y-112100000D01*
X130262520Y-112134586D01*
G37*
G36*
X132762520Y-112134586D02*
G01*
X132926310Y-112202430D01*
X133073717Y-112300924D01*
X133199076Y-112426283D01*
X133277543Y-112543718D01*
X133297571Y-112573692D01*
X133365414Y-112737480D01*
X133400000Y-112911356D01*
X133400000Y-113088644D01*
X133375212Y-113213260D01*
X133365414Y-113262520D01*
X133297570Y-113426310D01*
X133199076Y-113573717D01*
X133073717Y-113699076D01*
X132926310Y-113797570D01*
X132926309Y-113797571D01*
X132926308Y-113797571D01*
X132762520Y-113865414D01*
X132588644Y-113900000D01*
X132411356Y-113900000D01*
X132237480Y-113865414D01*
X132073692Y-113797571D01*
X132073691Y-113797571D01*
X132073690Y-113797570D01*
X131926283Y-113699076D01*
X131800924Y-113573717D01*
X131702430Y-113426310D01*
X131634586Y-113262520D01*
X131624788Y-113213260D01*
X131600000Y-113088644D01*
X131600000Y-112911356D01*
X131634586Y-112737480D01*
X131702429Y-112573692D01*
X131722457Y-112543718D01*
X131800924Y-112426283D01*
X131926283Y-112300924D01*
X132073690Y-112202430D01*
X132237480Y-112134586D01*
X132411356Y-112100000D01*
X132588644Y-112100000D01*
X132762520Y-112134586D01*
G37*
G36*
X103047935Y-111642664D02*
G01*
X103202624Y-111706739D01*
X103202626Y-111706740D01*
X103341844Y-111799762D01*
X103460238Y-111918156D01*
X103553260Y-112057374D01*
X103553261Y-112057376D01*
X103617336Y-112212065D01*
X103650000Y-112376281D01*
X103650000Y-112543719D01*
X103617336Y-112707935D01*
X103553261Y-112862624D01*
X103553260Y-112862626D01*
X103460238Y-113001844D01*
X103341844Y-113120238D01*
X103202626Y-113213260D01*
X103202625Y-113213261D01*
X103202624Y-113213261D01*
X103047935Y-113277336D01*
X102883719Y-113310000D01*
X102716281Y-113310000D01*
X102552065Y-113277336D01*
X102397376Y-113213261D01*
X102397375Y-113213261D01*
X102397374Y-113213260D01*
X102258156Y-113120238D01*
X102139762Y-113001844D01*
X102046740Y-112862626D01*
X102046739Y-112862624D01*
X101982664Y-112707935D01*
X101950000Y-112543719D01*
X101950000Y-112376281D01*
X101982664Y-112212065D01*
X102046739Y-112057376D01*
X102046740Y-112057374D01*
X102139762Y-111918156D01*
X102258156Y-111799762D01*
X102397374Y-111706740D01*
X102397376Y-111706739D01*
X102552065Y-111642664D01*
X102716281Y-111610000D01*
X102883719Y-111610000D01*
X103047935Y-111642664D01*
G37*
G36*
X103047935Y-109102664D02*
G01*
X103202624Y-109166739D01*
X103202626Y-109166740D01*
X103341844Y-109259762D01*
X103460238Y-109378156D01*
X103553260Y-109517374D01*
X103553261Y-109517376D01*
X103617336Y-109672065D01*
X103650000Y-109836281D01*
X103650000Y-110003719D01*
X103617336Y-110167935D01*
X103553261Y-110322624D01*
X103553260Y-110322626D01*
X103460238Y-110461844D01*
X103341844Y-110580238D01*
X103202626Y-110673260D01*
X103202625Y-110673261D01*
X103202624Y-110673261D01*
X103047935Y-110737336D01*
X102883719Y-110770000D01*
X102716281Y-110770000D01*
X102552065Y-110737336D01*
X102397376Y-110673261D01*
X102397375Y-110673261D01*
X102397374Y-110673260D01*
X102258156Y-110580238D01*
X102139762Y-110461844D01*
X102046740Y-110322626D01*
X102046739Y-110322624D01*
X101982664Y-110167935D01*
X101950000Y-110003719D01*
X101950000Y-109836281D01*
X101982664Y-109672065D01*
X102046739Y-109517376D01*
X102046740Y-109517374D01*
X102139762Y-109378156D01*
X102258156Y-109259762D01*
X102397374Y-109166740D01*
X102397376Y-109166739D01*
X102552065Y-109102664D01*
X102716281Y-109070000D01*
X102883719Y-109070000D01*
X103047935Y-109102664D01*
G37*
G36*
X144227290Y-107025619D02*
G01*
X144291689Y-107038429D01*
X144473678Y-107113811D01*
X144637463Y-107223249D01*
X144776751Y-107362537D01*
X144886189Y-107526322D01*
X144961571Y-107708311D01*
X145000000Y-107901509D01*
X145000000Y-108098491D01*
X144961571Y-108291689D01*
X144886189Y-108473678D01*
X144776751Y-108637463D01*
X144637463Y-108776751D01*
X144473678Y-108886189D01*
X144291689Y-108961571D01*
X144227290Y-108974381D01*
X144098493Y-109000000D01*
X143901507Y-109000000D01*
X143772710Y-108974381D01*
X143708311Y-108961571D01*
X143526322Y-108886189D01*
X143362537Y-108776751D01*
X143223249Y-108637463D01*
X143113811Y-108473678D01*
X143038429Y-108291689D01*
X143000000Y-108098491D01*
X143000000Y-107901509D01*
X143038429Y-107708311D01*
X143113811Y-107526322D01*
X143223249Y-107362537D01*
X143362537Y-107223249D01*
X143526322Y-107113811D01*
X143708311Y-107038429D01*
X143772710Y-107025619D01*
X143901507Y-107000000D01*
X144098493Y-107000000D01*
X144227290Y-107025619D01*
G37*
G36*
X109727290Y-107025619D02*
G01*
X109791689Y-107038429D01*
X109973678Y-107113811D01*
X110137463Y-107223249D01*
X110276751Y-107362537D01*
X110386189Y-107526322D01*
X110461571Y-107708311D01*
X110500000Y-107901509D01*
X110500000Y-108098491D01*
X110461571Y-108291689D01*
X110386189Y-108473678D01*
X110276751Y-108637463D01*
X110137463Y-108776751D01*
X109973678Y-108886189D01*
X109791689Y-108961571D01*
X109727290Y-108974381D01*
X109598493Y-109000000D01*
X109401507Y-109000000D01*
X109272710Y-108974381D01*
X109208311Y-108961571D01*
X109026322Y-108886189D01*
X108862537Y-108776751D01*
X108723249Y-108637463D01*
X108613811Y-108473678D01*
X108538429Y-108291689D01*
X108500000Y-108098491D01*
X108500000Y-107901509D01*
X108538429Y-107708311D01*
X108613811Y-107526322D01*
X108723249Y-107362537D01*
X108862537Y-107223249D01*
X109026322Y-107113811D01*
X109208311Y-107038429D01*
X109272710Y-107025619D01*
X109401507Y-107000000D01*
X109598493Y-107000000D01*
X109727290Y-107025619D01*
G37*
G36*
X150727290Y-107025619D02*
G01*
X150791689Y-107038429D01*
X150973678Y-107113811D01*
X151137463Y-107223249D01*
X151276751Y-107362537D01*
X151386189Y-107526322D01*
X151461571Y-107708311D01*
X151500000Y-107901509D01*
X151500000Y-108098491D01*
X151461571Y-108291689D01*
X151386189Y-108473678D01*
X151276751Y-108637463D01*
X151137463Y-108776751D01*
X150973678Y-108886189D01*
X150791689Y-108961571D01*
X150727290Y-108974381D01*
X150598493Y-109000000D01*
X150401507Y-109000000D01*
X150272710Y-108974381D01*
X150208311Y-108961571D01*
X150026322Y-108886189D01*
X149862537Y-108776751D01*
X149723249Y-108637463D01*
X149613811Y-108473678D01*
X149538429Y-108291689D01*
X149500000Y-108098491D01*
X149500000Y-107901509D01*
X149538429Y-107708311D01*
X149613811Y-107526322D01*
X149723249Y-107362537D01*
X149862537Y-107223249D01*
X150026322Y-107113811D01*
X150208311Y-107038429D01*
X150272710Y-107025619D01*
X150401507Y-107000000D01*
X150598493Y-107000000D01*
X150727290Y-107025619D01*
G37*
G36*
X116227290Y-107025619D02*
G01*
X116291689Y-107038429D01*
X116473678Y-107113811D01*
X116637463Y-107223249D01*
X116776751Y-107362537D01*
X116886189Y-107526322D01*
X116961571Y-107708311D01*
X117000000Y-107901509D01*
X117000000Y-108098491D01*
X116961571Y-108291689D01*
X116886189Y-108473678D01*
X116776751Y-108637463D01*
X116637463Y-108776751D01*
X116473678Y-108886189D01*
X116291689Y-108961571D01*
X116227290Y-108974381D01*
X116098493Y-109000000D01*
X115901507Y-109000000D01*
X115772710Y-108974381D01*
X115708311Y-108961571D01*
X115526322Y-108886189D01*
X115362537Y-108776751D01*
X115223249Y-108637463D01*
X115113811Y-108473678D01*
X115038429Y-108291689D01*
X115000000Y-108098491D01*
X115000000Y-107901509D01*
X115038429Y-107708311D01*
X115113811Y-107526322D01*
X115223249Y-107362537D01*
X115362537Y-107223249D01*
X115526322Y-107113811D01*
X115708311Y-107038429D01*
X115772710Y-107025619D01*
X115901507Y-107000000D01*
X116098493Y-107000000D01*
X116227290Y-107025619D01*
G37*
G36*
X155747935Y-107122664D02*
G01*
X155902624Y-107186739D01*
X155902626Y-107186740D01*
X156041844Y-107279762D01*
X156160238Y-107398156D01*
X156253260Y-107537374D01*
X156253261Y-107537376D01*
X156317336Y-107692065D01*
X156350000Y-107856281D01*
X156350000Y-108023719D01*
X156317336Y-108187935D01*
X156274359Y-108291689D01*
X156253260Y-108342626D01*
X156160238Y-108481844D01*
X156041844Y-108600238D01*
X155902626Y-108693260D01*
X155902625Y-108693261D01*
X155902624Y-108693261D01*
X155747935Y-108757336D01*
X155583719Y-108790000D01*
X155416281Y-108790000D01*
X155252065Y-108757336D01*
X155097376Y-108693261D01*
X155097375Y-108693261D01*
X155097374Y-108693260D01*
X154958156Y-108600238D01*
X154839762Y-108481844D01*
X154746740Y-108342626D01*
X154725641Y-108291689D01*
X154682664Y-108187935D01*
X154650000Y-108023719D01*
X154650000Y-107856281D01*
X154682664Y-107692065D01*
X154746739Y-107537376D01*
X154746740Y-107537374D01*
X154839762Y-107398156D01*
X154958156Y-107279762D01*
X155097374Y-107186740D01*
X155097376Y-107186739D01*
X155252065Y-107122664D01*
X155416281Y-107090000D01*
X155583719Y-107090000D01*
X155747935Y-107122664D01*
G37*
G36*
X103047935Y-106562664D02*
G01*
X103202624Y-106626739D01*
X103202626Y-106626740D01*
X103341844Y-106719762D01*
X103460238Y-106838156D01*
X103533202Y-106947355D01*
X103553261Y-106977376D01*
X103617336Y-107132065D01*
X103650000Y-107296281D01*
X103650000Y-107463719D01*
X103617336Y-107627935D01*
X103584042Y-107708312D01*
X103553260Y-107782626D01*
X103460238Y-107921844D01*
X103341844Y-108040238D01*
X103202626Y-108133260D01*
X103202625Y-108133261D01*
X103202624Y-108133261D01*
X103047935Y-108197336D01*
X102883719Y-108230000D01*
X102716281Y-108230000D01*
X102552065Y-108197336D01*
X102397376Y-108133261D01*
X102397375Y-108133261D01*
X102397374Y-108133260D01*
X102258156Y-108040238D01*
X102139762Y-107921844D01*
X102046740Y-107782626D01*
X102015958Y-107708312D01*
X101982664Y-107627935D01*
X101950000Y-107463719D01*
X101950000Y-107296281D01*
X101982664Y-107132065D01*
X102046739Y-106977376D01*
X102066798Y-106947355D01*
X102139762Y-106838156D01*
X102258156Y-106719762D01*
X102397374Y-106626740D01*
X102397376Y-106626739D01*
X102552065Y-106562664D01*
X102716281Y-106530000D01*
X102883719Y-106530000D01*
X103047935Y-106562664D01*
G37*
G36*
X126183377Y-104076858D02*
G01*
X126547353Y-104227622D01*
X126547355Y-104227623D01*
X126712251Y-104337803D01*
X126874925Y-104446498D01*
X127153502Y-104725075D01*
X127372378Y-105052647D01*
X127523142Y-105416623D01*
X127600000Y-105803016D01*
X127600000Y-106196984D01*
X127523142Y-106583377D01*
X127372378Y-106947353D01*
X127372377Y-106947355D01*
X127311523Y-107038429D01*
X127188031Y-107223249D01*
X127153501Y-107274926D01*
X126874926Y-107553501D01*
X126547355Y-107772377D01*
X126547354Y-107772378D01*
X126547353Y-107772378D01*
X126183377Y-107923142D01*
X125796984Y-108000000D01*
X125403016Y-108000000D01*
X125016623Y-107923142D01*
X124652647Y-107772378D01*
X124652646Y-107772378D01*
X124652645Y-107772377D01*
X124325074Y-107553501D01*
X124046499Y-107274926D01*
X124011970Y-107223249D01*
X123888477Y-107038429D01*
X123827623Y-106947355D01*
X123827622Y-106947353D01*
X123676858Y-106583377D01*
X123600000Y-106196984D01*
X123600000Y-105803016D01*
X123676858Y-105416623D01*
X123827622Y-105052647D01*
X124046498Y-104725075D01*
X124325075Y-104446498D01*
X124487749Y-104337803D01*
X124652645Y-104227623D01*
X124652647Y-104227622D01*
X125016623Y-104076858D01*
X125403016Y-104000000D01*
X125796984Y-104000000D01*
X126183377Y-104076858D01*
G37*
G36*
X134983377Y-104076858D02*
G01*
X135347353Y-104227622D01*
X135347355Y-104227623D01*
X135512251Y-104337803D01*
X135674925Y-104446498D01*
X135953502Y-104725075D01*
X136172378Y-105052647D01*
X136323142Y-105416623D01*
X136400000Y-105803016D01*
X136400000Y-106196984D01*
X136323142Y-106583377D01*
X136172378Y-106947353D01*
X136172377Y-106947355D01*
X136111523Y-107038429D01*
X135988031Y-107223249D01*
X135953501Y-107274926D01*
X135674926Y-107553501D01*
X135347355Y-107772377D01*
X135347354Y-107772378D01*
X135347353Y-107772378D01*
X134983377Y-107923142D01*
X134596984Y-108000000D01*
X134203016Y-108000000D01*
X133816623Y-107923142D01*
X133452647Y-107772378D01*
X133452646Y-107772378D01*
X133452645Y-107772377D01*
X133125074Y-107553501D01*
X132846499Y-107274926D01*
X132811970Y-107223249D01*
X132688477Y-107038429D01*
X132627623Y-106947355D01*
X132627622Y-106947353D01*
X132476858Y-106583377D01*
X132400000Y-106196984D01*
X132400000Y-105803016D01*
X132476858Y-105416623D01*
X132627622Y-105052647D01*
X132846498Y-104725075D01*
X133125075Y-104446498D01*
X133287749Y-104337803D01*
X133452645Y-104227623D01*
X133452647Y-104227622D01*
X133816623Y-104076858D01*
X134203016Y-104000000D01*
X134596984Y-104000000D01*
X134983377Y-104076858D01*
G37*
G36*
X155747935Y-104582664D02*
G01*
X155902624Y-104646739D01*
X155902626Y-104646740D01*
X156041844Y-104739762D01*
X156160238Y-104858156D01*
X156253260Y-104997374D01*
X156253261Y-104997376D01*
X156317336Y-105152065D01*
X156350000Y-105316281D01*
X156350000Y-105483719D01*
X156317336Y-105647935D01*
X156253261Y-105802624D01*
X156253260Y-105802626D01*
X156160238Y-105941844D01*
X156041844Y-106060238D01*
X155902626Y-106153260D01*
X155902625Y-106153261D01*
X155902624Y-106153261D01*
X155747935Y-106217336D01*
X155583719Y-106250000D01*
X155416281Y-106250000D01*
X155252065Y-106217336D01*
X155097376Y-106153261D01*
X155097375Y-106153261D01*
X155097374Y-106153260D01*
X154958156Y-106060238D01*
X154839762Y-105941844D01*
X154746740Y-105802626D01*
X154746739Y-105802624D01*
X154682664Y-105647935D01*
X154650000Y-105483719D01*
X154650000Y-105316281D01*
X154682664Y-105152065D01*
X154746739Y-104997376D01*
X154746740Y-104997374D01*
X154839762Y-104858156D01*
X154958156Y-104739762D01*
X155097374Y-104646740D01*
X155097376Y-104646739D01*
X155252065Y-104582664D01*
X155416281Y-104550000D01*
X155583719Y-104550000D01*
X155747935Y-104582664D01*
G37*
G36*
X103047935Y-104022664D02*
G01*
X103202624Y-104086739D01*
X103202626Y-104086740D01*
X103341844Y-104179762D01*
X103460238Y-104298156D01*
X103519059Y-104386189D01*
X103553261Y-104437376D01*
X103617336Y-104592065D01*
X103650000Y-104756281D01*
X103650000Y-104923719D01*
X103617336Y-105087935D01*
X103590772Y-105152065D01*
X103553260Y-105242626D01*
X103460238Y-105381844D01*
X103341844Y-105500238D01*
X103202626Y-105593260D01*
X103202625Y-105593261D01*
X103202624Y-105593261D01*
X103047935Y-105657336D01*
X102883719Y-105690000D01*
X102716281Y-105690000D01*
X102552065Y-105657336D01*
X102397376Y-105593261D01*
X102397375Y-105593261D01*
X102397374Y-105593260D01*
X102258156Y-105500238D01*
X102139762Y-105381844D01*
X102046740Y-105242626D01*
X102009228Y-105152065D01*
X101982664Y-105087935D01*
X101950000Y-104923719D01*
X101950000Y-104756281D01*
X101982664Y-104592065D01*
X102046739Y-104437376D01*
X102080941Y-104386189D01*
X102139762Y-104298156D01*
X102258156Y-104179762D01*
X102397374Y-104086740D01*
X102397376Y-104086739D01*
X102552065Y-104022664D01*
X102716281Y-103990000D01*
X102883719Y-103990000D01*
X103047935Y-104022664D01*
G37*
G36*
X144227290Y-102525619D02*
G01*
X144291689Y-102538429D01*
X144473678Y-102613811D01*
X144637463Y-102723249D01*
X144776751Y-102862537D01*
X144886189Y-103026322D01*
X144961571Y-103208311D01*
X144961571Y-103208312D01*
X145000000Y-103401507D01*
X145000000Y-103598493D01*
X144997062Y-103613261D01*
X144961571Y-103791689D01*
X144886189Y-103973678D01*
X144776751Y-104137463D01*
X144637463Y-104276751D01*
X144473678Y-104386189D01*
X144291689Y-104461571D01*
X144227290Y-104474381D01*
X144098493Y-104500000D01*
X143901507Y-104500000D01*
X143772710Y-104474381D01*
X143708311Y-104461571D01*
X143526322Y-104386189D01*
X143362537Y-104276751D01*
X143223249Y-104137463D01*
X143113811Y-103973678D01*
X143038429Y-103791689D01*
X143002938Y-103613261D01*
X143000000Y-103598493D01*
X143000000Y-103401507D01*
X143038429Y-103208312D01*
X143038429Y-103208311D01*
X143113811Y-103026322D01*
X143223249Y-102862537D01*
X143362537Y-102723249D01*
X143526322Y-102613811D01*
X143708311Y-102538429D01*
X143772710Y-102525619D01*
X143901507Y-102500000D01*
X144098493Y-102500000D01*
X144227290Y-102525619D01*
G37*
G36*
X150727290Y-102525619D02*
G01*
X150791689Y-102538429D01*
X150973678Y-102613811D01*
X151137463Y-102723249D01*
X151276751Y-102862537D01*
X151386189Y-103026322D01*
X151461571Y-103208311D01*
X151461571Y-103208312D01*
X151500000Y-103401507D01*
X151500000Y-103598493D01*
X151497062Y-103613261D01*
X151461571Y-103791689D01*
X151386189Y-103973678D01*
X151276751Y-104137463D01*
X151137463Y-104276751D01*
X150973678Y-104386189D01*
X150791689Y-104461571D01*
X150727290Y-104474381D01*
X150598493Y-104500000D01*
X150401507Y-104500000D01*
X150272710Y-104474381D01*
X150208311Y-104461571D01*
X150026322Y-104386189D01*
X149862537Y-104276751D01*
X149723249Y-104137463D01*
X149613811Y-103973678D01*
X149538429Y-103791689D01*
X149502938Y-103613261D01*
X149500000Y-103598493D01*
X149500000Y-103401507D01*
X149538429Y-103208312D01*
X149538429Y-103208311D01*
X149613811Y-103026322D01*
X149723249Y-102862537D01*
X149862537Y-102723249D01*
X150026322Y-102613811D01*
X150208311Y-102538429D01*
X150272710Y-102525619D01*
X150401507Y-102500000D01*
X150598493Y-102500000D01*
X150727290Y-102525619D01*
G37*
G36*
X116227290Y-102525619D02*
G01*
X116291689Y-102538429D01*
X116473678Y-102613811D01*
X116637463Y-102723249D01*
X116776751Y-102862537D01*
X116886189Y-103026322D01*
X116961571Y-103208311D01*
X116961571Y-103208312D01*
X117000000Y-103401507D01*
X117000000Y-103598493D01*
X116997062Y-103613261D01*
X116961571Y-103791689D01*
X116886189Y-103973678D01*
X116776751Y-104137463D01*
X116637463Y-104276751D01*
X116473678Y-104386189D01*
X116291689Y-104461571D01*
X116227290Y-104474381D01*
X116098493Y-104500000D01*
X115901507Y-104500000D01*
X115772710Y-104474381D01*
X115708311Y-104461571D01*
X115526322Y-104386189D01*
X115362537Y-104276751D01*
X115223249Y-104137463D01*
X115113811Y-103973678D01*
X115038429Y-103791689D01*
X115002938Y-103613261D01*
X115000000Y-103598493D01*
X115000000Y-103401507D01*
X115038429Y-103208312D01*
X115038429Y-103208311D01*
X115113811Y-103026322D01*
X115223249Y-102862537D01*
X115362537Y-102723249D01*
X115526322Y-102613811D01*
X115708311Y-102538429D01*
X115772710Y-102525619D01*
X115901507Y-102500000D01*
X116098493Y-102500000D01*
X116227290Y-102525619D01*
G37*
G36*
X109727290Y-102525619D02*
G01*
X109791689Y-102538429D01*
X109973678Y-102613811D01*
X110137463Y-102723249D01*
X110276751Y-102862537D01*
X110386189Y-103026322D01*
X110461571Y-103208311D01*
X110461571Y-103208312D01*
X110500000Y-103401507D01*
X110500000Y-103598493D01*
X110497062Y-103613261D01*
X110461571Y-103791689D01*
X110386189Y-103973678D01*
X110276751Y-104137463D01*
X110137463Y-104276751D01*
X109973678Y-104386189D01*
X109791689Y-104461571D01*
X109727290Y-104474381D01*
X109598493Y-104500000D01*
X109401507Y-104500000D01*
X109272710Y-104474381D01*
X109208311Y-104461571D01*
X109026322Y-104386189D01*
X108862537Y-104276751D01*
X108723249Y-104137463D01*
X108613811Y-103973678D01*
X108538429Y-103791689D01*
X108502938Y-103613261D01*
X108500000Y-103598493D01*
X108500000Y-103401507D01*
X108538429Y-103208312D01*
X108538429Y-103208311D01*
X108613811Y-103026322D01*
X108723249Y-102862537D01*
X108862537Y-102723249D01*
X109026322Y-102613811D01*
X109208311Y-102538429D01*
X109272710Y-102525619D01*
X109401507Y-102500000D01*
X109598493Y-102500000D01*
X109727290Y-102525619D01*
G37*
G36*
X155747935Y-102042664D02*
G01*
X155902624Y-102106739D01*
X155902626Y-102106740D01*
X156041844Y-102199762D01*
X156160238Y-102318156D01*
X156253260Y-102457374D01*
X156253261Y-102457376D01*
X156317336Y-102612065D01*
X156350000Y-102776281D01*
X156350000Y-102943719D01*
X156317336Y-103107935D01*
X156275758Y-103208311D01*
X156253260Y-103262626D01*
X156160238Y-103401844D01*
X156041844Y-103520238D01*
X155902626Y-103613260D01*
X155902625Y-103613261D01*
X155902624Y-103613261D01*
X155747935Y-103677336D01*
X155583719Y-103710000D01*
X155416281Y-103710000D01*
X155252065Y-103677336D01*
X155097376Y-103613261D01*
X155097375Y-103613261D01*
X155097374Y-103613260D01*
X154958156Y-103520238D01*
X154839762Y-103401844D01*
X154746740Y-103262626D01*
X154724242Y-103208311D01*
X154682664Y-103107935D01*
X154650000Y-102943719D01*
X154650000Y-102776281D01*
X154682664Y-102612065D01*
X154746739Y-102457376D01*
X154746740Y-102457374D01*
X154839762Y-102318156D01*
X154958156Y-102199762D01*
X155097374Y-102106740D01*
X155097376Y-102106739D01*
X155252065Y-102042664D01*
X155416281Y-102010000D01*
X155583719Y-102010000D01*
X155747935Y-102042664D01*
G37*
G36*
X103650000Y-103150000D02*
G01*
X101950000Y-103150000D01*
X101950000Y-101450000D01*
X103650000Y-101450000D01*
X103650000Y-103150000D01*
G37*
G36*
X155747935Y-99502664D02*
G01*
X155902624Y-99566739D01*
X155902626Y-99566740D01*
X156041844Y-99659762D01*
X156160238Y-99778156D01*
X156253260Y-99917374D01*
X156253261Y-99917376D01*
X156317336Y-100072065D01*
X156350000Y-100236281D01*
X156350000Y-100403719D01*
X156317336Y-100567935D01*
X156253261Y-100722624D01*
X156253260Y-100722626D01*
X156160238Y-100861844D01*
X156041844Y-100980238D01*
X155902626Y-101073260D01*
X155902625Y-101073261D01*
X155902624Y-101073261D01*
X155747935Y-101137336D01*
X155583719Y-101170000D01*
X155416281Y-101170000D01*
X155252065Y-101137336D01*
X155097376Y-101073261D01*
X155097375Y-101073261D01*
X155097374Y-101073260D01*
X154958156Y-100980238D01*
X154839762Y-100861844D01*
X154746740Y-100722626D01*
X154746739Y-100722624D01*
X154682664Y-100567935D01*
X154650000Y-100403719D01*
X154650000Y-100236281D01*
X154682664Y-100072065D01*
X154746739Y-99917376D01*
X154746740Y-99917374D01*
X154839762Y-99778156D01*
X154958156Y-99659762D01*
X155097374Y-99566740D01*
X155097376Y-99566739D01*
X155252065Y-99502664D01*
X155416281Y-99470000D01*
X155583719Y-99470000D01*
X155747935Y-99502664D01*
G37*
G36*
X155747935Y-96962664D02*
G01*
X155902624Y-97026739D01*
X155902626Y-97026740D01*
X156041844Y-97119762D01*
X156160238Y-97238156D01*
X156253260Y-97377374D01*
X156253261Y-97377376D01*
X156317336Y-97532065D01*
X156350000Y-97696281D01*
X156350000Y-97863719D01*
X156317336Y-98027935D01*
X156253261Y-98182624D01*
X156253260Y-98182626D01*
X156160238Y-98321844D01*
X156041844Y-98440238D01*
X155902626Y-98533260D01*
X155902625Y-98533261D01*
X155902624Y-98533261D01*
X155747935Y-98597336D01*
X155583719Y-98630000D01*
X155416281Y-98630000D01*
X155252065Y-98597336D01*
X155097376Y-98533261D01*
X155097375Y-98533261D01*
X155097374Y-98533260D01*
X154958156Y-98440238D01*
X154839762Y-98321844D01*
X154746740Y-98182626D01*
X154746739Y-98182624D01*
X154682664Y-98027935D01*
X154650000Y-97863719D01*
X154650000Y-97696281D01*
X154682664Y-97532065D01*
X154746739Y-97377376D01*
X154746740Y-97377374D01*
X154839762Y-97238156D01*
X154958156Y-97119762D01*
X155097374Y-97026740D01*
X155097376Y-97026739D01*
X155252065Y-96962664D01*
X155416281Y-96930000D01*
X155583719Y-96930000D01*
X155747935Y-96962664D01*
G37*
G36*
X155747935Y-94422664D02*
G01*
X155902624Y-94486739D01*
X155902626Y-94486740D01*
X156041844Y-94579762D01*
X156160238Y-94698156D01*
X156253260Y-94837374D01*
X156253261Y-94837376D01*
X156317336Y-94992065D01*
X156350000Y-95156281D01*
X156350000Y-95323719D01*
X156317336Y-95487935D01*
X156253261Y-95642624D01*
X156253260Y-95642626D01*
X156160238Y-95781844D01*
X156041844Y-95900238D01*
X155902626Y-95993260D01*
X155902625Y-95993261D01*
X155902624Y-95993261D01*
X155747935Y-96057336D01*
X155583719Y-96090000D01*
X155416281Y-96090000D01*
X155252065Y-96057336D01*
X155097376Y-95993261D01*
X155097375Y-95993261D01*
X155097374Y-95993260D01*
X154958156Y-95900238D01*
X154839762Y-95781844D01*
X154746740Y-95642626D01*
X154746739Y-95642624D01*
X154682664Y-95487935D01*
X154650000Y-95323719D01*
X154650000Y-95156281D01*
X154682664Y-94992065D01*
X154746739Y-94837376D01*
X154746740Y-94837374D01*
X154839762Y-94698156D01*
X154958156Y-94579762D01*
X155097374Y-94486740D01*
X155097376Y-94486739D01*
X155252065Y-94422664D01*
X155416281Y-94390000D01*
X155583719Y-94390000D01*
X155747935Y-94422664D01*
G37*
G36*
X155747935Y-91882664D02*
G01*
X155902624Y-91946739D01*
X155902626Y-91946740D01*
X156041844Y-92039762D01*
X156160238Y-92158156D01*
X156253260Y-92297374D01*
X156253261Y-92297376D01*
X156317336Y-92452065D01*
X156350000Y-92616281D01*
X156350000Y-92783719D01*
X156317336Y-92947935D01*
X156253261Y-93102624D01*
X156253260Y-93102626D01*
X156160238Y-93241844D01*
X156041844Y-93360238D01*
X155902626Y-93453260D01*
X155902625Y-93453261D01*
X155902624Y-93453261D01*
X155747935Y-93517336D01*
X155583719Y-93550000D01*
X155416281Y-93550000D01*
X155252065Y-93517336D01*
X155097376Y-93453261D01*
X155097375Y-93453261D01*
X155097374Y-93453260D01*
X154958156Y-93360238D01*
X154839762Y-93241844D01*
X154746740Y-93102626D01*
X154746739Y-93102624D01*
X154682664Y-92947935D01*
X154650000Y-92783719D01*
X154650000Y-92616281D01*
X154682664Y-92452065D01*
X154746739Y-92297376D01*
X154746740Y-92297374D01*
X154839762Y-92158156D01*
X154958156Y-92039762D01*
X155097374Y-91946740D01*
X155097376Y-91946739D01*
X155252065Y-91882664D01*
X155416281Y-91850000D01*
X155583719Y-91850000D01*
X155747935Y-91882664D01*
G37*
G36*
X132762520Y-90134586D02*
G01*
X132926310Y-90202430D01*
X133073717Y-90300924D01*
X133199076Y-90426283D01*
X133290176Y-90562624D01*
X133297571Y-90573692D01*
X133365414Y-90737480D01*
X133381876Y-90820238D01*
X133400000Y-90911358D01*
X133400000Y-91088642D01*
X133365414Y-91262520D01*
X133297570Y-91426310D01*
X133199076Y-91573717D01*
X133073717Y-91699076D01*
X132926310Y-91797570D01*
X132926309Y-91797571D01*
X132926308Y-91797571D01*
X132762520Y-91865414D01*
X132588644Y-91900000D01*
X132411356Y-91900000D01*
X132237480Y-91865414D01*
X132073692Y-91797571D01*
X132073691Y-91797571D01*
X132073690Y-91797570D01*
X131926283Y-91699076D01*
X131800924Y-91573717D01*
X131702430Y-91426310D01*
X131634586Y-91262520D01*
X131600000Y-91088642D01*
X131600000Y-90911358D01*
X131618125Y-90820238D01*
X131634586Y-90737480D01*
X131702429Y-90573692D01*
X131709824Y-90562624D01*
X131800924Y-90426283D01*
X131926283Y-90300924D01*
X132073690Y-90202430D01*
X132237480Y-90134586D01*
X132411356Y-90100000D01*
X132588644Y-90100000D01*
X132762520Y-90134586D01*
G37*
G36*
X130262520Y-90134586D02*
G01*
X130426310Y-90202430D01*
X130573717Y-90300924D01*
X130699076Y-90426283D01*
X130790176Y-90562624D01*
X130797571Y-90573692D01*
X130865414Y-90737480D01*
X130881876Y-90820238D01*
X130900000Y-90911358D01*
X130900000Y-91088642D01*
X130865414Y-91262520D01*
X130797570Y-91426310D01*
X130699076Y-91573717D01*
X130573717Y-91699076D01*
X130426310Y-91797570D01*
X130426309Y-91797571D01*
X130426308Y-91797571D01*
X130262520Y-91865414D01*
X130088644Y-91900000D01*
X129911356Y-91900000D01*
X129737480Y-91865414D01*
X129573692Y-91797571D01*
X129573691Y-91797571D01*
X129573690Y-91797570D01*
X129426283Y-91699076D01*
X129300924Y-91573717D01*
X129202430Y-91426310D01*
X129134586Y-91262520D01*
X129100000Y-91088642D01*
X129100000Y-90911358D01*
X129118125Y-90820238D01*
X129134586Y-90737480D01*
X129202429Y-90573692D01*
X129209824Y-90562624D01*
X129300924Y-90426283D01*
X129426283Y-90300924D01*
X129573690Y-90202430D01*
X129737480Y-90134586D01*
X129911356Y-90100000D01*
X130088644Y-90100000D01*
X130262520Y-90134586D01*
G37*
G36*
X127762520Y-90134586D02*
G01*
X127926310Y-90202430D01*
X128073717Y-90300924D01*
X128199076Y-90426283D01*
X128290176Y-90562624D01*
X128297571Y-90573692D01*
X128365414Y-90737480D01*
X128381876Y-90820238D01*
X128400000Y-90911358D01*
X128400000Y-91088642D01*
X128365414Y-91262520D01*
X128297570Y-91426310D01*
X128199076Y-91573717D01*
X128073717Y-91699076D01*
X127926310Y-91797570D01*
X127926309Y-91797571D01*
X127926308Y-91797571D01*
X127762520Y-91865414D01*
X127588644Y-91900000D01*
X127411356Y-91900000D01*
X127237480Y-91865414D01*
X127073692Y-91797571D01*
X127073691Y-91797571D01*
X127073690Y-91797570D01*
X126926283Y-91699076D01*
X126800924Y-91573717D01*
X126702430Y-91426310D01*
X126634586Y-91262520D01*
X126600000Y-91088642D01*
X126600000Y-90911358D01*
X126618125Y-90820238D01*
X126634586Y-90737480D01*
X126702429Y-90573692D01*
X126709824Y-90562624D01*
X126800924Y-90426283D01*
X126926283Y-90300924D01*
X127073690Y-90202430D01*
X127237480Y-90134586D01*
X127411356Y-90100000D01*
X127588644Y-90100000D01*
X127762520Y-90134586D01*
G37*
G36*
X155747935Y-89342664D02*
G01*
X155902624Y-89406739D01*
X155902626Y-89406740D01*
X156041844Y-89499762D01*
X156160238Y-89618156D01*
X156253260Y-89757374D01*
X156253261Y-89757376D01*
X156317336Y-89912065D01*
X156350000Y-90076281D01*
X156350000Y-90243719D01*
X156317336Y-90407935D01*
X156253261Y-90562624D01*
X156253260Y-90562626D01*
X156160238Y-90701844D01*
X156041844Y-90820238D01*
X155902626Y-90913260D01*
X155902625Y-90913261D01*
X155902624Y-90913261D01*
X155747935Y-90977336D01*
X155583719Y-91010000D01*
X155416281Y-91010000D01*
X155252065Y-90977336D01*
X155097376Y-90913261D01*
X155097375Y-90913261D01*
X155097374Y-90913260D01*
X154958156Y-90820238D01*
X154839762Y-90701844D01*
X154746740Y-90562626D01*
X154746739Y-90562624D01*
X154682664Y-90407935D01*
X154650000Y-90243719D01*
X154650000Y-90076281D01*
X154682664Y-89912065D01*
X154746739Y-89757376D01*
X154746740Y-89757374D01*
X154839762Y-89618156D01*
X154958156Y-89499762D01*
X155097374Y-89406740D01*
X155097376Y-89406739D01*
X155252065Y-89342664D01*
X155416281Y-89310000D01*
X155583719Y-89310000D01*
X155747935Y-89342664D01*
G37*
G36*
X155747935Y-86802664D02*
G01*
X155902624Y-86866739D01*
X155902626Y-86866740D01*
X156041844Y-86959762D01*
X156160238Y-87078156D01*
X156253260Y-87217374D01*
X156253261Y-87217376D01*
X156317336Y-87372065D01*
X156350000Y-87536281D01*
X156350000Y-87703719D01*
X156317336Y-87867935D01*
X156253261Y-88022624D01*
X156253260Y-88022626D01*
X156160238Y-88161844D01*
X156041844Y-88280238D01*
X155902626Y-88373260D01*
X155902625Y-88373261D01*
X155902624Y-88373261D01*
X155747935Y-88437336D01*
X155583719Y-88470000D01*
X155416281Y-88470000D01*
X155252065Y-88437336D01*
X155097376Y-88373261D01*
X155097375Y-88373261D01*
X155097374Y-88373260D01*
X154958156Y-88280238D01*
X154839762Y-88161844D01*
X154746740Y-88022626D01*
X154746739Y-88022624D01*
X154682664Y-87867935D01*
X154650000Y-87703719D01*
X154650000Y-87536281D01*
X154682664Y-87372065D01*
X154746739Y-87217376D01*
X154746740Y-87217374D01*
X154839762Y-87078156D01*
X154958156Y-86959762D01*
X155097374Y-86866740D01*
X155097376Y-86866739D01*
X155252065Y-86802664D01*
X155416281Y-86770000D01*
X155583719Y-86770000D01*
X155747935Y-86802664D01*
G37*
G36*
X112750000Y-88250000D02*
G01*
X110250000Y-88250000D01*
X110250000Y-86750000D01*
X112750000Y-86750000D01*
X112750000Y-88250000D01*
G37*
G36*
X149750000Y-88250000D02*
G01*
X147250000Y-88250000D01*
X147250000Y-86750000D01*
X149750000Y-86750000D01*
X149750000Y-88250000D01*
G37*
G36*
X134983377Y-82076858D02*
G01*
X135347353Y-82227622D01*
X135347355Y-82227623D01*
X135443798Y-82292064D01*
X135674925Y-82446498D01*
X135953502Y-82725075D01*
X135995504Y-82787936D01*
X136168353Y-83046622D01*
X136172378Y-83052647D01*
X136323142Y-83416623D01*
X136400000Y-83803016D01*
X136400000Y-84196984D01*
X136323142Y-84583377D01*
X136220132Y-84832064D01*
X136172377Y-84947355D01*
X136139685Y-84996282D01*
X135953502Y-85274925D01*
X135674925Y-85553502D01*
X135521135Y-85656261D01*
X135347355Y-85772377D01*
X135347354Y-85772378D01*
X135347353Y-85772378D01*
X134983377Y-85923142D01*
X134596984Y-86000000D01*
X134203016Y-86000000D01*
X133816623Y-85923142D01*
X133452647Y-85772378D01*
X133452646Y-85772378D01*
X133452645Y-85772377D01*
X133278865Y-85656261D01*
X133125075Y-85553502D01*
X132846498Y-85274925D01*
X132660315Y-84996282D01*
X132627623Y-84947355D01*
X132579868Y-84832064D01*
X132476858Y-84583377D01*
X132400000Y-84196984D01*
X132400000Y-83803016D01*
X132476858Y-83416623D01*
X132627622Y-83052647D01*
X132631648Y-83046622D01*
X132804496Y-82787936D01*
X132846498Y-82725075D01*
X133125075Y-82446498D01*
X133356202Y-82292064D01*
X133452645Y-82227623D01*
X133452647Y-82227622D01*
X133816623Y-82076858D01*
X134203016Y-82000000D01*
X134596984Y-82000000D01*
X134983377Y-82076858D01*
G37*
G36*
X126183377Y-82076858D02*
G01*
X126547353Y-82227622D01*
X126547355Y-82227623D01*
X126643798Y-82292064D01*
X126874925Y-82446498D01*
X127153502Y-82725075D01*
X127195504Y-82787936D01*
X127368353Y-83046622D01*
X127372378Y-83052647D01*
X127523142Y-83416623D01*
X127600000Y-83803016D01*
X127600000Y-84196984D01*
X127523142Y-84583377D01*
X127420132Y-84832064D01*
X127372377Y-84947355D01*
X127339685Y-84996282D01*
X127153502Y-85274925D01*
X126874925Y-85553502D01*
X126721135Y-85656261D01*
X126547355Y-85772377D01*
X126547354Y-85772378D01*
X126547353Y-85772378D01*
X126183377Y-85923142D01*
X125796984Y-86000000D01*
X125403016Y-86000000D01*
X125016623Y-85923142D01*
X124652647Y-85772378D01*
X124652646Y-85772378D01*
X124652645Y-85772377D01*
X124478865Y-85656261D01*
X124325075Y-85553502D01*
X124046498Y-85274925D01*
X123860315Y-84996282D01*
X123827623Y-84947355D01*
X123779868Y-84832064D01*
X123676858Y-84583377D01*
X123600000Y-84196984D01*
X123600000Y-83803016D01*
X123676858Y-83416623D01*
X123827622Y-83052647D01*
X123831648Y-83046622D01*
X124004496Y-82787936D01*
X124046498Y-82725075D01*
X124325075Y-82446498D01*
X124556202Y-82292064D01*
X124652645Y-82227623D01*
X124652647Y-82227622D01*
X125016623Y-82076858D01*
X125403016Y-82000000D01*
X125796984Y-82000000D01*
X126183377Y-82076858D01*
G37*
G36*
X155747935Y-84262664D02*
G01*
X155902624Y-84326739D01*
X155902626Y-84326740D01*
X156041844Y-84419762D01*
X156160238Y-84538156D01*
X156190454Y-84583378D01*
X156253261Y-84677376D01*
X156317336Y-84832065D01*
X156350000Y-84996281D01*
X156350000Y-85163719D01*
X156317336Y-85327935D01*
X156296311Y-85378693D01*
X156253260Y-85482626D01*
X156160238Y-85621844D01*
X156041844Y-85740238D01*
X155902626Y-85833260D01*
X155902625Y-85833261D01*
X155902624Y-85833261D01*
X155747935Y-85897336D01*
X155583719Y-85930000D01*
X155416281Y-85930000D01*
X155252065Y-85897336D01*
X155097376Y-85833261D01*
X155097375Y-85833261D01*
X155097374Y-85833260D01*
X154958156Y-85740238D01*
X154839762Y-85621844D01*
X154746740Y-85482626D01*
X154703689Y-85378693D01*
X154682664Y-85327935D01*
X154650000Y-85163719D01*
X154650000Y-84996281D01*
X154682664Y-84832065D01*
X154746739Y-84677376D01*
X154809546Y-84583378D01*
X154839762Y-84538156D01*
X154958156Y-84419762D01*
X155097374Y-84326740D01*
X155097376Y-84326739D01*
X155252065Y-84262664D01*
X155416281Y-84230000D01*
X155583719Y-84230000D01*
X155747935Y-84262664D01*
G37*
G36*
X149147027Y-84220852D02*
G01*
X149288401Y-84263738D01*
X149418689Y-84333378D01*
X149532895Y-84427105D01*
X149626622Y-84541311D01*
X149696262Y-84671599D01*
X149739148Y-84812973D01*
X149753628Y-84960000D01*
X149739148Y-85107027D01*
X149696262Y-85248401D01*
X149626622Y-85378689D01*
X149532895Y-85492895D01*
X149418689Y-85586622D01*
X149288401Y-85656262D01*
X149147027Y-85699148D01*
X149036839Y-85710000D01*
X147963161Y-85710000D01*
X147852973Y-85699148D01*
X147711599Y-85656262D01*
X147581311Y-85586622D01*
X147467105Y-85492895D01*
X147373378Y-85378689D01*
X147303738Y-85248401D01*
X147260852Y-85107027D01*
X147246372Y-84960000D01*
X147260852Y-84812973D01*
X147303738Y-84671599D01*
X147373378Y-84541311D01*
X147467105Y-84427105D01*
X147581311Y-84333378D01*
X147711599Y-84263738D01*
X147852973Y-84220852D01*
X147963161Y-84210000D01*
X149036839Y-84210000D01*
X149147027Y-84220852D01*
G37*
G36*
X112147027Y-84220852D02*
G01*
X112288401Y-84263738D01*
X112418689Y-84333378D01*
X112532895Y-84427105D01*
X112626622Y-84541311D01*
X112696262Y-84671599D01*
X112739148Y-84812973D01*
X112753628Y-84960000D01*
X112739148Y-85107027D01*
X112696262Y-85248401D01*
X112626622Y-85378689D01*
X112532895Y-85492895D01*
X112418689Y-85586622D01*
X112288401Y-85656262D01*
X112147027Y-85699148D01*
X112036839Y-85710000D01*
X110963161Y-85710000D01*
X110852973Y-85699148D01*
X110711599Y-85656262D01*
X110581311Y-85586622D01*
X110467105Y-85492895D01*
X110373378Y-85378689D01*
X110303738Y-85248401D01*
X110260852Y-85107027D01*
X110246372Y-84960000D01*
X110260852Y-84812973D01*
X110303738Y-84671599D01*
X110373378Y-84541311D01*
X110467105Y-84427105D01*
X110581311Y-84333378D01*
X110711599Y-84263738D01*
X110852973Y-84220852D01*
X110963161Y-84210000D01*
X112036839Y-84210000D01*
X112147027Y-84220852D01*
G37*
G36*
X155747935Y-81722664D02*
G01*
X155902624Y-81786739D01*
X155902626Y-81786740D01*
X156041844Y-81879762D01*
X156160238Y-81998156D01*
X156212825Y-82076859D01*
X156253261Y-82137376D01*
X156317336Y-82292065D01*
X156350000Y-82456281D01*
X156350000Y-82623719D01*
X156317336Y-82787935D01*
X156296311Y-82838693D01*
X156253260Y-82942626D01*
X156160238Y-83081844D01*
X156041844Y-83200238D01*
X155902626Y-83293260D01*
X155902625Y-83293261D01*
X155902624Y-83293261D01*
X155747935Y-83357336D01*
X155583719Y-83390000D01*
X155416281Y-83390000D01*
X155252065Y-83357336D01*
X155097376Y-83293261D01*
X155097375Y-83293261D01*
X155097374Y-83293260D01*
X154958156Y-83200238D01*
X154839762Y-83081844D01*
X154746740Y-82942626D01*
X154703689Y-82838693D01*
X154682664Y-82787935D01*
X154650000Y-82623719D01*
X154650000Y-82456281D01*
X154682664Y-82292065D01*
X154746739Y-82137376D01*
X154787175Y-82076859D01*
X154839762Y-81998156D01*
X154958156Y-81879762D01*
X155097374Y-81786740D01*
X155097376Y-81786739D01*
X155252065Y-81722664D01*
X155416281Y-81690000D01*
X155583719Y-81690000D01*
X155747935Y-81722664D01*
G37*
G36*
X149147027Y-81680852D02*
G01*
X149288401Y-81723738D01*
X149418689Y-81793378D01*
X149532895Y-81887105D01*
X149626622Y-82001311D01*
X149696262Y-82131599D01*
X149739148Y-82272973D01*
X149753628Y-82420000D01*
X149739148Y-82567027D01*
X149696262Y-82708401D01*
X149626622Y-82838689D01*
X149532895Y-82952895D01*
X149418689Y-83046622D01*
X149288401Y-83116262D01*
X149147027Y-83159148D01*
X149036839Y-83170000D01*
X147963161Y-83170000D01*
X147852973Y-83159148D01*
X147711599Y-83116262D01*
X147581311Y-83046622D01*
X147467105Y-82952895D01*
X147373378Y-82838689D01*
X147303738Y-82708401D01*
X147260852Y-82567027D01*
X147246372Y-82420000D01*
X147260852Y-82272973D01*
X147303738Y-82131599D01*
X147373378Y-82001311D01*
X147467105Y-81887105D01*
X147581311Y-81793378D01*
X147711599Y-81723738D01*
X147852973Y-81680852D01*
X147963161Y-81670000D01*
X149036839Y-81670000D01*
X149147027Y-81680852D01*
G37*
G36*
X112147027Y-81680852D02*
G01*
X112288401Y-81723738D01*
X112418689Y-81793378D01*
X112532895Y-81887105D01*
X112626622Y-82001311D01*
X112696262Y-82131599D01*
X112739148Y-82272973D01*
X112753628Y-82420000D01*
X112739148Y-82567027D01*
X112696262Y-82708401D01*
X112626622Y-82838689D01*
X112532895Y-82952895D01*
X112418689Y-83046622D01*
X112288401Y-83116262D01*
X112147027Y-83159148D01*
X112036839Y-83170000D01*
X110963161Y-83170000D01*
X110852973Y-83159148D01*
X110711599Y-83116262D01*
X110581311Y-83046622D01*
X110467105Y-82952895D01*
X110373378Y-82838689D01*
X110303738Y-82708401D01*
X110260852Y-82567027D01*
X110246372Y-82420000D01*
X110260852Y-82272973D01*
X110303738Y-82131599D01*
X110373378Y-82001311D01*
X110467105Y-81887105D01*
X110581311Y-81793378D01*
X110711599Y-81723738D01*
X110852973Y-81680852D01*
X110963161Y-81670000D01*
X112036839Y-81670000D01*
X112147027Y-81680852D01*
G37*
G36*
X156350000Y-80850000D02*
G01*
X154650000Y-80850000D01*
X154650000Y-79150000D01*
X156350000Y-79150000D01*
X156350000Y-80850000D01*
G37*
G36*
X143762520Y-71634586D02*
G01*
X143926310Y-71702430D01*
X144073717Y-71800924D01*
X144199076Y-71926283D01*
X144297570Y-72073690D01*
X144365414Y-72237480D01*
X144400000Y-72411358D01*
X144400000Y-72588642D01*
X144365414Y-72762520D01*
X144297570Y-72926310D01*
X144199076Y-73073717D01*
X144073717Y-73199076D01*
X143926310Y-73297570D01*
X143926309Y-73297571D01*
X143926308Y-73297571D01*
X143762520Y-73365414D01*
X143588644Y-73400000D01*
X143411356Y-73400000D01*
X143237480Y-73365414D01*
X143073692Y-73297571D01*
X143073691Y-73297571D01*
X143073690Y-73297570D01*
X142926283Y-73199076D01*
X142800924Y-73073717D01*
X142702430Y-72926310D01*
X142634586Y-72762520D01*
X142600000Y-72588642D01*
X142600000Y-72411358D01*
X142634586Y-72237480D01*
X142702430Y-72073690D01*
X142800924Y-71926283D01*
X142926283Y-71800924D01*
X143073690Y-71702430D01*
X143237480Y-71634586D01*
X143411356Y-71600000D01*
X143588644Y-71600000D01*
X143762520Y-71634586D01*
G37*
G36*
X148762520Y-71634586D02*
G01*
X148926310Y-71702430D01*
X149073717Y-71800924D01*
X149199076Y-71926283D01*
X149297570Y-72073690D01*
X149365414Y-72237480D01*
X149400000Y-72411358D01*
X149400000Y-72588642D01*
X149365414Y-72762520D01*
X149297570Y-72926310D01*
X149199076Y-73073717D01*
X149073717Y-73199076D01*
X148926310Y-73297570D01*
X148926309Y-73297571D01*
X148926308Y-73297571D01*
X148762520Y-73365414D01*
X148588644Y-73400000D01*
X148411356Y-73400000D01*
X148237480Y-73365414D01*
X148073692Y-73297571D01*
X148073691Y-73297571D01*
X148073690Y-73297570D01*
X147926283Y-73199076D01*
X147800924Y-73073717D01*
X147702430Y-72926310D01*
X147634586Y-72762520D01*
X147600000Y-72588642D01*
X147600000Y-72411358D01*
X147634586Y-72237480D01*
X147702430Y-72073690D01*
X147800924Y-71926283D01*
X147926283Y-71800924D01*
X148073690Y-71702430D01*
X148237480Y-71634586D01*
X148411356Y-71600000D01*
X148588644Y-71600000D01*
X148762520Y-71634586D01*
G37*
G36*
X146262520Y-71634586D02*
G01*
X146426310Y-71702430D01*
X146573717Y-71800924D01*
X146699076Y-71926283D01*
X146797570Y-72073690D01*
X146865414Y-72237480D01*
X146900000Y-72411358D01*
X146900000Y-72588642D01*
X146865414Y-72762520D01*
X146797570Y-72926310D01*
X146699076Y-73073717D01*
X146573717Y-73199076D01*
X146426310Y-73297570D01*
X146426309Y-73297571D01*
X146426308Y-73297571D01*
X146262520Y-73365414D01*
X146088644Y-73400000D01*
X145911356Y-73400000D01*
X145737480Y-73365414D01*
X145573692Y-73297571D01*
X145573691Y-73297571D01*
X145573690Y-73297570D01*
X145426283Y-73199076D01*
X145300924Y-73073717D01*
X145202430Y-72926310D01*
X145134586Y-72762520D01*
X145100000Y-72588642D01*
X145100000Y-72411358D01*
X145134586Y-72237480D01*
X145202430Y-72073690D01*
X145300924Y-71926283D01*
X145426283Y-71800924D01*
X145573690Y-71702430D01*
X145737480Y-71634586D01*
X145911356Y-71600000D01*
X146088644Y-71600000D01*
X146262520Y-71634586D01*
G37*
G36*
X116762520Y-71634586D02*
G01*
X116926310Y-71702430D01*
X117073717Y-71800924D01*
X117199076Y-71926283D01*
X117297570Y-72073690D01*
X117365414Y-72237480D01*
X117400000Y-72411358D01*
X117400000Y-72588642D01*
X117365414Y-72762520D01*
X117297570Y-72926310D01*
X117199076Y-73073717D01*
X117073717Y-73199076D01*
X116926310Y-73297570D01*
X116926309Y-73297571D01*
X116926308Y-73297571D01*
X116762520Y-73365414D01*
X116588644Y-73400000D01*
X116411356Y-73400000D01*
X116237480Y-73365414D01*
X116073692Y-73297571D01*
X116073691Y-73297571D01*
X116073690Y-73297570D01*
X115926283Y-73199076D01*
X115800924Y-73073717D01*
X115702430Y-72926310D01*
X115634586Y-72762520D01*
X115600000Y-72588642D01*
X115600000Y-72411358D01*
X115634586Y-72237480D01*
X115702430Y-72073690D01*
X115800924Y-71926283D01*
X115926283Y-71800924D01*
X116073690Y-71702430D01*
X116237480Y-71634586D01*
X116411356Y-71600000D01*
X116588644Y-71600000D01*
X116762520Y-71634586D01*
G37*
G36*
X114262520Y-71634586D02*
G01*
X114426310Y-71702430D01*
X114573717Y-71800924D01*
X114699076Y-71926283D01*
X114797570Y-72073690D01*
X114865414Y-72237480D01*
X114900000Y-72411358D01*
X114900000Y-72588642D01*
X114865414Y-72762520D01*
X114797570Y-72926310D01*
X114699076Y-73073717D01*
X114573717Y-73199076D01*
X114426310Y-73297570D01*
X114426309Y-73297571D01*
X114426308Y-73297571D01*
X114262520Y-73365414D01*
X114088644Y-73400000D01*
X113911356Y-73400000D01*
X113737480Y-73365414D01*
X113573692Y-73297571D01*
X113573691Y-73297571D01*
X113573690Y-73297570D01*
X113426283Y-73199076D01*
X113300924Y-73073717D01*
X113202430Y-72926310D01*
X113134586Y-72762520D01*
X113100000Y-72588642D01*
X113100000Y-72411358D01*
X113134586Y-72237480D01*
X113202430Y-72073690D01*
X113300924Y-71926283D01*
X113426283Y-71800924D01*
X113573690Y-71702430D01*
X113737480Y-71634586D01*
X113911356Y-71600000D01*
X114088644Y-71600000D01*
X114262520Y-71634586D01*
G37*
G36*
X111762520Y-71634586D02*
G01*
X111926310Y-71702430D01*
X112073717Y-71800924D01*
X112199076Y-71926283D01*
X112297570Y-72073690D01*
X112365414Y-72237480D01*
X112400000Y-72411358D01*
X112400000Y-72588642D01*
X112365414Y-72762520D01*
X112297570Y-72926310D01*
X112199076Y-73073717D01*
X112073717Y-73199076D01*
X111926310Y-73297570D01*
X111926309Y-73297571D01*
X111926308Y-73297571D01*
X111762520Y-73365414D01*
X111588644Y-73400000D01*
X111411356Y-73400000D01*
X111237480Y-73365414D01*
X111073692Y-73297571D01*
X111073691Y-73297571D01*
X111073690Y-73297570D01*
X110926283Y-73199076D01*
X110800924Y-73073717D01*
X110702430Y-72926310D01*
X110634586Y-72762520D01*
X110600000Y-72588642D01*
X110600000Y-72411358D01*
X110634586Y-72237480D01*
X110702430Y-72073690D01*
X110800924Y-71926283D01*
X110926283Y-71800924D01*
X111073690Y-71702430D01*
X111237480Y-71634586D01*
X111411356Y-71600000D01*
X111588644Y-71600000D01*
X111762520Y-71634586D01*
G37*
G36*
X142183377Y-63576858D02*
G01*
X142547353Y-63727622D01*
X142547355Y-63727623D01*
X142712251Y-63837803D01*
X142874925Y-63946498D01*
X143153502Y-64225075D01*
X143372378Y-64552647D01*
X143523142Y-64916623D01*
X143600000Y-65303016D01*
X143600000Y-65696984D01*
X143523142Y-66083377D01*
X143372378Y-66447353D01*
X143372377Y-66447355D01*
X143153501Y-66774926D01*
X142874926Y-67053501D01*
X142547355Y-67272377D01*
X142547354Y-67272378D01*
X142547353Y-67272378D01*
X142183377Y-67423142D01*
X141796984Y-67500000D01*
X141403016Y-67500000D01*
X141016623Y-67423142D01*
X140652647Y-67272378D01*
X140652646Y-67272378D01*
X140652645Y-67272377D01*
X140325074Y-67053501D01*
X140046499Y-66774926D01*
X139827623Y-66447355D01*
X139827622Y-66447353D01*
X139676858Y-66083377D01*
X139600000Y-65696984D01*
X139600000Y-65303016D01*
X139676858Y-64916623D01*
X139827622Y-64552647D01*
X140046498Y-64225075D01*
X140325075Y-63946498D01*
X140487749Y-63837803D01*
X140652645Y-63727623D01*
X140652647Y-63727622D01*
X141016623Y-63576858D01*
X141403016Y-63500000D01*
X141796984Y-63500000D01*
X142183377Y-63576858D01*
G37*
G36*
X110183377Y-63576858D02*
G01*
X110547353Y-63727622D01*
X110547355Y-63727623D01*
X110712251Y-63837803D01*
X110874925Y-63946498D01*
X111153502Y-64225075D01*
X111372378Y-64552647D01*
X111523142Y-64916623D01*
X111600000Y-65303016D01*
X111600000Y-65696984D01*
X111523142Y-66083377D01*
X111372378Y-66447353D01*
X111372377Y-66447355D01*
X111153501Y-66774926D01*
X110874926Y-67053501D01*
X110547355Y-67272377D01*
X110547354Y-67272378D01*
X110547353Y-67272378D01*
X110183377Y-67423142D01*
X109796984Y-67500000D01*
X109403016Y-67500000D01*
X109016623Y-67423142D01*
X108652647Y-67272378D01*
X108652646Y-67272378D01*
X108652645Y-67272377D01*
X108325074Y-67053501D01*
X108046499Y-66774926D01*
X107827623Y-66447355D01*
X107827622Y-66447353D01*
X107676858Y-66083377D01*
X107600000Y-65696984D01*
X107600000Y-65303016D01*
X107676858Y-64916623D01*
X107827622Y-64552647D01*
X108046498Y-64225075D01*
X108325075Y-63946498D01*
X108487749Y-63837803D01*
X108652645Y-63727623D01*
X108652647Y-63727622D01*
X109016623Y-63576858D01*
X109403016Y-63500000D01*
X109796984Y-63500000D01*
X110183377Y-63576858D01*
G37*
G36*
X118983377Y-63576858D02*
G01*
X119347353Y-63727622D01*
X119347355Y-63727623D01*
X119512251Y-63837803D01*
X119674925Y-63946498D01*
X119953502Y-64225075D01*
X120172378Y-64552647D01*
X120323142Y-64916623D01*
X120400000Y-65303016D01*
X120400000Y-65696984D01*
X120323142Y-66083377D01*
X120172378Y-66447353D01*
X120172377Y-66447355D01*
X119953501Y-66774926D01*
X119674926Y-67053501D01*
X119347355Y-67272377D01*
X119347354Y-67272378D01*
X119347353Y-67272378D01*
X118983377Y-67423142D01*
X118596984Y-67500000D01*
X118203016Y-67500000D01*
X117816623Y-67423142D01*
X117452647Y-67272378D01*
X117452646Y-67272378D01*
X117452645Y-67272377D01*
X117125074Y-67053501D01*
X116846499Y-66774926D01*
X116627623Y-66447355D01*
X116627622Y-66447353D01*
X116476858Y-66083377D01*
X116400000Y-65696984D01*
X116400000Y-65303016D01*
X116476858Y-64916623D01*
X116627622Y-64552647D01*
X116846498Y-64225075D01*
X117125075Y-63946498D01*
X117287749Y-63837803D01*
X117452645Y-63727623D01*
X117452647Y-63727622D01*
X117816623Y-63576858D01*
X118203016Y-63500000D01*
X118596984Y-63500000D01*
X118983377Y-63576858D01*
G37*
G36*
X150983377Y-63576858D02*
G01*
X151347353Y-63727622D01*
X151347355Y-63727623D01*
X151512251Y-63837803D01*
X151674925Y-63946498D01*
X151953502Y-64225075D01*
X152172378Y-64552647D01*
X152323142Y-64916623D01*
X152400000Y-65303016D01*
X152400000Y-65696984D01*
X152323142Y-66083377D01*
X152172378Y-66447353D01*
X152172377Y-66447355D01*
X151953501Y-66774926D01*
X151674926Y-67053501D01*
X151347355Y-67272377D01*
X151347354Y-67272378D01*
X151347353Y-67272378D01*
X150983377Y-67423142D01*
X150596984Y-67500000D01*
X150203016Y-67500000D01*
X149816623Y-67423142D01*
X149452647Y-67272378D01*
X149452646Y-67272378D01*
X149452645Y-67272377D01*
X149125074Y-67053501D01*
X148846499Y-66774926D01*
X148627623Y-66447355D01*
X148627622Y-66447353D01*
X148476858Y-66083377D01*
X148400000Y-65696984D01*
X148400000Y-65303016D01*
X148476858Y-64916623D01*
X148627622Y-64552647D01*
X148846498Y-64225075D01*
X149125075Y-63946498D01*
X149287749Y-63837803D01*
X149452645Y-63727623D01*
X149452647Y-63727622D01*
X149816623Y-63576858D01*
X150203016Y-63500000D01*
X150596984Y-63500000D01*
X150983377Y-63576858D01*
G37*
M02*
