G04 #@! TF.GenerationSoftware,KiCad,Pcbnew,(5.1.5)-3*
G04 #@! TF.CreationDate,2020-05-14T10:55:58+01:00*
G04 #@! TF.ProjectId,AddaTone Controls,41646461-546f-46e6-9520-436f6e74726f,rev?*
G04 #@! TF.SameCoordinates,Original*
G04 #@! TF.FileFunction,Copper,L2,Bot*
G04 #@! TF.FilePolarity,Positive*
%FSLAX46Y46*%
G04 Gerber Fmt 4.6, Leading zero omitted, Abs format (unit mm)*
G04 Created by KiCad (PCBNEW (5.1.5)-3) date 2020-05-14 10:55:58*
%MOMM*%
%LPD*%
G04 APERTURE LIST*
%ADD10C,2.000000*%
%ADD11R,1.700000X1.700000*%
%ADD12O,1.700000X1.700000*%
%ADD13C,1.800000*%
%ADD14C,4.000000*%
%ADD15R,2.500000X1.000000*%
%ADD16R,2.500000X1.500000*%
%ADD17O,2.500000X1.500000*%
%ADD18C,0.800000*%
%ADD19C,0.500000*%
%ADD20C,0.254000*%
G04 APERTURE END LIST*
D10*
X150500000Y-108000000D03*
X150500000Y-103500000D03*
X144000000Y-108000000D03*
X144000000Y-103500000D03*
D11*
X155500000Y-80000000D03*
D12*
X155500000Y-82540000D03*
X155500000Y-85080000D03*
X155500000Y-87620000D03*
X155500000Y-90160000D03*
X155500000Y-92700000D03*
X155500000Y-95240000D03*
X155500000Y-97780000D03*
X155500000Y-100320000D03*
X155500000Y-102860000D03*
X155500000Y-105400000D03*
X155500000Y-107940000D03*
D11*
X102800000Y-102300000D03*
D12*
X102800000Y-104840000D03*
X102800000Y-107380000D03*
X102800000Y-109920000D03*
X102800000Y-112460000D03*
X102800000Y-115000000D03*
X102800000Y-117540000D03*
X102800000Y-120080000D03*
X102800000Y-122620000D03*
X102800000Y-125160000D03*
D13*
X116500000Y-132500000D03*
X114000000Y-132500000D03*
X111500000Y-132500000D03*
D14*
X118400000Y-125500000D03*
X109600000Y-125500000D03*
X125600000Y-106000000D03*
X134400000Y-106000000D03*
D13*
X127500000Y-113000000D03*
X130000000Y-113000000D03*
X132500000Y-113000000D03*
D14*
X141600000Y-125500000D03*
X150400000Y-125500000D03*
D13*
X143500000Y-132500000D03*
X146000000Y-132500000D03*
X148500000Y-132500000D03*
D14*
X141600000Y-65500000D03*
X150400000Y-65500000D03*
D13*
X143500000Y-72500000D03*
X146000000Y-72500000D03*
X148500000Y-72500000D03*
X116500000Y-72500000D03*
X114000000Y-72500000D03*
X111500000Y-72500000D03*
D14*
X118400000Y-65500000D03*
X109600000Y-65500000D03*
D13*
X132500000Y-91000000D03*
X130000000Y-91000000D03*
X127500000Y-91000000D03*
D14*
X134400000Y-84000000D03*
X125600000Y-84000000D03*
D15*
X135000000Y-146080000D03*
X135000000Y-154380000D03*
X135000000Y-157480000D03*
X145000000Y-157480000D03*
X145000000Y-154380000D03*
X145000000Y-146080000D03*
X115000000Y-146080000D03*
X115000000Y-154380000D03*
X115000000Y-157480000D03*
X125000000Y-157480000D03*
X125000000Y-154380000D03*
X125000000Y-146080000D03*
X155000000Y-146080000D03*
X155000000Y-154380000D03*
X155000000Y-157480000D03*
X105000000Y-157480000D03*
X105000000Y-154380000D03*
X105000000Y-146080000D03*
D10*
X109500000Y-103500000D03*
X109500000Y-108000000D03*
X116000000Y-103500000D03*
X116000000Y-108000000D03*
D16*
X111500000Y-87500000D03*
D17*
X111500000Y-84960000D03*
X111500000Y-82420000D03*
X148500000Y-82420000D03*
X148500000Y-84960000D03*
D16*
X148500000Y-87500000D03*
D18*
X133000000Y-125400000D03*
X122400000Y-99300000D03*
X121500000Y-115300000D03*
X137500000Y-122000000D03*
X122200000Y-113400000D03*
X106600000Y-113200000D03*
X118300000Y-101100000D03*
X152000000Y-95500000D03*
X107800000Y-116600000D03*
X149500000Y-92700000D03*
D19*
X141450001Y-127950001D02*
X135850001Y-127950001D01*
X146000000Y-132500000D02*
X141450001Y-127950001D01*
X135850001Y-127950001D02*
X133300000Y-125400000D01*
X133300000Y-125400000D02*
X133000000Y-125400000D01*
X154297919Y-82540000D02*
X155500000Y-82540000D01*
X152267208Y-82540000D02*
X154297919Y-82540000D01*
X143500000Y-73772792D02*
X152267208Y-82540000D01*
X143500000Y-72500000D02*
X143500000Y-73772792D01*
X142227208Y-72500000D02*
X143500000Y-72500000D01*
X127500000Y-87227208D02*
X142227208Y-72500000D01*
X127500000Y-91000000D02*
X127500000Y-87227208D01*
X126600001Y-90100001D02*
X127500000Y-91000000D01*
X112399999Y-75899999D02*
X126600001Y-90100001D01*
X112399999Y-73399999D02*
X112399999Y-75899999D01*
X111500000Y-72500000D02*
X112399999Y-73399999D01*
X128399999Y-105299999D02*
X122400000Y-99300000D01*
X127500000Y-113000000D02*
X128399999Y-112100001D01*
X128399999Y-112100001D02*
X128399999Y-105299999D01*
X112399999Y-124400001D02*
X121500000Y-115300000D01*
X111500000Y-132500000D02*
X112399999Y-131600001D01*
X112399999Y-131600001D02*
X112399999Y-124400001D01*
X144399999Y-133399999D02*
X143500000Y-132500000D01*
X144850001Y-133850001D02*
X144399999Y-133399999D01*
X149148001Y-133850001D02*
X144850001Y-133850001D01*
X149850001Y-130123999D02*
X149850001Y-133148001D01*
X149850001Y-133148001D02*
X149148001Y-133850001D01*
X141726002Y-122000000D02*
X149850001Y-130123999D01*
X137500000Y-122000000D02*
X141726002Y-122000000D01*
X144000000Y-103500000D02*
X150500000Y-103500000D01*
X154297919Y-97780000D02*
X155500000Y-97780000D01*
X120305787Y-97780000D02*
X154297919Y-97780000D01*
X116000000Y-102085787D02*
X120305787Y-97780000D01*
X116000000Y-103500000D02*
X116000000Y-102085787D01*
X154297919Y-105400000D02*
X155500000Y-105400000D01*
X150953998Y-105400000D02*
X154297919Y-105400000D01*
X132149999Y-124203999D02*
X150953998Y-105400000D01*
X117789961Y-147030001D02*
X132149999Y-132669963D01*
X107700001Y-147030001D02*
X117789961Y-147030001D01*
X106750000Y-146080000D02*
X107700001Y-147030001D01*
X132149999Y-132669963D02*
X132149999Y-124203999D01*
X106000000Y-146080000D02*
X106750000Y-146080000D01*
X114560000Y-113400000D02*
X102800000Y-125160000D01*
X122200000Y-113400000D02*
X114560000Y-113400000D01*
X104002081Y-122620000D02*
X111500000Y-115122081D01*
X111500000Y-115122081D02*
X111500000Y-87750000D01*
X102800000Y-122620000D02*
X104002081Y-122620000D01*
X114000000Y-71227208D02*
X114727208Y-70500000D01*
X114000000Y-72500000D02*
X114000000Y-71227208D01*
X114727208Y-70500000D02*
X154100000Y-70500000D01*
X154100000Y-70500000D02*
X159000000Y-75400000D01*
X159000000Y-96820000D02*
X155500000Y-100320000D01*
X159000000Y-75400000D02*
X159000000Y-96820000D01*
X102800000Y-117000000D02*
X102800000Y-117540000D01*
X106600000Y-113200000D02*
X102800000Y-117000000D01*
X123050001Y-140779999D02*
X123050001Y-105850001D01*
X116000000Y-146080000D02*
X117750000Y-146080000D01*
X123050001Y-105850001D02*
X118300000Y-101100000D01*
X117750000Y-146080000D02*
X123050001Y-140779999D01*
X154297919Y-87620000D02*
X155500000Y-87620000D01*
X153321998Y-87620000D02*
X154297919Y-87620000D01*
X148649999Y-92291999D02*
X153321998Y-87620000D01*
X151041998Y-95500000D02*
X148649999Y-93108001D01*
X148649999Y-93108001D02*
X148649999Y-92291999D01*
X152000000Y-95500000D02*
X151041998Y-95500000D01*
X107800000Y-109840000D02*
X102800000Y-104840000D01*
X107800000Y-116600000D02*
X107800000Y-109840000D01*
X149500000Y-92700000D02*
X155500000Y-92700000D01*
D20*
G36*
X159265000Y-74413421D02*
G01*
X154756534Y-69904956D01*
X154728817Y-69871183D01*
X154594059Y-69760589D01*
X154440313Y-69678411D01*
X154273490Y-69627805D01*
X154143477Y-69615000D01*
X154143469Y-69615000D01*
X154100000Y-69610719D01*
X154056531Y-69615000D01*
X114770673Y-69615000D01*
X114727207Y-69610719D01*
X114683741Y-69615000D01*
X114683731Y-69615000D01*
X114553718Y-69627805D01*
X114386895Y-69678411D01*
X114233149Y-69760589D01*
X114233147Y-69760590D01*
X114233148Y-69760590D01*
X114132161Y-69843468D01*
X114132159Y-69843470D01*
X114098391Y-69871183D01*
X114070678Y-69904951D01*
X113404951Y-70570679D01*
X113371184Y-70598391D01*
X113343471Y-70632159D01*
X113343468Y-70632162D01*
X113260590Y-70733149D01*
X113178412Y-70886895D01*
X113127805Y-71053718D01*
X113110719Y-71227208D01*
X113112647Y-71246782D01*
X113021495Y-71307688D01*
X112807688Y-71521495D01*
X112750000Y-71607831D01*
X112692312Y-71521495D01*
X112478505Y-71307688D01*
X112227095Y-71139701D01*
X111947743Y-71023989D01*
X111651184Y-70965000D01*
X111348816Y-70965000D01*
X111052257Y-71023989D01*
X110772905Y-71139701D01*
X110521495Y-71307688D01*
X110307688Y-71521495D01*
X110139701Y-71772905D01*
X110023989Y-72052257D01*
X109965000Y-72348816D01*
X109965000Y-72651184D01*
X110023989Y-72947743D01*
X110139701Y-73227095D01*
X110307688Y-73478505D01*
X110521495Y-73692312D01*
X110772905Y-73860299D01*
X111052257Y-73976011D01*
X111348816Y-74035000D01*
X111514999Y-74035000D01*
X111515000Y-75856520D01*
X111510718Y-75899999D01*
X111527804Y-76073489D01*
X111578411Y-76240312D01*
X111660589Y-76394058D01*
X111743467Y-76495045D01*
X111743470Y-76495048D01*
X111771183Y-76528816D01*
X111804951Y-76556529D01*
X125986939Y-90738518D01*
X125965000Y-90848816D01*
X125965000Y-91151184D01*
X126023989Y-91447743D01*
X126139701Y-91727095D01*
X126307688Y-91978505D01*
X126521495Y-92192312D01*
X126772905Y-92360299D01*
X127052257Y-92476011D01*
X127348816Y-92535000D01*
X127651184Y-92535000D01*
X127947743Y-92476011D01*
X128227095Y-92360299D01*
X128478505Y-92192312D01*
X128692312Y-91978505D01*
X128750000Y-91892169D01*
X128807688Y-91978505D01*
X129021495Y-92192312D01*
X129272905Y-92360299D01*
X129552257Y-92476011D01*
X129848816Y-92535000D01*
X130151184Y-92535000D01*
X130447743Y-92476011D01*
X130727095Y-92360299D01*
X130978505Y-92192312D01*
X131106737Y-92064080D01*
X131615525Y-92064080D01*
X131699208Y-92318261D01*
X131971775Y-92449158D01*
X132264642Y-92524365D01*
X132566553Y-92540991D01*
X132865907Y-92498397D01*
X133151199Y-92398222D01*
X133300792Y-92318261D01*
X133384475Y-92064080D01*
X132500000Y-91179605D01*
X131615525Y-92064080D01*
X131106737Y-92064080D01*
X131192312Y-91978505D01*
X131287738Y-91835690D01*
X131435920Y-91884475D01*
X132320395Y-91000000D01*
X132679605Y-91000000D01*
X133564080Y-91884475D01*
X133818261Y-91800792D01*
X133949158Y-91528225D01*
X134024365Y-91235358D01*
X134040991Y-90933447D01*
X133998397Y-90634093D01*
X133898222Y-90348801D01*
X133818261Y-90199208D01*
X133564080Y-90115525D01*
X132679605Y-91000000D01*
X132320395Y-91000000D01*
X131435920Y-90115525D01*
X131287738Y-90164310D01*
X131192312Y-90021495D01*
X131106737Y-89935920D01*
X131615525Y-89935920D01*
X132500000Y-90820395D01*
X133384475Y-89935920D01*
X133300792Y-89681739D01*
X133028225Y-89550842D01*
X132735358Y-89475635D01*
X132433447Y-89459009D01*
X132134093Y-89501603D01*
X131848801Y-89601778D01*
X131699208Y-89681739D01*
X131615525Y-89935920D01*
X131106737Y-89935920D01*
X130978505Y-89807688D01*
X130727095Y-89639701D01*
X130447743Y-89523989D01*
X130151184Y-89465000D01*
X129848816Y-89465000D01*
X129552257Y-89523989D01*
X129272905Y-89639701D01*
X129021495Y-89807688D01*
X128807688Y-90021495D01*
X128750000Y-90107831D01*
X128692312Y-90021495D01*
X128478505Y-89807688D01*
X128385000Y-89745210D01*
X128385000Y-87593786D01*
X129228786Y-86750000D01*
X146611928Y-86750000D01*
X146611928Y-88250000D01*
X146624188Y-88374482D01*
X146660498Y-88494180D01*
X146719463Y-88604494D01*
X146798815Y-88701185D01*
X146895506Y-88780537D01*
X147005820Y-88839502D01*
X147125518Y-88875812D01*
X147250000Y-88888072D01*
X149750000Y-88888072D01*
X149874482Y-88875812D01*
X149994180Y-88839502D01*
X150104494Y-88780537D01*
X150201185Y-88701185D01*
X150280537Y-88604494D01*
X150339502Y-88494180D01*
X150375812Y-88374482D01*
X150388072Y-88250000D01*
X150388072Y-86750000D01*
X150375812Y-86625518D01*
X150339502Y-86505820D01*
X150280537Y-86395506D01*
X150201185Y-86298815D01*
X150104494Y-86219463D01*
X149994180Y-86160498D01*
X149874482Y-86124188D01*
X149765126Y-86113418D01*
X149875061Y-86041028D01*
X150069145Y-85849540D01*
X150222142Y-85623868D01*
X150328173Y-85372684D01*
X150342318Y-85301185D01*
X150219656Y-85087000D01*
X148627000Y-85087000D01*
X148627000Y-85107000D01*
X148373000Y-85107000D01*
X148373000Y-85087000D01*
X146780344Y-85087000D01*
X146657682Y-85301185D01*
X146671827Y-85372684D01*
X146777858Y-85623868D01*
X146930855Y-85849540D01*
X147124939Y-86041028D01*
X147234874Y-86113418D01*
X147125518Y-86124188D01*
X147005820Y-86160498D01*
X146895506Y-86219463D01*
X146798815Y-86298815D01*
X146719463Y-86395506D01*
X146660498Y-86505820D01*
X146624188Y-86625518D01*
X146611928Y-86750000D01*
X129228786Y-86750000D01*
X131765000Y-84213786D01*
X131765000Y-84259525D01*
X131866261Y-84768601D01*
X132064893Y-85248141D01*
X132353262Y-85679715D01*
X132720285Y-86046738D01*
X133151859Y-86335107D01*
X133631399Y-86533739D01*
X134140475Y-86635000D01*
X134659525Y-86635000D01*
X135168601Y-86533739D01*
X135648141Y-86335107D01*
X136079715Y-86046738D01*
X136446738Y-85679715D01*
X136735107Y-85248141D01*
X136933739Y-84768601D01*
X137035000Y-84259525D01*
X137035000Y-83740475D01*
X136933739Y-83231399D01*
X136735107Y-82751859D01*
X136446738Y-82320285D01*
X136079715Y-81953262D01*
X135648141Y-81664893D01*
X135168601Y-81466261D01*
X134659525Y-81365000D01*
X134613786Y-81365000D01*
X142403985Y-73574802D01*
X142521495Y-73692312D01*
X142612647Y-73753218D01*
X142610719Y-73772792D01*
X142627805Y-73946282D01*
X142678412Y-74113105D01*
X142760590Y-74266851D01*
X142843468Y-74367838D01*
X142843471Y-74367841D01*
X142871184Y-74401609D01*
X142904952Y-74429322D01*
X149698609Y-81222980D01*
X149532581Y-81134236D01*
X149271507Y-81055040D01*
X149068037Y-81035000D01*
X147931963Y-81035000D01*
X147728493Y-81055040D01*
X147467419Y-81134236D01*
X147226812Y-81262843D01*
X147015919Y-81435919D01*
X146842843Y-81646812D01*
X146714236Y-81887419D01*
X146635040Y-82148493D01*
X146608299Y-82420000D01*
X146635040Y-82691507D01*
X146714236Y-82952581D01*
X146842843Y-83193188D01*
X147015919Y-83404081D01*
X147226812Y-83577157D01*
X147442578Y-83692486D01*
X147352651Y-83729028D01*
X147124939Y-83878972D01*
X146930855Y-84070460D01*
X146777858Y-84296132D01*
X146671827Y-84547316D01*
X146657682Y-84618815D01*
X146780344Y-84833000D01*
X148373000Y-84833000D01*
X148373000Y-84813000D01*
X148627000Y-84813000D01*
X148627000Y-84833000D01*
X150219656Y-84833000D01*
X150342318Y-84618815D01*
X150328173Y-84547316D01*
X150222142Y-84296132D01*
X150069145Y-84070460D01*
X149875061Y-83878972D01*
X149647349Y-83729028D01*
X149557422Y-83692486D01*
X149773188Y-83577157D01*
X149984081Y-83404081D01*
X150157157Y-83193188D01*
X150285764Y-82952581D01*
X150364960Y-82691507D01*
X150391701Y-82420000D01*
X150364960Y-82148493D01*
X150285764Y-81887419D01*
X150197020Y-81721391D01*
X151610678Y-83135049D01*
X151638391Y-83168817D01*
X151672159Y-83196530D01*
X151672161Y-83196532D01*
X151714647Y-83231399D01*
X151773149Y-83279411D01*
X151926895Y-83361589D01*
X152093718Y-83412195D01*
X152223731Y-83425000D01*
X152223741Y-83425000D01*
X152267207Y-83429281D01*
X152310673Y-83425000D01*
X154305344Y-83425000D01*
X154346525Y-83486632D01*
X154553368Y-83693475D01*
X154735534Y-83815195D01*
X154618645Y-83884822D01*
X154402412Y-84079731D01*
X154228359Y-84313080D01*
X154103175Y-84575901D01*
X154058524Y-84723110D01*
X154179845Y-84953000D01*
X155373000Y-84953000D01*
X155373000Y-84933000D01*
X155627000Y-84933000D01*
X155627000Y-84953000D01*
X156820155Y-84953000D01*
X156941476Y-84723110D01*
X156896825Y-84575901D01*
X156771641Y-84313080D01*
X156597588Y-84079731D01*
X156381355Y-83884822D01*
X156264466Y-83815195D01*
X156446632Y-83693475D01*
X156653475Y-83486632D01*
X156815990Y-83243411D01*
X156927932Y-82973158D01*
X156985000Y-82686260D01*
X156985000Y-82393740D01*
X156927932Y-82106842D01*
X156815990Y-81836589D01*
X156653475Y-81593368D01*
X156521620Y-81461513D01*
X156594180Y-81439502D01*
X156704494Y-81380537D01*
X156801185Y-81301185D01*
X156880537Y-81204494D01*
X156939502Y-81094180D01*
X156975812Y-80974482D01*
X156988072Y-80850000D01*
X156988072Y-79150000D01*
X156975812Y-79025518D01*
X156939502Y-78905820D01*
X156880537Y-78795506D01*
X156801185Y-78698815D01*
X156704494Y-78619463D01*
X156594180Y-78560498D01*
X156474482Y-78524188D01*
X156350000Y-78511928D01*
X154650000Y-78511928D01*
X154525518Y-78524188D01*
X154405820Y-78560498D01*
X154295506Y-78619463D01*
X154198815Y-78698815D01*
X154119463Y-78795506D01*
X154060498Y-78905820D01*
X154024188Y-79025518D01*
X154011928Y-79150000D01*
X154011928Y-80850000D01*
X154024188Y-80974482D01*
X154060498Y-81094180D01*
X154119463Y-81204494D01*
X154198815Y-81301185D01*
X154295506Y-81380537D01*
X154405820Y-81439502D01*
X154478380Y-81461513D01*
X154346525Y-81593368D01*
X154305344Y-81655000D01*
X152633787Y-81655000D01*
X144574802Y-73596015D01*
X144692312Y-73478505D01*
X144750000Y-73392169D01*
X144807688Y-73478505D01*
X145021495Y-73692312D01*
X145272905Y-73860299D01*
X145552257Y-73976011D01*
X145848816Y-74035000D01*
X146151184Y-74035000D01*
X146447743Y-73976011D01*
X146727095Y-73860299D01*
X146978505Y-73692312D01*
X147106737Y-73564080D01*
X147615525Y-73564080D01*
X147699208Y-73818261D01*
X147971775Y-73949158D01*
X148264642Y-74024365D01*
X148566553Y-74040991D01*
X148865907Y-73998397D01*
X149151199Y-73898222D01*
X149300792Y-73818261D01*
X149384475Y-73564080D01*
X148500000Y-72679605D01*
X147615525Y-73564080D01*
X147106737Y-73564080D01*
X147192312Y-73478505D01*
X147287738Y-73335690D01*
X147435920Y-73384475D01*
X148320395Y-72500000D01*
X148679605Y-72500000D01*
X149564080Y-73384475D01*
X149818261Y-73300792D01*
X149949158Y-73028225D01*
X150024365Y-72735358D01*
X150040991Y-72433447D01*
X149998397Y-72134093D01*
X149898222Y-71848801D01*
X149818261Y-71699208D01*
X149564080Y-71615525D01*
X148679605Y-72500000D01*
X148320395Y-72500000D01*
X147435920Y-71615525D01*
X147287738Y-71664310D01*
X147192312Y-71521495D01*
X147055817Y-71385000D01*
X147632289Y-71385000D01*
X147615525Y-71435920D01*
X148500000Y-72320395D01*
X149384475Y-71435920D01*
X149367711Y-71385000D01*
X153733422Y-71385000D01*
X158115000Y-75766579D01*
X158115001Y-96453420D01*
X156976652Y-97591770D01*
X156927932Y-97346842D01*
X156815990Y-97076589D01*
X156653475Y-96833368D01*
X156446632Y-96626525D01*
X156272240Y-96510000D01*
X156446632Y-96393475D01*
X156653475Y-96186632D01*
X156815990Y-95943411D01*
X156927932Y-95673158D01*
X156985000Y-95386260D01*
X156985000Y-95093740D01*
X156927932Y-94806842D01*
X156815990Y-94536589D01*
X156653475Y-94293368D01*
X156446632Y-94086525D01*
X156272240Y-93970000D01*
X156446632Y-93853475D01*
X156653475Y-93646632D01*
X156815990Y-93403411D01*
X156927932Y-93133158D01*
X156985000Y-92846260D01*
X156985000Y-92553740D01*
X156927932Y-92266842D01*
X156815990Y-91996589D01*
X156653475Y-91753368D01*
X156446632Y-91546525D01*
X156272240Y-91430000D01*
X156446632Y-91313475D01*
X156653475Y-91106632D01*
X156815990Y-90863411D01*
X156927932Y-90593158D01*
X156985000Y-90306260D01*
X156985000Y-90013740D01*
X156927932Y-89726842D01*
X156815990Y-89456589D01*
X156653475Y-89213368D01*
X156446632Y-89006525D01*
X156272240Y-88890000D01*
X156446632Y-88773475D01*
X156653475Y-88566632D01*
X156815990Y-88323411D01*
X156927932Y-88053158D01*
X156985000Y-87766260D01*
X156985000Y-87473740D01*
X156927932Y-87186842D01*
X156815990Y-86916589D01*
X156653475Y-86673368D01*
X156446632Y-86466525D01*
X156264466Y-86344805D01*
X156381355Y-86275178D01*
X156597588Y-86080269D01*
X156771641Y-85846920D01*
X156896825Y-85584099D01*
X156941476Y-85436890D01*
X156820155Y-85207000D01*
X155627000Y-85207000D01*
X155627000Y-85227000D01*
X155373000Y-85227000D01*
X155373000Y-85207000D01*
X154179845Y-85207000D01*
X154058524Y-85436890D01*
X154103175Y-85584099D01*
X154228359Y-85846920D01*
X154402412Y-86080269D01*
X154618645Y-86275178D01*
X154735534Y-86344805D01*
X154553368Y-86466525D01*
X154346525Y-86673368D01*
X154305344Y-86735000D01*
X153365463Y-86735000D01*
X153321997Y-86730719D01*
X153278531Y-86735000D01*
X153278521Y-86735000D01*
X153148508Y-86747805D01*
X152981685Y-86798411D01*
X152827939Y-86880589D01*
X152827937Y-86880590D01*
X152827938Y-86880590D01*
X152726951Y-86963468D01*
X152726949Y-86963470D01*
X152693181Y-86991183D01*
X152665468Y-87024951D01*
X148054951Y-91635469D01*
X148021183Y-91663182D01*
X147993470Y-91696950D01*
X147993467Y-91696953D01*
X147910589Y-91797940D01*
X147828411Y-91951686D01*
X147777804Y-92118509D01*
X147770657Y-92191078D01*
X147764999Y-92248522D01*
X147764999Y-92248530D01*
X147760718Y-92291999D01*
X147764999Y-92335468D01*
X147764999Y-93064532D01*
X147760718Y-93108001D01*
X147764999Y-93151470D01*
X147764999Y-93151477D01*
X147777804Y-93281490D01*
X147828410Y-93448313D01*
X147910588Y-93602059D01*
X148021182Y-93736818D01*
X148054955Y-93764535D01*
X150385468Y-96095049D01*
X150413181Y-96128817D01*
X150446949Y-96156530D01*
X150446951Y-96156532D01*
X150518450Y-96215210D01*
X150547939Y-96239411D01*
X150701685Y-96321589D01*
X150868508Y-96372195D01*
X150998521Y-96385000D01*
X150998531Y-96385000D01*
X151041997Y-96389281D01*
X151085463Y-96385000D01*
X151461546Y-96385000D01*
X151509744Y-96417205D01*
X151698102Y-96495226D01*
X151898061Y-96535000D01*
X152101939Y-96535000D01*
X152301898Y-96495226D01*
X152490256Y-96417205D01*
X152659774Y-96303937D01*
X152803937Y-96159774D01*
X152917205Y-95990256D01*
X152995226Y-95801898D01*
X153035000Y-95601939D01*
X153035000Y-95398061D01*
X152995226Y-95198102D01*
X152917205Y-95009744D01*
X152803937Y-94840226D01*
X152659774Y-94696063D01*
X152490256Y-94582795D01*
X152301898Y-94504774D01*
X152101939Y-94465000D01*
X151898061Y-94465000D01*
X151698102Y-94504774D01*
X151509744Y-94582795D01*
X151461546Y-94615000D01*
X151408577Y-94615000D01*
X150378576Y-93585000D01*
X154305344Y-93585000D01*
X154346525Y-93646632D01*
X154553368Y-93853475D01*
X154727760Y-93970000D01*
X154553368Y-94086525D01*
X154346525Y-94293368D01*
X154184010Y-94536589D01*
X154072068Y-94806842D01*
X154015000Y-95093740D01*
X154015000Y-95386260D01*
X154072068Y-95673158D01*
X154184010Y-95943411D01*
X154346525Y-96186632D01*
X154553368Y-96393475D01*
X154727760Y-96510000D01*
X154553368Y-96626525D01*
X154346525Y-96833368D01*
X154305344Y-96895000D01*
X120349252Y-96895000D01*
X120305786Y-96890719D01*
X120262320Y-96895000D01*
X120262310Y-96895000D01*
X120132297Y-96907805D01*
X119965474Y-96958411D01*
X119811728Y-97040589D01*
X119811726Y-97040590D01*
X119811727Y-97040590D01*
X119710740Y-97123468D01*
X119710738Y-97123470D01*
X119676970Y-97151183D01*
X119649257Y-97184951D01*
X115404951Y-101429257D01*
X115371184Y-101456970D01*
X115343471Y-101490738D01*
X115343468Y-101490741D01*
X115260590Y-101591728D01*
X115178412Y-101745474D01*
X115127805Y-101912297D01*
X115110719Y-102085787D01*
X115114601Y-102125207D01*
X114957748Y-102230013D01*
X114730013Y-102457748D01*
X114551082Y-102725537D01*
X114427832Y-103023088D01*
X114365000Y-103338967D01*
X114365000Y-103661033D01*
X114427832Y-103976912D01*
X114551082Y-104274463D01*
X114730013Y-104542252D01*
X114957748Y-104769987D01*
X115225537Y-104948918D01*
X115523088Y-105072168D01*
X115838967Y-105135000D01*
X116161033Y-105135000D01*
X116476912Y-105072168D01*
X116774463Y-104948918D01*
X117042252Y-104769987D01*
X117269987Y-104542252D01*
X117448918Y-104274463D01*
X117572168Y-103976912D01*
X117635000Y-103661033D01*
X117635000Y-103338967D01*
X117572168Y-103023088D01*
X117448918Y-102725537D01*
X117269987Y-102457748D01*
X117074802Y-102262563D01*
X117536827Y-101800538D01*
X117640226Y-101903937D01*
X117809744Y-102017205D01*
X117998102Y-102095226D01*
X118054957Y-102106535D01*
X122165002Y-106216581D01*
X122165002Y-112365000D01*
X122098061Y-112365000D01*
X121898102Y-112404774D01*
X121709744Y-112482795D01*
X121661546Y-112515000D01*
X114603465Y-112515000D01*
X114559999Y-112510719D01*
X114516533Y-112515000D01*
X114516523Y-112515000D01*
X114386510Y-112527805D01*
X114219687Y-112578411D01*
X114065941Y-112660589D01*
X114065939Y-112660590D01*
X114065940Y-112660590D01*
X113964953Y-112743468D01*
X113964951Y-112743470D01*
X113931183Y-112771183D01*
X113903470Y-112804951D01*
X112385000Y-114323421D01*
X112385000Y-109135413D01*
X115044192Y-109135413D01*
X115139956Y-109399814D01*
X115429571Y-109540704D01*
X115741108Y-109622384D01*
X116062595Y-109641718D01*
X116381675Y-109597961D01*
X116686088Y-109492795D01*
X116860044Y-109399814D01*
X116955808Y-109135413D01*
X116000000Y-108179605D01*
X115044192Y-109135413D01*
X112385000Y-109135413D01*
X112385000Y-108062595D01*
X114358282Y-108062595D01*
X114402039Y-108381675D01*
X114507205Y-108686088D01*
X114600186Y-108860044D01*
X114864587Y-108955808D01*
X115820395Y-108000000D01*
X116179605Y-108000000D01*
X117135413Y-108955808D01*
X117399814Y-108860044D01*
X117540704Y-108570429D01*
X117622384Y-108258892D01*
X117641718Y-107937405D01*
X117597961Y-107618325D01*
X117492795Y-107313912D01*
X117399814Y-107139956D01*
X117135413Y-107044192D01*
X116179605Y-108000000D01*
X115820395Y-108000000D01*
X114864587Y-107044192D01*
X114600186Y-107139956D01*
X114459296Y-107429571D01*
X114377616Y-107741108D01*
X114358282Y-108062595D01*
X112385000Y-108062595D01*
X112385000Y-106864587D01*
X115044192Y-106864587D01*
X116000000Y-107820395D01*
X116955808Y-106864587D01*
X116860044Y-106600186D01*
X116570429Y-106459296D01*
X116258892Y-106377616D01*
X115937405Y-106358282D01*
X115618325Y-106402039D01*
X115313912Y-106507205D01*
X115139956Y-106600186D01*
X115044192Y-106864587D01*
X112385000Y-106864587D01*
X112385000Y-88888072D01*
X112750000Y-88888072D01*
X112874482Y-88875812D01*
X112994180Y-88839502D01*
X113104494Y-88780537D01*
X113201185Y-88701185D01*
X113280537Y-88604494D01*
X113339502Y-88494180D01*
X113375812Y-88374482D01*
X113388072Y-88250000D01*
X113388072Y-86750000D01*
X113375812Y-86625518D01*
X113339502Y-86505820D01*
X113280537Y-86395506D01*
X113201185Y-86298815D01*
X113104494Y-86219463D01*
X112994180Y-86160498D01*
X112874482Y-86124188D01*
X112765126Y-86113418D01*
X112875061Y-86041028D01*
X113069145Y-85849540D01*
X113222142Y-85623868D01*
X113328173Y-85372684D01*
X113342318Y-85301185D01*
X113219656Y-85087000D01*
X111627000Y-85087000D01*
X111627000Y-85107000D01*
X111373000Y-85107000D01*
X111373000Y-85087000D01*
X109780344Y-85087000D01*
X109657682Y-85301185D01*
X109671827Y-85372684D01*
X109777858Y-85623868D01*
X109930855Y-85849540D01*
X110124939Y-86041028D01*
X110234874Y-86113418D01*
X110125518Y-86124188D01*
X110005820Y-86160498D01*
X109895506Y-86219463D01*
X109798815Y-86298815D01*
X109719463Y-86395506D01*
X109660498Y-86505820D01*
X109624188Y-86625518D01*
X109611928Y-86750000D01*
X109611928Y-88250000D01*
X109624188Y-88374482D01*
X109660498Y-88494180D01*
X109719463Y-88604494D01*
X109798815Y-88701185D01*
X109895506Y-88780537D01*
X110005820Y-88839502D01*
X110125518Y-88875812D01*
X110250000Y-88888072D01*
X110615001Y-88888072D01*
X110615000Y-102302761D01*
X110542252Y-102230013D01*
X110274463Y-102051082D01*
X109976912Y-101927832D01*
X109661033Y-101865000D01*
X109338967Y-101865000D01*
X109023088Y-101927832D01*
X108725537Y-102051082D01*
X108457748Y-102230013D01*
X108230013Y-102457748D01*
X108051082Y-102725537D01*
X107927832Y-103023088D01*
X107865000Y-103338967D01*
X107865000Y-103661033D01*
X107927832Y-103976912D01*
X108051082Y-104274463D01*
X108230013Y-104542252D01*
X108457748Y-104769987D01*
X108725537Y-104948918D01*
X109023088Y-105072168D01*
X109338967Y-105135000D01*
X109661033Y-105135000D01*
X109976912Y-105072168D01*
X110274463Y-104948918D01*
X110542252Y-104769987D01*
X110615000Y-104697239D01*
X110615000Y-106792442D01*
X110571475Y-106748917D01*
X110455807Y-106864585D01*
X110360044Y-106600186D01*
X110070429Y-106459296D01*
X109758892Y-106377616D01*
X109437405Y-106358282D01*
X109118325Y-106402039D01*
X108813912Y-106507205D01*
X108639956Y-106600186D01*
X108544192Y-106864587D01*
X109500000Y-107820395D01*
X109514143Y-107806253D01*
X109693748Y-107985858D01*
X109679605Y-108000000D01*
X109693748Y-108014143D01*
X109514143Y-108193748D01*
X109500000Y-108179605D01*
X109485858Y-108193748D01*
X109306253Y-108014143D01*
X109320395Y-108000000D01*
X108364587Y-107044192D01*
X108100186Y-107139956D01*
X107959296Y-107429571D01*
X107877616Y-107741108D01*
X107858282Y-108062595D01*
X107902039Y-108381675D01*
X108007205Y-108686088D01*
X108100186Y-108860044D01*
X108364585Y-108955807D01*
X108265985Y-109054407D01*
X104270539Y-105058961D01*
X104285000Y-104986260D01*
X104285000Y-104693740D01*
X104227932Y-104406842D01*
X104115990Y-104136589D01*
X103953475Y-103893368D01*
X103821620Y-103761513D01*
X103894180Y-103739502D01*
X104004494Y-103680537D01*
X104101185Y-103601185D01*
X104180537Y-103504494D01*
X104239502Y-103394180D01*
X104275812Y-103274482D01*
X104288072Y-103150000D01*
X104288072Y-101450000D01*
X104275812Y-101325518D01*
X104239502Y-101205820D01*
X104180537Y-101095506D01*
X104101185Y-100998815D01*
X104004494Y-100919463D01*
X103894180Y-100860498D01*
X103774482Y-100824188D01*
X103650000Y-100811928D01*
X101950000Y-100811928D01*
X101825518Y-100824188D01*
X101705820Y-100860498D01*
X101595506Y-100919463D01*
X101498815Y-100998815D01*
X101419463Y-101095506D01*
X101360498Y-101205820D01*
X101324188Y-101325518D01*
X101311928Y-101450000D01*
X101311928Y-103150000D01*
X101324188Y-103274482D01*
X101360498Y-103394180D01*
X101419463Y-103504494D01*
X101498815Y-103601185D01*
X101595506Y-103680537D01*
X101705820Y-103739502D01*
X101778380Y-103761513D01*
X101646525Y-103893368D01*
X101484010Y-104136589D01*
X101372068Y-104406842D01*
X101315000Y-104693740D01*
X101315000Y-104986260D01*
X101372068Y-105273158D01*
X101484010Y-105543411D01*
X101646525Y-105786632D01*
X101853368Y-105993475D01*
X102027760Y-106110000D01*
X101853368Y-106226525D01*
X101646525Y-106433368D01*
X101484010Y-106676589D01*
X101372068Y-106946842D01*
X101315000Y-107233740D01*
X101315000Y-107526260D01*
X101372068Y-107813158D01*
X101484010Y-108083411D01*
X101646525Y-108326632D01*
X101853368Y-108533475D01*
X102027760Y-108650000D01*
X101853368Y-108766525D01*
X101646525Y-108973368D01*
X101484010Y-109216589D01*
X101372068Y-109486842D01*
X101315000Y-109773740D01*
X101315000Y-110066260D01*
X101372068Y-110353158D01*
X101484010Y-110623411D01*
X101646525Y-110866632D01*
X101853368Y-111073475D01*
X102035534Y-111195195D01*
X101918645Y-111264822D01*
X101702412Y-111459731D01*
X101528359Y-111693080D01*
X101403175Y-111955901D01*
X101358524Y-112103110D01*
X101479845Y-112333000D01*
X102673000Y-112333000D01*
X102673000Y-112313000D01*
X102927000Y-112313000D01*
X102927000Y-112333000D01*
X104120155Y-112333000D01*
X104241476Y-112103110D01*
X104196825Y-111955901D01*
X104071641Y-111693080D01*
X103897588Y-111459731D01*
X103681355Y-111264822D01*
X103564466Y-111195195D01*
X103746632Y-111073475D01*
X103953475Y-110866632D01*
X104115990Y-110623411D01*
X104227932Y-110353158D01*
X104285000Y-110066260D01*
X104285000Y-109773740D01*
X104227932Y-109486842D01*
X104115990Y-109216589D01*
X103953475Y-108973368D01*
X103746632Y-108766525D01*
X103572240Y-108650000D01*
X103746632Y-108533475D01*
X103953475Y-108326632D01*
X104115990Y-108083411D01*
X104227932Y-107813158D01*
X104276652Y-107568230D01*
X106915001Y-110206580D01*
X106915001Y-112210201D01*
X106901898Y-112204774D01*
X106701939Y-112165000D01*
X106498061Y-112165000D01*
X106298102Y-112204774D01*
X106109744Y-112282795D01*
X105940226Y-112396063D01*
X105796063Y-112540226D01*
X105682795Y-112709744D01*
X105604774Y-112898102D01*
X105593465Y-112954956D01*
X104155777Y-114392644D01*
X104115990Y-114296589D01*
X103953475Y-114053368D01*
X103746632Y-113846525D01*
X103564466Y-113724805D01*
X103681355Y-113655178D01*
X103897588Y-113460269D01*
X104071641Y-113226920D01*
X104196825Y-112964099D01*
X104241476Y-112816890D01*
X104120155Y-112587000D01*
X102927000Y-112587000D01*
X102927000Y-112607000D01*
X102673000Y-112607000D01*
X102673000Y-112587000D01*
X101479845Y-112587000D01*
X101358524Y-112816890D01*
X101403175Y-112964099D01*
X101528359Y-113226920D01*
X101702412Y-113460269D01*
X101918645Y-113655178D01*
X102035534Y-113724805D01*
X101853368Y-113846525D01*
X101646525Y-114053368D01*
X101484010Y-114296589D01*
X101372068Y-114566842D01*
X101315000Y-114853740D01*
X101315000Y-115146260D01*
X101372068Y-115433158D01*
X101484010Y-115703411D01*
X101646525Y-115946632D01*
X101853368Y-116153475D01*
X102027760Y-116270000D01*
X101853368Y-116386525D01*
X101646525Y-116593368D01*
X101484010Y-116836589D01*
X101372068Y-117106842D01*
X101315000Y-117393740D01*
X101315000Y-117686260D01*
X101372068Y-117973158D01*
X101484010Y-118243411D01*
X101646525Y-118486632D01*
X101853368Y-118693475D01*
X102027760Y-118810000D01*
X101853368Y-118926525D01*
X101646525Y-119133368D01*
X101484010Y-119376589D01*
X101372068Y-119646842D01*
X101315000Y-119933740D01*
X101315000Y-120226260D01*
X101372068Y-120513158D01*
X101484010Y-120783411D01*
X101646525Y-121026632D01*
X101853368Y-121233475D01*
X102027760Y-121350000D01*
X101853368Y-121466525D01*
X101646525Y-121673368D01*
X101484010Y-121916589D01*
X101372068Y-122186842D01*
X101315000Y-122473740D01*
X101315000Y-122766260D01*
X101372068Y-123053158D01*
X101484010Y-123323411D01*
X101646525Y-123566632D01*
X101853368Y-123773475D01*
X102027760Y-123890000D01*
X101853368Y-124006525D01*
X101646525Y-124213368D01*
X101484010Y-124456589D01*
X101372068Y-124726842D01*
X101315000Y-125013740D01*
X101315000Y-125306260D01*
X101372068Y-125593158D01*
X101484010Y-125863411D01*
X101646525Y-126106632D01*
X101853368Y-126313475D01*
X102096589Y-126475990D01*
X102366842Y-126587932D01*
X102653740Y-126645000D01*
X102946260Y-126645000D01*
X103233158Y-126587932D01*
X103503411Y-126475990D01*
X103746632Y-126313475D01*
X103953475Y-126106632D01*
X104115990Y-125863411D01*
X104227932Y-125593158D01*
X104285000Y-125306260D01*
X104285000Y-125013740D01*
X104270539Y-124941039D01*
X114926579Y-114285000D01*
X121297513Y-114285000D01*
X121198102Y-114304774D01*
X121009744Y-114382795D01*
X120840226Y-114496063D01*
X120696063Y-114640226D01*
X120582795Y-114809744D01*
X120504774Y-114998102D01*
X120493465Y-115054956D01*
X111804951Y-123743471D01*
X111771183Y-123771184D01*
X111743470Y-123804952D01*
X111743467Y-123804955D01*
X111684502Y-123876803D01*
X111646738Y-123820285D01*
X111279715Y-123453262D01*
X110848141Y-123164893D01*
X110368601Y-122966261D01*
X109859525Y-122865000D01*
X109340475Y-122865000D01*
X108831399Y-122966261D01*
X108351859Y-123164893D01*
X107920285Y-123453262D01*
X107553262Y-123820285D01*
X107264893Y-124251859D01*
X107066261Y-124731399D01*
X106965000Y-125240475D01*
X106965000Y-125759525D01*
X107066261Y-126268601D01*
X107264893Y-126748141D01*
X107553262Y-127179715D01*
X107920285Y-127546738D01*
X108351859Y-127835107D01*
X108831399Y-128033739D01*
X109340475Y-128135000D01*
X109859525Y-128135000D01*
X110368601Y-128033739D01*
X110848141Y-127835107D01*
X111279715Y-127546738D01*
X111515000Y-127311453D01*
X111514999Y-130965000D01*
X111348816Y-130965000D01*
X111052257Y-131023989D01*
X110772905Y-131139701D01*
X110521495Y-131307688D01*
X110307688Y-131521495D01*
X110139701Y-131772905D01*
X110023989Y-132052257D01*
X109965000Y-132348816D01*
X109965000Y-132651184D01*
X110023989Y-132947743D01*
X110139701Y-133227095D01*
X110307688Y-133478505D01*
X110521495Y-133692312D01*
X110772905Y-133860299D01*
X111052257Y-133976011D01*
X111348816Y-134035000D01*
X111651184Y-134035000D01*
X111947743Y-133976011D01*
X112227095Y-133860299D01*
X112478505Y-133692312D01*
X112692312Y-133478505D01*
X112750000Y-133392169D01*
X112807688Y-133478505D01*
X113021495Y-133692312D01*
X113272905Y-133860299D01*
X113552257Y-133976011D01*
X113848816Y-134035000D01*
X114151184Y-134035000D01*
X114447743Y-133976011D01*
X114727095Y-133860299D01*
X114978505Y-133692312D01*
X115106737Y-133564080D01*
X115615525Y-133564080D01*
X115699208Y-133818261D01*
X115971775Y-133949158D01*
X116264642Y-134024365D01*
X116566553Y-134040991D01*
X116865907Y-133998397D01*
X117151199Y-133898222D01*
X117300792Y-133818261D01*
X117384475Y-133564080D01*
X116500000Y-132679605D01*
X115615525Y-133564080D01*
X115106737Y-133564080D01*
X115192312Y-133478505D01*
X115287738Y-133335690D01*
X115435920Y-133384475D01*
X116320395Y-132500000D01*
X116679605Y-132500000D01*
X117564080Y-133384475D01*
X117818261Y-133300792D01*
X117949158Y-133028225D01*
X118024365Y-132735358D01*
X118040991Y-132433447D01*
X117998397Y-132134093D01*
X117898222Y-131848801D01*
X117818261Y-131699208D01*
X117564080Y-131615525D01*
X116679605Y-132500000D01*
X116320395Y-132500000D01*
X115435920Y-131615525D01*
X115287738Y-131664310D01*
X115192312Y-131521495D01*
X115106737Y-131435920D01*
X115615525Y-131435920D01*
X116500000Y-132320395D01*
X117384475Y-131435920D01*
X117300792Y-131181739D01*
X117028225Y-131050842D01*
X116735358Y-130975635D01*
X116433447Y-130959009D01*
X116134093Y-131001603D01*
X115848801Y-131101778D01*
X115699208Y-131181739D01*
X115615525Y-131435920D01*
X115106737Y-131435920D01*
X114978505Y-131307688D01*
X114727095Y-131139701D01*
X114447743Y-131023989D01*
X114151184Y-130965000D01*
X113848816Y-130965000D01*
X113552257Y-131023989D01*
X113284999Y-131134691D01*
X113284999Y-125240475D01*
X115765000Y-125240475D01*
X115765000Y-125759525D01*
X115866261Y-126268601D01*
X116064893Y-126748141D01*
X116353262Y-127179715D01*
X116720285Y-127546738D01*
X117151859Y-127835107D01*
X117631399Y-128033739D01*
X118140475Y-128135000D01*
X118659525Y-128135000D01*
X119168601Y-128033739D01*
X119648141Y-127835107D01*
X120079715Y-127546738D01*
X120446738Y-127179715D01*
X120735107Y-126748141D01*
X120933739Y-126268601D01*
X121035000Y-125759525D01*
X121035000Y-125240475D01*
X120933739Y-124731399D01*
X120735107Y-124251859D01*
X120446738Y-123820285D01*
X120079715Y-123453262D01*
X119648141Y-123164893D01*
X119168601Y-122966261D01*
X118659525Y-122865000D01*
X118140475Y-122865000D01*
X117631399Y-122966261D01*
X117151859Y-123164893D01*
X116720285Y-123453262D01*
X116353262Y-123820285D01*
X116064893Y-124251859D01*
X115866261Y-124731399D01*
X115765000Y-125240475D01*
X113284999Y-125240475D01*
X113284999Y-124766579D01*
X121745044Y-116306535D01*
X121801898Y-116295226D01*
X121990256Y-116217205D01*
X122159774Y-116103937D01*
X122165002Y-116098709D01*
X122165001Y-140413420D01*
X117383422Y-145195000D01*
X116755501Y-145195000D01*
X116701185Y-145128815D01*
X116604494Y-145049463D01*
X116494180Y-144990498D01*
X116374482Y-144954188D01*
X116250000Y-144941928D01*
X113750000Y-144941928D01*
X113625518Y-144954188D01*
X113505820Y-144990498D01*
X113395506Y-145049463D01*
X113298815Y-145128815D01*
X113219463Y-145225506D01*
X113160498Y-145335820D01*
X113124188Y-145455518D01*
X113111928Y-145580000D01*
X113111928Y-146145001D01*
X108066580Y-146145001D01*
X107406532Y-145484954D01*
X107378817Y-145451183D01*
X107244059Y-145340589D01*
X107090313Y-145258411D01*
X106923490Y-145207805D01*
X106793477Y-145195000D01*
X106793469Y-145195000D01*
X106752163Y-145190932D01*
X106701185Y-145128815D01*
X106604494Y-145049463D01*
X106494180Y-144990498D01*
X106374482Y-144954188D01*
X106250000Y-144941928D01*
X103750000Y-144941928D01*
X103625518Y-144954188D01*
X103505820Y-144990498D01*
X103395506Y-145049463D01*
X103298815Y-145128815D01*
X103219463Y-145225506D01*
X103160498Y-145335820D01*
X103124188Y-145455518D01*
X103111928Y-145580000D01*
X103111928Y-146580000D01*
X103124188Y-146704482D01*
X103160498Y-146824180D01*
X103219463Y-146934494D01*
X103298815Y-147031185D01*
X103395506Y-147110537D01*
X103505820Y-147169502D01*
X103625518Y-147205812D01*
X103750000Y-147218072D01*
X106250000Y-147218072D01*
X106374482Y-147205812D01*
X106494180Y-147169502D01*
X106555270Y-147136848D01*
X107043471Y-147625050D01*
X107071184Y-147658818D01*
X107104952Y-147686531D01*
X107104954Y-147686533D01*
X107176453Y-147745211D01*
X107205942Y-147769412D01*
X107359688Y-147851590D01*
X107526511Y-147902196D01*
X107656524Y-147915001D01*
X107656534Y-147915001D01*
X107700000Y-147919282D01*
X107743466Y-147915001D01*
X117746492Y-147915001D01*
X117789961Y-147919282D01*
X117833430Y-147915001D01*
X117833438Y-147915001D01*
X117963451Y-147902196D01*
X118130274Y-147851590D01*
X118284020Y-147769412D01*
X118418778Y-147658818D01*
X118446495Y-147625045D01*
X120491540Y-145580000D01*
X123111928Y-145580000D01*
X123111928Y-146580000D01*
X123124188Y-146704482D01*
X123160498Y-146824180D01*
X123219463Y-146934494D01*
X123298815Y-147031185D01*
X123395506Y-147110537D01*
X123505820Y-147169502D01*
X123625518Y-147205812D01*
X123750000Y-147218072D01*
X126250000Y-147218072D01*
X126374482Y-147205812D01*
X126494180Y-147169502D01*
X126604494Y-147110537D01*
X126701185Y-147031185D01*
X126780537Y-146934494D01*
X126839502Y-146824180D01*
X126875812Y-146704482D01*
X126888072Y-146580000D01*
X126888072Y-145580000D01*
X133111928Y-145580000D01*
X133111928Y-146580000D01*
X133124188Y-146704482D01*
X133160498Y-146824180D01*
X133219463Y-146934494D01*
X133298815Y-147031185D01*
X133395506Y-147110537D01*
X133505820Y-147169502D01*
X133625518Y-147205812D01*
X133750000Y-147218072D01*
X136250000Y-147218072D01*
X136374482Y-147205812D01*
X136494180Y-147169502D01*
X136604494Y-147110537D01*
X136701185Y-147031185D01*
X136780537Y-146934494D01*
X136839502Y-146824180D01*
X136875812Y-146704482D01*
X136888072Y-146580000D01*
X136888072Y-145580000D01*
X143111928Y-145580000D01*
X143111928Y-146580000D01*
X143124188Y-146704482D01*
X143160498Y-146824180D01*
X143219463Y-146934494D01*
X143298815Y-147031185D01*
X143395506Y-147110537D01*
X143505820Y-147169502D01*
X143625518Y-147205812D01*
X143750000Y-147218072D01*
X146250000Y-147218072D01*
X146374482Y-147205812D01*
X146494180Y-147169502D01*
X146604494Y-147110537D01*
X146701185Y-147031185D01*
X146780537Y-146934494D01*
X146839502Y-146824180D01*
X146875812Y-146704482D01*
X146888072Y-146580000D01*
X146888072Y-145580000D01*
X153111928Y-145580000D01*
X153111928Y-146580000D01*
X153124188Y-146704482D01*
X153160498Y-146824180D01*
X153219463Y-146934494D01*
X153298815Y-147031185D01*
X153395506Y-147110537D01*
X153505820Y-147169502D01*
X153625518Y-147205812D01*
X153750000Y-147218072D01*
X156250000Y-147218072D01*
X156374482Y-147205812D01*
X156494180Y-147169502D01*
X156604494Y-147110537D01*
X156701185Y-147031185D01*
X156780537Y-146934494D01*
X156839502Y-146824180D01*
X156875812Y-146704482D01*
X156888072Y-146580000D01*
X156888072Y-145580000D01*
X156875812Y-145455518D01*
X156839502Y-145335820D01*
X156780537Y-145225506D01*
X156701185Y-145128815D01*
X156604494Y-145049463D01*
X156494180Y-144990498D01*
X156374482Y-144954188D01*
X156250000Y-144941928D01*
X153750000Y-144941928D01*
X153625518Y-144954188D01*
X153505820Y-144990498D01*
X153395506Y-145049463D01*
X153298815Y-145128815D01*
X153219463Y-145225506D01*
X153160498Y-145335820D01*
X153124188Y-145455518D01*
X153111928Y-145580000D01*
X146888072Y-145580000D01*
X146875812Y-145455518D01*
X146839502Y-145335820D01*
X146780537Y-145225506D01*
X146701185Y-145128815D01*
X146604494Y-145049463D01*
X146494180Y-144990498D01*
X146374482Y-144954188D01*
X146250000Y-144941928D01*
X143750000Y-144941928D01*
X143625518Y-144954188D01*
X143505820Y-144990498D01*
X143395506Y-145049463D01*
X143298815Y-145128815D01*
X143219463Y-145225506D01*
X143160498Y-145335820D01*
X143124188Y-145455518D01*
X143111928Y-145580000D01*
X136888072Y-145580000D01*
X136875812Y-145455518D01*
X136839502Y-145335820D01*
X136780537Y-145225506D01*
X136701185Y-145128815D01*
X136604494Y-145049463D01*
X136494180Y-144990498D01*
X136374482Y-144954188D01*
X136250000Y-144941928D01*
X133750000Y-144941928D01*
X133625518Y-144954188D01*
X133505820Y-144990498D01*
X133395506Y-145049463D01*
X133298815Y-145128815D01*
X133219463Y-145225506D01*
X133160498Y-145335820D01*
X133124188Y-145455518D01*
X133111928Y-145580000D01*
X126888072Y-145580000D01*
X126875812Y-145455518D01*
X126839502Y-145335820D01*
X126780537Y-145225506D01*
X126701185Y-145128815D01*
X126604494Y-145049463D01*
X126494180Y-144990498D01*
X126374482Y-144954188D01*
X126250000Y-144941928D01*
X123750000Y-144941928D01*
X123625518Y-144954188D01*
X123505820Y-144990498D01*
X123395506Y-145049463D01*
X123298815Y-145128815D01*
X123219463Y-145225506D01*
X123160498Y-145335820D01*
X123124188Y-145455518D01*
X123111928Y-145580000D01*
X120491540Y-145580000D01*
X132745050Y-133326491D01*
X132778816Y-133298780D01*
X132889410Y-133164022D01*
X132971588Y-133010276D01*
X133022194Y-132843453D01*
X133034999Y-132713440D01*
X133034999Y-132713430D01*
X133039280Y-132669964D01*
X133034999Y-132626498D01*
X133034999Y-126435000D01*
X133083422Y-126435000D01*
X135193471Y-128545050D01*
X135221184Y-128578818D01*
X135254952Y-128606531D01*
X135254954Y-128606533D01*
X135326453Y-128665211D01*
X135355942Y-128689412D01*
X135509688Y-128771590D01*
X135625904Y-128806844D01*
X135676510Y-128822196D01*
X135691307Y-128823653D01*
X135806524Y-128835001D01*
X135806532Y-128835001D01*
X135850001Y-128839282D01*
X135893470Y-128835001D01*
X141083423Y-128835001D01*
X143235885Y-130987463D01*
X143052257Y-131023989D01*
X142772905Y-131139701D01*
X142521495Y-131307688D01*
X142307688Y-131521495D01*
X142139701Y-131772905D01*
X142023989Y-132052257D01*
X141965000Y-132348816D01*
X141965000Y-132651184D01*
X142023989Y-132947743D01*
X142139701Y-133227095D01*
X142307688Y-133478505D01*
X142521495Y-133692312D01*
X142772905Y-133860299D01*
X143052257Y-133976011D01*
X143348816Y-134035000D01*
X143651184Y-134035000D01*
X143761482Y-134013061D01*
X143804952Y-134056531D01*
X143804958Y-134056536D01*
X144193467Y-134445045D01*
X144221184Y-134478818D01*
X144355942Y-134589412D01*
X144509688Y-134671590D01*
X144625904Y-134706844D01*
X144676510Y-134722196D01*
X144691307Y-134723653D01*
X144806524Y-134735001D01*
X144806532Y-134735001D01*
X144850001Y-134739282D01*
X144893470Y-134735001D01*
X149104532Y-134735001D01*
X149148001Y-134739282D01*
X149191470Y-134735001D01*
X149191478Y-134735001D01*
X149321491Y-134722196D01*
X149488314Y-134671590D01*
X149642060Y-134589412D01*
X149776818Y-134478818D01*
X149804535Y-134445045D01*
X150445050Y-133804531D01*
X150478818Y-133776818D01*
X150561140Y-133676510D01*
X150589412Y-133642060D01*
X150671590Y-133488314D01*
X150722196Y-133321491D01*
X150735001Y-133191478D01*
X150735001Y-133191470D01*
X150739282Y-133148001D01*
X150735001Y-133104532D01*
X150735001Y-130167468D01*
X150739282Y-130123999D01*
X150735001Y-130080530D01*
X150735001Y-130080522D01*
X150722196Y-129950509D01*
X150671590Y-129783685D01*
X150589412Y-129629940D01*
X150506533Y-129528952D01*
X150506531Y-129528950D01*
X150478818Y-129495182D01*
X150445052Y-129467471D01*
X146218056Y-125240475D01*
X147765000Y-125240475D01*
X147765000Y-125759525D01*
X147866261Y-126268601D01*
X148064893Y-126748141D01*
X148353262Y-127179715D01*
X148720285Y-127546738D01*
X149151859Y-127835107D01*
X149631399Y-128033739D01*
X150140475Y-128135000D01*
X150659525Y-128135000D01*
X151168601Y-128033739D01*
X151648141Y-127835107D01*
X152079715Y-127546738D01*
X152446738Y-127179715D01*
X152735107Y-126748141D01*
X152933739Y-126268601D01*
X153035000Y-125759525D01*
X153035000Y-125240475D01*
X152933739Y-124731399D01*
X152735107Y-124251859D01*
X152446738Y-123820285D01*
X152079715Y-123453262D01*
X151648141Y-123164893D01*
X151168601Y-122966261D01*
X150659525Y-122865000D01*
X150140475Y-122865000D01*
X149631399Y-122966261D01*
X149151859Y-123164893D01*
X148720285Y-123453262D01*
X148353262Y-123820285D01*
X148064893Y-124251859D01*
X147866261Y-124731399D01*
X147765000Y-125240475D01*
X146218056Y-125240475D01*
X142382536Y-121404956D01*
X142354819Y-121371183D01*
X142220061Y-121260589D01*
X142066315Y-121178411D01*
X141899492Y-121127805D01*
X141769479Y-121115000D01*
X141769471Y-121115000D01*
X141726002Y-121110719D01*
X141682533Y-121115000D01*
X138038454Y-121115000D01*
X137990256Y-121082795D01*
X137801898Y-121004774D01*
X137601939Y-120965000D01*
X137398061Y-120965000D01*
X137198102Y-121004774D01*
X137009744Y-121082795D01*
X136840226Y-121196063D01*
X136696063Y-121340226D01*
X136582795Y-121509744D01*
X136504774Y-121698102D01*
X136465000Y-121898061D01*
X136465000Y-122101939D01*
X136504774Y-122301898D01*
X136582795Y-122490256D01*
X136696063Y-122659774D01*
X136840226Y-122803937D01*
X137009744Y-122917205D01*
X137198102Y-122995226D01*
X137398061Y-123035000D01*
X137601939Y-123035000D01*
X137801898Y-122995226D01*
X137990256Y-122917205D01*
X138038454Y-122885000D01*
X141239928Y-122885000D01*
X140831399Y-122966261D01*
X140351859Y-123164893D01*
X139920285Y-123453262D01*
X139553262Y-123820285D01*
X139264893Y-124251859D01*
X139066261Y-124731399D01*
X138965000Y-125240475D01*
X138965000Y-125759525D01*
X139066261Y-126268601D01*
X139264893Y-126748141D01*
X139476612Y-127065001D01*
X136216580Y-127065001D01*
X133956534Y-124804956D01*
X133928817Y-124771183D01*
X133794059Y-124660589D01*
X133640313Y-124578411D01*
X133627571Y-124574546D01*
X133490256Y-124482795D01*
X133301898Y-124404774D01*
X133217575Y-124388001D01*
X148470163Y-109135413D01*
X149544192Y-109135413D01*
X149639956Y-109399814D01*
X149929571Y-109540704D01*
X150241108Y-109622384D01*
X150562595Y-109641718D01*
X150881675Y-109597961D01*
X151186088Y-109492795D01*
X151360044Y-109399814D01*
X151455808Y-109135413D01*
X150500000Y-108179605D01*
X149544192Y-109135413D01*
X148470163Y-109135413D01*
X148984682Y-108620894D01*
X149007205Y-108686088D01*
X149100186Y-108860044D01*
X149364587Y-108955808D01*
X150320395Y-108000000D01*
X150679605Y-108000000D01*
X151635413Y-108955808D01*
X151899814Y-108860044D01*
X152040704Y-108570429D01*
X152122384Y-108258892D01*
X152141718Y-107937405D01*
X152097961Y-107618325D01*
X151992795Y-107313912D01*
X151899814Y-107139956D01*
X151635413Y-107044192D01*
X150679605Y-108000000D01*
X150320395Y-108000000D01*
X150306253Y-107985858D01*
X150485858Y-107806253D01*
X150500000Y-107820395D01*
X151455808Y-106864587D01*
X151360044Y-106600186D01*
X151121457Y-106484120D01*
X151320577Y-106285000D01*
X154305344Y-106285000D01*
X154346525Y-106346632D01*
X154553368Y-106553475D01*
X154727760Y-106670000D01*
X154553368Y-106786525D01*
X154346525Y-106993368D01*
X154184010Y-107236589D01*
X154072068Y-107506842D01*
X154015000Y-107793740D01*
X154015000Y-108086260D01*
X154072068Y-108373158D01*
X154184010Y-108643411D01*
X154346525Y-108886632D01*
X154553368Y-109093475D01*
X154796589Y-109255990D01*
X155066842Y-109367932D01*
X155353740Y-109425000D01*
X155646260Y-109425000D01*
X155933158Y-109367932D01*
X156203411Y-109255990D01*
X156446632Y-109093475D01*
X156653475Y-108886632D01*
X156815990Y-108643411D01*
X156927932Y-108373158D01*
X156985000Y-108086260D01*
X156985000Y-107793740D01*
X156927932Y-107506842D01*
X156815990Y-107236589D01*
X156653475Y-106993368D01*
X156446632Y-106786525D01*
X156272240Y-106670000D01*
X156446632Y-106553475D01*
X156653475Y-106346632D01*
X156815990Y-106103411D01*
X156927932Y-105833158D01*
X156985000Y-105546260D01*
X156985000Y-105253740D01*
X156927932Y-104966842D01*
X156815990Y-104696589D01*
X156653475Y-104453368D01*
X156446632Y-104246525D01*
X156272240Y-104130000D01*
X156446632Y-104013475D01*
X156653475Y-103806632D01*
X156815990Y-103563411D01*
X156927932Y-103293158D01*
X156985000Y-103006260D01*
X156985000Y-102713740D01*
X156927932Y-102426842D01*
X156815990Y-102156589D01*
X156653475Y-101913368D01*
X156446632Y-101706525D01*
X156272240Y-101590000D01*
X156446632Y-101473475D01*
X156653475Y-101266632D01*
X156815990Y-101023411D01*
X156927932Y-100753158D01*
X156985000Y-100466260D01*
X156985000Y-100173740D01*
X156970539Y-100101039D01*
X159265000Y-97806578D01*
X159265001Y-159265000D01*
X100735000Y-159265000D01*
X100735000Y-157980000D01*
X103111928Y-157980000D01*
X103124188Y-158104482D01*
X103160498Y-158224180D01*
X103219463Y-158334494D01*
X103298815Y-158431185D01*
X103395506Y-158510537D01*
X103505820Y-158569502D01*
X103625518Y-158605812D01*
X103750000Y-158618072D01*
X104714250Y-158615000D01*
X104873000Y-158456250D01*
X104873000Y-157607000D01*
X105127000Y-157607000D01*
X105127000Y-158456250D01*
X105285750Y-158615000D01*
X106250000Y-158618072D01*
X106374482Y-158605812D01*
X106494180Y-158569502D01*
X106604494Y-158510537D01*
X106701185Y-158431185D01*
X106780537Y-158334494D01*
X106839502Y-158224180D01*
X106875812Y-158104482D01*
X106888072Y-157980000D01*
X113111928Y-157980000D01*
X113124188Y-158104482D01*
X113160498Y-158224180D01*
X113219463Y-158334494D01*
X113298815Y-158431185D01*
X113395506Y-158510537D01*
X113505820Y-158569502D01*
X113625518Y-158605812D01*
X113750000Y-158618072D01*
X114714250Y-158615000D01*
X114873000Y-158456250D01*
X114873000Y-157607000D01*
X115127000Y-157607000D01*
X115127000Y-158456250D01*
X115285750Y-158615000D01*
X116250000Y-158618072D01*
X116374482Y-158605812D01*
X116494180Y-158569502D01*
X116604494Y-158510537D01*
X116701185Y-158431185D01*
X116780537Y-158334494D01*
X116839502Y-158224180D01*
X116875812Y-158104482D01*
X116888072Y-157980000D01*
X123111928Y-157980000D01*
X123124188Y-158104482D01*
X123160498Y-158224180D01*
X123219463Y-158334494D01*
X123298815Y-158431185D01*
X123395506Y-158510537D01*
X123505820Y-158569502D01*
X123625518Y-158605812D01*
X123750000Y-158618072D01*
X124714250Y-158615000D01*
X124873000Y-158456250D01*
X124873000Y-157607000D01*
X125127000Y-157607000D01*
X125127000Y-158456250D01*
X125285750Y-158615000D01*
X126250000Y-158618072D01*
X126374482Y-158605812D01*
X126494180Y-158569502D01*
X126604494Y-158510537D01*
X126701185Y-158431185D01*
X126780537Y-158334494D01*
X126839502Y-158224180D01*
X126875812Y-158104482D01*
X126888072Y-157980000D01*
X133111928Y-157980000D01*
X133124188Y-158104482D01*
X133160498Y-158224180D01*
X133219463Y-158334494D01*
X133298815Y-158431185D01*
X133395506Y-158510537D01*
X133505820Y-158569502D01*
X133625518Y-158605812D01*
X133750000Y-158618072D01*
X134714250Y-158615000D01*
X134873000Y-158456250D01*
X134873000Y-157607000D01*
X135127000Y-157607000D01*
X135127000Y-158456250D01*
X135285750Y-158615000D01*
X136250000Y-158618072D01*
X136374482Y-158605812D01*
X136494180Y-158569502D01*
X136604494Y-158510537D01*
X136701185Y-158431185D01*
X136780537Y-158334494D01*
X136839502Y-158224180D01*
X136875812Y-158104482D01*
X136888072Y-157980000D01*
X143111928Y-157980000D01*
X143124188Y-158104482D01*
X143160498Y-158224180D01*
X143219463Y-158334494D01*
X143298815Y-158431185D01*
X143395506Y-158510537D01*
X143505820Y-158569502D01*
X143625518Y-158605812D01*
X143750000Y-158618072D01*
X144714250Y-158615000D01*
X144873000Y-158456250D01*
X144873000Y-157607000D01*
X145127000Y-157607000D01*
X145127000Y-158456250D01*
X145285750Y-158615000D01*
X146250000Y-158618072D01*
X146374482Y-158605812D01*
X146494180Y-158569502D01*
X146604494Y-158510537D01*
X146701185Y-158431185D01*
X146780537Y-158334494D01*
X146839502Y-158224180D01*
X146875812Y-158104482D01*
X146888072Y-157980000D01*
X153111928Y-157980000D01*
X153124188Y-158104482D01*
X153160498Y-158224180D01*
X153219463Y-158334494D01*
X153298815Y-158431185D01*
X153395506Y-158510537D01*
X153505820Y-158569502D01*
X153625518Y-158605812D01*
X153750000Y-158618072D01*
X154714250Y-158615000D01*
X154873000Y-158456250D01*
X154873000Y-157607000D01*
X155127000Y-157607000D01*
X155127000Y-158456250D01*
X155285750Y-158615000D01*
X156250000Y-158618072D01*
X156374482Y-158605812D01*
X156494180Y-158569502D01*
X156604494Y-158510537D01*
X156701185Y-158431185D01*
X156780537Y-158334494D01*
X156839502Y-158224180D01*
X156875812Y-158104482D01*
X156888072Y-157980000D01*
X156885000Y-157765750D01*
X156726250Y-157607000D01*
X155127000Y-157607000D01*
X154873000Y-157607000D01*
X153273750Y-157607000D01*
X153115000Y-157765750D01*
X153111928Y-157980000D01*
X146888072Y-157980000D01*
X146885000Y-157765750D01*
X146726250Y-157607000D01*
X145127000Y-157607000D01*
X144873000Y-157607000D01*
X143273750Y-157607000D01*
X143115000Y-157765750D01*
X143111928Y-157980000D01*
X136888072Y-157980000D01*
X136885000Y-157765750D01*
X136726250Y-157607000D01*
X135127000Y-157607000D01*
X134873000Y-157607000D01*
X133273750Y-157607000D01*
X133115000Y-157765750D01*
X133111928Y-157980000D01*
X126888072Y-157980000D01*
X126885000Y-157765750D01*
X126726250Y-157607000D01*
X125127000Y-157607000D01*
X124873000Y-157607000D01*
X123273750Y-157607000D01*
X123115000Y-157765750D01*
X123111928Y-157980000D01*
X116888072Y-157980000D01*
X116885000Y-157765750D01*
X116726250Y-157607000D01*
X115127000Y-157607000D01*
X114873000Y-157607000D01*
X113273750Y-157607000D01*
X113115000Y-157765750D01*
X113111928Y-157980000D01*
X106888072Y-157980000D01*
X106885000Y-157765750D01*
X106726250Y-157607000D01*
X105127000Y-157607000D01*
X104873000Y-157607000D01*
X103273750Y-157607000D01*
X103115000Y-157765750D01*
X103111928Y-157980000D01*
X100735000Y-157980000D01*
X100735000Y-156980000D01*
X103111928Y-156980000D01*
X103115000Y-157194250D01*
X103273750Y-157353000D01*
X104873000Y-157353000D01*
X104873000Y-156503750D01*
X105127000Y-156503750D01*
X105127000Y-157353000D01*
X106726250Y-157353000D01*
X106885000Y-157194250D01*
X106888072Y-156980000D01*
X113111928Y-156980000D01*
X113115000Y-157194250D01*
X113273750Y-157353000D01*
X114873000Y-157353000D01*
X114873000Y-156503750D01*
X115127000Y-156503750D01*
X115127000Y-157353000D01*
X116726250Y-157353000D01*
X116885000Y-157194250D01*
X116888072Y-156980000D01*
X123111928Y-156980000D01*
X123115000Y-157194250D01*
X123273750Y-157353000D01*
X124873000Y-157353000D01*
X124873000Y-156503750D01*
X125127000Y-156503750D01*
X125127000Y-157353000D01*
X126726250Y-157353000D01*
X126885000Y-157194250D01*
X126888072Y-156980000D01*
X133111928Y-156980000D01*
X133115000Y-157194250D01*
X133273750Y-157353000D01*
X134873000Y-157353000D01*
X134873000Y-156503750D01*
X135127000Y-156503750D01*
X135127000Y-157353000D01*
X136726250Y-157353000D01*
X136885000Y-157194250D01*
X136888072Y-156980000D01*
X143111928Y-156980000D01*
X143115000Y-157194250D01*
X143273750Y-157353000D01*
X144873000Y-157353000D01*
X144873000Y-156503750D01*
X145127000Y-156503750D01*
X145127000Y-157353000D01*
X146726250Y-157353000D01*
X146885000Y-157194250D01*
X146888072Y-156980000D01*
X153111928Y-156980000D01*
X153115000Y-157194250D01*
X153273750Y-157353000D01*
X154873000Y-157353000D01*
X154873000Y-156503750D01*
X155127000Y-156503750D01*
X155127000Y-157353000D01*
X156726250Y-157353000D01*
X156885000Y-157194250D01*
X156888072Y-156980000D01*
X156875812Y-156855518D01*
X156839502Y-156735820D01*
X156780537Y-156625506D01*
X156701185Y-156528815D01*
X156604494Y-156449463D01*
X156494180Y-156390498D01*
X156374482Y-156354188D01*
X156250000Y-156341928D01*
X155285750Y-156345000D01*
X155127000Y-156503750D01*
X154873000Y-156503750D01*
X154714250Y-156345000D01*
X153750000Y-156341928D01*
X153625518Y-156354188D01*
X153505820Y-156390498D01*
X153395506Y-156449463D01*
X153298815Y-156528815D01*
X153219463Y-156625506D01*
X153160498Y-156735820D01*
X153124188Y-156855518D01*
X153111928Y-156980000D01*
X146888072Y-156980000D01*
X146875812Y-156855518D01*
X146839502Y-156735820D01*
X146780537Y-156625506D01*
X146701185Y-156528815D01*
X146604494Y-156449463D01*
X146494180Y-156390498D01*
X146374482Y-156354188D01*
X146250000Y-156341928D01*
X145285750Y-156345000D01*
X145127000Y-156503750D01*
X144873000Y-156503750D01*
X144714250Y-156345000D01*
X143750000Y-156341928D01*
X143625518Y-156354188D01*
X143505820Y-156390498D01*
X143395506Y-156449463D01*
X143298815Y-156528815D01*
X143219463Y-156625506D01*
X143160498Y-156735820D01*
X143124188Y-156855518D01*
X143111928Y-156980000D01*
X136888072Y-156980000D01*
X136875812Y-156855518D01*
X136839502Y-156735820D01*
X136780537Y-156625506D01*
X136701185Y-156528815D01*
X136604494Y-156449463D01*
X136494180Y-156390498D01*
X136374482Y-156354188D01*
X136250000Y-156341928D01*
X135285750Y-156345000D01*
X135127000Y-156503750D01*
X134873000Y-156503750D01*
X134714250Y-156345000D01*
X133750000Y-156341928D01*
X133625518Y-156354188D01*
X133505820Y-156390498D01*
X133395506Y-156449463D01*
X133298815Y-156528815D01*
X133219463Y-156625506D01*
X133160498Y-156735820D01*
X133124188Y-156855518D01*
X133111928Y-156980000D01*
X126888072Y-156980000D01*
X126875812Y-156855518D01*
X126839502Y-156735820D01*
X126780537Y-156625506D01*
X126701185Y-156528815D01*
X126604494Y-156449463D01*
X126494180Y-156390498D01*
X126374482Y-156354188D01*
X126250000Y-156341928D01*
X125285750Y-156345000D01*
X125127000Y-156503750D01*
X124873000Y-156503750D01*
X124714250Y-156345000D01*
X123750000Y-156341928D01*
X123625518Y-156354188D01*
X123505820Y-156390498D01*
X123395506Y-156449463D01*
X123298815Y-156528815D01*
X123219463Y-156625506D01*
X123160498Y-156735820D01*
X123124188Y-156855518D01*
X123111928Y-156980000D01*
X116888072Y-156980000D01*
X116875812Y-156855518D01*
X116839502Y-156735820D01*
X116780537Y-156625506D01*
X116701185Y-156528815D01*
X116604494Y-156449463D01*
X116494180Y-156390498D01*
X116374482Y-156354188D01*
X116250000Y-156341928D01*
X115285750Y-156345000D01*
X115127000Y-156503750D01*
X114873000Y-156503750D01*
X114714250Y-156345000D01*
X113750000Y-156341928D01*
X113625518Y-156354188D01*
X113505820Y-156390498D01*
X113395506Y-156449463D01*
X113298815Y-156528815D01*
X113219463Y-156625506D01*
X113160498Y-156735820D01*
X113124188Y-156855518D01*
X113111928Y-156980000D01*
X106888072Y-156980000D01*
X106875812Y-156855518D01*
X106839502Y-156735820D01*
X106780537Y-156625506D01*
X106701185Y-156528815D01*
X106604494Y-156449463D01*
X106494180Y-156390498D01*
X106374482Y-156354188D01*
X106250000Y-156341928D01*
X105285750Y-156345000D01*
X105127000Y-156503750D01*
X104873000Y-156503750D01*
X104714250Y-156345000D01*
X103750000Y-156341928D01*
X103625518Y-156354188D01*
X103505820Y-156390498D01*
X103395506Y-156449463D01*
X103298815Y-156528815D01*
X103219463Y-156625506D01*
X103160498Y-156735820D01*
X103124188Y-156855518D01*
X103111928Y-156980000D01*
X100735000Y-156980000D01*
X100735000Y-153880000D01*
X103111928Y-153880000D01*
X103111928Y-154880000D01*
X103124188Y-155004482D01*
X103160498Y-155124180D01*
X103219463Y-155234494D01*
X103298815Y-155331185D01*
X103395506Y-155410537D01*
X103505820Y-155469502D01*
X103625518Y-155505812D01*
X103750000Y-155518072D01*
X106250000Y-155518072D01*
X106374482Y-155505812D01*
X106494180Y-155469502D01*
X106604494Y-155410537D01*
X106701185Y-155331185D01*
X106780537Y-155234494D01*
X106839502Y-155124180D01*
X106875812Y-155004482D01*
X106888072Y-154880000D01*
X113111928Y-154880000D01*
X113124188Y-155004482D01*
X113160498Y-155124180D01*
X113219463Y-155234494D01*
X113298815Y-155331185D01*
X113395506Y-155410537D01*
X113505820Y-155469502D01*
X113625518Y-155505812D01*
X113750000Y-155518072D01*
X114714250Y-155515000D01*
X114873000Y-155356250D01*
X114873000Y-154507000D01*
X115127000Y-154507000D01*
X115127000Y-155356250D01*
X115285750Y-155515000D01*
X116250000Y-155518072D01*
X116374482Y-155505812D01*
X116494180Y-155469502D01*
X116604494Y-155410537D01*
X116701185Y-155331185D01*
X116780537Y-155234494D01*
X116839502Y-155124180D01*
X116875812Y-155004482D01*
X116888072Y-154880000D01*
X123111928Y-154880000D01*
X123124188Y-155004482D01*
X123160498Y-155124180D01*
X123219463Y-155234494D01*
X123298815Y-155331185D01*
X123395506Y-155410537D01*
X123505820Y-155469502D01*
X123625518Y-155505812D01*
X123750000Y-155518072D01*
X124714250Y-155515000D01*
X124873000Y-155356250D01*
X124873000Y-154507000D01*
X125127000Y-154507000D01*
X125127000Y-155356250D01*
X125285750Y-155515000D01*
X126250000Y-155518072D01*
X126374482Y-155505812D01*
X126494180Y-155469502D01*
X126604494Y-155410537D01*
X126701185Y-155331185D01*
X126780537Y-155234494D01*
X126839502Y-155124180D01*
X126875812Y-155004482D01*
X126888072Y-154880000D01*
X126885000Y-154665750D01*
X126726250Y-154507000D01*
X125127000Y-154507000D01*
X124873000Y-154507000D01*
X123273750Y-154507000D01*
X123115000Y-154665750D01*
X123111928Y-154880000D01*
X116888072Y-154880000D01*
X116885000Y-154665750D01*
X116726250Y-154507000D01*
X115127000Y-154507000D01*
X114873000Y-154507000D01*
X113273750Y-154507000D01*
X113115000Y-154665750D01*
X113111928Y-154880000D01*
X106888072Y-154880000D01*
X106888072Y-153880000D01*
X113111928Y-153880000D01*
X113115000Y-154094250D01*
X113273750Y-154253000D01*
X114873000Y-154253000D01*
X114873000Y-153403750D01*
X115127000Y-153403750D01*
X115127000Y-154253000D01*
X116726250Y-154253000D01*
X116885000Y-154094250D01*
X116888072Y-153880000D01*
X123111928Y-153880000D01*
X123115000Y-154094250D01*
X123273750Y-154253000D01*
X124873000Y-154253000D01*
X124873000Y-153403750D01*
X125127000Y-153403750D01*
X125127000Y-154253000D01*
X126726250Y-154253000D01*
X126885000Y-154094250D01*
X126888072Y-153880000D01*
X133111928Y-153880000D01*
X133111928Y-154880000D01*
X133124188Y-155004482D01*
X133160498Y-155124180D01*
X133219463Y-155234494D01*
X133298815Y-155331185D01*
X133395506Y-155410537D01*
X133505820Y-155469502D01*
X133625518Y-155505812D01*
X133750000Y-155518072D01*
X136250000Y-155518072D01*
X136374482Y-155505812D01*
X136494180Y-155469502D01*
X136604494Y-155410537D01*
X136701185Y-155331185D01*
X136780537Y-155234494D01*
X136839502Y-155124180D01*
X136875812Y-155004482D01*
X136888072Y-154880000D01*
X143111928Y-154880000D01*
X143124188Y-155004482D01*
X143160498Y-155124180D01*
X143219463Y-155234494D01*
X143298815Y-155331185D01*
X143395506Y-155410537D01*
X143505820Y-155469502D01*
X143625518Y-155505812D01*
X143750000Y-155518072D01*
X144714250Y-155515000D01*
X144873000Y-155356250D01*
X144873000Y-154507000D01*
X145127000Y-154507000D01*
X145127000Y-155356250D01*
X145285750Y-155515000D01*
X146250000Y-155518072D01*
X146374482Y-155505812D01*
X146494180Y-155469502D01*
X146604494Y-155410537D01*
X146701185Y-155331185D01*
X146780537Y-155234494D01*
X146839502Y-155124180D01*
X146875812Y-155004482D01*
X146888072Y-154880000D01*
X146885000Y-154665750D01*
X146726250Y-154507000D01*
X145127000Y-154507000D01*
X144873000Y-154507000D01*
X143273750Y-154507000D01*
X143115000Y-154665750D01*
X143111928Y-154880000D01*
X136888072Y-154880000D01*
X136888072Y-153880000D01*
X143111928Y-153880000D01*
X143115000Y-154094250D01*
X143273750Y-154253000D01*
X144873000Y-154253000D01*
X144873000Y-153403750D01*
X145127000Y-153403750D01*
X145127000Y-154253000D01*
X146726250Y-154253000D01*
X146885000Y-154094250D01*
X146888072Y-153880000D01*
X153111928Y-153880000D01*
X153111928Y-154880000D01*
X153124188Y-155004482D01*
X153160498Y-155124180D01*
X153219463Y-155234494D01*
X153298815Y-155331185D01*
X153395506Y-155410537D01*
X153505820Y-155469502D01*
X153625518Y-155505812D01*
X153750000Y-155518072D01*
X156250000Y-155518072D01*
X156374482Y-155505812D01*
X156494180Y-155469502D01*
X156604494Y-155410537D01*
X156701185Y-155331185D01*
X156780537Y-155234494D01*
X156839502Y-155124180D01*
X156875812Y-155004482D01*
X156888072Y-154880000D01*
X156888072Y-153880000D01*
X156875812Y-153755518D01*
X156839502Y-153635820D01*
X156780537Y-153525506D01*
X156701185Y-153428815D01*
X156604494Y-153349463D01*
X156494180Y-153290498D01*
X156374482Y-153254188D01*
X156250000Y-153241928D01*
X153750000Y-153241928D01*
X153625518Y-153254188D01*
X153505820Y-153290498D01*
X153395506Y-153349463D01*
X153298815Y-153428815D01*
X153219463Y-153525506D01*
X153160498Y-153635820D01*
X153124188Y-153755518D01*
X153111928Y-153880000D01*
X146888072Y-153880000D01*
X146875812Y-153755518D01*
X146839502Y-153635820D01*
X146780537Y-153525506D01*
X146701185Y-153428815D01*
X146604494Y-153349463D01*
X146494180Y-153290498D01*
X146374482Y-153254188D01*
X146250000Y-153241928D01*
X145285750Y-153245000D01*
X145127000Y-153403750D01*
X144873000Y-153403750D01*
X144714250Y-153245000D01*
X143750000Y-153241928D01*
X143625518Y-153254188D01*
X143505820Y-153290498D01*
X143395506Y-153349463D01*
X143298815Y-153428815D01*
X143219463Y-153525506D01*
X143160498Y-153635820D01*
X143124188Y-153755518D01*
X143111928Y-153880000D01*
X136888072Y-153880000D01*
X136875812Y-153755518D01*
X136839502Y-153635820D01*
X136780537Y-153525506D01*
X136701185Y-153428815D01*
X136604494Y-153349463D01*
X136494180Y-153290498D01*
X136374482Y-153254188D01*
X136250000Y-153241928D01*
X133750000Y-153241928D01*
X133625518Y-153254188D01*
X133505820Y-153290498D01*
X133395506Y-153349463D01*
X133298815Y-153428815D01*
X133219463Y-153525506D01*
X133160498Y-153635820D01*
X133124188Y-153755518D01*
X133111928Y-153880000D01*
X126888072Y-153880000D01*
X126875812Y-153755518D01*
X126839502Y-153635820D01*
X126780537Y-153525506D01*
X126701185Y-153428815D01*
X126604494Y-153349463D01*
X126494180Y-153290498D01*
X126374482Y-153254188D01*
X126250000Y-153241928D01*
X125285750Y-153245000D01*
X125127000Y-153403750D01*
X124873000Y-153403750D01*
X124714250Y-153245000D01*
X123750000Y-153241928D01*
X123625518Y-153254188D01*
X123505820Y-153290498D01*
X123395506Y-153349463D01*
X123298815Y-153428815D01*
X123219463Y-153525506D01*
X123160498Y-153635820D01*
X123124188Y-153755518D01*
X123111928Y-153880000D01*
X116888072Y-153880000D01*
X116875812Y-153755518D01*
X116839502Y-153635820D01*
X116780537Y-153525506D01*
X116701185Y-153428815D01*
X116604494Y-153349463D01*
X116494180Y-153290498D01*
X116374482Y-153254188D01*
X116250000Y-153241928D01*
X115285750Y-153245000D01*
X115127000Y-153403750D01*
X114873000Y-153403750D01*
X114714250Y-153245000D01*
X113750000Y-153241928D01*
X113625518Y-153254188D01*
X113505820Y-153290498D01*
X113395506Y-153349463D01*
X113298815Y-153428815D01*
X113219463Y-153525506D01*
X113160498Y-153635820D01*
X113124188Y-153755518D01*
X113111928Y-153880000D01*
X106888072Y-153880000D01*
X106875812Y-153755518D01*
X106839502Y-153635820D01*
X106780537Y-153525506D01*
X106701185Y-153428815D01*
X106604494Y-153349463D01*
X106494180Y-153290498D01*
X106374482Y-153254188D01*
X106250000Y-153241928D01*
X103750000Y-153241928D01*
X103625518Y-153254188D01*
X103505820Y-153290498D01*
X103395506Y-153349463D01*
X103298815Y-153428815D01*
X103219463Y-153525506D01*
X103160498Y-153635820D01*
X103124188Y-153755518D01*
X103111928Y-153880000D01*
X100735000Y-153880000D01*
X100735000Y-150814344D01*
X103115000Y-150814344D01*
X103115000Y-151185656D01*
X103187439Y-151549834D01*
X103329534Y-151892882D01*
X103535825Y-152201618D01*
X103798382Y-152464175D01*
X104107118Y-152670466D01*
X104450166Y-152812561D01*
X104814344Y-152885000D01*
X105185656Y-152885000D01*
X105549834Y-152812561D01*
X105892882Y-152670466D01*
X106201618Y-152464175D01*
X106464175Y-152201618D01*
X106670466Y-151892882D01*
X106812561Y-151549834D01*
X106885000Y-151185656D01*
X106885000Y-150814344D01*
X113115000Y-150814344D01*
X113115000Y-151185656D01*
X113187439Y-151549834D01*
X113329534Y-151892882D01*
X113535825Y-152201618D01*
X113798382Y-152464175D01*
X114107118Y-152670466D01*
X114450166Y-152812561D01*
X114814344Y-152885000D01*
X115185656Y-152885000D01*
X115549834Y-152812561D01*
X115892882Y-152670466D01*
X116201618Y-152464175D01*
X116464175Y-152201618D01*
X116670466Y-151892882D01*
X116812561Y-151549834D01*
X116885000Y-151185656D01*
X116885000Y-150814344D01*
X123115000Y-150814344D01*
X123115000Y-151185656D01*
X123187439Y-151549834D01*
X123329534Y-151892882D01*
X123535825Y-152201618D01*
X123798382Y-152464175D01*
X124107118Y-152670466D01*
X124450166Y-152812561D01*
X124814344Y-152885000D01*
X125185656Y-152885000D01*
X125549834Y-152812561D01*
X125892882Y-152670466D01*
X126201618Y-152464175D01*
X126464175Y-152201618D01*
X126670466Y-151892882D01*
X126812561Y-151549834D01*
X126885000Y-151185656D01*
X126885000Y-150814344D01*
X133115000Y-150814344D01*
X133115000Y-151185656D01*
X133187439Y-151549834D01*
X133329534Y-151892882D01*
X133535825Y-152201618D01*
X133798382Y-152464175D01*
X134107118Y-152670466D01*
X134450166Y-152812561D01*
X134814344Y-152885000D01*
X135185656Y-152885000D01*
X135549834Y-152812561D01*
X135892882Y-152670466D01*
X136201618Y-152464175D01*
X136464175Y-152201618D01*
X136670466Y-151892882D01*
X136812561Y-151549834D01*
X136885000Y-151185656D01*
X136885000Y-150814344D01*
X143115000Y-150814344D01*
X143115000Y-151185656D01*
X143187439Y-151549834D01*
X143329534Y-151892882D01*
X143535825Y-152201618D01*
X143798382Y-152464175D01*
X144107118Y-152670466D01*
X144450166Y-152812561D01*
X144814344Y-152885000D01*
X145185656Y-152885000D01*
X145549834Y-152812561D01*
X145892882Y-152670466D01*
X146201618Y-152464175D01*
X146464175Y-152201618D01*
X146670466Y-151892882D01*
X146812561Y-151549834D01*
X146885000Y-151185656D01*
X146885000Y-150814344D01*
X153115000Y-150814344D01*
X153115000Y-151185656D01*
X153187439Y-151549834D01*
X153329534Y-151892882D01*
X153535825Y-152201618D01*
X153798382Y-152464175D01*
X154107118Y-152670466D01*
X154450166Y-152812561D01*
X154814344Y-152885000D01*
X155185656Y-152885000D01*
X155549834Y-152812561D01*
X155892882Y-152670466D01*
X156201618Y-152464175D01*
X156464175Y-152201618D01*
X156670466Y-151892882D01*
X156812561Y-151549834D01*
X156885000Y-151185656D01*
X156885000Y-150814344D01*
X156812561Y-150450166D01*
X156670466Y-150107118D01*
X156464175Y-149798382D01*
X156201618Y-149535825D01*
X155892882Y-149329534D01*
X155549834Y-149187439D01*
X155185656Y-149115000D01*
X154814344Y-149115000D01*
X154450166Y-149187439D01*
X154107118Y-149329534D01*
X153798382Y-149535825D01*
X153535825Y-149798382D01*
X153329534Y-150107118D01*
X153187439Y-150450166D01*
X153115000Y-150814344D01*
X146885000Y-150814344D01*
X146812561Y-150450166D01*
X146670466Y-150107118D01*
X146464175Y-149798382D01*
X146201618Y-149535825D01*
X145892882Y-149329534D01*
X145549834Y-149187439D01*
X145185656Y-149115000D01*
X144814344Y-149115000D01*
X144450166Y-149187439D01*
X144107118Y-149329534D01*
X143798382Y-149535825D01*
X143535825Y-149798382D01*
X143329534Y-150107118D01*
X143187439Y-150450166D01*
X143115000Y-150814344D01*
X136885000Y-150814344D01*
X136812561Y-150450166D01*
X136670466Y-150107118D01*
X136464175Y-149798382D01*
X136201618Y-149535825D01*
X135892882Y-149329534D01*
X135549834Y-149187439D01*
X135185656Y-149115000D01*
X134814344Y-149115000D01*
X134450166Y-149187439D01*
X134107118Y-149329534D01*
X133798382Y-149535825D01*
X133535825Y-149798382D01*
X133329534Y-150107118D01*
X133187439Y-150450166D01*
X133115000Y-150814344D01*
X126885000Y-150814344D01*
X126812561Y-150450166D01*
X126670466Y-150107118D01*
X126464175Y-149798382D01*
X126201618Y-149535825D01*
X125892882Y-149329534D01*
X125549834Y-149187439D01*
X125185656Y-149115000D01*
X124814344Y-149115000D01*
X124450166Y-149187439D01*
X124107118Y-149329534D01*
X123798382Y-149535825D01*
X123535825Y-149798382D01*
X123329534Y-150107118D01*
X123187439Y-150450166D01*
X123115000Y-150814344D01*
X116885000Y-150814344D01*
X116812561Y-150450166D01*
X116670466Y-150107118D01*
X116464175Y-149798382D01*
X116201618Y-149535825D01*
X115892882Y-149329534D01*
X115549834Y-149187439D01*
X115185656Y-149115000D01*
X114814344Y-149115000D01*
X114450166Y-149187439D01*
X114107118Y-149329534D01*
X113798382Y-149535825D01*
X113535825Y-149798382D01*
X113329534Y-150107118D01*
X113187439Y-150450166D01*
X113115000Y-150814344D01*
X106885000Y-150814344D01*
X106812561Y-150450166D01*
X106670466Y-150107118D01*
X106464175Y-149798382D01*
X106201618Y-149535825D01*
X105892882Y-149329534D01*
X105549834Y-149187439D01*
X105185656Y-149115000D01*
X104814344Y-149115000D01*
X104450166Y-149187439D01*
X104107118Y-149329534D01*
X103798382Y-149535825D01*
X103535825Y-149798382D01*
X103329534Y-150107118D01*
X103187439Y-150450166D01*
X103115000Y-150814344D01*
X100735000Y-150814344D01*
X100735000Y-82420000D01*
X109608299Y-82420000D01*
X109635040Y-82691507D01*
X109714236Y-82952581D01*
X109842843Y-83193188D01*
X110015919Y-83404081D01*
X110226812Y-83577157D01*
X110442578Y-83692486D01*
X110352651Y-83729028D01*
X110124939Y-83878972D01*
X109930855Y-84070460D01*
X109777858Y-84296132D01*
X109671827Y-84547316D01*
X109657682Y-84618815D01*
X109780344Y-84833000D01*
X111373000Y-84833000D01*
X111373000Y-84813000D01*
X111627000Y-84813000D01*
X111627000Y-84833000D01*
X113219656Y-84833000D01*
X113342318Y-84618815D01*
X113328173Y-84547316D01*
X113222142Y-84296132D01*
X113069145Y-84070460D01*
X112875061Y-83878972D01*
X112647349Y-83729028D01*
X112557422Y-83692486D01*
X112773188Y-83577157D01*
X112984081Y-83404081D01*
X113157157Y-83193188D01*
X113285764Y-82952581D01*
X113364960Y-82691507D01*
X113391701Y-82420000D01*
X113364960Y-82148493D01*
X113285764Y-81887419D01*
X113157157Y-81646812D01*
X112984081Y-81435919D01*
X112773188Y-81262843D01*
X112532581Y-81134236D01*
X112271507Y-81055040D01*
X112068037Y-81035000D01*
X110931963Y-81035000D01*
X110728493Y-81055040D01*
X110467419Y-81134236D01*
X110226812Y-81262843D01*
X110015919Y-81435919D01*
X109842843Y-81646812D01*
X109714236Y-81887419D01*
X109635040Y-82148493D01*
X109608299Y-82420000D01*
X100735000Y-82420000D01*
X100735000Y-65240475D01*
X106965000Y-65240475D01*
X106965000Y-65759525D01*
X107066261Y-66268601D01*
X107264893Y-66748141D01*
X107553262Y-67179715D01*
X107920285Y-67546738D01*
X108351859Y-67835107D01*
X108831399Y-68033739D01*
X109340475Y-68135000D01*
X109859525Y-68135000D01*
X110368601Y-68033739D01*
X110848141Y-67835107D01*
X111279715Y-67546738D01*
X111646738Y-67179715D01*
X111935107Y-66748141D01*
X112133739Y-66268601D01*
X112235000Y-65759525D01*
X112235000Y-65240475D01*
X115765000Y-65240475D01*
X115765000Y-65759525D01*
X115866261Y-66268601D01*
X116064893Y-66748141D01*
X116353262Y-67179715D01*
X116720285Y-67546738D01*
X117151859Y-67835107D01*
X117631399Y-68033739D01*
X118140475Y-68135000D01*
X118659525Y-68135000D01*
X119168601Y-68033739D01*
X119648141Y-67835107D01*
X120079715Y-67546738D01*
X120446738Y-67179715D01*
X120735107Y-66748141D01*
X120933739Y-66268601D01*
X121035000Y-65759525D01*
X121035000Y-65240475D01*
X138965000Y-65240475D01*
X138965000Y-65759525D01*
X139066261Y-66268601D01*
X139264893Y-66748141D01*
X139553262Y-67179715D01*
X139920285Y-67546738D01*
X140351859Y-67835107D01*
X140831399Y-68033739D01*
X141340475Y-68135000D01*
X141859525Y-68135000D01*
X142368601Y-68033739D01*
X142848141Y-67835107D01*
X143279715Y-67546738D01*
X143646738Y-67179715D01*
X143935107Y-66748141D01*
X144133739Y-66268601D01*
X144235000Y-65759525D01*
X144235000Y-65240475D01*
X147765000Y-65240475D01*
X147765000Y-65759525D01*
X147866261Y-66268601D01*
X148064893Y-66748141D01*
X148353262Y-67179715D01*
X148720285Y-67546738D01*
X149151859Y-67835107D01*
X149631399Y-68033739D01*
X150140475Y-68135000D01*
X150659525Y-68135000D01*
X151168601Y-68033739D01*
X151648141Y-67835107D01*
X152079715Y-67546738D01*
X152446738Y-67179715D01*
X152735107Y-66748141D01*
X152933739Y-66268601D01*
X153035000Y-65759525D01*
X153035000Y-65240475D01*
X152933739Y-64731399D01*
X152735107Y-64251859D01*
X152446738Y-63820285D01*
X152079715Y-63453262D01*
X151648141Y-63164893D01*
X151168601Y-62966261D01*
X150659525Y-62865000D01*
X150140475Y-62865000D01*
X149631399Y-62966261D01*
X149151859Y-63164893D01*
X148720285Y-63453262D01*
X148353262Y-63820285D01*
X148064893Y-64251859D01*
X147866261Y-64731399D01*
X147765000Y-65240475D01*
X144235000Y-65240475D01*
X144133739Y-64731399D01*
X143935107Y-64251859D01*
X143646738Y-63820285D01*
X143279715Y-63453262D01*
X142848141Y-63164893D01*
X142368601Y-62966261D01*
X141859525Y-62865000D01*
X141340475Y-62865000D01*
X140831399Y-62966261D01*
X140351859Y-63164893D01*
X139920285Y-63453262D01*
X139553262Y-63820285D01*
X139264893Y-64251859D01*
X139066261Y-64731399D01*
X138965000Y-65240475D01*
X121035000Y-65240475D01*
X120933739Y-64731399D01*
X120735107Y-64251859D01*
X120446738Y-63820285D01*
X120079715Y-63453262D01*
X119648141Y-63164893D01*
X119168601Y-62966261D01*
X118659525Y-62865000D01*
X118140475Y-62865000D01*
X117631399Y-62966261D01*
X117151859Y-63164893D01*
X116720285Y-63453262D01*
X116353262Y-63820285D01*
X116064893Y-64251859D01*
X115866261Y-64731399D01*
X115765000Y-65240475D01*
X112235000Y-65240475D01*
X112133739Y-64731399D01*
X111935107Y-64251859D01*
X111646738Y-63820285D01*
X111279715Y-63453262D01*
X110848141Y-63164893D01*
X110368601Y-62966261D01*
X109859525Y-62865000D01*
X109340475Y-62865000D01*
X108831399Y-62966261D01*
X108351859Y-63164893D01*
X107920285Y-63453262D01*
X107553262Y-63820285D01*
X107264893Y-64251859D01*
X107066261Y-64731399D01*
X106965000Y-65240475D01*
X100735000Y-65240475D01*
X100735000Y-50735000D01*
X159265000Y-50735000D01*
X159265000Y-74413421D01*
G37*
X159265000Y-74413421D02*
X154756534Y-69904956D01*
X154728817Y-69871183D01*
X154594059Y-69760589D01*
X154440313Y-69678411D01*
X154273490Y-69627805D01*
X154143477Y-69615000D01*
X154143469Y-69615000D01*
X154100000Y-69610719D01*
X154056531Y-69615000D01*
X114770673Y-69615000D01*
X114727207Y-69610719D01*
X114683741Y-69615000D01*
X114683731Y-69615000D01*
X114553718Y-69627805D01*
X114386895Y-69678411D01*
X114233149Y-69760589D01*
X114233147Y-69760590D01*
X114233148Y-69760590D01*
X114132161Y-69843468D01*
X114132159Y-69843470D01*
X114098391Y-69871183D01*
X114070678Y-69904951D01*
X113404951Y-70570679D01*
X113371184Y-70598391D01*
X113343471Y-70632159D01*
X113343468Y-70632162D01*
X113260590Y-70733149D01*
X113178412Y-70886895D01*
X113127805Y-71053718D01*
X113110719Y-71227208D01*
X113112647Y-71246782D01*
X113021495Y-71307688D01*
X112807688Y-71521495D01*
X112750000Y-71607831D01*
X112692312Y-71521495D01*
X112478505Y-71307688D01*
X112227095Y-71139701D01*
X111947743Y-71023989D01*
X111651184Y-70965000D01*
X111348816Y-70965000D01*
X111052257Y-71023989D01*
X110772905Y-71139701D01*
X110521495Y-71307688D01*
X110307688Y-71521495D01*
X110139701Y-71772905D01*
X110023989Y-72052257D01*
X109965000Y-72348816D01*
X109965000Y-72651184D01*
X110023989Y-72947743D01*
X110139701Y-73227095D01*
X110307688Y-73478505D01*
X110521495Y-73692312D01*
X110772905Y-73860299D01*
X111052257Y-73976011D01*
X111348816Y-74035000D01*
X111514999Y-74035000D01*
X111515000Y-75856520D01*
X111510718Y-75899999D01*
X111527804Y-76073489D01*
X111578411Y-76240312D01*
X111660589Y-76394058D01*
X111743467Y-76495045D01*
X111743470Y-76495048D01*
X111771183Y-76528816D01*
X111804951Y-76556529D01*
X125986939Y-90738518D01*
X125965000Y-90848816D01*
X125965000Y-91151184D01*
X126023989Y-91447743D01*
X126139701Y-91727095D01*
X126307688Y-91978505D01*
X126521495Y-92192312D01*
X126772905Y-92360299D01*
X127052257Y-92476011D01*
X127348816Y-92535000D01*
X127651184Y-92535000D01*
X127947743Y-92476011D01*
X128227095Y-92360299D01*
X128478505Y-92192312D01*
X128692312Y-91978505D01*
X128750000Y-91892169D01*
X128807688Y-91978505D01*
X129021495Y-92192312D01*
X129272905Y-92360299D01*
X129552257Y-92476011D01*
X129848816Y-92535000D01*
X130151184Y-92535000D01*
X130447743Y-92476011D01*
X130727095Y-92360299D01*
X130978505Y-92192312D01*
X131106737Y-92064080D01*
X131615525Y-92064080D01*
X131699208Y-92318261D01*
X131971775Y-92449158D01*
X132264642Y-92524365D01*
X132566553Y-92540991D01*
X132865907Y-92498397D01*
X133151199Y-92398222D01*
X133300792Y-92318261D01*
X133384475Y-92064080D01*
X132500000Y-91179605D01*
X131615525Y-92064080D01*
X131106737Y-92064080D01*
X131192312Y-91978505D01*
X131287738Y-91835690D01*
X131435920Y-91884475D01*
X132320395Y-91000000D01*
X132679605Y-91000000D01*
X133564080Y-91884475D01*
X133818261Y-91800792D01*
X133949158Y-91528225D01*
X134024365Y-91235358D01*
X134040991Y-90933447D01*
X133998397Y-90634093D01*
X133898222Y-90348801D01*
X133818261Y-90199208D01*
X133564080Y-90115525D01*
X132679605Y-91000000D01*
X132320395Y-91000000D01*
X131435920Y-90115525D01*
X131287738Y-90164310D01*
X131192312Y-90021495D01*
X131106737Y-89935920D01*
X131615525Y-89935920D01*
X132500000Y-90820395D01*
X133384475Y-89935920D01*
X133300792Y-89681739D01*
X133028225Y-89550842D01*
X132735358Y-89475635D01*
X132433447Y-89459009D01*
X132134093Y-89501603D01*
X131848801Y-89601778D01*
X131699208Y-89681739D01*
X131615525Y-89935920D01*
X131106737Y-89935920D01*
X130978505Y-89807688D01*
X130727095Y-89639701D01*
X130447743Y-89523989D01*
X130151184Y-89465000D01*
X129848816Y-89465000D01*
X129552257Y-89523989D01*
X129272905Y-89639701D01*
X129021495Y-89807688D01*
X128807688Y-90021495D01*
X128750000Y-90107831D01*
X128692312Y-90021495D01*
X128478505Y-89807688D01*
X128385000Y-89745210D01*
X128385000Y-87593786D01*
X129228786Y-86750000D01*
X146611928Y-86750000D01*
X146611928Y-88250000D01*
X146624188Y-88374482D01*
X146660498Y-88494180D01*
X146719463Y-88604494D01*
X146798815Y-88701185D01*
X146895506Y-88780537D01*
X147005820Y-88839502D01*
X147125518Y-88875812D01*
X147250000Y-88888072D01*
X149750000Y-88888072D01*
X149874482Y-88875812D01*
X149994180Y-88839502D01*
X150104494Y-88780537D01*
X150201185Y-88701185D01*
X150280537Y-88604494D01*
X150339502Y-88494180D01*
X150375812Y-88374482D01*
X150388072Y-88250000D01*
X150388072Y-86750000D01*
X150375812Y-86625518D01*
X150339502Y-86505820D01*
X150280537Y-86395506D01*
X150201185Y-86298815D01*
X150104494Y-86219463D01*
X149994180Y-86160498D01*
X149874482Y-86124188D01*
X149765126Y-86113418D01*
X149875061Y-86041028D01*
X150069145Y-85849540D01*
X150222142Y-85623868D01*
X150328173Y-85372684D01*
X150342318Y-85301185D01*
X150219656Y-85087000D01*
X148627000Y-85087000D01*
X148627000Y-85107000D01*
X148373000Y-85107000D01*
X148373000Y-85087000D01*
X146780344Y-85087000D01*
X146657682Y-85301185D01*
X146671827Y-85372684D01*
X146777858Y-85623868D01*
X146930855Y-85849540D01*
X147124939Y-86041028D01*
X147234874Y-86113418D01*
X147125518Y-86124188D01*
X147005820Y-86160498D01*
X146895506Y-86219463D01*
X146798815Y-86298815D01*
X146719463Y-86395506D01*
X146660498Y-86505820D01*
X146624188Y-86625518D01*
X146611928Y-86750000D01*
X129228786Y-86750000D01*
X131765000Y-84213786D01*
X131765000Y-84259525D01*
X131866261Y-84768601D01*
X132064893Y-85248141D01*
X132353262Y-85679715D01*
X132720285Y-86046738D01*
X133151859Y-86335107D01*
X133631399Y-86533739D01*
X134140475Y-86635000D01*
X134659525Y-86635000D01*
X135168601Y-86533739D01*
X135648141Y-86335107D01*
X136079715Y-86046738D01*
X136446738Y-85679715D01*
X136735107Y-85248141D01*
X136933739Y-84768601D01*
X137035000Y-84259525D01*
X137035000Y-83740475D01*
X136933739Y-83231399D01*
X136735107Y-82751859D01*
X136446738Y-82320285D01*
X136079715Y-81953262D01*
X135648141Y-81664893D01*
X135168601Y-81466261D01*
X134659525Y-81365000D01*
X134613786Y-81365000D01*
X142403985Y-73574802D01*
X142521495Y-73692312D01*
X142612647Y-73753218D01*
X142610719Y-73772792D01*
X142627805Y-73946282D01*
X142678412Y-74113105D01*
X142760590Y-74266851D01*
X142843468Y-74367838D01*
X142843471Y-74367841D01*
X142871184Y-74401609D01*
X142904952Y-74429322D01*
X149698609Y-81222980D01*
X149532581Y-81134236D01*
X149271507Y-81055040D01*
X149068037Y-81035000D01*
X147931963Y-81035000D01*
X147728493Y-81055040D01*
X147467419Y-81134236D01*
X147226812Y-81262843D01*
X147015919Y-81435919D01*
X146842843Y-81646812D01*
X146714236Y-81887419D01*
X146635040Y-82148493D01*
X146608299Y-82420000D01*
X146635040Y-82691507D01*
X146714236Y-82952581D01*
X146842843Y-83193188D01*
X147015919Y-83404081D01*
X147226812Y-83577157D01*
X147442578Y-83692486D01*
X147352651Y-83729028D01*
X147124939Y-83878972D01*
X146930855Y-84070460D01*
X146777858Y-84296132D01*
X146671827Y-84547316D01*
X146657682Y-84618815D01*
X146780344Y-84833000D01*
X148373000Y-84833000D01*
X148373000Y-84813000D01*
X148627000Y-84813000D01*
X148627000Y-84833000D01*
X150219656Y-84833000D01*
X150342318Y-84618815D01*
X150328173Y-84547316D01*
X150222142Y-84296132D01*
X150069145Y-84070460D01*
X149875061Y-83878972D01*
X149647349Y-83729028D01*
X149557422Y-83692486D01*
X149773188Y-83577157D01*
X149984081Y-83404081D01*
X150157157Y-83193188D01*
X150285764Y-82952581D01*
X150364960Y-82691507D01*
X150391701Y-82420000D01*
X150364960Y-82148493D01*
X150285764Y-81887419D01*
X150197020Y-81721391D01*
X151610678Y-83135049D01*
X151638391Y-83168817D01*
X151672159Y-83196530D01*
X151672161Y-83196532D01*
X151714647Y-83231399D01*
X151773149Y-83279411D01*
X151926895Y-83361589D01*
X152093718Y-83412195D01*
X152223731Y-83425000D01*
X152223741Y-83425000D01*
X152267207Y-83429281D01*
X152310673Y-83425000D01*
X154305344Y-83425000D01*
X154346525Y-83486632D01*
X154553368Y-83693475D01*
X154735534Y-83815195D01*
X154618645Y-83884822D01*
X154402412Y-84079731D01*
X154228359Y-84313080D01*
X154103175Y-84575901D01*
X154058524Y-84723110D01*
X154179845Y-84953000D01*
X155373000Y-84953000D01*
X155373000Y-84933000D01*
X155627000Y-84933000D01*
X155627000Y-84953000D01*
X156820155Y-84953000D01*
X156941476Y-84723110D01*
X156896825Y-84575901D01*
X156771641Y-84313080D01*
X156597588Y-84079731D01*
X156381355Y-83884822D01*
X156264466Y-83815195D01*
X156446632Y-83693475D01*
X156653475Y-83486632D01*
X156815990Y-83243411D01*
X156927932Y-82973158D01*
X156985000Y-82686260D01*
X156985000Y-82393740D01*
X156927932Y-82106842D01*
X156815990Y-81836589D01*
X156653475Y-81593368D01*
X156521620Y-81461513D01*
X156594180Y-81439502D01*
X156704494Y-81380537D01*
X156801185Y-81301185D01*
X156880537Y-81204494D01*
X156939502Y-81094180D01*
X156975812Y-80974482D01*
X156988072Y-80850000D01*
X156988072Y-79150000D01*
X156975812Y-79025518D01*
X156939502Y-78905820D01*
X156880537Y-78795506D01*
X156801185Y-78698815D01*
X156704494Y-78619463D01*
X156594180Y-78560498D01*
X156474482Y-78524188D01*
X156350000Y-78511928D01*
X154650000Y-78511928D01*
X154525518Y-78524188D01*
X154405820Y-78560498D01*
X154295506Y-78619463D01*
X154198815Y-78698815D01*
X154119463Y-78795506D01*
X154060498Y-78905820D01*
X154024188Y-79025518D01*
X154011928Y-79150000D01*
X154011928Y-80850000D01*
X154024188Y-80974482D01*
X154060498Y-81094180D01*
X154119463Y-81204494D01*
X154198815Y-81301185D01*
X154295506Y-81380537D01*
X154405820Y-81439502D01*
X154478380Y-81461513D01*
X154346525Y-81593368D01*
X154305344Y-81655000D01*
X152633787Y-81655000D01*
X144574802Y-73596015D01*
X144692312Y-73478505D01*
X144750000Y-73392169D01*
X144807688Y-73478505D01*
X145021495Y-73692312D01*
X145272905Y-73860299D01*
X145552257Y-73976011D01*
X145848816Y-74035000D01*
X146151184Y-74035000D01*
X146447743Y-73976011D01*
X146727095Y-73860299D01*
X146978505Y-73692312D01*
X147106737Y-73564080D01*
X147615525Y-73564080D01*
X147699208Y-73818261D01*
X147971775Y-73949158D01*
X148264642Y-74024365D01*
X148566553Y-74040991D01*
X148865907Y-73998397D01*
X149151199Y-73898222D01*
X149300792Y-73818261D01*
X149384475Y-73564080D01*
X148500000Y-72679605D01*
X147615525Y-73564080D01*
X147106737Y-73564080D01*
X147192312Y-73478505D01*
X147287738Y-73335690D01*
X147435920Y-73384475D01*
X148320395Y-72500000D01*
X148679605Y-72500000D01*
X149564080Y-73384475D01*
X149818261Y-73300792D01*
X149949158Y-73028225D01*
X150024365Y-72735358D01*
X150040991Y-72433447D01*
X149998397Y-72134093D01*
X149898222Y-71848801D01*
X149818261Y-71699208D01*
X149564080Y-71615525D01*
X148679605Y-72500000D01*
X148320395Y-72500000D01*
X147435920Y-71615525D01*
X147287738Y-71664310D01*
X147192312Y-71521495D01*
X147055817Y-71385000D01*
X147632289Y-71385000D01*
X147615525Y-71435920D01*
X148500000Y-72320395D01*
X149384475Y-71435920D01*
X149367711Y-71385000D01*
X153733422Y-71385000D01*
X158115000Y-75766579D01*
X158115001Y-96453420D01*
X156976652Y-97591770D01*
X156927932Y-97346842D01*
X156815990Y-97076589D01*
X156653475Y-96833368D01*
X156446632Y-96626525D01*
X156272240Y-96510000D01*
X156446632Y-96393475D01*
X156653475Y-96186632D01*
X156815990Y-95943411D01*
X156927932Y-95673158D01*
X156985000Y-95386260D01*
X156985000Y-95093740D01*
X156927932Y-94806842D01*
X156815990Y-94536589D01*
X156653475Y-94293368D01*
X156446632Y-94086525D01*
X156272240Y-93970000D01*
X156446632Y-93853475D01*
X156653475Y-93646632D01*
X156815990Y-93403411D01*
X156927932Y-93133158D01*
X156985000Y-92846260D01*
X156985000Y-92553740D01*
X156927932Y-92266842D01*
X156815990Y-91996589D01*
X156653475Y-91753368D01*
X156446632Y-91546525D01*
X156272240Y-91430000D01*
X156446632Y-91313475D01*
X156653475Y-91106632D01*
X156815990Y-90863411D01*
X156927932Y-90593158D01*
X156985000Y-90306260D01*
X156985000Y-90013740D01*
X156927932Y-89726842D01*
X156815990Y-89456589D01*
X156653475Y-89213368D01*
X156446632Y-89006525D01*
X156272240Y-88890000D01*
X156446632Y-88773475D01*
X156653475Y-88566632D01*
X156815990Y-88323411D01*
X156927932Y-88053158D01*
X156985000Y-87766260D01*
X156985000Y-87473740D01*
X156927932Y-87186842D01*
X156815990Y-86916589D01*
X156653475Y-86673368D01*
X156446632Y-86466525D01*
X156264466Y-86344805D01*
X156381355Y-86275178D01*
X156597588Y-86080269D01*
X156771641Y-85846920D01*
X156896825Y-85584099D01*
X156941476Y-85436890D01*
X156820155Y-85207000D01*
X155627000Y-85207000D01*
X155627000Y-85227000D01*
X155373000Y-85227000D01*
X155373000Y-85207000D01*
X154179845Y-85207000D01*
X154058524Y-85436890D01*
X154103175Y-85584099D01*
X154228359Y-85846920D01*
X154402412Y-86080269D01*
X154618645Y-86275178D01*
X154735534Y-86344805D01*
X154553368Y-86466525D01*
X154346525Y-86673368D01*
X154305344Y-86735000D01*
X153365463Y-86735000D01*
X153321997Y-86730719D01*
X153278531Y-86735000D01*
X153278521Y-86735000D01*
X153148508Y-86747805D01*
X152981685Y-86798411D01*
X152827939Y-86880589D01*
X152827937Y-86880590D01*
X152827938Y-86880590D01*
X152726951Y-86963468D01*
X152726949Y-86963470D01*
X152693181Y-86991183D01*
X152665468Y-87024951D01*
X148054951Y-91635469D01*
X148021183Y-91663182D01*
X147993470Y-91696950D01*
X147993467Y-91696953D01*
X147910589Y-91797940D01*
X147828411Y-91951686D01*
X147777804Y-92118509D01*
X147770657Y-92191078D01*
X147764999Y-92248522D01*
X147764999Y-92248530D01*
X147760718Y-92291999D01*
X147764999Y-92335468D01*
X147764999Y-93064532D01*
X147760718Y-93108001D01*
X147764999Y-93151470D01*
X147764999Y-93151477D01*
X147777804Y-93281490D01*
X147828410Y-93448313D01*
X147910588Y-93602059D01*
X148021182Y-93736818D01*
X148054955Y-93764535D01*
X150385468Y-96095049D01*
X150413181Y-96128817D01*
X150446949Y-96156530D01*
X150446951Y-96156532D01*
X150518450Y-96215210D01*
X150547939Y-96239411D01*
X150701685Y-96321589D01*
X150868508Y-96372195D01*
X150998521Y-96385000D01*
X150998531Y-96385000D01*
X151041997Y-96389281D01*
X151085463Y-96385000D01*
X151461546Y-96385000D01*
X151509744Y-96417205D01*
X151698102Y-96495226D01*
X151898061Y-96535000D01*
X152101939Y-96535000D01*
X152301898Y-96495226D01*
X152490256Y-96417205D01*
X152659774Y-96303937D01*
X152803937Y-96159774D01*
X152917205Y-95990256D01*
X152995226Y-95801898D01*
X153035000Y-95601939D01*
X153035000Y-95398061D01*
X152995226Y-95198102D01*
X152917205Y-95009744D01*
X152803937Y-94840226D01*
X152659774Y-94696063D01*
X152490256Y-94582795D01*
X152301898Y-94504774D01*
X152101939Y-94465000D01*
X151898061Y-94465000D01*
X151698102Y-94504774D01*
X151509744Y-94582795D01*
X151461546Y-94615000D01*
X151408577Y-94615000D01*
X150378576Y-93585000D01*
X154305344Y-93585000D01*
X154346525Y-93646632D01*
X154553368Y-93853475D01*
X154727760Y-93970000D01*
X154553368Y-94086525D01*
X154346525Y-94293368D01*
X154184010Y-94536589D01*
X154072068Y-94806842D01*
X154015000Y-95093740D01*
X154015000Y-95386260D01*
X154072068Y-95673158D01*
X154184010Y-95943411D01*
X154346525Y-96186632D01*
X154553368Y-96393475D01*
X154727760Y-96510000D01*
X154553368Y-96626525D01*
X154346525Y-96833368D01*
X154305344Y-96895000D01*
X120349252Y-96895000D01*
X120305786Y-96890719D01*
X120262320Y-96895000D01*
X120262310Y-96895000D01*
X120132297Y-96907805D01*
X119965474Y-96958411D01*
X119811728Y-97040589D01*
X119811726Y-97040590D01*
X119811727Y-97040590D01*
X119710740Y-97123468D01*
X119710738Y-97123470D01*
X119676970Y-97151183D01*
X119649257Y-97184951D01*
X115404951Y-101429257D01*
X115371184Y-101456970D01*
X115343471Y-101490738D01*
X115343468Y-101490741D01*
X115260590Y-101591728D01*
X115178412Y-101745474D01*
X115127805Y-101912297D01*
X115110719Y-102085787D01*
X115114601Y-102125207D01*
X114957748Y-102230013D01*
X114730013Y-102457748D01*
X114551082Y-102725537D01*
X114427832Y-103023088D01*
X114365000Y-103338967D01*
X114365000Y-103661033D01*
X114427832Y-103976912D01*
X114551082Y-104274463D01*
X114730013Y-104542252D01*
X114957748Y-104769987D01*
X115225537Y-104948918D01*
X115523088Y-105072168D01*
X115838967Y-105135000D01*
X116161033Y-105135000D01*
X116476912Y-105072168D01*
X116774463Y-104948918D01*
X117042252Y-104769987D01*
X117269987Y-104542252D01*
X117448918Y-104274463D01*
X117572168Y-103976912D01*
X117635000Y-103661033D01*
X117635000Y-103338967D01*
X117572168Y-103023088D01*
X117448918Y-102725537D01*
X117269987Y-102457748D01*
X117074802Y-102262563D01*
X117536827Y-101800538D01*
X117640226Y-101903937D01*
X117809744Y-102017205D01*
X117998102Y-102095226D01*
X118054957Y-102106535D01*
X122165002Y-106216581D01*
X122165002Y-112365000D01*
X122098061Y-112365000D01*
X121898102Y-112404774D01*
X121709744Y-112482795D01*
X121661546Y-112515000D01*
X114603465Y-112515000D01*
X114559999Y-112510719D01*
X114516533Y-112515000D01*
X114516523Y-112515000D01*
X114386510Y-112527805D01*
X114219687Y-112578411D01*
X114065941Y-112660589D01*
X114065939Y-112660590D01*
X114065940Y-112660590D01*
X113964953Y-112743468D01*
X113964951Y-112743470D01*
X113931183Y-112771183D01*
X113903470Y-112804951D01*
X112385000Y-114323421D01*
X112385000Y-109135413D01*
X115044192Y-109135413D01*
X115139956Y-109399814D01*
X115429571Y-109540704D01*
X115741108Y-109622384D01*
X116062595Y-109641718D01*
X116381675Y-109597961D01*
X116686088Y-109492795D01*
X116860044Y-109399814D01*
X116955808Y-109135413D01*
X116000000Y-108179605D01*
X115044192Y-109135413D01*
X112385000Y-109135413D01*
X112385000Y-108062595D01*
X114358282Y-108062595D01*
X114402039Y-108381675D01*
X114507205Y-108686088D01*
X114600186Y-108860044D01*
X114864587Y-108955808D01*
X115820395Y-108000000D01*
X116179605Y-108000000D01*
X117135413Y-108955808D01*
X117399814Y-108860044D01*
X117540704Y-108570429D01*
X117622384Y-108258892D01*
X117641718Y-107937405D01*
X117597961Y-107618325D01*
X117492795Y-107313912D01*
X117399814Y-107139956D01*
X117135413Y-107044192D01*
X116179605Y-108000000D01*
X115820395Y-108000000D01*
X114864587Y-107044192D01*
X114600186Y-107139956D01*
X114459296Y-107429571D01*
X114377616Y-107741108D01*
X114358282Y-108062595D01*
X112385000Y-108062595D01*
X112385000Y-106864587D01*
X115044192Y-106864587D01*
X116000000Y-107820395D01*
X116955808Y-106864587D01*
X116860044Y-106600186D01*
X116570429Y-106459296D01*
X116258892Y-106377616D01*
X115937405Y-106358282D01*
X115618325Y-106402039D01*
X115313912Y-106507205D01*
X115139956Y-106600186D01*
X115044192Y-106864587D01*
X112385000Y-106864587D01*
X112385000Y-88888072D01*
X112750000Y-88888072D01*
X112874482Y-88875812D01*
X112994180Y-88839502D01*
X113104494Y-88780537D01*
X113201185Y-88701185D01*
X113280537Y-88604494D01*
X113339502Y-88494180D01*
X113375812Y-88374482D01*
X113388072Y-88250000D01*
X113388072Y-86750000D01*
X113375812Y-86625518D01*
X113339502Y-86505820D01*
X113280537Y-86395506D01*
X113201185Y-86298815D01*
X113104494Y-86219463D01*
X112994180Y-86160498D01*
X112874482Y-86124188D01*
X112765126Y-86113418D01*
X112875061Y-86041028D01*
X113069145Y-85849540D01*
X113222142Y-85623868D01*
X113328173Y-85372684D01*
X113342318Y-85301185D01*
X113219656Y-85087000D01*
X111627000Y-85087000D01*
X111627000Y-85107000D01*
X111373000Y-85107000D01*
X111373000Y-85087000D01*
X109780344Y-85087000D01*
X109657682Y-85301185D01*
X109671827Y-85372684D01*
X109777858Y-85623868D01*
X109930855Y-85849540D01*
X110124939Y-86041028D01*
X110234874Y-86113418D01*
X110125518Y-86124188D01*
X110005820Y-86160498D01*
X109895506Y-86219463D01*
X109798815Y-86298815D01*
X109719463Y-86395506D01*
X109660498Y-86505820D01*
X109624188Y-86625518D01*
X109611928Y-86750000D01*
X109611928Y-88250000D01*
X109624188Y-88374482D01*
X109660498Y-88494180D01*
X109719463Y-88604494D01*
X109798815Y-88701185D01*
X109895506Y-88780537D01*
X110005820Y-88839502D01*
X110125518Y-88875812D01*
X110250000Y-88888072D01*
X110615001Y-88888072D01*
X110615000Y-102302761D01*
X110542252Y-102230013D01*
X110274463Y-102051082D01*
X109976912Y-101927832D01*
X109661033Y-101865000D01*
X109338967Y-101865000D01*
X109023088Y-101927832D01*
X108725537Y-102051082D01*
X108457748Y-102230013D01*
X108230013Y-102457748D01*
X108051082Y-102725537D01*
X107927832Y-103023088D01*
X107865000Y-103338967D01*
X107865000Y-103661033D01*
X107927832Y-103976912D01*
X108051082Y-104274463D01*
X108230013Y-104542252D01*
X108457748Y-104769987D01*
X108725537Y-104948918D01*
X109023088Y-105072168D01*
X109338967Y-105135000D01*
X109661033Y-105135000D01*
X109976912Y-105072168D01*
X110274463Y-104948918D01*
X110542252Y-104769987D01*
X110615000Y-104697239D01*
X110615000Y-106792442D01*
X110571475Y-106748917D01*
X110455807Y-106864585D01*
X110360044Y-106600186D01*
X110070429Y-106459296D01*
X109758892Y-106377616D01*
X109437405Y-106358282D01*
X109118325Y-106402039D01*
X108813912Y-106507205D01*
X108639956Y-106600186D01*
X108544192Y-106864587D01*
X109500000Y-107820395D01*
X109514143Y-107806253D01*
X109693748Y-107985858D01*
X109679605Y-108000000D01*
X109693748Y-108014143D01*
X109514143Y-108193748D01*
X109500000Y-108179605D01*
X109485858Y-108193748D01*
X109306253Y-108014143D01*
X109320395Y-108000000D01*
X108364587Y-107044192D01*
X108100186Y-107139956D01*
X107959296Y-107429571D01*
X107877616Y-107741108D01*
X107858282Y-108062595D01*
X107902039Y-108381675D01*
X108007205Y-108686088D01*
X108100186Y-108860044D01*
X108364585Y-108955807D01*
X108265985Y-109054407D01*
X104270539Y-105058961D01*
X104285000Y-104986260D01*
X104285000Y-104693740D01*
X104227932Y-104406842D01*
X104115990Y-104136589D01*
X103953475Y-103893368D01*
X103821620Y-103761513D01*
X103894180Y-103739502D01*
X104004494Y-103680537D01*
X104101185Y-103601185D01*
X104180537Y-103504494D01*
X104239502Y-103394180D01*
X104275812Y-103274482D01*
X104288072Y-103150000D01*
X104288072Y-101450000D01*
X104275812Y-101325518D01*
X104239502Y-101205820D01*
X104180537Y-101095506D01*
X104101185Y-100998815D01*
X104004494Y-100919463D01*
X103894180Y-100860498D01*
X103774482Y-100824188D01*
X103650000Y-100811928D01*
X101950000Y-100811928D01*
X101825518Y-100824188D01*
X101705820Y-100860498D01*
X101595506Y-100919463D01*
X101498815Y-100998815D01*
X101419463Y-101095506D01*
X101360498Y-101205820D01*
X101324188Y-101325518D01*
X101311928Y-101450000D01*
X101311928Y-103150000D01*
X101324188Y-103274482D01*
X101360498Y-103394180D01*
X101419463Y-103504494D01*
X101498815Y-103601185D01*
X101595506Y-103680537D01*
X101705820Y-103739502D01*
X101778380Y-103761513D01*
X101646525Y-103893368D01*
X101484010Y-104136589D01*
X101372068Y-104406842D01*
X101315000Y-104693740D01*
X101315000Y-104986260D01*
X101372068Y-105273158D01*
X101484010Y-105543411D01*
X101646525Y-105786632D01*
X101853368Y-105993475D01*
X102027760Y-106110000D01*
X101853368Y-106226525D01*
X101646525Y-106433368D01*
X101484010Y-106676589D01*
X101372068Y-106946842D01*
X101315000Y-107233740D01*
X101315000Y-107526260D01*
X101372068Y-107813158D01*
X101484010Y-108083411D01*
X101646525Y-108326632D01*
X101853368Y-108533475D01*
X102027760Y-108650000D01*
X101853368Y-108766525D01*
X101646525Y-108973368D01*
X101484010Y-109216589D01*
X101372068Y-109486842D01*
X101315000Y-109773740D01*
X101315000Y-110066260D01*
X101372068Y-110353158D01*
X101484010Y-110623411D01*
X101646525Y-110866632D01*
X101853368Y-111073475D01*
X102035534Y-111195195D01*
X101918645Y-111264822D01*
X101702412Y-111459731D01*
X101528359Y-111693080D01*
X101403175Y-111955901D01*
X101358524Y-112103110D01*
X101479845Y-112333000D01*
X102673000Y-112333000D01*
X102673000Y-112313000D01*
X102927000Y-112313000D01*
X102927000Y-112333000D01*
X104120155Y-112333000D01*
X104241476Y-112103110D01*
X104196825Y-111955901D01*
X104071641Y-111693080D01*
X103897588Y-111459731D01*
X103681355Y-111264822D01*
X103564466Y-111195195D01*
X103746632Y-111073475D01*
X103953475Y-110866632D01*
X104115990Y-110623411D01*
X104227932Y-110353158D01*
X104285000Y-110066260D01*
X104285000Y-109773740D01*
X104227932Y-109486842D01*
X104115990Y-109216589D01*
X103953475Y-108973368D01*
X103746632Y-108766525D01*
X103572240Y-108650000D01*
X103746632Y-108533475D01*
X103953475Y-108326632D01*
X104115990Y-108083411D01*
X104227932Y-107813158D01*
X104276652Y-107568230D01*
X106915001Y-110206580D01*
X106915001Y-112210201D01*
X106901898Y-112204774D01*
X106701939Y-112165000D01*
X106498061Y-112165000D01*
X106298102Y-112204774D01*
X106109744Y-112282795D01*
X105940226Y-112396063D01*
X105796063Y-112540226D01*
X105682795Y-112709744D01*
X105604774Y-112898102D01*
X105593465Y-112954956D01*
X104155777Y-114392644D01*
X104115990Y-114296589D01*
X103953475Y-114053368D01*
X103746632Y-113846525D01*
X103564466Y-113724805D01*
X103681355Y-113655178D01*
X103897588Y-113460269D01*
X104071641Y-113226920D01*
X104196825Y-112964099D01*
X104241476Y-112816890D01*
X104120155Y-112587000D01*
X102927000Y-112587000D01*
X102927000Y-112607000D01*
X102673000Y-112607000D01*
X102673000Y-112587000D01*
X101479845Y-112587000D01*
X101358524Y-112816890D01*
X101403175Y-112964099D01*
X101528359Y-113226920D01*
X101702412Y-113460269D01*
X101918645Y-113655178D01*
X102035534Y-113724805D01*
X101853368Y-113846525D01*
X101646525Y-114053368D01*
X101484010Y-114296589D01*
X101372068Y-114566842D01*
X101315000Y-114853740D01*
X101315000Y-115146260D01*
X101372068Y-115433158D01*
X101484010Y-115703411D01*
X101646525Y-115946632D01*
X101853368Y-116153475D01*
X102027760Y-116270000D01*
X101853368Y-116386525D01*
X101646525Y-116593368D01*
X101484010Y-116836589D01*
X101372068Y-117106842D01*
X101315000Y-117393740D01*
X101315000Y-117686260D01*
X101372068Y-117973158D01*
X101484010Y-118243411D01*
X101646525Y-118486632D01*
X101853368Y-118693475D01*
X102027760Y-118810000D01*
X101853368Y-118926525D01*
X101646525Y-119133368D01*
X101484010Y-119376589D01*
X101372068Y-119646842D01*
X101315000Y-119933740D01*
X101315000Y-120226260D01*
X101372068Y-120513158D01*
X101484010Y-120783411D01*
X101646525Y-121026632D01*
X101853368Y-121233475D01*
X102027760Y-121350000D01*
X101853368Y-121466525D01*
X101646525Y-121673368D01*
X101484010Y-121916589D01*
X101372068Y-122186842D01*
X101315000Y-122473740D01*
X101315000Y-122766260D01*
X101372068Y-123053158D01*
X101484010Y-123323411D01*
X101646525Y-123566632D01*
X101853368Y-123773475D01*
X102027760Y-123890000D01*
X101853368Y-124006525D01*
X101646525Y-124213368D01*
X101484010Y-124456589D01*
X101372068Y-124726842D01*
X101315000Y-125013740D01*
X101315000Y-125306260D01*
X101372068Y-125593158D01*
X101484010Y-125863411D01*
X101646525Y-126106632D01*
X101853368Y-126313475D01*
X102096589Y-126475990D01*
X102366842Y-126587932D01*
X102653740Y-126645000D01*
X102946260Y-126645000D01*
X103233158Y-126587932D01*
X103503411Y-126475990D01*
X103746632Y-126313475D01*
X103953475Y-126106632D01*
X104115990Y-125863411D01*
X104227932Y-125593158D01*
X104285000Y-125306260D01*
X104285000Y-125013740D01*
X104270539Y-124941039D01*
X114926579Y-114285000D01*
X121297513Y-114285000D01*
X121198102Y-114304774D01*
X121009744Y-114382795D01*
X120840226Y-114496063D01*
X120696063Y-114640226D01*
X120582795Y-114809744D01*
X120504774Y-114998102D01*
X120493465Y-115054956D01*
X111804951Y-123743471D01*
X111771183Y-123771184D01*
X111743470Y-123804952D01*
X111743467Y-123804955D01*
X111684502Y-123876803D01*
X111646738Y-123820285D01*
X111279715Y-123453262D01*
X110848141Y-123164893D01*
X110368601Y-122966261D01*
X109859525Y-122865000D01*
X109340475Y-122865000D01*
X108831399Y-122966261D01*
X108351859Y-123164893D01*
X107920285Y-123453262D01*
X107553262Y-123820285D01*
X107264893Y-124251859D01*
X107066261Y-124731399D01*
X106965000Y-125240475D01*
X106965000Y-125759525D01*
X107066261Y-126268601D01*
X107264893Y-126748141D01*
X107553262Y-127179715D01*
X107920285Y-127546738D01*
X108351859Y-127835107D01*
X108831399Y-128033739D01*
X109340475Y-128135000D01*
X109859525Y-128135000D01*
X110368601Y-128033739D01*
X110848141Y-127835107D01*
X111279715Y-127546738D01*
X111515000Y-127311453D01*
X111514999Y-130965000D01*
X111348816Y-130965000D01*
X111052257Y-131023989D01*
X110772905Y-131139701D01*
X110521495Y-131307688D01*
X110307688Y-131521495D01*
X110139701Y-131772905D01*
X110023989Y-132052257D01*
X109965000Y-132348816D01*
X109965000Y-132651184D01*
X110023989Y-132947743D01*
X110139701Y-133227095D01*
X110307688Y-133478505D01*
X110521495Y-133692312D01*
X110772905Y-133860299D01*
X111052257Y-133976011D01*
X111348816Y-134035000D01*
X111651184Y-134035000D01*
X111947743Y-133976011D01*
X112227095Y-133860299D01*
X112478505Y-133692312D01*
X112692312Y-133478505D01*
X112750000Y-133392169D01*
X112807688Y-133478505D01*
X113021495Y-133692312D01*
X113272905Y-133860299D01*
X113552257Y-133976011D01*
X113848816Y-134035000D01*
X114151184Y-134035000D01*
X114447743Y-133976011D01*
X114727095Y-133860299D01*
X114978505Y-133692312D01*
X115106737Y-133564080D01*
X115615525Y-133564080D01*
X115699208Y-133818261D01*
X115971775Y-133949158D01*
X116264642Y-134024365D01*
X116566553Y-134040991D01*
X116865907Y-133998397D01*
X117151199Y-133898222D01*
X117300792Y-133818261D01*
X117384475Y-133564080D01*
X116500000Y-132679605D01*
X115615525Y-133564080D01*
X115106737Y-133564080D01*
X115192312Y-133478505D01*
X115287738Y-133335690D01*
X115435920Y-133384475D01*
X116320395Y-132500000D01*
X116679605Y-132500000D01*
X117564080Y-133384475D01*
X117818261Y-133300792D01*
X117949158Y-133028225D01*
X118024365Y-132735358D01*
X118040991Y-132433447D01*
X117998397Y-132134093D01*
X117898222Y-131848801D01*
X117818261Y-131699208D01*
X117564080Y-131615525D01*
X116679605Y-132500000D01*
X116320395Y-132500000D01*
X115435920Y-131615525D01*
X115287738Y-131664310D01*
X115192312Y-131521495D01*
X115106737Y-131435920D01*
X115615525Y-131435920D01*
X116500000Y-132320395D01*
X117384475Y-131435920D01*
X117300792Y-131181739D01*
X117028225Y-131050842D01*
X116735358Y-130975635D01*
X116433447Y-130959009D01*
X116134093Y-131001603D01*
X115848801Y-131101778D01*
X115699208Y-131181739D01*
X115615525Y-131435920D01*
X115106737Y-131435920D01*
X114978505Y-131307688D01*
X114727095Y-131139701D01*
X114447743Y-131023989D01*
X114151184Y-130965000D01*
X113848816Y-130965000D01*
X113552257Y-131023989D01*
X113284999Y-131134691D01*
X113284999Y-125240475D01*
X115765000Y-125240475D01*
X115765000Y-125759525D01*
X115866261Y-126268601D01*
X116064893Y-126748141D01*
X116353262Y-127179715D01*
X116720285Y-127546738D01*
X117151859Y-127835107D01*
X117631399Y-128033739D01*
X118140475Y-128135000D01*
X118659525Y-128135000D01*
X119168601Y-128033739D01*
X119648141Y-127835107D01*
X120079715Y-127546738D01*
X120446738Y-127179715D01*
X120735107Y-126748141D01*
X120933739Y-126268601D01*
X121035000Y-125759525D01*
X121035000Y-125240475D01*
X120933739Y-124731399D01*
X120735107Y-124251859D01*
X120446738Y-123820285D01*
X120079715Y-123453262D01*
X119648141Y-123164893D01*
X119168601Y-122966261D01*
X118659525Y-122865000D01*
X118140475Y-122865000D01*
X117631399Y-122966261D01*
X117151859Y-123164893D01*
X116720285Y-123453262D01*
X116353262Y-123820285D01*
X116064893Y-124251859D01*
X115866261Y-124731399D01*
X115765000Y-125240475D01*
X113284999Y-125240475D01*
X113284999Y-124766579D01*
X121745044Y-116306535D01*
X121801898Y-116295226D01*
X121990256Y-116217205D01*
X122159774Y-116103937D01*
X122165002Y-116098709D01*
X122165001Y-140413420D01*
X117383422Y-145195000D01*
X116755501Y-145195000D01*
X116701185Y-145128815D01*
X116604494Y-145049463D01*
X116494180Y-144990498D01*
X116374482Y-144954188D01*
X116250000Y-144941928D01*
X113750000Y-144941928D01*
X113625518Y-144954188D01*
X113505820Y-144990498D01*
X113395506Y-145049463D01*
X113298815Y-145128815D01*
X113219463Y-145225506D01*
X113160498Y-145335820D01*
X113124188Y-145455518D01*
X113111928Y-145580000D01*
X113111928Y-146145001D01*
X108066580Y-146145001D01*
X107406532Y-145484954D01*
X107378817Y-145451183D01*
X107244059Y-145340589D01*
X107090313Y-145258411D01*
X106923490Y-145207805D01*
X106793477Y-145195000D01*
X106793469Y-145195000D01*
X106752163Y-145190932D01*
X106701185Y-145128815D01*
X106604494Y-145049463D01*
X106494180Y-144990498D01*
X106374482Y-144954188D01*
X106250000Y-144941928D01*
X103750000Y-144941928D01*
X103625518Y-144954188D01*
X103505820Y-144990498D01*
X103395506Y-145049463D01*
X103298815Y-145128815D01*
X103219463Y-145225506D01*
X103160498Y-145335820D01*
X103124188Y-145455518D01*
X103111928Y-145580000D01*
X103111928Y-146580000D01*
X103124188Y-146704482D01*
X103160498Y-146824180D01*
X103219463Y-146934494D01*
X103298815Y-147031185D01*
X103395506Y-147110537D01*
X103505820Y-147169502D01*
X103625518Y-147205812D01*
X103750000Y-147218072D01*
X106250000Y-147218072D01*
X106374482Y-147205812D01*
X106494180Y-147169502D01*
X106555270Y-147136848D01*
X107043471Y-147625050D01*
X107071184Y-147658818D01*
X107104952Y-147686531D01*
X107104954Y-147686533D01*
X107176453Y-147745211D01*
X107205942Y-147769412D01*
X107359688Y-147851590D01*
X107526511Y-147902196D01*
X107656524Y-147915001D01*
X107656534Y-147915001D01*
X107700000Y-147919282D01*
X107743466Y-147915001D01*
X117746492Y-147915001D01*
X117789961Y-147919282D01*
X117833430Y-147915001D01*
X117833438Y-147915001D01*
X117963451Y-147902196D01*
X118130274Y-147851590D01*
X118284020Y-147769412D01*
X118418778Y-147658818D01*
X118446495Y-147625045D01*
X120491540Y-145580000D01*
X123111928Y-145580000D01*
X123111928Y-146580000D01*
X123124188Y-146704482D01*
X123160498Y-146824180D01*
X123219463Y-146934494D01*
X123298815Y-147031185D01*
X123395506Y-147110537D01*
X123505820Y-147169502D01*
X123625518Y-147205812D01*
X123750000Y-147218072D01*
X126250000Y-147218072D01*
X126374482Y-147205812D01*
X126494180Y-147169502D01*
X126604494Y-147110537D01*
X126701185Y-147031185D01*
X126780537Y-146934494D01*
X126839502Y-146824180D01*
X126875812Y-146704482D01*
X126888072Y-146580000D01*
X126888072Y-145580000D01*
X133111928Y-145580000D01*
X133111928Y-146580000D01*
X133124188Y-146704482D01*
X133160498Y-146824180D01*
X133219463Y-146934494D01*
X133298815Y-147031185D01*
X133395506Y-147110537D01*
X133505820Y-147169502D01*
X133625518Y-147205812D01*
X133750000Y-147218072D01*
X136250000Y-147218072D01*
X136374482Y-147205812D01*
X136494180Y-147169502D01*
X136604494Y-147110537D01*
X136701185Y-147031185D01*
X136780537Y-146934494D01*
X136839502Y-146824180D01*
X136875812Y-146704482D01*
X136888072Y-146580000D01*
X136888072Y-145580000D01*
X143111928Y-145580000D01*
X143111928Y-146580000D01*
X143124188Y-146704482D01*
X143160498Y-146824180D01*
X143219463Y-146934494D01*
X143298815Y-147031185D01*
X143395506Y-147110537D01*
X143505820Y-147169502D01*
X143625518Y-147205812D01*
X143750000Y-147218072D01*
X146250000Y-147218072D01*
X146374482Y-147205812D01*
X146494180Y-147169502D01*
X146604494Y-147110537D01*
X146701185Y-147031185D01*
X146780537Y-146934494D01*
X146839502Y-146824180D01*
X146875812Y-146704482D01*
X146888072Y-146580000D01*
X146888072Y-145580000D01*
X153111928Y-145580000D01*
X153111928Y-146580000D01*
X153124188Y-146704482D01*
X153160498Y-146824180D01*
X153219463Y-146934494D01*
X153298815Y-147031185D01*
X153395506Y-147110537D01*
X153505820Y-147169502D01*
X153625518Y-147205812D01*
X153750000Y-147218072D01*
X156250000Y-147218072D01*
X156374482Y-147205812D01*
X156494180Y-147169502D01*
X156604494Y-147110537D01*
X156701185Y-147031185D01*
X156780537Y-146934494D01*
X156839502Y-146824180D01*
X156875812Y-146704482D01*
X156888072Y-146580000D01*
X156888072Y-145580000D01*
X156875812Y-145455518D01*
X156839502Y-145335820D01*
X156780537Y-145225506D01*
X156701185Y-145128815D01*
X156604494Y-145049463D01*
X156494180Y-144990498D01*
X156374482Y-144954188D01*
X156250000Y-144941928D01*
X153750000Y-144941928D01*
X153625518Y-144954188D01*
X153505820Y-144990498D01*
X153395506Y-145049463D01*
X153298815Y-145128815D01*
X153219463Y-145225506D01*
X153160498Y-145335820D01*
X153124188Y-145455518D01*
X153111928Y-145580000D01*
X146888072Y-145580000D01*
X146875812Y-145455518D01*
X146839502Y-145335820D01*
X146780537Y-145225506D01*
X146701185Y-145128815D01*
X146604494Y-145049463D01*
X146494180Y-144990498D01*
X146374482Y-144954188D01*
X146250000Y-144941928D01*
X143750000Y-144941928D01*
X143625518Y-144954188D01*
X143505820Y-144990498D01*
X143395506Y-145049463D01*
X143298815Y-145128815D01*
X143219463Y-145225506D01*
X143160498Y-145335820D01*
X143124188Y-145455518D01*
X143111928Y-145580000D01*
X136888072Y-145580000D01*
X136875812Y-145455518D01*
X136839502Y-145335820D01*
X136780537Y-145225506D01*
X136701185Y-145128815D01*
X136604494Y-145049463D01*
X136494180Y-144990498D01*
X136374482Y-144954188D01*
X136250000Y-144941928D01*
X133750000Y-144941928D01*
X133625518Y-144954188D01*
X133505820Y-144990498D01*
X133395506Y-145049463D01*
X133298815Y-145128815D01*
X133219463Y-145225506D01*
X133160498Y-145335820D01*
X133124188Y-145455518D01*
X133111928Y-145580000D01*
X126888072Y-145580000D01*
X126875812Y-145455518D01*
X126839502Y-145335820D01*
X126780537Y-145225506D01*
X126701185Y-145128815D01*
X126604494Y-145049463D01*
X126494180Y-144990498D01*
X126374482Y-144954188D01*
X126250000Y-144941928D01*
X123750000Y-144941928D01*
X123625518Y-144954188D01*
X123505820Y-144990498D01*
X123395506Y-145049463D01*
X123298815Y-145128815D01*
X123219463Y-145225506D01*
X123160498Y-145335820D01*
X123124188Y-145455518D01*
X123111928Y-145580000D01*
X120491540Y-145580000D01*
X132745050Y-133326491D01*
X132778816Y-133298780D01*
X132889410Y-133164022D01*
X132971588Y-133010276D01*
X133022194Y-132843453D01*
X133034999Y-132713440D01*
X133034999Y-132713430D01*
X133039280Y-132669964D01*
X133034999Y-132626498D01*
X133034999Y-126435000D01*
X133083422Y-126435000D01*
X135193471Y-128545050D01*
X135221184Y-128578818D01*
X135254952Y-128606531D01*
X135254954Y-128606533D01*
X135326453Y-128665211D01*
X135355942Y-128689412D01*
X135509688Y-128771590D01*
X135625904Y-128806844D01*
X135676510Y-128822196D01*
X135691307Y-128823653D01*
X135806524Y-128835001D01*
X135806532Y-128835001D01*
X135850001Y-128839282D01*
X135893470Y-128835001D01*
X141083423Y-128835001D01*
X143235885Y-130987463D01*
X143052257Y-131023989D01*
X142772905Y-131139701D01*
X142521495Y-131307688D01*
X142307688Y-131521495D01*
X142139701Y-131772905D01*
X142023989Y-132052257D01*
X141965000Y-132348816D01*
X141965000Y-132651184D01*
X142023989Y-132947743D01*
X142139701Y-133227095D01*
X142307688Y-133478505D01*
X142521495Y-133692312D01*
X142772905Y-133860299D01*
X143052257Y-133976011D01*
X143348816Y-134035000D01*
X143651184Y-134035000D01*
X143761482Y-134013061D01*
X143804952Y-134056531D01*
X143804958Y-134056536D01*
X144193467Y-134445045D01*
X144221184Y-134478818D01*
X144355942Y-134589412D01*
X144509688Y-134671590D01*
X144625904Y-134706844D01*
X144676510Y-134722196D01*
X144691307Y-134723653D01*
X144806524Y-134735001D01*
X144806532Y-134735001D01*
X144850001Y-134739282D01*
X144893470Y-134735001D01*
X149104532Y-134735001D01*
X149148001Y-134739282D01*
X149191470Y-134735001D01*
X149191478Y-134735001D01*
X149321491Y-134722196D01*
X149488314Y-134671590D01*
X149642060Y-134589412D01*
X149776818Y-134478818D01*
X149804535Y-134445045D01*
X150445050Y-133804531D01*
X150478818Y-133776818D01*
X150561140Y-133676510D01*
X150589412Y-133642060D01*
X150671590Y-133488314D01*
X150722196Y-133321491D01*
X150735001Y-133191478D01*
X150735001Y-133191470D01*
X150739282Y-133148001D01*
X150735001Y-133104532D01*
X150735001Y-130167468D01*
X150739282Y-130123999D01*
X150735001Y-130080530D01*
X150735001Y-130080522D01*
X150722196Y-129950509D01*
X150671590Y-129783685D01*
X150589412Y-129629940D01*
X150506533Y-129528952D01*
X150506531Y-129528950D01*
X150478818Y-129495182D01*
X150445052Y-129467471D01*
X146218056Y-125240475D01*
X147765000Y-125240475D01*
X147765000Y-125759525D01*
X147866261Y-126268601D01*
X148064893Y-126748141D01*
X148353262Y-127179715D01*
X148720285Y-127546738D01*
X149151859Y-127835107D01*
X149631399Y-128033739D01*
X150140475Y-128135000D01*
X150659525Y-128135000D01*
X151168601Y-128033739D01*
X151648141Y-127835107D01*
X152079715Y-127546738D01*
X152446738Y-127179715D01*
X152735107Y-126748141D01*
X152933739Y-126268601D01*
X153035000Y-125759525D01*
X153035000Y-125240475D01*
X152933739Y-124731399D01*
X152735107Y-124251859D01*
X152446738Y-123820285D01*
X152079715Y-123453262D01*
X151648141Y-123164893D01*
X151168601Y-122966261D01*
X150659525Y-122865000D01*
X150140475Y-122865000D01*
X149631399Y-122966261D01*
X149151859Y-123164893D01*
X148720285Y-123453262D01*
X148353262Y-123820285D01*
X148064893Y-124251859D01*
X147866261Y-124731399D01*
X147765000Y-125240475D01*
X146218056Y-125240475D01*
X142382536Y-121404956D01*
X142354819Y-121371183D01*
X142220061Y-121260589D01*
X142066315Y-121178411D01*
X141899492Y-121127805D01*
X141769479Y-121115000D01*
X141769471Y-121115000D01*
X141726002Y-121110719D01*
X141682533Y-121115000D01*
X138038454Y-121115000D01*
X137990256Y-121082795D01*
X137801898Y-121004774D01*
X137601939Y-120965000D01*
X137398061Y-120965000D01*
X137198102Y-121004774D01*
X137009744Y-121082795D01*
X136840226Y-121196063D01*
X136696063Y-121340226D01*
X136582795Y-121509744D01*
X136504774Y-121698102D01*
X136465000Y-121898061D01*
X136465000Y-122101939D01*
X136504774Y-122301898D01*
X136582795Y-122490256D01*
X136696063Y-122659774D01*
X136840226Y-122803937D01*
X137009744Y-122917205D01*
X137198102Y-122995226D01*
X137398061Y-123035000D01*
X137601939Y-123035000D01*
X137801898Y-122995226D01*
X137990256Y-122917205D01*
X138038454Y-122885000D01*
X141239928Y-122885000D01*
X140831399Y-122966261D01*
X140351859Y-123164893D01*
X139920285Y-123453262D01*
X139553262Y-123820285D01*
X139264893Y-124251859D01*
X139066261Y-124731399D01*
X138965000Y-125240475D01*
X138965000Y-125759525D01*
X139066261Y-126268601D01*
X139264893Y-126748141D01*
X139476612Y-127065001D01*
X136216580Y-127065001D01*
X133956534Y-124804956D01*
X133928817Y-124771183D01*
X133794059Y-124660589D01*
X133640313Y-124578411D01*
X133627571Y-124574546D01*
X133490256Y-124482795D01*
X133301898Y-124404774D01*
X133217575Y-124388001D01*
X148470163Y-109135413D01*
X149544192Y-109135413D01*
X149639956Y-109399814D01*
X149929571Y-109540704D01*
X150241108Y-109622384D01*
X150562595Y-109641718D01*
X150881675Y-109597961D01*
X151186088Y-109492795D01*
X151360044Y-109399814D01*
X151455808Y-109135413D01*
X150500000Y-108179605D01*
X149544192Y-109135413D01*
X148470163Y-109135413D01*
X148984682Y-108620894D01*
X149007205Y-108686088D01*
X149100186Y-108860044D01*
X149364587Y-108955808D01*
X150320395Y-108000000D01*
X150679605Y-108000000D01*
X151635413Y-108955808D01*
X151899814Y-108860044D01*
X152040704Y-108570429D01*
X152122384Y-108258892D01*
X152141718Y-107937405D01*
X152097961Y-107618325D01*
X151992795Y-107313912D01*
X151899814Y-107139956D01*
X151635413Y-107044192D01*
X150679605Y-108000000D01*
X150320395Y-108000000D01*
X150306253Y-107985858D01*
X150485858Y-107806253D01*
X150500000Y-107820395D01*
X151455808Y-106864587D01*
X151360044Y-106600186D01*
X151121457Y-106484120D01*
X151320577Y-106285000D01*
X154305344Y-106285000D01*
X154346525Y-106346632D01*
X154553368Y-106553475D01*
X154727760Y-106670000D01*
X154553368Y-106786525D01*
X154346525Y-106993368D01*
X154184010Y-107236589D01*
X154072068Y-107506842D01*
X154015000Y-107793740D01*
X154015000Y-108086260D01*
X154072068Y-108373158D01*
X154184010Y-108643411D01*
X154346525Y-108886632D01*
X154553368Y-109093475D01*
X154796589Y-109255990D01*
X155066842Y-109367932D01*
X155353740Y-109425000D01*
X155646260Y-109425000D01*
X155933158Y-109367932D01*
X156203411Y-109255990D01*
X156446632Y-109093475D01*
X156653475Y-108886632D01*
X156815990Y-108643411D01*
X156927932Y-108373158D01*
X156985000Y-108086260D01*
X156985000Y-107793740D01*
X156927932Y-107506842D01*
X156815990Y-107236589D01*
X156653475Y-106993368D01*
X156446632Y-106786525D01*
X156272240Y-106670000D01*
X156446632Y-106553475D01*
X156653475Y-106346632D01*
X156815990Y-106103411D01*
X156927932Y-105833158D01*
X156985000Y-105546260D01*
X156985000Y-105253740D01*
X156927932Y-104966842D01*
X156815990Y-104696589D01*
X156653475Y-104453368D01*
X156446632Y-104246525D01*
X156272240Y-104130000D01*
X156446632Y-104013475D01*
X156653475Y-103806632D01*
X156815990Y-103563411D01*
X156927932Y-103293158D01*
X156985000Y-103006260D01*
X156985000Y-102713740D01*
X156927932Y-102426842D01*
X156815990Y-102156589D01*
X156653475Y-101913368D01*
X156446632Y-101706525D01*
X156272240Y-101590000D01*
X156446632Y-101473475D01*
X156653475Y-101266632D01*
X156815990Y-101023411D01*
X156927932Y-100753158D01*
X156985000Y-100466260D01*
X156985000Y-100173740D01*
X156970539Y-100101039D01*
X159265000Y-97806578D01*
X159265001Y-159265000D01*
X100735000Y-159265000D01*
X100735000Y-157980000D01*
X103111928Y-157980000D01*
X103124188Y-158104482D01*
X103160498Y-158224180D01*
X103219463Y-158334494D01*
X103298815Y-158431185D01*
X103395506Y-158510537D01*
X103505820Y-158569502D01*
X103625518Y-158605812D01*
X103750000Y-158618072D01*
X104714250Y-158615000D01*
X104873000Y-158456250D01*
X104873000Y-157607000D01*
X105127000Y-157607000D01*
X105127000Y-158456250D01*
X105285750Y-158615000D01*
X106250000Y-158618072D01*
X106374482Y-158605812D01*
X106494180Y-158569502D01*
X106604494Y-158510537D01*
X106701185Y-158431185D01*
X106780537Y-158334494D01*
X106839502Y-158224180D01*
X106875812Y-158104482D01*
X106888072Y-157980000D01*
X113111928Y-157980000D01*
X113124188Y-158104482D01*
X113160498Y-158224180D01*
X113219463Y-158334494D01*
X113298815Y-158431185D01*
X113395506Y-158510537D01*
X113505820Y-158569502D01*
X113625518Y-158605812D01*
X113750000Y-158618072D01*
X114714250Y-158615000D01*
X114873000Y-158456250D01*
X114873000Y-157607000D01*
X115127000Y-157607000D01*
X115127000Y-158456250D01*
X115285750Y-158615000D01*
X116250000Y-158618072D01*
X116374482Y-158605812D01*
X116494180Y-158569502D01*
X116604494Y-158510537D01*
X116701185Y-158431185D01*
X116780537Y-158334494D01*
X116839502Y-158224180D01*
X116875812Y-158104482D01*
X116888072Y-157980000D01*
X123111928Y-157980000D01*
X123124188Y-158104482D01*
X123160498Y-158224180D01*
X123219463Y-158334494D01*
X123298815Y-158431185D01*
X123395506Y-158510537D01*
X123505820Y-158569502D01*
X123625518Y-158605812D01*
X123750000Y-158618072D01*
X124714250Y-158615000D01*
X124873000Y-158456250D01*
X124873000Y-157607000D01*
X125127000Y-157607000D01*
X125127000Y-158456250D01*
X125285750Y-158615000D01*
X126250000Y-158618072D01*
X126374482Y-158605812D01*
X126494180Y-158569502D01*
X126604494Y-158510537D01*
X126701185Y-158431185D01*
X126780537Y-158334494D01*
X126839502Y-158224180D01*
X126875812Y-158104482D01*
X126888072Y-157980000D01*
X133111928Y-157980000D01*
X133124188Y-158104482D01*
X133160498Y-158224180D01*
X133219463Y-158334494D01*
X133298815Y-158431185D01*
X133395506Y-158510537D01*
X133505820Y-158569502D01*
X133625518Y-158605812D01*
X133750000Y-158618072D01*
X134714250Y-158615000D01*
X134873000Y-158456250D01*
X134873000Y-157607000D01*
X135127000Y-157607000D01*
X135127000Y-158456250D01*
X135285750Y-158615000D01*
X136250000Y-158618072D01*
X136374482Y-158605812D01*
X136494180Y-158569502D01*
X136604494Y-158510537D01*
X136701185Y-158431185D01*
X136780537Y-158334494D01*
X136839502Y-158224180D01*
X136875812Y-158104482D01*
X136888072Y-157980000D01*
X143111928Y-157980000D01*
X143124188Y-158104482D01*
X143160498Y-158224180D01*
X143219463Y-158334494D01*
X143298815Y-158431185D01*
X143395506Y-158510537D01*
X143505820Y-158569502D01*
X143625518Y-158605812D01*
X143750000Y-158618072D01*
X144714250Y-158615000D01*
X144873000Y-158456250D01*
X144873000Y-157607000D01*
X145127000Y-157607000D01*
X145127000Y-158456250D01*
X145285750Y-158615000D01*
X146250000Y-158618072D01*
X146374482Y-158605812D01*
X146494180Y-158569502D01*
X146604494Y-158510537D01*
X146701185Y-158431185D01*
X146780537Y-158334494D01*
X146839502Y-158224180D01*
X146875812Y-158104482D01*
X146888072Y-157980000D01*
X153111928Y-157980000D01*
X153124188Y-158104482D01*
X153160498Y-158224180D01*
X153219463Y-158334494D01*
X153298815Y-158431185D01*
X153395506Y-158510537D01*
X153505820Y-158569502D01*
X153625518Y-158605812D01*
X153750000Y-158618072D01*
X154714250Y-158615000D01*
X154873000Y-158456250D01*
X154873000Y-157607000D01*
X155127000Y-157607000D01*
X155127000Y-158456250D01*
X155285750Y-158615000D01*
X156250000Y-158618072D01*
X156374482Y-158605812D01*
X156494180Y-158569502D01*
X156604494Y-158510537D01*
X156701185Y-158431185D01*
X156780537Y-158334494D01*
X156839502Y-158224180D01*
X156875812Y-158104482D01*
X156888072Y-157980000D01*
X156885000Y-157765750D01*
X156726250Y-157607000D01*
X155127000Y-157607000D01*
X154873000Y-157607000D01*
X153273750Y-157607000D01*
X153115000Y-157765750D01*
X153111928Y-157980000D01*
X146888072Y-157980000D01*
X146885000Y-157765750D01*
X146726250Y-157607000D01*
X145127000Y-157607000D01*
X144873000Y-157607000D01*
X143273750Y-157607000D01*
X143115000Y-157765750D01*
X143111928Y-157980000D01*
X136888072Y-157980000D01*
X136885000Y-157765750D01*
X136726250Y-157607000D01*
X135127000Y-157607000D01*
X134873000Y-157607000D01*
X133273750Y-157607000D01*
X133115000Y-157765750D01*
X133111928Y-157980000D01*
X126888072Y-157980000D01*
X126885000Y-157765750D01*
X126726250Y-157607000D01*
X125127000Y-157607000D01*
X124873000Y-157607000D01*
X123273750Y-157607000D01*
X123115000Y-157765750D01*
X123111928Y-157980000D01*
X116888072Y-157980000D01*
X116885000Y-157765750D01*
X116726250Y-157607000D01*
X115127000Y-157607000D01*
X114873000Y-157607000D01*
X113273750Y-157607000D01*
X113115000Y-157765750D01*
X113111928Y-157980000D01*
X106888072Y-157980000D01*
X106885000Y-157765750D01*
X106726250Y-157607000D01*
X105127000Y-157607000D01*
X104873000Y-157607000D01*
X103273750Y-157607000D01*
X103115000Y-157765750D01*
X103111928Y-157980000D01*
X100735000Y-157980000D01*
X100735000Y-156980000D01*
X103111928Y-156980000D01*
X103115000Y-157194250D01*
X103273750Y-157353000D01*
X104873000Y-157353000D01*
X104873000Y-156503750D01*
X105127000Y-156503750D01*
X105127000Y-157353000D01*
X106726250Y-157353000D01*
X106885000Y-157194250D01*
X106888072Y-156980000D01*
X113111928Y-156980000D01*
X113115000Y-157194250D01*
X113273750Y-157353000D01*
X114873000Y-157353000D01*
X114873000Y-156503750D01*
X115127000Y-156503750D01*
X115127000Y-157353000D01*
X116726250Y-157353000D01*
X116885000Y-157194250D01*
X116888072Y-156980000D01*
X123111928Y-156980000D01*
X123115000Y-157194250D01*
X123273750Y-157353000D01*
X124873000Y-157353000D01*
X124873000Y-156503750D01*
X125127000Y-156503750D01*
X125127000Y-157353000D01*
X126726250Y-157353000D01*
X126885000Y-157194250D01*
X126888072Y-156980000D01*
X133111928Y-156980000D01*
X133115000Y-157194250D01*
X133273750Y-157353000D01*
X134873000Y-157353000D01*
X134873000Y-156503750D01*
X135127000Y-156503750D01*
X135127000Y-157353000D01*
X136726250Y-157353000D01*
X136885000Y-157194250D01*
X136888072Y-156980000D01*
X143111928Y-156980000D01*
X143115000Y-157194250D01*
X143273750Y-157353000D01*
X144873000Y-157353000D01*
X144873000Y-156503750D01*
X145127000Y-156503750D01*
X145127000Y-157353000D01*
X146726250Y-157353000D01*
X146885000Y-157194250D01*
X146888072Y-156980000D01*
X153111928Y-156980000D01*
X153115000Y-157194250D01*
X153273750Y-157353000D01*
X154873000Y-157353000D01*
X154873000Y-156503750D01*
X155127000Y-156503750D01*
X155127000Y-157353000D01*
X156726250Y-157353000D01*
X156885000Y-157194250D01*
X156888072Y-156980000D01*
X156875812Y-156855518D01*
X156839502Y-156735820D01*
X156780537Y-156625506D01*
X156701185Y-156528815D01*
X156604494Y-156449463D01*
X156494180Y-156390498D01*
X156374482Y-156354188D01*
X156250000Y-156341928D01*
X155285750Y-156345000D01*
X155127000Y-156503750D01*
X154873000Y-156503750D01*
X154714250Y-156345000D01*
X153750000Y-156341928D01*
X153625518Y-156354188D01*
X153505820Y-156390498D01*
X153395506Y-156449463D01*
X153298815Y-156528815D01*
X153219463Y-156625506D01*
X153160498Y-156735820D01*
X153124188Y-156855518D01*
X153111928Y-156980000D01*
X146888072Y-156980000D01*
X146875812Y-156855518D01*
X146839502Y-156735820D01*
X146780537Y-156625506D01*
X146701185Y-156528815D01*
X146604494Y-156449463D01*
X146494180Y-156390498D01*
X146374482Y-156354188D01*
X146250000Y-156341928D01*
X145285750Y-156345000D01*
X145127000Y-156503750D01*
X144873000Y-156503750D01*
X144714250Y-156345000D01*
X143750000Y-156341928D01*
X143625518Y-156354188D01*
X143505820Y-156390498D01*
X143395506Y-156449463D01*
X143298815Y-156528815D01*
X143219463Y-156625506D01*
X143160498Y-156735820D01*
X143124188Y-156855518D01*
X143111928Y-156980000D01*
X136888072Y-156980000D01*
X136875812Y-156855518D01*
X136839502Y-156735820D01*
X136780537Y-156625506D01*
X136701185Y-156528815D01*
X136604494Y-156449463D01*
X136494180Y-156390498D01*
X136374482Y-156354188D01*
X136250000Y-156341928D01*
X135285750Y-156345000D01*
X135127000Y-156503750D01*
X134873000Y-156503750D01*
X134714250Y-156345000D01*
X133750000Y-156341928D01*
X133625518Y-156354188D01*
X133505820Y-156390498D01*
X133395506Y-156449463D01*
X133298815Y-156528815D01*
X133219463Y-156625506D01*
X133160498Y-156735820D01*
X133124188Y-156855518D01*
X133111928Y-156980000D01*
X126888072Y-156980000D01*
X126875812Y-156855518D01*
X126839502Y-156735820D01*
X126780537Y-156625506D01*
X126701185Y-156528815D01*
X126604494Y-156449463D01*
X126494180Y-156390498D01*
X126374482Y-156354188D01*
X126250000Y-156341928D01*
X125285750Y-156345000D01*
X125127000Y-156503750D01*
X124873000Y-156503750D01*
X124714250Y-156345000D01*
X123750000Y-156341928D01*
X123625518Y-156354188D01*
X123505820Y-156390498D01*
X123395506Y-156449463D01*
X123298815Y-156528815D01*
X123219463Y-156625506D01*
X123160498Y-156735820D01*
X123124188Y-156855518D01*
X123111928Y-156980000D01*
X116888072Y-156980000D01*
X116875812Y-156855518D01*
X116839502Y-156735820D01*
X116780537Y-156625506D01*
X116701185Y-156528815D01*
X116604494Y-156449463D01*
X116494180Y-156390498D01*
X116374482Y-156354188D01*
X116250000Y-156341928D01*
X115285750Y-156345000D01*
X115127000Y-156503750D01*
X114873000Y-156503750D01*
X114714250Y-156345000D01*
X113750000Y-156341928D01*
X113625518Y-156354188D01*
X113505820Y-156390498D01*
X113395506Y-156449463D01*
X113298815Y-156528815D01*
X113219463Y-156625506D01*
X113160498Y-156735820D01*
X113124188Y-156855518D01*
X113111928Y-156980000D01*
X106888072Y-156980000D01*
X106875812Y-156855518D01*
X106839502Y-156735820D01*
X106780537Y-156625506D01*
X106701185Y-156528815D01*
X106604494Y-156449463D01*
X106494180Y-156390498D01*
X106374482Y-156354188D01*
X106250000Y-156341928D01*
X105285750Y-156345000D01*
X105127000Y-156503750D01*
X104873000Y-156503750D01*
X104714250Y-156345000D01*
X103750000Y-156341928D01*
X103625518Y-156354188D01*
X103505820Y-156390498D01*
X103395506Y-156449463D01*
X103298815Y-156528815D01*
X103219463Y-156625506D01*
X103160498Y-156735820D01*
X103124188Y-156855518D01*
X103111928Y-156980000D01*
X100735000Y-156980000D01*
X100735000Y-153880000D01*
X103111928Y-153880000D01*
X103111928Y-154880000D01*
X103124188Y-155004482D01*
X103160498Y-155124180D01*
X103219463Y-155234494D01*
X103298815Y-155331185D01*
X103395506Y-155410537D01*
X103505820Y-155469502D01*
X103625518Y-155505812D01*
X103750000Y-155518072D01*
X106250000Y-155518072D01*
X106374482Y-155505812D01*
X106494180Y-155469502D01*
X106604494Y-155410537D01*
X106701185Y-155331185D01*
X106780537Y-155234494D01*
X106839502Y-155124180D01*
X106875812Y-155004482D01*
X106888072Y-154880000D01*
X113111928Y-154880000D01*
X113124188Y-155004482D01*
X113160498Y-155124180D01*
X113219463Y-155234494D01*
X113298815Y-155331185D01*
X113395506Y-155410537D01*
X113505820Y-155469502D01*
X113625518Y-155505812D01*
X113750000Y-155518072D01*
X114714250Y-155515000D01*
X114873000Y-155356250D01*
X114873000Y-154507000D01*
X115127000Y-154507000D01*
X115127000Y-155356250D01*
X115285750Y-155515000D01*
X116250000Y-155518072D01*
X116374482Y-155505812D01*
X116494180Y-155469502D01*
X116604494Y-155410537D01*
X116701185Y-155331185D01*
X116780537Y-155234494D01*
X116839502Y-155124180D01*
X116875812Y-155004482D01*
X116888072Y-154880000D01*
X123111928Y-154880000D01*
X123124188Y-155004482D01*
X123160498Y-155124180D01*
X123219463Y-155234494D01*
X123298815Y-155331185D01*
X123395506Y-155410537D01*
X123505820Y-155469502D01*
X123625518Y-155505812D01*
X123750000Y-155518072D01*
X124714250Y-155515000D01*
X124873000Y-155356250D01*
X124873000Y-154507000D01*
X125127000Y-154507000D01*
X125127000Y-155356250D01*
X125285750Y-155515000D01*
X126250000Y-155518072D01*
X126374482Y-155505812D01*
X126494180Y-155469502D01*
X126604494Y-155410537D01*
X126701185Y-155331185D01*
X126780537Y-155234494D01*
X126839502Y-155124180D01*
X126875812Y-155004482D01*
X126888072Y-154880000D01*
X126885000Y-154665750D01*
X126726250Y-154507000D01*
X125127000Y-154507000D01*
X124873000Y-154507000D01*
X123273750Y-154507000D01*
X123115000Y-154665750D01*
X123111928Y-154880000D01*
X116888072Y-154880000D01*
X116885000Y-154665750D01*
X116726250Y-154507000D01*
X115127000Y-154507000D01*
X114873000Y-154507000D01*
X113273750Y-154507000D01*
X113115000Y-154665750D01*
X113111928Y-154880000D01*
X106888072Y-154880000D01*
X106888072Y-153880000D01*
X113111928Y-153880000D01*
X113115000Y-154094250D01*
X113273750Y-154253000D01*
X114873000Y-154253000D01*
X114873000Y-153403750D01*
X115127000Y-153403750D01*
X115127000Y-154253000D01*
X116726250Y-154253000D01*
X116885000Y-154094250D01*
X116888072Y-153880000D01*
X123111928Y-153880000D01*
X123115000Y-154094250D01*
X123273750Y-154253000D01*
X124873000Y-154253000D01*
X124873000Y-153403750D01*
X125127000Y-153403750D01*
X125127000Y-154253000D01*
X126726250Y-154253000D01*
X126885000Y-154094250D01*
X126888072Y-153880000D01*
X133111928Y-153880000D01*
X133111928Y-154880000D01*
X133124188Y-155004482D01*
X133160498Y-155124180D01*
X133219463Y-155234494D01*
X133298815Y-155331185D01*
X133395506Y-155410537D01*
X133505820Y-155469502D01*
X133625518Y-155505812D01*
X133750000Y-155518072D01*
X136250000Y-155518072D01*
X136374482Y-155505812D01*
X136494180Y-155469502D01*
X136604494Y-155410537D01*
X136701185Y-155331185D01*
X136780537Y-155234494D01*
X136839502Y-155124180D01*
X136875812Y-155004482D01*
X136888072Y-154880000D01*
X143111928Y-154880000D01*
X143124188Y-155004482D01*
X143160498Y-155124180D01*
X143219463Y-155234494D01*
X143298815Y-155331185D01*
X143395506Y-155410537D01*
X143505820Y-155469502D01*
X143625518Y-155505812D01*
X143750000Y-155518072D01*
X144714250Y-155515000D01*
X144873000Y-155356250D01*
X144873000Y-154507000D01*
X145127000Y-154507000D01*
X145127000Y-155356250D01*
X145285750Y-155515000D01*
X146250000Y-155518072D01*
X146374482Y-155505812D01*
X146494180Y-155469502D01*
X146604494Y-155410537D01*
X146701185Y-155331185D01*
X146780537Y-155234494D01*
X146839502Y-155124180D01*
X146875812Y-155004482D01*
X146888072Y-154880000D01*
X146885000Y-154665750D01*
X146726250Y-154507000D01*
X145127000Y-154507000D01*
X144873000Y-154507000D01*
X143273750Y-154507000D01*
X143115000Y-154665750D01*
X143111928Y-154880000D01*
X136888072Y-154880000D01*
X136888072Y-153880000D01*
X143111928Y-153880000D01*
X143115000Y-154094250D01*
X143273750Y-154253000D01*
X144873000Y-154253000D01*
X144873000Y-153403750D01*
X145127000Y-153403750D01*
X145127000Y-154253000D01*
X146726250Y-154253000D01*
X146885000Y-154094250D01*
X146888072Y-153880000D01*
X153111928Y-153880000D01*
X153111928Y-154880000D01*
X153124188Y-155004482D01*
X153160498Y-155124180D01*
X153219463Y-155234494D01*
X153298815Y-155331185D01*
X153395506Y-155410537D01*
X153505820Y-155469502D01*
X153625518Y-155505812D01*
X153750000Y-155518072D01*
X156250000Y-155518072D01*
X156374482Y-155505812D01*
X156494180Y-155469502D01*
X156604494Y-155410537D01*
X156701185Y-155331185D01*
X156780537Y-155234494D01*
X156839502Y-155124180D01*
X156875812Y-155004482D01*
X156888072Y-154880000D01*
X156888072Y-153880000D01*
X156875812Y-153755518D01*
X156839502Y-153635820D01*
X156780537Y-153525506D01*
X156701185Y-153428815D01*
X156604494Y-153349463D01*
X156494180Y-153290498D01*
X156374482Y-153254188D01*
X156250000Y-153241928D01*
X153750000Y-153241928D01*
X153625518Y-153254188D01*
X153505820Y-153290498D01*
X153395506Y-153349463D01*
X153298815Y-153428815D01*
X153219463Y-153525506D01*
X153160498Y-153635820D01*
X153124188Y-153755518D01*
X153111928Y-153880000D01*
X146888072Y-153880000D01*
X146875812Y-153755518D01*
X146839502Y-153635820D01*
X146780537Y-153525506D01*
X146701185Y-153428815D01*
X146604494Y-153349463D01*
X146494180Y-153290498D01*
X146374482Y-153254188D01*
X146250000Y-153241928D01*
X145285750Y-153245000D01*
X145127000Y-153403750D01*
X144873000Y-153403750D01*
X144714250Y-153245000D01*
X143750000Y-153241928D01*
X143625518Y-153254188D01*
X143505820Y-153290498D01*
X143395506Y-153349463D01*
X143298815Y-153428815D01*
X143219463Y-153525506D01*
X143160498Y-153635820D01*
X143124188Y-153755518D01*
X143111928Y-153880000D01*
X136888072Y-153880000D01*
X136875812Y-153755518D01*
X136839502Y-153635820D01*
X136780537Y-153525506D01*
X136701185Y-153428815D01*
X136604494Y-153349463D01*
X136494180Y-153290498D01*
X136374482Y-153254188D01*
X136250000Y-153241928D01*
X133750000Y-153241928D01*
X133625518Y-153254188D01*
X133505820Y-153290498D01*
X133395506Y-153349463D01*
X133298815Y-153428815D01*
X133219463Y-153525506D01*
X133160498Y-153635820D01*
X133124188Y-153755518D01*
X133111928Y-153880000D01*
X126888072Y-153880000D01*
X126875812Y-153755518D01*
X126839502Y-153635820D01*
X126780537Y-153525506D01*
X126701185Y-153428815D01*
X126604494Y-153349463D01*
X126494180Y-153290498D01*
X126374482Y-153254188D01*
X126250000Y-153241928D01*
X125285750Y-153245000D01*
X125127000Y-153403750D01*
X124873000Y-153403750D01*
X124714250Y-153245000D01*
X123750000Y-153241928D01*
X123625518Y-153254188D01*
X123505820Y-153290498D01*
X123395506Y-153349463D01*
X123298815Y-153428815D01*
X123219463Y-153525506D01*
X123160498Y-153635820D01*
X123124188Y-153755518D01*
X123111928Y-153880000D01*
X116888072Y-153880000D01*
X116875812Y-153755518D01*
X116839502Y-153635820D01*
X116780537Y-153525506D01*
X116701185Y-153428815D01*
X116604494Y-153349463D01*
X116494180Y-153290498D01*
X116374482Y-153254188D01*
X116250000Y-153241928D01*
X115285750Y-153245000D01*
X115127000Y-153403750D01*
X114873000Y-153403750D01*
X114714250Y-153245000D01*
X113750000Y-153241928D01*
X113625518Y-153254188D01*
X113505820Y-153290498D01*
X113395506Y-153349463D01*
X113298815Y-153428815D01*
X113219463Y-153525506D01*
X113160498Y-153635820D01*
X113124188Y-153755518D01*
X113111928Y-153880000D01*
X106888072Y-153880000D01*
X106875812Y-153755518D01*
X106839502Y-153635820D01*
X106780537Y-153525506D01*
X106701185Y-153428815D01*
X106604494Y-153349463D01*
X106494180Y-153290498D01*
X106374482Y-153254188D01*
X106250000Y-153241928D01*
X103750000Y-153241928D01*
X103625518Y-153254188D01*
X103505820Y-153290498D01*
X103395506Y-153349463D01*
X103298815Y-153428815D01*
X103219463Y-153525506D01*
X103160498Y-153635820D01*
X103124188Y-153755518D01*
X103111928Y-153880000D01*
X100735000Y-153880000D01*
X100735000Y-150814344D01*
X103115000Y-150814344D01*
X103115000Y-151185656D01*
X103187439Y-151549834D01*
X103329534Y-151892882D01*
X103535825Y-152201618D01*
X103798382Y-152464175D01*
X104107118Y-152670466D01*
X104450166Y-152812561D01*
X104814344Y-152885000D01*
X105185656Y-152885000D01*
X105549834Y-152812561D01*
X105892882Y-152670466D01*
X106201618Y-152464175D01*
X106464175Y-152201618D01*
X106670466Y-151892882D01*
X106812561Y-151549834D01*
X106885000Y-151185656D01*
X106885000Y-150814344D01*
X113115000Y-150814344D01*
X113115000Y-151185656D01*
X113187439Y-151549834D01*
X113329534Y-151892882D01*
X113535825Y-152201618D01*
X113798382Y-152464175D01*
X114107118Y-152670466D01*
X114450166Y-152812561D01*
X114814344Y-152885000D01*
X115185656Y-152885000D01*
X115549834Y-152812561D01*
X115892882Y-152670466D01*
X116201618Y-152464175D01*
X116464175Y-152201618D01*
X116670466Y-151892882D01*
X116812561Y-151549834D01*
X116885000Y-151185656D01*
X116885000Y-150814344D01*
X123115000Y-150814344D01*
X123115000Y-151185656D01*
X123187439Y-151549834D01*
X123329534Y-151892882D01*
X123535825Y-152201618D01*
X123798382Y-152464175D01*
X124107118Y-152670466D01*
X124450166Y-152812561D01*
X124814344Y-152885000D01*
X125185656Y-152885000D01*
X125549834Y-152812561D01*
X125892882Y-152670466D01*
X126201618Y-152464175D01*
X126464175Y-152201618D01*
X126670466Y-151892882D01*
X126812561Y-151549834D01*
X126885000Y-151185656D01*
X126885000Y-150814344D01*
X133115000Y-150814344D01*
X133115000Y-151185656D01*
X133187439Y-151549834D01*
X133329534Y-151892882D01*
X133535825Y-152201618D01*
X133798382Y-152464175D01*
X134107118Y-152670466D01*
X134450166Y-152812561D01*
X134814344Y-152885000D01*
X135185656Y-152885000D01*
X135549834Y-152812561D01*
X135892882Y-152670466D01*
X136201618Y-152464175D01*
X136464175Y-152201618D01*
X136670466Y-151892882D01*
X136812561Y-151549834D01*
X136885000Y-151185656D01*
X136885000Y-150814344D01*
X143115000Y-150814344D01*
X143115000Y-151185656D01*
X143187439Y-151549834D01*
X143329534Y-151892882D01*
X143535825Y-152201618D01*
X143798382Y-152464175D01*
X144107118Y-152670466D01*
X144450166Y-152812561D01*
X144814344Y-152885000D01*
X145185656Y-152885000D01*
X145549834Y-152812561D01*
X145892882Y-152670466D01*
X146201618Y-152464175D01*
X146464175Y-152201618D01*
X146670466Y-151892882D01*
X146812561Y-151549834D01*
X146885000Y-151185656D01*
X146885000Y-150814344D01*
X153115000Y-150814344D01*
X153115000Y-151185656D01*
X153187439Y-151549834D01*
X153329534Y-151892882D01*
X153535825Y-152201618D01*
X153798382Y-152464175D01*
X154107118Y-152670466D01*
X154450166Y-152812561D01*
X154814344Y-152885000D01*
X155185656Y-152885000D01*
X155549834Y-152812561D01*
X155892882Y-152670466D01*
X156201618Y-152464175D01*
X156464175Y-152201618D01*
X156670466Y-151892882D01*
X156812561Y-151549834D01*
X156885000Y-151185656D01*
X156885000Y-150814344D01*
X156812561Y-150450166D01*
X156670466Y-150107118D01*
X156464175Y-149798382D01*
X156201618Y-149535825D01*
X155892882Y-149329534D01*
X155549834Y-149187439D01*
X155185656Y-149115000D01*
X154814344Y-149115000D01*
X154450166Y-149187439D01*
X154107118Y-149329534D01*
X153798382Y-149535825D01*
X153535825Y-149798382D01*
X153329534Y-150107118D01*
X153187439Y-150450166D01*
X153115000Y-150814344D01*
X146885000Y-150814344D01*
X146812561Y-150450166D01*
X146670466Y-150107118D01*
X146464175Y-149798382D01*
X146201618Y-149535825D01*
X145892882Y-149329534D01*
X145549834Y-149187439D01*
X145185656Y-149115000D01*
X144814344Y-149115000D01*
X144450166Y-149187439D01*
X144107118Y-149329534D01*
X143798382Y-149535825D01*
X143535825Y-149798382D01*
X143329534Y-150107118D01*
X143187439Y-150450166D01*
X143115000Y-150814344D01*
X136885000Y-150814344D01*
X136812561Y-150450166D01*
X136670466Y-150107118D01*
X136464175Y-149798382D01*
X136201618Y-149535825D01*
X135892882Y-149329534D01*
X135549834Y-149187439D01*
X135185656Y-149115000D01*
X134814344Y-149115000D01*
X134450166Y-149187439D01*
X134107118Y-149329534D01*
X133798382Y-149535825D01*
X133535825Y-149798382D01*
X133329534Y-150107118D01*
X133187439Y-150450166D01*
X133115000Y-150814344D01*
X126885000Y-150814344D01*
X126812561Y-150450166D01*
X126670466Y-150107118D01*
X126464175Y-149798382D01*
X126201618Y-149535825D01*
X125892882Y-149329534D01*
X125549834Y-149187439D01*
X125185656Y-149115000D01*
X124814344Y-149115000D01*
X124450166Y-149187439D01*
X124107118Y-149329534D01*
X123798382Y-149535825D01*
X123535825Y-149798382D01*
X123329534Y-150107118D01*
X123187439Y-150450166D01*
X123115000Y-150814344D01*
X116885000Y-150814344D01*
X116812561Y-150450166D01*
X116670466Y-150107118D01*
X116464175Y-149798382D01*
X116201618Y-149535825D01*
X115892882Y-149329534D01*
X115549834Y-149187439D01*
X115185656Y-149115000D01*
X114814344Y-149115000D01*
X114450166Y-149187439D01*
X114107118Y-149329534D01*
X113798382Y-149535825D01*
X113535825Y-149798382D01*
X113329534Y-150107118D01*
X113187439Y-150450166D01*
X113115000Y-150814344D01*
X106885000Y-150814344D01*
X106812561Y-150450166D01*
X106670466Y-150107118D01*
X106464175Y-149798382D01*
X106201618Y-149535825D01*
X105892882Y-149329534D01*
X105549834Y-149187439D01*
X105185656Y-149115000D01*
X104814344Y-149115000D01*
X104450166Y-149187439D01*
X104107118Y-149329534D01*
X103798382Y-149535825D01*
X103535825Y-149798382D01*
X103329534Y-150107118D01*
X103187439Y-150450166D01*
X103115000Y-150814344D01*
X100735000Y-150814344D01*
X100735000Y-82420000D01*
X109608299Y-82420000D01*
X109635040Y-82691507D01*
X109714236Y-82952581D01*
X109842843Y-83193188D01*
X110015919Y-83404081D01*
X110226812Y-83577157D01*
X110442578Y-83692486D01*
X110352651Y-83729028D01*
X110124939Y-83878972D01*
X109930855Y-84070460D01*
X109777858Y-84296132D01*
X109671827Y-84547316D01*
X109657682Y-84618815D01*
X109780344Y-84833000D01*
X111373000Y-84833000D01*
X111373000Y-84813000D01*
X111627000Y-84813000D01*
X111627000Y-84833000D01*
X113219656Y-84833000D01*
X113342318Y-84618815D01*
X113328173Y-84547316D01*
X113222142Y-84296132D01*
X113069145Y-84070460D01*
X112875061Y-83878972D01*
X112647349Y-83729028D01*
X112557422Y-83692486D01*
X112773188Y-83577157D01*
X112984081Y-83404081D01*
X113157157Y-83193188D01*
X113285764Y-82952581D01*
X113364960Y-82691507D01*
X113391701Y-82420000D01*
X113364960Y-82148493D01*
X113285764Y-81887419D01*
X113157157Y-81646812D01*
X112984081Y-81435919D01*
X112773188Y-81262843D01*
X112532581Y-81134236D01*
X112271507Y-81055040D01*
X112068037Y-81035000D01*
X110931963Y-81035000D01*
X110728493Y-81055040D01*
X110467419Y-81134236D01*
X110226812Y-81262843D01*
X110015919Y-81435919D01*
X109842843Y-81646812D01*
X109714236Y-81887419D01*
X109635040Y-82148493D01*
X109608299Y-82420000D01*
X100735000Y-82420000D01*
X100735000Y-65240475D01*
X106965000Y-65240475D01*
X106965000Y-65759525D01*
X107066261Y-66268601D01*
X107264893Y-66748141D01*
X107553262Y-67179715D01*
X107920285Y-67546738D01*
X108351859Y-67835107D01*
X108831399Y-68033739D01*
X109340475Y-68135000D01*
X109859525Y-68135000D01*
X110368601Y-68033739D01*
X110848141Y-67835107D01*
X111279715Y-67546738D01*
X111646738Y-67179715D01*
X111935107Y-66748141D01*
X112133739Y-66268601D01*
X112235000Y-65759525D01*
X112235000Y-65240475D01*
X115765000Y-65240475D01*
X115765000Y-65759525D01*
X115866261Y-66268601D01*
X116064893Y-66748141D01*
X116353262Y-67179715D01*
X116720285Y-67546738D01*
X117151859Y-67835107D01*
X117631399Y-68033739D01*
X118140475Y-68135000D01*
X118659525Y-68135000D01*
X119168601Y-68033739D01*
X119648141Y-67835107D01*
X120079715Y-67546738D01*
X120446738Y-67179715D01*
X120735107Y-66748141D01*
X120933739Y-66268601D01*
X121035000Y-65759525D01*
X121035000Y-65240475D01*
X138965000Y-65240475D01*
X138965000Y-65759525D01*
X139066261Y-66268601D01*
X139264893Y-66748141D01*
X139553262Y-67179715D01*
X139920285Y-67546738D01*
X140351859Y-67835107D01*
X140831399Y-68033739D01*
X141340475Y-68135000D01*
X141859525Y-68135000D01*
X142368601Y-68033739D01*
X142848141Y-67835107D01*
X143279715Y-67546738D01*
X143646738Y-67179715D01*
X143935107Y-66748141D01*
X144133739Y-66268601D01*
X144235000Y-65759525D01*
X144235000Y-65240475D01*
X147765000Y-65240475D01*
X147765000Y-65759525D01*
X147866261Y-66268601D01*
X148064893Y-66748141D01*
X148353262Y-67179715D01*
X148720285Y-67546738D01*
X149151859Y-67835107D01*
X149631399Y-68033739D01*
X150140475Y-68135000D01*
X150659525Y-68135000D01*
X151168601Y-68033739D01*
X151648141Y-67835107D01*
X152079715Y-67546738D01*
X152446738Y-67179715D01*
X152735107Y-66748141D01*
X152933739Y-66268601D01*
X153035000Y-65759525D01*
X153035000Y-65240475D01*
X152933739Y-64731399D01*
X152735107Y-64251859D01*
X152446738Y-63820285D01*
X152079715Y-63453262D01*
X151648141Y-63164893D01*
X151168601Y-62966261D01*
X150659525Y-62865000D01*
X150140475Y-62865000D01*
X149631399Y-62966261D01*
X149151859Y-63164893D01*
X148720285Y-63453262D01*
X148353262Y-63820285D01*
X148064893Y-64251859D01*
X147866261Y-64731399D01*
X147765000Y-65240475D01*
X144235000Y-65240475D01*
X144133739Y-64731399D01*
X143935107Y-64251859D01*
X143646738Y-63820285D01*
X143279715Y-63453262D01*
X142848141Y-63164893D01*
X142368601Y-62966261D01*
X141859525Y-62865000D01*
X141340475Y-62865000D01*
X140831399Y-62966261D01*
X140351859Y-63164893D01*
X139920285Y-63453262D01*
X139553262Y-63820285D01*
X139264893Y-64251859D01*
X139066261Y-64731399D01*
X138965000Y-65240475D01*
X121035000Y-65240475D01*
X120933739Y-64731399D01*
X120735107Y-64251859D01*
X120446738Y-63820285D01*
X120079715Y-63453262D01*
X119648141Y-63164893D01*
X119168601Y-62966261D01*
X118659525Y-62865000D01*
X118140475Y-62865000D01*
X117631399Y-62966261D01*
X117151859Y-63164893D01*
X116720285Y-63453262D01*
X116353262Y-63820285D01*
X116064893Y-64251859D01*
X115866261Y-64731399D01*
X115765000Y-65240475D01*
X112235000Y-65240475D01*
X112133739Y-64731399D01*
X111935107Y-64251859D01*
X111646738Y-63820285D01*
X111279715Y-63453262D01*
X110848141Y-63164893D01*
X110368601Y-62966261D01*
X109859525Y-62865000D01*
X109340475Y-62865000D01*
X108831399Y-62966261D01*
X108351859Y-63164893D01*
X107920285Y-63453262D01*
X107553262Y-63820285D01*
X107264893Y-64251859D01*
X107066261Y-64731399D01*
X106965000Y-65240475D01*
X100735000Y-65240475D01*
X100735000Y-50735000D01*
X159265000Y-50735000D01*
X159265000Y-74413421D01*
G36*
X154346525Y-98726632D02*
G01*
X154553368Y-98933475D01*
X154727760Y-99050000D01*
X154553368Y-99166525D01*
X154346525Y-99373368D01*
X154184010Y-99616589D01*
X154072068Y-99886842D01*
X154015000Y-100173740D01*
X154015000Y-100466260D01*
X154072068Y-100753158D01*
X154184010Y-101023411D01*
X154346525Y-101266632D01*
X154553368Y-101473475D01*
X154727760Y-101590000D01*
X154553368Y-101706525D01*
X154346525Y-101913368D01*
X154184010Y-102156589D01*
X154072068Y-102426842D01*
X154015000Y-102713740D01*
X154015000Y-103006260D01*
X154072068Y-103293158D01*
X154184010Y-103563411D01*
X154346525Y-103806632D01*
X154553368Y-104013475D01*
X154727760Y-104130000D01*
X154553368Y-104246525D01*
X154346525Y-104453368D01*
X154305344Y-104515000D01*
X151788196Y-104515000D01*
X151948918Y-104274463D01*
X152072168Y-103976912D01*
X152135000Y-103661033D01*
X152135000Y-103338967D01*
X152072168Y-103023088D01*
X151948918Y-102725537D01*
X151769987Y-102457748D01*
X151542252Y-102230013D01*
X151274463Y-102051082D01*
X150976912Y-101927832D01*
X150661033Y-101865000D01*
X150338967Y-101865000D01*
X150023088Y-101927832D01*
X149725537Y-102051082D01*
X149457748Y-102230013D01*
X149230013Y-102457748D01*
X149124941Y-102615000D01*
X145375059Y-102615000D01*
X145269987Y-102457748D01*
X145042252Y-102230013D01*
X144774463Y-102051082D01*
X144476912Y-101927832D01*
X144161033Y-101865000D01*
X143838967Y-101865000D01*
X143523088Y-101927832D01*
X143225537Y-102051082D01*
X142957748Y-102230013D01*
X142730013Y-102457748D01*
X142551082Y-102725537D01*
X142427832Y-103023088D01*
X142365000Y-103338967D01*
X142365000Y-103661033D01*
X142427832Y-103976912D01*
X142551082Y-104274463D01*
X142730013Y-104542252D01*
X142957748Y-104769987D01*
X143225537Y-104948918D01*
X143523088Y-105072168D01*
X143838967Y-105135000D01*
X144161033Y-105135000D01*
X144476912Y-105072168D01*
X144774463Y-104948918D01*
X145042252Y-104769987D01*
X145269987Y-104542252D01*
X145375059Y-104385000D01*
X149124941Y-104385000D01*
X149230013Y-104542252D01*
X149457748Y-104769987D01*
X149725537Y-104948918D01*
X150023088Y-105072168D01*
X150029063Y-105073356D01*
X131554951Y-123547469D01*
X131521183Y-123575182D01*
X131493470Y-123608950D01*
X131493467Y-123608953D01*
X131410589Y-123709940D01*
X131328411Y-123863686D01*
X131277804Y-124030509D01*
X131260718Y-124203999D01*
X131265000Y-124247478D01*
X131264999Y-132303384D01*
X123935001Y-139633383D01*
X123935001Y-108056571D01*
X124351859Y-108335107D01*
X124831399Y-108533739D01*
X125340475Y-108635000D01*
X125859525Y-108635000D01*
X126368601Y-108533739D01*
X126848141Y-108335107D01*
X127279715Y-108046738D01*
X127515000Y-107811453D01*
X127514999Y-111465000D01*
X127348816Y-111465000D01*
X127052257Y-111523989D01*
X126772905Y-111639701D01*
X126521495Y-111807688D01*
X126307688Y-112021495D01*
X126139701Y-112272905D01*
X126023989Y-112552257D01*
X125965000Y-112848816D01*
X125965000Y-113151184D01*
X126023989Y-113447743D01*
X126139701Y-113727095D01*
X126307688Y-113978505D01*
X126521495Y-114192312D01*
X126772905Y-114360299D01*
X127052257Y-114476011D01*
X127348816Y-114535000D01*
X127651184Y-114535000D01*
X127947743Y-114476011D01*
X128227095Y-114360299D01*
X128478505Y-114192312D01*
X128692312Y-113978505D01*
X128750000Y-113892169D01*
X128807688Y-113978505D01*
X129021495Y-114192312D01*
X129272905Y-114360299D01*
X129552257Y-114476011D01*
X129848816Y-114535000D01*
X130151184Y-114535000D01*
X130447743Y-114476011D01*
X130727095Y-114360299D01*
X130978505Y-114192312D01*
X131106737Y-114064080D01*
X131615525Y-114064080D01*
X131699208Y-114318261D01*
X131971775Y-114449158D01*
X132264642Y-114524365D01*
X132566553Y-114540991D01*
X132865907Y-114498397D01*
X133151199Y-114398222D01*
X133300792Y-114318261D01*
X133384475Y-114064080D01*
X132500000Y-113179605D01*
X131615525Y-114064080D01*
X131106737Y-114064080D01*
X131192312Y-113978505D01*
X131287738Y-113835690D01*
X131435920Y-113884475D01*
X132320395Y-113000000D01*
X132679605Y-113000000D01*
X133564080Y-113884475D01*
X133818261Y-113800792D01*
X133949158Y-113528225D01*
X134024365Y-113235358D01*
X134040991Y-112933447D01*
X133998397Y-112634093D01*
X133898222Y-112348801D01*
X133818261Y-112199208D01*
X133564080Y-112115525D01*
X132679605Y-113000000D01*
X132320395Y-113000000D01*
X131435920Y-112115525D01*
X131287738Y-112164310D01*
X131192312Y-112021495D01*
X131106737Y-111935920D01*
X131615525Y-111935920D01*
X132500000Y-112820395D01*
X133384475Y-111935920D01*
X133300792Y-111681739D01*
X133028225Y-111550842D01*
X132735358Y-111475635D01*
X132433447Y-111459009D01*
X132134093Y-111501603D01*
X131848801Y-111601778D01*
X131699208Y-111681739D01*
X131615525Y-111935920D01*
X131106737Y-111935920D01*
X130978505Y-111807688D01*
X130727095Y-111639701D01*
X130447743Y-111523989D01*
X130151184Y-111465000D01*
X129848816Y-111465000D01*
X129552257Y-111523989D01*
X129284999Y-111634691D01*
X129284999Y-109135413D01*
X143044192Y-109135413D01*
X143139956Y-109399814D01*
X143429571Y-109540704D01*
X143741108Y-109622384D01*
X144062595Y-109641718D01*
X144381675Y-109597961D01*
X144686088Y-109492795D01*
X144860044Y-109399814D01*
X144955808Y-109135413D01*
X144000000Y-108179605D01*
X143044192Y-109135413D01*
X129284999Y-109135413D01*
X129284999Y-105740475D01*
X131765000Y-105740475D01*
X131765000Y-106259525D01*
X131866261Y-106768601D01*
X132064893Y-107248141D01*
X132353262Y-107679715D01*
X132720285Y-108046738D01*
X133151859Y-108335107D01*
X133631399Y-108533739D01*
X134140475Y-108635000D01*
X134659525Y-108635000D01*
X135168601Y-108533739D01*
X135648141Y-108335107D01*
X136055983Y-108062595D01*
X142358282Y-108062595D01*
X142402039Y-108381675D01*
X142507205Y-108686088D01*
X142600186Y-108860044D01*
X142864587Y-108955808D01*
X143820395Y-108000000D01*
X144179605Y-108000000D01*
X145135413Y-108955808D01*
X145399814Y-108860044D01*
X145540704Y-108570429D01*
X145622384Y-108258892D01*
X145641718Y-107937405D01*
X145597961Y-107618325D01*
X145492795Y-107313912D01*
X145399814Y-107139956D01*
X145135413Y-107044192D01*
X144179605Y-108000000D01*
X143820395Y-108000000D01*
X142864587Y-107044192D01*
X142600186Y-107139956D01*
X142459296Y-107429571D01*
X142377616Y-107741108D01*
X142358282Y-108062595D01*
X136055983Y-108062595D01*
X136079715Y-108046738D01*
X136446738Y-107679715D01*
X136735107Y-107248141D01*
X136893980Y-106864587D01*
X143044192Y-106864587D01*
X144000000Y-107820395D01*
X144955808Y-106864587D01*
X144860044Y-106600186D01*
X144570429Y-106459296D01*
X144258892Y-106377616D01*
X143937405Y-106358282D01*
X143618325Y-106402039D01*
X143313912Y-106507205D01*
X143139956Y-106600186D01*
X143044192Y-106864587D01*
X136893980Y-106864587D01*
X136933739Y-106768601D01*
X137035000Y-106259525D01*
X137035000Y-105740475D01*
X136933739Y-105231399D01*
X136735107Y-104751859D01*
X136446738Y-104320285D01*
X136079715Y-103953262D01*
X135648141Y-103664893D01*
X135168601Y-103466261D01*
X134659525Y-103365000D01*
X134140475Y-103365000D01*
X133631399Y-103466261D01*
X133151859Y-103664893D01*
X132720285Y-103953262D01*
X132353262Y-104320285D01*
X132064893Y-104751859D01*
X131866261Y-105231399D01*
X131765000Y-105740475D01*
X129284999Y-105740475D01*
X129284999Y-105343468D01*
X129289280Y-105299999D01*
X129284999Y-105256530D01*
X129284999Y-105256522D01*
X129272194Y-105126509D01*
X129221588Y-104959686D01*
X129139410Y-104805940D01*
X129109904Y-104769987D01*
X129056531Y-104704952D01*
X129056529Y-104704950D01*
X129028816Y-104671182D01*
X128995048Y-104643469D01*
X123406535Y-99054957D01*
X123395226Y-98998102D01*
X123317205Y-98809744D01*
X123220490Y-98665000D01*
X154305344Y-98665000D01*
X154346525Y-98726632D01*
G37*
X154346525Y-98726632D02*
X154553368Y-98933475D01*
X154727760Y-99050000D01*
X154553368Y-99166525D01*
X154346525Y-99373368D01*
X154184010Y-99616589D01*
X154072068Y-99886842D01*
X154015000Y-100173740D01*
X154015000Y-100466260D01*
X154072068Y-100753158D01*
X154184010Y-101023411D01*
X154346525Y-101266632D01*
X154553368Y-101473475D01*
X154727760Y-101590000D01*
X154553368Y-101706525D01*
X154346525Y-101913368D01*
X154184010Y-102156589D01*
X154072068Y-102426842D01*
X154015000Y-102713740D01*
X154015000Y-103006260D01*
X154072068Y-103293158D01*
X154184010Y-103563411D01*
X154346525Y-103806632D01*
X154553368Y-104013475D01*
X154727760Y-104130000D01*
X154553368Y-104246525D01*
X154346525Y-104453368D01*
X154305344Y-104515000D01*
X151788196Y-104515000D01*
X151948918Y-104274463D01*
X152072168Y-103976912D01*
X152135000Y-103661033D01*
X152135000Y-103338967D01*
X152072168Y-103023088D01*
X151948918Y-102725537D01*
X151769987Y-102457748D01*
X151542252Y-102230013D01*
X151274463Y-102051082D01*
X150976912Y-101927832D01*
X150661033Y-101865000D01*
X150338967Y-101865000D01*
X150023088Y-101927832D01*
X149725537Y-102051082D01*
X149457748Y-102230013D01*
X149230013Y-102457748D01*
X149124941Y-102615000D01*
X145375059Y-102615000D01*
X145269987Y-102457748D01*
X145042252Y-102230013D01*
X144774463Y-102051082D01*
X144476912Y-101927832D01*
X144161033Y-101865000D01*
X143838967Y-101865000D01*
X143523088Y-101927832D01*
X143225537Y-102051082D01*
X142957748Y-102230013D01*
X142730013Y-102457748D01*
X142551082Y-102725537D01*
X142427832Y-103023088D01*
X142365000Y-103338967D01*
X142365000Y-103661033D01*
X142427832Y-103976912D01*
X142551082Y-104274463D01*
X142730013Y-104542252D01*
X142957748Y-104769987D01*
X143225537Y-104948918D01*
X143523088Y-105072168D01*
X143838967Y-105135000D01*
X144161033Y-105135000D01*
X144476912Y-105072168D01*
X144774463Y-104948918D01*
X145042252Y-104769987D01*
X145269987Y-104542252D01*
X145375059Y-104385000D01*
X149124941Y-104385000D01*
X149230013Y-104542252D01*
X149457748Y-104769987D01*
X149725537Y-104948918D01*
X150023088Y-105072168D01*
X150029063Y-105073356D01*
X131554951Y-123547469D01*
X131521183Y-123575182D01*
X131493470Y-123608950D01*
X131493467Y-123608953D01*
X131410589Y-123709940D01*
X131328411Y-123863686D01*
X131277804Y-124030509D01*
X131260718Y-124203999D01*
X131265000Y-124247478D01*
X131264999Y-132303384D01*
X123935001Y-139633383D01*
X123935001Y-108056571D01*
X124351859Y-108335107D01*
X124831399Y-108533739D01*
X125340475Y-108635000D01*
X125859525Y-108635000D01*
X126368601Y-108533739D01*
X126848141Y-108335107D01*
X127279715Y-108046738D01*
X127515000Y-107811453D01*
X127514999Y-111465000D01*
X127348816Y-111465000D01*
X127052257Y-111523989D01*
X126772905Y-111639701D01*
X126521495Y-111807688D01*
X126307688Y-112021495D01*
X126139701Y-112272905D01*
X126023989Y-112552257D01*
X125965000Y-112848816D01*
X125965000Y-113151184D01*
X126023989Y-113447743D01*
X126139701Y-113727095D01*
X126307688Y-113978505D01*
X126521495Y-114192312D01*
X126772905Y-114360299D01*
X127052257Y-114476011D01*
X127348816Y-114535000D01*
X127651184Y-114535000D01*
X127947743Y-114476011D01*
X128227095Y-114360299D01*
X128478505Y-114192312D01*
X128692312Y-113978505D01*
X128750000Y-113892169D01*
X128807688Y-113978505D01*
X129021495Y-114192312D01*
X129272905Y-114360299D01*
X129552257Y-114476011D01*
X129848816Y-114535000D01*
X130151184Y-114535000D01*
X130447743Y-114476011D01*
X130727095Y-114360299D01*
X130978505Y-114192312D01*
X131106737Y-114064080D01*
X131615525Y-114064080D01*
X131699208Y-114318261D01*
X131971775Y-114449158D01*
X132264642Y-114524365D01*
X132566553Y-114540991D01*
X132865907Y-114498397D01*
X133151199Y-114398222D01*
X133300792Y-114318261D01*
X133384475Y-114064080D01*
X132500000Y-113179605D01*
X131615525Y-114064080D01*
X131106737Y-114064080D01*
X131192312Y-113978505D01*
X131287738Y-113835690D01*
X131435920Y-113884475D01*
X132320395Y-113000000D01*
X132679605Y-113000000D01*
X133564080Y-113884475D01*
X133818261Y-113800792D01*
X133949158Y-113528225D01*
X134024365Y-113235358D01*
X134040991Y-112933447D01*
X133998397Y-112634093D01*
X133898222Y-112348801D01*
X133818261Y-112199208D01*
X133564080Y-112115525D01*
X132679605Y-113000000D01*
X132320395Y-113000000D01*
X131435920Y-112115525D01*
X131287738Y-112164310D01*
X131192312Y-112021495D01*
X131106737Y-111935920D01*
X131615525Y-111935920D01*
X132500000Y-112820395D01*
X133384475Y-111935920D01*
X133300792Y-111681739D01*
X133028225Y-111550842D01*
X132735358Y-111475635D01*
X132433447Y-111459009D01*
X132134093Y-111501603D01*
X131848801Y-111601778D01*
X131699208Y-111681739D01*
X131615525Y-111935920D01*
X131106737Y-111935920D01*
X130978505Y-111807688D01*
X130727095Y-111639701D01*
X130447743Y-111523989D01*
X130151184Y-111465000D01*
X129848816Y-111465000D01*
X129552257Y-111523989D01*
X129284999Y-111634691D01*
X129284999Y-109135413D01*
X143044192Y-109135413D01*
X143139956Y-109399814D01*
X143429571Y-109540704D01*
X143741108Y-109622384D01*
X144062595Y-109641718D01*
X144381675Y-109597961D01*
X144686088Y-109492795D01*
X144860044Y-109399814D01*
X144955808Y-109135413D01*
X144000000Y-108179605D01*
X143044192Y-109135413D01*
X129284999Y-109135413D01*
X129284999Y-105740475D01*
X131765000Y-105740475D01*
X131765000Y-106259525D01*
X131866261Y-106768601D01*
X132064893Y-107248141D01*
X132353262Y-107679715D01*
X132720285Y-108046738D01*
X133151859Y-108335107D01*
X133631399Y-108533739D01*
X134140475Y-108635000D01*
X134659525Y-108635000D01*
X135168601Y-108533739D01*
X135648141Y-108335107D01*
X136055983Y-108062595D01*
X142358282Y-108062595D01*
X142402039Y-108381675D01*
X142507205Y-108686088D01*
X142600186Y-108860044D01*
X142864587Y-108955808D01*
X143820395Y-108000000D01*
X144179605Y-108000000D01*
X145135413Y-108955808D01*
X145399814Y-108860044D01*
X145540704Y-108570429D01*
X145622384Y-108258892D01*
X145641718Y-107937405D01*
X145597961Y-107618325D01*
X145492795Y-107313912D01*
X145399814Y-107139956D01*
X145135413Y-107044192D01*
X144179605Y-108000000D01*
X143820395Y-108000000D01*
X142864587Y-107044192D01*
X142600186Y-107139956D01*
X142459296Y-107429571D01*
X142377616Y-107741108D01*
X142358282Y-108062595D01*
X136055983Y-108062595D01*
X136079715Y-108046738D01*
X136446738Y-107679715D01*
X136735107Y-107248141D01*
X136893980Y-106864587D01*
X143044192Y-106864587D01*
X144000000Y-107820395D01*
X144955808Y-106864587D01*
X144860044Y-106600186D01*
X144570429Y-106459296D01*
X144258892Y-106377616D01*
X143937405Y-106358282D01*
X143618325Y-106402039D01*
X143313912Y-106507205D01*
X143139956Y-106600186D01*
X143044192Y-106864587D01*
X136893980Y-106864587D01*
X136933739Y-106768601D01*
X137035000Y-106259525D01*
X137035000Y-105740475D01*
X136933739Y-105231399D01*
X136735107Y-104751859D01*
X136446738Y-104320285D01*
X136079715Y-103953262D01*
X135648141Y-103664893D01*
X135168601Y-103466261D01*
X134659525Y-103365000D01*
X134140475Y-103365000D01*
X133631399Y-103466261D01*
X133151859Y-103664893D01*
X132720285Y-103953262D01*
X132353262Y-104320285D01*
X132064893Y-104751859D01*
X131866261Y-105231399D01*
X131765000Y-105740475D01*
X129284999Y-105740475D01*
X129284999Y-105343468D01*
X129289280Y-105299999D01*
X129284999Y-105256530D01*
X129284999Y-105256522D01*
X129272194Y-105126509D01*
X129221588Y-104959686D01*
X129139410Y-104805940D01*
X129109904Y-104769987D01*
X129056531Y-104704952D01*
X129056529Y-104704950D01*
X129028816Y-104671182D01*
X128995048Y-104643469D01*
X123406535Y-99054957D01*
X123395226Y-98998102D01*
X123317205Y-98809744D01*
X123220490Y-98665000D01*
X154305344Y-98665000D01*
X154346525Y-98726632D01*
G36*
X148965001Y-130490578D02*
G01*
X148965001Y-131034606D01*
X148735358Y-130975635D01*
X148433447Y-130959009D01*
X148134093Y-131001603D01*
X147848801Y-131101778D01*
X147699208Y-131181739D01*
X147615525Y-131435920D01*
X148500000Y-132320395D01*
X148514143Y-132306253D01*
X148693748Y-132485858D01*
X148679605Y-132500000D01*
X148693748Y-132514143D01*
X148514143Y-132693748D01*
X148500000Y-132679605D01*
X148485858Y-132693748D01*
X148306253Y-132514143D01*
X148320395Y-132500000D01*
X147435920Y-131615525D01*
X147287738Y-131664310D01*
X147192312Y-131521495D01*
X146978505Y-131307688D01*
X146727095Y-131139701D01*
X146447743Y-131023989D01*
X146151184Y-130965000D01*
X145848816Y-130965000D01*
X145738518Y-130986939D01*
X142663264Y-127911686D01*
X142848141Y-127835107D01*
X143279715Y-127546738D01*
X143646738Y-127179715D01*
X143935107Y-126748141D01*
X144133739Y-126268601D01*
X144234826Y-125760402D01*
X148965001Y-130490578D01*
G37*
X148965001Y-130490578D02*
X148965001Y-131034606D01*
X148735358Y-130975635D01*
X148433447Y-130959009D01*
X148134093Y-131001603D01*
X147848801Y-131101778D01*
X147699208Y-131181739D01*
X147615525Y-131435920D01*
X148500000Y-132320395D01*
X148514143Y-132306253D01*
X148693748Y-132485858D01*
X148679605Y-132500000D01*
X148693748Y-132514143D01*
X148514143Y-132693748D01*
X148500000Y-132679605D01*
X148485858Y-132693748D01*
X148306253Y-132514143D01*
X148320395Y-132500000D01*
X147435920Y-131615525D01*
X147287738Y-131664310D01*
X147192312Y-131521495D01*
X146978505Y-131307688D01*
X146727095Y-131139701D01*
X146447743Y-131023989D01*
X146151184Y-130965000D01*
X145848816Y-130965000D01*
X145738518Y-130986939D01*
X142663264Y-127911686D01*
X142848141Y-127835107D01*
X143279715Y-127546738D01*
X143646738Y-127179715D01*
X143935107Y-126748141D01*
X144133739Y-126268601D01*
X144234826Y-125760402D01*
X148965001Y-130490578D01*
G36*
X115615525Y-71435920D02*
G01*
X116500000Y-72320395D01*
X117384475Y-71435920D01*
X117367711Y-71385000D01*
X142444183Y-71385000D01*
X142307688Y-71521495D01*
X142246782Y-71612647D01*
X142227207Y-71610719D01*
X142183741Y-71615000D01*
X142183731Y-71615000D01*
X142053718Y-71627805D01*
X141886895Y-71678411D01*
X141733149Y-71760589D01*
X141733147Y-71760590D01*
X141733148Y-71760590D01*
X141632161Y-71843468D01*
X141632159Y-71843470D01*
X141598391Y-71871183D01*
X141570678Y-71904951D01*
X126904952Y-86570678D01*
X126871184Y-86598391D01*
X126843471Y-86632159D01*
X126843468Y-86632162D01*
X126760590Y-86733149D01*
X126678412Y-86886895D01*
X126627805Y-87053718D01*
X126610719Y-87227208D01*
X126615001Y-87270687D01*
X126615001Y-88863422D01*
X121492054Y-83740475D01*
X122965000Y-83740475D01*
X122965000Y-84259525D01*
X123066261Y-84768601D01*
X123264893Y-85248141D01*
X123553262Y-85679715D01*
X123920285Y-86046738D01*
X124351859Y-86335107D01*
X124831399Y-86533739D01*
X125340475Y-86635000D01*
X125859525Y-86635000D01*
X126368601Y-86533739D01*
X126848141Y-86335107D01*
X127279715Y-86046738D01*
X127646738Y-85679715D01*
X127935107Y-85248141D01*
X128133739Y-84768601D01*
X128235000Y-84259525D01*
X128235000Y-83740475D01*
X128133739Y-83231399D01*
X127935107Y-82751859D01*
X127646738Y-82320285D01*
X127279715Y-81953262D01*
X126848141Y-81664893D01*
X126368601Y-81466261D01*
X125859525Y-81365000D01*
X125340475Y-81365000D01*
X124831399Y-81466261D01*
X124351859Y-81664893D01*
X123920285Y-81953262D01*
X123553262Y-82320285D01*
X123264893Y-82751859D01*
X123066261Y-83231399D01*
X122965000Y-83740475D01*
X121492054Y-83740475D01*
X113284999Y-75533421D01*
X113284999Y-73865309D01*
X113552257Y-73976011D01*
X113848816Y-74035000D01*
X114151184Y-74035000D01*
X114447743Y-73976011D01*
X114727095Y-73860299D01*
X114978505Y-73692312D01*
X115106737Y-73564080D01*
X115615525Y-73564080D01*
X115699208Y-73818261D01*
X115971775Y-73949158D01*
X116264642Y-74024365D01*
X116566553Y-74040991D01*
X116865907Y-73998397D01*
X117151199Y-73898222D01*
X117300792Y-73818261D01*
X117384475Y-73564080D01*
X116500000Y-72679605D01*
X115615525Y-73564080D01*
X115106737Y-73564080D01*
X115192312Y-73478505D01*
X115287738Y-73335690D01*
X115435920Y-73384475D01*
X116320395Y-72500000D01*
X116679605Y-72500000D01*
X117564080Y-73384475D01*
X117818261Y-73300792D01*
X117949158Y-73028225D01*
X118024365Y-72735358D01*
X118040991Y-72433447D01*
X117998397Y-72134093D01*
X117898222Y-71848801D01*
X117818261Y-71699208D01*
X117564080Y-71615525D01*
X116679605Y-72500000D01*
X116320395Y-72500000D01*
X115435920Y-71615525D01*
X115287738Y-71664310D01*
X115192312Y-71521495D01*
X115074802Y-71403985D01*
X115093787Y-71385000D01*
X115632289Y-71385000D01*
X115615525Y-71435920D01*
G37*
X115615525Y-71435920D02*
X116500000Y-72320395D01*
X117384475Y-71435920D01*
X117367711Y-71385000D01*
X142444183Y-71385000D01*
X142307688Y-71521495D01*
X142246782Y-71612647D01*
X142227207Y-71610719D01*
X142183741Y-71615000D01*
X142183731Y-71615000D01*
X142053718Y-71627805D01*
X141886895Y-71678411D01*
X141733149Y-71760589D01*
X141733147Y-71760590D01*
X141733148Y-71760590D01*
X141632161Y-71843468D01*
X141632159Y-71843470D01*
X141598391Y-71871183D01*
X141570678Y-71904951D01*
X126904952Y-86570678D01*
X126871184Y-86598391D01*
X126843471Y-86632159D01*
X126843468Y-86632162D01*
X126760590Y-86733149D01*
X126678412Y-86886895D01*
X126627805Y-87053718D01*
X126610719Y-87227208D01*
X126615001Y-87270687D01*
X126615001Y-88863422D01*
X121492054Y-83740475D01*
X122965000Y-83740475D01*
X122965000Y-84259525D01*
X123066261Y-84768601D01*
X123264893Y-85248141D01*
X123553262Y-85679715D01*
X123920285Y-86046738D01*
X124351859Y-86335107D01*
X124831399Y-86533739D01*
X125340475Y-86635000D01*
X125859525Y-86635000D01*
X126368601Y-86533739D01*
X126848141Y-86335107D01*
X127279715Y-86046738D01*
X127646738Y-85679715D01*
X127935107Y-85248141D01*
X128133739Y-84768601D01*
X128235000Y-84259525D01*
X128235000Y-83740475D01*
X128133739Y-83231399D01*
X127935107Y-82751859D01*
X127646738Y-82320285D01*
X127279715Y-81953262D01*
X126848141Y-81664893D01*
X126368601Y-81466261D01*
X125859525Y-81365000D01*
X125340475Y-81365000D01*
X124831399Y-81466261D01*
X124351859Y-81664893D01*
X123920285Y-81953262D01*
X123553262Y-82320285D01*
X123264893Y-82751859D01*
X123066261Y-83231399D01*
X122965000Y-83740475D01*
X121492054Y-83740475D01*
X113284999Y-75533421D01*
X113284999Y-73865309D01*
X113552257Y-73976011D01*
X113848816Y-74035000D01*
X114151184Y-74035000D01*
X114447743Y-73976011D01*
X114727095Y-73860299D01*
X114978505Y-73692312D01*
X115106737Y-73564080D01*
X115615525Y-73564080D01*
X115699208Y-73818261D01*
X115971775Y-73949158D01*
X116264642Y-74024365D01*
X116566553Y-74040991D01*
X116865907Y-73998397D01*
X117151199Y-73898222D01*
X117300792Y-73818261D01*
X117384475Y-73564080D01*
X116500000Y-72679605D01*
X115615525Y-73564080D01*
X115106737Y-73564080D01*
X115192312Y-73478505D01*
X115287738Y-73335690D01*
X115435920Y-73384475D01*
X116320395Y-72500000D01*
X116679605Y-72500000D01*
X117564080Y-73384475D01*
X117818261Y-73300792D01*
X117949158Y-73028225D01*
X118024365Y-72735358D01*
X118040991Y-72433447D01*
X117998397Y-72134093D01*
X117898222Y-71848801D01*
X117818261Y-71699208D01*
X117564080Y-71615525D01*
X116679605Y-72500000D01*
X116320395Y-72500000D01*
X115435920Y-71615525D01*
X115287738Y-71664310D01*
X115192312Y-71521495D01*
X115074802Y-71403985D01*
X115093787Y-71385000D01*
X115632289Y-71385000D01*
X115615525Y-71435920D01*
M02*
